<svg width="197" height="60" viewBox="0 0 197 60" fill="none" xmlns="http://www.w3.org/2000/svg">
<path d="M63.4894 37.5095C61.6171 38.5173 59.8887 39.6691 58.0164 40.4609C53.4075 42.2606 48.7266 42.6205 44.0457 40.7489C39.0768 38.8053 36.1962 33.7662 36.8443 28.4393C37.4925 22.9684 40.8051 19.801 45.774 18.0013C48.6546 16.9935 51.7512 16.7056 54.7758 16.7056C57.2962 16.7056 59.8167 16.7056 62.3372 16.7056C62.6973 16.7056 63.0573 16.7056 63.4174 16.7056C63.8495 11.8106 61.401 9.00311 57.2962 8.42722C53.1915 7.85134 49.2307 8.35524 45.2699 9.579C44.2618 9.86694 43.1815 10.0829 42.1734 10.0109C40.6611 9.79496 39.5809 8.49921 39.4368 7.13148C39.2208 5.25985 39.7969 3.82013 41.4532 3.17226C43.3976 2.38041 45.342 1.66055 47.4304 1.15665C51.031 0.220836 54.7037 -0.0671077 58.4485 0.364808C66.0099 1.15665 71.771 7.13148 71.9871 14.762C72.2031 22.4645 72.0591 30.095 72.0591 37.7975C72.0591 39.885 70.2587 41.5407 68.0263 41.6847C65.9379 41.8287 64.1376 40.389 63.7055 38.3733C63.6335 37.9414 63.5614 37.7255 63.4894 37.5095ZM63.4894 23.9042C63.3454 23.8322 63.2734 23.7602 63.1294 23.7602C59.4567 23.8322 55.856 23.7602 52.1833 23.9762C50.599 24.0482 49.0867 24.624 47.5744 25.2719C45.8461 25.9918 45.0539 27.4315 45.1259 29.3031C45.2699 31.3907 46.2061 32.9744 48.1505 33.6943C49.3027 34.1262 50.671 34.3421 51.8952 34.3421C56.3601 34.4861 59.9607 32.5425 63.0573 29.5191C63.2014 29.3751 63.3454 29.0872 63.4174 28.9432C63.5614 27.2155 63.4894 25.5599 63.4894 23.9042Z" fill="#325698"/>
<path d="M177.631 30.3829C178.783 27.5034 179.863 24.9119 180.944 22.3204C183.536 15.9857 186.201 9.72291 188.793 3.38815C189.369 2.09241 190.161 1.01262 191.602 0.65269C193.258 0.220775 194.698 0.580705 195.851 1.87645C197.075 3.1722 197.291 4.75589 196.643 6.33957C195.058 10.2988 193.402 14.186 191.746 18.1453C186.489 30.6708 181.232 43.2683 176.047 55.7939C175.471 57.1616 174.75 58.3853 173.238 58.8892C171.654 59.3932 170.214 59.0332 169.061 57.8814C167.837 56.5857 167.549 55.074 168.197 53.4183C169.277 50.6109 170.358 47.8754 171.438 45.068C171.654 44.5641 171.798 43.9882 172.086 43.4843C173.166 41.7566 172.734 40.2449 172.014 38.5173C167.621 27.9353 163.3 17.3534 158.907 6.77149C158.187 5.04383 158.187 3.38815 159.412 1.94844C161.428 -0.427098 165.245 0.148789 166.469 3.10021C168.629 8.35518 170.718 13.6101 172.878 18.8651C174.318 22.3204 175.687 25.8477 177.127 29.3031C177.199 29.591 177.343 29.879 177.631 30.3829Z" fill="#325698"/>
<path d="M15.7444 41.9726C11.5676 41.9726 7.39076 41.1087 3.57404 39.3811C2.42182 38.8772 1.19758 38.2293 0.54946 37.0775C-0.170678 35.9977 -0.170677 34.486 0.477447 33.3343C1.12557 32.1825 2.3498 31.4626 3.71807 31.4626C4.72626 31.4626 5.66244 31.8945 6.59862 32.2545C10.7034 33.8382 15.2403 34.63 19.4891 33.4782C20.6413 33.1903 21.7935 32.6864 22.5857 31.7506C23.3778 30.8147 23.6659 29.447 23.0177 28.4392C22.4416 27.5754 21.3614 27.2155 20.3532 26.8555C17.4727 25.9917 14.6642 25.1279 11.7836 24.264C8.32694 23.2562 4.65424 22.0325 2.42182 19.225C1.2696 17.7133 0.549458 15.8417 0.333416 13.9701C-0.0986662 10.0108 1.62966 5.83566 4.72625 3.31615C7.96687 0.652678 12.4317 -0.0671809 16.6085 0.00480499C19.9212 0.0767909 23.2338 0.580691 26.3304 1.66048C27.2666 1.94842 28.2027 2.38034 28.9229 3.02821C29.787 3.89204 30.2191 5.18779 29.9311 6.41155C29.643 7.63531 28.7789 8.64311 27.6266 9.07502C25.8983 9.7229 24.0259 9.00304 22.2256 8.49914C19.273 7.70729 16.1044 7.6353 13.0799 8.28318C11.7116 8.57112 10.2713 9.07502 9.33514 10.1548C8.39896 11.2346 8.03889 12.9623 8.97507 14.042C9.33514 14.474 9.83923 14.7619 10.4153 15.0498C13.872 16.7775 17.7607 17.2814 21.3614 18.3612C25.0341 19.441 28.7789 21.3846 30.4352 24.8399C32.9557 29.9509 30.7952 36.5736 25.9703 39.3811C23.7379 40.6768 21.1454 41.3247 18.6249 41.6126C17.6887 41.9006 16.6805 41.9726 15.7444 41.9726Z" fill="#325698"/>
<path d="M136.944 30.5988C137.736 28.5832 138.456 26.7116 139.248 24.8399C142.129 17.6413 144.937 10.3708 147.818 3.17218C148.61 1.15657 150.626 0.148772 152.715 0.580687C154.587 1.0126 156.027 2.81225 155.883 4.75587C155.811 5.47573 155.595 6.26757 155.307 6.98743C150.986 17.2814 146.665 27.5754 142.417 37.7974C141.408 40.2449 139.608 41.5406 137.016 41.5406C134.351 41.5406 132.551 40.3889 131.471 37.8694C127.078 27.5034 122.757 17.1374 118.436 6.77147C117.428 4.32395 118.076 2.09239 120.092 0.940616C122.181 -0.211158 124.989 0.724659 125.925 3.10019C128.014 8.35516 130.102 13.6101 132.191 18.8651C133.631 22.4644 135.071 26.1357 136.511 29.735C136.655 29.9509 136.727 30.1669 136.944 30.5988Z" fill="#325698"/>
<path d="M96.5437 30.3109C96.6877 30.0229 96.8317 29.735 96.9758 29.447C100.432 20.7368 103.889 11.9545 107.346 3.24419C108.066 1.44454 109.866 0.29277 111.667 0.508728C113.611 0.724685 115.123 2.02043 115.339 4.03604C115.411 4.97185 115.267 5.97965 114.907 6.84348C111.739 14.546 108.498 22.2485 105.257 29.9509C104.105 32.6864 102.953 35.4219 101.801 38.1573C100.864 40.3889 98.9921 41.6127 96.5437 41.6846C94.0232 41.6846 92.1508 40.6049 91.1426 38.3013C86.6778 27.7914 82.2849 17.2094 77.8921 6.62753C77.172 4.97185 77.316 3.38816 78.5402 1.94844C79.6204 0.724685 81.0607 0.292771 82.645 0.6527C84.0853 1.01263 85.0935 1.87646 85.6696 3.31618C88.6222 10.8027 91.5747 18.2892 94.5993 25.8477C95.1754 27.3595 95.8235 28.8712 96.3996 30.3829C96.3996 30.3109 96.4717 30.3109 96.5437 30.3109Z" fill="#325698"/>
</svg>
