<svg width="99" height="36" viewBox="0 0 99 36" fill="none" xmlns="http://www.w3.org/2000/svg">
<g filter="url(#filter0_dd_2108_3854)">
<path d="M33.3263 17.7091C32.4614 18.1766 31.6631 18.711 30.7983 19.0783C28.6694 19.9132 26.5072 20.0802 24.3451 19.2119C22.0499 18.3102 20.7193 15.9726 21.0187 13.5013C21.3181 10.9633 22.8482 9.49389 25.1434 8.65902C26.474 8.19148 27.9043 8.0579 29.3014 8.0579C30.4656 8.0579 31.6299 8.0579 32.7941 8.0579C32.9604 8.0579 33.1267 8.0579 33.293 8.0579C33.4926 5.78703 32.3617 4.48462 30.4656 4.21746C28.5696 3.9503 26.7401 4.18406 24.9106 4.75178C24.4449 4.88536 23.9459 4.98555 23.4802 4.95215C22.7817 4.85197 22.2827 4.25085 22.2162 3.61634C22.1164 2.74807 22.3825 2.08017 23.1476 1.77961C24.0457 1.41226 24.9438 1.07831 25.9085 0.844545C27.5717 0.410408 29.2681 0.276827 30.9978 0.477198C34.4905 0.844545 37.1516 3.61634 37.2514 7.15623C37.3512 10.7295 37.2847 14.2694 37.2847 17.8427C37.2847 18.8111 36.4531 19.5792 35.4219 19.646C34.4573 19.7128 33.6257 19.0449 33.4261 18.1099C33.3928 17.9095 33.3596 17.8093 33.3263 17.7091ZM33.3263 11.3974C33.2598 11.364 33.2265 11.3306 33.16 11.3306C31.4635 11.364 29.8003 11.3306 28.1039 11.4308C27.3721 11.4642 26.6735 11.7314 25.975 12.0319C25.1767 12.3659 24.8108 13.0338 24.844 13.9021C24.9106 14.8705 25.343 15.6052 26.2411 15.9392C26.7733 16.1395 27.4053 16.2397 27.9708 16.2397C30.0332 16.3065 31.6964 15.4048 33.1267 14.0022C33.1933 13.9355 33.2598 13.8019 33.293 13.7351C33.3596 12.9336 33.3263 12.1655 33.3263 11.3974Z" fill="#325698"/>
<path d="M86.0494 14.403C86.5816 13.0671 87.0805 11.8649 87.5795 10.6627C88.777 7.72392 90.0078 4.81854 91.2053 1.87976C91.4714 1.27865 91.8373 0.777723 92.5026 0.610747C93.2676 0.410376 93.9329 0.577352 94.4651 1.17847C95.0306 1.77958 95.1304 2.51427 94.831 3.24897C94.0992 5.0857 93.3341 6.88904 92.5691 8.72577C90.1408 14.5365 87.7126 20.3807 85.3176 26.1915C85.0515 26.826 84.7188 27.3937 84.0203 27.6274C83.2885 27.8612 82.6232 27.6942 82.091 27.1599C81.5255 26.5588 81.3924 25.8575 81.6918 25.0894C82.1908 23.787 82.6897 22.518 83.1887 21.2156C83.2885 20.9818 83.355 20.7146 83.4881 20.4809C83.987 19.6794 83.7874 18.9781 83.4548 18.1766C81.4257 13.2675 79.4299 8.35843 77.4008 3.44934C77.0681 2.64785 77.0681 1.87976 77.6336 1.21186C78.565 0.109819 80.328 0.37698 80.8935 1.74618C81.8914 4.18403 82.8561 6.62188 83.854 9.05973C84.5192 10.6627 85.1513 12.2991 85.8165 13.902C85.8498 14.0356 85.9163 14.1692 86.0494 14.403Z" fill="#325698"/>
<path d="M11.2725 19.7796C9.34316 19.7796 7.41386 19.3789 5.65088 18.5774C5.11866 18.3436 4.55317 18.0431 4.2538 17.5087C3.92116 17.0078 3.92116 16.3065 4.22054 15.7722C4.51991 15.2379 5.0854 14.9039 5.71741 14.9039C6.1831 14.9039 6.61553 15.1043 7.04796 15.2713C8.944 16.0059 11.0396 16.3733 13.0022 15.839C13.5344 15.7054 14.0666 15.4716 14.4325 15.0375C14.7984 14.6033 14.9315 13.9688 14.6321 13.5013C14.366 13.1006 13.867 12.9336 13.4013 12.7666C12.0708 12.3659 10.7735 11.9651 9.44295 11.5644C7.84629 11.0969 6.14984 10.5291 5.11866 9.22672C4.58644 8.52543 4.2538 7.65715 4.15401 6.78888C3.95443 4.95214 4.75276 3.01522 6.1831 1.84639C7.67997 0.610769 9.74233 0.276817 11.6716 0.310212C13.2018 0.343608 14.7319 0.577374 16.1622 1.0783C16.5947 1.21188 17.0271 1.41225 17.3597 1.71281C17.7589 2.11355 17.9585 2.71467 17.8254 3.28238C17.6924 3.8501 17.2932 4.31763 16.761 4.518C15.9627 4.81856 15.0978 4.48461 14.2662 4.25084C12.9024 3.8835 11.4388 3.8501 10.0417 4.15066C9.40969 4.28424 8.74441 4.518 8.31198 5.01893C7.87955 5.51986 7.71324 6.32134 8.14566 6.82227C8.31198 7.02264 8.54483 7.15622 8.81094 7.2898C10.4076 8.09129 12.2039 8.32505 13.867 8.82598C15.5635 9.32691 17.2932 10.2286 18.0583 11.8315C19.2225 14.2026 18.2246 17.275 15.9959 18.5774C14.9647 19.1785 13.7672 19.479 12.603 19.6126C12.1706 19.7462 11.7049 19.7796 11.2725 19.7796Z" fill="#325698"/>
<path d="M67.2554 14.5031C67.6213 13.5681 67.954 12.6998 68.3199 11.8315C69.6504 8.49201 70.9477 5.1191 72.2783 1.77958C72.6442 0.844518 73.5755 0.376985 74.5402 0.577356C75.4051 0.777727 76.0703 1.61261 76.0038 2.51428C75.9705 2.84823 75.8707 3.21557 75.7377 3.54953C73.7419 8.32504 71.746 13.1005 69.7835 17.8427C69.3178 18.9781 68.4862 19.5792 67.2887 19.5792C66.0579 19.5792 65.2263 19.0449 64.7274 17.8761C62.6983 13.0672 60.7024 8.25825 58.7066 3.44934C58.2409 2.31391 58.5403 1.27865 59.4717 0.744332C60.4363 0.210009 61.7336 0.644146 62.1661 1.74619C63.1307 4.18404 64.0954 6.62188 65.06 9.05973C65.7253 10.7295 66.3906 12.4326 67.0558 14.1024C67.1224 14.2026 67.1556 14.3028 67.2554 14.5031Z" fill="#325698"/>
<path d="M48.5945 14.3696C48.661 14.236 48.7275 14.1025 48.7941 13.9689C50.3907 9.92806 51.9874 5.85385 53.584 1.81303C53.9167 0.978154 54.7483 0.443831 55.5799 0.544016C56.478 0.644202 57.1765 1.24532 57.2763 2.18038C57.3096 2.61452 57.2431 3.08205 57.0767 3.48279C55.6131 7.05608 54.1163 10.6294 52.6194 14.2026C52.0872 15.4717 51.5549 16.7407 51.0227 18.0097C50.5903 19.0449 49.7254 19.6127 48.5945 19.6461C47.4302 19.6461 46.5654 19.1451 46.0997 18.0765C44.0373 13.2008 42.0082 8.2917 39.9791 3.38261C39.6465 2.61452 39.713 1.87982 40.2785 1.21192C40.7775 0.644202 41.4428 0.443831 42.1746 0.610807C42.8398 0.777783 43.3055 1.17852 43.5716 1.84643C44.9355 5.31953 46.2993 8.79262 47.6963 12.2991C47.9625 13.0004 48.2618 13.7017 48.5279 14.403C48.5279 14.3696 48.5612 14.3696 48.5945 14.3696Z" fill="#325698"/>
</g>
<defs>
<filter id="filter0_dd_2108_3854" x="0" y="0.307983" width="98.9961" height="35.4226" filterUnits="userSpaceOnUse" color-interpolation-filters="sRGB">
<feFlood flood-opacity="0" result="BackgroundImageFix"/>
<feColorMatrix in="SourceAlpha" type="matrix" values="0 0 0 0 0 0 0 0 0 0 0 0 0 0 0 0 0 0 127 0" result="hardAlpha"/>
<feOffset dy="4"/>
<feGaussianBlur stdDeviation="2"/>
<feComposite in2="hardAlpha" operator="out"/>
<feColorMatrix type="matrix" values="0 0 0 0 0 0 0 0 0 0 0 0 0 0 0 0 0 0 0.25 0"/>
<feBlend mode="normal" in2="BackgroundImageFix" result="effect1_dropShadow_2108_3854"/>
<feColorMatrix in="SourceAlpha" type="matrix" values="0 0 0 0 0 0 0 0 0 0 0 0 0 0 0 0 0 0 127 0" result="hardAlpha"/>
<feOffset dy="4"/>
<feGaussianBlur stdDeviation="2"/>
<feComposite in2="hardAlpha" operator="out"/>
<feColorMatrix type="matrix" values="0 0 0 0 0 0 0 0 0 0 0 0 0 0 0 0 0 0 0.25 0"/>
<feBlend mode="normal" in2="effect1_dropShadow_2108_3854" result="effect2_dropShadow_2108_3854"/>
<feBlend mode="normal" in="SourceGraphic" in2="effect2_dropShadow_2108_3854" result="shape"/>
</filter>
</defs>
</svg>
