<svg width="273" height="264" viewBox="0 0 273 264" fill="none" xmlns="http://www.w3.org/2000/svg">
<path fill-rule="evenodd" clip-rule="evenodd" d="M0 157.921C0 157.921 8.3364 155.591 12.9471 149.925L19.7406 167.033C19.7406 167.033 3.04493 164.546 0 157.921Z" fill="#DAEDF6"/>
<path fill-rule="evenodd" clip-rule="evenodd" d="M242.823 32.6482C242.823 32.6482 230.288 35.2028 224.562 32.6482L237.382 49.5945C242.451 46.3261 245.943 42.1335 242.823 32.6482Z" fill="#DAEDF6"/>
<path d="M140.602 264C213.188 264 272.032 204.901 272.032 132C272.032 59.0983 213.188 0 140.602 0C68.0153 0 9.17221 59.0983 9.17221 132C9.17221 204.901 68.0153 264 140.602 264Z" fill="url(#paint0_linear_2108_5160)"/>
<path fill-rule="evenodd" clip-rule="evenodd" d="M36.4769 51.4825C33.093 72.0528 29.674 108.316 39.8253 139.969C52.0328 178.035 71.3711 207.536 110.002 214.636C137.444 219.68 133.799 198.653 169.339 192.87C187.095 189.98 219.006 195.397 228.698 176.362C239.264 155.611 262.242 115.872 251.617 61.3533C264.542 81.7841 272.031 106.02 272.031 132C272.031 204.852 213.14 264 140.602 264C68.0635 264 9.17194 204.852 9.17194 132C9.17194 101.7 19.3586 73.7714 36.4769 51.4825Z" fill="url(#paint1_linear_2108_5160)"/>
<path fill-rule="evenodd" clip-rule="evenodd" d="M138.039 12.561C179.165 12.561 215.687 37.0372 223.638 62.2533C231.589 87.4694 225.672 141.207 200.774 159.621C175.876 178.035 106.315 185.172 84.6954 164.671C63.0752 144.169 46.9427 89.3532 57.6633 62.2533C67.2002 38.1459 96.9133 12.561 138.039 12.561Z" fill="url(#paint2_linear_2108_5160)"/>
<path d="M130.871 105.955C148.536 105.955 162.856 91.5725 162.856 73.8307C162.856 56.0888 148.536 41.7062 130.871 41.7062C113.205 41.7062 98.8849 56.0888 98.8849 73.8307C98.8849 91.5725 113.205 105.955 130.871 105.955Z" fill="url(#paint3_linear_2108_5160)"/>
<path d="M168.482 140.301C180.986 140.301 191.122 130.121 191.122 117.563C191.122 105.005 180.986 94.8252 168.482 94.8252C155.979 94.8252 145.843 105.005 145.843 117.563C145.843 130.121 155.979 140.301 168.482 140.301Z" fill="url(#paint4_linear_2108_5160)"/>
<path fill-rule="evenodd" clip-rule="evenodd" d="M11.7345 105.954C11.5456 180.633 60.9743 226.54 99.3091 238.248C135.736 249.374 145.252 248.17 145.252 248.17C145.252 248.17 137.229 213.094 176.83 214.129C211.942 215.048 214.674 218.301 229.304 211.975C236.489 208.868 262.405 186.248 271.957 127.536L271.964 127.747C271.966 127.817 271.968 127.888 271.971 127.959L271.973 128.023L270.451 152.512C260.622 215.642 206.19 263.999 140.602 263.999C68.0635 263.999 9.17194 204.852 9.17194 131.999C9.17194 123.082 10.0541 114.37 11.7345 105.954Z" fill="url(#paint5_linear_2108_5160)"/>
<path fill-rule="evenodd" clip-rule="evenodd" d="M78.521 248.354C82.0708 243.662 88.3541 237.618 97.8027 236.243C113.736 233.924 116.476 232.481 124.211 224.962C133.697 215.741 148.633 217.773 159.486 224.962C170.34 232.152 173.997 236.011 189.238 236.243C197.074 236.362 203.708 240.174 208.556 244.985C188.717 257.053 165.461 264 140.602 264C118.151 264 97.008 258.334 78.521 248.354ZM66.9137 22.7101C69.6206 24.9568 72.3936 27.8092 75.0733 31.4308C82.1395 40.9813 70.0536 56.3106 77.2754 70.2298C84.5839 84.3161 92.7435 81.8417 97.9953 96.2601C107.214 121.57 75.2233 116.28 82.9808 135.022C88.7413 148.939 53.002 157.282 61.0097 169.848C69.0173 182.414 76.875 179.197 77.2754 195.986C77.4178 201.958 68.8173 206.089 75.0733 223.933C78.3382 233.246 78.2527 240.743 70.454 243.621C33.6346 220.214 9.17221 178.953 9.17221 132C9.17221 86.5617 32.0812 46.4549 66.9137 22.7101ZM218.459 25.6728C250.943 49.7174 272.031 88.4048 272.031 132C272.031 146.753 269.616 160.943 265.161 174.199C261.793 176.172 258.599 178.904 255.79 183.418C249.435 193.631 241.899 218.785 230.689 218.785C219.48 218.785 213.421 200.728 218.459 183.418C221.933 171.484 210.004 167.73 208.556 153.117C207.221 139.64 213.289 129.303 208.556 118.903C201.539 103.483 176.822 93.7094 177.796 79.0244C178.771 64.3394 204.186 24.0268 218.459 25.6728ZM207.583 187.501C211.728 182.745 202.706 181.019 199.469 176.056C195.852 170.51 196.021 157.304 190.37 158.483C182.667 160.089 185.18 176.191 190.37 182.284C195.187 187.941 204.182 191.403 207.583 187.501ZM97.0492 133.502C96.2016 139.761 99.7676 151.074 82.3708 160.631C69.3038 167.809 77.7871 191.345 99.6795 175.622C109.241 168.755 113.173 163.639 114.4 153.117C115.598 142.844 116.286 133.112 114.4 128.5C111.296 120.914 98.7704 120.793 97.0492 133.502ZM87.3331 11.3084C103.625 4.03843 121.648 0 140.602 0C156.894 0 172.497 2.98379 186.899 8.43585C179.033 11.9551 177.011 16.5927 177.796 23.2609C179.186 35.0699 157.586 44.2454 148.118 33.345C138.651 22.4447 129.788 40.0524 116.916 37.0558C108.365 35.0649 105.049 30.5212 97.6592 19.8527C95.1202 16.1869 91.203 13.4266 87.3331 11.3084Z" fill="url(#paint6_linear_2108_5160)"/>
<path fill-rule="evenodd" clip-rule="evenodd" d="M81.3899 161.225C81.7031 161.015 82.0295 160.817 82.3705 160.629C99.7672 151.073 96.2013 139.76 97.0489 133.5C98.77 120.792 111.296 120.912 114.399 128.499C116.286 133.11 115.597 142.842 114.399 153.116C113.291 162.624 109.974 167.718 102.29 173.678C95.0424 171.66 88.943 168.698 84.6947 164.67C83.5769 163.61 82.4739 162.458 81.3899 161.225ZM185.492 167.634C185.42 163.095 186.794 159.227 190.369 158.481C192.794 157.976 194.147 160.119 195.188 163.168C192.28 164.774 189.021 166.268 185.492 167.634ZM202.745 34.5152C213.102 42.7113 220.539 52.4255 223.638 62.2522C230.693 84.6291 226.828 129.465 208.472 152.144C207.508 139.139 213.174 129.05 208.556 118.901C201.539 103.482 176.821 93.7082 177.796 79.0231C178.463 68.9699 190.585 46.9054 202.745 34.5152ZM76.9524 35.4723C79.3001 44.9782 71.0009 58.1355 77.2751 70.2285C84.5836 84.3148 92.7432 81.8404 97.9949 96.2588C107.213 121.569 75.223 116.279 82.9805 135.02C85.5007 141.109 80.0776 146.131 73.8507 150.905C58.2049 125.632 48.8396 84.5556 57.6627 62.2522C61.3077 53.0383 67.9 43.6088 76.9524 35.4723ZM240.375 90.3751C243.794 90.3751 246.57 93.163 246.57 96.5966C246.57 100.03 243.794 102.818 240.375 102.818C236.957 102.818 234.181 100.03 234.181 96.5966C234.181 93.163 236.957 90.3751 240.375 90.3751ZM48.064 48.9787C51.4828 48.9787 54.2586 51.7663 54.2586 55.2001C54.2586 58.6337 51.4828 61.4213 48.064 61.4213C44.6452 61.4213 41.8695 58.6337 41.8695 55.2001C41.8695 51.7663 44.6452 48.9787 48.064 48.9787ZM98.587 21.1894C109.996 15.8535 123.283 12.5599 138.039 12.5599C152.099 12.5599 165.622 15.421 177.648 20.1943C177.616 21.1664 177.67 22.1868 177.796 23.2596C179.186 35.0686 157.586 44.2441 148.118 33.3437C138.65 22.4435 129.788 40.0511 116.916 37.0546C108.73 35.1488 105.342 30.9042 98.587 21.1894Z" fill="url(#paint7_linear_2108_5160)"/>
<path fill-rule="evenodd" clip-rule="evenodd" d="M78.5218 248.354C82.0715 243.662 88.3548 237.619 97.8035 236.243C113.737 233.924 116.477 232.482 124.212 224.963C133.698 215.741 148.634 217.773 159.487 224.963C170.341 232.152 173.998 236.011 189.239 236.243C197.074 236.363 203.709 240.175 208.557 244.985L208.335 245.12L208.311 245.134C193.028 254.386 175.725 260.602 157.232 262.951L157.23 262.952L156.949 262.987C156.855 262.999 156.761 263.01 156.667 263.022L156.39 263.056L156.381 263.057L156.102 263.09L155.825 263.123L155.813 263.124L155.542 263.155L155.535 263.156L155.254 263.187L154.984 263.217L154.957 263.22L154.688 263.249L154.406 263.279L154.4 263.28L154.139 263.307L154.106 263.311L153.837 263.338L153.565 263.365L153.533 263.368L153.29 263.392L153.257 263.395L152.985 263.421L152.72 263.445L152.675 263.45L152.434 263.471L152.408 263.474L152.136 263.498L152.115 263.5L151.873 263.521L151.821 263.525L151.564 263.547L151.56 263.547L151.29 263.569L151.245 263.573L151.021 263.59L150.969 263.595L150.704 263.615L150.442 263.635L150.385 263.639L150.164 263.655L150.118 263.659L149.853 263.678L149.823 263.68L149.592 263.696L149.528 263.7L149.297 263.715L149.266 263.717L149.003 263.734L148.949 263.738L148.737 263.751L148.673 263.755L148.412 263.77L148.151 263.786L148.086 263.789L147.878 263.801L147.818 263.804L147.557 263.818L147.524 263.82L147.297 263.832L147.226 263.835L147.011 263.846L146.963 263.848L146.704 263.86L146.646 263.863L146.439 263.872L146.367 263.875L146.125 263.886L146.107 263.886L145.848 263.897L145.778 263.899L145.577 263.907L145.509 263.91L145.25 263.919L145.221 263.92L144.989 263.928L144.915 263.93L144.708 263.937L144.65 263.939L144.392 263.946L144.335 263.948L144.128 263.953L144.052 263.955L143.826 263.961L143.791 263.962L143.533 263.968L143.463 263.969L143.263 263.974L143.191 263.975L142.931 263.98L142.913 263.98L142.671 263.984L142.595 263.985L142.393 263.988L142.329 263.989L142.07 263.992L142.018 263.993L141.806 263.995L141.729 263.995L141.511 263.997L141.466 263.997L141.207 263.999L141.139 263.999L140.938 264L140.863 264L140.603 264L140.361 264L140.286 264L140.118 263.999L140.032 263.999L139.867 263.998L139.788 263.998L139.58 263.996L139.546 263.996L139.306 263.994L139.236 263.993L139.064 263.991L138.979 263.99L138.816 263.988L138.734 263.987L138.545 263.984L138.493 263.984L138.253 263.979L138.19 263.978L138.012 263.975L137.927 263.973L137.766 263.97L137.682 263.968L137.505 263.964L137.44 263.962L137.202 263.957L137.149 263.955L136.962 263.95L136.878 263.948L136.718 263.943L136.632 263.941L136.463 263.936L136.39 263.933L136.153 263.926L136.115 263.925L135.913 263.917L135.831 263.915L135.672 263.909L135.583 263.905L135.422 263.899L135.342 263.896L135.118 263.887L135.104 263.886L135.095 263.886L134.868 263.876L134.786 263.873L134.627 263.866L134.537 263.862L134.382 263.855L134.296 263.85L134.106 263.841L134.057 263.839L133.824 263.827L133.743 263.823L133.585 263.815L133.492 263.81L133.343 263.802L133.251 263.797L133.083 263.787L133.013 263.783L132.783 263.77L132.702 263.765L132.545 263.756L132.449 263.75L132.306 263.741L132.208 263.735L132.056 263.725L131.97 263.719L131.743 263.704L131.662 263.699L131.508 263.688L131.406 263.681L131.27 263.672L131.166 263.664L131.028 263.654L130.929 263.647L130.73 263.633L130.705 263.631L130.623 263.625L130.472 263.613L130.365 263.605L130.237 263.595L130.125 263.586L130 263.576L129.89 263.567L129.746 263.555L129.663 263.548L129.58 263.541L129.44 263.53L129.323 263.52L129.206 263.51L129.086 263.499L128.973 263.489L128.852 263.479L128.737 263.468L128.624 263.458L128.525 263.449L128.409 263.439L128.281 263.427L128.177 263.417L128.048 263.404L127.947 263.395L127.815 263.382L127.721 263.373L127.587 263.36C127.518 263.353 127.449 263.346 127.38 263.339L127.236 263.324L127.151 263.316L127.009 263.301L126.924 263.292L126.779 263.277L126.704 263.269L126.552 263.253C126.483 263.246 126.414 263.238 126.345 263.231L126.184 263.213L126.127 263.207L125.97 263.19L125.902 263.182L125.745 263.164L125.686 263.158L125.52 263.139C125.451 263.131 125.382 263.123 125.313 263.115L125.117 263.092L125.106 263.09L124.93 263.07L124.883 263.064L124.711 263.043L124.67 263.038C124.409 263.006 124.15 262.974 123.887 262.941L123.865 262.938L123.677 262.913L123.655 262.911C123.319 262.867 122.984 262.822 122.642 262.776L122.641 262.775C107.089 260.637 92.3993 255.761 79.0771 248.652L79.0024 248.613L78.9008 248.558L78.7868 248.497L78.713 248.457L78.5218 248.354ZM70.4548 243.621C-4.6608 202.191 -3.45359 95.1238 36.4778 51.4832C33.094 72.0534 29.6751 108.316 39.8263 139.97C47.8136 164.876 58.8537 186.116 76.3564 199.816C74.3598 204.431 70.1906 210.005 75.0741 223.934C78.339 233.246 78.2535 240.744 70.4548 243.621ZM251.619 61.3545C284.422 117.502 268.19 165.191 265.162 174.2C261.793 176.172 258.6 178.904 255.791 183.419C249.436 193.631 241.9 218.785 230.69 218.785C220.178 218.785 214.195 202.905 217.647 186.654C222.363 184.437 226.244 181.184 228.699 176.363C239.265 155.612 262.243 115.872 251.619 61.3545Z" fill="url(#paint8_linear_2108_5160)"/>
<path fill-rule="evenodd" clip-rule="evenodd" d="M152.328 221.222C154.833 222.213 157.247 223.477 159.487 224.961C170.341 232.151 173.998 236.01 189.239 236.242C197.074 236.361 203.709 240.173 208.557 244.984C175.782 272.213 98.0613 264.968 78.5219 248.353C81.7084 244.141 87.0981 238.84 95.003 236.804C96.4504 237.332 97.8878 237.813 99.3102 238.247C135.737 249.373 145.254 248.17 145.254 248.17C145.254 248.17 141.374 231.207 152.328 221.222ZM70.4549 243.62C2.53429 202.19 6.79077 126.918 11.7356 105.954C11.5834 166.16 43.6805 207.665 76.2091 227.623C78.1731 235.198 77.1929 241.134 70.4549 243.62ZM271.958 127.536C272.464 131.137 271.897 156.473 265.16 174.199C261.793 176.172 258.6 178.903 255.791 183.417C249.436 193.629 241.9 218.784 230.69 218.784C227.379 218.784 224.517 217.208 222.258 214.541C224.391 213.953 226.652 213.121 229.305 211.974C236.49 208.867 262.406 186.248 271.958 127.536Z" fill="url(#paint9_linear_2108_5160)"/>
<path fill-rule="evenodd" clip-rule="evenodd" d="M0.0841207 157.783C15.4197 173.134 22.2193 152.015 32.3152 152.027C38.8085 152.034 44.5023 155.251 50.8631 151.932C57.7643 148.33 61.3417 138.825 69.1875 137.512C75.9262 136.383 82.0297 141.514 88.7373 140.369C94.9223 139.313 99.3642 132.312 105.407 132.162C111.063 132.023 114.839 138.668 120.603 136.91C123.245 136.104 125.314 134.198 127.708 132.912C127.422 139.753 121.837 145.606 114.753 145.268C109.257 145.006 104.093 141.324 99.1555 145.691C93.4447 150.741 92.0382 159.253 84.3722 162.35C76.3417 165.595 67.442 160.297 60.0916 164.922C51.5059 170.324 50.9826 178.768 41.3395 183.166C16.2516 194.607 -0.516793 174.46 0.0841207 157.783Z" fill="url(#paint10_linear_2108_5160)"/>
<path fill-rule="evenodd" clip-rule="evenodd" d="M242.796 32.6439C248.168 36.1658 257.038 58.9402 239.185 72.8359C221.023 86.9723 207.285 73.4067 195.326 82.44C175.086 97.7301 169.59 109.661 148.821 102.097C167.783 101.603 168.359 82.003 174.245 76.6962C186.461 65.683 194.33 77.6533 207.106 68.1402C216.692 61.0029 208.149 54.5777 215.581 46.1403C219.589 41.5894 227.844 43.0028 233.259 43.0844C246.433 43.2829 242.467 32.4284 242.796 32.6439Z" fill="url(#paint11_linear_2108_5160)"/>
<path fill-rule="evenodd" clip-rule="evenodd" d="M108.713 86.6655C90.5566 78.1386 95.7395 96.9548 84.4822 100.344C78.5465 102.132 70.7478 96.8655 65.7551 100.725C71.2462 104.107 74.1981 104.555 79.7637 106.149C97.5161 111.234 91.7383 90.6931 108.713 86.6655Z" fill="url(#paint12_linear_2108_5160)"/>
<path fill-rule="evenodd" clip-rule="evenodd" d="M264.965 139.053C258.682 146.435 253.34 156.838 243.541 159.248C238.457 160.498 233.253 161.197 228.607 163.803C218.513 169.464 214.297 181.756 204.34 187.727C198.251 191.379 189.687 194.192 182.526 194.657C179.557 194.85 176.127 193.819 173.259 195.013C180.15 186.371 192.764 188.198 200.949 181.514C209.821 174.268 211.1 162.588 218.944 154.678C220.87 152.735 222.967 151.328 225.585 150.534C231.962 148.599 238.545 149.211 245.265 148.329C254.538 147.112 264.92 139.051 264.965 139.053Z" fill="url(#paint13_linear_2108_5160)"/>
<path fill-rule="evenodd" clip-rule="evenodd" d="M60.7405 190.387C71.9152 193.564 71.4088 185.084 79.6399 182.111C90.157 178.312 95.1579 189.843 108.712 169.64C108.129 174.706 105.047 182.487 100.836 185.78C91.876 192.784 86.5506 185.031 78.5592 188.056C73.2764 190.055 66.2603 199.619 60.7405 190.387Z" fill="url(#paint14_linear_2108_5160)"/>
<path fill-rule="evenodd" clip-rule="evenodd" d="M190.112 116.442C195.044 108.11 207.511 118.112 219.112 111.911C212.024 120.388 204.453 117.062 197.897 118.432C191.37 119.797 188.736 130.365 181.032 132.16C188.375 124.855 187.386 121.05 190.112 116.442Z" fill="url(#paint15_linear_2108_5160)"/>
<path fill-rule="evenodd" clip-rule="evenodd" d="M192.905 0.189941C186.687 21.701 179.591 12.1518 169.107 18.7575C161.98 23.248 163.378 29.4178 159.348 33.9468C153.856 40.1208 146.069 38.2202 142.249 40.7197C135.828 44.9212 135.146 54.2714 117.293 54.9887C128.649 51.0943 128.826 37.6269 134.986 33.9468C141.34 30.1505 153.482 31.1579 153.965 28.1076C154.72 23.3397 154.374 16.9871 157.821 13.4266C167.775 3.14295 173.434 16.9448 192.905 0.189941Z" fill="url(#paint16_linear_2108_5160)"/>
<defs>
<linearGradient id="paint0_linear_2108_5160" x1="163.883" y1="28.8571" x2="163.883" y2="237.541" gradientUnits="userSpaceOnUse">
<stop stop-color="#54B0FC"/>
<stop offset="1" stop-color="#265DDD"/>
</linearGradient>
<linearGradient id="paint1_linear_2108_5160" x1="161.682" y1="66.0154" x2="161.682" y2="252.819" gradientUnits="userSpaceOnUse">
<stop stop-color="#358EF4"/>
<stop offset="1" stop-color="#173D9F"/>
</linearGradient>
<linearGradient id="paint2_linear_2108_5160" x1="155.898" y1="30.5459" x2="155.898" y2="169.095" gradientUnits="userSpaceOnUse">
<stop stop-color="#6EC1FD"/>
<stop offset="1" stop-color="#3375E6"/>
</linearGradient>
<linearGradient id="paint3_linear_2108_5160" x1="168.482" y1="41.7062" x2="168.482" y2="101.704" gradientUnits="userSpaceOnUse">
<stop stop-color="#7CC7FD"/>
<stop offset="1" stop-color="#4F98F1"/>
</linearGradient>
<linearGradient id="paint4_linear_2108_5160" x1="171.059" y1="56.9202" x2="171.984" y2="132" gradientUnits="userSpaceOnUse">
<stop stop-color="#7CC7FD"/>
<stop offset="1" stop-color="#448AEC"/>
</linearGradient>
<linearGradient id="paint5_linear_2108_5160" x1="145.759" y1="131.999" x2="145.759" y2="263.999" gradientUnits="userSpaceOnUse">
<stop stop-color="#3260C5"/>
<stop offset="1" stop-color="#243883"/>
</linearGradient>
<linearGradient id="paint6_linear_2108_5160" x1="41.8704" y1="215.804" x2="41.8704" y2="51.4818" gradientUnits="userSpaceOnUse">
<stop stop-color="#14956B"/>
<stop offset="1" stop-color="#80DC6F"/>
</linearGradient>
<linearGradient id="paint7_linear_2108_5160" x1="145.841" y1="23.8697" x2="145.841" y2="157.741" gradientUnits="userSpaceOnUse">
<stop stop-color="#9EEC8A"/>
<stop offset="1" stop-color="#37AC6C"/>
</linearGradient>
<linearGradient id="paint8_linear_2108_5160" x1="154.838" y1="38.7162" x2="154.838" y2="241.391" gradientUnits="userSpaceOnUse">
<stop stop-color="#66C66D"/>
<stop offset="1" stop-color="#0B8371"/>
</linearGradient>
<linearGradient id="paint9_linear_2108_5160" x1="154.905" y1="116.236" x2="153.889" y2="263.143" gradientUnits="userSpaceOnUse">
<stop stop-color="#2E9F6A"/>
<stop offset="1" stop-color="#05655B"/>
</linearGradient>
<linearGradient id="paint10_linear_2108_5160" x1="130.871" y1="132.159" x2="9.76485" y2="172.446" gradientUnits="userSpaceOnUse">
<stop stop-color="#D5EAF4"/>
<stop offset="1" stop-color="#A6DDF7"/>
</linearGradient>
<linearGradient id="paint11_linear_2108_5160" x1="148.821" y1="102.096" x2="234.654" y2="16.6333" gradientUnits="userSpaceOnUse">
<stop stop-color="#D5EAF4"/>
<stop offset="1" stop-color="#BCE5F9"/>
</linearGradient>
<linearGradient id="paint12_linear_2108_5160" x1="130.871" y1="132.159" x2="9.76479" y2="172.446" gradientUnits="userSpaceOnUse">
<stop stop-color="#D5EAF4"/>
<stop offset="1" stop-color="#A6DDF7"/>
</linearGradient>
<linearGradient id="paint13_linear_2108_5160" x1="257.234" y1="145.676" x2="197.548" y2="179.111" gradientUnits="userSpaceOnUse">
<stop stop-color="#BEDEEE"/>
<stop offset="1" stop-color="#A6DDF7"/>
</linearGradient>
<linearGradient id="paint14_linear_2108_5160" x1="130.871" y1="132.159" x2="9.76427" y2="172.446" gradientUnits="userSpaceOnUse">
<stop stop-color="#D5EAF4"/>
<stop offset="1" stop-color="#A6DDF7"/>
</linearGradient>
<linearGradient id="paint15_linear_2108_5160" x1="179.426" y1="178.282" x2="285.596" y2="107.236" gradientUnits="userSpaceOnUse">
<stop stop-color="#D5EAF4"/>
<stop offset="1" stop-color="#A6DDF7"/>
</linearGradient>
<linearGradient id="paint16_linear_2108_5160" x1="148.821" y1="102.096" x2="234.655" y2="16.6331" gradientUnits="userSpaceOnUse">
<stop stop-color="#D5EAF4"/>
<stop offset="1" stop-color="#BCE5F9"/>
</linearGradient>
</defs>
</svg>
