<svg width="180" height="181" viewBox="0 0 180 181" fill="none" xmlns="http://www.w3.org/2000/svg">
<path d="M101.151 116.496C91.861 128.325 77.7193 130.869 67.4029 132.712C60.8739 133.872 55.251 134.883 53.111 137.577L50.6726 140.682L47.7068 138.066C22.2073 115.618 18.6586 77.1706 39.6215 50.4355C40.4424 49.3903 41.285 48.3781 42.1487 47.4002L42.9733 46.3502L44.287 46.139C58.4462 43.8475 67.0464 50.3388 69.8185 65.3773C70.8109 71.6385 71.3569 77.9625 71.4511 84.3023C71.8574 92.9168 72.1 100.948 74.5075 105.493C75.2868 107.508 77.0775 108.96 79.2105 109.306C81.8041 109.717 85.4714 108.7 90.077 106.245C93.4876 104.241 97.1656 102.726 100.998 101.746L101.312 101.346L105.023 101.369L107.932 105.183L106.551 106.943C105.474 110.064 103.866 112.975 101.8 115.548L101.151 116.496Z" fill="#355288"/>
<path d="M140.425 129.53C119.112 156.671 80.1299 162.057 52.2558 141.71L49.0251 139.34L51.5871 136.261C54.3584 132.915 59.9697 131.919 67.0611 130.651C77.6005 128.768 90.6963 126.43 99.4867 115.237L100.183 114.35C102.25 111.816 103.805 108.905 104.764 105.779C104.909 104.985 104.854 104.415 104.602 104.098C104.349 103.78 104.221 103.608 103.006 103.633C101.79 103.659 98.3282 104.263 91.1038 108.104C87.8654 110.057 84.1712 111.129 80.3908 111.213C77.1799 111.137 74.2776 109.283 72.8626 106.4C70.2278 101.415 69.9071 93.5128 69.5546 84.3429C69.4545 78.1325 68.9201 71.9369 67.9549 65.8025C65.6289 53.3614 60.4536 47.9581 51.0553 47.7488C49.6135 47.7664 48.172 47.784 46.7303 47.8013C45.1354 47.8208 43.2602 48.0967 41.7054 47.8367C46.8625 41.8065 53.5001 36.6784 60.5371 33.0342C66.887 29.7457 73.7956 27.557 80.8728 26.544C87.9678 25.5286 95.2306 25.6952 102.266 27.0675C104.429 27.4895 106.57 28.0247 108.676 28.6722C111.793 29.6305 114.842 30.7751 117.782 32.1878L120.398 33.4536L119.827 36.2805C117.642 47.2823 119.695 49.3249 123.396 53.0442C127.402 57.0753 133.062 62.7152 133.704 84.5443C133.631 90.3722 134.614 96.1642 136.603 101.643C138.498 106.246 141.955 110.036 146.366 112.346L149.55 114.106L148.035 117.314C145.962 121.658 143.411 125.755 140.425 129.53Z" fill="#58E5AA"/>
<path d="M144.839 114.016C140.267 111.451 136.697 107.416 134.705 102.567C132.619 96.8048 131.605 90.7112 131.713 84.5828C131.09 63.5816 126.018 58.5942 122.002 54.4841C118.348 50.8262 115.899 47.4918 117.525 37.6285L118.433 32.1499L123.152 35.0909C125.398 36.4531 127.558 37.9518 129.623 39.5753C143.023 50.0516 151.673 65.4535 153.645 82.3474C154.84 92.3511 153.671 102.494 150.23 111.962L148.687 116.178L144.839 114.016Z" fill="#355288"/>
</svg>
