<svg width="62" height="62" viewBox="0 0 62 62" fill="none" xmlns="http://www.w3.org/2000/svg">
<g clip-path="url(#clip0_2103_16110)">
<path d="M53.6453 0H8.35511C3.74107 0 0.000488281 3.74043 0.000488281 8.35462V53.6451C0.000488281 58.2593 3.74092 61.9997 8.35511 61.9997H30.692L30.7301 39.8444H24.9741C24.2261 39.8444 23.619 39.2395 23.6161 38.4915L23.5885 31.3499C23.5856 30.5978 24.1945 29.9866 24.9467 29.9866H30.6921V23.086C30.6921 15.0779 35.583 10.7175 42.7267 10.7175H48.5886C49.3386 10.7175 49.9468 11.3255 49.9468 12.0756V18.0975C49.9468 18.8473 49.3391 19.4552 48.5894 19.4557L44.992 19.4573C41.107 19.4573 40.3547 21.3034 40.3547 24.0127V29.9867H48.8914C49.7048 29.9867 50.3359 30.697 50.24 31.5048L49.3935 38.6463C49.3126 39.3298 48.733 39.8447 48.0449 39.8447H40.3928L40.3547 62H53.6456C58.2596 62 62 58.2596 62 53.6455V8.35462C61.9999 3.74043 58.2594 0 53.6453 0Z" fill="#475993"/>
</g>
<defs>
<clipPath id="clip0_2103_16110">
<rect width="62" height="62" fill="white"/>
</clipPath>
</defs>
</svg>
