<svg width="62" height="62" viewBox="0 0 62 62" fill="none" xmlns="http://www.w3.org/2000/svg">
<path d="M13.6042 25.225C16.0134 17.9248 22.8738 12.6818 30.9998 12.6818C35.368 12.6818 39.3135 14.2318 42.4135 16.7682L51.4316 7.75C45.9362 2.95909 38.8907 0 30.9998 0C18.7808 0 8.26067 6.9706 3.20312 17.1792L13.6042 25.225Z" fill="#EA4335"/>
<path d="M41.4385 46.5325C38.6232 48.3505 35.0457 49.3182 31 49.3182C22.9051 49.3182 16.0661 44.1153 13.6322 36.8587L3.19678 44.7821C8.24804 55.0086 18.7679 62 31 62C38.5765 62 45.8163 59.3066 51.2383 54.2489L41.4385 46.5325Z" fill="#34A853"/>
<path d="M51.2383 54.2489C56.9087 48.9596 60.5909 41.0845 60.5909 31C60.5909 29.1682 60.3091 27.1955 59.8864 25.3636H31V37.3409H47.6273C46.8068 41.3685 44.6046 44.4881 41.4385 46.5325L51.2383 54.2489Z" fill="#4A90E2"/>
<path d="M13.6322 36.8587C13.0157 35.0205 12.6818 33.0505 12.6818 31C12.6818 28.9805 13.0056 27.0392 13.6044 25.225L3.20331 17.1792C1.12785 21.3394 0 26.028 0 31C0 35.9588 1.14902 40.6362 3.19678 44.782L13.6322 36.8587Z" fill="#FBBC05"/>
</svg>
