<svg width="329" height="487" viewBox="0 0 329 487" fill="none" xmlns="http://www.w3.org/2000/svg">
<path d="M328.36 178.181C328.36 268.855 254.854 342.361 164.18 342.361C73.506 342.361 0 268.855 0 178.181C0 87.507 73.506 14 164.18 14C254.854 14 328.36 87.507 328.36 178.181Z" fill="url(#paint0_linear_2168_2085)"/>
<path d="M278.675 230.641L197.96 276.186L224.475 301.345C224.475 301.345 278.198 255.619 278.675 230.641Z" fill="#CBBDF4"/>
<path d="M121.077 300.302L108.744 321.239L117.677 334.554L132.979 316.404L121.077 300.302Z" fill="#FFB17C"/>
<path d="M215.608 337.42C196.353 335.035 166.983 271.431 166.983 271.431L131.919 327.94L115.517 310.539L153.967 239.061C158.868 229.95 171.066 227.945 178.626 235.009L249.992 305.732C249.992 305.732 227.221 338.859 215.608 337.42Z" fill="#23285C"/>
<path d="M111.177 323.067C105.451 321.365 113.659 315.314 113.086 313.423C112.513 311.532 105.26 314.18 99.7246 312.478C94.622 310.909 81.2548 305.65 78 308.689C88.7 322.368 101.957 333.949 117.051 342.717L122.523 331.551C122.523 331.551 124.594 327.055 111.177 323.067Z" fill="#23285C"/>
<path d="M167.216 445.231L165.11 464.873L182.528 462.896L181.242 444.81L167.216 445.231Z" fill="#FFB17C"/>
<path d="M240.554 295.618L164.743 360.049L167.215 445.231L185.079 447.36L196.39 389.164L193.01 370.542L257.633 341.016C257.633 341.016 295.165 321.239 240.554 295.618Z" fill="#394277"/>
<path d="M184.733 467.065C184.733 467.065 176.611 479.702 168.412 483.306C160.213 486.909 152.024 486.443 152.024 486.443C152.024 486.443 149.897 483.508 151.695 479.244C153.492 474.98 164.606 456.592 164.606 456.592C164.606 456.592 172.153 455.32 174.232 457.807C176.31 460.293 177.327 461.851 179.708 458.794C182.089 455.738 181.661 455.7 181.661 455.7L184.733 467.065Z" fill="#23285C"/>
<path d="M299.804 230.352C299.804 230.352 269.1 226.928 254.084 247.691C239.068 268.454 224.475 301.345 224.475 301.345C229.985 311.466 244.846 328.381 262.29 337.285C288.486 317.989 307.449 289.583 314.651 256.923C317.13 245.678 319.478 233.987 308.37 230.953C308.167 230.898 299.804 230.352 299.804 230.352Z" fill="#A3A3D1"/>
<path d="M273.887 214.852C273.887 214.852 273.906 226.679 270.197 237.284C266.487 247.889 296.705 230.062 296.705 230.062L292.809 200.622L273.887 214.852Z" fill="#FFB17C"/>
<path d="M273.169 217.806C273.169 217.806 273.392 220.869 273.294 225.461L281.414 215.08L273.169 217.806Z" fill="#EFAF9B"/>
<path d="M265.585 181.971C265.585 181.971 256.93 171.47 257.268 164.672C257.536 159.298 263.234 151.786 270.436 158.609C277.64 165.432 278.866 171.096 274.19 170.052C269.513 169.009 271.039 159.501 283.047 159.414C295.056 159.327 304.623 161.957 299.316 173.33C294.009 184.704 288.699 192.565 289.428 181.991C290.157 171.417 300.048 166.268 308.007 173.421C315.967 180.574 315.876 189.265 308.023 194.49C300.171 199.715 294.498 214.619 294.498 214.619L285.854 201.588C285.854 201.588 263.418 189.849 265.585 181.971Z" fill="black"/>
<path d="M290.163 202.652C295.357 196.09 291.975 188.139 287.282 190.238C282.588 192.337 281.429 198.313 281.429 198.313C281.429 198.313 272.501 191.472 275.713 181.098C271.937 180.529 267.884 179.245 263.84 177.253L255.081 196.393L259.623 198.369L260.72 211.987L274.726 211.239C274.726 211.239 284.969 209.213 290.163 202.652Z" fill="#FFB17C"/>
<path d="M268.55 186.738C266.838 184.256 264.351 184.741 264.246 184.763L263.808 182.783C263.966 182.748 267.711 181.953 270.218 185.586L268.55 186.738Z" fill="black"/>
<path d="M265.519 189.854C265.33 190.435 264.708 190.752 264.128 190.563C263.547 190.375 263.23 189.752 263.419 189.172C263.607 188.592 264.23 188.275 264.81 188.463C265.39 188.652 265.707 189.274 265.519 189.854Z" fill="black"/>
<path d="M191.698 276.311L206.436 273.538C208.091 273.227 208.697 271.711 207.783 270.17L189.428 239.205C188.515 237.663 186.414 236.658 184.76 236.969L170.021 239.743C168.366 240.054 167.761 241.57 168.674 243.111L187.029 274.076C187.943 275.617 190.043 276.622 191.698 276.311Z" fill="#EBF4FB"/>
<path d="M246.914 292.504C240.246 293.375 230.479 285.856 225.575 284.434C220.671 283.011 209.565 281.514 206.918 281.564C204.27 281.615 201.294 274.633 202.137 269.805C202.695 266.61 203.304 263.796 204.651 262.725C205.34 262.177 206.223 262.085 207.391 262.631C210.846 264.243 225.043 273.592 225.043 273.592C225.043 273.592 237.681 276.181 250.25 279.845C262.819 283.51 253.582 291.632 246.914 292.504Z" fill="#FFB17C"/>
<path d="M189.644 266.72L204.652 262.725L202.137 269.805L205.493 279.687L197.275 282.236C197.275 282.236 195.925 280.937 197.299 280.168C198.674 279.399 200.589 278.263 200.589 278.263C200.589 278.263 196.455 278.215 194.678 278.152C192.9 278.089 192.534 277.547 192.421 276.677C192.307 275.807 193.97 275.001 193.97 275.001C193.97 275.001 190.629 274.258 190.226 273.426C189.823 272.594 189.091 271.51 189.557 270.565C190.023 269.619 188.85 267.414 189.644 266.72Z" fill="#EFAF9B"/>
<path d="M317.595 233.913C314.942 232.069 311.446 231.145 307.684 231.701C294.292 233.683 283.641 243.163 281.362 255.127L263.888 280.322L225.522 272.006L221.279 285.946C221.279 285.946 239.001 300.597 259.076 307.24C269.613 310.728 276.964 314.074 281.363 314.889C297.679 284.998 319.047 269.975 317.595 233.913Z" fill="#CBBDF4"/>
<path d="M281.901 316.02L281.178 315.887C277.016 315.115 269.578 311.784 258.758 308.203C238.734 301.576 220.812 286.875 220.634 286.727L220.113 286.297L224.552 271.712L226.492 272.301L222.449 285.585C225.52 288.023 241.635 300.4 259.395 306.278C269.502 309.623 276.632 312.94 280.825 313.755C297.303 283.186 317.976 268.539 316.583 233.953L318.608 233.872C320.032 269.225 299.273 284.195 282.252 315.375L281.901 316.02Z" fill="#CBBDF4"/>
<path d="M58.9814 116.114C44.9649 120.669 29.9088 112.999 25.3537 98.9823C20.7987 84.9657 28.4692 69.9096 42.4858 65.3546C56.5027 60.7987 71.5589 68.4692 76.1135 82.4866C80.6685 96.5031 72.998 111.559 58.9814 116.114Z" stroke="#58E5AA" stroke-width="12.6712" stroke-miterlimit="10"/>
<path d="M76.1135 82.4865C80.6686 96.5031 72.998 111.559 58.9815 116.114C44.965 120.669 29.9088 112.999 25.3538 98.9822" stroke="#355288" stroke-width="17.4228" stroke-miterlimit="10"/>
<path d="M62.8481 66.9554C75.9803 73.6458 81.203 89.7148 74.5123 102.848" stroke="#38B68C" stroke-width="23.7589" stroke-miterlimit="10"/>
<path d="M175.119 2.1437L167.92 1.48444L166.451 5.68098C165.374 5.89764 164.335 6.22124 163.345 6.64266L159.759 4.01973L154.199 8.64694L156.127 12.6494C155.534 13.5472 155.029 14.5111 154.619 15.5289L150.227 16.2082L149.567 23.4111L153.763 24.8768C153.982 25.9513 154.303 26.9929 154.722 27.9833L152.099 31.569L156.73 37.1265L160.729 35.1982C161.627 35.7935 162.59 36.2994 163.607 36.7109L164.289 41.1044L171.491 41.7639L172.957 37.5641C174.031 37.3472 175.073 37.0219 176.063 36.6024L179.649 39.2283L185.209 34.6011L183.278 30.5984C183.87 29.7006 184.379 28.738 184.788 27.7181L189.184 27.0391L189.844 19.8373L185.645 18.3703C185.426 17.2978 185.106 16.2553 184.682 15.2645L187.308 11.6791L182.681 6.1189L178.678 8.0489C177.781 7.45457 176.816 6.94549 175.798 6.53993L175.119 2.1437ZM175.104 22.1186C174.831 25.1001 172.191 27.2975 169.207 27.0243C166.225 26.7511 164.027 24.1107 164.3 21.1292C164.573 18.1477 167.214 15.9473 170.197 16.2205C173.18 16.4937 175.377 19.1371 175.104 22.1186Z" fill="#4267AB"/>
<path d="M265.399 74.1375C264.455 64.3803 271.6 55.7059 281.357 54.7624C291.114 53.8188 299.789 60.9635 300.732 70.7207C301.364 77.256 298.357 83.2927 293.377 86.8593L294.034 93.6584L276.368 95.3668L275.71 88.5677C270.139 86.0214 266.031 80.6728 265.399 74.1375Z" fill="#58E5AA"/>
<path d="M265.399 74.1375C264.455 64.3803 271.6 55.7059 281.357 54.7624C291.114 53.8188 299.789 60.9635 300.732 70.7207C301.364 77.256 298.357 83.2927 293.377 86.8593L294.034 93.6584L276.368 95.3668L275.71 88.5677C270.139 86.0214 266.031 80.6728 265.399 74.1375Z" stroke="black" stroke-width="2.1" stroke-miterlimit="10"/>
<path d="M296.217 100.864L275.606 102.857" stroke="#355288" stroke-width="2.4"/>
<path d="M278.189 107.997L294.996 106.372C295.086 106.363 295.153 106.282 295.144 106.192L293.953 93.8718L276.818 95.5289L278.009 107.848" fill="#355288"/>
<path d="M295.649 94.9881L275.038 96.9813" stroke="#355288" stroke-width="2.4"/>
<path d="M288.377 93.6026C288.377 93.6026 286.722 77.8817 287.756 73.016C288.125 71.2809 291.032 66.2771 293.218 68.4854C295.403 70.6938 287.955 79.7591 283.214 75.052C280.369 72.2266 277.987 62.3621 281.575 62.795C283.716 63.0533 286.881 74.5829 282.933 76.4237C277.661 78.8817 274.308 73.9484 273.933 72.2437C273.557 70.5391 279.915 73.2085 280.982 79.2559C282.049 85.3034 282.482 94.4371 282.482 94.4371" stroke="white" stroke-width="1.95"/>
<g opacity="0.999997">
<path d="M256.249 70.6682L247.208 70.0127" stroke="#355288" stroke-width="2.55235"/>
<path d="M256.998 77.9762L248.278 80.4526" stroke="#355288" stroke-width="2.55235"/>
<path d="M258.043 63.5451L249.773 59.8378" stroke="#355288" stroke-width="2.55235"/>
<path d="M310.062 69.1775L319.119 68.5934" stroke="#355288" stroke-width="2.55235"/>
<path d="M308.322 62.0319L316.632 58.3856" stroke="#355288" stroke-width="2.55235"/>
<path d="M309.256 76.4866L317.963 79.0346" stroke="#355288" stroke-width="2.55235"/>
</g>
<path d="M73.5478 53.0035C85.1528 36.2773 111.591 21.8738 131.832 24.7855" stroke="#355288" stroke-width="2" stroke-linecap="round" stroke-linejoin="round"/>
<path d="M206.3 20.3533C226.636 21.2858 252.895 36.0156 261.193 54.7051" stroke="#355288" stroke-width="2" stroke-linecap="round" stroke-linejoin="round"/>
<defs>
<linearGradient id="paint0_linear_2168_2085" x1="164.18" y1="14" x2="164.18" y2="342.361" gradientUnits="userSpaceOnUse">
<stop stop-color="#FCF17E"/>
<stop offset="0.510417" stop-color="#99D7B0"/>
<stop offset="1" stop-color="#36BEE3"/>
</linearGradient>
</defs>
</svg>
