<svg width="428" height="484" viewBox="0 0 428 484" fill="none" xmlns="http://www.w3.org/2000/svg">
<path d="M398.293 365.602C419.012 334.602 430.976 298.032 430.976 258.869C430.976 146.878 333.156 56.0918 212.488 56.0918C91.82 56.0918 -6 146.878 -6 258.869C-6 298.032 5.964 334.602 26.683 365.602H398.293Z" fill="#58E5AA"/>
<path d="M393.044 172.897C393.044 172.897 392.439 178.424 387.74 178.807C392.439 179.189 393.044 184.715 393.044 184.715C393.044 184.715 393.648 179.189 398.347 178.807C393.648 178.424 393.044 172.897 393.044 172.897Z" fill="white"/>
<path d="M151.841 90.2416C151.841 90.2416 151.432 93.9887 148.246 94.2476C151.432 94.5065 151.841 98.2536 151.841 98.2536C151.841 98.2536 152.25 94.5065 155.436 94.2476C152.25 93.9887 151.841 90.2416 151.841 90.2416Z" fill="white"/>
<path d="M400.4 264.461C400.4 264.461 399.976 268.336 396.681 268.604C399.976 268.872 400.4 272.747 400.4 272.747C400.4 272.747 400.823 268.872 404.117 268.604C400.823 268.336 400.4 264.461 400.4 264.461Z" fill="white"/>
<path d="M356.09 227.287C358.597 227.287 358.601 223.67 356.09 223.67C353.584 223.67 353.58 227.287 356.09 227.287Z" fill="white"/>
<path d="M307.924 249.778C309.178 249.778 309.18 247.971 307.924 247.971C306.67 247.971 306.668 249.778 307.924 249.778Z" fill="white"/>
<path d="M382.2 209.67C383.454 209.67 383.456 207.862 382.2 207.862C380.946 207.862 380.944 209.67 382.2 209.67Z" fill="white"/>
<path d="M342.586 167.892C343.84 167.892 343.842 166.085 342.586 166.085C341.332 166.085 341.33 167.892 342.586 167.892Z" fill="white"/>
<path d="M130.114 117.759C131.367 117.759 131.37 115.951 130.114 115.951C128.861 115.951 128.858 117.759 130.114 117.759Z" fill="white"/>
<path d="M168.377 141.64C170.883 141.64 170.888 138.025 168.377 138.025C165.87 138.025 165.866 141.64 168.377 141.64Z" fill="white"/>
<path d="M170.178 112.745C171.432 112.745 171.434 110.938 170.178 110.938C168.925 110.938 168.922 112.745 170.178 112.745Z" fill="white"/>
<path d="M131.465 93.945C132.718 93.945 132.721 92.1368 131.465 92.1368C130.211 92.1368 130.209 93.945 131.465 93.945Z" fill="white"/>
<path d="M116.61 93.4935C117.236 93.4935 117.238 92.5902 116.61 92.5902C115.983 92.5902 115.982 93.4935 116.61 93.4935Z" fill="white"/>
<path d="M54.039 173.707C54.666 173.707 54.6669 172.803 54.039 172.803C53.412 172.803 53.411 173.707 54.039 173.707Z" fill="white"/>
<path d="M90.9512 170.434C92.8312 170.434 92.8341 167.722 90.9512 167.722C89.0711 167.722 89.0682 170.434 90.9512 170.434Z" fill="white"/>
<path d="M17.5761 221.368C18.8301 221.368 18.8321 219.56 17.5761 219.56C16.3231 219.56 16.3202 221.368 17.5761 221.368Z" fill="white"/>
<path d="M335.384 115.128C338.205 115.128 338.21 111.06 335.384 111.06C332.563 111.06 332.559 115.128 335.384 115.128Z" fill="white"/>
<path d="M284.517 84.3704C286.398 84.3704 286.401 81.6589 284.517 81.6589C282.638 81.6589 282.634 84.3704 284.517 84.3704Z" fill="white"/>
<path d="M239.051 95.1986C240.305 95.1986 240.307 93.3904 239.051 93.3904C237.797 93.3904 237.795 95.1986 239.051 95.1986Z" fill="white"/>
<path d="M317.828 102.074C318.768 102.074 318.769 100.72 317.828 100.72C316.887 100.72 316.886 102.074 317.828 102.074Z" fill="white"/>
<path d="M357.441 124.217C358.382 124.217 358.383 122.862 357.441 122.862C356.501 122.862 356.5 124.217 357.441 124.217Z" fill="white"/>
<path d="M319.621 166.413C320.56 166.418 320.574 165.061 319.635 165.057C318.696 165.052 318.682 166.409 319.621 166.413Z" fill="white"/>
<path d="M158.917 168.921C159.856 168.926 159.87 167.567 158.931 167.563C157.992 167.558 157.978 168.917 158.917 168.921Z" fill="white"/>
<path d="M248.113 365.236C248.113 365.236 211.964 329.491 190.589 323.872C169.215 318.251 189.194 340.265 189.194 340.265C189.194 340.265 151.507 307.02 137.528 309.934C124.714 312.605 137.298 333.161 137.298 333.161C137.298 333.161 123.008 321.743 105.542 321.66C88.0761 321.576 118.62 364.219 118.62 364.219L248.113 365.236Z" fill="#308784"/>
<path d="M136.581 364.67C136.581 364.67 105.533 307.378 76.6503 312.967C53.2439 317.495 74.2376 347.232 72.8247 346.091C71.4118 344.952 62.6802 330.912 42.4083 330.816C22.1355 330.719 48.405 353.665 48.405 353.665C48.405 353.665 5.31955 342.73 1.82468 353.98C-1.07526 363.316 14.6157 364.09 14.6157 364.09L136.581 364.67Z" fill="#266A75"/>
<path d="M177.638 364.531C177.638 364.531 211.144 329.645 232.627 324.23C254.11 318.814 233.696 340.631 233.696 340.631C233.696 340.631 272.037 307.754 285.956 310.8C298.716 313.593 278.398 353.091 278.398 353.091C278.398 353.091 293.513 321.838 310.978 321.921C328.443 322.004 303.785 365.251 303.785 365.251L177.638 364.531Z" fill="#308784"/>
<path d="M284.32 364.701C284.32 364.701 308.09 315.274 336.864 321.139C360.181 325.893 343.324 350.739 344.76 349.614C346.194 348.487 358.893 331.627 379.168 331.724C399.442 331.821 372.716 354.528 372.716 354.528C372.716 354.528 416.019 343.999 419.292 355.287C422.005 364.656 406.3 365.282 406.3 365.282L284.32 364.701Z" fill="#266A75"/>
<path d="M52.7391 320.237C53.5851 326.362 57.2334 331.941 59.6561 337.696C66.1387 353.094 66.7669 364.714 67.3541 366.015C67.4123 366.145 67.6202 366.128 67.6483 365.989C67.8851 364.801 66.6954 356.415 63.9792 347.656C59.4619 333.094 54.2776 327.321 52.9876 320.189C52.9638 320.055 52.721 320.108 52.7391 320.237Z" fill="#466DB6"/>
<path d="M61.7807 333.137C61.4682 333.215 60.482 333.305 59.7401 333.781C58.9735 334.193 58.4521 334.993 58.4944 334.98C58.5212 335.02 58.3106 334.126 58.8343 333.261C59.2651 332.386 60.4303 331.535 61.0905 331.432C62.4022 331.081 63.4954 331.666 63.3389 332.146C63.1971 332.632 62.4526 332.937 61.7807 333.137Z" fill="#466DB6"/>
<path d="M63.1963 336.15C62.8837 336.228 61.8976 336.318 61.1556 336.795C60.389 337.207 59.8666 338.006 59.9099 337.993C59.9367 338.034 59.7261 337.141 60.2498 336.275C60.6806 335.399 61.8458 334.549 62.5061 334.445C63.8177 334.094 64.911 334.678 64.7545 335.159C64.6127 335.645 63.8682 335.95 63.1963 336.15Z" fill="#466DB6"/>
<path d="M49.9915 325.278C50.3983 325.305 51.6366 325.199 52.6948 325.623C53.7633 325.96 54.6507 326.826 54.5953 326.82C54.5737 326.875 54.5536 325.733 53.6433 324.785C52.8421 323.804 51.1486 323.016 50.3068 323.034C48.588 322.89 47.4306 323.848 47.7729 324.403C48.0977 324.969 49.1046 325.18 49.9915 325.278Z" fill="#466DB6"/>
<path d="M52.001 329.504C52.4077 329.531 53.646 329.424 54.7033 329.848C55.7718 330.185 56.6592 331.051 56.6037 331.046C56.5831 331.101 56.562 329.959 55.6517 329.011C54.8505 328.03 53.159 327.242 52.3162 327.259C50.5984 327.115 49.4411 328.072 49.7823 328.628C50.1071 329.193 51.114 329.405 52.001 329.504Z" fill="#466DB6"/>
<path d="M26.4609 317.37C27.4901 317.906 28.4225 318.619 29.3546 319.257C34.4251 322.732 39.5779 326.101 46.4651 333.088C55.6759 342.428 62.3821 352.946 66.2291 364.346C66.3676 364.754 67.169 364.601 67.0286 364.191C64.522 356.855 60.8027 349.807 56.0133 343.265C43.0726 325.588 26.2795 317.275 26.4609 317.37Z" fill="#466DB6"/>
<path d="M34.7521 317.935C34.5414 318.245 33.691 319.084 33.5325 320.105C33.2719 321.083 33.7032 322.244 33.73 322.2C33.8038 322.216 32.5547 321.523 32.0469 320.297C31.4379 319.131 31.5702 317.433 32.0868 316.83C32.9446 315.494 34.6858 315.22 35.0981 315.799C35.5304 316.372 35.1675 317.231 34.7521 317.935Z" fill="#466DB6"/>
<path d="M46.4821 327.93C46.319 328.258 45.6015 329.167 45.5933 330.192C45.4797 331.182 46.0752 332.288 46.0951 332.242C46.1702 332.252 44.8338 331.686 44.1517 330.524C43.3799 329.429 43.2612 327.739 43.6841 327.095C44.338 325.692 46.0193 325.255 46.511 325.787C47.0227 326.312 46.7905 327.195 46.4821 327.93Z" fill="#466DB6"/>
<path d="M29.385 324.104C29.653 323.854 30.2823 322.987 31.3361 322.542C32.3099 322.041 33.71 321.964 33.6706 321.997C33.7142 322.043 32.5534 321.394 31.0594 321.438C29.5976 321.392 27.8006 322.038 27.3175 322.598C26.1513 323.636 26.4241 324.944 27.1856 325.043C27.9473 325.16 28.7585 324.625 29.385 324.104Z" fill="#466DB6"/>
<path d="M36.5847 329.749C36.8526 329.499 37.4841 328.63 38.5378 328.185C39.5117 327.684 40.9097 327.608 40.8703 327.641C40.9139 327.685 39.7541 327.037 38.2591 327.082C36.7973 327.036 35.0003 327.682 34.5172 328.241C33.351 329.279 33.6237 330.588 34.3853 330.687C35.1469 330.804 35.9582 330.269 36.5847 329.749Z" fill="#466DB6"/>
<path d="M45.6947 338.386C45.9627 338.136 46.5941 337.267 47.6479 336.822C48.6217 336.321 50.0198 336.244 49.9804 336.277C50.0239 336.323 48.8642 335.674 47.3692 335.719C45.9073 335.673 44.1093 336.32 43.6253 336.879C42.4601 337.917 42.7338 339.226 43.4953 339.325C44.257 339.442 45.0683 338.907 45.6947 338.386Z" fill="#466DB6"/>
<path d="M25.197 319.469C25.4064 319.342 25.9449 318.86 26.6794 318.692C27.3722 318.48 28.262 318.58 28.2324 318.597C28.2517 318.63 27.6299 318.097 26.6848 317.966C25.7751 317.781 24.5411 317.997 24.1459 318.298C23.2444 318.828 23.2009 319.683 23.6632 319.827C24.122 319.982 24.718 319.732 25.197 319.469Z" fill="#466DB6"/>
<path d="M27.3019 316.098C27.2809 316.307 27.0732 316.924 27.2947 317.504C27.4494 318.079 28.0331 318.618 28.0345 318.59C28.0792 318.584 27.1921 318.458 26.5461 317.9C25.8641 317.393 25.4232 316.454 25.5218 316.03C25.5845 315.144 26.4473 314.654 26.8457 314.884C27.2524 315.106 27.3153 315.638 27.3019 316.098Z" fill="#466DB6"/>
<path d="M331.471 322.909C325.56 336.365 322.48 350.641 322.488 365.174L321.821 365.157C321.878 350.916 324.918 336.672 330.819 323.232C332.19 320.107 333.591 316.446 337.275 314.621C337.346 314.585 337.401 314.675 337.333 314.711C334.011 316.531 332.754 319.988 331.471 322.909Z" fill="#466DB6"/>
<path d="M330.094 315.54C330.415 315.778 331.543 316.345 332.088 317.268C332.711 318.124 332.751 319.335 332.708 319.3C332.646 319.336 333.562 318.349 333.572 317.055C333.698 315.792 332.919 314.222 332.196 313.789C330.866 312.754 329.108 312.956 328.941 313.613C328.752 314.269 329.428 314.985 330.094 315.54Z" fill="#466DB6"/>
<path d="M335.411 325.582C335.002 325.447 333.875 324.856 332.591 324.848C331.35 324.753 329.951 325.242 330.008 325.258C329.994 325.32 330.729 324.222 332.201 323.663C333.589 323.03 335.713 322.935 336.513 323.284C338.259 323.822 338.775 325.205 338.098 325.609C337.431 326.028 336.327 325.835 335.411 325.582Z" fill="#466DB6"/>
<path d="M333.36 330.771C332.952 330.636 331.826 330.046 330.54 330.038C329.3 329.943 327.902 330.431 327.959 330.447C327.945 330.509 328.68 329.412 330.151 328.852C331.539 328.219 333.664 328.125 334.464 328.474C336.21 329.014 336.726 330.396 336.049 330.799C335.381 331.219 334.278 331.025 333.36 330.771Z" fill="#466DB6"/>
<path d="M326.857 321.579C327.221 321.774 328.451 322.19 329.171 323.031C329.957 323.796 330.233 324.986 330.184 324.959C330.131 325.002 330.845 323.912 330.6 322.633C330.479 321.369 329.397 319.919 328.596 319.584C327.075 318.731 325.375 319.154 325.337 319.823C325.279 320.495 326.088 321.115 326.857 321.579Z" fill="#466DB6"/>
<path d="M323.378 327.677C323.849 327.777 325.404 327.822 326.389 328.562C327.443 329.188 327.926 330.507 327.862 330.489C327.801 330.562 328.542 329.001 328.086 327.565C327.783 326.104 326.283 324.769 325.262 324.663C323.298 324.202 321.27 325.33 321.306 326.141C321.316 326.962 322.382 327.407 323.378 327.677Z" fill="#466DB6"/>
<path d="M320.43 336.492C320.915 336.525 322.461 336.361 323.59 336.958C324.762 337.431 325.516 338.664 325.45 338.656C325.404 338.736 325.81 337.095 325.06 335.743C324.454 334.343 322.692 333.232 321.661 333.266C319.624 333.078 317.853 334.463 318.058 335.257C318.24 336.067 319.388 336.36 320.43 336.492Z" fill="#466DB6"/>
<path d="M339.288 315.816C339.054 315.721 338.419 315.332 337.66 315.282C336.931 315.182 336.079 315.422 336.111 315.434C336.1 315.47 336.593 314.846 337.494 314.569C338.348 314.242 339.609 314.262 340.064 314.496C341.066 314.875 341.297 315.713 340.875 315.928C340.456 316.153 339.815 315.997 339.288 315.816Z" fill="#466DB6"/>
<path d="M336.435 312.814C336.501 313.016 336.838 313.59 336.749 314.193C336.723 314.783 336.269 315.403 336.262 315.375C336.216 315.377 337.056 315.113 337.566 314.463C338.122 313.86 338.349 312.872 338.16 312.469C337.905 311.61 336.956 311.263 336.617 311.551C336.267 311.833 336.322 312.365 336.435 312.814Z" fill="#466DB6"/>
<path d="M324.914 365.326C332.403 352.002 342.361 339.145 355.061 327.245C355.187 327.126 355.445 327.302 355.318 327.423C343.308 338.855 333.354 351.603 325.75 365.357L324.914 365.326Z" fill="#466DB6"/>
<path d="M349.139 339.46C348.735 339.319 347.624 338.708 346.341 338.685C345.105 338.573 343.697 339.049 343.754 339.066C343.739 339.128 344.498 338.031 345.98 337.487C347.381 336.866 349.504 336.797 350.295 337.159C352.026 337.724 352.508 339.123 351.822 339.521C351.147 339.935 350.049 339.727 349.139 339.46Z" fill="#466DB6"/>
<path d="M354.168 334.072C353.763 333.931 352.652 333.323 351.37 333.299C350.133 333.187 348.725 333.662 348.781 333.678C348.766 333.74 349.526 332.644 351.009 332.099C352.41 331.478 354.532 331.411 355.323 331.771C357.054 332.337 357.535 333.736 356.85 334.135C356.174 334.549 355.077 334.34 354.168 334.072Z" fill="#466DB6"/>
<path d="M338.158 339.242C338.527 339.348 339.78 339.473 340.508 340.131C341.305 340.7 341.576 341.803 341.527 341.785C341.47 341.84 342.211 340.609 341.971 339.415C341.858 338.205 340.766 337.033 339.951 336.889C338.404 336.403 336.662 337.209 336.619 337.872C336.553 338.543 337.376 338.965 338.158 339.242Z" fill="#466DB6"/>
<path d="M357.439 328.884C357.208 328.786 356.583 328.386 355.827 328.325C355.102 328.216 354.245 328.446 354.278 328.459C354.265 328.495 354.772 327.873 355.678 327.604C356.538 327.286 357.797 327.322 358.245 327.564C359.237 327.96 359.448 328.805 359.021 329.016C358.599 329.237 357.962 329.074 357.439 328.884Z" fill="#466DB6"/>
<path d="M354.257 325.874C354.338 326.072 354.717 326.626 354.674 327.233C354.694 327.823 354.293 328.466 354.283 328.438C354.238 328.443 355.05 328.136 355.505 327.46C356.011 326.827 356.158 325.826 355.94 325.436C355.621 324.59 354.653 324.296 354.339 324.601C354.014 324.901 354.109 325.432 354.257 325.874Z" fill="#466DB6"/>
<path d="M425.246 363.533H-0.270142C-1.19914 363.533 -1.95215 364.293 -1.95215 365.231C-1.95215 366.168 -1.19914 366.93 -0.270142 366.93H425.246C426.175 366.93 426.928 366.168 426.928 365.231C426.928 364.293 426.175 363.533 425.246 363.533Z" fill="#1AC8C3"/>
<path d="M346.729 206.209L347.838 209.143C348.45 210.764 350.16 211.767 351.657 211.385L351.792 211.351C353.289 210.969 354.006 209.346 353.394 207.725L352.285 204.791C351.673 203.17 349.963 202.166 348.466 202.547L348.331 202.582C346.834 202.964 346.117 204.588 346.729 206.209ZM347.949 205.897C347.613 205.007 348.008 204.113 348.83 203.903L348.966 203.868C349.787 203.659 350.73 204.211 351.066 205.102L352.175 208.036C352.511 208.926 352.115 209.821 351.293 210.031L351.158 210.065C350.336 210.275 349.394 209.721 349.058 208.832L347.949 205.897Z" fill="#355288"/>
<path d="M353.707 217.194C354.032 217.108 354.202 216.783 354.088 216.469L351.361 208.95C351.247 208.636 350.892 208.45 350.567 208.536C350.243 208.623 350.071 208.949 350.185 209.263L352.912 216.782C353.026 217.096 353.383 217.281 353.707 217.194Z" fill="#355288"/>
<path d="M342.579 194.408L343.688 197.342C344.3 198.963 346.009 199.966 347.507 199.584L347.642 199.55C349.138 199.168 349.855 197.545 349.243 195.924L348.135 192.99C347.522 191.368 345.812 190.365 344.316 190.746L344.181 190.781C342.684 191.163 341.966 192.786 342.579 194.408ZM343.799 194.096C343.462 193.206 343.857 192.311 344.68 192.101L344.815 192.067C345.636 191.857 346.579 192.41 346.916 193.301L348.024 196.235C348.36 197.125 347.964 198.019 347.143 198.229L347.008 198.263C346.185 198.473 345.243 197.92 344.907 197.031L343.799 194.096Z" fill="#355288"/>
<path d="M349.557 205.394C349.881 205.308 350.052 204.982 349.938 204.668L347.211 197.15C347.097 196.835 346.741 196.65 346.417 196.736C346.093 196.822 345.92 197.148 346.034 197.463L348.761 204.981C348.875 205.295 349.233 205.48 349.557 205.394Z" fill="#355288"/>
<path d="M338.428 182.606L339.537 185.542C340.149 187.162 341.859 188.166 343.356 187.784L343.491 187.75C344.988 187.368 345.705 185.745 345.093 184.124L343.984 181.189C343.372 179.568 341.662 178.564 340.166 178.946L340.031 178.981C338.533 179.363 337.816 180.986 338.428 182.606ZM339.648 182.295C339.312 181.405 339.707 180.511 340.529 180.301L340.664 180.266C341.486 180.057 342.429 180.609 342.765 181.5L343.874 184.435C344.21 185.325 343.814 186.219 342.992 186.429L342.857 186.463C342.035 186.673 341.093 186.12 340.757 185.23L339.648 182.295Z" fill="#355288"/>
<path d="M345.406 193.593C345.73 193.507 345.901 193.182 345.787 192.868L343.06 185.349C342.946 185.035 342.591 184.85 342.266 184.936C341.942 185.022 341.77 185.348 341.884 185.662L344.611 193.181C344.725 193.495 345.082 193.679 345.406 193.593Z" fill="#355288"/>
<path d="M334.278 170.806L335.387 173.741C335.999 175.361 337.709 176.365 339.206 175.983L339.341 175.949C340.837 175.567 341.555 173.944 340.942 172.323L339.834 169.389C339.222 167.768 337.512 166.763 336.015 167.145L335.88 167.18C334.383 167.562 333.666 169.185 334.278 170.806ZM335.498 170.495C335.162 169.605 335.556 168.71 336.379 168.5L336.514 168.465C337.336 168.256 338.279 168.809 338.615 169.7L339.723 172.634C340.06 173.524 339.664 174.419 338.842 174.628L338.707 174.663C337.885 174.873 336.943 174.319 336.607 173.429L335.498 170.495Z" fill="#355288"/>
<path d="M341.256 181.793C341.581 181.707 341.751 181.382 341.637 181.068L338.91 173.549C338.796 173.235 338.441 173.05 338.117 173.136C337.792 173.222 337.62 173.547 337.734 173.862L340.461 181.381C340.575 181.695 340.932 181.879 341.256 181.793Z" fill="#355288"/>
<path d="M330.128 159.006L331.236 161.94C331.849 163.561 333.558 164.565 335.056 164.183L335.191 164.148C336.687 163.767 337.404 162.144 336.792 160.523L335.683 157.589C335.071 155.968 333.361 154.963 331.865 155.345L331.73 155.379C330.232 155.761 329.516 157.385 330.128 159.006ZM331.348 158.695C331.011 157.804 331.406 156.91 332.229 156.7L332.364 156.665C333.185 156.456 334.128 157.008 334.465 157.9L335.573 160.834C335.909 161.724 335.514 162.619 334.692 162.828L334.557 162.863C333.734 163.073 332.792 162.519 332.456 161.629L331.348 158.695Z" fill="#355288"/>
<path d="M337.105 169.992C337.43 169.906 337.6 169.581 337.486 169.267L334.76 161.748C334.646 161.434 334.29 161.249 333.966 161.335C333.641 161.421 333.469 161.747 333.583 162.061L336.31 169.58C336.424 169.894 336.781 170.078 337.105 169.992Z" fill="#355288"/>
<path d="M325.945 147.112L327.053 150.047C327.666 151.668 329.375 152.671 330.872 152.289L331.008 152.255C332.504 151.873 333.221 150.25 332.609 148.629L331.5 145.695C330.888 144.074 329.178 143.069 327.682 143.451L327.547 143.486C326.049 143.868 325.332 145.492 325.945 147.112ZM327.165 146.801C326.828 145.911 327.223 145.016 328.045 144.806L328.181 144.772C329.002 144.562 329.945 145.115 330.281 146.006L331.39 148.94C331.726 149.83 331.33 150.725 330.509 150.935L330.374 150.969C329.551 151.179 328.609 150.625 328.273 149.735L327.165 146.801Z" fill="#355288"/>
<path d="M332.922 158.098C333.247 158.012 333.417 157.687 333.303 157.373L330.576 149.854C330.462 149.54 330.107 149.355 329.783 149.441C329.458 149.527 329.286 149.853 329.4 150.167L332.127 157.686C332.241 158 332.598 158.185 332.922 158.098Z" fill="#355288"/>
<path d="M321.795 135.312L322.903 138.247C323.516 139.867 325.225 140.871 326.723 140.489L326.858 140.455C328.354 140.073 329.071 138.45 328.459 136.829L327.35 133.895C326.738 132.274 325.028 131.269 323.532 131.651L323.397 131.686C321.899 132.068 321.183 133.691 321.795 135.312ZM323.015 135.001C322.678 134.111 323.073 133.216 323.895 133.006L324.031 132.971C324.852 132.762 325.795 133.315 326.132 134.206L327.24 137.14C327.576 138.03 327.181 138.925 326.359 139.134L326.224 139.169C325.401 139.379 324.459 138.825 324.123 137.935L323.015 135.001Z" fill="#355288"/>
<path d="M328.772 146.298C329.097 146.212 329.267 145.887 329.153 145.573L326.427 138.054C326.313 137.74 325.957 137.555 325.633 137.641C325.308 137.727 325.136 138.053 325.25 138.367L327.977 145.886C328.091 146.2 328.448 146.384 328.772 146.298Z" fill="#355288"/>
<path d="M317.644 123.511L318.753 126.445C319.365 128.066 321.075 129.07 322.572 128.688L322.707 128.654C324.204 128.272 324.921 126.649 324.309 125.028L323.2 122.094C322.588 120.473 320.878 119.468 319.381 119.85L319.246 119.885C317.749 120.267 317.032 121.89 317.644 123.511ZM318.864 123.2C318.528 122.31 318.923 121.415 319.745 121.205L319.88 121.17C320.702 120.961 321.645 121.514 321.981 122.405L323.09 125.339C323.426 126.229 323.03 127.124 322.208 127.333L322.073 127.368C321.251 127.578 320.309 127.024 319.973 126.134L318.864 123.2Z" fill="#355288"/>
<path d="M324.622 134.498C324.946 134.412 325.117 134.087 325.003 133.773L322.276 126.254C322.162 125.94 321.807 125.755 321.482 125.841C321.158 125.927 320.986 126.252 321.099 126.567L323.826 134.086C323.94 134.4 324.298 134.584 324.622 134.498Z" fill="#355288"/>
<path d="M313.494 111.711L314.603 114.645C315.215 116.266 316.924 117.27 318.422 116.888L318.557 116.853C320.053 116.472 320.77 114.849 320.158 113.228L319.05 110.294C318.437 108.673 316.727 107.668 315.231 108.05L315.096 108.084C313.599 108.466 312.882 110.09 313.494 111.711ZM314.714 111.4C314.377 110.509 314.772 109.615 315.595 109.405L315.73 109.37C316.551 109.161 317.494 109.714 317.831 110.605L318.939 113.539C319.275 114.428 318.88 115.324 318.058 115.533L317.923 115.568C317.1 115.778 316.158 115.224 315.822 114.334L314.714 111.4Z" fill="#355288"/>
<path d="M320.472 122.697C320.796 122.611 320.967 122.286 320.853 121.972L318.126 114.453C318.012 114.139 317.656 113.954 317.332 114.04C317.008 114.126 316.835 114.451 316.949 114.766L319.676 122.284C319.79 122.599 320.147 122.783 320.472 122.697Z" fill="#355288"/>
<path d="M309.344 99.9109L310.452 102.845C311.065 104.466 312.774 105.47 314.271 105.088L314.406 105.053C315.903 104.671 316.62 103.049 316.008 101.428L314.899 98.4934C314.287 96.8726 312.577 95.8679 311.081 96.2497L310.946 96.2842C309.448 96.6662 308.731 98.2901 309.344 99.9109ZM310.563 99.5997C310.227 98.7083 310.622 97.8143 311.444 97.6045L311.579 97.57C312.401 97.3604 313.344 97.913 313.68 98.8044L314.789 101.739C315.125 102.628 314.729 103.523 313.908 103.733L313.773 103.767C312.95 103.977 312.008 103.424 311.672 102.534L310.563 99.5997Z" fill="#355288"/>
<path d="M316.321 110.897C316.646 110.811 316.816 110.486 316.702 110.172L313.975 102.653C313.861 102.339 313.506 102.154 313.181 102.24C312.857 102.326 312.685 102.651 312.799 102.965L315.526 110.484C315.64 110.799 315.997 110.983 316.321 110.897Z" fill="#355288"/>
<path d="M305.193 88.11L306.302 91.0443C306.914 92.6651 308.624 93.6689 310.121 93.2869L310.256 93.2524C311.752 92.8706 312.47 91.2476 311.857 89.6267L310.749 86.6925C310.137 85.0717 308.427 84.067 306.93 84.4488L306.795 84.4833C305.298 84.8653 304.581 86.4892 305.193 88.11ZM306.413 87.7988C306.077 86.9083 306.471 86.0134 307.294 85.8036L307.429 85.7691C308.251 85.5595 309.194 86.113 309.53 87.0035L310.639 89.9377C310.975 90.8274 310.579 91.7225 309.757 91.9321L309.622 91.9666C308.8 92.1764 307.858 91.6227 307.522 90.733L306.413 87.7988Z" fill="#355288"/>
<path d="M312.171 99.096C312.495 99.0098 312.666 98.6849 312.552 98.3707L309.825 90.8517C309.711 90.5375 309.355 90.3525 309.031 90.4387C308.707 90.5249 308.534 90.8503 308.648 91.1645L311.375 98.6834C311.489 98.9976 311.847 99.1822 312.171 99.096Z" fill="#355288"/>
<path d="M301.043 76.309L302.151 79.2432C302.764 80.8641 304.473 81.8679 305.971 81.4858L306.106 81.4513C307.602 81.0696 308.319 79.4466 307.707 77.8257L306.598 74.8915C305.986 73.2706 304.276 72.266 302.78 72.6478L302.645 72.6823C301.147 73.0643 300.431 74.6881 301.043 76.309ZM302.263 75.9978C301.926 75.1073 302.321 74.2124 303.144 74.0025L303.279 73.9681C304.1 73.7584 305.043 74.312 305.38 75.2025L306.488 78.1367C306.824 79.0264 306.429 79.9214 305.607 80.1311L305.472 80.1656C304.649 80.3754 303.707 79.8217 303.371 78.932L302.263 75.9978Z" fill="#355288"/>
<path d="M308.021 87.2958C308.345 87.2096 308.516 86.8847 308.402 86.5705L305.675 79.0516C305.561 78.7374 305.206 78.5524 304.881 78.6386C304.557 78.7248 304.384 79.0501 304.498 79.3643L307.225 86.8833C307.339 87.1975 307.697 87.382 308.021 87.2958Z" fill="#355288"/>
<path d="M296.893 64.5088L298.001 67.4431C298.613 69.0639 300.323 70.0677 301.82 69.6857L301.955 69.6512C303.452 69.2694 304.169 67.6464 303.557 66.0256L302.448 63.0913C301.836 61.4705 300.126 60.4658 298.63 60.8476L298.494 60.8821C296.997 61.2641 296.28 62.888 296.893 64.5088ZM298.112 64.1976C297.776 63.3071 298.171 62.4122 298.993 62.2024L299.128 62.1679C299.95 61.9583 300.893 62.5118 301.229 63.4023L302.338 66.3365C302.674 67.2262 302.278 68.1213 301.457 68.3309L301.321 68.3654C300.499 68.5753 299.557 68.0215 299.221 67.1318L298.112 64.1976Z" fill="#355288"/>
<path d="M303.87 75.4948C304.194 75.4086 304.365 75.0837 304.251 74.7695L301.524 67.2505C301.41 66.9363 301.055 66.7513 300.73 66.8375C300.406 66.9237 300.234 67.2491 300.348 67.5633L303.074 75.0822C303.188 75.3964 303.546 75.581 303.87 75.4948Z" fill="#355288"/>
<path d="M292.71 52.6159L293.818 55.5501C294.431 57.171 296.14 58.1747 297.638 57.7927L297.773 57.7582C299.269 57.3764 299.986 55.7535 299.374 54.1326L298.265 51.1984C297.653 49.5775 295.943 48.5729 294.447 48.9547L294.312 48.9892C292.814 49.3712 292.098 50.995 292.71 52.6159ZM293.93 52.3047C293.593 51.4133 293.988 50.5193 294.811 50.3094L294.946 50.275C295.767 50.0653 296.71 50.618 297.047 51.5094L298.155 54.4436C298.491 55.3333 298.096 56.2283 297.274 56.438L297.139 56.4724C296.316 56.6823 295.374 56.1285 295.038 55.2389L293.93 52.3047Z" fill="#355288"/>
<path d="M299.687 63.6019C300.012 63.5157 300.182 63.1909 300.068 62.8767L297.342 55.3577C297.228 55.0435 296.872 54.8585 296.548 54.9447C296.223 55.0309 296.051 55.3562 296.165 55.6704L298.892 63.1894C299.006 63.5036 299.363 63.6881 299.687 63.6019Z" fill="#355288"/>
<path d="M288.56 40.8149L289.668 43.7491C290.28 45.3699 291.99 46.3737 293.487 45.9917L293.622 45.9572C295.119 45.5754 295.836 43.9524 295.224 42.3316L294.115 39.3973C293.503 37.7765 291.793 36.7719 290.296 37.1537L290.161 37.1881C288.664 37.5702 287.947 39.194 288.56 40.8149ZM289.779 40.5036C289.443 39.6131 289.838 38.7183 290.66 38.5084L290.795 38.4739C291.617 38.2643 292.56 38.8178 292.896 39.7083L294.005 42.6426C294.341 43.5322 293.945 44.4273 293.124 44.6369L292.988 44.6714C292.166 44.8813 291.224 44.3275 290.888 43.4379L289.779 40.5036Z" fill="#355288"/>
<path d="M295.537 51.8009C295.861 51.7147 296.032 51.3899 295.918 51.0757L293.191 43.5567C293.077 43.2425 292.722 43.0575 292.397 43.1437C292.073 43.2299 291.901 43.5552 292.015 43.8694L294.741 51.3884C294.855 51.7026 295.213 51.8871 295.537 51.8009Z" fill="#355288"/>
<path d="M284.409 29.014L285.517 31.9482C286.129 33.569 287.839 34.5728 289.336 34.1908L289.471 34.1563C290.968 33.7745 291.685 32.1515 291.073 30.5307L289.964 27.5964C289.352 25.9756 287.642 24.971 286.146 25.3527L286.01 25.3872C284.513 25.7693 283.796 27.3931 284.409 29.014ZM285.628 28.7027C285.292 27.8122 285.687 26.9174 286.509 26.7075L286.644 26.673C287.466 26.4634 288.409 27.0169 288.745 27.9074L289.854 30.8417C290.19 31.7313 289.794 32.6264 288.973 32.836L288.838 32.8705C288.015 33.0804 287.073 32.5266 286.737 31.637L285.628 28.7027Z" fill="#355288"/>
<path d="M291.386 39.9999C291.71 39.9137 291.881 39.5888 291.767 39.2746L289.041 31.7565C288.927 31.4423 288.571 31.2565 288.246 31.3427C287.922 31.4289 287.75 31.755 287.864 32.0692L290.591 39.5874C290.704 39.9016 291.062 40.0861 291.386 39.9999Z" fill="#355288"/>
<path d="M280.259 17.2138L281.367 20.148C281.98 21.7689 283.689 22.7726 285.186 22.3906L285.322 22.3561C286.818 21.9743 287.535 20.3514 286.923 18.7305L285.814 15.7963C285.202 14.1754 283.492 13.1708 281.996 13.5526L281.861 13.5871C280.363 13.9691 279.646 15.5929 280.259 17.2138ZM281.478 16.9026C281.142 16.012 281.537 15.1172 282.359 14.9073L282.494 14.8729C283.316 14.6632 284.259 15.2167 284.595 16.1073L285.704 19.0415C286.04 19.9312 285.644 20.8262 284.823 21.0359L284.688 21.0703C283.865 21.2802 282.923 20.7264 282.587 19.8368L281.478 16.9026Z" fill="#355288"/>
<path d="M287.236 28.1997C287.561 28.1135 287.731 27.7887 287.617 27.4745L284.89 19.9555C284.776 19.6413 284.421 19.4563 284.097 19.5425C283.772 19.6287 283.6 19.954 283.714 20.2682L286.441 27.7872C286.555 28.1014 286.912 28.2859 287.236 28.1997Z" fill="#355288"/>
<path d="M279.952 9.58594L282.262 15.9217C282.39 16.2719 282.758 16.4861 283.083 16.4001C283.408 16.3141 283.569 15.9602 283.441 15.61L281.131 9.27429L279.952 9.58594Z" fill="#355288"/>
<path d="M276.108 5.41276L277.216 8.34699C277.829 9.96784 279.538 10.9716 281.036 10.5896L281.171 10.5551C282.667 10.1733 283.384 8.55033 282.772 6.92948L281.663 3.99525C281.051 2.3744 279.341 1.36976 277.845 1.75155L277.71 1.78603C276.212 2.16806 275.496 3.79191 276.108 5.41276ZM277.328 5.10153C276.991 4.21101 277.386 3.31618 278.208 3.10631L278.344 3.07183C279.165 2.86219 280.108 3.41572 280.445 4.30624L281.553 7.24047C281.889 8.13013 281.494 9.0252 280.672 9.23484L280.537 9.26932C279.714 9.47919 278.772 8.92542 278.436 8.03577L277.328 5.10153Z" fill="#355288"/>
<path d="M283.086 16.3995C283.41 16.3134 283.581 15.9885 283.467 15.6743L280.74 8.15533C280.626 7.84112 280.27 7.65613 279.946 7.74233C279.622 7.82853 279.449 8.15385 279.563 8.46806L282.29 15.987C282.404 16.3012 282.762 16.4857 283.086 16.3995Z" fill="#355288"/>
<path d="M278.935 4.59852C279.26 4.51233 279.43 4.18747 279.317 3.87326L276.59 -3.6457C276.476 -3.9599 276.12 -4.14489 275.796 -4.0587C275.471 -3.9725 275.299 -3.64718 275.413 -3.33297L278.14 4.18599C278.254 4.5002 278.611 4.68472 278.935 4.59852Z" fill="#355288"/>
<path d="M191.803 28.518L192.911 31.4522C193.523 33.0731 195.233 34.0768 196.73 33.6948L196.865 33.6603C198.362 33.2785 199.079 31.6556 198.467 30.0347L197.358 27.1005C196.746 25.4796 195.036 24.475 193.54 24.8568L193.405 24.8913C191.907 25.2733 191.19 26.8971 191.803 28.518ZM193.022 28.2068C192.686 27.3162 193.081 26.4214 193.903 26.2115L194.038 26.1771C194.86 25.9674 195.803 26.5209 196.139 27.4115L197.248 30.3457C197.584 31.2354 197.188 32.1304 196.367 32.3401L196.232 32.3745C195.409 32.5844 194.467 32.0306 194.131 31.141L193.022 28.2068Z" fill="#355288"/>
<path d="M198.78 39.5049C199.105 39.4185 199.275 39.0939 199.161 38.7797L196.434 31.2608C196.32 30.9466 195.965 30.7613 195.64 30.8478C195.316 30.934 195.145 31.2588 195.259 31.573L197.986 39.0919C198.1 39.4061 198.455 39.5911 198.78 39.5049Z" fill="#355288"/>
<path d="M187.653 16.7178L188.761 19.652C189.374 21.2729 191.083 22.2767 192.58 21.8946L192.716 21.8602C194.212 21.4784 194.929 19.8554 194.317 18.2345L193.208 15.3003C192.596 13.6795 190.886 12.6748 189.39 13.0566L189.255 13.0911C187.757 13.4731 187.04 15.097 187.653 16.7178ZM188.873 16.4066C188.536 15.5161 188.931 14.6212 189.753 14.4114L189.889 14.3769C190.71 14.1672 191.653 14.7208 191.99 15.6113L193.098 18.5455C193.434 19.4352 193.038 20.3303 192.217 20.5399L192.082 20.5744C191.259 20.7842 190.317 20.2305 189.981 19.3408L188.873 16.4066Z" fill="#355288"/>
<path d="M194.629 27.7039C194.955 27.6175 195.124 27.2928 195.01 26.9786L192.284 19.4597C192.17 19.1455 191.815 18.9603 191.49 19.0467C191.165 19.1329 190.995 19.4578 191.109 19.772L193.836 27.2909C193.949 27.6051 194.305 27.7901 194.629 27.7039Z" fill="#355288"/>
<path d="M183.502 4.91764L184.611 7.85187C185.223 9.47272 186.933 10.4765 188.43 10.0945L188.565 10.06C190.062 9.6782 190.779 8.05521 190.166 6.43436L189.058 3.50013C188.446 1.87928 186.736 0.874639 185.239 1.25644L185.104 1.29091C183.607 1.67294 182.89 3.29679 183.502 4.91764ZM184.722 4.60642C184.386 3.7159 184.78 2.82106 185.603 2.61119L185.738 2.57671C186.56 2.36707 187.503 2.9206 187.839 3.81112L188.948 6.74535C189.284 7.63501 188.888 8.53008 188.066 8.73972L187.931 8.7742C187.109 8.98407 186.167 8.43031 185.831 7.54065L184.722 4.60642Z" fill="#355288"/>
<path d="M190.479 15.9037C190.804 15.8173 190.974 15.4927 190.86 15.1785L188.133 7.65957C188.019 7.34536 187.665 7.16014 187.339 7.24658C187.015 7.33277 186.844 7.65763 186.958 7.97184L189.685 15.4907C189.799 15.8049 190.155 15.9899 190.479 15.9037Z" fill="#355288"/>
<path d="M186.329 4.10356C186.654 4.01713 186.824 3.69251 186.71 3.3783L183.983 -4.1406C183.869 -4.45481 183.515 -4.64003 183.189 -4.5536C182.865 -4.4674 182.694 -4.14254 182.808 -3.82833L185.535 3.69057C185.649 4.00478 186.005 4.18976 186.329 4.10356Z" fill="#355288"/>
<path d="M262.424 229.314L263.533 232.248C264.145 233.869 265.855 234.872 267.351 234.491L267.486 234.456C268.983 234.074 269.701 232.451 269.088 230.83L267.98 227.896C267.368 226.275 265.658 225.271 264.16 225.653L264.025 225.687C262.529 226.069 261.812 227.693 262.424 229.314ZM263.643 229.003C263.307 228.112 263.702 227.218 264.524 227.008L264.659 226.974C265.482 226.764 266.424 227.317 266.76 228.207L267.869 231.142C268.205 232.031 267.81 232.926 266.987 233.136L266.852 233.17C266.03 233.38 265.088 232.827 264.752 231.937L263.643 229.003Z" fill="#355288"/>
<path d="M269.401 240.3C269.725 240.214 269.896 239.889 269.782 239.575L267.055 232.056C266.941 231.741 266.585 231.556 266.261 231.642C265.936 231.728 265.766 232.054 265.88 232.368L268.607 239.887C268.721 240.201 269.075 240.386 269.401 240.3Z" fill="#355288"/>
<path d="M258.274 217.513L259.382 220.447C259.995 222.068 261.704 223.072 263.201 222.69L263.336 222.655C264.833 222.273 265.55 220.65 264.938 219.029L263.829 216.095C263.217 214.474 261.507 213.47 260.01 213.852L259.875 213.886C258.378 214.268 257.661 215.891 258.274 217.513ZM259.493 217.202C259.156 216.311 259.551 215.416 260.374 215.207L260.509 215.172C261.331 214.962 262.273 215.516 262.61 216.406L263.718 219.341C264.054 220.23 263.659 221.124 262.837 221.334L262.702 221.369C261.879 221.579 260.937 221.026 260.601 220.136L259.493 217.202Z" fill="#355288"/>
<path d="M265.251 228.5C265.575 228.413 265.745 228.088 265.631 227.774L262.905 220.256C262.791 219.94 262.435 219.755 262.111 219.842C261.786 219.928 261.616 220.253 261.73 220.568L264.457 228.086C264.571 228.4 264.926 228.586 265.251 228.5Z" fill="#355288"/>
<path d="M254.123 205.712L255.232 208.647C255.844 210.268 257.554 211.271 259.05 210.89L259.185 210.855C260.683 210.473 261.4 208.85 260.788 207.229L259.679 204.294C259.066 202.673 257.357 201.67 255.86 202.052L255.724 202.086C254.228 202.468 253.511 204.091 254.123 205.712ZM255.342 205.401C255.006 204.51 255.401 203.616 256.223 203.406L256.358 203.372C257.181 203.162 258.123 203.715 258.459 204.605L259.568 207.541C259.904 208.43 259.509 209.324 258.686 209.534L258.551 209.568C257.729 209.778 256.787 209.225 256.451 208.336L255.342 205.401Z" fill="#355288"/>
<path d="M261.1 216.699C261.424 216.612 261.595 216.288 261.481 215.973L258.754 208.454C258.64 208.14 258.285 207.955 257.96 208.041C257.635 208.128 257.465 208.453 257.579 208.767L260.306 216.286C260.42 216.6 260.775 216.785 261.1 216.699Z" fill="#355288"/>
<path d="M249.973 193.912L251.082 196.846C251.694 198.467 253.403 199.47 254.9 199.089L255.035 199.054C256.532 198.672 257.249 197.049 256.637 195.428L255.529 192.494C254.916 190.873 253.206 189.869 251.709 190.251L251.574 190.285C250.078 190.667 249.361 192.291 249.973 193.912ZM251.192 193.601C250.856 192.71 251.25 191.815 252.073 191.605L252.208 191.571C253.03 191.361 253.972 191.915 254.309 192.805L255.417 195.739C255.754 196.629 255.359 197.524 254.536 197.734L254.401 197.768C253.579 197.978 252.637 197.424 252.3 196.535L251.192 193.601Z" fill="#355288"/>
<path d="M256.95 204.898C257.274 204.812 257.445 204.487 257.331 204.173L254.604 196.654C254.49 196.34 254.135 196.155 253.811 196.241C253.485 196.328 253.316 196.652 253.43 196.967L256.156 204.486C256.27 204.8 256.625 204.985 256.95 204.898Z" fill="#355288"/>
<path d="M245.823 182.111L246.931 185.046C247.544 186.666 249.253 187.67 250.749 187.288L250.885 187.254C252.382 186.872 253.099 185.249 252.487 183.628L251.378 180.694C250.766 179.073 249.056 178.068 247.559 178.45L247.424 178.485C245.927 178.867 245.21 180.491 245.823 182.111ZM247.042 181.8C246.705 180.909 247.1 180.015 247.922 179.805L248.058 179.771C248.88 179.561 249.822 180.114 250.159 181.005L251.267 183.939C251.603 184.829 251.208 185.724 250.386 185.934L250.251 185.968C249.428 186.178 248.486 185.624 248.15 184.735L247.042 181.8Z" fill="#355288"/>
<path d="M252.799 193.097C253.124 193.011 253.294 192.686 253.18 192.372L250.454 184.853C250.34 184.539 249.984 184.354 249.66 184.44C249.335 184.527 249.165 184.851 249.279 185.166L252.005 192.684C252.119 192.999 252.474 193.184 252.799 193.097Z" fill="#355288"/>
<path d="M241.64 170.218L242.748 173.152C243.36 174.773 245.07 175.776 246.566 175.395L246.701 175.36C248.199 174.978 248.916 173.355 248.304 171.734L247.195 168.8C246.583 167.179 244.873 166.175 243.376 166.557L243.241 166.591C241.744 166.973 241.027 168.597 241.64 170.218ZM242.858 169.907C242.522 169.016 242.917 168.121 243.739 167.911L243.874 167.877C244.697 167.667 245.639 168.221 245.975 169.111L247.084 172.046C247.42 172.935 247.025 173.83 246.203 174.04L246.068 174.074C245.245 174.284 244.303 173.73 243.967 172.841L242.858 169.907Z" fill="#355288"/>
<path d="M248.616 181.204C248.94 181.118 249.111 180.793 248.997 180.479L246.27 172.96C246.156 172.645 245.801 172.46 245.477 172.547C245.151 172.633 244.982 172.958 245.096 173.272L247.822 180.791C247.936 181.105 248.291 181.29 248.616 181.204Z" fill="#355288"/>
<path d="M237.49 158.417L238.598 161.352C239.211 162.972 240.92 163.976 242.416 163.594L242.552 163.56C244.049 163.178 244.766 161.555 244.154 159.934L243.045 157C242.433 155.379 240.723 154.374 239.226 154.756L239.091 154.791C237.594 155.173 236.877 156.797 237.49 158.417ZM238.709 158.106C238.372 157.216 238.767 156.321 239.589 156.111L239.725 156.077C240.547 155.867 241.489 156.421 241.826 157.311L242.934 160.245C243.27 161.135 242.875 162.03 242.053 162.24L241.918 162.274C241.095 162.484 240.153 161.93 239.817 161.041L238.709 158.106Z" fill="#355288"/>
<path d="M244.466 169.404C244.791 169.317 244.961 168.993 244.847 168.678L242.121 161.159C242.007 160.845 241.651 160.66 241.327 160.746C241.002 160.833 240.832 161.158 240.946 161.472L243.672 168.991C243.786 169.305 244.141 169.49 244.466 169.404Z" fill="#355288"/>
<path d="M233.339 146.616L234.447 149.551C235.06 151.172 236.769 152.175 238.266 151.794L238.401 151.759C239.898 151.377 240.615 149.754 240.003 148.133L238.894 145.199C238.282 143.578 236.572 142.573 235.075 142.956L234.94 142.99C233.443 143.372 232.726 144.996 233.339 146.616ZM234.558 146.305C234.221 145.415 234.616 144.52 235.439 144.31L235.574 144.276C236.396 144.066 237.338 144.62 237.675 145.51L238.783 148.444C239.119 149.334 238.724 150.229 237.902 150.439L237.767 150.473C236.944 150.683 236.002 150.129 235.666 149.24L234.558 146.305Z" fill="#355288"/>
<path d="M240.316 157.603C240.64 157.517 240.811 157.192 240.697 156.878L237.97 149.359C237.856 149.045 237.501 148.86 237.176 148.946C236.851 149.033 236.681 149.357 236.795 149.672L239.522 157.19C239.636 157.505 239.991 157.69 240.316 157.603Z" fill="#355288"/>
<path d="M229.189 134.816L230.297 137.751C230.91 139.371 232.619 140.375 234.116 139.993L234.251 139.959C235.748 139.577 236.465 137.954 235.853 136.333L234.744 133.399C234.132 131.778 232.422 130.773 230.925 131.155L230.79 131.19C229.293 131.572 228.577 133.195 229.189 134.816ZM230.408 134.505C230.071 133.615 230.466 132.72 231.289 132.51L231.424 132.476C232.246 132.266 233.188 132.82 233.525 133.71L234.633 136.644C234.969 137.534 234.575 138.429 233.752 138.639L233.617 138.673C232.794 138.883 231.852 138.329 231.516 137.44L230.408 134.505Z" fill="#355288"/>
<path d="M236.165 145.802C236.49 145.716 236.66 145.391 236.547 145.077L233.82 137.558C233.706 137.244 233.35 137.059 233.026 137.145C232.701 137.232 232.531 137.556 232.645 137.871L235.372 145.389C235.486 145.704 235.84 145.889 236.165 145.802Z" fill="#355288"/>
<path d="M225.039 123.016L226.147 125.95C226.759 127.571 228.469 128.575 229.965 128.193L230.1 128.159C231.598 127.777 232.315 126.154 231.703 124.533L230.594 121.599C229.982 119.978 228.272 118.973 226.775 119.355L226.639 119.39C225.143 119.771 224.426 121.395 225.039 123.016ZM226.257 122.705C225.921 121.814 226.316 120.92 227.138 120.71L227.273 120.675C228.096 120.466 229.038 121.018 229.374 121.91L230.483 124.844C230.819 125.734 230.424 126.629 229.602 126.838L229.467 126.873C228.644 127.083 227.702 126.529 227.366 125.639L226.257 122.705Z" fill="#355288"/>
<path d="M232.015 134.002C232.339 133.916 232.51 133.591 232.396 133.277L229.669 125.758C229.555 125.444 229.2 125.259 228.876 125.345C228.55 125.432 228.381 125.756 228.494 126.07L231.221 133.589C231.335 133.903 231.69 134.089 232.015 134.002Z" fill="#355288"/>
<path d="M220.888 111.215L221.997 114.149C222.609 115.77 224.319 116.774 225.815 116.392L225.95 116.358C227.447 115.976 228.165 114.353 227.552 112.732L226.444 109.798C225.831 108.177 224.121 107.172 222.624 107.554L222.489 107.589C220.993 107.97 220.276 109.594 220.888 111.215ZM222.107 110.904C221.771 110.014 222.165 109.119 222.988 108.909L223.123 108.874C223.946 108.665 224.888 109.218 225.224 110.109L226.332 113.043C226.669 113.933 226.274 114.828 225.451 115.037L225.316 115.072C224.494 115.282 223.552 114.728 223.215 113.838L222.107 110.904Z" fill="#355288"/>
<path d="M227.865 122.201C228.189 122.115 228.36 121.79 228.246 121.476L225.519 113.957C225.405 113.643 225.049 113.458 224.725 113.544C224.4 113.631 224.23 113.955 224.344 114.269L227.071 121.788C227.185 122.103 227.54 122.288 227.865 122.201Z" fill="#355288"/>
<path d="M216.738 99.4141L217.846 102.348C218.459 103.969 220.168 104.973 221.665 104.591L221.8 104.557C223.297 104.175 224.014 102.552 223.402 100.931L222.293 97.9966C221.681 96.3757 219.971 95.3711 218.474 95.7531L218.339 95.7876C216.842 96.1694 216.125 97.7932 216.738 99.4141ZM217.957 99.1031C217.62 98.2126 218.015 97.3178 218.837 97.1079L218.973 97.0734C219.795 96.8635 220.737 97.4173 221.074 98.3078L222.182 101.242C222.518 102.132 222.123 103.027 221.301 103.236L221.166 103.271C220.343 103.481 219.401 102.927 219.065 102.037L217.957 99.1031Z" fill="#355288"/>
<path d="M223.714 110.401C224.039 110.315 224.209 109.99 224.095 109.676L221.369 102.157C221.255 101.843 220.899 101.658 220.575 101.744C220.25 101.83 220.08 102.155 220.194 102.469L222.92 109.988C223.034 110.302 223.389 110.488 223.714 110.401Z" fill="#355288"/>
<path d="M212.587 87.6139L213.696 90.5482C214.308 92.169 216.018 93.1728 217.514 92.791L217.649 92.7565C219.147 92.3745 219.864 90.7515 219.251 89.1307L218.143 86.1964C217.531 84.5756 215.821 83.5709 214.323 83.953L214.188 83.9874C212.692 84.3692 211.975 85.9931 212.587 87.6139ZM213.806 87.3029C213.47 86.4124 213.865 85.5176 214.687 85.3077L214.822 85.2732C215.645 85.0634 216.587 85.6171 216.923 86.5076L218.032 89.4419C218.368 90.3315 217.973 91.2264 217.15 91.4362L217.015 91.4707C216.193 91.6806 215.251 91.1268 214.915 90.2372L213.806 87.3029Z" fill="#355288"/>
<path d="M219.564 98.6001C219.888 98.5139 220.059 98.1891 219.945 97.8749L217.218 90.356C217.104 90.0418 216.749 89.8568 216.424 89.943C216.099 90.0294 215.929 90.354 216.043 90.6682L218.77 98.1872C218.884 98.5014 219.239 98.6866 219.564 98.6001Z" fill="#355288"/>
<path d="M208.405 75.7211L209.513 78.6553C210.126 80.2762 211.835 81.28 213.331 80.8982L213.467 80.8637C214.964 80.4817 215.681 78.8587 215.069 77.2378L213.96 74.3036C213.348 72.6827 211.638 71.6781 210.141 72.0601L210.006 72.0946C208.509 72.4764 207.792 74.1003 208.405 75.7211ZM209.624 75.4101C209.287 74.5187 209.682 73.6248 210.504 73.4149L210.64 73.3804C211.462 73.1705 212.404 73.7234 212.741 74.6148L213.849 77.5491C214.185 78.4387 213.79 79.3335 212.968 79.5434L212.833 79.5779C212.01 79.7878 211.068 79.234 210.732 78.3443L209.624 75.4101Z" fill="#355288"/>
<path d="M215.381 86.7072C215.706 86.621 215.876 86.2961 215.762 85.9819L213.036 78.463C212.922 78.1488 212.566 77.9638 212.242 78.05C211.917 78.1365 211.747 78.4611 211.861 78.7753L214.587 86.2942C214.701 86.6084 215.056 86.7936 215.381 86.7072Z" fill="#355288"/>
<path d="M204.254 63.9201L205.363 66.8543C205.975 68.4752 207.685 69.4789 209.181 69.0971L209.316 69.0627C210.814 68.6806 211.531 67.0577 210.918 65.4368L209.81 62.5026C209.198 60.8817 207.488 59.8771 205.99 60.2591L205.855 60.2936C204.359 60.6754 203.642 62.2992 204.254 63.9201ZM205.473 63.6091C205.137 62.7186 205.532 61.8237 206.354 61.6139L206.489 61.5794C207.312 61.3695 208.254 61.9233 208.59 62.8138L209.699 65.748C210.035 66.6377 209.64 67.5325 208.817 67.7424L208.682 67.7769C207.86 67.9867 206.918 67.433 206.582 66.5433L205.473 63.6091Z" fill="#355288"/>
<path d="M211.231 74.9063C211.555 74.8201 211.726 74.4952 211.612 74.181L208.885 66.6621C208.771 66.3479 208.416 66.1629 208.091 66.2491C207.766 66.3356 207.596 66.6602 207.71 66.9744L210.437 74.4933C210.551 74.8075 210.906 74.9927 211.231 74.9063Z" fill="#355288"/>
<path d="M200.103 52.1191L201.212 55.0533C201.824 56.6741 203.534 57.6779 205.03 57.2961L205.165 57.2616C206.663 56.8796 207.38 55.2566 206.768 53.6358L205.659 50.7015C205.047 49.0807 203.337 48.0761 201.84 48.4581L201.704 48.4926C200.208 48.8744 199.491 50.4982 200.103 52.1191ZM201.322 51.8081C200.986 50.9175 201.381 50.0227 202.203 49.8128L202.338 49.7784C203.161 49.5685 204.103 50.1223 204.439 51.0128L205.548 53.947C205.884 54.8367 205.489 55.7315 204.667 55.9414L204.531 55.9758C203.709 56.1857 202.767 55.632 202.431 54.7423L201.322 51.8081Z" fill="#355288"/>
<path d="M207.08 63.1053C207.404 63.0191 207.575 62.6942 207.461 62.38L204.735 54.862C204.621 54.5477 204.265 54.3619 203.94 54.4481C203.615 54.5345 203.446 54.86 203.56 55.1742L206.286 62.6923C206.4 63.0065 206.755 63.1917 207.08 63.1053Z" fill="#355288"/>
<path d="M195.954 40.3189L197.062 43.2531C197.674 44.874 199.384 45.8777 200.88 45.496L201.015 45.4615C202.513 45.0794 203.23 43.4565 202.618 41.8356L201.509 38.9014C200.897 37.2805 199.187 36.2759 197.69 36.6579L197.555 36.6924C196.058 37.0742 195.341 38.698 195.954 40.3189ZM197.172 40.0079C196.836 39.1174 197.231 38.2225 198.053 38.0127L198.188 37.9782C199.011 37.7683 199.953 38.3221 200.289 39.2126L201.398 42.1468C201.734 43.0365 201.339 43.9313 200.517 44.1412L200.382 44.1757C199.559 44.3855 198.617 43.8318 198.281 42.9421L197.172 40.0079Z" fill="#355288"/>
<path d="M202.93 51.3051C203.254 51.2189 203.425 50.894 203.311 50.5798L200.584 43.0609C200.47 42.7467 200.115 42.5617 199.791 42.6479C199.465 42.7344 199.296 43.059 199.41 43.3732L202.136 50.8921C202.25 51.2063 202.605 51.3915 202.93 51.3051Z" fill="#355288"/>
<path d="M195.646 32.6913L197.956 39.0271C198.084 39.3773 198.451 39.5916 198.777 39.5055C199.102 39.4195 199.265 39.0652 199.137 38.715L196.826 32.3792L195.646 32.6913Z" fill="#355288"/>
<path d="M360.721 224.121L267.229 248.588L264.029 239.809C263.238 237.642 264.416 235.405 266.658 234.812L351.946 212.263C354.188 211.671 356.647 212.946 357.437 215.114L360.721 224.121Z" fill="#F7CC7E"/>
<path d="M356.818 230.181L274.444 252.064C271.37 252.88 268.003 251.129 266.923 248.153C265.843 245.177 267.459 242.101 270.533 241.284L352.907 219.402C355.98 218.585 359.347 220.337 360.427 223.314C361.507 226.29 359.891 229.364 356.818 230.181Z" fill="#EAAF53"/>
<path d="M300.616 163.93C301.727 162.538 314.459 165.023 314.82 166.667C315.18 168.312 328.083 182.452 328.083 182.452L338.062 169.174C338.062 169.174 338.827 164.832 339.044 164.139C339.454 162.832 340.37 161.483 341.519 161.47C342.665 161.456 341.047 163.123 340.988 163.382C340.827 164.09 342.296 164.064 342.296 164.064C342.296 164.064 345.655 161.236 345.363 160.008C345.069 158.779 345.103 156.08 346.134 156.446C346.665 156.635 347.223 158.438 347.352 159.32C347.306 158.3 347.326 157.133 347.646 156.957C348.232 156.634 348.795 157.346 348.796 157.748C348.797 158.15 349.038 162.472 348.865 162.997C348.695 163.51 343.756 169.634 343.155 170.873C343.155 170.873 332.2 191.729 329.235 192.572C328.058 192.907 323.076 189.068 317.934 185.393C312.793 181.719 297.142 168.282 300.616 163.93Z" fill="#F7A391"/>
<path d="M321.271 175.021L308.421 178.033C308.421 178.033 305.43 167.922 304.29 163.062C302.908 157.164 301.659 149.497 302.45 149.56C304.672 149.739 307.777 150.466 309.988 152.442C317.64 159.285 321.271 175.021 321.271 175.021Z" fill="#B75642"/>
<path d="M309.295 161.392C309.996 163.157 326.595 211.469 326.595 211.469C305.142 225.594 289.764 218.342 289.764 218.342C289.764 218.342 282.457 183.842 280.413 179.286C279.06 176.271 272.516 156.221 274.508 155.363C277.062 154.264 280.931 152.636 284.263 151.852C287.107 151.182 298.379 149.525 300.554 149.899C300.554 149.899 306.35 153.969 309.295 161.392Z" fill="#F47457"/>
<path d="M299.775 114.679C299.775 114.679 309.662 113.934 308.767 121.547C308.767 121.547 316.093 123.737 311.13 130.162C311.13 130.162 316.292 136.425 307.125 143.307C307.125 143.307 304.619 152.301 294.355 148.705C294.355 148.705 291.284 150.993 287.095 148.439C282.907 145.886 282.374 144.256 282.374 144.256C282.374 144.256 273.063 143.194 274.425 135.19C274.425 135.19 269.565 131.63 277.012 126.328C277.012 126.328 276.987 115.464 286.968 116.315C286.968 116.315 292.893 107.658 299.775 114.679Z" fill="#174654"/>
<path d="M285.172 135.179C285.508 137.072 284.625 138.756 283.199 138.942C281.773 139.128 280.344 137.745 280.009 135.854C279.673 133.961 280.556 132.276 281.982 132.091C283.408 131.905 284.837 133.288 285.172 135.179Z" fill="#F7A391"/>
<path d="M309.847 134.971C309.551 136.861 308.152 138.234 306.723 138.038C305.292 137.841 304.374 136.149 304.669 134.26C304.966 132.371 306.364 130.998 307.794 131.193C309.224 131.39 310.143 133.081 309.847 134.971Z" fill="#F7A391"/>
<path d="M297.698 145.439C297.669 145.572 297.903 150.516 298.029 153.129C298.076 154.105 297.347 154.962 296.288 155.183C293.458 155.774 288.022 156.329 285.086 152.827C284.819 152.508 284.725 152.1 284.821 151.714L287.636 140.524L297.698 145.439Z" fill="#F7A391"/>
<path d="M297.856 148.222C294.827 148.966 291.342 148.364 287.871 145.62C287.431 145.272 287.024 144.913 286.648 144.544L287.659 140.525L297.754 145.452C297.74 145.517 297.788 146.71 297.856 148.222Z" fill="#F48B7E"/>
<path d="M295.229 120.433C295.229 120.433 290.72 120.671 287.408 123.945C284.097 127.218 280.425 137.747 288.443 144.09C296.461 150.433 304.562 144.314 305.85 137.376C307.138 130.437 305.561 120.985 295.229 120.433Z" fill="#F7A391"/>
<path d="M341.795 164.002L342.567 164.401C342.966 164.604 343.435 164.501 343.617 164.172L350.981 150.898C351.163 150.57 350.989 150.137 350.592 149.934L349.82 149.536C349.424 149.332 348.953 149.435 348.77 149.764L341.408 163.038C341.224 163.367 341.398 163.799 341.795 164.002Z" fill="#13375B"/>
<path d="M403.834 239.455C403.834 239.455 407.218 241.418 410.12 240.243C413.022 239.067 417.407 232.182 418.981 231.538C420.555 230.895 421.649 231.261 421.649 231.261L415.34 252.155L408.212 250.048L403.306 247.729L403.834 239.455Z" fill="#F7A391"/>
<path d="M411.744 239.23C411.744 239.23 412.764 245.271 410.604 247.495C408.443 249.721 408.059 249.537 408.401 250.433C408.745 251.33 415.393 253.354 415.393 253.354L422.516 229.943C422.914 228.289 421.769 227.101 420.239 228.13C419.19 228.836 418.368 229.753 417.817 230.253C416.124 231.788 411.744 239.23 411.744 239.23Z" fill="#174654"/>
<path d="M287.27 217.381C288.098 214.972 319.692 206.433 319.692 206.433C319.692 206.433 346.889 196.055 354.735 197.615C356.897 198.046 402.924 237.288 408.214 240.257L403.617 249.956C403.617 249.956 372.642 233.43 365.159 229.428C360.019 226.681 353.907 222.417 349.005 218.178C340.262 225.104 325.16 233.923 302.224 237.449C291.891 239.039 286.443 219.788 287.27 217.381Z" fill="#174654"/>
<path d="M323.595 267.769C323.595 267.769 327.432 277.067 329.851 279.368C332.271 281.668 331.986 286.469 332.092 287.097C332.2 287.727 329.193 289.263 323.812 289.792C318.431 290.321 318.16 289.166 318.005 287.245C317.851 285.324 319.889 282.402 319.509 280.62C319.129 278.836 315.391 272.896 315.391 272.896L323.595 267.769Z" fill="#F7A391"/>
<path d="M323.129 290.63C317.448 291.187 317.327 288.499 317.164 286.474C317.062 285.206 318.193 283.458 318.71 281.916C319.32 282.186 320.325 282.679 322.925 282.863C325.626 283.054 328.601 280.999 330.501 279.705C332.126 282.262 333.247 285.715 333.339 286.253C333.453 286.917 328.809 290.073 323.129 290.63Z" fill="#174654"/>
<path d="M308.25 232.034C311.741 239.474 329.096 276.517 329.096 276.517L317.33 280.544C317.33 280.544 286.524 233.917 284.882 226.137C283.24 218.357 288.663 216.525 288.663 216.525C288.663 216.525 299.008 212.339 308.25 232.034Z" fill="#355288"/>
<path d="M299.937 139.476L290.881 140.301C290.881 140.301 291.251 141.937 295.253 141.684C300.134 141.374 299.937 139.476 299.937 139.476Z" fill="white"/>
<path d="M305.432 124.939C305.432 124.939 301.2 123.096 298.031 123.566C294.862 124.037 284.476 131.606 282.986 130.537C281.495 129.468 283.492 123.213 284.698 122.25C285.903 121.287 290.712 118.316 291.122 118.241C291.533 118.167 295.869 117.976 296.611 118.106C297.354 118.236 302.696 120.275 302.696 120.275L305.432 124.939Z" fill="#174654"/>
<path d="M263.777 233.511C263.787 233.271 263.985 233.216 264.188 233.16C266.155 232.605 268.11 232.024 269.978 231.253C270.29 231.123 270.587 230.971 270.848 230.782C271.319 230.435 271.863 230.305 272.471 230.314C272.799 230.318 273.108 230.257 273.417 230.178C274.416 229.925 276.928 228.288 278.304 227.679C278.618 227.539 278.796 227.233 278.765 226.898C278.221 221.106 276.859 208.148 275.796 204.041C274.436 198.788 269.706 174.757 269.706 174.757L280.606 174.918C280.606 174.918 282.749 192.993 284.64 201.545C286.1 208.148 284.355 223.37 283.68 227.791C283.715 230.947 281.443 231.602 280.931 231.798C280.639 231.91 280.411 232.123 280.291 232.396C280.076 232.889 279.789 233.343 279.418 233.747C279.143 234.048 278.972 234.391 278.858 234.772C278.65 235.464 278.498 236.173 278.348 236.881C278.25 237.351 278.039 237.545 277.636 237.541C277.203 237.536 276.915 237.306 276.754 236.846C276.519 236.167 276.521 235.498 276.667 234.832C276.803 234.209 276.664 233.901 276.094 233.5C275.766 233.271 275.435 233.051 275.059 232.897C274.676 232.74 274.298 232.642 273.914 232.798C273.262 233.146 272.592 233.463 271.887 233.723L271.329 233.99C271.309 233.998 271.025 234.138 271.025 234.138C270.98 234.163 269.963 234.538 269.602 234.628C269.31 234.701 268.846 234.837 268.453 234.956C268.096 235.063 267.263 235.073 267.237 235.08C266.881 235.16 266.525 235.116 266.18 234.957C266.038 234.892 265.897 234.814 265.894 234.644C265.892 234.487 265.988 234.396 266.132 234.331C266.357 234.231 267.538 233.78 267.505 233.733C267.139 233.825 265.983 234.085 265.612 234.168C265.114 234.279 264.625 234.216 264.157 233.953C263.973 233.849 263.767 233.752 263.777 233.511Z" fill="#F7A391"/>
<path d="M269.307 182.006L286.21 186.603C286.21 186.603 285.864 175.774 285.956 169.036C286.035 163.242 275.934 154.486 273.776 156.221C268.952 160.104 269.307 182.006 269.307 182.006Z" fill="#B75642"/>
<path d="M-30.279 365.394C28.1209 336.698 75.5797 287.204 100.068 229.458C104.638 218.681 108.276 205.901 101.963 196.438C96.4898 188.232 84.7739 185.385 74.4454 187.351C64.1174 189.316 54.9459 195.226 46.6356 201.6C-4.48357 240.812 -32.9075 299.943 -59.4178 356.653" fill="#266A75"/>
<path d="M95.1356 198.469C59.4449 256.468 4.24599 303.244 -35.7709 358.82C-37.3018 360.945 -40.9325 358.624 -39.5115 356.404C-2.99428 299.393 48.528 248.522 93.0266 197.107C93.9894 195.995 95.9243 197.187 95.1356 198.469Z" fill="#308784"/>
<path d="M94.3237 238.34C88.5403 243.37 80.6749 246.181 73.7679 249.472C63.3867 254.416 52.9438 259.242 42.6288 264.323C40.732 265.257 39.2864 263.27 39.4831 261.732C41.8778 243.016 45.2001 224.206 49.9548 205.763C50.7587 202.644 55.6285 203.444 54.9949 206.581C51.2304 225.222 47.4816 243.804 44.3006 262.514C43.2524 261.65 42.2036 260.787 41.1553 259.923C58.3976 252.44 75.9817 245.03 92.8199 236.685C93.9182 236.141 95.4591 237.352 94.3237 238.34Z" fill="#308784"/>
<path d="M53.2313 301.977C43.1817 308.693 31.9695 311.89 20.5061 315.412C14.0491 317.395 7.89869 319.591 1.77087 322.455C-1.59964 324.03 -3.5086 325.723 -7.01858 324.687C-8.09309 324.37 -8.85201 323.745 -8.94163 322.619C-9.56695 314.715 -6.31438 305.547 -4.78643 297.651C-2.81642 287.472 -0.784197 277.301 1.28834 267.135C1.91596 264.056 6.89867 264.851 6.26347 267.926C4.30525 277.411 2.38095 286.9 0.511552 296.396C-0.447284 301.265 -2.98202 307.83 -2.64668 312.679C-2.29086 317.827 -3.4406 318.294 1.66009 317.411C9.5231 316.049 18.379 311.477 26.3116 309.331C35.2572 306.911 44.0741 304.424 52.6509 300.82C53.4103 300.501 53.8842 301.542 53.2313 301.977Z" fill="#308784"/>
<path d="M-69.8941 448.707C-29.2392 388.893 46.1726 358.058 96.7626 305.148C110.176 291.119 121.722 275.654 133.229 260.235C142.649 247.612 152.45 233.961 152.85 218.846C148.713 224.586 142.641 228.835 136.695 232.956C77.3604 274.082 15.7765 316.989 -19.7652 377.437C-29.0244 393.185 -36.4238 410.001 -48.1615 424.281" fill="#308784"/>
<path d="M93.6652 177V167.31H84.9652V177H82.1152V156.33H84.9652V164.97H93.6652V156.33H96.5152V177H93.6652ZM114.296 168.63C114.296 169.09 114.276 169.56 114.236 170.04H104.156C104.276 171.78 104.716 173.06 105.476 173.88C106.236 174.7 107.216 175.11 108.416 175.11C109.176 175.11 109.876 175 110.516 174.78C111.156 174.56 111.826 174.21 112.526 173.73L113.726 175.38C112.046 176.7 110.206 177.36 108.206 177.36C106.006 177.36 104.286 176.64 103.046 175.2C101.826 173.76 101.216 171.78 101.216 169.26C101.216 167.62 101.476 166.17 101.996 164.91C102.536 163.63 103.296 162.63 104.276 161.91C105.276 161.19 106.446 160.83 107.786 160.83C109.886 160.83 111.496 161.52 112.616 162.9C113.736 164.28 114.296 166.19 114.296 168.63ZM111.566 167.82C111.566 166.26 111.256 165.07 110.636 164.25C110.016 163.43 109.086 163.02 107.846 163.02C105.586 163.02 104.356 164.68 104.156 168H111.566V167.82ZM124.916 177.09C124.296 178.93 123.426 180.38 122.306 181.44C121.206 182.52 119.626 183.17 117.566 183.39L117.266 181.23C118.306 181.05 119.136 180.79 119.756 180.45C120.376 180.11 120.866 179.67 121.226 179.13C121.606 178.61 121.956 177.9 122.276 177H121.346L116.036 161.19H118.976L123.206 174.99L127.346 161.19H130.196L124.916 177.09ZM152.631 156.33L152.301 158.61H144.291V165.36H151.251V167.64H144.291V174.72H152.871V177H141.441V156.33H152.631ZM160.291 177.36C159.271 177.36 158.461 177.06 157.861 176.46C157.281 175.84 156.991 174.98 156.991 173.88V154.83L159.751 154.5V173.82C159.751 174.26 159.821 174.58 159.961 174.78C160.121 174.98 160.381 175.08 160.741 175.08C161.121 175.08 161.461 175.02 161.761 174.9L162.481 176.82C161.821 177.18 161.091 177.36 160.291 177.36ZM169.08 177.36C168.06 177.36 167.25 177.06 166.65 176.46C166.07 175.84 165.78 174.98 165.78 173.88V154.83L168.54 154.5V173.82C168.54 174.26 168.61 174.58 168.75 174.78C168.91 174.98 169.17 175.08 169.53 175.08C169.91 175.08 170.25 175.02 170.55 174.9L171.27 176.82C170.61 177.18 169.88 177.36 169.08 177.36ZM186.513 168.63C186.513 169.09 186.493 169.56 186.453 170.04H176.373C176.493 171.78 176.933 173.06 177.693 173.88C178.453 174.7 179.433 175.11 180.633 175.11C181.393 175.11 182.093 175 182.733 174.78C183.373 174.56 184.043 174.21 184.743 173.73L185.943 175.38C184.263 176.7 182.423 177.36 180.423 177.36C178.223 177.36 176.503 176.64 175.263 175.2C174.043 173.76 173.433 171.78 173.433 169.26C173.433 167.62 173.693 166.17 174.213 164.91C174.753 163.63 175.513 162.63 176.493 161.91C177.493 161.19 178.663 160.83 180.003 160.83C182.103 160.83 183.713 161.52 184.833 162.9C185.953 164.28 186.513 166.19 186.513 168.63ZM183.783 167.82C183.783 166.26 183.473 165.07 182.853 164.25C182.233 163.43 181.303 163.02 180.063 163.02C177.803 163.02 176.573 164.68 176.373 168H183.783V167.82ZM198.36 160.83C199.8 160.83 200.92 161.26 201.72 162.12C202.54 162.98 202.95 164.16 202.95 165.66V177H200.19V166.05C200.19 164.93 199.98 164.14 199.56 163.68C199.14 163.22 198.52 162.99 197.7 162.99C196.86 162.99 196.12 163.23 195.48 163.71C194.84 164.19 194.24 164.88 193.68 165.78V177H190.92V161.19H193.29L193.53 163.53C194.09 162.69 194.78 162.03 195.6 161.55C196.44 161.07 197.36 160.83 198.36 160.83ZM210.748 156.33L210.448 170.1H208.018L207.688 156.33H210.748ZM209.248 173.19C209.848 173.19 210.348 173.39 210.748 173.79C211.148 174.19 211.348 174.68 211.348 175.26C211.348 175.84 211.148 176.34 210.748 176.76C210.348 177.16 209.848 177.36 209.248 177.36C208.668 177.36 208.178 177.16 207.778 176.76C207.378 176.34 207.178 175.84 207.178 175.26C207.178 174.68 207.378 174.19 207.778 173.79C208.178 173.39 208.668 173.19 209.248 173.19Z" fill="#4267AB"/>
</svg>
