<svg width="126" height="211" viewBox="0 0 126 211" fill="none" xmlns="http://www.w3.org/2000/svg">
<path d="M-50.5438 221.471C-38.0658 191.874 -25.5882 162.277 -13.1101 132.68C3.73664 92.7206 23.8044 49.7535 77.546 26.132C88.9655 21.1125 103.655 17.0555 117.244 20.3335C91.839 93.2093 50.3806 163.451 -5.65363 228.558" fill="#266A75"/>
<path d="M107.863 28.8973C78.8091 59.4978 54.4128 92.544 28.511 124.311C3.48783 155.001 -15.34 188.424 -27.4877 222.313C-28.2105 224.329 -23.4447 225.536 -22.3609 223.508C-4.22457 189.561 8.79449 155.235 33.9786 123.018C58.4457 91.7185 87.1389 61.358 109.419 29.4092C109.795 28.8694 108.344 28.3911 107.863 28.8973Z" fill="#308784"/>
<path d="M56.6528 40.507C54.0221 45.5341 55.2281 50.5629 56.506 55.7375C58.2729 62.895 59.0058 69.9222 58.2317 77.1066C58.1179 78.166 60.1321 78.9876 61.762 78.5141C75.6717 74.4727 89.5417 69.4551 100.15 62.7742C102.005 61.6062 99.4866 59.7513 97.264 60.8022C85.1971 66.5099 73.5997 71.8352 59.5831 75.9241C60.7596 76.3935 61.9363 76.8625 63.1129 77.3315C64.3996 65.0806 58.423 53.063 60.0183 40.9316C60.1662 39.8055 57.2244 39.4161 56.6528 40.507Z" fill="#308784"/>
<path d="M34.9177 70.6065C27.1447 85.2531 32.7142 102.796 33.7951 117.971C33.8643 118.943 35.3465 119.619 36.9456 119.227C50.1019 115.997 63.1399 112.611 75.8105 108.784C78.3184 108.027 76.4031 105.719 73.8422 106.435C60.971 110.032 48.1221 113.615 35.0042 116.909C36.0546 117.328 37.1052 117.746 38.1556 118.165C36.8592 102.891 32.2576 86.1712 37.502 71.1478C37.8418 70.1745 35.4508 69.6016 34.9177 70.6065Z" fill="#308784"/>
<path d="M-3.07263 130.32C-4.51084 139.199 -5.5518 148.089 -6.62872 156.967C-7.40018 163.325 -8.32875 169.381 -5.89724 175.401C-5.59376 176.153 -4.46711 176.69 -3.23665 176.224C11.1866 170.761 26.3056 165.703 40.0124 159.353C41.5421 158.644 40.0182 157.264 38.5087 157.733C29.5692 160.512 21.089 164.057 12.4865 167.353C9.22537 168.603 5.18291 170.925 1.71664 171.473C-4.15241 172.403 -3.43274 172.097 -3.70821 167.697C-4.47319 155.48 -1.22063 142.665 -0.33987 130.344C-0.255115 129.161 -2.87597 129.109 -3.07263 130.32Z" fill="#308784"/>
</svg>
