<svg width="428" height="477" viewBox="0 0 428 477" fill="none" xmlns="http://www.w3.org/2000/svg">
<path d="M398.293 358.602C419.012 327.602 430.976 291.032 430.976 251.869C430.976 139.878 333.156 49.0918 212.488 49.0918C91.82 49.0918 -6 139.878 -6 251.869C-6 291.032 5.964 327.602 26.683 358.602H398.293Z" fill="#58E5AA"/>
<path d="M393.044 165.897C393.044 165.897 392.439 171.424 387.74 171.807C392.439 172.189 393.044 177.715 393.044 177.715C393.044 177.715 393.648 172.189 398.347 171.807C393.648 171.424 393.044 165.897 393.044 165.897Z" fill="white"/>
<path d="M151.841 83.2416C151.841 83.2416 151.432 86.9887 148.246 87.2476C151.432 87.5065 151.841 91.2536 151.841 91.2536C151.841 91.2536 152.25 87.5065 155.436 87.2476C152.25 86.9887 151.841 83.2416 151.841 83.2416Z" fill="white"/>
<path d="M400.4 257.461C400.4 257.461 399.976 261.336 396.681 261.604C399.976 261.872 400.4 265.747 400.4 265.747C400.4 265.747 400.823 261.872 404.117 261.604C400.823 261.336 400.4 257.461 400.4 257.461Z" fill="white"/>
<path d="M356.09 220.287C358.597 220.287 358.601 216.67 356.09 216.67C353.584 216.67 353.58 220.287 356.09 220.287Z" fill="white"/>
<path d="M307.924 242.778C309.178 242.778 309.18 240.971 307.924 240.971C306.67 240.971 306.668 242.778 307.924 242.778Z" fill="white"/>
<path d="M382.2 202.67C383.454 202.67 383.456 200.862 382.2 200.862C380.946 200.862 380.944 202.67 382.2 202.67Z" fill="white"/>
<path d="M342.586 160.892C343.84 160.892 343.842 159.085 342.586 159.085C341.332 159.085 341.33 160.892 342.586 160.892Z" fill="white"/>
<path d="M130.114 110.759C131.367 110.759 131.37 108.951 130.114 108.951C128.861 108.951 128.858 110.759 130.114 110.759Z" fill="white"/>
<path d="M168.377 134.64C170.883 134.64 170.888 131.025 168.377 131.025C165.87 131.025 165.866 134.64 168.377 134.64Z" fill="white"/>
<path d="M170.178 105.745C171.432 105.745 171.434 103.938 170.178 103.938C168.925 103.938 168.922 105.745 170.178 105.745Z" fill="white"/>
<path d="M131.465 86.945C132.718 86.945 132.721 85.1368 131.465 85.1368C130.211 85.1368 130.209 86.945 131.465 86.945Z" fill="white"/>
<path d="M116.61 86.4935C117.236 86.4935 117.238 85.5902 116.61 85.5902C115.983 85.5902 115.982 86.4935 116.61 86.4935Z" fill="white"/>
<path d="M54.039 166.707C54.666 166.707 54.6669 165.803 54.039 165.803C53.412 165.803 53.411 166.707 54.039 166.707Z" fill="white"/>
<path d="M90.9512 163.434C92.8312 163.434 92.8341 160.722 90.9512 160.722C89.0711 160.722 89.0682 163.434 90.9512 163.434Z" fill="white"/>
<path d="M17.5761 214.368C18.8301 214.368 18.8321 212.56 17.5761 212.56C16.3231 212.56 16.3202 214.368 17.5761 214.368Z" fill="white"/>
<path d="M335.384 108.128C338.205 108.128 338.21 104.06 335.384 104.06C332.563 104.06 332.559 108.128 335.384 108.128Z" fill="white"/>
<path d="M284.517 77.3704C286.398 77.3704 286.401 74.6589 284.517 74.6589C282.638 74.6589 282.634 77.3704 284.517 77.3704Z" fill="white"/>
<path d="M239.051 88.1986C240.305 88.1986 240.307 86.3904 239.051 86.3904C237.797 86.3904 237.795 88.1986 239.051 88.1986Z" fill="white"/>
<path d="M317.828 95.0745C318.768 95.0745 318.769 93.7196 317.828 93.7196C316.887 93.7196 316.886 95.0745 317.828 95.0745Z" fill="white"/>
<path d="M357.441 117.217C358.382 117.217 358.383 115.862 357.441 115.862C356.501 115.862 356.5 117.217 357.441 117.217Z" fill="white"/>
<path d="M319.621 159.413C320.56 159.418 320.574 158.061 319.635 158.057C318.696 158.052 318.682 159.409 319.621 159.413Z" fill="white"/>
<path d="M158.917 161.921C159.856 161.926 159.87 160.567 158.931 160.563C157.992 160.558 157.978 161.917 158.917 161.921Z" fill="white"/>
<path d="M248.113 358.236C248.113 358.236 211.964 322.491 190.589 316.872C169.215 311.251 189.194 333.265 189.194 333.265C189.194 333.265 151.507 300.02 137.528 302.934C124.714 305.605 137.298 326.161 137.298 326.161C137.298 326.161 123.008 314.743 105.542 314.66C88.0761 314.576 118.62 357.219 118.62 357.219L248.113 358.236Z" fill="#308784"/>
<path d="M136.581 357.67C136.581 357.67 105.533 300.378 76.6503 305.967C53.2439 310.495 74.2376 340.232 72.8247 339.091C71.4118 337.952 62.6802 323.912 42.4083 323.816C22.1355 323.719 48.405 346.665 48.405 346.665C48.405 346.665 5.31955 335.73 1.82468 346.98C-1.07526 356.316 14.6157 357.09 14.6157 357.09L136.581 357.67Z" fill="#266A75"/>
<path d="M177.638 357.531C177.638 357.531 211.144 322.645 232.627 317.23C254.11 311.814 233.696 333.631 233.696 333.631C233.696 333.631 272.037 300.754 285.956 303.8C298.716 306.593 278.398 346.091 278.398 346.091C278.398 346.091 293.513 314.838 310.978 314.921C328.443 315.004 303.785 358.251 303.785 358.251L177.638 357.531Z" fill="#308784"/>
<path d="M284.32 357.701C284.32 357.701 308.09 308.274 336.864 314.139C360.181 318.893 343.324 343.739 344.76 342.614C346.194 341.487 358.893 324.627 379.168 324.724C399.442 324.821 372.716 347.528 372.716 347.528C372.716 347.528 416.019 336.999 419.292 348.287C422.005 357.656 406.3 358.282 406.3 358.282L284.32 357.701Z" fill="#266A75"/>
<path d="M52.7391 313.237C53.5851 319.362 57.2334 324.941 59.6561 330.696C66.1387 346.094 66.7669 357.714 67.3541 359.015C67.4123 359.145 67.6202 359.128 67.6483 358.989C67.8851 357.801 66.6954 349.415 63.9792 340.656C59.4619 326.094 54.2776 320.321 52.9876 313.189C52.9638 313.055 52.721 313.108 52.7391 313.237Z" fill="#466DB6"/>
<path d="M61.7807 326.137C61.4682 326.215 60.482 326.305 59.7401 326.781C58.9735 327.193 58.4521 327.993 58.4944 327.98C58.5212 328.02 58.3106 327.126 58.8343 326.261C59.2651 325.386 60.4303 324.535 61.0905 324.432C62.4022 324.081 63.4954 324.666 63.3389 325.146C63.1971 325.632 62.4526 325.937 61.7807 326.137Z" fill="#466DB6"/>
<path d="M63.1963 329.15C62.8837 329.228 61.8976 329.318 61.1556 329.795C60.389 330.207 59.8666 331.006 59.9099 330.993C59.9367 331.034 59.7261 330.141 60.2498 329.275C60.6806 328.399 61.8458 327.549 62.5061 327.445C63.8177 327.094 64.911 327.678 64.7545 328.159C64.6127 328.645 63.8682 328.95 63.1963 329.15Z" fill="#466DB6"/>
<path d="M49.9915 318.278C50.3983 318.305 51.6366 318.199 52.6948 318.623C53.7633 318.96 54.6507 319.826 54.5953 319.82C54.5737 319.875 54.5536 318.733 53.6433 317.785C52.8421 316.804 51.1486 316.016 50.3068 316.034C48.588 315.89 47.4306 316.848 47.7729 317.403C48.0977 317.969 49.1046 318.18 49.9915 318.278Z" fill="#466DB6"/>
<path d="M52.001 322.504C52.4077 322.531 53.646 322.424 54.7033 322.848C55.7718 323.185 56.6592 324.051 56.6037 324.046C56.5831 324.101 56.562 322.959 55.6517 322.011C54.8505 321.03 53.159 320.242 52.3162 320.259C50.5984 320.115 49.4411 321.072 49.7823 321.628C50.1071 322.193 51.114 322.405 52.001 322.504Z" fill="#466DB6"/>
<path d="M26.4609 310.37C27.4901 310.906 28.4225 311.619 29.3546 312.257C34.4251 315.732 39.5779 319.101 46.4651 326.088C55.6759 335.428 62.3821 345.946 66.2291 357.346C66.3676 357.754 67.169 357.601 67.0286 357.191C64.522 349.855 60.8027 342.807 56.0133 336.265C43.0726 318.588 26.2795 310.275 26.4609 310.37Z" fill="#466DB6"/>
<path d="M34.7521 310.935C34.5414 311.245 33.691 312.084 33.5325 313.105C33.2719 314.083 33.7032 315.244 33.73 315.2C33.8038 315.216 32.5547 314.523 32.0469 313.297C31.4379 312.131 31.5702 310.433 32.0868 309.83C32.9446 308.494 34.6858 308.22 35.0981 308.799C35.5304 309.372 35.1675 310.231 34.7521 310.935Z" fill="#466DB6"/>
<path d="M46.4821 320.93C46.319 321.258 45.6015 322.167 45.5933 323.192C45.4797 324.182 46.0752 325.288 46.0951 325.242C46.1702 325.252 44.8338 324.686 44.1517 323.524C43.3799 322.429 43.2612 320.739 43.6841 320.095C44.338 318.692 46.0193 318.255 46.511 318.787C47.0227 319.312 46.7905 320.195 46.4821 320.93Z" fill="#466DB6"/>
<path d="M29.385 317.104C29.653 316.854 30.2823 315.987 31.3361 315.542C32.3099 315.041 33.71 314.964 33.6706 314.997C33.7142 315.043 32.5534 314.394 31.0594 314.438C29.5976 314.392 27.8006 315.038 27.3175 315.598C26.1513 316.636 26.4241 317.944 27.1856 318.043C27.9473 318.16 28.7585 317.625 29.385 317.104Z" fill="#466DB6"/>
<path d="M36.5847 322.749C36.8526 322.499 37.4841 321.63 38.5378 321.185C39.5117 320.684 40.9097 320.608 40.8703 320.641C40.9139 320.685 39.7541 320.037 38.2591 320.082C36.7973 320.036 35.0003 320.682 34.5172 321.241C33.351 322.279 33.6237 323.588 34.3853 323.687C35.1469 323.804 35.9582 323.269 36.5847 322.749Z" fill="#466DB6"/>
<path d="M45.6947 331.386C45.9627 331.136 46.5941 330.267 47.6479 329.822C48.6217 329.321 50.0198 329.244 49.9804 329.277C50.0239 329.323 48.8642 328.674 47.3692 328.719C45.9073 328.673 44.1093 329.32 43.6253 329.879C42.4601 330.917 42.7338 332.226 43.4953 332.325C44.257 332.442 45.0683 331.907 45.6947 331.386Z" fill="#466DB6"/>
<path d="M25.197 312.469C25.4064 312.342 25.9449 311.86 26.6794 311.692C27.3722 311.48 28.262 311.58 28.2324 311.597C28.2517 311.63 27.6299 311.097 26.6848 310.966C25.7751 310.781 24.5411 310.997 24.1459 311.298C23.2444 311.828 23.2009 312.683 23.6632 312.827C24.122 312.982 24.718 312.732 25.197 312.469Z" fill="#466DB6"/>
<path d="M27.3019 309.098C27.2809 309.307 27.0732 309.924 27.2947 310.504C27.4494 311.079 28.0331 311.618 28.0345 311.59C28.0792 311.584 27.1921 311.458 26.5461 310.9C25.8641 310.393 25.4232 309.454 25.5218 309.03C25.5845 308.144 26.4473 307.654 26.8457 307.884C27.2524 308.106 27.3153 308.638 27.3019 309.098Z" fill="#466DB6"/>
<path d="M331.471 315.909C325.56 329.365 322.48 343.641 322.488 358.174L321.821 358.157C321.878 343.916 324.918 329.672 330.819 316.232C332.19 313.107 333.591 309.446 337.275 307.621C337.346 307.585 337.401 307.675 337.333 307.711C334.011 309.531 332.754 312.988 331.471 315.909Z" fill="#466DB6"/>
<path d="M330.094 308.54C330.415 308.778 331.543 309.345 332.088 310.268C332.711 311.124 332.751 312.335 332.708 312.3C332.646 312.336 333.562 311.349 333.572 310.055C333.698 308.792 332.919 307.222 332.196 306.789C330.866 305.754 329.108 305.956 328.941 306.613C328.752 307.269 329.428 307.985 330.094 308.54Z" fill="#466DB6"/>
<path d="M335.411 318.582C335.002 318.447 333.875 317.856 332.591 317.848C331.35 317.753 329.951 318.242 330.008 318.258C329.994 318.32 330.729 317.222 332.201 316.663C333.589 316.03 335.713 315.935 336.513 316.284C338.259 316.822 338.775 318.205 338.098 318.609C337.431 319.028 336.327 318.835 335.411 318.582Z" fill="#466DB6"/>
<path d="M333.36 323.771C332.952 323.636 331.826 323.046 330.54 323.038C329.3 322.943 327.902 323.431 327.959 323.447C327.945 323.509 328.68 322.412 330.151 321.852C331.539 321.219 333.664 321.125 334.464 321.474C336.21 322.014 336.726 323.396 336.049 323.799C335.381 324.219 334.278 324.025 333.36 323.771Z" fill="#466DB6"/>
<path d="M326.857 314.579C327.221 314.774 328.451 315.19 329.171 316.031C329.957 316.796 330.233 317.986 330.184 317.959C330.131 318.002 330.845 316.912 330.6 315.633C330.479 314.369 329.397 312.919 328.596 312.584C327.075 311.731 325.375 312.154 325.337 312.823C325.279 313.495 326.088 314.115 326.857 314.579Z" fill="#466DB6"/>
<path d="M323.378 320.677C323.849 320.777 325.404 320.822 326.389 321.562C327.443 322.187 327.926 323.507 327.862 323.489C327.801 323.562 328.542 322.001 328.086 320.565C327.783 319.104 326.283 317.769 325.262 317.663C323.298 317.202 321.27 318.33 321.306 319.141C321.316 319.962 322.382 320.407 323.378 320.677Z" fill="#466DB6"/>
<path d="M320.43 329.492C320.915 329.525 322.461 329.361 323.59 329.958C324.762 330.431 325.516 331.664 325.45 331.656C325.404 331.736 325.81 330.095 325.06 328.743C324.454 327.343 322.692 326.232 321.661 326.266C319.624 326.078 317.853 327.463 318.058 328.257C318.24 329.067 319.388 329.36 320.43 329.492Z" fill="#466DB6"/>
<path d="M339.288 308.816C339.054 308.721 338.419 308.332 337.66 308.282C336.931 308.182 336.079 308.422 336.111 308.434C336.1 308.47 336.593 307.846 337.494 307.569C338.348 307.242 339.609 307.262 340.064 307.496C341.066 307.875 341.297 308.713 340.875 308.928C340.456 309.153 339.815 308.997 339.288 308.816Z" fill="#466DB6"/>
<path d="M336.435 305.814C336.501 306.016 336.838 306.59 336.749 307.193C336.723 307.783 336.269 308.403 336.262 308.375C336.216 308.377 337.056 308.113 337.566 307.463C338.122 306.86 338.349 305.872 338.16 305.469C337.905 304.61 336.956 304.263 336.617 304.551C336.267 304.833 336.322 305.365 336.435 305.814Z" fill="#466DB6"/>
<path d="M324.914 358.326C332.403 345.002 342.361 332.145 355.061 320.245C355.187 320.126 355.445 320.302 355.318 320.423C343.308 331.855 333.354 344.603 325.75 358.357L324.914 358.326Z" fill="#466DB6"/>
<path d="M349.139 332.46C348.735 332.319 347.624 331.708 346.341 331.685C345.105 331.573 343.697 332.049 343.754 332.066C343.739 332.128 344.498 331.031 345.98 330.487C347.381 329.866 349.504 329.797 350.295 330.159C352.026 330.724 352.508 332.123 351.822 332.521C351.147 332.935 350.049 332.727 349.139 332.46Z" fill="#466DB6"/>
<path d="M354.168 327.072C353.763 326.931 352.652 326.323 351.37 326.299C350.133 326.187 348.725 326.662 348.781 326.678C348.766 326.74 349.526 325.644 351.009 325.099C352.41 324.478 354.532 324.411 355.323 324.771C357.054 325.337 357.535 326.736 356.85 327.135C356.174 327.549 355.077 327.34 354.168 327.072Z" fill="#466DB6"/>
<path d="M338.158 332.242C338.527 332.348 339.78 332.473 340.508 333.131C341.305 333.7 341.576 334.803 341.527 334.785C341.47 334.84 342.211 333.609 341.971 332.415C341.858 331.205 340.766 330.033 339.951 329.889C338.404 329.403 336.662 330.209 336.619 330.872C336.553 331.543 337.376 331.965 338.158 332.242Z" fill="#466DB6"/>
<path d="M357.439 321.884C357.208 321.786 356.583 321.386 355.827 321.325C355.102 321.216 354.245 321.446 354.278 321.459C354.265 321.495 354.772 320.873 355.678 320.604C356.538 320.286 357.797 320.322 358.245 320.564C359.237 320.96 359.448 321.805 359.021 322.016C358.599 322.237 357.962 322.074 357.439 321.884Z" fill="#466DB6"/>
<path d="M354.257 318.874C354.338 319.072 354.717 319.626 354.674 320.233C354.694 320.823 354.293 321.466 354.283 321.438C354.238 321.443 355.05 321.136 355.505 320.46C356.011 319.827 356.158 318.826 355.94 318.436C355.621 317.59 354.653 317.296 354.339 317.601C354.014 317.901 354.109 318.432 354.257 318.874Z" fill="#466DB6"/>
<path d="M425.246 356.533H-0.270142C-1.19914 356.533 -1.95215 357.293 -1.95215 358.231C-1.95215 359.168 -1.19914 359.93 -0.270142 359.93H425.246C426.175 359.93 426.928 359.168 426.928 358.231C426.928 357.293 426.175 356.533 425.246 356.533Z" fill="#1AC8C3"/>
<path d="M346.729 199.209L347.838 202.143C348.45 203.764 350.16 204.767 351.657 204.385L351.792 204.351C353.289 203.969 354.006 202.346 353.394 200.725L352.285 197.791C351.673 196.17 349.963 195.166 348.466 195.547L348.331 195.582C346.834 195.964 346.117 197.588 346.729 199.209ZM347.949 198.897C347.613 198.007 348.008 197.113 348.83 196.903L348.966 196.868C349.787 196.659 350.73 197.211 351.066 198.102L352.175 201.036C352.511 201.926 352.115 202.821 351.293 203.031L351.158 203.065C350.336 203.275 349.394 202.721 349.058 201.832L347.949 198.897Z" fill="#355288"/>
<path d="M353.707 210.194C354.032 210.108 354.202 209.783 354.088 209.469L351.361 201.95C351.247 201.636 350.892 201.45 350.567 201.536C350.243 201.623 350.071 201.949 350.185 202.263L352.912 209.782C353.026 210.096 353.383 210.281 353.707 210.194Z" fill="#355288"/>
<path d="M342.579 187.408L343.688 190.342C344.3 191.963 346.009 192.966 347.507 192.584L347.642 192.55C349.138 192.168 349.855 190.545 349.243 188.924L348.135 185.99C347.522 184.368 345.812 183.365 344.316 183.746L344.181 183.781C342.684 184.163 341.966 185.786 342.579 187.408ZM343.799 187.096C343.462 186.206 343.857 185.311 344.68 185.101L344.815 185.067C345.636 184.857 346.579 185.41 346.916 186.301L348.024 189.235C348.36 190.125 347.964 191.019 347.143 191.229L347.008 191.263C346.185 191.473 345.243 190.92 344.907 190.031L343.799 187.096Z" fill="#355288"/>
<path d="M349.557 198.394C349.881 198.308 350.052 197.982 349.938 197.668L347.211 190.15C347.097 189.835 346.741 189.65 346.417 189.736C346.093 189.822 345.92 190.148 346.034 190.463L348.761 197.981C348.875 198.295 349.233 198.48 349.557 198.394Z" fill="#355288"/>
<path d="M338.428 175.606L339.537 178.542C340.149 180.162 341.859 181.166 343.356 180.784L343.491 180.75C344.988 180.368 345.705 178.745 345.093 177.124L343.984 174.189C343.372 172.568 341.662 171.564 340.166 171.946L340.031 171.981C338.533 172.363 337.816 173.986 338.428 175.606ZM339.648 175.295C339.312 174.405 339.707 173.511 340.529 173.301L340.664 173.266C341.486 173.057 342.429 173.609 342.765 174.5L343.874 177.435C344.21 178.325 343.814 179.219 342.992 179.429L342.857 179.463C342.035 179.673 341.093 179.12 340.757 178.23L339.648 175.295Z" fill="#355288"/>
<path d="M345.406 186.593C345.73 186.507 345.901 186.182 345.787 185.868L343.06 178.349C342.946 178.035 342.591 177.85 342.266 177.936C341.942 178.022 341.77 178.348 341.884 178.662L344.611 186.181C344.725 186.495 345.082 186.679 345.406 186.593Z" fill="#355288"/>
<path d="M334.278 163.806L335.387 166.741C335.999 168.361 337.709 169.365 339.206 168.983L339.341 168.949C340.837 168.567 341.555 166.944 340.942 165.323L339.834 162.389C339.222 160.768 337.512 159.763 336.015 160.145L335.88 160.18C334.383 160.562 333.666 162.185 334.278 163.806ZM335.498 163.495C335.162 162.605 335.556 161.71 336.379 161.5L336.514 161.465C337.336 161.256 338.279 161.809 338.615 162.7L339.723 165.634C340.06 166.524 339.664 167.419 338.842 167.628L338.707 167.663C337.885 167.873 336.943 167.319 336.607 166.429L335.498 163.495Z" fill="#355288"/>
<path d="M341.256 174.793C341.581 174.707 341.751 174.382 341.637 174.068L338.91 166.549C338.796 166.235 338.441 166.05 338.117 166.136C337.792 166.222 337.62 166.547 337.734 166.862L340.461 174.381C340.575 174.695 340.932 174.879 341.256 174.793Z" fill="#355288"/>
<path d="M330.128 152.006L331.236 154.94C331.849 156.561 333.558 157.565 335.056 157.183L335.191 157.148C336.687 156.767 337.404 155.144 336.792 153.523L335.683 150.589C335.071 148.968 333.361 147.963 331.865 148.345L331.73 148.379C330.232 148.761 329.516 150.385 330.128 152.006ZM331.348 151.695C331.011 150.804 331.406 149.91 332.229 149.7L332.364 149.665C333.185 149.456 334.128 150.008 334.465 150.9L335.573 153.834C335.909 154.724 335.514 155.619 334.692 155.828L334.557 155.863C333.734 156.073 332.792 155.519 332.456 154.629L331.348 151.695Z" fill="#355288"/>
<path d="M337.105 162.992C337.43 162.906 337.6 162.581 337.486 162.267L334.76 154.748C334.646 154.434 334.29 154.249 333.966 154.335C333.641 154.421 333.469 154.747 333.583 155.061L336.31 162.58C336.424 162.894 336.781 163.078 337.105 162.992Z" fill="#355288"/>
<path d="M325.945 140.112L327.053 143.047C327.666 144.668 329.375 145.671 330.872 145.289L331.008 145.255C332.504 144.873 333.221 143.25 332.609 141.629L331.5 138.695C330.888 137.074 329.178 136.069 327.682 136.451L327.547 136.486C326.049 136.868 325.332 138.492 325.945 140.112ZM327.165 139.801C326.828 138.911 327.223 138.016 328.045 137.806L328.181 137.772C329.002 137.562 329.945 138.115 330.281 139.006L331.39 141.94C331.726 142.83 331.33 143.725 330.509 143.935L330.374 143.969C329.551 144.179 328.609 143.625 328.273 142.735L327.165 139.801Z" fill="#355288"/>
<path d="M332.922 151.098C333.247 151.012 333.417 150.687 333.303 150.373L330.576 142.854C330.462 142.54 330.107 142.355 329.783 142.441C329.458 142.527 329.286 142.853 329.4 143.167L332.127 150.686C332.241 151 332.598 151.185 332.922 151.098Z" fill="#355288"/>
<path d="M321.795 128.312L322.903 131.247C323.516 132.867 325.225 133.871 326.723 133.489L326.858 133.455C328.354 133.073 329.071 131.45 328.459 129.829L327.35 126.895C326.738 125.274 325.028 124.269 323.532 124.651L323.397 124.686C321.899 125.068 321.183 126.691 321.795 128.312ZM323.015 128.001C322.678 127.111 323.073 126.216 323.895 126.006L324.031 125.971C324.852 125.762 325.795 126.315 326.132 127.206L327.24 130.14C327.576 131.03 327.181 131.925 326.359 132.134L326.224 132.169C325.401 132.379 324.459 131.825 324.123 130.935L323.015 128.001Z" fill="#355288"/>
<path d="M328.772 139.298C329.097 139.212 329.267 138.887 329.153 138.573L326.427 131.054C326.313 130.74 325.957 130.555 325.633 130.641C325.308 130.727 325.136 131.053 325.25 131.367L327.977 138.886C328.091 139.2 328.448 139.384 328.772 139.298Z" fill="#355288"/>
<path d="M317.644 116.511L318.753 119.445C319.365 121.066 321.075 122.07 322.572 121.688L322.707 121.654C324.204 121.272 324.921 119.649 324.309 118.028L323.2 115.094C322.588 113.473 320.878 112.468 319.381 112.85L319.246 112.885C317.749 113.267 317.032 114.89 317.644 116.511ZM318.864 116.2C318.528 115.31 318.923 114.415 319.745 114.205L319.88 114.17C320.702 113.961 321.645 114.514 321.981 115.405L323.09 118.339C323.426 119.229 323.03 120.124 322.208 120.333L322.073 120.368C321.251 120.578 320.309 120.024 319.973 119.134L318.864 116.2Z" fill="#355288"/>
<path d="M324.622 127.498C324.946 127.412 325.117 127.087 325.003 126.773L322.276 119.254C322.162 118.94 321.807 118.755 321.482 118.841C321.158 118.927 320.986 119.252 321.099 119.567L323.826 127.086C323.94 127.4 324.298 127.584 324.622 127.498Z" fill="#355288"/>
<path d="M313.494 104.711L314.603 107.645C315.215 109.266 316.924 110.27 318.422 109.888L318.557 109.853C320.053 109.472 320.77 107.849 320.158 106.228L319.05 103.294C318.437 101.673 316.727 100.668 315.231 101.05L315.096 101.084C313.599 101.466 312.882 103.09 313.494 104.711ZM314.714 104.4C314.377 103.509 314.772 102.615 315.595 102.405L315.73 102.37C316.551 102.161 317.494 102.714 317.831 103.605L318.939 106.539C319.275 107.428 318.88 108.324 318.058 108.533L317.923 108.568C317.1 108.778 316.158 108.224 315.822 107.334L314.714 104.4Z" fill="#355288"/>
<path d="M320.472 115.697C320.796 115.611 320.967 115.286 320.853 114.972L318.126 107.453C318.012 107.139 317.656 106.954 317.332 107.04C317.008 107.126 316.835 107.451 316.949 107.766L319.676 115.284C319.79 115.599 320.147 115.783 320.472 115.697Z" fill="#355288"/>
<path d="M309.344 92.9109L310.452 95.8452C311.065 97.466 312.774 98.4698 314.271 98.0878L314.406 98.0533C315.903 97.6715 316.62 96.0485 316.008 94.4277L314.899 91.4934C314.287 89.8726 312.577 88.8679 311.081 89.2497L310.946 89.2842C309.448 89.6662 308.731 91.2901 309.344 92.9109ZM310.563 92.5997C310.227 91.7083 310.622 90.8143 311.444 90.6045L311.579 90.57C312.401 90.3604 313.344 90.913 313.68 91.8044L314.789 94.7386C315.125 95.6283 314.729 96.5234 313.908 96.733L313.773 96.7675C312.95 96.9774 312.008 96.4236 311.672 95.5339L310.563 92.5997Z" fill="#355288"/>
<path d="M316.321 103.897C316.646 103.811 316.816 103.486 316.702 103.172L313.975 95.6528C313.861 95.3386 313.506 95.1536 313.181 95.2398C312.857 95.326 312.685 95.6513 312.799 95.9655L315.526 103.484C315.64 103.799 315.997 103.983 316.321 103.897Z" fill="#355288"/>
<path d="M305.193 81.11L306.302 84.0443C306.914 85.6651 308.624 86.6689 310.121 86.2869L310.256 86.2524C311.752 85.8706 312.47 84.2476 311.857 82.6267L310.749 79.6925C310.137 78.0717 308.427 77.067 306.93 77.4488L306.795 77.4833C305.298 77.8653 304.581 79.4892 305.193 81.11ZM306.413 80.7988C306.077 79.9083 306.471 79.0134 307.294 78.8036L307.429 78.7691C308.251 78.5595 309.194 79.113 309.53 80.0035L310.639 82.9377C310.975 83.8274 310.579 84.7225 309.757 84.9321L309.622 84.9666C308.8 85.1764 307.858 84.6227 307.522 83.733L306.413 80.7988Z" fill="#355288"/>
<path d="M312.171 92.096C312.495 92.0098 312.666 91.6849 312.552 91.3707L309.825 83.8517C309.711 83.5375 309.355 83.3525 309.031 83.4387C308.707 83.5249 308.534 83.8503 308.648 84.1645L311.375 91.6834C311.489 91.9976 311.847 92.1822 312.171 92.096Z" fill="#355288"/>
<path d="M301.043 69.309L302.151 72.2432C302.764 73.8641 304.473 74.8679 305.971 74.4858L306.106 74.4513C307.602 74.0696 308.319 72.4466 307.707 70.8257L306.598 67.8915C305.986 66.2706 304.276 65.266 302.78 65.6478L302.645 65.6823C301.147 66.0643 300.431 67.6881 301.043 69.309ZM302.263 68.9978C301.926 68.1073 302.321 67.2124 303.144 67.0025L303.279 66.9681C304.1 66.7584 305.043 67.312 305.38 68.2025L306.488 71.1367C306.824 72.0264 306.429 72.9214 305.607 73.1311L305.472 73.1656C304.649 73.3754 303.707 72.8217 303.371 71.932L302.263 68.9978Z" fill="#355288"/>
<path d="M308.021 80.2958C308.345 80.2096 308.516 79.8847 308.402 79.5705L305.675 72.0516C305.561 71.7374 305.206 71.5524 304.881 71.6386C304.557 71.7248 304.384 72.0501 304.498 72.3643L307.225 79.8833C307.339 80.1975 307.697 80.382 308.021 80.2958Z" fill="#355288"/>
<path d="M296.893 57.5088L298.001 60.4431C298.613 62.0639 300.323 63.0677 301.82 62.6857L301.955 62.6512C303.452 62.2694 304.169 60.6464 303.557 59.0256L302.448 56.0913C301.836 54.4705 300.126 53.4658 298.63 53.8476L298.494 53.8821C296.997 54.2641 296.28 55.888 296.893 57.5088ZM298.112 57.1976C297.776 56.3071 298.171 55.4122 298.993 55.2024L299.128 55.1679C299.95 54.9583 300.893 55.5118 301.229 56.4023L302.338 59.3365C302.674 60.2262 302.278 61.1213 301.457 61.3309L301.321 61.3654C300.499 61.5753 299.557 61.0215 299.221 60.1318L298.112 57.1976Z" fill="#355288"/>
<path d="M303.87 68.4948C304.194 68.4086 304.365 68.0837 304.251 67.7695L301.524 60.2505C301.41 59.9363 301.055 59.7513 300.73 59.8375C300.406 59.9237 300.234 60.2491 300.348 60.5633L303.074 68.0822C303.188 68.3964 303.546 68.581 303.87 68.4948Z" fill="#355288"/>
<path d="M292.71 45.6159L293.818 48.5501C294.431 50.171 296.14 51.1747 297.638 50.7927L297.773 50.7582C299.269 50.3764 299.986 48.7535 299.374 47.1326L298.265 44.1984C297.653 42.5775 295.943 41.5729 294.447 41.9547L294.312 41.9892C292.814 42.3712 292.098 43.995 292.71 45.6159ZM293.93 45.3047C293.593 44.4133 293.988 43.5193 294.811 43.3094L294.946 43.275C295.767 43.0653 296.71 43.618 297.047 44.5094L298.155 47.4436C298.491 48.3333 298.096 49.2283 297.274 49.438L297.139 49.4724C296.316 49.6823 295.374 49.1285 295.038 48.2389L293.93 45.3047Z" fill="#355288"/>
<path d="M299.687 56.6019C300.012 56.5157 300.182 56.1909 300.068 55.8767L297.342 48.3577C297.228 48.0435 296.872 47.8585 296.548 47.9447C296.223 48.0309 296.051 48.3562 296.165 48.6704L298.892 56.1894C299.006 56.5036 299.363 56.6881 299.687 56.6019Z" fill="#355288"/>
<path d="M288.56 33.8149L289.668 36.7491C290.28 38.3699 291.99 39.3737 293.487 38.9917L293.622 38.9572C295.119 38.5754 295.836 36.9524 295.224 35.3316L294.115 32.3973C293.503 30.7765 291.793 29.7719 290.296 30.1537L290.161 30.1881C288.664 30.5702 287.947 32.194 288.56 33.8149ZM289.779 33.5036C289.443 32.6131 289.838 31.7183 290.66 31.5084L290.795 31.4739C291.617 31.2643 292.56 31.8178 292.896 32.7083L294.005 35.6426C294.341 36.5322 293.945 37.4273 293.124 37.6369L292.988 37.6714C292.166 37.8813 291.224 37.3275 290.888 36.4379L289.779 33.5036Z" fill="#355288"/>
<path d="M295.537 44.8009C295.861 44.7147 296.032 44.3899 295.918 44.0757L293.191 36.5567C293.077 36.2425 292.722 36.0575 292.397 36.1437C292.073 36.2299 291.901 36.5552 292.015 36.8694L294.741 44.3884C294.855 44.7026 295.213 44.8871 295.537 44.8009Z" fill="#355288"/>
<path d="M284.409 22.014L285.517 24.9482C286.129 26.569 287.839 27.5728 289.336 27.1908L289.471 27.1563C290.968 26.7745 291.685 25.1515 291.073 23.5307L289.964 20.5964C289.352 18.9756 287.642 17.971 286.146 18.3527L286.01 18.3872C284.513 18.7693 283.796 20.3931 284.409 22.014ZM285.628 21.7027C285.292 20.8122 285.687 19.9174 286.509 19.7075L286.644 19.673C287.466 19.4634 288.409 20.0169 288.745 20.9074L289.854 23.8417C290.19 24.7313 289.794 25.6264 288.973 25.836L288.838 25.8705C288.015 26.0804 287.073 25.5266 286.737 24.637L285.628 21.7027Z" fill="#355288"/>
<path d="M291.386 32.9999C291.71 32.9137 291.881 32.5888 291.767 32.2746L289.041 24.7565C288.927 24.4423 288.571 24.2565 288.246 24.3427C287.922 24.4289 287.75 24.755 287.864 25.0692L290.591 32.5874C290.704 32.9016 291.062 33.0861 291.386 32.9999Z" fill="#355288"/>
<path d="M280.259 10.2138L281.367 13.148C281.98 14.7689 283.689 15.7726 285.186 15.3906L285.322 15.3561C286.818 14.9743 287.535 13.3514 286.923 11.7305L285.814 8.79627C285.202 7.17543 283.492 6.17078 281.996 6.55258L281.861 6.58706C280.363 6.96908 279.646 8.59293 280.259 10.2138ZM281.478 9.90256C281.142 9.01204 281.537 8.1172 282.359 7.90733L282.494 7.87285C283.316 7.66321 284.259 8.21675 284.595 9.10726L285.704 12.0415C286.04 12.9312 285.644 13.8262 284.823 14.0359L284.688 14.0703C283.865 14.2802 282.923 13.7264 282.587 12.8368L281.478 9.90256Z" fill="#355288"/>
<path d="M287.236 21.1997C287.561 21.1135 287.731 20.7887 287.617 20.4745L284.89 12.9555C284.776 12.6413 284.421 12.4563 284.097 12.5425C283.772 12.6287 283.6 12.954 283.714 13.2682L286.441 20.7872C286.555 21.1014 286.912 21.2859 287.236 21.1997Z" fill="#355288"/>
<path d="M279.952 2.58594L282.262 8.92168C282.39 9.27188 282.758 9.48614 283.083 9.40011C283.408 9.31409 283.569 8.96024 283.441 8.61004L281.131 2.27429L279.952 2.58594Z" fill="#355288"/>
<path d="M276.108 -1.58724L277.216 1.34699C277.829 2.96784 279.538 3.97162 281.036 3.58959L281.171 3.55511C282.667 3.17332 283.384 1.55033 282.772 -0.070519L281.663 -3.00475C281.051 -4.6256 279.341 -5.63024 277.845 -5.24845L277.71 -5.21397C276.212 -4.83194 275.496 -3.20809 276.108 -1.58724ZM277.328 -1.89847C276.991 -2.78899 277.386 -3.68382 278.208 -3.89369L278.344 -3.92817C279.165 -4.13781 280.108 -3.58428 280.445 -2.69376L281.553 0.240472C281.889 1.13013 281.494 2.0252 280.672 2.23484L280.537 2.26932C279.714 2.47919 278.772 1.92542 278.436 1.03577L277.328 -1.89847Z" fill="#355288"/>
<path d="M283.086 9.39955C283.41 9.31335 283.581 8.98849 283.467 8.67429L280.74 1.15533C280.626 0.841119 280.27 0.656131 279.946 0.742329C279.622 0.828527 279.449 1.15385 279.563 1.46806L282.29 8.98702C282.404 9.30122 282.762 9.48575 283.086 9.39955Z" fill="#355288"/>
<path d="M191.803 21.518L192.911 24.4522C193.523 26.0731 195.233 27.0768 196.73 26.6948L196.865 26.6603C198.362 26.2785 199.079 24.6556 198.467 23.0347L197.358 20.1005C196.746 18.4796 195.036 17.475 193.54 17.8568L193.405 17.8913C191.907 18.2733 191.19 19.8971 191.803 21.518ZM193.022 21.2068C192.686 20.3162 193.081 19.4214 193.903 19.2115L194.038 19.1771C194.86 18.9674 195.803 19.5209 196.139 20.4115L197.248 23.3457C197.584 24.2354 197.188 25.1304 196.367 25.3401L196.232 25.3745C195.409 25.5844 194.467 25.0306 194.131 24.141L193.022 21.2068Z" fill="#355288"/>
<path d="M198.78 32.5049C199.105 32.4185 199.275 32.0939 199.161 31.7797L196.434 24.2608C196.32 23.9466 195.965 23.7613 195.64 23.8478C195.316 23.934 195.145 24.2588 195.259 24.573L197.986 32.0919C198.1 32.4061 198.455 32.5911 198.78 32.5049Z" fill="#355288"/>
<path d="M187.653 9.71781L188.761 12.652C189.374 14.2729 191.083 15.2767 192.58 14.8946L192.716 14.8602C194.212 14.4784 194.929 12.8554 194.317 11.2345L193.208 8.3003C192.596 6.67945 190.886 5.67481 189.39 6.05661L189.255 6.09108C187.757 6.47311 187.04 8.09696 187.653 9.71781ZM188.873 9.40659C188.536 8.51607 188.931 7.62123 189.753 7.41136L189.889 7.37688C190.71 7.16724 191.653 7.72077 191.99 8.61129L193.098 11.5455C193.434 12.4352 193.038 13.3302 192.217 13.5399L192.082 13.5744C191.259 13.7842 190.317 13.2305 189.981 12.3408L188.873 9.40659Z" fill="#355288"/>
<path d="M194.629 20.7039C194.955 20.6175 195.124 20.2928 195.01 19.9786L192.284 12.4597C192.17 12.1455 191.815 11.9603 191.49 12.0467C191.165 12.1329 190.995 12.4578 191.109 12.772L193.836 20.2909C193.949 20.6051 194.305 20.7901 194.629 20.7039Z" fill="#355288"/>
<path d="M183.502 -2.08236L184.611 0.851871C185.223 2.47272 186.933 3.4765 188.43 3.09447L188.565 3.06C190.062 2.6782 190.779 1.05521 190.166 -0.565636L189.058 -3.49987C188.446 -5.12072 186.736 -6.12536 185.239 -5.74356L185.104 -5.70909C183.607 -5.32706 182.89 -3.70321 183.502 -2.08236ZM184.722 -2.39358C184.386 -3.2841 184.78 -4.17894 185.603 -4.38881L185.738 -4.42329C186.56 -4.63293 187.503 -4.0794 187.839 -3.18888L188.948 -0.254646C189.284 0.635012 188.888 1.53008 188.066 1.73972L187.931 1.7742C187.109 1.98407 186.167 1.43031 185.831 0.540649L184.722 -2.39358Z" fill="#355288"/>
<path d="M190.479 8.90373C190.804 8.8173 190.974 8.49268 190.86 8.17847L188.133 0.659568C188.019 0.345363 187.665 0.160145 187.339 0.246576C187.015 0.332775 186.844 0.657631 186.958 0.971836L189.685 8.49074C189.799 8.80495 190.155 8.98993 190.479 8.90373Z" fill="#355288"/>
<path d="M262.424 222.314L263.533 225.248C264.145 226.869 265.855 227.872 267.351 227.491L267.486 227.456C268.983 227.074 269.701 225.451 269.088 223.83L267.98 220.896C267.368 219.275 265.658 218.271 264.16 218.653L264.025 218.687C262.529 219.069 261.812 220.693 262.424 222.314ZM263.643 222.003C263.307 221.112 263.702 220.218 264.524 220.008L264.659 219.974C265.482 219.764 266.424 220.317 266.76 221.207L267.869 224.142C268.205 225.031 267.81 225.926 266.987 226.136L266.852 226.17C266.03 226.38 265.088 225.827 264.752 224.937L263.643 222.003Z" fill="#355288"/>
<path d="M269.401 233.3C269.725 233.214 269.896 232.889 269.782 232.575L267.055 225.056C266.941 224.741 266.585 224.556 266.261 224.642C265.936 224.728 265.766 225.054 265.88 225.368L268.607 232.887C268.721 233.201 269.075 233.386 269.401 233.3Z" fill="#355288"/>
<path d="M258.274 210.513L259.382 213.447C259.995 215.068 261.704 216.072 263.201 215.69L263.336 215.655C264.833 215.273 265.55 213.65 264.938 212.029L263.829 209.095C263.217 207.474 261.507 206.47 260.01 206.852L259.875 206.886C258.378 207.268 257.661 208.891 258.274 210.513ZM259.493 210.202C259.156 209.311 259.551 208.416 260.374 208.207L260.509 208.172C261.331 207.962 262.273 208.516 262.61 209.406L263.718 212.341C264.054 213.23 263.659 214.124 262.837 214.334L262.702 214.369C261.879 214.579 260.937 214.026 260.601 213.136L259.493 210.202Z" fill="#355288"/>
<path d="M265.251 221.5C265.575 221.413 265.745 221.088 265.631 220.774L262.905 213.256C262.791 212.94 262.435 212.755 262.111 212.842C261.786 212.928 261.616 213.253 261.73 213.568L264.457 221.086C264.571 221.4 264.926 221.586 265.251 221.5Z" fill="#355288"/>
<path d="M254.123 198.712L255.232 201.647C255.844 203.268 257.554 204.271 259.05 203.89L259.185 203.855C260.683 203.473 261.4 201.85 260.788 200.229L259.679 197.294C259.066 195.673 257.357 194.67 255.86 195.052L255.724 195.086C254.228 195.468 253.511 197.091 254.123 198.712ZM255.342 198.401C255.006 197.51 255.401 196.616 256.223 196.406L256.358 196.372C257.181 196.162 258.123 196.715 258.459 197.605L259.568 200.541C259.904 201.43 259.509 202.324 258.686 202.534L258.551 202.568C257.729 202.778 256.787 202.225 256.451 201.336L255.342 198.401Z" fill="#355288"/>
<path d="M261.1 209.699C261.424 209.612 261.595 209.288 261.481 208.973L258.754 201.454C258.64 201.14 258.285 200.955 257.96 201.041C257.635 201.128 257.465 201.453 257.579 201.767L260.306 209.286C260.42 209.6 260.775 209.785 261.1 209.699Z" fill="#355288"/>
<path d="M249.973 186.912L251.082 189.846C251.694 191.467 253.403 192.47 254.9 192.089L255.035 192.054C256.532 191.672 257.249 190.049 256.637 188.428L255.529 185.494C254.916 183.873 253.206 182.869 251.709 183.251L251.574 183.285C250.078 183.667 249.361 185.291 249.973 186.912ZM251.192 186.601C250.856 185.71 251.25 184.815 252.073 184.605L252.208 184.571C253.03 184.361 253.972 184.915 254.309 185.805L255.417 188.739C255.754 189.629 255.359 190.524 254.536 190.734L254.401 190.768C253.579 190.978 252.637 190.424 252.3 189.535L251.192 186.601Z" fill="#355288"/>
<path d="M256.95 197.898C257.274 197.812 257.445 197.487 257.331 197.173L254.604 189.654C254.49 189.34 254.135 189.155 253.811 189.241C253.485 189.328 253.316 189.652 253.43 189.967L256.156 197.486C256.27 197.8 256.625 197.985 256.95 197.898Z" fill="#355288"/>
<path d="M245.823 175.111L246.931 178.046C247.544 179.666 249.253 180.67 250.749 180.288L250.885 180.254C252.382 179.872 253.099 178.249 252.487 176.628L251.378 173.694C250.766 172.073 249.056 171.068 247.559 171.45L247.424 171.485C245.927 171.867 245.21 173.491 245.823 175.111ZM247.042 174.8C246.705 173.909 247.1 173.015 247.922 172.805L248.058 172.771C248.88 172.561 249.822 173.114 250.159 174.005L251.267 176.939C251.603 177.829 251.208 178.724 250.386 178.934L250.251 178.968C249.428 179.178 248.486 178.624 248.15 177.735L247.042 174.8Z" fill="#355288"/>
<path d="M252.799 186.097C253.124 186.011 253.294 185.686 253.18 185.372L250.454 177.853C250.34 177.539 249.984 177.354 249.66 177.44C249.335 177.527 249.165 177.851 249.279 178.166L252.005 185.684C252.119 185.999 252.474 186.184 252.799 186.097Z" fill="#355288"/>
<path d="M241.64 163.218L242.748 166.152C243.36 167.773 245.07 168.776 246.566 168.395L246.701 168.36C248.199 167.978 248.916 166.355 248.304 164.734L247.195 161.8C246.583 160.179 244.873 159.175 243.376 159.557L243.241 159.591C241.744 159.973 241.027 161.597 241.64 163.218ZM242.858 162.907C242.522 162.016 242.917 161.121 243.739 160.911L243.874 160.877C244.697 160.667 245.639 161.221 245.975 162.111L247.084 165.046C247.42 165.935 247.025 166.83 246.203 167.04L246.068 167.074C245.245 167.284 244.303 166.73 243.967 165.841L242.858 162.907Z" fill="#355288"/>
<path d="M248.616 174.204C248.94 174.118 249.111 173.793 248.997 173.479L246.27 165.96C246.156 165.645 245.801 165.46 245.477 165.547C245.151 165.633 244.982 165.958 245.096 166.272L247.822 173.791C247.936 174.105 248.291 174.29 248.616 174.204Z" fill="#355288"/>
<path d="M237.49 151.417L238.598 154.352C239.211 155.972 240.92 156.976 242.416 156.594L242.552 156.56C244.049 156.178 244.766 154.555 244.154 152.934L243.045 150C242.433 148.379 240.723 147.374 239.226 147.756L239.091 147.791C237.594 148.173 236.877 149.797 237.49 151.417ZM238.709 151.106C238.372 150.216 238.767 149.321 239.589 149.111L239.725 149.077C240.547 148.867 241.489 149.421 241.826 150.311L242.934 153.245C243.27 154.135 242.875 155.03 242.053 155.24L241.918 155.274C241.095 155.484 240.153 154.93 239.817 154.041L238.709 151.106Z" fill="#355288"/>
<path d="M244.466 162.404C244.791 162.317 244.961 161.993 244.847 161.678L242.121 154.159C242.007 153.845 241.651 153.66 241.327 153.746C241.002 153.833 240.832 154.158 240.946 154.472L243.672 161.991C243.786 162.305 244.141 162.49 244.466 162.404Z" fill="#355288"/>
<path d="M233.339 139.616L234.447 142.551C235.06 144.172 236.769 145.175 238.266 144.794L238.401 144.759C239.898 144.377 240.615 142.754 240.003 141.133L238.894 138.199C238.282 136.578 236.572 135.573 235.075 135.956L234.94 135.99C233.443 136.372 232.726 137.996 233.339 139.616ZM234.558 139.305C234.221 138.415 234.616 137.52 235.439 137.31L235.574 137.276C236.396 137.066 237.338 137.62 237.675 138.51L238.783 141.444C239.119 142.334 238.724 143.229 237.902 143.439L237.767 143.473C236.944 143.683 236.002 143.129 235.666 142.24L234.558 139.305Z" fill="#355288"/>
<path d="M240.316 150.603C240.64 150.517 240.811 150.192 240.697 149.878L237.97 142.359C237.856 142.045 237.501 141.86 237.176 141.946C236.851 142.033 236.681 142.357 236.795 142.672L239.522 150.19C239.636 150.505 239.991 150.69 240.316 150.603Z" fill="#355288"/>
<path d="M229.189 127.816L230.297 130.751C230.91 132.371 232.619 133.375 234.116 132.993L234.251 132.959C235.748 132.577 236.465 130.954 235.853 129.333L234.744 126.399C234.132 124.778 232.422 123.773 230.925 124.155L230.79 124.19C229.293 124.572 228.577 126.195 229.189 127.816ZM230.408 127.505C230.071 126.615 230.466 125.72 231.289 125.51L231.424 125.476C232.246 125.266 233.188 125.82 233.525 126.71L234.633 129.644C234.969 130.534 234.575 131.429 233.752 131.639L233.617 131.673C232.794 131.883 231.852 131.329 231.516 130.44L230.408 127.505Z" fill="#355288"/>
<path d="M236.165 138.802C236.49 138.716 236.66 138.391 236.547 138.077L233.82 130.558C233.706 130.244 233.35 130.059 233.026 130.145C232.701 130.232 232.531 130.556 232.645 130.871L235.372 138.389C235.486 138.704 235.84 138.889 236.165 138.802Z" fill="#355288"/>
<path d="M225.039 116.016L226.147 118.95C226.759 120.571 228.469 121.575 229.965 121.193L230.1 121.159C231.598 120.777 232.315 119.154 231.703 117.533L230.594 114.599C229.982 112.978 228.272 111.973 226.775 112.355L226.639 112.39C225.143 112.771 224.426 114.395 225.039 116.016ZM226.257 115.705C225.921 114.814 226.316 113.92 227.138 113.71L227.273 113.675C228.096 113.466 229.038 114.018 229.374 114.91L230.483 117.844C230.819 118.734 230.424 119.629 229.602 119.838L229.467 119.873C228.644 120.083 227.702 119.529 227.366 118.639L226.257 115.705Z" fill="#355288"/>
<path d="M232.015 127.002C232.339 126.916 232.51 126.591 232.396 126.277L229.669 118.758C229.555 118.444 229.2 118.259 228.876 118.345C228.55 118.432 228.381 118.756 228.494 119.07L231.221 126.589C231.335 126.903 231.69 127.089 232.015 127.002Z" fill="#355288"/>
<path d="M220.888 104.215L221.997 107.149C222.609 108.77 224.319 109.774 225.815 109.392L225.95 109.358C227.447 108.976 228.165 107.353 227.552 105.732L226.444 102.798C225.831 101.177 224.121 100.172 222.624 100.554L222.489 100.589C220.993 100.97 220.276 102.594 220.888 104.215ZM222.107 103.904C221.771 103.014 222.165 102.119 222.988 101.909L223.123 101.874C223.946 101.665 224.888 102.218 225.224 103.109L226.332 106.043C226.669 106.933 226.274 107.828 225.451 108.037L225.316 108.072C224.494 108.282 223.552 107.728 223.215 106.838L222.107 103.904Z" fill="#355288"/>
<path d="M227.865 115.201C228.189 115.115 228.36 114.79 228.246 114.476L225.519 106.957C225.405 106.643 225.049 106.458 224.725 106.544C224.4 106.631 224.23 106.955 224.344 107.269L227.071 114.788C227.185 115.103 227.54 115.288 227.865 115.201Z" fill="#355288"/>
<path d="M216.738 92.4141L217.846 95.3483C218.459 96.9692 220.168 97.973 221.665 97.5912L221.8 97.5567C223.297 97.1747 224.014 95.5517 223.402 93.9308L222.293 90.9966C221.681 89.3757 219.971 88.3711 218.474 88.7531L218.339 88.7876C216.842 89.1694 216.125 90.7932 216.738 92.4141ZM217.957 92.1031C217.62 91.2126 218.015 90.3178 218.837 90.1079L218.973 90.0734C219.795 89.8635 220.737 90.4173 221.074 91.3078L222.182 94.242C222.518 95.1317 222.123 96.0265 221.301 96.2364L221.166 96.2709C220.343 96.4808 219.401 95.927 219.065 95.0373L217.957 92.1031Z" fill="#355288"/>
<path d="M223.714 103.401C224.039 103.315 224.209 102.99 224.095 102.676L221.369 95.157C221.255 94.8428 220.899 94.6578 220.575 94.744C220.25 94.8304 220.08 95.1551 220.194 95.4693L222.92 102.988C223.034 103.302 223.389 103.488 223.714 103.401Z" fill="#355288"/>
<path d="M212.587 80.6139L213.696 83.5482C214.308 85.169 216.018 86.1728 217.514 85.791L217.649 85.7565C219.147 85.3745 219.864 83.7515 219.251 82.1307L218.143 79.1964C217.531 77.5756 215.821 76.5709 214.323 76.953L214.188 76.9874C212.692 77.3692 211.975 78.9931 212.587 80.6139ZM213.806 80.3029C213.47 79.4124 213.865 78.5176 214.687 78.3077L214.822 78.2732C215.645 78.0634 216.587 78.6171 216.923 79.5076L218.032 82.4419C218.368 83.3315 217.973 84.2264 217.15 84.4362L217.015 84.4707C216.193 84.6806 215.251 84.1268 214.915 83.2372L213.806 80.3029Z" fill="#355288"/>
<path d="M219.564 91.6001C219.888 91.5139 220.059 91.1891 219.945 90.8749L217.218 83.356C217.104 83.0418 216.749 82.8568 216.424 82.943C216.099 83.0294 215.929 83.354 216.043 83.6682L218.77 91.1872C218.884 91.5014 219.239 91.6866 219.564 91.6001Z" fill="#355288"/>
<path d="M208.405 68.7211L209.513 71.6553C210.126 73.2762 211.835 74.28 213.331 73.8982L213.467 73.8637C214.964 73.4817 215.681 71.8587 215.069 70.2378L213.96 67.3036C213.348 65.6827 211.638 64.6781 210.141 65.0601L210.006 65.0946C208.509 65.4764 207.792 67.1003 208.405 68.7211ZM209.624 68.4101C209.287 67.5187 209.682 66.6248 210.504 66.4149L210.64 66.3804C211.462 66.1705 212.404 66.7234 212.741 67.6148L213.849 70.5491C214.185 71.4387 213.79 72.3335 212.968 72.5434L212.833 72.5779C212.01 72.7878 211.068 72.234 210.732 71.3443L209.624 68.4101Z" fill="#355288"/>
<path d="M215.381 79.7072C215.706 79.621 215.876 79.2961 215.762 78.9819L213.036 71.463C212.922 71.1488 212.566 70.9638 212.242 71.05C211.917 71.1365 211.747 71.4611 211.861 71.7753L214.587 79.2942C214.701 79.6084 215.056 79.7936 215.381 79.7072Z" fill="#355288"/>
<path d="M204.254 56.9201L205.363 59.8543C205.975 61.4752 207.685 62.4789 209.181 62.0971L209.316 62.0627C210.814 61.6806 211.531 60.0577 210.918 58.4368L209.81 55.5026C209.198 53.8817 207.488 52.8771 205.99 53.2591L205.855 53.2936C204.359 53.6754 203.642 55.2992 204.254 56.9201ZM205.473 56.6091C205.137 55.7186 205.532 54.8237 206.354 54.6139L206.489 54.5794C207.312 54.3695 208.254 54.9233 208.59 55.8138L209.699 58.748C210.035 59.6377 209.64 60.5325 208.817 60.7424L208.682 60.7769C207.86 60.9867 206.918 60.433 206.582 59.5433L205.473 56.6091Z" fill="#355288"/>
<path d="M211.231 67.9063C211.555 67.8201 211.726 67.4952 211.612 67.181L208.885 59.6621C208.771 59.3479 208.416 59.1629 208.091 59.2491C207.766 59.3356 207.596 59.6602 207.71 59.9744L210.437 67.4933C210.551 67.8075 210.906 67.9927 211.231 67.9063Z" fill="#355288"/>
<path d="M200.103 45.1191L201.212 48.0533C201.824 49.6741 203.534 50.6779 205.03 50.2961L205.165 50.2616C206.663 49.8796 207.38 48.2566 206.768 46.6358L205.659 43.7015C205.047 42.0807 203.337 41.0761 201.84 41.4581L201.704 41.4926C200.208 41.8744 199.491 43.4982 200.103 45.1191ZM201.322 44.8081C200.986 43.9175 201.381 43.0227 202.203 42.8128L202.338 42.7784C203.161 42.5685 204.103 43.1223 204.439 44.0128L205.548 46.947C205.884 47.8367 205.489 48.7315 204.667 48.9414L204.531 48.9758C203.709 49.1857 202.767 48.632 202.431 47.7423L201.322 44.8081Z" fill="#355288"/>
<path d="M207.08 56.1053C207.404 56.0191 207.575 55.6942 207.461 55.38L204.735 47.862C204.621 47.5477 204.265 47.3619 203.94 47.4481C203.615 47.5345 203.446 47.86 203.56 48.1742L206.286 55.6923C206.4 56.0065 206.755 56.1917 207.08 56.1053Z" fill="#355288"/>
<path d="M195.954 33.3189L197.062 36.2531C197.674 37.874 199.384 38.8777 200.88 38.496L201.015 38.4615C202.513 38.0794 203.23 36.4565 202.618 34.8356L201.509 31.9014C200.897 30.2805 199.187 29.2759 197.69 29.6579L197.555 29.6924C196.058 30.0742 195.341 31.698 195.954 33.3189ZM197.172 33.0079C196.836 32.1174 197.231 31.2225 198.053 31.0127L198.188 30.9782C199.011 30.7683 199.953 31.3221 200.289 32.2126L201.398 35.1468C201.734 36.0365 201.339 36.9313 200.517 37.1412L200.382 37.1757C199.559 37.3855 198.617 36.8318 198.281 35.9421L197.172 33.0079Z" fill="#355288"/>
<path d="M202.93 44.3051C203.254 44.2189 203.425 43.894 203.311 43.5798L200.584 36.0609C200.47 35.7467 200.115 35.5617 199.791 35.6479C199.465 35.7344 199.296 36.059 199.41 36.3732L202.136 43.8921C202.25 44.2063 202.605 44.3915 202.93 44.3051Z" fill="#355288"/>
<path d="M195.646 25.6913L197.956 32.0271C198.084 32.3773 198.451 32.5916 198.777 32.5055C199.102 32.4195 199.265 32.0652 199.137 31.715L196.826 25.3792L195.646 25.6913Z" fill="#355288"/>
<path d="M360.721 217.121L267.229 241.588L264.029 232.809C263.238 230.642 264.416 228.405 266.658 227.812L351.946 205.263C354.188 204.671 356.647 205.946 357.437 208.114L360.721 217.121Z" fill="#F7CC7E"/>
<path d="M356.818 223.181L274.444 245.064C271.37 245.88 268.003 244.129 266.923 241.153C265.843 238.177 267.459 235.101 270.533 234.284L352.907 212.402C355.98 211.585 359.347 213.337 360.427 216.314C361.507 219.29 359.891 222.364 356.818 223.181Z" fill="#EAAF53"/>
<path d="M300.616 156.93C301.727 155.538 314.459 158.023 314.82 159.667C315.18 161.312 328.083 175.452 328.083 175.452L338.062 162.174C338.062 162.174 338.827 157.832 339.044 157.139C339.454 155.832 340.37 154.483 341.519 154.47C342.665 154.456 341.047 156.123 340.988 156.382C340.827 157.09 342.296 157.064 342.296 157.064C342.296 157.064 345.655 154.236 345.363 153.008C345.069 151.779 345.103 149.08 346.134 149.446C346.665 149.635 347.223 151.438 347.352 152.32C347.306 151.3 347.326 150.133 347.646 149.957C348.232 149.634 348.795 150.346 348.796 150.748C348.797 151.15 349.038 155.472 348.865 155.997C348.695 156.51 343.756 162.634 343.155 163.873C343.155 163.873 332.2 184.729 329.235 185.572C328.058 185.907 323.076 182.068 317.934 178.393C312.793 174.719 297.142 161.282 300.616 156.93Z" fill="#F7A391"/>
<path d="M321.271 168.021L308.421 171.033C308.421 171.033 305.43 160.922 304.29 156.062C302.908 150.164 301.659 142.497 302.45 142.56C304.672 142.739 307.777 143.466 309.988 145.442C317.64 152.285 321.271 168.021 321.271 168.021Z" fill="#B75642"/>
<path d="M309.295 154.392C309.996 156.157 326.595 204.469 326.595 204.469C305.142 218.594 289.764 211.342 289.764 211.342C289.764 211.342 282.457 176.842 280.413 172.286C279.06 169.271 272.516 149.221 274.508 148.363C277.062 147.264 280.931 145.636 284.263 144.852C287.107 144.182 298.379 142.525 300.554 142.899C300.554 142.899 306.35 146.969 309.295 154.392Z" fill="#F47457"/>
<path d="M299.775 107.679C299.775 107.679 309.662 106.934 308.767 114.547C308.767 114.547 316.093 116.737 311.13 123.162C311.13 123.162 316.292 129.425 307.125 136.307C307.125 136.307 304.619 145.301 294.355 141.705C294.355 141.705 291.284 143.993 287.095 141.439C282.907 138.886 282.374 137.256 282.374 137.256C282.374 137.256 273.063 136.194 274.425 128.19C274.425 128.19 269.565 124.63 277.012 119.328C277.012 119.328 276.987 108.464 286.968 109.315C286.968 109.315 292.893 100.658 299.775 107.679Z" fill="#174654"/>
<path d="M285.172 128.179C285.508 130.072 284.625 131.756 283.199 131.942C281.773 132.128 280.344 130.745 280.009 128.854C279.673 126.961 280.556 125.276 281.982 125.091C283.408 124.905 284.837 126.288 285.172 128.179Z" fill="#F7A391"/>
<path d="M309.847 127.971C309.551 129.861 308.152 131.234 306.723 131.038C305.292 130.841 304.374 129.149 304.669 127.26C304.966 125.371 306.364 123.998 307.794 124.193C309.224 124.39 310.143 126.081 309.847 127.971Z" fill="#F7A391"/>
<path d="M297.698 138.439C297.669 138.572 297.903 143.516 298.029 146.129C298.076 147.105 297.347 147.962 296.288 148.183C293.458 148.774 288.022 149.329 285.086 145.827C284.819 145.508 284.725 145.1 284.821 144.714L287.636 133.524L297.698 138.439Z" fill="#F7A391"/>
<path d="M297.856 141.222C294.827 141.966 291.342 141.364 287.871 138.62C287.431 138.272 287.024 137.913 286.648 137.544L287.659 133.525L297.754 138.452C297.74 138.517 297.788 139.71 297.856 141.222Z" fill="#F48B7E"/>
<path d="M295.229 113.433C295.229 113.433 290.72 113.671 287.408 116.945C284.097 120.218 280.425 130.747 288.443 137.09C296.461 143.433 304.562 137.314 305.85 130.376C307.138 123.437 305.561 113.985 295.229 113.433Z" fill="#F7A391"/>
<path d="M341.795 157.002L342.567 157.401C342.966 157.604 343.435 157.501 343.617 157.172L350.981 143.898C351.163 143.57 350.989 143.137 350.592 142.934L349.82 142.536C349.424 142.332 348.953 142.435 348.77 142.764L341.408 156.038C341.224 156.367 341.398 156.799 341.795 157.002Z" fill="#13375B"/>
<path d="M403.834 232.455C403.834 232.455 407.218 234.418 410.12 233.243C413.022 232.067 417.407 225.182 418.981 224.538C420.555 223.895 421.649 224.261 421.649 224.261L415.34 245.155L408.212 243.048L403.306 240.729L403.834 232.455Z" fill="#F7A391"/>
<path d="M411.744 232.23C411.744 232.23 412.764 238.271 410.604 240.495C408.443 242.721 408.059 242.537 408.401 243.433C408.745 244.33 415.393 246.354 415.393 246.354L422.516 222.943C422.914 221.289 421.769 220.101 420.239 221.13C419.19 221.836 418.368 222.753 417.817 223.253C416.124 224.788 411.744 232.23 411.744 232.23Z" fill="#174654"/>
<path d="M287.27 210.381C288.098 207.972 319.692 199.433 319.692 199.433C319.692 199.433 346.889 189.055 354.735 190.615C356.897 191.046 402.924 230.288 408.214 233.257L403.617 242.956C403.617 242.956 372.642 226.43 365.159 222.428C360.019 219.681 353.907 215.417 349.005 211.178C340.262 218.104 325.16 226.923 302.224 230.449C291.891 232.039 286.443 212.788 287.27 210.381Z" fill="#174654"/>
<path d="M323.595 260.769C323.595 260.769 327.432 270.067 329.851 272.368C332.271 274.668 331.986 279.469 332.092 280.097C332.2 280.727 329.193 282.263 323.812 282.792C318.431 283.321 318.16 282.166 318.005 280.245C317.851 278.324 319.889 275.402 319.509 273.62C319.129 271.836 315.391 265.896 315.391 265.896L323.595 260.769Z" fill="#F7A391"/>
<path d="M323.129 283.63C317.448 284.187 317.327 281.499 317.164 279.474C317.062 278.206 318.193 276.458 318.71 274.916C319.32 275.186 320.325 275.679 322.925 275.863C325.626 276.054 328.601 273.999 330.501 272.705C332.126 275.262 333.247 278.715 333.339 279.253C333.453 279.917 328.809 283.073 323.129 283.63Z" fill="#174654"/>
<path d="M308.25 225.034C311.741 232.474 329.096 269.517 329.096 269.517L317.33 273.544C317.33 273.544 286.524 226.917 284.882 219.137C283.24 211.357 288.663 209.525 288.663 209.525C288.663 209.525 299.008 205.339 308.25 225.034Z" fill="#355288"/>
<path d="M299.937 132.476L290.881 133.301C290.881 133.301 291.251 134.937 295.253 134.684C300.134 134.374 299.937 132.476 299.937 132.476Z" fill="white"/>
<path d="M305.432 117.939C305.432 117.939 301.2 116.096 298.031 116.566C294.862 117.037 284.476 124.606 282.986 123.537C281.495 122.468 283.492 116.213 284.698 115.25C285.903 114.287 290.712 111.316 291.122 111.241C291.533 111.167 295.869 110.976 296.611 111.106C297.354 111.236 302.696 113.275 302.696 113.275L305.432 117.939Z" fill="#174654"/>
<path d="M263.777 226.511C263.787 226.271 263.985 226.216 264.188 226.16C266.155 225.605 268.11 225.024 269.978 224.253C270.29 224.123 270.587 223.971 270.848 223.782C271.319 223.435 271.863 223.305 272.471 223.314C272.799 223.318 273.108 223.257 273.417 223.178C274.416 222.925 276.928 221.288 278.304 220.679C278.618 220.539 278.796 220.233 278.765 219.898C278.221 214.106 276.859 201.148 275.796 197.041C274.436 191.788 269.706 167.757 269.706 167.757L280.606 167.918C280.606 167.918 282.749 185.993 284.64 194.545C286.1 201.148 284.355 216.37 283.68 220.791C283.715 223.947 281.443 224.602 280.931 224.798C280.639 224.91 280.411 225.123 280.291 225.396C280.076 225.889 279.789 226.343 279.418 226.747C279.143 227.048 278.972 227.391 278.858 227.772C278.65 228.464 278.498 229.173 278.348 229.881C278.25 230.351 278.039 230.545 277.636 230.541C277.203 230.536 276.915 230.306 276.754 229.846C276.519 229.167 276.521 228.498 276.667 227.832C276.803 227.209 276.664 226.901 276.094 226.5C275.766 226.271 275.435 226.051 275.059 225.897C274.676 225.74 274.298 225.642 273.914 225.798C273.262 226.146 272.592 226.463 271.887 226.723L271.329 226.99C271.309 226.998 271.025 227.138 271.025 227.138C270.98 227.163 269.963 227.538 269.602 227.628C269.31 227.701 268.846 227.837 268.453 227.956C268.096 228.063 267.263 228.073 267.237 228.08C266.881 228.16 266.525 228.116 266.18 227.957C266.038 227.892 265.897 227.814 265.894 227.644C265.892 227.487 265.988 227.396 266.132 227.331C266.357 227.231 267.538 226.78 267.505 226.733C267.139 226.825 265.983 227.085 265.612 227.168C265.114 227.279 264.625 227.216 264.157 226.953C263.973 226.849 263.767 226.752 263.777 226.511Z" fill="#F7A391"/>
<path d="M269.307 175.006L286.21 179.603C286.21 179.603 285.864 168.774 285.956 162.036C286.035 156.242 275.934 147.486 273.776 149.221C268.952 153.104 269.307 175.006 269.307 175.006Z" fill="#B75642"/>
<path d="M24.7974 26.2563C27.4854 26.2563 29.082 24.1543 29.082 20.5874C29.082 17.0864 27.3828 15.1675 24.856 15.1675C22.5562 15.1675 20.9302 16.7129 20.9302 18.8735C20.9302 20.9023 22.395 22.3818 24.4092 22.3818C25.647 22.3818 26.6504 21.8105 27.1484 20.8071H27.2729C27.251 23.29 26.3647 24.7109 24.8193 24.7109C23.9111 24.7109 23.186 24.2129 22.959 23.4072H21.0767C21.3843 25.1284 22.8638 26.2563 24.7974 26.2563ZM24.8633 20.9243C23.6328 20.9243 22.7832 20.0601 22.7832 18.8149C22.7832 17.6211 23.6768 16.7056 24.8706 16.7056C26.0645 16.7056 26.958 17.6357 26.958 18.8516C26.958 20.0527 26.0864 20.9243 24.8633 20.9243ZM32.0799 19.1592C32.7757 19.1592 33.2518 18.6758 33.2518 18.0239C33.2518 17.3721 32.7757 16.8887 32.0799 16.8887C31.3914 16.8887 30.908 17.3721 30.908 18.0239C30.908 18.6758 31.3914 19.1592 32.0799 19.1592ZM32.0799 24.5352C32.7757 24.5352 33.2518 24.0444 33.2518 23.3999C33.2518 22.748 32.7757 22.2646 32.0799 22.2646C31.3914 22.2646 30.908 22.748 30.908 23.3999C30.908 24.0444 31.3914 24.5352 32.0799 24.5352ZM40.234 26H42.0431V23.9712H43.4713V22.4111H42.0431V15.4312H39.3771C37.9415 17.6138 36.4401 20.0454 35.0704 22.4258V23.9712H40.234V26ZM36.8209 22.3452C37.8537 20.5508 39.0768 18.5952 40.1608 16.9399H40.2633V22.4551H36.8209V22.3452ZM47.4799 26H49.3696V15.4312H47.4873L44.726 17.3721V19.1519L47.3554 17.2915H47.4799V26Z" fill="#38B68C"/>
<path d="M24.7974 26.2563C27.4854 26.2563 29.082 24.1543 29.082 20.5874C29.082 17.0864 27.3828 15.1675 24.856 15.1675C22.5562 15.1675 20.9302 16.7129 20.9302 18.8735C20.9302 20.9023 22.395 22.3818 24.4092 22.3818C25.647 22.3818 26.6504 21.8105 27.1484 20.8071H27.2729C27.251 23.29 26.3647 24.7109 24.8193 24.7109C23.9111 24.7109 23.186 24.2129 22.959 23.4072H21.0767C21.3843 25.1284 22.8638 26.2563 24.7974 26.2563ZM24.8633 20.9243C23.6328 20.9243 22.7832 20.0601 22.7832 18.8149C22.7832 17.6211 23.6768 16.7056 24.8706 16.7056C26.0645 16.7056 26.958 17.6357 26.958 18.8516C26.958 20.0527 26.0864 20.9243 24.8633 20.9243ZM32.0799 19.1592C32.7757 19.1592 33.2518 18.6758 33.2518 18.0239C33.2518 17.3721 32.7757 16.8887 32.0799 16.8887C31.3914 16.8887 30.908 17.3721 30.908 18.0239C30.908 18.6758 31.3914 19.1592 32.0799 19.1592ZM32.0799 24.5352C32.7757 24.5352 33.2518 24.0444 33.2518 23.3999C33.2518 22.748 32.7757 22.2646 32.0799 22.2646C31.3914 22.2646 30.908 22.748 30.908 23.3999C30.908 24.0444 31.3914 24.5352 32.0799 24.5352ZM40.234 26H42.0431V23.9712H43.4713V22.4111H42.0431V15.4312H39.3771C37.9415 17.6138 36.4401 20.0454 35.0704 22.4258V23.9712H40.234V26ZM36.8209 22.3452C37.8537 20.5508 39.0768 18.5952 40.1608 16.9399H40.2633V22.4551H36.8209V22.3452ZM47.4799 26H49.3696V15.4312H47.4873L44.726 17.3721V19.1519L47.3554 17.2915H47.4799V26Z" fill="white"/>
<path fill-rule="evenodd" clip-rule="evenodd" d="M359 17H358C357.448 17 357 17.4477 357 18V26.6667C357 27.219 357.448 27.6667 358 27.6667H359C359.552 27.6667 360 27.219 360 26.6667V18C360 17.4477 359.552 17 359 17ZM353.333 19.3333H354.333C354.886 19.3333 355.333 19.781 355.333 20.3333V26.6667C355.333 27.219 354.886 27.6667 354.333 27.6667H353.333C352.781 27.6667 352.333 27.219 352.333 26.6667V20.3333C352.333 19.781 352.781 19.3333 353.333 19.3333ZM349.667 21.6667H348.667C348.114 21.6667 347.667 22.1144 347.667 22.6667V26.6667C347.667 27.219 348.114 27.6667 348.667 27.6667H349.667C350.219 27.6667 350.667 27.219 350.667 26.6667V22.6667C350.667 22.1144 350.219 21.6667 349.667 21.6667ZM345 23.6667H344C343.448 23.6667 343 24.1144 343 24.6667V26.6667C343 27.219 343.448 27.6667 344 27.6667H345C345.552 27.6667 346 27.219 346 26.6667V24.6667C346 24.1144 345.552 23.6667 345 23.6667Z" fill="#38B68C"/>
<path fill-rule="evenodd" clip-rule="evenodd" d="M359 17H358C357.448 17 357 17.4477 357 18V26.6667C357 27.219 357.448 27.6667 358 27.6667H359C359.552 27.6667 360 27.219 360 26.6667V18C360 17.4477 359.552 17 359 17ZM353.333 19.3333H354.333C354.886 19.3333 355.333 19.781 355.333 20.3333V26.6667C355.333 27.219 354.886 27.6667 354.333 27.6667H353.333C352.781 27.6667 352.333 27.219 352.333 26.6667V20.3333C352.333 19.781 352.781 19.3333 353.333 19.3333ZM349.667 21.6667H348.667C348.114 21.6667 347.667 22.1144 347.667 22.6667V26.6667C347.667 27.219 348.114 27.6667 348.667 27.6667H349.667C350.219 27.6667 350.667 27.219 350.667 26.6667V22.6667C350.667 22.1144 350.219 21.6667 349.667 21.6667ZM345 23.6667H344C343.448 23.6667 343 24.1144 343 24.6667V26.6667C343 27.219 343.448 27.6667 344 27.6667H345C345.552 27.6667 346 27.219 346 26.6667V24.6667C346 24.1144 345.552 23.6667 345 23.6667Z" fill="white"/>
<path fill-rule="evenodd" clip-rule="evenodd" d="M377.94 21.6557C376.334 20.1289 374.203 19.2774 371.987 19.2773C369.771 19.2773 367.639 20.1288 366.033 21.6557C365.912 21.7737 365.719 21.7722 365.6 21.6523L364.443 20.4857C364.383 20.4249 364.35 20.3426 364.35 20.257C364.351 20.1715 364.385 20.0896 364.446 20.0297C368.661 15.9901 375.311 15.9901 379.526 20.0297C379.587 20.0897 379.622 20.1715 379.622 20.2571C379.623 20.3427 379.589 20.4249 379.529 20.4857L378.373 21.6523C378.254 21.772 378.061 21.7735 377.94 21.6557ZM371.987 23.073C373.204 23.0729 374.378 23.5254 375.281 24.3427C375.403 24.4586 375.595 24.4561 375.714 24.337L376.869 23.1703C376.93 23.1091 376.963 23.0261 376.962 22.9398C376.962 22.8536 376.926 22.7713 376.864 22.7113C374.116 20.1549 369.86 20.1549 367.112 22.7113C367.05 22.7713 367.014 22.8536 367.013 22.9399C367.013 23.0262 367.046 23.1092 367.107 23.1703L368.262 24.337C368.381 24.4561 368.573 24.4586 368.695 24.3427C369.597 23.526 370.77 23.0735 371.987 23.073ZM374.206 25.8573C374.267 25.7967 374.301 25.7133 374.3 25.6268C374.298 25.5403 374.261 25.4584 374.196 25.4003C372.921 24.3214 371.053 24.3214 369.777 25.4003C369.713 25.4583 369.675 25.5402 369.674 25.6267C369.672 25.7132 369.706 25.7967 369.767 25.8573L371.765 27.873C371.824 27.9322 371.903 27.9656 371.987 27.9656C372.07 27.9656 372.15 27.9322 372.208 27.873L374.206 25.8573Z" fill="#38B68C"/>
<path fill-rule="evenodd" clip-rule="evenodd" d="M377.94 21.6557C376.334 20.1289 374.203 19.2774 371.987 19.2773C369.771 19.2773 367.639 20.1288 366.033 21.6557C365.912 21.7737 365.719 21.7722 365.6 21.6523L364.443 20.4857C364.383 20.4249 364.35 20.3426 364.35 20.257C364.351 20.1715 364.385 20.0896 364.446 20.0297C368.661 15.9901 375.311 15.9901 379.526 20.0297C379.587 20.0897 379.622 20.1715 379.622 20.2571C379.623 20.3427 379.589 20.4249 379.529 20.4857L378.373 21.6523C378.254 21.772 378.061 21.7735 377.94 21.6557ZM371.987 23.073C373.204 23.0729 374.378 23.5254 375.281 24.3427C375.403 24.4586 375.595 24.4561 375.714 24.337L376.869 23.1703C376.93 23.1091 376.963 23.0261 376.962 22.9398C376.962 22.8536 376.926 22.7713 376.864 22.7113C374.116 20.1549 369.86 20.1549 367.112 22.7113C367.05 22.7713 367.014 22.8536 367.013 22.9399C367.013 23.0262 367.046 23.1092 367.107 23.1703L368.262 24.337C368.381 24.4561 368.573 24.4586 368.695 24.3427C369.597 23.526 370.77 23.0735 371.987 23.073ZM374.206 25.8573C374.267 25.7967 374.301 25.7133 374.3 25.6268C374.298 25.5403 374.261 25.4584 374.196 25.4003C372.921 24.3214 371.053 24.3214 369.777 25.4003C369.713 25.4583 369.675 25.5402 369.674 25.6267C369.672 25.7132 369.706 25.7967 369.767 25.8573L371.765 27.873C371.824 27.9322 371.903 27.9656 371.987 27.9656C372.07 27.9656 372.15 27.9322 372.208 27.873L374.206 25.8573Z" fill="white"/>
<g clip-path="url(#clip0_2168_1456)">
<g opacity="0.35">
<path d="M385.667 16.5H402.333C403.53 16.5 404.5 17.47 404.5 18.6667V24.6667C404.5 25.8633 403.53 26.8333 402.333 26.8333H385.667C384.47 26.8333 383.5 25.8633 383.5 24.6667V18.6667C383.5 17.47 384.47 16.5 385.667 16.5Z" stroke="#38B68C"/>
<path d="M385.667 16.5H402.333C403.53 16.5 404.5 17.47 404.5 18.6667V24.6667C404.5 25.8633 403.53 26.8333 402.333 26.8333H385.667C384.47 26.8333 383.5 25.8633 383.5 24.6667V18.6667C383.5 17.47 384.47 16.5 385.667 16.5Z" stroke="white"/>
</g>
<g opacity="0.4">
<path d="M406 19.6667V23.6667C406.805 23.328 407.328 22.5399 407.328 21.6667C407.328 20.7936 406.805 20.0055 406 19.6667" fill="#38B68C"/>
<path d="M406 19.6667V23.6667C406.805 23.328 407.328 22.5399 407.328 21.6667C407.328 20.7936 406.805 20.0055 406 19.6667" fill="white"/>
</g>
<path d="M385 19.3333C385 18.597 385.597 18 386.333 18H401.667C402.403 18 403 18.597 403 19.3333V24C403 24.7364 402.403 25.3333 401.667 25.3333H386.333C385.597 25.3333 385 24.7364 385 24V19.3333Z" fill="#38B68C"/>
<path d="M385 19.3333C385 18.597 385.597 18 386.333 18H401.667C402.403 18 403 18.597 403 19.3333V24C403 24.7364 402.403 25.3333 401.667 25.3333H386.333C385.597 25.3333 385 24.7364 385 24V19.3333Z" fill="white"/>
</g>
<path d="M-30.279 358.394C28.1209 329.698 75.5797 280.204 100.068 222.458C104.638 211.681 108.276 198.901 101.963 189.438C96.4898 181.232 84.7739 178.385 74.4454 180.351C64.1174 182.316 54.9459 188.226 46.6356 194.6C-4.48357 233.812 -32.9075 292.943 -59.4178 349.653" fill="#266A75"/>
<path d="M95.1356 191.469C59.4449 249.468 4.24599 296.244 -35.7708 351.82C-37.3018 353.945 -40.9325 351.624 -39.5115 349.404C-2.99428 292.393 48.528 241.522 93.0266 190.107C93.9894 188.995 95.9243 190.187 95.1356 191.469Z" fill="#308784"/>
<path d="M94.3237 231.34C88.5403 236.37 80.6749 239.181 73.7679 242.472C63.3867 247.416 52.9438 252.242 42.6289 257.323C40.732 258.257 39.2864 256.27 39.4831 254.732C41.8778 236.016 45.2001 217.206 49.9548 198.763C50.7587 195.644 55.6285 196.444 54.9949 199.581C51.2304 218.222 47.4816 236.804 44.3006 255.514C43.2524 254.65 42.2036 253.787 41.1553 252.923C58.3976 245.44 75.9817 238.03 92.8199 229.685C93.9182 229.141 95.4591 230.352 94.3237 231.34Z" fill="#308784"/>
<path d="M53.2313 294.977C43.1817 301.693 31.9695 304.89 20.5061 308.412C14.0491 310.395 7.89869 312.591 1.77087 315.455C-1.59964 317.03 -3.5086 318.723 -7.01858 317.687C-8.09309 317.37 -8.85201 316.745 -8.94163 315.619C-9.56695 307.715 -6.31438 298.547 -4.78643 290.651C-2.81642 280.472 -0.784195 270.301 1.28833 260.135C1.91596 257.056 6.89868 257.851 6.26347 260.926C4.30525 270.411 2.38096 279.9 0.511554 289.396C-0.447284 294.265 -2.98202 300.83 -2.64668 305.679C-2.29086 310.827 -3.4406 311.294 1.66009 310.411C9.5231 309.049 18.379 304.477 26.3116 302.331C35.2572 299.911 44.0741 297.424 52.6509 293.82C53.4103 293.501 53.8842 294.542 53.2313 294.977Z" fill="#308784"/>
<path d="M-69.8941 441.707C-29.2393 381.893 46.1726 351.058 96.7626 298.148C110.176 284.119 121.722 268.654 133.229 253.235C142.649 240.612 152.45 226.961 152.85 211.846C148.713 217.586 142.641 221.835 136.695 225.956C77.3604 267.082 15.7765 309.989 -19.7652 370.437C-29.0244 386.185 -36.4238 403.001 -48.1615 417.281" fill="#308784"/>
<defs>
<clipPath id="clip0_2168_1456">
<rect width="25" height="16" fill="white" transform="translate(382 14)"/>
</clipPath>
</defs>
</svg>
