<svg width="350" height="556" viewBox="0 0 350 556" fill="none" xmlns="http://www.w3.org/2000/svg">
<path d="M304.254 69.9899C283.613 40.1555 243.896 20.2195 181.565 42.4072C140.674 56.9629 132.693 78.8848 110.093 86.2368C87.4936 93.5889 63.4815 96.6994 47.0967 108.576C30.712 120.452 1.09347 151.657 24.4971 199.911C57.5491 268.059 195.831 233.137 240.041 217.726C274.434 205.737 307.434 186.914 318.324 147.64" stroke="#4267AC" stroke-width="3" stroke-linecap="round" stroke-linejoin="round"/>
<path d="M349.394 89.8615H339.559V123.553H349.394V89.8615Z" fill="#FF923A"/>
<path fill-rule="evenodd" clip-rule="evenodd" d="M341.798 79.1908C341.663 79.1015 341.491 79.0718 341.337 79.0867L335.968 79.7562C335.661 79.8008 335.431 80.024 335.488 80.2621C335.546 80.5001 335.833 80.6638 336.14 80.634L339.65 80.2026L329.179 89.6356L324.902 86.4515C324.787 86.3623 324.633 86.3176 324.48 86.3325C324.327 86.3325 324.173 86.392 324.077 86.4813L310.039 99.1281L305.973 96.7624C305.743 96.6285 305.436 96.6434 305.225 96.7922L292.625 106.166C292.395 106.329 292.395 106.612 292.606 106.791C292.721 106.88 292.875 106.924 293.028 106.924C293.162 106.924 293.316 106.88 293.431 106.805L305.686 97.6849L309.809 100.08C310.058 100.214 310.384 100.199 310.595 100.021L324.576 87.4187L328.853 90.6027C328.968 90.6919 329.121 90.7366 329.274 90.7217C329.428 90.7217 329.581 90.6622 329.677 90.5729L340.858 80.5001L340.781 84.0263C340.781 84.2793 341.031 84.4727 341.357 84.4727C341.663 84.4727 341.932 84.2793 341.932 84.0263L342.028 79.5181C342.008 79.414 341.932 79.2801 341.798 79.1908Z" fill="#4267AC"/>
<path fill-rule="evenodd" clip-rule="evenodd" d="M333.475 95.8214H323.465C323.078 95.8214 322.764 96.0781 322.764 96.3948V123.021C322.764 123.338 323.078 123.595 323.465 123.595H333.475C333.863 123.595 334.177 123.338 334.177 123.021V96.3948C334.177 96.0781 333.863 95.8214 333.475 95.8214Z" fill="#4267AC"/>
<path fill-rule="evenodd" clip-rule="evenodd" d="M301.178 109.708H291.188C290.802 109.708 290.488 109.964 290.488 110.281V123.023C290.488 123.339 290.802 123.595 291.188 123.595H301.178C301.565 123.595 301.878 123.339 301.878 123.023V110.281C301.878 109.964 301.565 109.708 301.178 109.708Z" fill="#4267AC"/>
<path fill-rule="evenodd" clip-rule="evenodd" d="M316.2 104.469H306.265C305.881 104.469 305.569 104.724 305.569 105.039V123.066C305.569 123.381 305.881 123.636 306.265 123.636H316.2C316.584 123.636 316.896 123.381 316.896 123.066V105.039C316.896 104.724 316.584 104.469 316.2 104.469Z" fill="#4267AC"/>
<path d="M305.3 279.824C289.439 302.416 263.452 315.575 237.823 323.582" stroke="#4267AC" stroke-width="2" stroke-linecap="round"/>
<path d="M50.3899 291.221C66.2507 313.814 92.2378 326.973 117.867 334.98" stroke="#4267AC" stroke-width="2" stroke-linecap="round"/>
<path d="M196.675 250.345C178.611 272.301 151.115 277.023 131.056 280.444C118.361 282.596 107.428 284.473 103.267 289.474L98.5257 295.237L92.7592 290.382C43.179 248.716 36.2794 177.354 77.0393 127.73C78.6353 125.79 80.2737 123.912 81.9531 122.097L83.5565 120.148L86.1106 119.756C113.641 115.502 130.363 127.551 135.753 155.464C137.683 167.085 138.744 178.823 138.927 190.59C139.717 206.58 140.189 221.487 144.87 229.922C146.385 233.663 149.867 236.358 154.014 236.999C159.057 237.763 166.188 235.876 175.143 231.319C181.774 227.598 188.926 224.786 196.377 222.967L196.987 222.226L204.204 222.267L209.86 229.347L207.173 232.613C205.08 238.406 201.955 243.81 197.937 248.586L196.675 250.345Z" fill="#58E5AA"/>
<path d="M273.037 274.536C231.597 324.914 155.802 334.91 101.605 297.145L95.3228 292.746L100.304 287.03C105.693 280.819 116.603 278.971 130.392 276.618C150.884 273.122 176.347 268.783 193.439 248.008L194.794 246.361C198.812 241.658 201.835 236.256 203.7 230.452C203.983 228.978 203.875 227.921 203.384 227.332C202.893 226.742 202.645 226.422 200.282 226.47C197.918 226.517 191.187 227.638 177.14 234.768C170.843 238.393 163.66 240.383 156.31 240.538C150.067 240.397 144.423 236.957 141.672 231.606C136.549 222.352 135.926 207.685 135.24 190.665C135.046 179.138 134.007 167.639 132.13 156.252C127.608 133.161 117.545 123.131 99.2713 122.743C96.4678 122.776 93.665 122.808 90.8618 122.841C87.7607 122.877 84.1147 123.389 81.0916 122.906C91.1189 111.714 104.025 102.195 117.707 95.4313C130.054 89.3274 143.487 85.265 157.248 83.3846C171.043 81.4999 185.165 81.809 198.845 84.356C203.05 85.1393 207.212 86.1328 211.308 87.3346C217.367 89.1133 223.296 91.2376 229.013 93.8598L234.099 96.2092L232.99 101.456C228.74 121.877 232.732 125.668 239.928 132.571C247.717 140.053 258.722 150.522 259.971 191.039C259.828 201.856 261.739 212.606 265.608 222.775C269.292 231.319 276.013 238.354 284.59 242.641L290.781 245.907L287.834 251.862C283.804 259.925 278.844 267.53 273.037 274.536Z" fill="#4267AC"/>
<path d="M281.617 245.741C272.728 240.98 265.787 233.491 261.914 224.491C257.857 213.795 255.886 202.485 256.096 191.11C254.884 152.13 245.022 142.873 237.214 135.244C230.11 128.454 225.348 122.265 228.51 103.958L230.276 93.7891L239.45 99.2479C243.817 101.776 248.018 104.558 252.032 107.571C278.087 127.016 294.905 155.604 298.74 186.961C301.063 205.529 298.789 224.354 292.099 241.929L289.1 249.754L281.617 245.741Z" fill="#58E5AA"/>
<path d="M60.6738 204.116C78.7441 240.954 114.383 252.411 152.085 250.882C184.368 249.573 213.591 242.563 243.604 230.224C253.618 226.106 263.946 222.433 273.137 216.432C276.021 214.549 278.493 211.362 281.683 210.246" stroke="#466DB6" stroke-linecap="round"/>
<path d="M270.423 137.091C272.963 149.409 273.581 162.332 271.969 175.526C263.979 240.914 203.208 288.709 135.496 282.924C113.391 281.036 93.1324 273.742 75.9743 262.513C74.7879 261.737 73.3371 263.061 74.0549 264.261C97.3186 303.147 143.428 328.235 196.381 320.855C241.867 314.517 279.282 282.662 292.198 239.942C303.798 201.579 294.777 163.971 272.831 136.054C271.962 134.949 270.142 135.729 270.423 137.091Z" fill="#331527" fill-opacity="0.21"/>
<path d="M154.65 471.937L223.401 484.942L222.667 555.552L148.804 554.768L154.65 471.937Z" fill="#FF923A"/>
<path d="M148.804 554.768L222.667 555.552L222.949 528.426L151.111 522.087L148.804 554.768Z" fill="#FF923A"/>
<path d="M223.049 519.189L223.115 512.49L210.387 516.078L223.049 519.189Z" fill="#BC796B"/>
<path d="M151.966 510.615L153.106 493.828L176.769 510.428L151.966 510.615Z" fill="#BC796B"/>
<path d="M240.825 424.352L223.065 427.981" stroke="#FF923A" stroke-width="32" stroke-miterlimit="10" stroke-linecap="round"/>
<path d="M224.238 406.312L205.09 414.792" stroke="#FF923A" stroke-width="36" stroke-miterlimit="10" stroke-linecap="round"/>
<path d="M203.272 396.051L179.244 410.247" stroke="#FF923A" stroke-width="40" stroke-miterlimit="10" stroke-linecap="round"/>
<path d="M162.295 439.304L162.295 439.304C155.026 439.675 148.88 433.929 148.681 426.577L146.041 328.896C145.882 323.017 150.396 318.086 156.208 317.788C162.02 317.491 167.003 321.936 167.433 327.801L174.568 425.252C175.105 432.587 169.564 438.932 162.295 439.304Z" fill="#FF923A"/>
<path d="M216.232 423.121L162.106 406.579C155.888 404.678 149.572 409.238 149.334 415.799L147.976 453.159C146.677 488.896 176.111 518.372 211.417 515.961C217.191 515.567 221.946 514.396 224.851 512.095C233.156 505.517 238.369 483.252 241.429 463.856C244.276 445.812 233.538 428.41 216.232 423.121Z" fill="#FF923A"/>
<path d="M202.085 421.666L169.099 417.391" stroke="#BC796B" stroke-width="3" stroke-miterlimit="10"/>
<path d="M172.674 399.376C173.199 406.549 173.661 412.868 173.998 417.465" stroke="#BC796B" stroke-width="3" stroke-miterlimit="10"/>
<path d="M156.718 450.759C154.646 446.843 152.197 442.742 149.322 438.662C146.417 434.54 143.628 431.001 140.968 427.971" stroke="#BC796B" stroke-width="6" stroke-miterlimit="10"/>
<path d="M185.008 461.365C198.284 477.553 200.312 497.991 189.539 507.014C178.766 516.037 159.271 510.229 145.995 494.041C132.72 477.852 130.692 457.414 141.465 448.391C152.238 439.368 171.733 445.177 185.008 461.365Z" fill="#FF923A"/>
<path d="M141.465 448.391C152.238 439.368 171.733 445.177 185.008 461.365" stroke="#BC796B" stroke-width="3" stroke-miterlimit="10"/>
<path d="M157.898 492.031C167.127 488.88 167.658 479.586 166.44 475.131C165.222 470.676 160.492 454.511 149.323 438.662C136.344 420.244 125.678 413.493 118.534 411.529C113.022 410.014 107.482 411.232 104.749 414.681C102.621 417.367 102.437 421.556 105.31 425.81C107.845 429.564 120.467 440.561 127.501 453.003C134.534 465.445 139.384 480.735 141.042 485.037C142.701 489.34 148.939 495.089 157.898 492.031Z" fill="#FF923A"/>
<path d="M118.863 421.797C122.046 425.83 120.795 428.836 118.063 431.038C115.331 433.24 112.154 433.804 108.971 429.771C105.788 425.738 103.004 422.631 108.154 418.481C113.303 414.331 115.68 417.764 118.863 421.797Z" fill="#EDB581" fill-opacity="0.95"/>
<path d="M236.04 472.23C231.314 471.609 227.948 467.281 228.469 462.494L232.799 422.661C233.383 417.294 238.214 413.458 243.511 414.154C248.808 414.849 252.507 419.806 251.713 425.145L245.822 464.774C245.114 469.537 240.765 472.851 236.04 472.23Z" fill="#FF923A"/>
<path d="M235.072 458.295C235.747 454.116 238.247 453.229 241.078 453.697C243.908 454.164 245.999 455.807 245.323 459.987C244.648 464.167 244.311 467.59 238.974 466.709C233.638 465.829 234.396 462.475 235.072 458.295Z" fill="#EDB581" fill-opacity="0.95"/>
<path d="M240.083 471.8C238.826 472.25 237.449 472.415 236.039 472.23C231.313 471.609 227.948 467.281 228.468 462.494L232.799 422.661C232.854 422.151 232.947 421.656 233.076 421.177" stroke="#BC796B" stroke-width="3" stroke-miterlimit="10"/>
<path d="M218.159 465.247C212.738 464.645 208.79 459.769 209.279 454.28L213.644 405.216C214.196 399.023 219.671 394.495 225.787 395.175C231.902 395.855 236.273 401.478 235.479 407.644L229.185 456.493C228.481 461.959 223.58 465.85 218.159 465.247Z" fill="#FF923A"/>
<path d="M215.437 450.282C216.057 445.389 218.931 444.255 222.246 444.684C225.561 445.113 228.06 446.942 227.44 451.835C226.82 456.729 226.564 460.727 220.317 459.919C214.069 459.111 214.818 455.176 215.437 450.282Z" fill="#EDB581" fill-opacity="0.95"/>
<path d="M234.379 416.183C232.575 430.186 229.185 456.493 229.185 456.493C228.481 461.959 223.58 465.85 218.159 465.247C212.738 464.645 208.79 459.769 209.279 454.28C209.279 454.28 211.804 425.904 213.013 412.312" stroke="#BC796B" stroke-width="3" stroke-miterlimit="10"/>
<path d="M199.053 458.692C193.65 458.32 189.509 453.689 189.689 448.219L191.425 395.352C191.648 388.567 197.393 383.32 204.096 383.781C210.798 384.242 215.786 390.226 215.098 396.98L209.734 449.597C209.18 455.042 204.456 459.063 199.053 458.692Z" fill="#FF923A"/>
<path d="M195.092 443.862C195.485 438.718 198.428 437.381 201.912 437.653C205.396 437.924 208.101 439.701 207.708 444.845C207.316 449.988 207.257 454.179 200.69 453.667C194.123 453.155 194.699 449.005 195.092 443.862Z" fill="#EDB581" fill-opacity="0.95"/>
<path d="M214.969 398.246C214.153 406.258 209.735 449.597 209.735 449.597C209.18 455.042 204.457 459.063 199.053 458.692C193.65 458.32 189.509 453.689 189.689 448.219C189.689 448.219 190.394 426.76 190.906 411.185" stroke="#BC796B" stroke-width="3" stroke-miterlimit="10"/>
<path d="M39.5698 264.79C49.0124 271.697 67.6356 273.845 87.3363 273.558C104.206 273.313 119.476 271.999 135.159 269.685C140.392 268.913 145.789 268.224 150.592 267.099C152.099 266.746 153.391 266.148 155.057 265.939" stroke="#466DB6" stroke-linecap="round"/>
<path d="M122.455 62.3038C121.182 62.2449 119.671 62.9191 118.18 63.6492C113.467 65.9572 109.854 71.0092 103.808 70.9651C101.057 70.9451 96.6501 69.4565 92.1563 68.161L91.6826 71.8123C93.8742 72.2088 96.0458 72.679 98.1825 73.2722C101.904 74.3057 105.65 75.0722 109.433 75.6793C112.459 74.2098 116.812 71.0432 123.597 65.2043C124.603 64.338 123.957 62.3727 122.455 62.3038Z" fill="#FF923A"/>
<path d="M102.478 72.1176C106.2 73.1509 109.946 73.9173 113.729 74.5247C116.755 73.0554 121.108 69.8886 127.892 64.0499C128.899 63.1834 128.253 61.2183 126.751 61.1487C125.477 61.0903 123.966 61.7647 122.476 62.4946C117.762 64.8022 114.15 69.8541 108.103 69.8105C102.058 69.7666 88.0196 62.6274 82.6259 66.041C82.6259 66.041 82.606 66.022 82.5749 65.9936L82.1865 68.9878C89.0691 69.5523 95.9253 70.2981 102.478 72.1176Z" fill="#FF923A"/>
<path d="M106.062 45.0354C104.753 42.9153 102.126 41.5529 99.3873 41.0546C96.649 40.5553 93.7938 40.8277 91.0542 41.326C92.368 41.6793 93.3113 42.6987 93.829 43.7901C94.3467 44.8834 94.5156 46.0683 94.794 47.2234C95.0742 48.3772 95.4935 49.5518 96.4034 50.4355C97.695 51.6873 99.7912 52.1447 101.733 52.0168C103.678 51.8899 105.523 51.2573 107.33 50.6307C107.229 48.7165 107.106 46.7302 106.062 45.0354Z" fill="#8ECB29"/>
<path d="M100.601 46.3151C99.4034 45.0423 98.4143 43.44 96.6094 42.9069C98.3308 44.2261 99.3972 46.0478 100.805 47.6171C102.215 49.1868 104.254 50.5981 106.563 50.4823C104.407 49.2728 102.217 48.0345 100.601 46.3151Z" fill="#B3DB6F"/>
<path d="M102.584 44.4353C102.477 45.298 102.372 46.1687 102.483 47.031C102.593 47.8923 102.942 48.7574 103.635 49.3895C103.599 48.7941 103.463 48.207 103.328 47.6232C103.08 46.5605 102.832 45.4984 102.584 44.4353Z" fill="#B3DB6F"/>
<path d="M99.8747 46.5339C99.9997 46.7593 100.447 46.6347 100.532 46.3967C100.618 46.1592 99.9892 43.1061 99.4888 42.8314C99.6162 44.0651 99.7455 45.3006 99.8747 46.5339Z" fill="#B3DB6F"/>
<path d="M100.219 46.9723C100.371 46.9555 100.539 46.9221 100.614 46.8082C100.697 46.6804 100.605 46.5107 100.463 46.4307C100.317 46.3508 100.138 46.3034 99.9691 46.3276C98.5588 46.5312 97.8487 46.2843 96.4736 46.1105C97.5283 46.7989 98.9033 47.1155 100.219 46.9723Z" fill="#B3DB6F"/>
<path d="M97.8486 48.3892C99.4278 49.1738 101.373 49.3993 103.137 49.0023C103.083 48.8586 103.028 48.7155 102.975 48.5718C101.265 48.5119 99.5589 48.4501 97.8486 48.3892Z" fill="#B3DB6F"/>
<path d="M108.536 63.584C109.473 63.3097 109.65 62.2629 109.67 61.416C109.713 59.3251 109.757 57.2231 109.439 55.15C109.119 53.0763 108.42 51.0138 107.082 49.2646C106.524 49.6983 106.311 50.3812 106.326 51.0259C106.341 51.6711 106.556 52.2986 106.73 52.9266C107.624 56.1484 107.442 59.5831 106.217 62.7236C106.855 63.2553 107.695 63.8299 108.536 63.584Z" fill="#8ECB29"/>
<path d="M121.018 47.3494C120.578 48.3609 119.833 49.3059 118.762 49.874C116.977 50.8204 114.701 50.5708 112.62 50.3421C110.539 50.1138 108.206 49.9967 106.571 51.1207C106.972 48.8467 107.439 46.4425 109.187 44.6952C110.888 42.9897 113.533 42.206 116.109 41.7956C118.686 41.3851 121.341 41.2717 123.827 40.5614C122.768 41.3763 122.257 42.5918 121.955 43.7832C121.652 44.976 121.514 46.2069 121.018 47.3494Z" fill="#8ECB29"/>
<path d="M112.85 47.8936C110.883 48.6211 109.002 49.5154 107.241 50.5585C110.186 47.1238 116.424 46.8728 119.529 43.5422C119.108 44.729 118.014 45.6661 116.784 46.3234C115.556 46.9806 114.179 47.4004 112.85 47.8936Z" fill="#B3DB6F"/>
<path d="M112.051 45.3325C110.888 46.7326 109.724 48.1336 108.562 49.5347C110.277 48.5845 111.32 46.9646 112.051 45.3325Z" fill="#B3DB6F"/>
<path d="M115.355 43.8976C114.741 45.2019 113.841 46.4077 112.716 47.4331C113.16 47.1594 113.258 47.4675 113.657 47.1487C113.887 46.9641 115.355 45.6658 115.355 43.8976Z" fill="#B3DB6F"/>
<path d="M113.658 47.1483C113.574 47.1581 113.479 47.1748 113.442 47.2367C113.361 47.3654 113.587 47.4705 113.758 47.4881C114.655 47.5857 115.565 47.6824 116.462 47.5797C117.358 47.4751 118.256 47.1455 118.808 46.5315C117.091 46.737 115.374 46.9429 113.658 47.1483Z" fill="#B3DB6F"/>
<path d="M117.146 48.6497C114.958 48.8184 112.739 48.7301 110.577 48.3833C110.558 48.7607 111.038 49.0043 111.461 49.1103C113.313 49.5747 115.294 49.1112 117.146 48.6497Z" fill="#B3DB6F"/>
<path d="M95.6938 68.4962C96.9371 67.296 98.8522 65.4873 100.332 64.5032C101.81 63.5182 104.263 62.5425 106.124 62.3678C108.155 62.1781 109.885 62.6732 111.706 63.4652C114.383 64.6306 116.478 66.7809 118.71 68.5008C115.522 70.3741 111.709 71.4024 107.852 71.6032C101.241 71.9467 95.6938 68.4962 95.6938 68.4962Z" fill="#7F6555"/>
<path d="M107.715 71.2597C111.437 72.2928 115.183 73.0595 118.966 73.6671C121.992 72.1978 126.597 69.2568 133.381 63.4182C134.389 62.5519 133.67 61.1448 132.167 61.0754C130.895 61.0168 129.348 61.1231 127.713 61.637C123.584 62.9344 119.387 68.9965 113.341 68.9529C107.295 68.9088 93.2571 61.7695 87.8631 65.1832C87.8631 65.1832 87.8429 65.1642 87.8121 65.1355L87.4243 68.13C94.3065 68.6945 101.162 69.4402 107.715 71.2597Z" fill="#FF923A"/>
<path d="M55.3975 75.0351C55.3975 75.0351 56.3513 82.9463 67.4402 83.9786C67.4402 83.9786 77.2398 75.8227 79.4266 75.1218C85.397 73.2086 94.8056 75.6613 97.3654 75.8201C101.534 76.0782 110.855 76.2197 115.667 76.8534C116.259 76.9315 116.861 76.8192 117.332 76.5302C118.868 75.5885 122.586 73.3696 126.122 71.7299C128.634 70.565 130.756 68.0911 133.84 65.4371C134.846 64.5709 134.128 63.1635 132.626 63.0943C131.353 63.0358 129.805 63.1421 128.171 63.6554C124.041 64.9531 119.844 71.0157 113.798 70.9721C107.753 70.9275 93.7148 63.7882 88.3214 67.2024C88.3214 67.2024 81.8641 60.9933 76.2417 63.6227C70.6193 66.2523 64.0158 71.3608 55.3975 75.0351Z" fill="#FF923A"/>
<path d="M97.4082 66.9375L89.8633 63.41C76.3721 59.8043 77.5835 64.3874 75.6572 65.3183L84.7467 69.3097C84.7467 69.3097 91.4593 66.9847 108.774 70.0831C108.774 70.0831 97.888 66.971 97.4082 66.9375Z" fill="#FF923A"/>
<path d="M114.3 65.8678C114.417 65.5062 114.21 65.1327 113.73 65.0994C109.996 64.8384 95.9132 63.741 87.6265 61.5264C74.135 57.9209 75.1167 64.2818 73.1895 65.2129L84.747 69.3094C84.747 69.3094 86.5591 64.9312 105.806 69.2383C105.806 69.2383 113.043 69.724 114.3 65.8678Z" fill="#FF923A"/>
<path d="M108.733 64.8707C108.733 64.8707 106.423 65.6423 107.659 66.7066C108.296 67.2557 109.392 67.602 111.408 67.2873C112.949 67.047 113.716 66.2535 113.836 65.7261C113.892 65.4825 113.668 65.2544 113.347 65.2294L108.733 64.8707Z" fill="#F9F0DB"/>
<path d="M133.072 64.0784C131.714 63.9277 129.344 64.6093 129.404 67.1281C129.418 67.7135 130.507 67.9615 131.264 67.5005C131.919 67.1006 132.791 66.3558 133.713 65.6279C134.17 65.2664 134.46 64.2324 133.072 64.0784Z" fill="#F9F0DB"/>
<path d="M268.543 19.8246C269.318 18.4028 269.706 16.787 269.706 15.1712C269.706 10.5178 266.475 6.63999 262.144 5.6059C260.464 2.24511 257.039 0.112305 253.29 0.112305C249.412 0.112305 246.051 2.30974 244.436 5.6059C240.041 6.63999 236.874 10.6471 236.874 15.1712C236.874 16.8516 237.326 18.4028 238.037 19.8246C235.452 21.6989 233.901 24.6073 233.901 27.8388C233.901 33.2678 238.36 37.7273 243.789 37.7273C245.017 37.7273 246.245 37.4688 247.409 37.0163C248.12 37.5334 248.895 37.9858 249.735 38.309C249.745 38.309 249.784 38.3206 249.85 38.3405C250.224 38.4526 251.468 38.826 253.225 38.826C254.26 38.826 255.487 38.6967 256.715 38.309C257.556 38.0504 258.396 37.598 259.171 37.081C260.27 37.5334 261.498 37.7273 262.726 37.7273C268.155 37.7273 272.615 33.2678 272.615 27.8388C272.679 24.5427 271.063 21.5697 268.543 19.8246Z" fill="#50B98E"/>
<path d="M268.543 19.8246C269.318 18.4028 269.706 16.787 269.706 15.1712C269.706 10.5178 266.475 6.63999 262.144 5.6059C260.464 2.24511 257.039 0.112305 253.29 0.112305C249.412 0.112305 246.051 2.30974 244.436 5.6059C240.041 6.63999 236.874 10.6471 236.874 15.1712C236.874 16.8516 237.326 18.4028 238.037 19.8246C235.452 21.6989 233.901 24.6073 233.901 27.8388C233.901 33.2678 238.36 37.7273 243.789 37.7273C245.017 37.7273 246.245 37.4688 247.409 37.0163C248.12 37.5334 248.895 37.9858 249.735 38.309C249.745 38.309 249.784 38.3206 249.85 38.3405C250.224 38.4526 251.468 38.826 253.225 38.826C254.26 38.826 255.487 38.6967 256.715 38.309C257.556 38.0504 258.396 37.598 259.171 37.081C260.27 37.5334 261.498 37.7273 262.726 37.7273C268.155 37.7273 272.615 33.2678 272.615 27.8388C272.679 24.5427 271.063 21.5697 268.543 19.8246Z" stroke="black"/>
<path d="M253.29 52.8509V18.4028V52.8509Z" stroke="#408435" stroke-width="1.47" stroke-linecap="round" stroke-linejoin="round"/>
<path d="M259.171 19.8247L253.29 25.7061L259.171 19.8247Z" stroke="#408435" stroke-width="1.47" stroke-linecap="round" stroke-linejoin="round"/>
<path d="M259.171 29.5193L253.29 35.4007L259.171 29.5193Z" stroke="#408435" stroke-width="1.47" stroke-linecap="round" stroke-linejoin="round"/>
<path d="M247.408 24.6073L253.29 30.4887L247.408 24.6073Z" stroke="#408435" stroke-width="1.47" stroke-linecap="round" stroke-linejoin="round"/>
<path d="M229.459 24.5758C229.97 23.6992 230.226 22.703 230.226 21.7069C230.226 18.838 228.097 16.4473 225.245 15.8097C224.138 13.7378 221.882 12.4229 219.413 12.4229C216.859 12.4229 214.645 13.7776 213.581 15.8097C210.686 16.4473 208.6 18.9177 208.6 21.7069C208.6 22.7429 208.898 23.6992 209.367 24.5758C207.664 25.7313 206.642 27.5243 206.642 29.5166C206.642 32.8636 209.579 35.613 213.155 35.613C213.964 35.613 214.773 35.4536 215.539 35.1747C216.007 35.4935 216.518 35.7724 217.072 35.9716C217.078 35.9716 217.104 35.9788 217.147 35.991C217.393 36.0602 218.213 36.2904 219.37 36.2904C220.052 36.2904 220.86 36.2107 221.669 35.9716C222.223 35.8122 222.776 35.5333 223.287 35.2145C224.011 35.4935 224.819 35.613 225.628 35.613C229.204 35.613 232.141 32.8636 232.141 29.5166C232.184 27.4845 231.12 25.6516 229.459 24.5758Z" fill="#50B98E"/>
<path d="M229.459 24.5758C229.97 23.6992 230.226 22.703 230.226 21.7069C230.226 18.838 228.097 16.4473 225.245 15.8097C224.138 13.7378 221.882 12.4229 219.413 12.4229C216.859 12.4229 214.645 13.7776 213.581 15.8097C210.686 16.4473 208.6 18.9177 208.6 21.7069C208.6 22.7429 208.898 23.6992 209.367 24.5758C207.664 25.7313 206.642 27.5243 206.642 29.5166C206.642 32.8636 209.579 35.613 213.155 35.613C213.964 35.613 214.773 35.4536 215.539 35.1747C216.007 35.4935 216.518 35.7724 217.072 35.9716C217.078 35.9716 217.104 35.9788 217.147 35.991C217.393 36.0602 218.213 36.2904 219.37 36.2904C220.052 36.2904 220.86 36.2107 221.669 35.9716C222.223 35.8122 222.776 35.5333 223.287 35.2145C224.011 35.4935 224.819 35.613 225.628 35.613C229.204 35.613 232.141 32.8636 232.141 29.5166C232.184 27.4845 231.12 25.6516 229.459 24.5758Z" stroke="black"/>
<path d="M219.413 44.9369V23.6992V44.9369Z" stroke="#408435" stroke-width="1.47" stroke-linecap="round" stroke-linejoin="round"/>
<path d="M223.287 24.5758L219.413 28.2018L223.287 24.5758Z" stroke="#408435" stroke-width="1.47" stroke-linecap="round" stroke-linejoin="round"/>
<path d="M223.287 30.5525L219.413 34.1784L223.287 30.5525Z" stroke="#408435" stroke-width="1.47" stroke-linecap="round" stroke-linejoin="round"/>
<path d="M215.539 27.5243L219.412 31.1502L215.539 27.5243Z" stroke="#408435" stroke-width="1.47" stroke-linecap="round" stroke-linejoin="round"/>
<path d="M46.74 135.884C46.74 135.884 25.9726 133.453 22.7644 145.293C22.7644 145.293 20.5488 153.21 29.4505 155.558C29.4505 155.558 41.8991 157.882 43.1876 145.091C43.1876 145.091 44.5484 136.523 46.74 135.884Z" fill="#50B98E"/>
<path d="M27.2619 180.267L25.0588 180.252C25.0588 180.252 20.7191 139.877 42.669 137.009C42.669 137.009 28.1555 137.446 27.0529 166.638C26.9025 170.621 27.1966 175.205 27.2619 180.267Z" fill="#308784"/>
<path d="M46.9839 190.925C46.9839 202.257 36.8227 211.527 24.1816 211.527C11.5405 211.527 1.37939 202.257 1.37939 190.925C1.37939 179.592 11.5405 170.323 24.1816 170.323C36.8227 170.323 46.9839 179.592 46.9839 190.925Z" fill="#58E5AA" stroke="#4267AC"/>
<path d="M26.0078 202.865C26.5742 202.865 27.126 202.821 27.6631 202.733C28.2002 202.645 28.7129 202.523 29.2012 202.367L29.4941 204.711C28.9473 204.847 28.376 204.955 27.7803 205.033C27.1846 205.111 26.584 205.15 25.9785 205.15C24.8164 205.15 23.752 204.974 22.7852 204.623C21.8184 204.261 20.9834 203.729 20.2803 203.026C19.5771 202.313 19.0303 201.429 18.6396 200.375C18.2588 199.31 18.0684 198.07 18.0684 196.654V191.776C18.0684 190.35 18.2588 189.105 18.6396 188.041C19.0205 186.976 19.5625 186.088 20.2656 185.375C20.9688 184.662 21.7988 184.13 22.7559 183.778C23.7227 183.417 24.792 183.236 25.9639 183.236C26.5791 183.236 27.1699 183.28 27.7363 183.368C28.3125 183.446 28.8984 183.553 29.4941 183.69L29.2012 186.048C28.7227 185.892 28.21 185.77 27.6631 185.682C27.1162 185.585 26.5596 185.536 25.9932 185.536C25.2119 185.536 24.5039 185.663 23.8691 185.917C23.2441 186.171 22.707 186.551 22.2578 187.059C21.8184 187.567 21.4814 188.212 21.2471 188.993C21.0127 189.774 20.8955 190.692 20.8955 191.747V196.654C20.8955 197.709 21.0127 198.627 21.2471 199.408C21.4912 200.189 21.8379 200.834 22.2871 201.341C22.7363 201.849 23.2734 202.23 23.8984 202.484C24.5332 202.738 25.2363 202.865 26.0078 202.865ZM26.5205 191.278V193.109H15.4609V191.278H26.5205ZM26.5205 195.101V196.918H15.4609V195.101H26.5205Z" fill="#4267AC"/>
</svg>
