<svg width="224" height="187" viewBox="0 0 224 187" fill="none" xmlns="http://www.w3.org/2000/svg">
<g clip-path="url(#clip0_2107_1243)">
<path opacity="0.4" d="M33.7378 12.343H197.489C202.727 12.343 207.75 14.4237 211.453 18.1274C215.157 21.831 217.238 26.8543 217.238 32.092V160.461C217.238 165.699 215.157 170.722 211.453 174.426C207.75 178.129 202.727 180.21 197.489 180.21H33.7378C28.5 180.21 23.4768 178.129 19.7731 174.426C16.0695 170.722 13.9888 165.699 13.9888 160.461V32.092C13.9888 26.8543 16.0695 21.831 19.7731 18.1274C23.4768 14.4237 28.5 12.343 33.7378 12.343Z" fill="#F5F4F6"/>
<path d="M85.0068 96.152V75.714C85.0068 67.3029 88.3481 59.2363 94.2957 53.2888C100.243 47.3413 108.31 44 116.721 44C125.132 44.0003 133.198 47.3417 139.145 53.2892C145.093 59.2367 148.434 67.3031 148.434 75.714V96.152" stroke="url(#paint0_linear_2107_1243)" stroke-width="16.458"/>
<path d="M93.035 89.082H144.876C152.842 89.082 160.481 92.2464 166.114 97.8791C171.747 103.512 174.911 111.151 174.911 119.117V156.147C174.911 164.113 171.747 171.752 166.114 177.385C160.481 183.018 152.842 186.182 144.876 186.182H93.035C85.0692 186.182 77.4297 183.018 71.797 177.385C66.1644 171.752 63 164.113 63 156.147V119.117C63 111.151 66.1644 103.512 71.797 97.8791C77.4297 92.2464 85.0692 89.082 93.035 89.082V89.082Z" fill="#308784"/>
<path d="M93.092 89.082H137.528C146.039 89.082 154.202 92.4631 160.22 98.4816C166.239 104.5 169.62 112.663 169.62 121.174V154.089C169.62 158.303 168.79 162.477 167.177 166.37C165.565 170.264 163.201 173.802 160.221 176.782C157.241 179.762 153.703 182.126 149.809 183.739C145.916 185.352 141.742 186.182 137.528 186.182H93.092C88.8775 186.182 84.7043 185.352 80.8107 183.739C76.917 182.126 73.3792 179.762 70.3992 176.782C67.4191 173.802 65.0553 170.264 63.4426 166.37C61.8299 162.477 60.9999 158.303 61 154.089V121.174C61 112.663 64.3811 104.5 70.3995 98.4816C76.4179 92.4631 84.5807 89.082 93.092 89.082Z" fill="url(#paint1_linear_2107_1243)"/>
<path d="M132.93 131.39C132.93 128.474 132.131 125.613 130.62 123.118C129.11 120.624 126.945 118.59 124.361 117.238C121.777 115.886 118.872 115.267 115.962 115.448C113.051 115.63 110.245 116.604 107.849 118.267C105.453 119.929 103.557 122.216 102.368 124.879C101.179 127.542 100.742 130.479 101.103 133.373C101.465 136.267 102.612 139.007 104.42 141.295C106.228 143.584 108.627 145.333 111.359 146.355L110.847 157.542C110.832 157.862 110.882 158.182 110.993 158.482C111.104 158.783 111.274 159.058 111.492 159.292C111.711 159.526 111.975 159.713 112.267 159.844C112.56 159.974 112.876 160.045 113.196 160.051H121.653C121.977 160.05 122.297 159.984 122.595 159.856C122.892 159.728 123.161 159.541 123.384 159.307C123.607 159.072 123.781 158.795 123.894 158.492C124.008 158.189 124.059 157.866 124.044 157.542L123.468 145.956C126.281 144.699 128.671 142.655 130.349 140.071C132.027 137.487 132.922 134.472 132.926 131.391L132.93 131.39Z" fill="white"/>
<path d="M8.35028 67.6323L8.57003 61.5893L3.46097 64.8306L2.14251 62.5233L7.52624 59.7215L2.14251 56.9198L3.46097 54.6125L8.57003 57.8537L8.35028 51.8107H10.9872L10.7675 57.8537L15.8765 54.6125L17.195 56.9198L11.8113 59.7215L17.195 62.5233L15.8765 64.8306L10.7675 61.5893L10.9872 67.6323H8.35028Z" fill="#325698"/>
<path d="M191.852 24.0193L192.072 17.9763L186.963 21.2175L185.644 18.9102L191.028 16.1085L185.644 13.3067L186.963 10.9994L192.072 14.2406L191.852 8.19768H194.489L194.269 14.2406L199.378 10.9994L200.697 13.3067L195.313 16.1085L200.697 18.9102L199.378 21.2175L194.269 17.9763L194.489 24.0193H191.852Z" fill="#325698"/>
</g>
<defs>
<linearGradient id="paint0_linear_2107_1243" x1="98.3778" y1="113.052" x2="126.966" y2="52.1549" gradientUnits="userSpaceOnUse">
<stop offset="0.01" stop-color="#FCF17E"/>
<stop offset="0.5" stop-color="#99D7B0"/>
<stop offset="1" stop-color="#36BEE3"/>
</linearGradient>
<linearGradient id="paint1_linear_2107_1243" x1="83.898" y1="217.647" x2="139.925" y2="107.874" gradientUnits="userSpaceOnUse">
<stop offset="0.01" stop-color="#FCF17E"/>
<stop offset="0.5" stop-color="#99D7B0"/>
<stop offset="1" stop-color="#36BEE3"/>
</linearGradient>
<clipPath id="clip0_2107_1243">
<rect width="223.502" height="186.182" fill="white"/>
</clipPath>
</defs>
</svg>
