<svg width="388" height="467" viewBox="0 0 388 467" fill="none" xmlns="http://www.w3.org/2000/svg">
<mask id="mask0_2108_4320" style="mask-type:alpha" maskUnits="userSpaceOnUse" x="0" y="0" width="388" height="467">
<rect y="0.474609" width="388" height="466.525" rx="15" fill="#D9D9D9"/>
</mask>
<g mask="url(#mask0_2108_4320)">
<rect y="0.474609" width="388" height="466.525" rx="15" fill="#325698"/>
<path d="M-144.22 332.059C-138.698 277.58 -92.9842 231.74 -47.4949 199.313C1.20721 164.586 55.5005 136.944 112.888 116.62C169.836 96.451 230.953 77.9308 292.65 74.0424C318.999 72.384 359.438 71.6686 380.057 89.5958C403.227 109.726 372.378 137.928 356.237 151.885C373.368 154.801 421.517 158.826 467.036 175.215C479.629 179.747 492.018 185.228 503.495 191.896C540.375 213.315 567.813 246.973 562.178 300.781C554.289 376.073 476.282 419.728 459.81 428.354C451.001 432.968 442.017 437.303 432.86 441.357C431.179 442.101 428.978 443.223 426.519 444.448C418.75 443.816 335.418 437.433 198.867 442.856C94.9746 446.983 -6.58698 459.875 -47.7039 449.509C-62.6376 445.743 -76.7548 439.856 -89.3789 432.011L-89.6018 431.871C-104.762 422.415 -117.858 410.756 -127.468 397.175C-132.103 390.677 -135.906 383.64 -138.793 376.223C-141.363 369.585 -143.113 362.666 -144.006 355.615C-144.963 347.827 -145.036 339.958 -144.223 332.155C-144.226 332.122 -144.222 332.09 -144.22 332.059Z" fill="#2E508F"/>
<path d="M101.566 169.836C105.116 165.127 106.019 155.045 106.019 155.045C106.019 155.045 108.256 166.356 106.414 171.222C104.603 176.022 87.8036 184.124 87.2948 184.339C89.9336 182.002 98.6232 173.751 101.566 169.836Z" fill="#DCDCDC"/>
<path d="M66.9889 138.962L87.0326 140.09L107.074 138.966C107.074 138.966 104.116 150.196 107.074 162.658L124.207 171.249C124.207 171.249 114.417 192.454 87.0464 208.453H87.0326H87.0168C59.6463 192.454 49.8562 171.232 49.8562 171.232L66.9889 162.64C69.9413 150.2 66.9889 138.962 66.9889 138.962Z" fill="#EAA69B"/>
<path d="M107.074 138.962C106.59 141.025 106.25 143.118 106.057 145.226C101.899 149.041 94.8741 158.2 87.0305 158.2C79.187 158.2 72.1718 149.033 68.0065 145.217C67.8126 143.111 67.4726 141.022 66.9888 138.962L87.0325 140.09L107.074 138.962Z" fill="#D76B5E"/>
<path d="M50.2427 97.3882C55.0036 96.3227 60.0348 100.547 61.4844 106.823C62.9339 113.099 60.2438 119.052 55.4829 120.117C50.7219 121.183 45.6928 116.96 44.2412 110.682C42.7897 104.405 45.4837 98.4536 50.2427 97.3882Z" fill="#EAA69B"/>
<path d="M104.5 67.2806L116.58 85.0523V131.817C116.575 132.831 116.325 133.828 115.851 134.728C115.378 135.627 114.694 136.403 113.857 136.991C113.857 136.991 100.309 150.6 86.3323 151.358C72.3532 150.61 58.806 136.991 58.806 136.991C57.9682 136.403 57.2842 135.628 56.8106 134.728C56.337 133.829 56.0874 132.831 56.0824 131.817L55.2166 101.23L63.4309 73.4281L104.5 67.2806Z" fill="#EAA69B"/>
<path d="M83.1887 101.79C83.28 101.799 83.3686 101.826 83.4493 101.869C83.5301 101.912 83.6015 101.97 83.6594 102.04C83.7173 102.111 83.7606 102.191 83.7867 102.278C83.8129 102.365 83.8214 102.456 83.8119 102.546L81.7529 122.266H88.3519C88.5309 122.275 88.6995 122.352 88.8228 122.48C88.9462 122.608 89.0149 122.778 89.0149 122.955C89.0149 123.132 88.9462 123.302 88.8228 123.43C88.6995 123.558 88.5309 123.635 88.3519 123.644H80.9778C80.88 123.644 80.7832 123.624 80.6939 123.585C80.6045 123.545 80.5245 123.488 80.459 123.416C80.3936 123.345 80.3441 123.26 80.3139 123.169C80.2837 123.077 80.2733 122.98 80.2836 122.884L82.4234 102.408C82.4418 102.226 82.5328 102.059 82.6763 101.943C82.8198 101.827 83.004 101.772 83.1887 101.79Z" fill="#D76B5E"/>
<path d="M101.968 93.1888C101.994 95.7395 92.5982 95.7162 92.0164 93.0235C91.0954 88.7638 101.927 88.9583 101.968 93.1888Z" fill="#0D0D0D"/>
<path d="M76.919 95.2223C75.781 97.2851 68.2412 93.1187 68.9867 90.7021C70.176 86.8701 78.8064 91.7967 76.919 95.2223Z" fill="#0D0D0D"/>
<g opacity="0.5">
<path d="M68.9336 110.058C70.2689 110.058 71.5741 110.449 72.6842 111.18C73.7944 111.911 74.6597 112.95 75.1707 114.166C75.6817 115.382 75.8153 116.721 75.5548 118.011C75.2944 119.302 74.6514 120.488 73.7073 121.419C72.7631 122.35 71.5602 122.983 70.2507 123.24C68.9411 123.497 67.5837 123.365 66.3502 122.861C65.1166 122.358 64.0623 121.505 63.3205 120.41C62.5787 119.316 62.1827 118.029 62.1827 116.713C62.1827 114.948 62.894 113.255 64.16 112.007C65.4261 110.759 67.1432 110.058 68.9336 110.058Z" fill="#D76B5E"/>
</g>
<g opacity="0.5">
<path d="M103.765 110.058C105.1 110.058 106.405 110.449 107.516 111.18C108.626 111.911 109.491 112.95 110.002 114.166C110.513 115.382 110.647 116.721 110.386 118.011C110.126 119.302 109.483 120.488 108.539 121.419C107.594 122.35 106.392 122.983 105.082 123.24C103.772 123.497 102.415 123.365 101.181 122.861C99.9479 122.358 98.8935 121.505 98.1517 120.41C97.4099 119.316 97.014 118.029 97.014 116.713C97.014 114.948 97.7253 113.255 98.9913 112.007C100.257 110.759 101.975 110.058 103.765 110.058Z" fill="#D76B5E"/>
</g>
<path d="M87.7742 47.3724C104.834 47.4093 106.936 54.7719 108.311 60.7327C108.311 60.7327 120.933 61.0516 122.848 69.7206C124.763 78.3897 116.768 104.57 116.768 104.57C116.768 104.57 114.084 98.543 112.159 89.8759C110.234 81.2087 107.733 75.8992 102.235 75.7903C96.736 75.6815 89.8668 75.9537 82.4473 80.2872C75.0278 84.6208 67.6063 85.1651 62.3839 81.3721C62.3839 81.3721 60.9875 94.4583 55.2168 101.232C55.2168 101.232 52.4813 75.1002 52.4024 69.3104C52.2072 55.2288 66.6202 47.3277 87.7742 47.3724Z" fill="#2B2B2B"/>
<g opacity="0.44">
<path d="M74.722 66.6235C76.2051 63.3379 66.7483 64.0689 66.7483 64.0689C66.7483 64.0689 91.9553 48.9179 99.7258 62.6088C99.7258 62.6088 93.0538 59.3232 85.092 69.5437C77.1301 79.7642 58.7983 72.1002 58.7983 72.1002C58.7983 72.1002 73.2389 69.9053 74.722 66.6235Z" fill="#626262"/>
</g>
<path d="M122.144 97.3881C126.905 98.4535 129.591 104.407 128.145 110.682C126.7 116.958 121.669 121.181 116.904 120.117C112.139 119.054 109.457 113.101 110.904 106.823C112.352 100.545 117.385 96.3227 122.144 97.3881Z" fill="#EAA69B"/>
<path d="M59.0547 106.501C60.238 111.203 62.5889 122.519 62.5889 122.519C63.8018 125.565 65.9042 128.52 69.2136 130.626C70.7125 131.576 72.7182 132.376 74.5918 131.971C75.3807 131.802 76.0493 131.436 76.712 131.09C80.0647 129.341 84.1827 127.892 88.2869 128.563C91.048 129.01 93.3812 130.352 95.8504 131.386C98.3196 132.42 101.373 133.167 103.915 132.327C105.57 131.781 106.696 130.655 107.636 129.529C108.455 128.551 109.202 127.518 109.873 126.436L110.192 125.911C110.607 123.077 111.993 113.846 112.993 109.891C113.993 105.937 116.149 104.821 116.768 104.576L116.58 131.823C116.575 132.837 116.325 133.834 115.852 134.734C115.378 135.633 114.694 136.409 113.857 136.997C113.857 136.997 100.31 150.606 86.3325 151.364C72.3534 150.616 58.8062 136.997 58.8062 136.997C57.9683 136.409 57.2844 135.634 56.8108 134.734C56.3372 133.835 56.0875 132.837 56.0826 131.823L55.2167 101.236C55.2167 101.236 57.8674 101.79 59.0547 106.501Z" fill="#2B2B2B"/>
<path d="M49.2842 101.706L49.7536 101.068C51.497 102.54 52.8618 105.021 53.2701 107.964C53.6449 110.861 53.1656 113.803 51.8895 116.439L51.2978 116.134C51.7534 113.453 52.0059 110.9 51.639 108.497C51.2722 106.094 50.3709 103.928 49.2842 101.706Z" fill="#D76B5E"/>
<path d="M122.678 101.068L123.146 101.706C122.061 103.932 121.136 106.088 120.779 108.497C120.422 110.906 120.663 113.453 121.12 116.134L120.529 116.439C119.253 113.803 118.773 110.861 119.148 107.964C119.57 105.021 120.935 102.54 122.678 101.068Z" fill="#D76B5E"/>
<path d="M14.5001 369.148C14.5849 367.828 14.6461 366.621 14.7309 365.427C15.0109 361.131 15.4014 357.651 15.9142 355.164L54.2937 351L58.9698 350.496L148.114 340.209C148.114 340.209 148.688 345.97 148.943 350.708C148.954 350.959 148.968 351.235 148.992 351.511C149.065 352.747 149.138 354.116 149.223 355.617C149.601 362.7 150.136 372.613 150.745 384.676C152.23 414.144 152.915 420.078 154.392 465.101C147.061 466.338 139.756 467.599 132.39 468.571C119.7 470.256 106.947 471.448 94.1286 472.147C89.2138 453.448 87.78 440.61 84.4785 427.287C84.4667 427.215 84.443 427.143 84.4312 427.092L78.3962 456.71L77.2405 472.847C73.6116 472.944 69.9873 473.004 66.3676 473.027C49.8009 473.123 33.2205 472.792 16.6262 472.032C14.3858 427.86 13.1867 403.704 14.368 372.102C14.4134 371.081 14.4489 370.097 14.5001 369.148Z" fill="#24478F"/>
<path d="M14.9596 365.439C15.2397 361.142 15.6282 357.662 16.143 355.176L54.5224 351.011C70.9839 352.331 87.446 353.647 103.909 354.96C119.057 356.161 134.399 357.373 149.449 355.632C149.826 362.715 150.363 372.628 150.97 384.692C105.114 388.668 58.9064 384.402 14.5967 372.102C14.6441 371.093 14.6815 370.109 14.7289 369.16C14.8137 367.84 14.8748 366.627 14.9596 365.439Z" fill="#253D69"/>
<path d="M82.5142 431.132L77.2366 472.829C73.6077 473.37 67.263 472.121 66.3637 473.01C65.1212 447.384 65.559 441.341 62.6973 412.69C66.8981 416.291 75.0395 421.392 82.7232 424.046C82.9362 425.105 82.528 431.198 82.5142 431.132Z" fill="#757575"/>
<path d="M76.6253 356.939C74.9062 378.334 75.3687 399.845 78.0059 421.149L76.858 421.287C74.212 399.907 73.7495 378.319 75.4775 356.848L76.6253 356.939Z" fill="#323B5D"/>
<path d="M64.6971 357.312C63.498 368.651 62.2575 380.376 64.4467 391.714C64.9594 394.351 65.8016 397.714 67.7777 400.354C69.7776 403.024 72.7497 404.544 75.5325 404.313L75.6292 405.45C75.4142 405.467 75.1992 405.475 74.9842 405.475C72.0003 405.475 68.9334 403.815 66.8468 401.031C64.7326 398.206 63.8471 394.683 63.3107 391.928C61.0899 380.425 62.3383 368.614 63.5473 357.194L64.6971 357.312Z" fill="#323B5D"/>
<path d="M138.88 366.845C139.048 370.71 139.221 374.705 139.533 377.279L139.549 377.413C139.924 380.487 140.338 383.971 141.549 386.733C142.882 389.803 144.988 391.495 147.988 391.905L147.828 393.034C140.156 391.987 139.184 383.98 138.401 377.549L138.383 377.413C138.068 374.796 137.892 370.78 137.725 366.893C137.683 365.956 137.644 365.021 137.602 364.109L138.75 364.059C138.799 364.97 138.839 365.906 138.88 366.845Z" fill="#323B5D"/>
<path d="M20.4701 387.354C21.7284 383.7 21.8507 379.639 21.967 375.71V375.446C22.0873 371.406 22.1248 369.141 22.1248 362.847H23.2805C23.2805 369.154 23.243 371.425 23.1227 375.484V375.751C23.0044 379.762 22.8802 383.916 21.5667 387.727C20.3478 391.252 17.5532 395.253 13.3642 395.908L13.1827 394.782C16.216 394.302 19.0757 391.388 20.4701 387.354Z" fill="#575757"/>
<path d="M-29.0388 240.953L-28.1 241.576L-3.28352 241.852L4.65467 241.949C5.17538 242.134 5.68049 242.359 6.16538 242.622C6.68802 242.921 7.91868 244.601 9.17302 246.594C8.59126 248.193 7.91223 249.756 7.13964 251.275C5.12995 255.272 1.79297 260.817 -3.73516 268.355C-4.73311 269.716 -5.80405 271.152 -6.96174 272.653C-7.33844 273.157 -7.71514 273.625 -8.10564 274.094C-8.10564 274.105 -8.08195 274.129 -8.08195 274.14C-0.482981 293.118 28.8242 325.682 28.8242 325.682L15.139 347.42C14.9082 347.372 -44.9507 295.688 -48.8478 276.769C-50.1751 270.324 -43.7949 259.855 -37.9374 251.899C-33.3244 245.647 -29.0388 240.953 -29.0388 240.953Z" fill="#EAA69B"/>
<path d="M-28.1 241.576L-3.28352 241.852C0.184964 244.997 3.65933 248.139 7.13965 251.275L-3.73516 268.355C-15.7497 264.208 -27.229 258.685 -37.9374 251.899C-33.3224 245.645 -29.0368 240.952 -29.0368 240.952L-28.1 241.576Z" fill="#D76B5E"/>
<path d="M50.3944 167.866C55.7391 193.782 9.18877 270.625 9.18877 270.625L-32.6855 239.107C-32.6855 239.107 -5.19666 200.165 9.79223 183.136C24.7811 166.107 48.793 160.162 50.3944 167.866Z" fill="#C31F4B"/>
<path d="M29.0552 170.724C34.7293 165.086 48.7932 163.437 57.9739 162.947C62.6618 162.708 66.0837 162.78 66.4722 162.769C65.8154 181.481 85.2241 193.52 85.2241 193.52C85.2241 193.52 107.421 184.506 106.581 161.94C107.045 161.975 111.794 162.576 117.823 163.873C126.625 165.78 138.137 169.19 142.87 174.591C148.838 181.396 159.65 186.906 152.453 237.582C141.3 316.127 152.771 369.076 152.771 369.076C136.551 374.442 32.6505 377.73 9.05289 368.079C9.05289 368.079 12.1828 259.68 15.0919 232.901C20.6279 182.043 22.6139 177.109 29.0552 170.724Z" fill="#C31F4B"/>
<path d="M66.472 162.778C65.8153 181.491 85.2239 193.529 85.2239 193.529C85.2239 193.529 107.421 184.516 106.581 161.95C107.045 161.985 111.794 162.586 117.823 163.883C115.874 175.898 109.342 187.191 99.6783 194.778C94.515 198.835 87.8667 201.955 81.4372 200.456C76.6645 199.339 72.8285 195.859 69.7597 192.097C63.0147 183.84 58.8868 173.528 57.9737 162.965C62.6617 162.718 66.0835 162.79 66.472 162.778Z" fill="#7A082A"/>
<path d="M75.0474 338.349C94.0911 348.359 115.338 351.851 136.111 350.062C123.351 353.964 109.859 352.823 96.8799 350.148C81.8417 347.037 66.8528 341.769 54.128 331.735C41.4032 321.701 31.1141 306.42 28.8244 290.168C39.2456 311.628 56.0016 328.338 75.0474 338.349Z" fill="#AD1842"/>
<path d="M129.678 354.756C116.407 361.43 100.929 362.338 86.0623 361.418C74.3966 360.697 62.6717 358.891 51.9073 354.408C40.8701 349.78 31.2143 342.451 23.8544 333.115C54.0649 354.289 93.4187 362.33 129.678 354.756Z" fill="#AD1842"/>
<path d="M13.4806 261.529C10.0233 238.759 12.6049 216.995 21.5903 186.029C17.6557 215.652 15.8926 234.592 13.4806 261.529Z" fill="#AD1842"/>
<path d="M13.859 246.92C14.358 248.732 13.9557 258.095 13.4804 261.132C5.98595 239.214 4.54421 209.073 7.77077 192.546C8.70758 211.762 9.03696 229.275 13.859 246.92Z" fill="#AD1842"/>
<path d="M134.017 251.038C143.696 241.747 153.378 232.481 163.081 222.637C163.947 238.877 164.787 255.274 162.145 271.335C159.502 287.396 150.992 312.769 140.154 314.041C136.867 297.418 133.58 280.79 130.293 264.157C129.733 261.336 129.197 258.311 130.331 255.646C131.118 253.834 132.591 252.405 134.017 251.038Z" fill="#D76B5E"/>
<path d="M132.346 167.892C144.12 169.043 156.37 180.746 160.815 195.571C167.852 219.072 169.493 238.121 171.773 267.528C156.737 269.642 139.75 272.403 124.7 270.939C119.225 238.037 120.974 166.336 132.346 167.892Z" fill="#C31F4B"/>
<path d="M128.495 268.117C122.395 239.322 120.142 208.739 130.175 181.658C125.898 210.291 125.333 239.344 128.495 268.117Z" fill="#AD1842"/>
<path d="M150.757 280.517C155.469 292.303 151.597 309.071 142.586 313.911C139.543 315.542 116.103 314.521 110.368 284.898C104.633 255.274 100.578 202.401 100.578 202.401L120.694 198.355C123.41 211.414 142.32 259.427 150.757 280.517Z" fill="#EAA69B"/>
<path d="M82.0862 166.496C78.3843 162.319 85.5316 154.685 90.3695 153.738C95.2074 152.791 103.765 156.81 103.765 156.81C103.765 156.81 102.485 148.36 99.0039 147.015C95.5229 145.67 88.3973 146.523 89.8469 142.851C91.2965 139.178 102.826 138.278 107.954 144.556C113.082 150.833 113.529 162.092 113.529 162.092L119.326 198.355L99.209 202.401C90.2334 196.482 89.5885 184.837 89.5885 184.837C76.1774 182.749 81.3052 173.891 81.3052 173.903C78.2758 169.46 82.0862 166.496 82.0862 166.496Z" fill="#D76B5E"/>
<path d="M83.459 165.85C79.7571 161.674 86.9044 154.039 91.7423 153.091C96.5802 152.142 105.136 156.164 105.136 156.164C105.136 156.164 103.858 147.713 100.375 146.37C96.8918 145.026 89.7701 145.878 91.2197 142.205C92.6693 138.533 104.199 137.631 109.325 143.908C114.451 150.186 114.902 161.445 114.902 161.445L120.698 198.355L100.582 202.401C91.6082 196.483 90.9633 184.192 90.9633 184.192C77.5522 182.104 82.68 173.244 82.68 173.256C79.6467 168.815 83.459 165.85 83.459 165.85Z" fill="#EAA69B"/>
<path d="M91.5056 175.909C91.4877 175.858 91.4803 175.804 91.4836 175.75C91.4869 175.696 91.5009 175.644 91.5249 175.595C91.5489 175.546 91.5824 175.503 91.6234 175.467C91.6644 175.431 91.7122 175.404 91.764 175.386C91.8158 175.369 91.8706 175.361 91.9253 175.365C91.98 175.368 92.0335 175.382 92.0827 175.405C92.132 175.429 92.1761 175.462 92.2124 175.502C92.2487 175.543 92.2766 175.59 92.2945 175.641C92.3201 175.713 92.902 177.42 90.6812 179.212C90.5958 179.273 90.49 179.3 90.3855 179.286C90.2809 179.273 90.1854 179.221 90.1185 179.141C90.0516 179.06 90.0183 178.958 90.0254 178.854C90.0325 178.75 90.0794 178.653 90.1567 178.582C91.8883 177.179 91.5253 175.97 91.5056 175.909Z" fill="#D76B5E"/>
<path d="M91.2729 169.581C91.3801 169.602 91.4743 169.665 91.5347 169.755C91.5952 169.845 91.617 169.955 91.5953 170.06C91.5736 170.166 91.5102 170.259 91.419 170.319C91.3279 170.378 91.2164 170.4 91.1091 170.378C85.3325 169.212 83.1256 173.258 83.0349 173.432C82.9996 173.499 82.9466 173.554 82.8816 173.593C82.8166 173.632 82.742 173.652 82.6661 173.652C82.5976 173.653 82.5299 173.638 82.4688 173.607C82.3713 173.558 82.2978 173.472 82.2641 173.369C82.2305 173.266 82.2396 173.154 82.2894 173.057C82.3249 173.011 84.8671 168.298 91.2729 169.581Z" fill="#D76B5E"/>
<path d="M87.5474 163.107C90.9751 161.841 94.2707 162.041 97.0772 163.69C97.1647 163.749 97.2263 163.838 97.2492 163.94C97.2721 164.041 97.2546 164.148 97.2004 164.237C97.1462 164.327 97.0593 164.393 96.9576 164.421C96.8558 164.449 96.7469 164.438 96.6531 164.39C90.4012 160.721 83.7903 166.097 83.7252 166.151C83.6415 166.221 83.5332 166.255 83.4241 166.246C83.315 166.237 83.214 166.185 83.1434 166.103C83.0728 166.02 83.0383 165.914 83.0476 165.806C83.0568 165.698 83.109 165.599 83.1927 165.529C84.5071 164.503 85.9764 163.685 87.5474 163.107Z" fill="#D76B5E"/>
<path d="M88.6991 176.741C89.5481 177.547 90.2186 178.517 90.6684 179.59C91.1181 180.664 91.3374 181.817 91.3123 182.978C91.3067 183.083 91.2607 183.182 91.1837 183.254C91.1067 183.326 91.0045 183.367 90.8981 183.367H90.8863C90.778 183.362 90.6762 183.315 90.6025 183.236C90.5288 183.158 90.4891 183.054 90.4918 182.947C90.5144 181.901 90.3167 180.861 89.9114 179.893C89.5062 178.925 88.902 178.051 88.137 177.325C88.0709 177.248 88.0359 177.15 88.039 177.049C88.0421 176.949 88.083 176.853 88.1537 176.78C88.2244 176.707 88.3199 176.663 88.4218 176.656C88.5236 176.649 88.6246 176.679 88.705 176.741H88.6991Z" fill="#D76B5E"/>
<path d="M86.8453 133.112C90.3559 132.179 95.9431 134.992 93.4759 138.035C92.0559 139.785 89.8372 138 87.9695 139.332C86.3167 140.514 84.451 144.212 82.2362 141.305C80.6979 139.277 81.0726 134.646 86.8453 133.112Z" fill="white"/>
<path d="M96.5604 106.915C95.0475 106.915 93.821 105.104 93.821 102.871C93.821 100.637 95.0475 98.8268 96.5604 98.8268C98.0733 98.8268 99.2998 100.637 99.2998 102.871C99.2998 105.104 98.0733 106.915 96.5604 106.915Z" fill="#0D0D0D"/>
<path d="M73.3295 106.915C71.8165 106.915 70.59 105.104 70.59 102.871C70.59 100.637 71.8165 98.8268 73.3295 98.8268C74.8424 98.8268 76.0688 100.637 76.0688 102.871C76.0688 105.104 74.8424 106.915 73.3295 106.915Z" fill="#0D0D0D"/>
<path d="M-8.95152 60.8047C-5.51196 58.3044 -0.07654 56.4555 5.81449 56.2572L7.20689 56.2106C13.6758 56.3875 20.5312 58.6233 24.3258 62.7877C26.7063 65.4143 27.9685 68.8671 28.2446 72.1197C28.3979 73.8548 28.2586 75.603 27.8324 77.2932C26.799 81.5392 23.9885 83.8606 20.7837 84.1289L20.4622 84.1405C17.352 84.2455 14.0761 82.3714 12.6581 80.9054C12.2699 80.4994 12.0347 79.9745 11.9915 79.4181C11.9087 78.4674 12.5832 77.647 13.2655 76.7508C14.4489 75.5201 15.9596 74.2758 15.9951 72.2072L16.0267 71.3285C15.8472 69.2676 14.5613 66.7674 12.6068 65.3229C10.999 64.1923 9.05853 63.6143 7.08459 63.6781C6.14188 63.7029 5.21163 63.8966 4.33927 64.2497C1.84638 65.286 0.217323 67.5665 0.148294 70.508L0.134476 71.6201C0.424549 74.5498 1.63846 77.3163 3.60561 79.5309C5.87169 82.0797 8.90495 83.6428 11.2795 84.996C13.6462 86.2694 15.2457 87.4068 16.2259 90.0761C16.7846 91.4351 17.1253 92.8715 17.2357 94.3338C17.3895 96.1575 17.2179 97.9111 16.6795 99.1223C15.6934 101.381 13.3543 101.702 11.315 101.768C9.27576 101.834 7.55204 101.735 6.77893 100.332C6.00582 98.8463 5.99002 96.1458 4.4438 94.3708C2.78319 92.5977 -0.514391 91.752 -3.56936 89.9497C-6.82558 88.0053 -9.50439 85.2492 -11.336 81.9592C-12.8372 79.293 -13.7492 76.344 -14.0123 73.3057L-14.028 70.6013C-13.9176 66.8549 -12.5922 63.4721 -8.95152 60.8047Z" fill="#FCD224"/>
<path d="M6.57966 105.431C8.27972 103.94 9.78646 103.971 12.5574 103.72C14.1668 103.666 15.8984 103.847 17.3539 104.515C19.7068 105.626 21.0459 107.492 21.3733 110.021C21.4457 110.933 21.3083 111.848 20.9716 112.7C20.6349 113.552 20.1075 114.317 19.4287 114.94C18.1369 116.175 15.9359 116.806 14.0011 116.869L13.2596 116.89C8.8398 116.723 5.01369 113.507 4.72377 110.099C4.63638 109.232 4.75904 108.356 5.08167 107.545C5.4043 106.733 5.91771 106.009 6.57966 105.431Z" fill="#FCD224"/>
<path d="M235.999 405.955L495.691 405.742C495.691 405.742 487.981 481.358 383.819 479.951C296.055 478.765 269.051 443.806 156.636 463.732C154.688 464.078 152.741 464.402 150.795 464.704H150.777C123.931 470.611 92.4168 474.011 58.7095 474.011C-39.3671 474.011 -119.24 445.22 -119.24 409.702C-119.24 408.749 -119.043 406.447 -119.017 406.241L235.999 405.955Z" fill="#2E508F"/>
<path d="M178.282 103.913C158.725 84.6338 158.725 53.3767 178.282 34.0979C197.839 14.8192 229.547 14.8192 249.104 34.0979C268.661 53.3767 268.661 84.6338 249.104 103.913C229.547 123.191 197.839 123.191 178.282 103.913Z" fill="#375D4E"/>
<path d="M180.759 28.1814C189.758 19.3311 201.778 14.1009 214.476 13.5102C227.174 12.9195 239.64 17.0105 249.445 24.9861C259.251 32.9616 265.692 44.2503 267.515 56.6522C269.337 69.054 266.41 81.6806 259.304 92.0712C252.198 102.462 241.422 109.872 229.076 112.858C216.73 115.843 203.699 114.191 192.521 108.222C181.344 102.253 172.821 92.3954 168.614 80.5701C164.408 68.7449 164.818 55.7992 169.765 44.2559C172.341 38.2472 176.074 32.7882 180.759 28.1814Z" fill="#6CA48D"/>
<path d="M184.977 95.5344C167.277 78.0854 167.277 49.795 184.977 32.346C202.678 14.897 231.377 14.897 249.077 32.346C266.778 49.795 266.778 78.0854 249.077 95.5344C231.377 112.983 202.678 112.983 184.977 95.5344Z" fill="#B2EDD4"/>
<path d="M233.504 34.4922C233.585 34.3566 233.717 34.2582 233.871 34.2187C234.026 34.1791 234.19 34.2016 234.327 34.2813C234.465 34.361 234.565 34.4912 234.605 34.6434C234.645 34.7957 234.622 34.9574 234.541 35.093L230.023 42.6655C229.942 42.8011 229.809 42.8994 229.655 42.9388C229.5 42.9782 229.336 42.9554 229.198 42.8755C229.061 42.7956 228.961 42.6651 228.921 42.5126C228.881 42.3602 228.904 42.1984 228.985 42.0628L233.504 34.4922Z" fill="#375D4E"/>
<path d="M204.137 84.6674C204.177 84.6001 204.23 84.5413 204.293 84.4942C204.356 84.4471 204.428 84.4128 204.505 84.3931C204.581 84.3734 204.661 84.3688 204.739 84.3795C204.818 84.3902 204.893 84.416 204.962 84.4555C205.03 84.4949 205.09 84.5472 205.137 84.6094C205.185 84.6716 205.22 84.7424 205.24 84.8179C205.26 84.8934 205.264 84.972 205.254 85.0492C205.243 85.1265 205.217 85.2009 205.177 85.2681L200.658 92.8504C200.618 92.9176 200.565 92.9762 200.502 93.0231C200.439 93.07 200.367 93.1042 200.29 93.1237C200.214 93.1432 200.134 93.1476 200.056 93.1368C199.977 93.1259 199.902 93.0999 199.834 93.0604C199.766 93.0208 199.706 92.9684 199.659 92.9061C199.611 92.8439 199.576 92.773 199.557 92.6975C199.537 92.6221 199.532 92.5435 199.543 92.4663C199.554 92.3891 199.581 92.3149 199.621 92.2477L204.137 84.6674Z" fill="#375D4E"/>
<path d="M199.719 34.3463C199.788 34.3061 199.863 34.2798 199.942 34.269C200.021 34.2583 200.101 34.2633 200.178 34.2839C200.255 34.3044 200.327 34.3399 200.389 34.3884C200.452 34.4369 200.504 34.4973 200.542 34.566L204.977 42.1833C205.057 42.3197 205.078 42.4817 205.037 42.6336C204.995 42.7855 204.895 42.9151 204.756 42.994C204.688 43.0343 204.612 43.0605 204.534 43.0713C204.455 43.082 204.375 43.077 204.298 43.0565C204.221 43.036 204.149 43.0004 204.087 42.9519C204.024 42.9034 203.972 42.843 203.934 42.7743L199.497 35.157C199.417 35.0203 199.396 34.8583 199.438 34.7063C199.48 34.5543 199.581 34.4249 199.719 34.3463Z" fill="#375D4E"/>
<path d="M229.405 84.3369C229.474 84.2967 229.549 84.2704 229.628 84.2596C229.707 84.2489 229.787 84.2539 229.864 84.2745C229.941 84.295 230.012 84.3305 230.075 84.379C230.138 84.4275 230.189 84.4879 230.228 84.5566L234.665 92.1739C234.737 92.31 234.753 92.4684 234.71 92.6158C234.666 92.7633 234.566 92.8884 234.431 92.965C234.296 93.0416 234.137 93.0638 233.985 93.0269C233.834 92.9899 233.703 92.8968 233.62 92.7669L229.182 85.1476C229.103 85.0109 229.082 84.8488 229.124 84.6969C229.166 84.5449 229.267 84.4155 229.405 84.3369Z" fill="#375D4E"/>
<path d="M188.206 46.2778L195.856 50.7786C195.993 50.8593 196.092 50.9904 196.131 51.1429C196.17 51.2955 196.146 51.4571 196.064 51.5922C195.982 51.7273 195.849 51.8248 195.694 51.8633C195.54 51.9018 195.376 51.878 195.239 51.7973L187.588 47.2985C187.46 47.2139 187.369 47.0837 187.334 46.9349C187.3 46.786 187.325 46.63 187.405 46.4989C187.484 46.3678 187.611 46.2718 187.76 46.2306C187.909 46.1895 188.069 46.2064 188.206 46.2778Z" fill="#375D4E"/>
<path d="M238.921 75.5435L246.573 80.0442C246.686 80.1113 246.774 80.2128 246.822 80.3334C246.871 80.454 246.879 80.587 246.843 80.7121C246.808 80.8372 246.733 80.9476 246.628 81.0264C246.523 81.1052 246.396 81.1481 246.264 81.1485C246.155 81.1484 246.049 81.1188 245.956 81.063L238.304 76.5642C238.175 76.4795 238.084 76.3493 238.05 76.2005C238.016 76.0517 238.041 75.8956 238.12 75.7645C238.2 75.6334 238.327 75.5374 238.476 75.4963C238.625 75.4551 238.784 75.472 238.921 75.5435Z" fill="#375D4E"/>
<path d="M187.464 79.8206L195.215 75.487C195.353 75.4213 195.511 75.4099 195.658 75.4551C195.804 75.5003 195.928 75.5988 196.003 75.7306C196.078 75.8623 196.1 76.0173 196.064 76.1642C196.027 76.3111 195.935 76.4388 195.807 76.5213L188.056 80.8529C187.987 80.893 187.911 80.9192 187.831 80.9299C187.752 80.9406 187.672 80.9356 187.594 80.9152C187.517 80.8948 187.445 80.8595 187.381 80.8112C187.318 80.7629 187.265 80.7027 187.226 80.6341C187.187 80.5654 187.162 80.4897 187.152 80.4114C187.143 80.3331 187.15 80.2538 187.172 80.178C187.194 80.1023 187.231 80.0317 187.281 79.9703C187.332 79.9089 187.394 79.858 187.464 79.8206Z" fill="#375D4E"/>
<path d="M238.347 50.8155L246.098 46.4819C246.237 46.4082 246.399 46.391 246.551 46.434C246.702 46.477 246.83 46.5769 246.908 46.7121C246.985 46.8473 247.006 47.007 246.965 47.157C246.924 47.307 246.825 47.4353 246.69 47.5143L238.939 51.8478C238.87 51.8879 238.794 51.9141 238.715 51.9248C238.635 51.9355 238.555 51.9305 238.477 51.9101C238.4 51.8897 238.328 51.8544 238.265 51.8061C238.201 51.7578 238.149 51.6976 238.109 51.629C238.07 51.5603 238.045 51.4847 238.036 51.4064C238.026 51.3281 238.033 51.2487 238.055 51.173C238.077 51.0972 238.114 51.0266 238.165 50.9652C238.215 50.9038 238.277 50.8529 238.347 50.8155Z" fill="#375D4E"/>
<path d="M219.132 32.6978H219.217L219.761 32.8591C220.308 32.9693 220.581 33.1475 220.58 33.3938V33.5007C220.509 33.7943 220.361 33.9401 220.14 33.9401C219.975 33.929 219.812 33.8943 219.657 33.837V39.1738C219.657 39.3974 219.503 39.5412 219.193 39.6054H219.162C218.899 39.6054 218.74 39.4537 218.684 39.1485V33.1371C218.688 32.9097 218.836 32.7716 219.132 32.6978Z" fill="#375D4E"/>
<path d="M214.152 38.6508H216.479L214.724 36.6717C214.096 36.0897 213.781 35.476 213.781 34.8305C213.785 34.39 213.922 33.9606 214.176 33.5979C214.679 33.0004 215.271 32.7017 215.951 32.7017C216.331 32.7136 216.702 32.8171 217.032 33.003C217.749 33.4761 218.108 34.0853 218.108 34.8305C218.108 35.0755 217.953 35.2194 217.645 35.2816H217.598C217.495 35.2751 217.396 35.2388 217.315 35.1772C217.233 35.1156 217.171 35.0315 217.138 34.9355C217.131 34.787 217.111 34.6394 217.079 34.4942C216.85 33.9518 216.487 33.6815 215.969 33.6815H215.917C215.813 33.6797 215.708 33.6935 215.608 33.7224C215.045 33.9349 214.764 34.3043 214.765 34.8305C214.76 35.0609 214.829 35.2871 214.963 35.476L217.696 38.5497C217.945 38.7772 218.067 38.9658 218.067 39.1174V39.1349C218.067 39.3935 217.913 39.551 217.607 39.6054H214.162C213.892 39.6054 213.732 39.4538 213.685 39.1446V39.1038C213.746 38.7986 213.892 38.6508 214.152 38.6508Z" fill="#375D4E"/>
<path d="M216.724 90.29H216.901L216.144 88.9893C215.848 88.5266 215.698 88.2331 215.698 88.1028C215.771 87.7859 215.925 87.6284 216.158 87.6284C216.289 87.6368 216.415 87.6797 216.523 87.7528L218.444 91.0113C218.743 91.3556 218.923 91.7847 218.958 92.2365C218.994 92.6883 218.883 93.1395 218.641 93.5251C218.145 94.1965 217.554 94.5322 216.866 94.5322H216.775C216.363 94.5282 215.961 94.4045 215.62 94.1764C214.962 93.702 214.633 93.1129 214.633 92.4091C214.642 92.0215 214.754 91.6428 214.957 91.3107C215.441 90.6302 216.03 90.29 216.724 90.29ZM215.629 92.4558L215.677 92.7552C215.899 93.3022 216.275 93.5756 216.805 93.5756C216.95 93.5644 217.095 93.5384 217.235 93.4979C217.728 93.2529 217.974 92.9192 217.974 92.4966V92.3353L217.947 92.0806C217.715 91.5245 217.344 91.2465 216.832 91.2465L216.523 91.2776C215.927 91.4785 215.629 91.8512 215.629 92.3955V92.4558Z" fill="#375D4E"/>
<path d="M245.416 60.0211C245.763 60.0258 246.105 60.1097 246.414 60.2661C247.187 60.7223 247.573 61.3438 247.573 62.1306C247.566 62.4687 247.482 62.8009 247.327 63.1026C246.894 63.8103 246.303 64.1901 245.552 64.2419L246.503 65.5115C246.897 65.982 247.094 66.2865 247.094 66.4252C247.094 66.6877 246.936 66.8491 246.617 66.9093C246.493 66.9031 246.374 66.8597 246.276 66.7849L243.909 63.6626C243.518 63.2431 243.294 62.6983 243.278 62.1286C243.29 61.7587 243.393 61.3971 243.578 61.0749C244.054 60.3724 244.666 60.0211 245.416 60.0211ZM244.264 62.148C244.262 62.3243 244.303 62.4985 244.384 62.6555C244.478 62.8471 244.625 63.0084 244.809 63.1203C244.992 63.2323 245.204 63.2902 245.42 63.2873C245.585 63.2915 245.75 63.2617 245.903 63.1998C246.365 62.9471 246.595 62.6231 246.595 62.2278V62.0703C246.589 61.9593 246.568 61.8496 246.534 61.7437C246.287 61.2473 245.945 60.999 245.509 60.999H245.4C245.299 60.9952 245.198 61.009 245.102 61.0399C244.542 61.2498 244.264 61.6231 244.264 62.1403V62.148Z" fill="#375D4E"/>
<path d="M187.464 63.1357C187.282 62.9798 187.138 62.7857 187.043 62.5677C186.947 62.3496 186.903 62.1133 186.912 61.8759V61.8059C186.91 61.4382 187.032 61.0802 187.257 60.7872C187.426 60.5569 187.648 60.3689 187.904 60.2382C188.16 60.1075 188.444 60.0379 188.732 60.0348C189.018 60.0447 189.298 60.1157 189.553 60.2428C190.21 60.6317 190.539 61.1501 190.539 61.7982V61.8856C190.539 62.1053 190.381 62.2492 190.062 62.3211C190.001 62.3226 189.941 62.311 189.885 62.2871C189.83 62.2633 189.78 62.2278 189.74 62.1831C189.653 62.1831 189.586 61.979 189.543 61.5726C189.384 61.1838 189.117 60.9894 188.742 60.9894C188.605 60.9867 188.47 61.0167 188.348 61.0769C188.202 61.1427 188.079 61.2481 187.993 61.3808C187.907 61.5135 187.861 61.6678 187.861 61.8254C187.865 61.988 187.907 62.1475 187.983 62.292C188.194 62.5506 188.395 62.6808 188.574 62.6808C188.987 62.6808 189.194 62.8363 189.194 63.1474V63.1649C189.188 63.251 189.162 63.3345 189.117 63.4085C189.072 63.4825 189.01 63.545 188.935 63.5907L188.344 63.719C187.853 63.9601 187.608 64.2971 187.608 64.73V64.868C187.613 64.9934 187.639 65.1171 187.687 65.2335C187.932 65.7215 188.279 65.9665 188.756 65.9665C188.927 65.965 189.097 65.9341 189.257 65.8751C189.734 65.6126 189.973 65.2588 189.973 64.8077C190.02 64.4908 190.17 64.3334 190.444 64.3334C190.776 64.3956 190.941 64.5453 190.941 64.7844C190.934 65.0761 190.878 65.3647 190.774 65.6379C190.304 66.4933 189.647 66.9211 188.801 66.9211H188.75C188.37 66.915 187.997 66.814 187.667 66.6275C186.965 66.1427 186.614 65.5336 186.614 64.8C186.603 64.4746 186.675 64.1517 186.824 63.8609C186.972 63.5702 187.192 63.3208 187.464 63.1357Z" fill="#375D4E"/>
<path d="M232.683 46.2583C232.794 46.1446 232.945 46.0788 233.105 46.0753C233.264 46.0719 233.419 46.1311 233.534 46.2398C233.65 46.3486 233.716 46.4981 233.72 46.6555C233.723 46.8128 233.663 46.9651 233.553 47.0788L214.286 66.9715C214.232 67.0278 214.166 67.073 214.094 67.1044C214.022 67.1357 213.944 67.1528 213.865 67.1545C213.786 67.1562 213.707 67.1426 213.633 67.1143C213.56 67.0861 213.492 67.0439 213.435 66.99C213.378 66.9361 213.332 66.8717 213.301 66.8004C213.269 66.7291 213.251 66.6523 213.25 66.5744C213.248 66.4965 213.262 66.419 213.29 66.3464C213.319 66.2737 213.362 66.2074 213.417 66.1511L232.683 46.2583Z" fill="#375D4E"/>
<path d="M205.536 56.8287L221.649 64.9943C221.77 65.0547 221.866 65.1536 221.923 65.275C221.98 65.3964 221.993 65.5331 221.961 65.6629C221.929 65.7928 221.854 65.9082 221.747 65.9904C221.64 66.0727 221.508 66.1169 221.372 66.1161C221.277 66.1161 221.183 66.0935 221.098 66.0499L204.983 57.8844C204.841 57.8122 204.734 57.6874 204.686 57.5374C204.637 57.3873 204.651 57.2244 204.724 57.0844C204.76 57.0151 204.81 56.9535 204.87 56.9031C204.931 56.8528 205.001 56.8146 205.076 56.7909C205.228 56.7429 205.394 56.7566 205.536 56.8287Z" fill="#375D4E"/>
<path d="M-136.302 373.635H29.5918V377.512H27.7281V398.169H29.5918V401.204H-136.302C-137.531 401.204 -138.71 400.722 -139.579 399.866C-140.448 399.009 -140.936 397.847 -140.936 396.635V378.204C-140.936 376.993 -140.448 375.83 -139.579 374.974C-138.71 374.117 -137.531 373.635 -136.302 373.635Z" fill="#FCD224"/>
<path d="M-43.5264 377.528H27.728V398.136H-43.5264C-44.2154 398.136 -44.8977 398.002 -45.5342 397.742C-46.1707 397.482 -46.749 397.101 -47.236 396.62C-47.723 396.14 -48.1092 395.57 -48.3725 394.942C-48.6358 394.314 -48.7711 393.642 -48.7706 392.962V382.703C-48.7713 382.024 -48.6363 381.351 -48.3731 380.723C-48.1099 380.095 -47.7237 379.525 -47.2366 379.044C-46.7496 378.563 -46.1713 378.182 -45.5346 377.922C-44.898 377.662 -44.2156 377.528 -43.5264 377.528Z" fill="white"/>
<path d="M-40.5468 381.424H27.2129V382.639H-40.5468V381.424Z" fill="#A7A7A7"/>
<path d="M-9.40732 385.38H27.2129V386.595H-9.40732V385.38Z" fill="#A7A7A7"/>
<path d="M-27.8082 389.337H27.2129V390.552H-27.8082V389.337Z" fill="#A7A7A7"/>
<path d="M-38.4247 393.293H27.2129V394.508H-38.4247V393.293Z" fill="#A7A7A7"/>
<path d="M-152.401 401.149H13.4922V405.026H11.6284V425.689H13.4922V428.724H-152.401C-153.63 428.724 -154.809 428.242 -155.678 427.385C-156.548 426.529 -157.036 425.367 -157.036 424.155V405.724C-157.037 405.124 -156.917 404.529 -156.685 403.974C-156.452 403.419 -156.111 402.915 -155.681 402.49C-155.25 402.065 -154.739 401.728 -154.176 401.498C-153.614 401.268 -153.01 401.149 -152.401 401.149Z" fill="#C31F4B"/>
<path d="M-59.626 405.042H11.6284V425.65H-59.626C-60.315 425.65 -60.9973 425.516 -61.6338 425.256C-62.2703 424.996 -62.8485 424.615 -63.3355 424.134C-63.8225 423.654 -64.2088 423.084 -64.4721 422.456C-64.7354 421.828 -64.8706 421.156 -64.8701 420.476V410.213C-64.8704 409.534 -64.735 408.862 -64.4715 408.234C-64.2081 407.607 -63.8218 407.037 -63.3349 406.556C-62.8479 406.076 -62.2697 405.695 -61.6333 405.435C-60.9969 405.175 -60.3148 405.042 -59.626 405.042Z" fill="white"/>
<path d="M-56.6479 408.938H11.1138V410.153H-56.6479V408.938Z" fill="#A7A7A7"/>
<path d="M-25.5065 412.894H11.1138V414.109H-25.5065V412.894Z" fill="#A7A7A7"/>
<path d="M-43.9073 416.851H11.1138V418.066H-43.9073V416.851Z" fill="#A7A7A7"/>
<path d="M-54.5238 420.807H11.1138V422.022H-54.5238V420.807Z" fill="#A7A7A7"/>
<path d="M204.5 159.193C212.43 157.71 220.627 160.214 227.102 165.154C232.46 169.251 236.647 175.019 238.501 181.571C242.781 196.689 236.565 214.688 245.461 227.539C250.317 234.553 259.267 239.26 260.405 247.747C261.669 257.236 252.139 264.844 251.246 274.382C250.24 285.269 260.637 294.317 261.233 305.251C261.712 314.362 255.348 322.331 254.019 331.328C253.528 334.678 254.358 343.656 253.315 350.55C250.798 350.31 248.296 349.938 245.82 349.434C244.045 349.086 242.304 348.668 240.584 348.163C237.923 347.416 235.318 346.487 232.788 345.383C232.196 344.189 231.604 343.005 231.001 341.883C227.715 335.856 221.787 331.904 216.012 328.068C214.829 327.29 213.645 326.513 212.501 325.712C192.935 312.202 206.695 291.562 199.528 273.559C198.68 271.432 197.483 269.455 196.175 267.532C192.481 262.182 187.841 257.3 187.143 250.929C186.038 240.895 195.276 232.459 195.68 222.375C196.126 211.682 186.752 203.252 183.67 192.971C179.339 178.553 190.008 161.919 204.5 159.193Z" fill="#4E7B69"/>
<path d="M197.937 197.589C202.676 202.482 206.941 207.801 210.675 213.477C211.365 214.491 212.014 215.526 212.647 216.562C212.551 215.254 212.401 212.571 212.253 209.287C211.859 200.942 211.387 188.712 211.363 185.117C211.338 182.261 215.854 182.045 215.87 184.922C215.898 188.482 215.99 192.028 216.085 195.586L218.231 193.36L224.599 186.799C226.595 184.724 230.109 187.522 228.1 189.589C224.17 193.656 220.237 197.715 216.302 201.767C217.023 218.456 218.603 235.098 221.035 251.629C225.983 243.889 231.623 236.602 237.89 229.854C239.844 227.743 243.345 230.535 241.383 232.658C234.026 240.542 227.554 249.185 222.079 258.437C222.948 263.833 228.39 290.995 230.1 297.972C232.602 291.292 236.347 285.131 241.144 279.806C243.069 277.667 246.574 280.467 244.647 282.605C238.964 288.844 234.864 296.323 232.683 304.427C232.58 304.848 232.354 305.231 232.032 305.527C233.308 310.349 238.945 330.339 245.806 349.438C244.031 349.09 242.29 348.672 240.57 348.167C237.988 341.019 235.578 333.815 233.342 326.555C226.929 319.675 219.92 313.359 212.395 307.678C210.085 305.928 212.937 302.477 215.237 304.225C220.633 308.319 225.77 312.734 230.62 317.445C226.727 303.915 223.419 290.248 220.696 276.444C214.154 268.257 206.481 261.013 197.901 254.922C197.737 254.796 197.574 254.683 197.412 254.569C195.538 253.245 196.947 250.795 198.793 250.68C199.32 250.652 199.84 250.81 200.26 251.125C207.105 255.941 213.402 261.474 219.039 267.626C216.595 253.931 214.729 240.149 213.44 226.281C212.98 226.061 212.609 225.693 212.387 225.239C211.241 223.015 210.021 220.839 208.729 218.712C204.86 212.349 200.286 206.428 195.093 201.059C193.113 198.998 195.945 195.52 197.937 197.589Z" fill="#375D4E"/>
<path d="M462.404 384.713L463.198 394.576L392.34 471.604L157.885 439.337L158.875 427.31L462.404 384.713Z" fill="#253D69"/>
<path d="M261.46 206.841L483.915 228.447C484.622 228.516 485.307 228.727 485.927 229.069C486.548 229.41 487.09 229.874 487.521 230.431C487.952 230.987 488.262 231.626 488.432 232.306C488.602 232.986 488.628 233.694 488.508 234.384L462.404 384.713L233.861 360.695L255.831 211.188C256.022 209.889 256.714 208.712 257.762 207.903C258.81 207.093 260.134 206.713 261.46 206.841Z" fill="#0097C5"/>
<path d="M477.103 239.114L454.383 371.584L247.853 349.483L265.87 216.463L477.103 239.114Z" fill="white"/>
<path d="M462.404 384.713L391.427 457.443L158.875 427.31L233.86 360.695L462.404 384.713Z" fill="#0D6EA0"/>
<path d="M197.075 404.694L234.468 371.023L252.595 372.821L257.671 373.326L269.26 374.473L273.82 374.926L288.298 376.361L292.313 376.764L307.296 378.247L311.6 378.671L325.516 380.051L329.263 380.423L342.836 381.766L347.859 382.266L360.505 383.52L365.485 384.011L382.55 385.705L385.631 386.012L406.945 388.123L406.949 388.127L411.337 388.561L439.27 391.329L429.629 401.927L425.843 406.09L417.715 415.029L413.95 419.164L402.401 431.863L399.113 435.478L388.288 447.376L206.567 422.436L200.883 421.657L181.232 418.958L193.911 407.54L197.075 404.694Z" fill="#8A8A8A"/>
<path d="M216.17 407.217L228.159 395.9L231.028 393.19L240.917 383.844L241.775 383.036L252.595 372.821L257.671 373.326L247.185 383.405L244.408 386.074L236.369 393.799L232.691 397.331L221.647 407.946L218.576 410.899L218.57 410.898L206.567 422.436L200.883 421.657L213.071 410.149L216.17 407.217Z" fill="#5F5F5F"/>
<path d="M216.17 407.217L221.646 407.946L237.491 410.044L243.321 410.816L259.499 412.956L264.576 413.625L278.466 415.466L283.959 416.191L301.713 418.54L307.223 419.267L317.54 420.634L317.546 420.636L322.989 421.355L335.992 423.074L341.828 423.85L353.63 425.409L358.507 426.058L373.099 427.987L373.103 427.989L379.124 428.782L402.401 431.863L399.113 435.478L376.093 432.342L370.285 431.55L355.969 429.606L351.225 428.961L339.629 427.38L333.919 426.601L320.784 424.814L315.783 424.129L305.054 422.673L299.912 421.97L281.43 419.456L276.232 418.748L262.227 416.843L257.107 416.145L240.647 413.903L234.813 413.11L218.576 410.899L218.57 410.897L213.071 410.149L193.911 407.54L197.075 404.694L216.17 407.217Z" fill="#5F5F5F"/>
<path d="M247.185 399.1C248.285 397.864 249.386 396.637 250.49 395.406C252.844 392.779 255.2 390.154 257.559 387.531C258.407 386.582 259.261 385.637 260.111 384.688C263.164 381.292 266.213 377.889 269.258 374.479L273.818 374.932C270.907 378.338 268.006 381.754 265.116 385.18C264.296 386.149 263.472 387.122 262.643 388.096C260.408 390.734 258.173 393.376 255.938 396.023L252.749 399.783C249.617 403.471 246.472 407.151 243.313 410.822C242.422 411.85 241.539 412.882 240.639 413.909L234.805 413.116C235.695 412.092 236.588 411.07 237.484 410.05C240.701 406.387 243.935 402.737 247.185 399.1Z" fill="#5F5F5F"/>
<path d="M263.925 407.571L268.475 401.694C269.481 400.398 270.491 399.097 271.506 397.792C271.964 397.209 272.418 396.625 272.887 396.042C274.519 393.968 276.15 391.887 277.78 389.799C278.606 388.748 279.435 387.694 280.255 386.64C282.939 383.218 285.622 379.797 288.304 376.375L292.319 376.777C289.736 380.206 287.151 383.631 284.565 387.052C283.75 388.129 282.943 389.208 282.131 390.283L276.112 398.255C276.092 398.276 276.075 398.3 276.06 398.325C275.068 399.64 274.071 400.952 273.07 402.26C271.251 404.655 269.426 407.045 267.598 409.432C266.586 410.756 265.598 412.188 264.582 413.633C263.817 414.716 263.042 415.805 262.233 416.851L257.115 416.153C257.847 415.068 258.665 414.014 259.506 412.964C260.985 411.121 262.56 409.34 263.925 407.571Z" fill="#5F5F5F"/>
<path d="M278.466 415.466C281.308 411.601 284.2 407.768 287.144 403.967C288.17 402.637 289.205 401.303 290.237 399.975C292.34 397.271 294.452 394.577 296.571 391.893C297.465 390.75 298.36 389.615 299.259 388.475C301.944 385.067 304.623 381.657 307.294 378.247L311.598 378.671C309.081 382.084 306.578 385.509 304.089 388.946C303.241 390.112 302.395 391.279 301.547 392.445C299.567 395.167 297.585 397.886 295.601 400.601C294.615 401.943 293.629 403.29 292.643 404.626C289.779 408.514 286.89 412.369 283.951 416.184C283.115 417.279 282.272 418.367 281.423 419.448L276.224 418.74C276.304 418.48 276.428 418.235 276.591 418.015C277.218 417.167 277.843 416.32 278.466 415.466Z" fill="#5F5F5F"/>
<path d="M308.894 406.603C309.756 405.226 310.625 403.86 311.483 402.495C312.192 401.371 312.889 400.248 313.574 399.126C314.589 397.463 315.611 395.808 316.641 394.162C317.413 392.918 318.188 391.675 318.968 390.435C321.137 386.973 323.318 383.516 325.51 380.063L329.257 380.434C327.312 383.918 325.371 387.402 323.433 390.884C322.724 392.156 322.012 393.425 321.297 394.691C319.982 397.024 318.656 399.357 317.317 401.69C317.049 402.159 316.779 402.627 316.513 403.101C315.724 404.475 314.943 405.86 314.172 407.256C311.913 411.29 309.653 415.352 307.217 419.279C306.513 420.43 305.79 421.565 305.048 422.685L299.906 421.981C300.48 420.832 301.09 419.687 301.707 418.552C303.932 414.494 306.407 410.524 308.894 406.603Z" fill="#5F5F5F"/>
<path d="M317.54 420.634C320.146 416.616 322.757 412.603 325.372 408.594C326.267 407.215 327.161 405.843 328.058 404.464C329.882 401.658 331.706 398.856 333.533 396.058C334.377 394.752 335.224 393.451 336.073 392.152L342.828 381.768L347.849 382.268C345.644 385.739 343.438 389.209 341.23 392.679C340.39 394.001 339.548 395.321 338.704 396.641C336.914 399.464 335.122 402.282 333.326 405.096L330.691 409.241C328.122 413.277 325.552 417.316 322.981 421.357C322.244 422.51 321.514 423.661 320.776 424.816L315.775 424.131C315.741 423.639 315.881 423.15 316.169 422.747C316.629 422.042 317.086 421.34 317.54 420.634Z" fill="#5F5F5F"/>
<path d="M373.103 427.989C376.452 423.785 379.875 419.633 383.371 415.532C384.503 414.184 385.644 412.842 386.793 411.506C389.291 408.582 391.809 405.666 394.348 402.757C395.549 401.365 396.754 399.975 397.965 398.585C400.969 395.113 403.977 391.635 406.943 388.135L411.331 388.569C408.507 392.058 405.708 395.572 402.935 399.11C401.827 400.512 400.72 401.916 399.616 403.321C397.278 406.284 394.939 409.247 392.599 412.21C391.538 413.559 390.467 414.904 389.386 416.246C386.016 420.469 382.598 424.649 379.131 428.786C378.131 429.982 377.121 431.169 376.099 432.348L370.291 431.554C371.221 430.359 372.159 429.171 373.105 427.991L373.103 427.989Z" fill="#5F5F5F"/>
<path d="M343.443 410.773C344.293 409.384 345.151 407.999 346.019 406.618C347.794 403.758 349.581 400.914 351.371 398.064C352.223 396.708 353.078 395.353 353.935 393.997C356.127 390.513 358.314 387.026 360.497 383.537L365.477 384.029C363.406 387.529 361.342 391.036 359.284 394.551C358.481 395.927 357.669 397.304 356.866 398.678C355.174 401.566 353.479 404.449 351.782 407.326C350.963 408.718 350.141 410.102 349.316 411.492C346.851 415.64 344.353 419.765 341.822 423.867C341.094 425.051 340.359 426.223 339.623 427.398L333.904 426.62C334.59 425.44 335.284 424.268 335.976 423.093C338.422 418.957 340.911 414.851 343.443 410.773Z" fill="#5F5F5F"/>
<path d="M236.375 393.804C241.084 394.347 245.791 394.881 250.498 395.406L255.952 396.023C261.138 396.602 266.325 397.194 271.512 397.798C272.193 397.873 272.875 397.959 273.554 398.035L276.058 398.326L290.243 399.985C292.029 400.2 293.818 400.411 295.607 400.619C300.9 401.247 306.194 401.876 311.487 402.504C313.164 402.699 314.84 402.893 316.518 403.105C320.364 403.56 324.213 404.019 328.064 404.482C329.823 404.688 331.58 404.897 333.334 405.11C337.562 405.615 341.79 406.123 346.019 406.634L348.486 406.933C349.585 407.065 350.689 407.196 351.786 407.322C356.318 407.863 360.85 408.406 365.382 408.951C366.898 409.134 368.416 409.316 369.936 409.498C375.458 410.163 380.986 410.827 386.519 411.49C386.611 411.49 386.696 411.512 386.789 411.52C388.725 411.755 390.658 411.988 392.599 412.219C396.815 412.722 401.031 413.23 405.247 413.742C409.252 414.222 413.579 414.395 417.711 415.042L413.946 419.178C413.414 419.106 412.881 419.036 412.351 418.972C408.943 418.571 405.536 418.169 402.131 417.764C397.882 417.26 393.634 416.757 389.386 416.256C387.376 416.02 385.375 415.785 383.367 415.546L380.558 415.212C376.088 414.683 371.618 414.152 367.147 413.619C365.57 413.435 363.992 413.24 362.402 413.05C358.042 412.531 353.683 412.009 349.324 411.483L343.443 410.781C339.192 410.269 334.944 409.758 330.699 409.247L325.374 408.603C321.64 408.156 317.906 407.706 314.173 407.252L308.89 406.611L292.647 404.641C290.806 404.419 288.971 404.197 287.142 403.974C282.45 403.401 277.756 402.83 273.061 402.259C271.53 402.075 270.002 401.884 268.471 401.702L252.753 399.785L247.183 399.104C242.354 398.512 237.522 397.923 232.689 397.337C231.658 397.212 230.63 397.082 229.601 396.96C228.812 396.862 228.35 396.441 228.157 395.906L231.027 393.194C232.807 393.396 234.59 393.6 236.375 393.804Z" fill="#5F5F5F"/>
<path d="M240.911 383.84C241.083 383.475 241.389 383.188 241.767 383.036C242.007 382.941 242.266 382.906 242.523 382.934L247.177 383.405C251.482 383.848 255.79 384.276 260.101 384.688C261.77 384.855 263.434 385.019 265.107 385.18C270.15 385.666 275.194 386.15 280.237 386.632C281.673 386.774 283.107 386.908 284.547 387.044L286.416 387.225C290.695 387.635 294.973 388.053 299.25 388.481C300.863 388.631 302.472 388.792 304.08 388.952C309.04 389.434 314.001 389.928 318.96 390.435C320.448 390.579 321.937 390.729 323.425 390.884C327.639 391.307 331.853 391.733 336.067 392.162C337.786 392.335 339.505 392.511 341.224 392.688C345.46 393.12 349.693 393.555 353.926 393.995C355.711 394.175 357.494 394.36 359.274 394.549C364.448 395.084 369.623 395.623 374.798 396.166C376.058 396.301 377.32 396.429 378.578 396.555C385.037 397.231 391.492 397.91 397.946 398.593C399.602 398.774 401.261 398.947 402.92 399.122C411.817 400.059 420.713 401 429.608 401.947L425.821 406.109C417.08 405.187 408.337 404.262 399.59 403.333L395.944 402.944C395.403 402.888 394.857 402.829 394.319 402.767C388.139 402.109 381.955 401.442 375.768 400.768C374.415 400.617 373.062 400.469 371.709 400.325C366.754 399.776 361.799 399.226 356.844 398.676C355.01 398.476 353.179 398.272 351.35 398.066L338.686 396.649L333.515 396.065L321.287 394.685C319.732 394.514 318.179 394.34 316.629 394.162C311.593 393.598 306.561 393.031 301.534 392.459L296.558 391.899L282.109 390.276C280.663 390.108 279.213 389.947 277.758 389.792C272.716 389.223 267.673 388.657 262.63 388.096C260.933 387.902 259.241 387.719 257.545 387.53C253.159 387.041 248.775 386.557 244.392 386.08C243.548 385.983 242.708 385.886 241.862 385.8C240.742 385.674 240.517 384.634 240.901 383.856L240.911 383.84Z" fill="#5F5F5F"/>
<path d="M353.63 425.409C356.512 421.252 359.436 417.13 362.402 413.042C363.389 411.673 364.383 410.307 365.384 408.944C367.488 406.061 369.605 403.185 371.737 400.315C372.762 398.925 373.788 397.538 374.813 396.157C377.394 392.677 379.972 389.197 382.546 385.717L385.627 386.024C383.276 389.523 380.932 393.033 378.594 396.553C377.663 397.96 376.73 399.363 375.793 400.764C373.846 403.677 371.894 406.587 369.936 409.496C369.009 410.872 368.079 412.246 367.145 413.617C364.3 417.792 361.419 421.943 358.503 426.07C357.663 427.26 356.817 428.442 355.967 429.618L351.222 428.972C351.261 428.884 351.309 428.8 351.364 428.72C352.117 427.606 352.876 426.507 353.63 425.409Z" fill="#5F5F5F"/>
<path d="M321.614 310.847L328.181 311.631L327.464 317.459L320.898 316.675L321.614 310.847Z" fill="#69B7DF"/>
<path d="M324.795 310.411L325.777 310.524L324.088 324.674L323.107 324.56L324.795 310.411Z" fill="#69B7DF"/>
<path d="M263.689 290.335L270.276 291.099L269.305 299.234L262.718 298.47L263.689 290.335Z" fill="#69B7DF"/>
<path d="M267 286.41L267.981 286.523L265.632 306.208L264.65 306.095L267 286.41Z" fill="#69B7DF"/>
<path d="M331.703 313.442L338.29 314.206L337.816 318.174L331.229 317.41L331.703 313.442Z" fill="#69B7DF"/>
<path d="M334.658 312.495L335.639 312.609L334.775 319.846L333.794 319.732L334.658 312.495Z" fill="#69B7DF"/>
<path d="M342.014 311.743L348.601 312.507L347.772 319.455L341.185 318.691L342.014 311.743Z" fill="#69B7DF"/>
<path d="M345.08 309.843L346.063 309.957L344.55 322.631L343.567 322.517L345.08 309.843Z" fill="#69B7DF"/>
<path d="M352.326 310.07L358.911 310.833L357.589 321.915L351.003 321.151L352.326 310.07Z" fill="#69B7DF"/>
<path d="M355.555 306.815L356.536 306.929L354.559 323.493L353.578 323.38L355.555 306.815Z" fill="#69B7DF"/>
<path d="M362.235 311.719L368.82 312.483L368.414 315.889L361.828 315.125L362.235 311.719Z" fill="#69B7DF"/>
<path d="M365.171 310.953L366.152 311.067L365.41 317.282L364.429 317.169L365.171 310.953Z" fill="#69B7DF"/>
<path d="M372.573 309.852L379.159 310.616L378.33 317.563L371.744 316.799L372.573 309.852Z" fill="#69B7DF"/>
<path d="M375.639 307.949L376.622 308.063L375.11 320.737L374.126 320.623L375.639 307.949Z" fill="#69B7DF"/>
<path d="M381.878 316.582L388.466 317.346L387.635 324.308L381.047 323.544L381.878 316.582Z" fill="#69B7DF"/>
<path d="M385.147 313.004L386.128 313.118L384.665 325.379L383.684 325.265L385.147 313.004Z" fill="#69B7DF"/>
<path d="M302.842 301.117L309.429 301.881L308.45 310.083L301.863 309.319L302.842 301.117Z" fill="#69B7DF"/>
<path d="M305.96 298.795L306.943 298.909L305.48 311.17L304.497 311.056L305.96 298.795Z" fill="#69B7DF"/>
<path d="M293.379 295.694L299.966 296.458L299.268 302.305L292.681 301.541L293.379 295.694Z" fill="#69B7DF"/>
<path d="M296.548 292.961L297.53 293.075L295.841 307.225L294.86 307.111L296.548 292.961Z" fill="#69B7DF"/>
<path d="M311.944 309.57L318.531 310.334L317.876 315.825L311.289 315.061L311.944 309.57Z" fill="#69B7DF"/>
<path d="M314.956 308.135L315.938 308.249L314.742 318.268L313.76 318.154L314.956 308.135Z" fill="#69B7DF"/>
<path d="M273.828 290.107L280.415 290.871L279.957 294.71L273.369 293.946L273.828 290.107Z" fill="#69B7DF"/>
<path d="M276.778 289.205L277.759 289.319L276.924 296.32L275.942 296.207L276.778 289.205Z" fill="#69B7DF"/>
<path d="M283.016 297.837L289.603 298.601L288.772 305.564L282.185 304.8L283.016 297.837Z" fill="#69B7DF"/>
<path d="M286.285 294.258L287.266 294.372L285.803 306.633L284.821 306.519L286.285 294.258Z" fill="#69B7DF"/>
<path d="M326.592 278.607L333.177 279.37L331.668 292.014L325.083 291.25L326.592 278.607Z" fill="#0097C5"/>
<path d="M330.184 272.319L331.166 272.433L327.513 303.033L326.532 302.919L330.184 272.319Z" fill="#0097C5"/>
<path d="M269.478 248.905L276.063 249.669L273.574 270.524L266.989 269.76L269.478 248.905Z" fill="#0097C5"/>
<path d="M273.377 240.03L274.359 240.144L269.277 282.719L268.296 282.605L273.377 240.03Z" fill="#0097C5"/>
<path d="M336.782 277.906L343.37 278.67L342.346 287.25L335.758 286.487L336.782 277.906Z" fill="#0B6796"/>
<path d="M339.917 275.484L340.898 275.598L339.03 291.252L338.048 291.138L339.917 275.484Z" fill="#0B6796"/>
<path d="M348.662 263.098L355.25 263.862L352.288 288.68L345.7 287.916L348.662 263.098Z" fill="#0097C5"/>
<path d="M352.038 258.612L353.021 258.726L348.581 295.93L347.598 295.816L352.038 258.612Z" fill="#0097C5"/>
<path d="M359.365 258.135L365.951 258.899L361.922 292.656L355.337 291.892L359.365 258.135Z" fill="#0097C5"/>
<path d="M363.091 250.719L364.073 250.833L358.628 296.451L357.647 296.337L363.091 250.719Z" fill="#0097C5"/>
<path d="M369.209 260.362L375.796 261.126L374.917 268.494L368.33 267.73L369.209 260.362Z" fill="#0B6796"/>
<path d="M372.293 258.327L373.274 258.441L370.501 281.673L369.52 281.559L372.293 258.327Z" fill="#0B6796"/>
<path d="M379.962 254.97L386.549 255.734L383.587 280.551L377 279.787L379.962 254.97Z" fill="#0B6796"/>
<path d="M383.339 250.48L384.321 250.594L379.881 287.795L378.899 287.682L383.339 250.48Z" fill="#0B6796"/>
<path d="M388.493 268.186L395.081 268.95L392.115 293.802L385.527 293.038L388.493 268.186Z" fill="#0097C5"/>
<path d="M392.305 260.07L393.287 260.183L388.953 296.493L387.972 296.379L392.305 260.07Z" fill="#0097C5"/>
<path d="M309.543 252.024L316.13 252.788L313.623 273.792L307.036 273.028L309.543 252.024Z" fill="#0097C5"/>
<path d="M313.029 246.619L314.01 246.733L310.456 276.514L309.475 276.4L313.029 246.619Z" fill="#0097C5"/>
<path d="M297.881 265.044L304.466 265.808L302.567 281.714L295.982 280.951L297.881 265.044Z" fill="#0097C5"/>
<path d="M301.473 258.757L302.454 258.871L298.412 292.736L297.431 292.622L301.473 258.757Z" fill="#0097C5"/>
<path d="M317.244 272.22L323.831 272.984L322.413 284.863L315.826 284.099L317.244 272.22Z" fill="#0B6796"/>
<path d="M320.498 268.742L321.482 268.856L318.895 290.526L317.912 290.412L320.498 268.742Z" fill="#0B6796"/>
<path d="M280.043 245.094L286.628 245.857L285.638 254.158L279.053 253.394L280.043 245.094Z" fill="#0B6796"/>
<path d="M283.163 242.76L284.144 242.874L281.168 267.809L280.187 267.695L283.163 242.76Z" fill="#0B6796"/>
<path d="M289.851 247.617L296.436 248.381L292.691 279.759L286.106 278.995L289.851 247.617Z" fill="#0097C5"/>
<path d="M293.661 239.5L294.642 239.614L289.529 282.452L288.548 282.338L293.661 239.5Z" fill="#0097C5"/>
<path d="M477.103 239.114L475.221 250.091L264.29 228.124L265.87 216.463L477.103 239.114Z" fill="#81D3EF"/>
<path d="M273.112 220.627C273.58 220.627 274.037 220.764 274.426 221.02C274.816 221.277 275.119 221.641 275.298 222.067C275.477 222.494 275.524 222.963 275.433 223.415C275.341 223.868 275.116 224.284 274.785 224.61C274.454 224.936 274.032 225.158 273.573 225.248C273.114 225.338 272.638 225.292 272.206 225.116C271.773 224.939 271.404 224.64 271.144 224.256C270.884 223.873 270.745 223.422 270.745 222.96C270.745 222.341 270.994 221.748 271.438 221.311C271.882 220.873 272.484 220.627 273.112 220.627Z" fill="#0D6EA0"/>
<path d="M280.206 226.04C278.898 226.04 277.837 224.994 277.837 223.705C277.837 222.415 278.898 221.37 280.206 221.37C281.514 221.37 282.574 222.415 282.574 223.705C282.574 224.994 281.514 226.04 280.206 226.04Z" fill="#0D6EA0"/>
<path d="M288.57 222.006C289.038 222.006 289.496 222.142 289.885 222.399C290.274 222.655 290.577 223.02 290.757 223.446C290.936 223.872 290.983 224.341 290.891 224.794C290.8 225.246 290.575 225.662 290.244 225.988C289.913 226.315 289.491 226.537 289.032 226.627C288.573 226.717 288.097 226.671 287.664 226.494C287.232 226.317 286.862 226.018 286.602 225.635C286.342 225.251 286.203 224.8 286.203 224.339C286.203 223.72 286.453 223.126 286.897 222.689C287.34 222.251 287.942 222.006 288.57 222.006Z" fill="#0D6EA0"/>
<path d="M309.834 102.151H422.431C425.715 102.151 428.866 103.438 431.188 105.727C433.511 108.017 434.816 111.123 434.816 114.361V174.696C434.816 177.934 433.511 181.04 431.188 183.329C428.866 185.619 425.715 186.905 422.431 186.905H410.585C409.564 186.905 408.585 187.305 407.863 188.017C407.141 188.729 406.736 189.694 406.736 190.7V205.982C406.735 206.243 406.653 206.498 406.501 206.712C406.348 206.926 406.133 207.088 405.884 207.178C405.635 207.267 405.364 207.279 405.108 207.211C404.851 207.144 404.623 207 404.452 206.8L389.66 189.39C388.999 188.612 388.174 187.987 387.241 187.557C386.308 187.128 385.291 186.906 384.262 186.905H309.838C308.212 186.905 306.602 186.59 305.099 185.976C303.596 185.362 302.231 184.463 301.081 183.329C299.931 182.196 299.019 180.85 298.397 179.368C297.775 177.887 297.455 176.299 297.455 174.696V114.361C297.454 111.123 298.758 108.018 301.08 105.729C303.401 103.439 306.55 102.152 309.834 102.151Z" fill="#FFD972"/>
<path d="M378.61 150.1H379.833V151.185H378.61V150.1Z" fill="white"/>
<path d="M378.61 165.535H379.833V167.584H378.61V165.535Z" fill="white"/>
<path d="M378.61 161.435H379.833V163.484H378.61V161.435Z" fill="white"/>
<path d="M378.61 157.335H379.833V159.384H378.61V157.335Z" fill="white"/>
<path d="M378.61 153.234H379.833V155.284H378.61V153.234Z" fill="white"/>
<path d="M378.61 169.635H379.833V170.72H378.61V169.635Z" fill="white"/>
<path d="M365.522 140.366H366.745V141.451H365.522V140.366Z" fill="white"/>
<path d="M365.522 143.619H366.745V145.786H365.522V143.619Z" fill="white"/>
<path d="M365.522 165.3H366.745V167.468H365.522V165.3Z" fill="white"/>
<path d="M365.522 156.627H366.745V158.795H365.522V156.627Z" fill="white"/>
<path d="M365.522 160.963H366.745V163.13H365.522V160.963Z" fill="white"/>
<path d="M365.522 152.292H366.745V154.459H365.522V152.292Z" fill="white"/>
<path d="M365.522 147.954H366.745V150.122H365.522V147.954Z" fill="white"/>
<path d="M365.522 169.635H366.745V170.72H365.522V169.635Z" fill="white"/>
<path d="M352.432 136.534H353.655V137.619H352.432V136.534Z" fill="white"/>
<path d="M352.432 161.097H353.655V163.231H352.432V161.097Z" fill="white"/>
<path d="M352.432 152.56H353.655V154.695H352.432V152.56Z" fill="white"/>
<path d="M352.432 165.366H353.655V167.501H352.432V165.366Z" fill="white"/>
<path d="M352.432 156.827H353.655V158.962H352.432V156.827Z" fill="white"/>
<path d="M352.432 139.752H353.655V141.886H352.432V139.752Z" fill="white"/>
<path d="M352.432 148.29H353.655V150.425H352.432V148.29Z" fill="white"/>
<path d="M352.432 144.021H353.655V146.156H352.432V144.021Z" fill="white"/>
<path d="M352.432 169.635H353.655V170.72H352.432V169.635Z" fill="white"/>
<path d="M339.345 146.632H340.568V147.717H339.345V146.632Z" fill="white"/>
<path d="M339.345 157.679H340.568V159.672H339.345V157.679Z" fill="white"/>
<path d="M339.345 165.65H340.568V167.643H339.345V165.65Z" fill="white"/>
<path d="M339.345 161.664H340.568V163.657H339.345V161.664Z" fill="white"/>
<path d="M339.345 153.693H340.568V155.686H339.345V153.693Z" fill="white"/>
<path d="M339.345 149.708H340.568V151.701H339.345V149.708Z" fill="white"/>
<path d="M339.345 169.635H340.568V170.72H339.345V169.635Z" fill="white"/>
<path d="M326.255 141.332H327.478V142.417H326.255V141.332Z" fill="white"/>
<path d="M326.255 157.072H327.478V159.166H326.255V157.072Z" fill="white"/>
<path d="M326.255 165.448H327.478V167.542H326.255V165.448Z" fill="white"/>
<path d="M326.255 161.26H327.478V163.354H326.255V161.26Z" fill="white"/>
<path d="M326.255 144.511H327.478V146.605H326.255V144.511Z" fill="white"/>
<path d="M326.255 148.699H327.478V150.792H326.255V148.699Z" fill="white"/>
<path d="M326.255 152.885H327.478V154.978H326.255V152.885Z" fill="white"/>
<path d="M326.255 169.635H327.478V170.72H326.255V169.635Z" fill="white"/>
<path d="M313.168 130.832H314.39V131.917H313.168V130.832Z" fill="white"/>
<path d="M313.168 156.322H314.39V158.54H313.168V156.322Z" fill="white"/>
<path d="M313.168 160.76H314.39V162.979H313.168V160.76Z" fill="white"/>
<path d="M313.168 151.885H314.39V154.103H313.168V151.885Z" fill="white"/>
<path d="M313.168 165.197H314.39V167.415H313.168V165.197Z" fill="white"/>
<path d="M313.168 143.01H314.39V145.228H313.168V143.01Z" fill="white"/>
<path d="M313.168 138.573H314.39V140.792H313.168V138.573Z" fill="white"/>
<path d="M313.168 147.449H314.39V149.667H313.168V147.449Z" fill="white"/>
<path d="M313.168 134.135H314.39V136.353H313.168V134.135Z" fill="white"/>
<path d="M313.168 169.635H314.39V170.72H313.168V169.635Z" fill="white"/>
<path d="M306.638 169.997H425.63V171.444H306.638V169.997Z" fill="#24478F"/>
<path d="M323.224 137.352C327.395 141.118 331.336 144.676 336.635 145.862C341.627 146.982 343.986 144.143 346.496 141.142C349.007 138.14 351.624 134.99 356.9 135.645C362.225 136.308 367.587 140.506 372.78 144.559C377.778 148.461 382.943 152.496 388.051 153.454C393.792 154.531 396.52 152.4 399.157 150.343C401.231 148.722 403.379 147.038 406.803 147.233C414.297 147.645 422.63 156.58 422.975 156.954L422.07 157.764C421.987 157.675 413.731 148.821 406.73 148.432C403.772 148.269 401.981 149.667 399.91 151.284C397.19 153.411 394.108 155.82 387.816 154.642C382.412 153.627 377.127 149.498 372.015 145.504C366.719 141.369 361.718 137.461 356.74 136.841C352.127 136.268 349.837 139.007 347.435 141.906C344.81 145.059 342.096 148.321 336.369 147.038C330.76 145.782 326.508 141.948 322.41 138.241C318.698 134.889 314.86 131.425 310.008 129.838L310.403 128.693C315.481 130.369 319.418 133.915 323.224 137.352Z" fill="#F69B63"/>
<path d="M313.779 128.823C314.182 128.823 314.576 128.941 314.911 129.162C315.246 129.383 315.507 129.696 315.661 130.063C315.816 130.43 315.856 130.834 315.777 131.223C315.699 131.613 315.505 131.971 315.22 132.252C314.935 132.533 314.572 132.724 314.177 132.801C313.781 132.879 313.372 132.839 312.999 132.687C312.627 132.535 312.309 132.278 312.085 131.947C311.861 131.617 311.742 131.229 311.742 130.832C311.742 130.299 311.957 129.789 312.339 129.412C312.721 129.036 313.239 128.824 313.779 128.823Z" fill="#F69B63"/>
<path d="M326.867 139.526C327.27 139.526 327.664 139.644 327.999 139.865C328.334 140.085 328.595 140.399 328.749 140.766C328.903 141.133 328.944 141.537 328.865 141.926C328.786 142.316 328.592 142.674 328.307 142.955C328.022 143.235 327.659 143.427 327.264 143.504C326.869 143.582 326.459 143.542 326.087 143.39C325.715 143.238 325.397 142.98 325.173 142.65C324.949 142.32 324.829 141.932 324.829 141.534C324.829 141.271 324.882 141.009 324.984 140.766C325.086 140.522 325.236 140.3 325.426 140.114C325.615 139.927 325.84 139.779 326.087 139.678C326.334 139.578 326.599 139.526 326.867 139.526Z" fill="#F69B63"/>
<path d="M339.956 144.624C340.359 144.624 340.753 144.741 341.088 144.962C341.423 145.183 341.684 145.496 341.839 145.863C341.993 146.23 342.033 146.634 341.955 147.024C341.876 147.413 341.682 147.771 341.397 148.052C341.112 148.333 340.749 148.524 340.354 148.602C339.959 148.679 339.549 148.639 339.177 148.487C338.804 148.335 338.486 148.078 338.262 147.748C338.039 147.417 337.919 147.029 337.919 146.632C337.919 146.099 338.134 145.589 338.516 145.212C338.898 144.835 339.416 144.624 339.956 144.624Z" fill="#F69B63"/>
<path d="M353.044 134.526C353.447 134.526 353.841 134.643 354.176 134.864C354.511 135.085 354.772 135.398 354.926 135.765C355.08 136.132 355.121 136.536 355.042 136.926C354.964 137.315 354.77 137.673 354.485 137.954C354.2 138.235 353.837 138.426 353.441 138.504C353.046 138.581 352.637 138.541 352.264 138.389C351.892 138.237 351.574 137.98 351.35 137.65C351.126 137.319 351.007 136.931 351.007 136.534C351.006 136.27 351.059 136.009 351.161 135.765C351.264 135.521 351.414 135.3 351.603 135.113C351.792 134.927 352.017 134.779 352.264 134.678C352.511 134.577 352.776 134.525 353.044 134.526Z" fill="#F69B63"/>
<path d="M366.134 138.358C366.537 138.358 366.93 138.475 367.265 138.696C367.6 138.917 367.862 139.23 368.016 139.597C368.17 139.964 368.21 140.368 368.132 140.758C368.053 141.147 367.859 141.505 367.574 141.786C367.289 142.067 366.926 142.258 366.531 142.336C366.136 142.413 365.726 142.373 365.354 142.221C364.982 142.069 364.664 141.812 364.44 141.482C364.216 141.151 364.096 140.763 364.096 140.366C364.096 140.102 364.149 139.841 364.251 139.597C364.354 139.354 364.504 139.132 364.693 138.946C364.882 138.759 365.107 138.611 365.354 138.511C365.601 138.41 365.866 138.358 366.134 138.358Z" fill="#F69B63"/>
<path d="M379.221 148.092C379.624 148.092 380.018 148.21 380.353 148.431C380.688 148.651 380.949 148.965 381.103 149.332C381.258 149.699 381.298 150.103 381.219 150.492C381.141 150.882 380.947 151.24 380.662 151.521C380.377 151.801 380.014 151.993 379.619 152.07C379.224 152.148 378.814 152.108 378.442 151.956C378.069 151.804 377.751 151.547 377.527 151.216C377.303 150.886 377.184 150.498 377.184 150.1C377.184 149.568 377.399 149.057 377.781 148.68C378.163 148.304 378.681 148.092 379.221 148.092Z" fill="#F69B63"/>
<path d="M311.742 113.756H361.274V116.023H311.742V113.756Z" fill="#F69B63"/>
<path d="M330.062 118.753H361.274V121.02H330.062V118.753Z" fill="#F69B63"/>
<path d="M375.832 134.548C366.513 125.361 366.513 110.468 375.832 101.282C385.15 92.0956 400.259 92.0956 409.578 101.282C418.896 110.468 418.896 125.361 409.578 134.548C400.259 143.734 385.15 143.734 375.832 134.548Z" fill="#C31F4B"/>
<path d="M372.807 119.203C372.083 108.367 380.407 99.0037 391.399 98.2897C402.392 97.5756 411.89 105.781 412.615 116.618C413.339 127.454 405.015 136.817 394.022 137.531C383.03 138.245 373.531 130.04 372.807 119.203Z" fill="#E4E4E4"/>
<path d="M385.193 132.135C377.216 128.046 374.112 118.358 378.259 110.494C382.406 102.631 392.234 99.5707 400.211 103.659C408.188 107.747 411.293 117.436 407.145 125.299C402.998 133.162 393.17 136.223 385.193 132.135Z" fill="#C31F4B"/>
<path d="M388.259 127.984C382.615 125.564 380.028 119.092 382.483 113.528C384.937 107.963 391.503 105.414 397.148 107.833C402.792 110.253 405.378 116.725 402.924 122.289C400.47 127.854 393.904 130.403 388.259 127.984Z" fill="#FAFAFA"/>
<path d="M390.027 111.219C391.37 110.698 392.839 110.582 394.249 110.884C395.659 111.187 396.947 111.894 397.949 112.918C398.951 113.942 399.623 115.235 399.879 116.635C400.135 118.035 399.965 119.478 399.389 120.783C398.814 122.087 397.859 123.194 396.645 123.963C395.431 124.733 394.014 125.13 392.571 125.106C391.128 125.081 389.725 124.635 388.539 123.824C387.353 123.013 386.438 121.874 385.909 120.551C385.557 119.672 385.385 118.733 385.402 117.788C385.418 116.843 385.624 115.91 386.006 115.044C386.389 114.177 386.941 113.393 387.631 112.737C388.32 112.081 389.135 111.565 390.027 111.219Z" fill="#C31F4B"/>
<path d="M389.893 120.045C388.704 118.516 388.998 116.327 390.549 115.155C392.1 113.983 394.321 114.273 395.51 115.802C396.698 117.331 396.404 119.521 394.853 120.692C393.302 121.864 391.081 121.574 389.893 120.045Z" fill="#FAFAFA"/>
</g>
<g clip-path="url(#clip0_2108_4320)">
<path d="M357.5 45.1354L355.385 43.2104C347.875 36.4 342.917 31.9083 342.917 26.3958C342.917 21.9042 346.446 18.375 350.938 18.375C353.475 18.375 355.91 19.5563 357.5 21.4229C359.09 19.5563 361.525 18.375 364.063 18.375C368.554 18.375 372.083 21.9042 372.083 26.3958C372.083 31.9083 367.125 36.4 359.615 43.225L357.5 45.1354Z" fill="#58E5AA"/>
</g>
<defs>
<clipPath id="clip0_2108_4320">
<rect width="35" height="35" fill="white" transform="translate(340 14)"/>
</clipPath>
</defs>
</svg>
