<svg width="187" height="230" viewBox="0 0 187 230" fill="none" xmlns="http://www.w3.org/2000/svg">
<mask id="mask0_2108_4004" style="mask-type:alpha" maskUnits="userSpaceOnUse" x="0" y="0" width="204" height="230">
<rect width="204" height="230" rx="15" fill="#325698"/>
</mask>
<g mask="url(#mask0_2108_4004)">
<path fill-rule="evenodd" clip-rule="evenodd" d="M-19.9282 76.0365C-48.8006 100.644 -47.8797 143.904 -25.6864 160.22C0.172333 179.232 0.217529 190.498 -7.80772 218.807C-14.5987 242.762 16.4007 274.071 50.7917 270.904C85.4137 267.715 97.2675 250.769 118.506 248.46C147.014 245.361 165.468 262.288 204.272 260.094C260.663 256.905 276.886 195.468 249.619 160.22C234.863 141.144 232.326 127.268 233.183 102.796C233.895 82.4893 253.381 70.721 262.737 42.6784C267.7 27.8028 262.134 3.59978 249.619 -10.5201C235.962 -25.9288 208.373 -37.9023 180.282 -32.0898C156.355 -27.1391 149.125 -10.4122 120.648 -10.5201C92.6982 -10.6259 89.5055 -33.5974 56.3639 -40.6212C27.2897 -46.7831 -20.5198 -25.9674 -19.9282 10.9274C-19.566 33.5121 9.10476 51.2926 -19.9282 76.0365Z" fill="url(#paint0_linear_2108_4004)"/>
<path fill-rule="evenodd" clip-rule="evenodd" d="M248.733 -11.4954C249.034 -11.1721 249.33 -10.8469 249.62 -10.5203C262.135 3.59951 267.7 27.8026 262.737 42.6781C253.381 70.7207 233.895 82.4891 233.184 102.796C232.326 127.267 234.863 141.144 249.62 160.22C256.087 168.581 260.108 178.415 261.726 188.596C182.453 187.59 40.8326 185.545 -4.89616 183.289C-7.72283 175.672 -14.1242 168.72 -25.6856 160.22C-47.8789 143.903 -48.7999 100.643 -19.9274 76.0362C9.10549 51.2923 -19.5653 33.5118 -19.9274 10.9271C-20.0006 6.36699 -19.3342 2.05233 -18.0563 -1.99246C-3.53282 -0.0598526 38.8123 7.58316 48.4426 31.8139C60.1157 61.1845 79.6855 58.3723 101.658 51.8109C123.631 45.2493 132.558 28.6893 157.277 31.8139C181.997 34.9384 198.629 39.0929 209.635 24.7836C219.113 12.4613 232.579 -2.78462 248.733 -11.4954H248.733Z" fill="url(#paint1_linear_2108_4004)"/>
<path fill-rule="evenodd" clip-rule="evenodd" d="M-10.349 65.1293C-5.43861 73.0846 2.14915 79.9671 14.5157 81.156C46.3254 84.2142 51.2127 62.4668 80.8836 65.0065C118.772 68.2497 117.183 107.67 158.251 91.5611C197.876 76.0175 218.868 56.3192 250.948 66.4096C242.39 79.61 233.655 89.3239 233.183 102.796C232.326 127.267 234.863 141.144 249.619 160.219C276.886 195.467 260.663 256.904 204.272 260.093C165.469 262.288 147.014 245.361 118.506 248.459C97.2675 250.768 85.4138 267.714 50.7917 270.903C16.4007 274.07 -14.5986 242.761 -7.8077 218.806C0.21756 190.497 0.17234 179.231 -25.6864 160.219C-47.8797 143.903 -48.8006 100.643 -19.9282 76.0356C-15.489 72.2523 -12.3989 68.6318 -10.349 65.1293Z" fill="url(#paint2_linear_2108_4004)"/>
<path fill-rule="evenodd" clip-rule="evenodd" d="M-41.0477 112.813C-19.703 109.342 -7.43341 138.633 8.90514 144.335C42.8345 156.177 62.6612 145.585 77.8712 144.335C120.29 140.85 124.17 167.234 165.132 168.706C193.02 169.708 201.663 132.086 234.33 127.982C236.283 139.14 240.738 148.738 249.62 160.22C276.886 195.468 260.664 256.905 204.272 260.094C165.469 262.288 147.014 245.361 118.506 248.46C97.2679 250.769 85.4141 267.714 50.7921 270.903C16.4011 274.071 -14.5983 242.762 -7.80735 218.806C0.217907 190.497 0.17271 179.232 -25.686 160.22C-38.7244 150.634 -44.4208 131.748 -41.0477 112.813Z" fill="url(#paint3_linear_2108_4004)"/>
<path fill-rule="evenodd" clip-rule="evenodd" d="M-10.0713 174.371C26.6301 165.419 23.5119 205.769 45.9127 211.251C58.819 214.409 80.8916 203.588 90.9979 207.294C105.172 212.491 111.412 226.587 130.195 232.26C149.611 238.124 163.081 226.598 182.709 229.98C196.394 232.339 202.833 246.938 216.972 251.44C220.529 252.573 227.99 251.342 234.946 250.858C226.587 256.056 216.351 259.411 204.272 260.094C165.468 262.289 147.013 245.362 118.506 248.461C97.2672 250.769 85.4134 267.715 50.7914 270.904C16.4004 274.072 -14.5989 242.762 -7.80799 218.807C-1.94226 198.116 -0.388053 186.529 -10.0713 174.371Z" fill="url(#paint4_linear_2108_4004)"/>
<path fill-rule="evenodd" clip-rule="evenodd" d="M-8.66772 227.832C-7.31255 245.535 10.7146 264.353 33.3827 269.658C38.3083 255.628 49.2293 215.596 24.9092 189.254C24.9092 189.254 -0.501506 199.185 -8.66772 227.832Z" fill="url(#paint5_linear_2108_4004)"/>
<path fill-rule="evenodd" clip-rule="evenodd" d="M-7.93945 232.481C-7.71152 233.452 -7.43729 234.422 -7.11847 235.39L10.3693 258.679C10.7373 258.962 11.1096 259.241 11.4859 259.517C11.5338 259.407 11.5815 259.298 11.629 259.188L37.6457 254.474C37.7226 254.114 37.7984 253.753 37.8731 253.388L12.1138 258.056C15.4519 250.143 17.9566 241.767 19.8362 233.685L39.7623 224.292C39.7275 223.928 39.6895 223.56 39.6488 223.192L20.1321 232.392C22.3507 222.543 23.649 213.195 24.4082 205.734L32.8791 200.469C32.7155 200.162 32.5463 199.852 32.3736 199.543L24.5389 204.412C25.2568 196.953 25.4247 191.595 25.4624 189.861C25.2789 189.656 25.0956 189.455 24.9102 189.254C24.9102 189.254 24.7119 189.331 24.3441 189.493L24.3437 189.521C24.3096 191.414 24.2255 193.306 24.1203 195.197C23.9534 198.196 23.7202 201.191 23.4376 204.182L14.1619 195.494C13.8735 195.704 13.5812 195.921 13.2864 196.143L23.3054 205.528C22.5565 212.945 21.2713 222.253 19.0672 232.066L-0.623731 210.649C-0.832509 210.955 -1.03831 211.262 -1.24223 211.573L18.7754 233.345C16.8986 241.44 14.3906 249.833 11.0391 257.756L-7.93945 232.481Z" fill="#166F54"/>
<path fill-rule="evenodd" clip-rule="evenodd" d="M14.4407 261.553C22.2234 245.74 38.5243 220.855 65.342 216.852C65.342 216.852 73.7303 244.08 67.2676 268.061C62.3717 269.337 56.9409 270.337 50.792 270.903C37.5068 272.127 24.7276 268.206 14.4407 261.553Z" fill="url(#paint6_linear_2108_4004)"/>
<path fill-rule="evenodd" clip-rule="evenodd" d="M36.1867 270.24C36.5657 268.86 36.9767 267.487 37.4156 266.123L22.9985 246.832C23.2145 246.517 23.433 246.201 23.6533 245.887L37.8314 264.858C39.9785 258.463 42.7195 252.291 45.6331 246.619L36.9555 230.739C37.2366 230.489 37.5199 230.242 37.8064 229.996L46.2453 245.439C49.5214 239.188 52.9752 233.584 56.0191 229.014L53.237 220.267C53.5805 220.122 53.9262 219.98 54.2735 219.842L56.8142 227.83C58.2837 225.663 59.7936 223.518 61.3563 221.406C62.4602 219.914 63.5876 218.435 64.7558 216.984L64.7944 216.936C64.976 216.907 65.1586 216.879 65.3418 216.851C65.3418 216.851 65.4311 217.141 65.5842 217.688C64.5062 219.027 61.5028 222.848 57.7635 228.372L67.858 227.841C67.9175 228.175 67.9765 228.515 68.0347 228.858L57.0487 229.436C53.9687 234.052 50.4611 239.738 47.1464 246.086H69.6962C69.7026 246.426 69.7071 246.767 69.7101 247.11H46.6162C43.6838 252.827 40.9298 259.052 38.7911 265.501L68.3593 263.281C68.2933 263.629 68.2245 263.977 68.1531 264.324L38.448 266.554C38.0369 267.839 37.6512 269.132 37.294 270.43C36.9237 270.37 36.5544 270.307 36.1867 270.24Z" fill="#166F54"/>
<path fill-rule="evenodd" clip-rule="evenodd" d="M-8.56112 222.562C4.25364 221.083 16.6083 240.857 25.1594 247.505C53.1913 269.298 73.8948 244.068 90.3178 250.198C93.0595 251.222 95.9457 252.838 98.9009 254.742C86.6219 260.671 73.6838 268.794 50.7916 270.903C18.1718 273.907 -11.3967 245.895 -8.56112 222.562Z" fill="url(#paint7_linear_2108_4004)"/>
<path fill-rule="evenodd" clip-rule="evenodd" d="M23.1734 126.97C23.1734 126.97 23.402 117.371 21.2731 107.748C19.8394 101.268 17.3234 94.7863 12.9993 91.15C9.04448 87.8242 4.37554 86.3187 0.011754 84.5927C-4.20902 82.9231 -8.14127 81.0449 -10.7642 76.9377C-15.1686 70.0407 -12.9947 57.6078 -12.9947 57.6078C-12.9525 57.3635 -13.1361 57.1339 -13.4045 57.0955C-13.6731 57.057 -13.9252 57.2242 -13.9674 57.4685C-13.9674 57.4685 -16.1557 70.2789 -11.6156 77.388C-8.87515 81.6794 -4.79093 83.6703 -0.380686 85.4146C3.88656 87.1025 8.46352 88.5559 12.3309 91.8083C16.5246 95.3349 18.9172 101.64 20.3077 107.925C22.4148 117.45 22.1889 126.951 22.1889 126.951C22.1829 127.198 22.3988 127.403 22.6705 127.409C22.9422 127.414 23.1675 127.218 23.1734 126.97Z" fill="#178149"/>
<path fill-rule="evenodd" clip-rule="evenodd" d="M21.7227 113.44C21.8385 112.505 22.2438 110.52 23.6572 108.733C25.5874 106.293 29.3977 104.225 36.918 105.709C36.918 105.709 31.0199 119.32 21.8807 114.103C16.153 122.4 4.33645 112.5 4.33645 112.5C10.3935 108.181 14.8137 108.531 17.7195 109.961C19.857 111.013 21.1753 112.649 21.7227 113.44ZM19.0577 101.676C18.8362 100.841 18.4273 98.7336 19.1655 96.503C20.1184 93.6244 22.9814 90.5398 30.6231 89.7159C30.6231 89.7159 29.9063 104.475 19.255 102.074C15.8252 111.461 1.74853 104.264 1.74853 104.264C6.55059 98.7921 10.9406 98.2069 14.13 98.9896C16.6566 99.6098 18.4296 101.088 19.0577 101.676ZM12.2178 90.9758C12.2178 90.9758 9.56783 89.5312 6.27211 89.7357C2.97624 89.9403 -0.965433 91.7941 -3.54879 98.3908C-3.54879 98.3908 12.5049 101.054 12.2178 90.9758ZM1.26332 85.4084C0.902275 84.8898 -0.41663 82.818 -0.422909 80.2233C-0.430286 77.2169 1.3247 73.5084 8.37387 70.6996C8.37387 70.6996 12.3793 84.9401 1.52107 85.5259C1.6669 85.5954 1.74477 85.6378 1.74477 85.6378C2.03188 95.7159 -14.0218 93.0528 -14.0218 93.0528C-11.4384 86.4562 -7.49675 84.6025 -4.20103 84.3978C-1.74357 84.2453 0.354742 85.0095 1.26332 85.4084ZM12.3876 91.1496C12.3876 91.1496 10.618 88.8454 10.6108 85.8391C10.6036 82.8327 12.3586 79.1241 19.4076 76.3155C19.4076 76.3155 23.4543 90.7023 12.3876 91.1496ZM-10.6972 78.1189C-10.6972 78.1189 -12.0886 75.6092 -14.9944 74.1792C-17.9002 72.749 -22.3203 72.3987 -28.3776 76.7178C-28.3776 76.7178 -16.3728 86.7767 -10.6972 78.1189ZM-10.5769 78.3551C-10.5769 78.3551 -11.1491 75.5925 -9.79755 72.8493C-8.44614 70.1059 -5.17099 67.3819 2.52352 67.459C2.52352 67.459 -0.286663 82.0877 -10.5769 78.3551ZM-14.0141 66.4563C-14.0141 66.4563 -13.7774 63.6534 -11.6888 61.3242C-9.60007 58.995 -5.65934 57.1397 1.74853 59.0346C1.74853 59.0346 -5.14398 72.4954 -14.0141 66.4563C-22.8842 72.4954 -29.7769 59.0346 -29.7769 59.0346C-22.3688 57.1397 -18.4281 58.995 -16.3395 61.3242C-14.2508 63.6534 -14.0141 66.4563 -14.0141 66.4563ZM-14.0141 58.2523C-14.0141 58.2523 -16.1163 56.1925 -16.5795 53.2157C-17.0429 50.2391 -15.8673 46.3456 -9.31186 42.6781C-9.31186 42.6781 -3.12134 56.4187 -14.0141 58.2523Z" fill="url(#paint8_linear_2108_4004)"/>
<path fill-rule="evenodd" clip-rule="evenodd" d="M26.2721 159.62C21.9829 159.284 7.54299 158.212 6.33427 149.395C5.63181 144.271 10.389 142.984 13.4914 143.109C9.82809 141.989 2.15384 138.767 0.643732 135.266C-0.672043 132.215 1.19865 127.801 7.3314 128.709C4.68258 126.505 2.21758 124.293 0.643732 121.309C-3.20878 114.006 0.540906 102.027 11.1385 106.464C17.0765 108.95 20.5222 115.948 21.0569 120.424C22.2322 114.827 29.1754 113.841 31.8118 118.321C34.3043 122.556 34.3065 129.221 32.8468 133.582C34.164 131.424 35.0925 129.009 39.3106 129.633C48.1501 130.94 51.4475 152.01 50.0302 152.995L26.2721 159.62Z" fill="url(#paint9_linear_2108_4004)"/>
<path fill-rule="evenodd" clip-rule="evenodd" d="M26.9239 115.504C28.8154 115.51 30.6974 116.427 31.811 118.319C34.3035 122.555 34.3057 129.22 32.846 133.581C34.1631 131.423 35.0917 129.008 39.3098 129.632C48.1493 130.939 51.4467 152.009 50.0294 152.994L26.2713 159.618C21.9821 159.283 7.54219 158.211 6.33347 149.394C6.26189 148.872 6.24697 148.39 6.28135 147.945C11.2256 152.754 18.5324 152.149 18.5324 152.149C22.907 144.115 37.7008 141.654 37.7008 141.654C31.7132 135.442 28.2634 121.846 26.9239 115.504Z" fill="url(#paint10_linear_2108_4004)"/>
<path fill-rule="evenodd" clip-rule="evenodd" d="M11.2074 117.099L15.0783 109.028C15.3662 109.291 15.6442 109.566 15.9126 109.849L11.9052 118.204L22.8624 135.569L27.7515 115.566C28.1203 115.62 28.4845 115.71 28.8385 115.836L23.7264 136.752C23.7164 136.793 23.7013 136.832 23.6817 136.868L31.1784 148.748L39.9462 129.762C40.3049 129.856 40.654 129.983 40.9927 130.14L31.8832 149.865L36.2771 156.829L35.1734 157.136L31.0363 150.58L6.53126 150.38C6.44665 150.064 6.3804 149.735 6.33362 149.394L6.33174 149.38C6.38731 149.364 6.44649 149.355 6.50786 149.356L30.3868 149.55L22.4898 137.036L0.263344 132.9C0.293483 132.559 0.360046 132.221 0.464278 131.892L21.7424 135.851L10.8454 118.582L-0.600811 117.667C-0.664387 117.321 -0.714924 116.974 -0.752441 116.626L10.1621 117.499L3.21042 106.482C3.52186 106.293 3.85103 106.128 4.19779 105.99L11.2074 117.099Z" fill="#1F6B4E"/>
<path fill-rule="evenodd" clip-rule="evenodd" d="M200.18 169.037C204.473 169.328 218.916 170.366 221.654 161.837C223.246 156.88 218.775 154.919 215.69 154.593C219.503 154.019 227.644 151.952 229.748 148.715C231.582 145.894 230.508 141.265 224.295 141.271C227.296 139.48 230.117 137.653 232.194 134.936C237.277 128.286 235.674 115.915 224.435 118.758C218.137 120.351 213.509 126.759 212.197 131.1C212.017 125.404 205.336 123.423 201.948 127.462C198.745 131.282 197.575 137.862 198.252 142.378C197.33 140.057 196.837 137.538 192.563 137.542C183.608 137.549 176.66 157.871 177.887 159.049L200.18 169.037Z" fill="url(#paint11_linear_2108_4004)"/>
<path fill-rule="evenodd" clip-rule="evenodd" d="M209.518 126.219C207.57 124.688 203.379 125.757 201.948 127.463C198.745 131.282 197.575 137.862 198.252 142.379C197.33 140.058 196.837 137.539 192.563 137.542C183.608 137.549 176.66 157.872 177.887 159.049L200.18 169.038C204.473 169.329 218.916 170.366 221.654 161.838C221.816 161.333 221.916 160.859 221.96 160.415C210.907 163.141 200.326 160.627 198.252 154.928C196.179 149.228 207.085 132.285 209.518 126.219Z" fill="url(#paint12_linear_2108_4004)"/>
<path fill-rule="evenodd" clip-rule="evenodd" d="M24.5691 25.9507C24.5691 25.9507 19.934 5.76745 56.7793 5.89945C56.7793 5.89945 43.2669 34.3773 24.5691 25.9507Z" fill="url(#paint13_linear_2108_4004)"/>
<path fill-rule="evenodd" clip-rule="evenodd" d="M47.936 10.6832L53.066 12.2599C52.8699 12.5528 52.6666 12.8511 52.4565 13.1537L46.6896 11.3812C45.4899 12.0595 44.2246 12.7935 42.9164 13.5764C42.0256 14.1096 41.1149 14.6656 40.1928 15.2433L49.2625 17.3202C49.013 17.6143 48.7572 17.9083 48.4961 18.2009L38.9805 16.0219L38.9684 16.0189C37.1722 17.1696 35.3442 18.3988 33.5397 19.6969L43.6443 22.8026C43.3079 23.0657 42.9665 23.3213 42.6197 23.5687L32.4965 20.4574C31.6427 21.088 30.7964 21.7338 29.964 22.394C29.3999 22.8413 28.842 23.2947 28.292 23.7546L35.8779 26.9039C35.2964 27.0657 34.7076 27.1971 34.11 27.2958L27.4012 24.5106C22.7814 28.4925 18.8224 32.8961 16.6987 37.5006C16.5791 37.758 16.2521 37.8787 15.9692 37.7699C15.6862 37.6609 15.5535 37.3634 15.6732 37.1059C17.8727 32.4072 21.9271 27.9054 26.6742 23.8575L25.8226 17.6422C26.072 17.1358 26.3621 16.6235 26.6992 16.1106C26.7381 16.1696 26.7643 16.2369 26.7742 16.3096L27.6916 23.0052C28.225 22.5662 28.765 22.1336 29.3109 21.707C30.1412 21.0581 30.9845 20.4228 31.8354 19.8027L31.6529 11.2944C32.0064 11.0632 32.3764 10.8365 32.7639 10.6146L32.944 19.0058C34.8183 17.6771 36.7176 16.4223 38.584 15.2553L39.4607 7.88271C39.8408 7.775 40.2305 7.671 40.6299 7.57071L39.8057 14.5007C40.7015 13.9543 41.5868 13.4291 42.4547 12.9267C43.7451 12.1799 44.9976 11.4842 46.1895 10.8425C46.1912 10.7963 46.1998 10.7498 46.216 10.7038L47.7533 6.33369C48.1555 6.29012 48.5631 6.24983 48.9776 6.21254L47.6158 10.0842C48.2519 9.75033 48.8661 9.43375 49.4544 9.13474C52.7965 7.43628 55.3023 6.31611 56.2584 5.89896C56.4129 5.83153 56.779 5.89954 56.779 5.89954C56.779 5.89954 56.6805 6.1734 56.6009 6.21097C55.7902 6.59198 53.2493 7.80785 49.7918 9.66889C49.1987 9.98818 48.5788 10.3266 47.936 10.6832Z" fill="#389361"/>
<path fill-rule="evenodd" clip-rule="evenodd" d="M18.3936 108.561C18.3936 108.561 24.4563 107.026 27.8095 103.292L32.7501 114.566C32.7501 114.566 20.608 112.927 18.3936 108.561Z" fill="#DAEDF6"/>
<path fill-rule="evenodd" clip-rule="evenodd" d="M194.99 26.0061C194.99 26.0061 185.873 27.6896 181.709 26.0061L191.033 37.1738C194.719 35.0199 197.259 32.2569 194.99 26.0061Z" fill="#DAEDF6"/>
<path d="M120.648 178.467C173.438 178.467 216.232 139.521 216.232 91.479C216.232 43.4367 173.438 4.49072 120.648 4.49072C67.8588 4.49072 25.0645 43.4367 25.0645 91.479C25.0645 139.521 67.8588 178.467 120.648 178.467Z" fill="url(#paint14_linear_2108_4004)"/>
<path fill-rule="evenodd" clip-rule="evenodd" d="M44.9223 38.4178C42.4614 51.9737 39.9748 75.871 47.3574 96.7309C56.2355 121.816 70.2995 141.257 98.3943 145.937C118.352 149.261 115.701 135.404 141.548 131.592C154.461 129.688 177.669 133.258 184.717 120.714C192.401 107.039 209.113 80.8506 201.386 44.9227C210.786 58.3867 216.232 74.3584 216.232 91.4789C216.232 139.489 173.402 178.467 120.648 178.467C67.894 178.467 25.0645 139.489 25.0645 91.4789C25.0645 71.5115 32.4728 53.1063 44.9223 38.4178Z" fill="url(#paint15_linear_2108_4004)"/>
<path fill-rule="evenodd" clip-rule="evenodd" d="M118.785 12.7686C148.694 12.7686 175.255 28.8984 181.038 45.5159C186.82 62.1334 182.517 97.5464 164.409 109.681C146.302 121.817 95.7132 126.52 79.9898 113.009C64.2663 99.4987 52.5338 63.3748 60.3304 45.5159C67.2663 29.629 88.8755 12.7686 118.785 12.7686Z" fill="url(#paint16_linear_2108_4004)"/>
<path d="M113.571 74.3154C126.418 74.3154 136.833 64.8372 136.833 53.1452C136.833 41.4533 126.418 31.9751 113.571 31.9751C100.724 31.9751 90.3091 41.4533 90.3091 53.1452C90.3091 64.8372 100.724 74.3154 113.571 74.3154Z" fill="url(#paint17_linear_2108_4004)"/>
<path d="M140.925 96.9493C150.018 96.9493 157.39 90.2406 157.39 81.965C157.39 73.6894 150.018 66.9807 140.925 66.9807C131.831 66.9807 124.46 73.6894 124.46 81.965C124.46 90.2406 131.831 96.9493 140.925 96.9493Z" fill="url(#paint18_linear_2108_4004)"/>
<path fill-rule="evenodd" clip-rule="evenodd" d="M26.9281 74.3149C26.7907 123.528 62.7383 153.781 90.6178 161.497C117.11 168.829 124.031 168.036 124.031 168.036C124.031 168.036 118.195 144.92 146.996 145.602C172.532 146.208 174.518 148.351 185.158 144.183C190.383 142.135 209.231 127.229 216.178 88.5372L216.183 88.6761C216.185 88.7225 216.186 88.7691 216.188 88.8157L216.189 88.8582L215.083 104.997C207.935 146.599 168.348 178.467 120.648 178.467C67.894 178.467 25.0645 139.489 25.0645 91.4786C25.0645 85.6022 25.706 79.8611 26.9281 74.3149Z" fill="url(#paint19_linear_2108_4004)"/>
<path fill-rule="evenodd" clip-rule="evenodd" d="M75.4992 168.157C78.0808 165.065 82.6504 161.082 89.522 160.176C101.11 158.647 103.102 157.697 108.728 152.742C115.627 146.665 126.489 148.004 134.382 152.742C142.275 157.48 144.936 160.023 156.02 160.176C161.718 160.254 166.543 162.766 170.069 165.937C155.64 173.89 138.727 178.467 120.648 178.467C104.321 178.467 88.944 174.734 75.4992 168.157ZM67.0576 19.4567C69.0263 20.9373 71.043 22.8171 72.9918 25.2037C78.1308 31.4975 69.3412 41.5996 74.5933 50.7724C79.9085 60.0553 85.8427 58.4246 89.6621 67.9264C96.3664 84.6056 73.1009 81.1195 78.7426 93.4703C82.932 102.642 56.9402 108.14 62.7639 116.421C68.5875 124.702 74.3021 122.582 74.5933 133.646C74.6969 137.582 68.442 140.304 72.9918 152.063C75.3662 158.2 75.3041 163.141 69.6324 165.038C42.855 149.612 25.0645 122.421 25.0645 91.479C25.0645 61.5351 41.7253 35.1046 67.0576 19.4567ZM177.271 21.4092C200.895 37.2547 216.232 62.7497 216.232 91.479C216.232 101.201 214.476 110.553 211.235 119.288C208.786 120.589 206.463 122.389 204.42 125.364C199.798 132.094 194.318 148.671 186.165 148.671C178.013 148.671 173.607 136.771 177.271 125.364C179.797 117.499 171.122 115.025 170.069 105.395C169.098 96.5141 173.511 89.7017 170.069 82.848C164.966 72.6866 146.989 66.2455 147.698 56.568C148.407 46.8906 166.89 20.3245 177.271 21.4092ZM169.361 128.054C172.376 124.92 165.814 123.783 163.46 120.512C160.83 116.858 160.952 108.155 156.842 108.931C151.241 109.99 153.069 120.601 156.842 124.617C160.346 128.344 166.888 130.626 169.361 128.054ZM88.974 92.4688C88.3576 96.5936 90.951 104.049 78.299 110.347C68.7958 115.077 74.9655 130.588 90.8869 120.226C97.8405 115.701 100.7 112.329 101.592 105.395C102.464 98.625 102.965 92.2116 101.592 89.1725C99.3354 84.1732 90.2258 84.0937 88.974 92.4688ZM81.9079 11.943C93.7565 7.15206 106.864 4.49072 120.648 4.49072C132.497 4.49072 143.845 6.45705 154.318 10.05C148.598 12.3692 147.127 15.4254 147.698 19.8197C148.709 27.6019 133 33.6486 126.115 26.4652C119.229 19.2819 112.784 30.8854 103.423 28.9106C97.2034 27.5986 94.7917 24.6043 89.4176 17.5737C87.5711 15.1579 84.7223 13.3389 81.9079 11.943Z" fill="url(#paint20_linear_2108_4004)"/>
<path fill-rule="evenodd" clip-rule="evenodd" d="M77.5857 110.738C77.8135 110.6 78.0508 110.469 78.2988 110.346C90.9508 104.048 88.3574 96.5926 88.9739 92.4678C90.2256 84.0928 99.3352 84.1723 101.592 89.1716C102.964 92.2107 102.463 98.6241 101.592 105.394C100.786 111.66 98.3735 115.017 92.7853 118.945C87.5146 117.615 83.0788 115.663 79.9892 113.009C79.1762 112.31 78.374 111.551 77.5857 110.738ZM153.296 114.962C153.243 111.971 154.242 109.422 156.842 108.93C158.606 108.597 159.59 110.009 160.347 112.019C158.231 113.077 155.861 114.062 153.296 114.962ZM165.843 27.2363C173.375 32.6375 178.784 39.0392 181.037 45.5151C186.168 60.2615 183.357 89.8088 170.008 104.754C169.307 96.1835 173.427 89.5349 170.069 82.8471C164.965 72.6857 146.989 66.2446 147.698 56.5671C148.183 49.942 156.999 35.4014 165.843 27.2363ZM74.3584 27.867C76.0659 34.1314 70.0301 42.8022 74.5931 50.7715C79.9083 60.0543 85.8425 58.4237 89.6619 67.9255C96.3662 84.6047 73.1007 81.1186 78.7425 93.4694C80.5753 97.4819 76.6313 100.791 72.1027 103.938C60.7241 87.2823 53.9131 60.2131 60.3298 45.5151C62.9806 39.4431 67.775 33.229 74.3584 27.867ZM193.21 64.0481C195.696 64.0481 197.715 65.8853 197.715 68.1481C197.715 70.4108 195.696 72.248 193.21 72.248C190.723 72.248 188.705 70.4108 188.705 68.1481C188.705 65.8853 190.723 64.0481 193.21 64.0481ZM53.3491 36.7677C55.8354 36.7677 57.8541 38.6048 57.8541 40.8677C57.8541 43.1304 55.8354 44.9675 53.3491 44.9675C50.8627 44.9675 48.844 43.1304 48.844 40.8677C48.844 38.6048 50.8627 36.7677 53.3491 36.7677ZM90.0925 18.4545C98.3898 14.9382 108.053 12.7677 118.784 12.7677C129.01 12.7677 138.845 14.6532 147.59 17.7988C147.567 18.4394 147.606 19.1118 147.698 19.8188C148.709 27.601 133 33.6477 126.114 26.4643C119.229 19.281 112.784 30.8845 103.422 28.9097C97.4694 27.6538 95.005 24.8566 90.0925 18.4545Z" fill="url(#paint21_linear_2108_4004)"/>
<path fill-rule="evenodd" clip-rule="evenodd" d="M75.4996 168.157C78.0813 165.065 82.6508 161.082 89.5225 160.176C101.11 158.647 103.103 157.697 108.728 152.742C115.627 146.665 126.489 148.004 134.383 152.742C142.276 157.48 144.936 160.023 156.02 160.176C161.718 160.254 166.543 162.766 170.069 165.937L169.908 166.025L169.891 166.035C158.775 172.132 146.192 176.228 132.742 177.776L132.741 177.777L132.537 177.8C132.468 177.808 132.4 177.815 132.332 177.823L132.13 177.845L132.124 177.846L131.921 177.868L131.719 177.889L131.71 177.89L131.514 177.911L131.508 177.911L131.304 177.932L131.108 177.952L131.088 177.954L130.892 177.973L130.688 177.993L130.683 177.993L130.493 178.011L130.469 178.013L130.274 178.031L130.075 178.049L130.053 178.051L129.876 178.067L129.852 178.069L129.654 178.086L129.461 178.102L129.429 178.105L129.253 178.119L129.234 178.121L129.037 178.137L129.021 178.138L128.845 178.152L128.808 178.154L128.62 178.169L128.617 178.169L128.422 178.183L128.389 178.186L128.226 178.198L128.188 178.2L127.995 178.214L127.805 178.227L127.763 178.23L127.603 178.24L127.569 178.243L127.376 178.255L127.354 178.256L127.186 178.267L127.14 178.27L126.972 178.28L126.949 178.281L126.758 178.292L126.719 178.295L126.565 178.303L126.518 178.306L126.328 178.316L126.138 178.326L126.091 178.329L125.94 178.336L125.896 178.338L125.706 178.348L125.682 178.349L125.517 178.356L125.465 178.359L125.309 178.366L125.274 178.367L125.086 178.375L125.044 178.377L124.893 178.383L124.841 178.385L124.665 178.392L124.652 178.392L124.463 178.399L124.413 178.401L124.266 178.406L124.217 178.408L124.028 178.414L124.007 178.415L123.839 178.42L123.785 178.421L123.635 178.426L123.592 178.427L123.405 178.432L123.363 178.433L123.213 178.437L123.158 178.438L122.993 178.442L122.968 178.442L122.779 178.446L122.729 178.447L122.584 178.45L122.531 178.451L122.342 178.454L122.329 178.454L122.153 178.457L122.098 178.458L121.95 178.46L121.904 178.46L121.716 178.462L121.678 178.463L121.524 178.464L121.468 178.464L121.31 178.465L121.277 178.466L121.088 178.467L121.039 178.467L120.893 178.467L120.838 178.467L120.649 178.468L120.473 178.467L120.418 178.467L120.296 178.467L120.234 178.467L120.114 178.466L120.056 178.466L119.905 178.465L119.881 178.465L119.706 178.463L119.655 178.463L119.529 178.462L119.468 178.461L119.349 178.46L119.29 178.459L119.152 178.457L119.114 178.457L118.94 178.454L118.894 178.453L118.764 178.451L118.703 178.45L118.586 178.448L118.524 178.446L118.396 178.444L118.349 178.443L118.175 178.439L118.137 178.438L118.001 178.435L117.94 178.433L117.823 178.43L117.761 178.428L117.638 178.425L117.585 178.424L117.412 178.418L117.385 178.418L117.238 178.413L117.179 178.411L117.063 178.407L116.998 178.405L116.881 178.401L116.823 178.399L116.66 178.393L116.65 178.393L116.643 178.392L116.478 178.386L116.419 178.384L116.303 178.379L116.237 178.376L116.124 178.372L116.062 178.369L115.924 178.363L115.888 178.361L115.719 178.354L115.66 178.351L115.545 178.345L115.477 178.342L115.369 178.337L115.302 178.333L115.18 178.327L115.129 178.325L114.961 178.316L114.903 178.313L114.789 178.306L114.719 178.302L114.615 178.297L114.543 178.293L114.433 178.286L114.371 178.282L114.206 178.273L114.147 178.269L114.034 178.262L113.961 178.257L113.862 178.251L113.786 178.246L113.685 178.24L113.613 178.235L113.469 178.225L113.451 178.224L113.391 178.22L113.281 178.212L113.203 178.207L113.11 178.2L113.029 178.195L112.938 178.188L112.857 178.182L112.753 178.174L112.693 178.17L112.633 178.165L112.53 178.158L112.446 178.151L112.36 178.144L112.273 178.137L112.191 178.131L112.103 178.124L112.019 178.117L111.937 178.11L111.865 178.104L111.781 178.097L111.688 178.09L111.612 178.083L111.518 178.075L111.445 178.069L111.349 178.06L111.281 178.054L111.183 178.046C111.133 178.041 111.082 178.036 111.032 178.032L110.928 178.022L110.866 178.017L110.763 178.007L110.7 178.001L110.595 177.991L110.54 177.986L110.43 177.975C110.38 177.97 110.33 177.966 110.28 177.961L110.163 177.949L110.121 177.945L110.007 177.933L109.957 177.928L109.843 177.917L109.801 177.912L109.679 177.9C109.629 177.895 109.579 177.889 109.529 177.884L109.387 177.869L109.378 177.868L109.251 177.854L109.216 177.851L109.091 177.837L109.061 177.834C108.872 177.813 108.683 177.791 108.492 177.769L108.476 177.767L108.339 177.751L108.323 177.75C108.079 177.721 107.835 177.691 107.587 177.661L107.586 177.66C96.2753 176.251 85.5923 173.038 75.9035 168.353L75.8492 168.327L75.7753 168.291L75.6924 168.251L75.6387 168.225L75.4996 168.157ZM69.6328 165.038C15.0041 137.735 15.8821 67.1775 44.9227 38.4182C42.4618 51.9741 39.9753 75.8714 47.3579 96.7312C53.1668 113.145 61.1958 127.142 73.9248 136.17C72.4728 139.211 69.4407 142.884 72.9923 152.064C75.3667 158.201 75.3045 163.142 69.6328 165.038ZM201.386 44.9235C225.243 81.9249 213.438 113.352 211.236 119.289C208.786 120.589 206.464 122.389 204.42 125.364C199.799 132.094 194.318 148.671 186.166 148.671C178.52 148.671 174.17 138.205 176.68 127.496C180.11 126.035 182.932 123.892 184.718 120.714C192.402 107.039 209.113 80.8509 201.386 44.9235Z" fill="url(#paint22_linear_2108_4004)"/>
<path fill-rule="evenodd" clip-rule="evenodd" d="M129.176 150.276C130.998 150.93 132.754 151.763 134.383 152.741C142.276 157.479 144.936 160.022 156.02 160.175C161.718 160.253 166.543 162.765 170.069 165.936C146.233 183.88 89.71 179.105 75.4997 168.156C77.8172 165.38 81.7369 161.887 87.4858 160.545C88.5385 160.893 89.5838 161.21 90.6183 161.496C117.11 168.828 124.031 168.035 124.031 168.035C124.031 168.035 121.209 156.857 129.176 150.276ZM69.6329 165.037C20.2369 137.734 23.3325 88.13 26.9286 74.3146C26.818 113.991 50.161 141.343 73.8178 154.495C75.2461 159.487 74.5332 163.398 69.6329 165.037ZM216.179 88.537C216.546 90.9103 216.134 107.607 211.235 119.288C208.786 120.588 206.464 122.388 204.421 125.363C199.799 132.093 194.319 148.67 186.166 148.67C183.758 148.67 181.676 147.631 180.033 145.874C181.585 145.487 183.229 144.938 185.158 144.182C190.384 142.135 209.232 127.228 216.179 88.537Z" fill="url(#paint23_linear_2108_4004)"/>
<path fill-rule="evenodd" clip-rule="evenodd" d="M18.4545 108.47C29.6075 118.586 34.5526 104.669 41.895 104.676C46.6173 104.682 50.7582 106.802 55.3841 104.614C60.4031 102.241 63.0048 95.9769 68.7107 95.111C73.6115 94.3674 78.0504 97.7489 82.9286 96.9939C87.4267 96.2979 90.6571 91.6842 95.052 91.5859C99.1651 91.4938 101.911 95.8733 106.103 94.7148C108.025 94.1837 109.53 92.9276 111.271 92.0799C111.063 96.5879 107.001 100.445 101.849 100.222C97.8521 100.05 94.0962 97.6233 90.5053 100.501C86.352 103.829 85.3292 109.439 79.754 111.48C73.9137 113.618 67.4413 110.126 62.0956 113.174C55.8516 116.734 55.471 122.299 48.458 125.197C30.2125 132.737 18.0175 119.46 18.4545 108.47Z" fill="url(#paint24_linear_2108_4004)"/>
<path fill-rule="evenodd" clip-rule="evenodd" d="M194.969 26.0029C198.876 28.3238 205.327 43.3323 192.344 52.4896C179.135 61.8055 169.144 52.8658 160.447 58.8187C145.727 68.8949 141.73 76.7575 126.625 71.7727C140.415 71.4474 140.835 58.5307 145.115 55.0335C153.999 47.7758 159.722 55.6642 169.014 49.3951C175.985 44.6916 169.773 40.4574 175.177 34.8971C178.092 31.8981 184.095 32.8295 188.034 32.8832C197.615 33.0141 194.73 25.8609 194.969 26.0029Z" fill="url(#paint25_linear_2108_4004)"/>
<path fill-rule="evenodd" clip-rule="evenodd" d="M97.4558 61.6034C84.2516 55.9842 88.0209 68.3841 79.8339 70.6178C75.5171 71.7956 69.8454 68.3253 66.2144 70.8685C70.2078 73.0975 72.3546 73.3924 76.4023 74.443C89.3129 77.7945 85.111 64.2576 97.4558 61.6034Z" fill="url(#paint26_linear_2108_4004)"/>
<path fill-rule="evenodd" clip-rule="evenodd" d="M211.093 96.1267C206.523 100.992 202.638 107.847 195.512 109.435C191.815 110.259 188.029 110.72 184.651 112.437C177.31 116.168 174.244 124.268 167.002 128.203C162.574 130.61 156.346 132.463 151.138 132.77C148.979 132.897 146.484 132.217 144.398 133.004C149.41 127.31 158.584 128.514 164.536 124.109C170.989 119.334 171.918 111.636 177.623 106.423C179.024 105.143 180.549 104.216 182.453 103.693C187.091 102.418 191.878 102.821 196.765 102.24C203.509 101.437 211.06 96.1254 211.093 96.1267Z" fill="url(#paint27_linear_2108_4004)"/>
<path fill-rule="evenodd" clip-rule="evenodd" d="M62.5676 129.956C70.6946 132.05 70.3263 126.462 76.3125 124.502C83.9611 121.998 87.5981 129.598 97.4556 116.284C97.0311 119.622 94.7901 124.75 91.7274 126.92C85.2113 131.536 81.3384 126.426 75.5265 128.42C71.6845 129.738 66.582 136.04 62.5676 129.956Z" fill="url(#paint28_linear_2108_4004)"/>
<path fill-rule="evenodd" clip-rule="evenodd" d="M156.655 81.2263C160.241 75.7349 169.308 82.3269 177.745 78.2399C172.59 83.8264 167.084 81.6346 162.316 82.5378C157.57 83.4368 155.654 90.4017 150.051 91.5843C155.391 86.7702 154.672 84.2627 156.655 81.2263Z" fill="url(#paint29_linear_2108_4004)"/>
<path fill-rule="evenodd" clip-rule="evenodd" d="M158.686 4.61584C154.164 18.7917 149.003 12.4987 141.379 16.8519C136.196 19.8111 137.212 23.8771 134.281 26.8617C130.287 30.9304 124.624 29.6779 121.846 31.3251C117.176 34.0939 116.68 40.2557 103.696 40.7284C111.955 38.1619 112.084 29.2869 116.563 26.8617C121.185 24.3599 130.015 25.0238 130.367 23.0136C130.915 19.8716 130.664 15.6852 133.171 13.3389C140.41 6.56188 144.525 15.6573 158.686 4.61584Z" fill="url(#paint30_linear_2108_4004)"/>
<path fill-rule="evenodd" clip-rule="evenodd" d="M243.42 244.404C229.311 240.963 207.438 235.643 198.743 235.925C183.209 236.43 157.182 242.207 134.696 240.094C75.6094 234.54 37.9023 186.537 25.0651 167.134C15.1483 152.145 34.6367 141.733 46.7597 148.922C77.3068 167.036 87.9477 181.243 143.778 178.466C143.778 178.466 121.935 167.639 128.038 156.279C134.141 144.918 164.378 147.443 181.854 156.279C196.071 163.466 232.866 170.364 256.781 172.105C267.71 196.068 263.015 226.303 243.42 244.404Z" fill="#FFC4CD"/>
<path fill-rule="evenodd" clip-rule="evenodd" d="M42.9788 147.292C44.2876 147.671 45.5599 148.21 46.7602 148.922C77.3073 167.036 87.9482 181.243 143.778 178.466C143.778 178.466 140.43 176.807 136.721 174.105L152.892 181.714C152.892 181.714 142.637 182.803 111.531 181.714C85.5383 180.804 52.9822 155.567 42.9788 147.292Z" fill="url(#paint31_linear_2108_4004)"/>
<path fill-rule="evenodd" clip-rule="evenodd" d="M127.545 163.608C126.707 161.265 126.693 158.785 128.039 156.279C134.142 144.919 164.379 147.443 181.855 156.279C193.048 161.938 218.236 167.417 240.114 170.341C222.668 170.29 201.99 168.997 191.198 165.049C171.003 157.663 156.569 152.751 142.446 154.368C132.17 155.545 128.658 160.974 127.545 163.608Z" fill="#FFD6DC"/>
<path fill-rule="evenodd" clip-rule="evenodd" d="M22.3459 159.024C27.0921 172 80.2733 215.171 108.015 221.151C151.999 230.632 159.885 222.48 192.6 221.151C207.814 220.532 223.034 229.916 236.382 225.293C248.566 221.071 256.513 215.316 261.63 209.974C259.441 222.97 253.34 235.242 243.421 244.404C229.311 240.964 207.438 235.643 198.744 235.926C183.209 236.431 157.183 242.208 134.697 240.094C75.6102 234.54 37.9031 186.538 25.0659 167.135C23.854 165.303 23.0812 163.54 22.6802 161.867L22.3459 159.026V159.024Z" fill="url(#paint32_linear_2108_4004)"/>
</g>
<defs>
<linearGradient id="paint0_linear_2108_4004" x1="111.885" y1="-3.36341" x2="110.68" y2="252.698" gradientUnits="userSpaceOnUse">
<stop offset="0.0297" stop-color="#FDE895"/>
<stop offset="0.3053" stop-color="#FDE090"/>
<stop offset="0.8392" stop-color="#FE9A81"/>
<stop offset="1" stop-color="#FE5E81"/>
</linearGradient>
<linearGradient id="paint1_linear_2108_4004" x1="111.886" y1="13.0221" x2="111.393" y2="176.811" gradientUnits="userSpaceOnUse">
<stop offset="0.0297" stop-color="#FDE895"/>
<stop offset="0.3053" stop-color="#FDE090"/>
<stop offset="0.8392" stop-color="#FE9A81"/>
<stop offset="1" stop-color="#FE5E81"/>
</linearGradient>
<linearGradient id="paint2_linear_2108_4004" x1="110.883" y1="89.0734" x2="110.35" y2="258.905" gradientUnits="userSpaceOnUse">
<stop offset="0.0297" stop-color="#FDE895"/>
<stop offset="0.3053" stop-color="#FDE090"/>
<stop offset="0.8392" stop-color="#FE9A81"/>
<stop offset="1" stop-color="#FE5E81"/>
</linearGradient>
<linearGradient id="paint3_linear_2108_4004" x1="110.883" y1="131.961" x2="110.572" y2="261.785" gradientUnits="userSpaceOnUse">
<stop offset="0.0297" stop-color="#FDE895"/>
<stop offset="0.3053" stop-color="#FDE090"/>
<stop offset="0.8392" stop-color="#FE9A81"/>
<stop offset="1" stop-color="#FE5E81"/>
</linearGradient>
<linearGradient id="paint4_linear_2108_4004" x1="112.929" y1="185.094" x2="112.781" y2="265.352" gradientUnits="userSpaceOnUse">
<stop offset="0.0297" stop-color="#FDE895"/>
<stop offset="0.3053" stop-color="#FDE090"/>
<stop offset="0.8392" stop-color="#FE9A81"/>
<stop offset="1" stop-color="#FE5E81"/>
</linearGradient>
<linearGradient id="paint5_linear_2108_4004" x1="5.41775" y1="189.254" x2="5.41775" y2="244.405" gradientUnits="userSpaceOnUse">
<stop stop-color="#70E578"/>
<stop offset="1" stop-color="#197F64"/>
</linearGradient>
<linearGradient id="paint6_linear_2108_4004" x1="30.3942" y1="216.852" x2="29.8916" y2="260.177" gradientUnits="userSpaceOnUse">
<stop stop-color="#8CED92"/>
<stop offset="1" stop-color="#197F64"/>
</linearGradient>
<linearGradient id="paint7_linear_2108_4004" x1="45.2915" y1="228.444" x2="45.2085" y2="268.261" gradientUnits="userSpaceOnUse">
<stop offset="0.0297" stop-color="#FDE895"/>
<stop offset="0.3053" stop-color="#FDE090"/>
<stop offset="0.8392" stop-color="#FE9A81"/>
<stop offset="1" stop-color="#FE5E81"/>
</linearGradient>
<linearGradient id="paint8_linear_2108_4004" x1="-10.5265" y1="49.4224" x2="-10.5265" y2="117.417" gradientUnits="userSpaceOnUse">
<stop stop-color="#7BD772"/>
<stop offset="1" stop-color="#297D54"/>
</linearGradient>
<linearGradient id="paint9_linear_2108_4004" x1="13.9385" y1="107.78" x2="13.9385" y2="157.136" gradientUnits="userSpaceOnUse">
<stop stop-color="#75E083"/>
<stop offset="1" stop-color="#197F64"/>
</linearGradient>
<linearGradient id="paint10_linear_2108_4004" x1="21.5333" y1="114.561" x2="21.5333" y2="155.167" gradientUnits="userSpaceOnUse">
<stop stop-color="#40B764"/>
<stop offset="1" stop-color="#166F54"/>
</linearGradient>
<linearGradient id="paint11_linear_2108_4004" x1="221.439" y1="119.652" x2="214.244" y2="168.59" gradientUnits="userSpaceOnUse">
<stop stop-color="#75E083"/>
<stop offset="1" stop-color="#197F64"/>
</linearGradient>
<linearGradient id="paint12_linear_2108_4004" x1="212.754" y1="125.245" x2="206.834" y2="165.507" gradientUnits="userSpaceOnUse">
<stop stop-color="#40B764"/>
<stop offset="1" stop-color="#166F54"/>
</linearGradient>
<linearGradient id="paint13_linear_2108_4004" x1="53.6569" y1="4.93943" x2="24.8968" y2="28.1549" gradientUnits="userSpaceOnUse">
<stop stop-color="#A6E9A1"/>
<stop offset="1" stop-color="#3DBF60"/>
</linearGradient>
<linearGradient id="paint14_linear_2108_4004" x1="137.58" y1="23.5077" x2="137.58" y2="161.031" gradientUnits="userSpaceOnUse">
<stop stop-color="#54B0FC"/>
<stop offset="1" stop-color="#265DDD"/>
</linearGradient>
<linearGradient id="paint15_linear_2108_4004" x1="135.979" y1="47.995" x2="135.979" y2="171.099" gradientUnits="userSpaceOnUse">
<stop stop-color="#358EF4"/>
<stop offset="1" stop-color="#173D9F"/>
</linearGradient>
<linearGradient id="paint16_linear_2108_4004" x1="131.773" y1="24.6206" x2="131.773" y2="115.925" gradientUnits="userSpaceOnUse">
<stop stop-color="#6EC1FD"/>
<stop offset="1" stop-color="#3375E6"/>
</linearGradient>
<linearGradient id="paint17_linear_2108_4004" x1="140.924" y1="31.9751" x2="140.924" y2="71.5139" gradientUnits="userSpaceOnUse">
<stop stop-color="#7CC7FD"/>
<stop offset="1" stop-color="#4F98F1"/>
</linearGradient>
<linearGradient id="paint18_linear_2108_4004" x1="142.799" y1="42.0012" x2="143.351" y2="91.48" gradientUnits="userSpaceOnUse">
<stop stop-color="#7CC7FD"/>
<stop offset="1" stop-color="#448AEC"/>
</linearGradient>
<linearGradient id="paint19_linear_2108_4004" x1="124.399" y1="91.4781" x2="124.399" y2="178.466" gradientUnits="userSpaceOnUse">
<stop stop-color="#3260C5"/>
<stop offset="1" stop-color="#243883"/>
</linearGradient>
<linearGradient id="paint20_linear_2108_4004" x1="48.8446" y1="146.706" x2="48.8446" y2="38.4174" gradientUnits="userSpaceOnUse">
<stop stop-color="#14956B"/>
<stop offset="1" stop-color="#80DC6F"/>
</linearGradient>
<linearGradient id="paint21_linear_2108_4004" x1="124.459" y1="20.2208" x2="124.459" y2="108.442" gradientUnits="userSpaceOnUse">
<stop stop-color="#9EEC8A"/>
<stop offset="1" stop-color="#37AC6C"/>
</linearGradient>
<linearGradient id="paint22_linear_2108_4004" x1="131.002" y1="30.0048" x2="131.002" y2="163.568" gradientUnits="userSpaceOnUse">
<stop stop-color="#66C66D"/>
<stop offset="1" stop-color="#0B8371"/>
</linearGradient>
<linearGradient id="paint23_linear_2108_4004" x1="131.05" y1="81.0907" x2="130.444" y2="177.904" gradientUnits="userSpaceOnUse">
<stop stop-color="#2E9F6A"/>
<stop offset="1" stop-color="#05655B"/>
</linearGradient>
<linearGradient id="paint24_linear_2108_4004" x1="113.571" y1="91.5836" x2="27.3664" y2="123.231" gradientUnits="userSpaceOnUse">
<stop stop-color="#D5EAF4"/>
<stop offset="1" stop-color="#A6DDF7"/>
</linearGradient>
<linearGradient id="paint25_linear_2108_4004" x1="126.625" y1="71.772" x2="182.94" y2="9.89264" gradientUnits="userSpaceOnUse">
<stop stop-color="#D5EAF4"/>
<stop offset="1" stop-color="#BCE5F9"/>
</linearGradient>
<linearGradient id="paint26_linear_2108_4004" x1="113.571" y1="91.584" x2="27.3662" y2="123.231" gradientUnits="userSpaceOnUse">
<stop stop-color="#D5EAF4"/>
<stop offset="1" stop-color="#A6DDF7"/>
</linearGradient>
<linearGradient id="paint27_linear_2108_4004" x1="205.47" y1="100.491" x2="164.21" y2="125.998" gradientUnits="userSpaceOnUse">
<stop stop-color="#BEDEEE"/>
<stop offset="1" stop-color="#A6DDF7"/>
</linearGradient>
<linearGradient id="paint28_linear_2108_4004" x1="113.571" y1="91.584" x2="27.366" y2="123.231" gradientUnits="userSpaceOnUse">
<stop stop-color="#D5EAF4"/>
<stop offset="1" stop-color="#A6DDF7"/>
</linearGradient>
<linearGradient id="paint29_linear_2108_4004" x1="148.883" y1="121.979" x2="221.222" y2="68.5583" gradientUnits="userSpaceOnUse">
<stop stop-color="#D5EAF4"/>
<stop offset="1" stop-color="#A6DDF7"/>
</linearGradient>
<linearGradient id="paint30_linear_2108_4004" x1="126.626" y1="71.772" x2="182.94" y2="9.89266" gradientUnits="userSpaceOnUse">
<stop stop-color="#D5EAF4"/>
<stop offset="1" stop-color="#BCE5F9"/>
</linearGradient>
<linearGradient id="paint31_linear_2108_4004" x1="65.3667" y1="157.685" x2="106.828" y2="189.072" gradientUnits="userSpaceOnUse">
<stop stop-color="#FCB6C1"/>
<stop offset="1" stop-color="#F8A5B2"/>
</linearGradient>
<linearGradient id="paint32_linear_2108_4004" x1="76.2485" y1="188.596" x2="173.022" y2="247.588" gradientUnits="userSpaceOnUse">
<stop stop-color="#FCB6C1"/>
<stop offset="1" stop-color="#F8A5B2"/>
</linearGradient>
</defs>
</svg>
