<svg width="153" height="157" viewBox="0 0 153 157" fill="none" xmlns="http://www.w3.org/2000/svg">
<path d="M11.7363 87.0348V57.7388C11.7363 55.654 12.5633 53.6543 14.0358 52.1785C15.5083 50.7026 17.506 49.8711 19.5908 49.8664H48.5004C49.6547 49.8665 50.7948 50.1212 51.8395 50.6123C52.8841 51.1034 53.8076 51.8188 54.5442 52.7076L63.9803 64.0832H132.406C134.487 64.0879 136.481 64.9165 137.953 66.3877C139.425 67.8589 140.255 69.8531 140.26 71.9341V87.0348H11.7363Z" fill="url(#paint0_linear_2108_4601)"/>
<path d="M88.2093 56.9909C88.2093 56.9909 80.8236 59.2846 80.3834 62.566C79.9433 65.8473 81.5392 88.4876 81.5392 88.4876H90.0593C90.0593 88.4876 91.0076 72.707 90.8787 69.8801C90.7499 67.0532 90.0843 66.9137 90.8787 66.4091C91.6731 65.9046 97.1623 64.4196 98.4684 64.4196C99.7745 64.4196 106.513 65.3857 106.638 65.3857C106.763 65.3857 107.819 66.3984 107.608 67.2393C107.396 68.0802 106.513 69.6798 106.598 73.9702C106.684 78.2607 107.06 88.0689 107.06 88.0689L114.299 88.026C114.299 88.026 116.274 69.007 116.403 65.5146C116.532 62.0221 116.908 60.2544 114.467 59.0341C112.962 58.2894 111.388 57.6903 109.769 57.245L88.2093 56.9909Z" fill="#0E133F"/>
<path d="M77.2201 41.8759C77.2201 41.8759 75.2664 42.2015 74.4612 42.359C73.6561 42.5164 72.2391 42.5951 71.9564 42.4699C71.6737 42.3447 71.026 39.7718 70.6646 39.4247C70.3032 39.0776 69.1939 37.9934 67.8699 38.1616L66.5459 38.5731L68.6321 44.4165C68.6321 44.4165 69.5016 45.5187 70.5107 45.3791C71.5198 45.2396 71.4554 45.2038 72.1675 45.2825C72.8796 45.3612 77.281 47.1754 80.0721 46.2952C80.7669 45.4991 81.3026 44.5771 81.6501 43.5792C82.1511 42.2802 83.5503 39.3782 84.3339 37.7751C82.9706 37.1918 80.8486 36.1648 79.5568 34.9697C78.7338 37.5819 77.3525 41.4465 77.2201 41.8759Z" fill="#FDB5AD"/>
<path d="M93.9489 21.3791C93.9489 21.3791 94.4785 20.7636 96.2784 20.6026L102.004 20.1946C102.369 20.3238 102.716 20.5006 103.034 20.7207C103.539 21.0785 103.485 30.7973 103.485 30.7973V41.2425L93.6841 41.4966L93.9489 21.3791Z" fill="white"/>
<path d="M101.957 20.2591C102.334 20.8031 102.572 21.4307 102.652 22.0876C102.716 23.0359 100.265 38.0829 100.326 40.2621L101.8 56.9909H110.069C110.069 56.9909 110.824 51.9096 110.259 50.4926C109.694 49.0756 109.783 38.0578 109.783 38.0578C110.573 37.204 111.578 36.5786 112.692 36.2472C114.063 35.8951 115.466 35.684 116.879 35.6174C116.879 35.6174 114.796 25.7053 113.344 23.9591C111.891 22.2128 104.637 20.7207 104.637 20.7207C104.637 20.7207 104.054 19.7187 103.378 19.4682C102.926 19.3137 102.447 19.254 101.972 19.2929L101.957 20.2591Z" fill="#325698"/>
<path d="M95.7811 20.8567C95.7811 20.8567 95.0654 21.3612 94.9509 21.7727C93.6734 26.2707 95.2765 56.5078 95.2765 56.5078H86.5238L86.9032 34.7192L85.64 38.2976C85.64 38.2976 79.4137 36.0611 78.5513 33.5706C78.5513 33.5706 82.3479 25.3904 83.3677 24.5102C86.6455 21.6868 91.4262 22.0053 92.4353 21.7119C92.4353 21.7119 92.8146 20.2805 93.6734 20.1553C94.3737 20.0864 95.0781 20.0684 95.7811 20.1016V20.8567Z" fill="#325698"/>
<path d="M115.387 49.4978C115.387 49.4978 117.802 46.2773 117.831 45.5616C117.859 44.8996 116.439 37.292 116.138 35.6854C114.968 35.7561 113.809 35.9479 112.678 36.2579C112.087 36.4347 111.524 36.695 111.007 37.0308C111.49 38.7055 113.276 44.9283 113.329 45.2217C113.383 45.5151 112.385 48.7142 112.256 48.8394C112.127 48.9647 111.05 49.7412 110.227 50.4031C109.899 50.6261 109.608 50.899 109.364 51.2119C109.364 51.2119 108.713 52.7577 108.728 53.23C108.742 53.7024 108.774 55.6633 109.042 55.7564C109.311 55.8494 109.644 55.1981 109.722 54.3608C109.77 53.9595 109.785 53.5551 109.769 53.1513C109.957 52.799 110.198 52.4779 110.485 52.1995C110.573 52.1115 110.689 52.0582 110.814 52.0492C111.064 52.0492 110.921 53.3088 110.971 53.7847C111.021 54.2606 111.032 56.0963 111.476 56.1035C112.012 56.1035 112.152 54.4324 112.152 53.8455C112.152 53.2587 112.202 51.9848 112.406 51.9848C112.406 51.9848 112.764 51.9383 112.8 52.11C112.835 52.2818 112.989 53.6416 112.989 53.6416C112.989 53.6416 112.549 55.7528 112.943 55.8351C113.48 55.946 113.92 54.5719 114.016 53.8169C114.113 53.0619 114.256 52.11 114.256 52.11C114.256 52.11 114.403 51.9884 114.528 52.0814C114.653 52.1744 114.682 53.5127 114.65 53.7382C114.618 53.9636 114.206 55.216 114.65 55.3628C115.008 55.4737 115.455 54.0674 115.551 53.6416C115.682 53.0037 115.74 52.353 115.723 51.7021C115.637 51.3729 115.419 49.6231 115.387 49.4978Z" fill="#FDB5AD"/>
<path d="M109.365 56.7905H116.994C117.049 56.7905 117.101 56.8124 117.14 56.8513C117.179 56.8902 117.201 56.943 117.201 56.9981V57.4776C117.201 57.5048 117.196 57.5318 117.185 57.557C117.175 57.5822 117.16 57.6051 117.14 57.6243C117.121 57.6436 117.098 57.6589 117.073 57.6693C117.048 57.6798 117.021 57.6851 116.994 57.6851H109.365V56.7905Z" fill="#2D3994"/>
<path d="M109.769 57.6958L83.7864 57.9034L78.5513 40.4696L104.53 40.2621L109.769 57.6958Z" fill="#2D3994"/>
<path d="M109.282 57.6958L83.2998 57.9034L78.0647 40.4696L104.047 40.2621L109.282 57.6958Z" fill="black"/>
<path d="M64.4909 31.7777L63.6614 32.1746L64.1402 33.1753L64.9697 32.7783L64.4909 31.7777Z" fill="#BCC5D0"/>
<path d="M64.3363 35.01L66.2731 34.0833L72.7768 47.6759C72.8342 47.7958 72.8416 47.9335 72.7974 48.0588C72.7532 48.1841 72.661 48.2867 72.5412 48.344L71.4985 48.8429C71.3787 48.9002 71.241 48.9076 71.1157 48.8634C70.9904 48.8192 70.8878 48.7271 70.8304 48.6072L64.3267 35.0146L64.3363 35.01Z" fill="black"/>
<path d="M65.0742 32.7274L64.0445 33.2201C63.8662 33.3054 63.7908 33.519 63.8761 33.6973L64.3194 34.6237C64.4047 34.802 64.6184 34.8773 64.7966 34.792L65.8263 34.2994C66.0046 34.2141 66.08 34.0004 65.9947 33.8221L65.5514 32.8957C65.4661 32.7175 65.2524 32.6421 65.0742 32.7274Z" fill="black"/>
<path d="M62.9741 32.8853C65.5055 31.674 66.017 27.4723 64.1166 23.5004C62.2161 19.5285 58.6234 17.2906 56.0919 18.5018C53.5605 19.713 53.0489 23.9148 54.9494 27.8867C56.8498 31.8586 60.4426 34.0965 62.9741 32.8853Z" fill="#383744"/>
<path d="M58.0973 17.5431L57.9971 17.5825L57.9112 17.6254L56.1221 18.4735C56.4258 18.3326 56.7492 18.2385 57.0811 18.1944C57.5314 18.1408 57.9875 18.1638 58.4301 18.2623C60.5127 18.6989 62.742 20.6455 64.1018 23.4903C65.4616 26.3351 65.5797 29.2908 64.6135 31.1874C64.4127 31.5948 64.1441 31.9651 63.8191 32.2824C63.566 32.5245 63.2761 32.7249 62.9603 32.8764L64.8211 31.9853C64.8712 31.9639 64.9105 31.9317 64.957 31.9066C67.3653 30.6113 67.8197 26.4997 65.9626 22.6029C64.1054 18.7061 60.6201 16.4911 58.0973 17.5431Z" fill="black"/>
<path d="M62.5031 31.9007C64.5283 30.9317 64.8403 27.3671 63.2 23.939C61.5597 20.5108 58.5883 18.5173 56.5631 19.4863C54.538 20.4553 54.226 24.0199 55.8663 27.448C57.5065 30.8762 60.478 32.8697 62.5031 31.9007Z" fill="#BABCBC"/>
<path opacity="0.9" d="M57.1134 26.8468C55.6463 23.7801 55.7464 20.6097 57.235 19.2786C57.0022 19.3142 56.7757 19.3829 56.5623 19.4825C54.537 20.4523 54.2256 24.0163 55.8466 27.4408C57.4676 30.8653 60.4591 32.862 62.4845 31.8923C62.6956 31.7914 62.8899 31.6586 63.0606 31.4987C61.1176 31.8314 58.5805 29.9206 57.1134 26.8468Z" fill="black"/>
<path d="M69.0509 44.8853C69.0509 44.8853 67.1651 44.4308 67.1007 43.9585C67.059 43.7133 67.059 43.4629 67.1007 43.2178C67.1007 43.2178 66.3278 43.114 66.3278 42.6882V42.1443C66.3278 42.1443 65.8232 42.0977 65.7767 41.6683C65.7498 41.3927 65.7766 41.1144 65.8554 40.8489C65.6672 40.6389 65.5431 40.3793 65.4976 40.101C65.4976 39.5321 65.3365 38.8056 65.9628 38.7198C66.589 38.6339 68.3996 38.6518 68.4676 38.9881C68.5356 39.3245 68.6215 39.8756 68.3173 39.9185C68.3173 39.9185 69.0151 39.8577 69.101 39.9722C69.1869 40.0867 69.1833 40.8668 68.6251 40.992C68.6251 40.992 69.4946 40.9455 69.5876 41.103C69.6807 41.2604 69.534 42.0083 69.1225 42.0083C69.1225 42.0083 69.9526 41.9868 69.9848 42.1657C70.017 42.3446 69.788 43.1999 69.2405 43.2392C68.9224 43.2602 68.6032 43.2602 68.2851 43.2392C68.2851 43.2392 68.4533 43.5971 68.5714 43.8583C68.6322 43.9764 69.0509 44.8853 69.0509 44.8853Z" fill="#FDB5AD"/>
<path d="M65.9662 40.8453C65.9413 40.8487 65.916 40.8487 65.8911 40.8453C65.865 40.8358 65.8411 40.8212 65.8207 40.8022C65.8004 40.7833 65.7841 40.7605 65.7727 40.7351C65.7614 40.7097 65.7552 40.6824 65.7547 40.6546C65.7541 40.6268 65.7591 40.5992 65.7694 40.5734C65.8603 40.2689 66.0279 39.9929 66.2561 39.7718C66.41 39.6824 67.0219 39.6573 68.0703 39.7003C68.1266 39.703 68.1796 39.7279 68.2178 39.7694C68.2559 39.8109 68.2762 39.8658 68.2743 39.9221C68.2674 39.9766 68.2413 40.0267 68.2006 40.0635C68.1598 40.1003 68.1073 40.1212 68.0524 40.1225C67.5208 40.0853 66.9871 40.0912 66.4565 40.1404C66.3312 40.3185 66.2324 40.5137 66.1631 40.7201C66.1462 40.758 66.1185 40.7901 66.0835 40.8124C66.0485 40.8346 66.0077 40.8461 65.9662 40.8453Z" fill="#E88073"/>
<path d="M66.367 42.1264C66.3263 42.125 66.2867 42.1127 66.2525 42.0906C66.2134 42.0652 66.1841 42.0274 66.1691 41.9832C66.1542 41.9391 66.1546 41.8912 66.1702 41.8473C66.2027 41.5049 66.343 41.1816 66.5709 40.9241C66.7785 40.7774 67.6695 40.7738 68.3816 40.7917C68.4376 40.7917 68.4913 40.8139 68.5309 40.8535C68.5705 40.8931 68.5927 40.9468 68.5927 41.0028C68.5927 41.0588 68.5705 41.1125 68.5309 41.1521C68.4913 41.1917 68.4376 41.2139 68.3816 41.2139C67.8573 41.18 67.3308 41.2004 66.8107 41.2748C66.7012 41.4656 66.6296 41.6758 66.5996 41.8938C66.5934 41.9418 66.5776 41.9881 66.553 42.0298C66.5331 42.0607 66.5055 42.0859 66.4728 42.1028C66.4402 42.1198 66.4037 42.1279 66.367 42.1264Z" fill="#E88073"/>
<path d="M67.1112 43.182H67.079C67.0241 43.1732 66.9749 43.1431 66.9421 43.0982C66.9092 43.0533 66.8955 42.9973 66.9037 42.9423C67.0397 42.0727 67.147 41.9654 67.1864 41.9224C67.2258 41.8795 67.3438 41.765 68.9577 41.8008C69.0147 41.8017 69.0691 41.8245 69.1098 41.8644C69.1504 41.9044 69.1741 41.9585 69.176 42.0155C69.1764 42.0423 69.1716 42.0689 69.1618 42.0938C69.152 42.1187 69.1374 42.1415 69.1188 42.1608C69.1002 42.18 69.0779 42.1954 69.0534 42.2061C69.0288 42.2168 69.0024 42.2226 68.9756 42.223C68.4758 42.1956 67.9748 42.204 67.4762 42.2481C67.4096 42.4978 67.357 42.7511 67.3188 43.0067C67.3118 43.0563 67.2867 43.1016 67.2485 43.1339C67.2102 43.1663 67.1613 43.1834 67.1112 43.182Z" fill="#E88073"/>
<path d="M115.319 49.4585C115.27 49.4594 115.223 49.443 115.185 49.4122C115.147 49.3814 115.121 49.3383 115.111 49.2903L114.943 48.4172C114.933 48.3626 114.944 48.3061 114.975 48.2599C115.006 48.2137 115.054 48.1815 115.108 48.1703C115.135 48.1645 115.163 48.1643 115.19 48.1695C115.217 48.1747 115.243 48.1853 115.266 48.2006C115.289 48.216 115.309 48.2357 115.324 48.2588C115.339 48.2818 115.35 48.3077 115.355 48.3349L115.527 49.208C115.532 49.2352 115.532 49.2633 115.526 49.2904C115.52 49.3176 115.509 49.3434 115.494 49.3663C115.478 49.3892 115.458 49.4089 115.435 49.4241C115.412 49.4393 115.386 49.4497 115.358 49.4549L115.319 49.4585Z" fill="#E88073"/>
<path d="M113.573 45.3505H113.512C113.486 45.3431 113.461 45.3305 113.439 45.3135C113.418 45.2965 113.4 45.2755 113.387 45.2515C113.373 45.2275 113.365 45.2012 113.362 45.174C113.359 45.1467 113.361 45.1192 113.369 45.0929C113.457 44.8364 113.617 44.6109 113.83 44.4438C114.044 44.2768 114.301 44.1753 114.571 44.1518C114.626 44.1446 114.682 44.1597 114.726 44.1936C114.77 44.2275 114.798 44.2774 114.806 44.3325C114.813 44.3875 114.798 44.4431 114.764 44.4871C114.73 44.531 114.68 44.5597 114.625 44.5668C114.437 44.5823 114.257 44.6506 114.106 44.764C113.956 44.8773 113.84 45.0311 113.773 45.2074C113.759 45.2492 113.732 45.2855 113.696 45.3112C113.66 45.3369 113.617 45.3506 113.573 45.3505Z" fill="#E88073"/>
<path d="M102.727 26.149H102.691C102.664 26.1447 102.637 26.1349 102.614 26.1203C102.59 26.1056 102.57 26.0864 102.554 26.0637C102.538 26.041 102.526 26.0153 102.52 25.9882C102.514 25.9611 102.514 25.933 102.519 25.9057C102.576 25.5479 102.902 23.8267 103.646 23.6549C104.384 23.5013 105.149 23.5432 105.865 23.7766L104.523 21.329C104.509 21.3049 104.5 21.2783 104.497 21.2507C104.494 21.2231 104.496 21.1951 104.504 21.1684C104.511 21.1418 104.524 21.1169 104.542 21.0953C104.559 21.0737 104.581 21.0558 104.605 21.0427C104.655 21.017 104.712 21.0116 104.766 21.0277C104.819 21.0437 104.864 21.0799 104.892 21.1286L106.509 24.0736C106.53 24.1127 106.537 24.1572 106.531 24.2009C106.525 24.2446 106.506 24.2853 106.475 24.3173C106.445 24.3493 106.405 24.3709 106.362 24.3792C106.318 24.3875 106.274 24.382 106.234 24.3634C105.448 24.0116 104.575 23.9068 103.729 24.0629C103.371 24.1452 103.038 25.2509 102.92 25.9773C102.911 26.023 102.887 26.0645 102.852 26.0955C102.817 26.1265 102.773 26.1453 102.727 26.149Z" fill="#29467B"/>
<path d="M94.017 26.7753C93.964 26.7755 93.9128 26.7557 93.8737 26.7199C93.8346 26.6841 93.8103 26.6349 93.8059 26.582C93.7808 26.3816 93.4945 25.1865 93.0902 24.8895C93.0715 24.87 93.0485 24.8552 93.0229 24.8465C92.9974 24.8378 92.9701 24.8353 92.9435 24.8394C92.4318 24.9145 91.8056 25.4727 91.6052 25.6803C91.574 25.711 91.5341 25.7313 91.4909 25.7383C91.4477 25.7453 91.4034 25.7388 91.3641 25.7195C91.3248 25.7003 91.2924 25.6693 91.2715 25.6308C91.2506 25.5924 91.2422 25.5484 91.2473 25.505C91.2473 25.394 91.6588 22.7532 92.1562 21.9266C92.1858 21.8794 92.2326 21.8455 92.2867 21.8322C92.3408 21.8188 92.3979 21.827 92.4461 21.855C92.494 21.884 92.5285 21.9308 92.5419 21.9851C92.5553 22.0395 92.5466 22.0969 92.5176 22.1449C92.1956 22.6816 91.9022 24.1631 91.759 25.0076C92.0831 24.7329 92.4685 24.5402 92.8826 24.4458C92.9742 24.434 93.0673 24.4427 93.1551 24.4712C93.243 24.4996 93.3234 24.5472 93.3908 24.6104C93.9418 25.0863 94.2174 26.5212 94.2174 26.5892C94.2122 26.6392 94.189 26.6857 94.1521 26.7199C94.1153 26.7541 94.0673 26.7738 94.017 26.7753Z" fill="#29467B"/>
<path d="M98.3969 25.7125C96.2928 25.7125 95.1156 23.2541 95.0655 23.1432C95.0421 23.0929 95.0396 23.0353 95.0583 22.9831C95.0771 22.9309 95.1156 22.8881 95.1657 22.8641C95.217 22.8409 95.2754 22.8387 95.3283 22.8581C95.3811 22.8775 95.4243 22.917 95.4484 22.9679C95.4484 22.9893 96.5648 25.2902 98.4041 25.2902H98.5579C100.519 25.1507 101.585 23.272 101.596 23.2506C101.628 23.2152 101.672 23.1918 101.719 23.1844C101.766 23.1769 101.815 23.1858 101.856 23.2095C101.898 23.2332 101.93 23.2704 101.948 23.315C101.966 23.3595 101.968 23.4087 101.954 23.4545C101.904 23.5404 100.769 25.555 98.5794 25.7089L98.3969 25.7125Z" fill="#E1E1E2"/>
<path d="M107.701 30.0673C107.673 30.066 107.646 30.0591 107.621 30.0472C107.596 30.0352 107.574 30.0184 107.556 29.9978C107.537 29.9771 107.523 29.953 107.514 29.9269C107.506 29.9007 107.502 29.873 107.504 29.8455C107.546 28.6711 107.914 27.5315 108.568 26.5549C109.221 25.5783 110.134 24.8033 111.204 24.3169C111.23 24.3049 111.259 24.2983 111.288 24.2977C111.316 24.2971 111.345 24.3024 111.372 24.3133C111.399 24.3243 111.423 24.3406 111.443 24.3612C111.463 24.3819 111.479 24.4065 111.489 24.4335C111.5 24.4605 111.504 24.4893 111.503 24.5182C111.502 24.547 111.494 24.5753 111.482 24.6013C111.469 24.6273 111.451 24.6504 111.429 24.6692C111.407 24.6879 111.382 24.702 111.354 24.7105C111.222 24.7606 108.162 25.9594 107.923 29.8705C107.919 29.9259 107.894 29.9776 107.852 30.0145C107.811 30.0513 107.756 30.0703 107.701 30.0673Z" fill="#29467B"/>
<path d="M109.543 37.8431C109.497 37.8427 109.453 37.8275 109.416 37.7998C109.379 37.7721 109.353 37.7333 109.34 37.6892L107.49 31.0227C107.479 30.9717 107.489 30.9187 107.516 30.8743C107.543 30.8298 107.586 30.7973 107.636 30.783C107.663 30.7748 107.69 30.7721 107.718 30.775C107.745 30.7778 107.772 30.7862 107.796 30.7995C107.82 30.8129 107.841 30.831 107.858 30.8528C107.875 30.8745 107.887 30.8995 107.894 30.9261L109.747 37.5819C109.762 37.6359 109.755 37.6935 109.727 37.7423C109.7 37.7911 109.654 37.8273 109.601 37.8431H109.543Z" fill="#29467B"/>
<path d="M86.9032 34.2898H86.8818C86.8545 34.2847 86.8285 34.2742 86.8053 34.259C86.7821 34.2438 86.7621 34.2242 86.7465 34.2012C86.7309 34.1783 86.7199 34.1525 86.7143 34.1253C86.7086 34.0982 86.7084 34.0702 86.7136 34.0429C86.9033 32.9417 86.9907 31.8252 86.9748 30.7079C86.9533 28.8543 84.6417 24.1702 84.6202 24.1237C84.5953 24.0738 84.5911 24.0161 84.6085 23.9632C84.6259 23.9102 84.6636 23.8663 84.7133 23.841C84.7637 23.8173 84.8214 23.8141 84.8742 23.8321C84.9269 23.8501 84.9706 23.888 84.996 23.9376C85.0926 24.1344 87.372 28.7541 87.3935 30.7043C87.4104 31.8503 87.3217 32.9955 87.1287 34.1252C87.1176 34.1754 87.0885 34.2198 87.047 34.2501C87.0055 34.2804 86.9544 34.2945 86.9032 34.2898Z" fill="#29467B"/>
<path d="M109.282 36.7302C109.254 36.7305 109.227 36.7252 109.201 36.7148C109.175 36.7043 109.152 36.6889 109.132 36.6694C109.112 36.65 109.096 36.6269 109.086 36.6014C109.075 36.5759 109.069 36.5485 109.069 36.5209C109.069 36.4932 109.075 36.4658 109.086 36.4403C109.096 36.4148 109.112 36.3917 109.132 36.3724C110.122 35.455 111.321 34.793 112.624 34.4436C113.671 34.1489 114.759 34.0281 115.845 34.0858C115.898 34.095 115.946 34.1244 115.978 34.1677C116.01 34.2111 116.025 34.2652 116.018 34.3189C116.012 34.3726 115.985 34.4217 115.944 34.4563C115.902 34.4908 115.849 34.508 115.795 34.5045C114.763 34.4629 113.73 34.5837 112.735 34.8623C111.507 35.1999 110.376 35.8241 109.436 36.6837C109.393 36.7189 109.338 36.7356 109.282 36.7302Z" fill="#29467B"/>
<path d="M85.5792 37.131C85.5486 37.1302 85.5183 37.1242 85.4897 37.1131C85.4611 37.1131 82.4839 35.7354 81.3997 35.1557C80.3154 34.576 79.3171 33.0624 79.2777 33.0087C79.2488 32.9609 79.2394 32.9037 79.2514 32.8492C79.2634 32.7946 79.2959 32.7466 79.3421 32.7153C79.3902 32.6858 79.4479 32.6765 79.5028 32.6892C79.5577 32.7019 79.6053 32.7357 79.6355 32.7833C79.6355 32.7833 80.5659 34.2432 81.5965 34.7907C82.6271 35.3382 85.6365 36.723 85.6651 36.7374C85.6905 36.7486 85.7134 36.7647 85.7324 36.7849C85.7515 36.8051 85.7663 36.829 85.776 36.855C85.7857 36.881 85.79 36.9087 85.7888 36.9364C85.7876 36.9642 85.7808 36.9914 85.7689 37.0165C85.751 37.0513 85.7237 37.0804 85.6903 37.1006C85.6568 37.1208 85.6183 37.1313 85.5792 37.131Z" fill="#29467B"/>
<path d="M90.4816 66.5666C90.4602 66.57 90.4385 66.57 90.4172 66.5666C90.3641 66.5493 90.32 66.5118 90.2946 66.4622C90.2691 66.4126 90.2643 66.3549 90.2812 66.3018C90.2812 66.3018 90.8108 64.6056 89.8124 63.4391C89.7756 63.3972 89.7568 63.3425 89.7601 63.2869C89.7635 63.2313 89.7887 63.1792 89.8303 63.1421C89.873 63.1066 89.9278 63.089 89.9831 63.093C90.0385 63.097 90.0902 63.1223 90.1273 63.1636C91.2867 64.5019 90.707 66.3411 90.682 66.4199C90.6679 66.4621 90.641 66.4989 90.6051 66.5251C90.5692 66.5514 90.526 66.5659 90.4816 66.5666Z" fill="#0B0D1F"/>
<path d="M106.784 65.282C106.738 65.2811 106.694 65.2653 106.658 65.2369C106.622 65.2085 106.596 65.169 106.584 65.1245C106.559 65.0279 105.976 62.7592 106.831 61.6786C106.867 61.6357 106.918 61.6083 106.973 61.6023C107.028 61.5963 107.084 61.6121 107.128 61.6464C107.149 61.6634 107.167 61.6846 107.181 61.7086C107.194 61.7326 107.202 61.759 107.205 61.7863C107.208 61.8136 107.206 61.8412 107.198 61.8676C107.19 61.8939 107.177 61.9185 107.16 61.9398C106.445 62.8594 106.985 64.9957 106.988 65.0172C106.996 65.044 106.998 65.072 106.994 65.0996C106.991 65.1272 106.982 65.1538 106.968 65.1778C106.954 65.2019 106.935 65.2228 106.913 65.2395C106.891 65.2562 106.865 65.2682 106.838 65.2748L106.784 65.282Z" fill="#0B0D1F"/>
<path d="M99.3379 60.3581C99.294 60.3595 99.2511 60.3456 99.2163 60.3188C98.7938 60.1567 98.3563 60.0368 97.9102 59.9609C97.8728 59.9541 97.838 59.9371 97.8096 59.9119C97.7812 59.8867 97.7603 59.8541 97.7491 59.8178C97.606 59.349 98.107 58.2898 98.2143 58.0823C98.2396 58.0326 98.2835 57.9949 98.3365 57.9775C98.3895 57.9601 98.4472 57.9643 98.497 57.9893C98.522 58.0014 98.5442 58.0184 98.5625 58.0393C98.5807 58.0602 98.5946 58.0846 98.6033 58.111C98.6119 58.1373 98.6152 58.1651 98.613 58.1928C98.6107 58.2204 98.6029 58.2474 98.5901 58.272C98.3737 58.6813 98.2228 59.122 98.1428 59.5781C98.597 59.6476 99.0398 59.7776 99.4596 59.9645C99.4824 59.9799 99.5018 59.9997 99.5167 60.0228C99.5316 60.0459 99.5417 60.0717 99.5464 60.0988C99.5511 60.1258 99.5502 60.1536 99.5439 60.1803C99.5376 60.207 99.526 60.2322 99.5097 60.2544C99.4922 60.2848 99.4672 60.3102 99.4372 60.3284C99.4072 60.3465 99.373 60.3568 99.3379 60.3581Z" fill="#0B0D1F"/>
<path d="M99.4345 61.038C99.3848 61.0379 99.3368 61.0202 99.2988 60.9882C99.2608 60.9561 99.2354 60.9117 99.227 60.8627C99.0445 59.8393 99.6528 58.1896 99.6778 58.1181C99.6853 58.0895 99.6987 58.0628 99.7171 58.0397C99.7355 58.0166 99.7585 57.9977 99.7847 57.9841C99.8109 57.9704 99.8397 57.9625 99.8692 57.9607C99.8987 57.9589 99.9282 57.9632 99.9559 57.9736C99.9835 57.9839 100.009 57.9999 100.03 58.0205C100.051 58.0412 100.067 58.0661 100.078 58.0935C100.089 58.1209 100.094 58.1504 100.093 58.1799C100.092 58.2094 100.085 58.2383 100.071 58.2648C100.071 58.2648 99.4775 59.8786 99.6421 60.7911C99.6505 60.846 99.6373 60.902 99.6052 60.9474C99.5732 60.9928 99.5248 61.024 99.4703 61.0344L99.4345 61.038Z" fill="#0B0D1F"/>
<path d="M60.9851 29.6415C60.9489 29.6422 60.9132 29.6335 60.8813 29.6164C59.5103 28.7903 58.4165 27.5744 57.7395 26.124C57.1653 24.7237 56.9501 23.2021 57.1133 21.6975C57.1218 21.642 57.1521 21.5922 57.1974 21.5589C57.2427 21.5257 57.2993 21.5119 57.3548 21.5204C57.4103 21.5289 57.4602 21.5592 57.4934 21.6045C57.5266 21.6498 57.5405 21.7064 57.5319 21.7619C57.382 23.1886 57.586 24.6303 58.126 25.9594C59.0134 28.0527 61.0674 29.2371 61.0853 29.2479C61.1098 29.261 61.1314 29.2788 61.1489 29.3004C61.1663 29.322 61.1793 29.3469 61.187 29.3736C61.1946 29.4003 61.1969 29.4283 61.1935 29.4558C61.1902 29.4834 61.1814 29.51 61.1676 29.5341C61.1496 29.5668 61.1231 29.5939 61.091 29.6128C61.0589 29.6317 61.0223 29.6416 60.9851 29.6415Z" fill="white"/>
<path d="M84.4485 11.7068C84.4485 11.7068 85.7904 15.3066 88.1056 15.1277C90.4208 14.9488 90.6498 14.3834 90.6498 14.3834L90.1202 10.8408L84.4485 11.7068Z" fill="black"/>
<path d="M88.9537 11.9286L88.4026 12.0825C88.4026 12.0825 86.7423 13.4137 84.8565 12.7159C82.9707 12.0181 83.6613 8.26441 83.6613 8.26441C83.844 8.47973 84.1042 8.61436 84.3856 8.63915C84.6669 8.66393 84.9466 8.57686 85.1642 8.39681C86.023 7.76344 86.1053 2.27066 90.7751 0.663979C95.4448 -0.942704 97.7457 0.871523 97.7457 0.871523C97.7457 0.871523 99.1377 -0.484675 101.324 1.53352C103.51 3.55171 104.545 5.52339 104.545 8.02824C104.545 10.5331 101.911 17.7363 101.911 17.7363L92.4569 18.6166L88.9537 11.9286Z" fill="black"/>
<path d="M95.5808 20.1517V22.1091C95.5808 22.1091 96.4038 24.5066 98.4864 24.5066C100.569 24.5066 101.957 21.2038 101.957 21.2038V15.3531L95.5808 20.1517Z" fill="#FDB5AD"/>
<path d="M88.4026 12.0825C88.4026 12.0825 91.2259 20.8709 94.9689 21.1214C98.7118 21.3719 100.773 18.044 100.773 18.044C100.773 18.044 101.918 16.2549 102.029 15.1635C102.029 15.1635 103.661 14.4979 103.986 13.2312C104.312 11.9644 104.473 9.73868 102.473 10.7585C102.235 10.9618 102.048 11.2186 101.929 11.5078C101.81 11.7971 101.76 12.1105 101.786 12.4224C101.786 12.4224 101.786 12.9127 101.628 12.7803C101.471 12.6479 100.308 7.92087 98.2538 6.69707C98.0048 6.5541 97.7107 6.51152 97.4314 6.57802C97.1521 6.64452 96.9087 6.81508 96.7509 7.05491C96.0889 8.04254 94.6933 9.87108 93.4016 9.98916C91.6267 10.1323 88.7712 10.2969 88.4026 12.0825Z" fill="#FDB5AD"/>
<path d="M102.426 13.2491C102.402 13.2542 102.378 13.2542 102.354 13.2491C102.3 13.2348 102.254 13.1996 102.226 13.1513C102.198 13.103 102.19 13.0455 102.204 12.9914C102.319 12.562 102.752 11.1629 103.424 11.306C103.452 11.3111 103.477 11.3216 103.5 11.3369C103.524 11.3521 103.543 11.3718 103.559 11.3948C103.574 11.4178 103.585 11.4437 103.59 11.4708C103.595 11.498 103.595 11.5259 103.589 11.5529C103.583 11.5802 103.573 11.6062 103.557 11.6292C103.541 11.6523 103.521 11.6721 103.498 11.6874C103.475 11.7027 103.449 11.7132 103.421 11.7184C103.394 11.7236 103.366 11.7233 103.338 11.7175C103.181 11.6782 102.809 12.3652 102.623 13.1023C102.609 13.144 102.583 13.1804 102.547 13.2066C102.512 13.2328 102.47 13.2476 102.426 13.2491Z" fill="#E88073"/>
<path d="M96.5004 21.3146H96.4038C96.3496 21.3167 96.2966 21.2977 96.256 21.2617C96.2153 21.2258 96.1901 21.1755 96.1856 21.1214C96.1852 21.0667 96.2051 21.0137 96.2414 20.9728C96.2778 20.9318 96.328 20.9057 96.3824 20.8995C96.8289 20.8709 97.2683 20.7732 97.6849 20.6097C98.9544 19.7686 100.02 18.6549 100.805 17.3498C100.814 17.319 100.829 17.2905 100.85 17.2665C100.872 17.2425 100.898 17.2236 100.927 17.2113C100.957 17.199 100.989 17.1936 101.021 17.1954C101.053 17.1973 101.084 17.2064 101.112 17.222C101.14 17.2376 101.164 17.2594 101.182 17.2857C101.2 17.3119 101.212 17.342 101.217 17.3736C101.222 17.4053 101.22 17.4376 101.21 17.4682C101.201 17.4988 101.185 17.5268 101.163 17.5502C100.326 19.1068 98.4542 20.7027 97.8566 20.989C97.4246 21.1684 96.9669 21.2783 96.5004 21.3146Z" fill="#E88073"/>
<path d="M98.0175 6.27486C97.9634 6.27823 97.91 6.26168 97.8672 6.22834C97.8246 6.19333 97.7974 6.14303 97.7913 6.08819C97.7853 6.03335 97.801 5.97833 97.835 5.93491C98.93 4.5644 97.6167 1.28305 97.6024 1.26158C97.587 1.21108 97.5911 1.15665 97.6139 1.10902C97.6366 1.06138 97.6764 1.024 97.7254 1.00424C97.7743 0.98448 97.8289 0.983776 97.8783 1.00227C97.9278 1.02076 97.9685 1.0571 97.9925 1.10413C98.0497 1.24726 99.4238 4.63597 98.1642 6.19613C98.1465 6.21867 98.1244 6.2373 98.0991 6.25085C98.0739 6.2644 98.0461 6.27257 98.0175 6.27486Z" fill="#393939"/>
<path d="M86.4273 13.0988C86.0382 13.1379 85.6456 13.1223 85.2608 13.0523C85.2058 13.0409 85.1575 13.0081 85.1266 12.9611C85.0957 12.9141 85.0848 12.8568 85.0962 12.8018C85.1076 12.7467 85.1404 12.6985 85.1873 12.6676C85.2343 12.6367 85.2916 12.6258 85.3467 12.6372C86.5204 12.8769 88.0662 12.3509 88.2094 12.0038C88.4399 11.5568 88.7326 11.1448 89.0789 10.78C89.0968 10.7566 89.1194 10.7373 89.1452 10.7231C89.171 10.709 89.1995 10.7004 89.2288 10.698C89.2581 10.6955 89.2877 10.6992 89.3155 10.7088C89.3433 10.7184 89.3688 10.7337 89.3904 10.7537C89.4119 10.7738 89.429 10.7981 89.4406 10.8252C89.4522 10.8522 89.458 10.8814 89.4577 10.9108C89.4573 10.9403 89.4508 10.9693 89.4386 10.9961C89.4264 11.0228 89.4087 11.0468 89.3866 11.0663C89.0768 11.3961 88.8121 11.7655 88.5994 12.1648C88.4062 12.6264 87.4221 13.0058 86.4273 13.0988Z" fill="#393939"/>
<path d="M146.214 87.0348H5.79614C2.11401 87.0348 -0.644904 90.3161 0.1316 93.805L10.5518 149.627C10.8945 151.425 11.8529 153.047 13.2623 154.215C14.6716 155.383 16.4437 156.023 18.2739 156.026H133.737C135.569 156.022 137.343 155.38 138.752 154.21C140.162 153.039 141.119 151.414 141.459 149.613L151.879 93.7907C152.641 90.3161 149.893 87.0348 146.214 87.0348Z" fill="url(#paint1_linear_2108_4601)"/>
<defs>
<linearGradient id="paint0_linear_2108_4601" x1="76.256" y1="54.4207" x2="76.2154" y2="84.8458" gradientUnits="userSpaceOnUse">
<stop offset="0.0297" stop-color="#FDE895"/>
<stop offset="0.3053" stop-color="#FDE090"/>
<stop offset="0.8392" stop-color="#FE9A81"/>
<stop offset="1" stop-color="#FE5E81"/>
</linearGradient>
<linearGradient id="paint1_linear_2108_4601" x1="76.3082" y1="95.4883" x2="76.19" y2="151.962" gradientUnits="userSpaceOnUse">
<stop offset="0.0297" stop-color="#FDE895"/>
<stop offset="0.3053" stop-color="#FDE090"/>
<stop offset="0.8392" stop-color="#FE9A81"/>
<stop offset="1" stop-color="#FE5E81"/>
</linearGradient>
</defs>
</svg>
