<svg width="215" height="146" viewBox="0 0 215 146" fill="none" xmlns="http://www.w3.org/2000/svg">
<path d="M0.0765318 63.1486H30.4762C30.4762 63.1486 28.5817 58.4166 25.8446 59.3467C25.8446 59.3467 25.508 55.291 21.4659 55.164C17.4238 55.037 17.2555 57.4033 17.2555 57.4033C17.2555 57.4033 17.887 51.5307 11.9082 51.9533C7.16212 52.2886 5.50844 56.0514 6.94 58.713C6.93945 58.7125 -0.849836 57.9108 0.0765318 63.1486Z" fill="#E3EEFF"/>
<g opacity="0.13">
<path d="M6.32992 145.117C-3.94607 88.2437 5.10675 68.0182 16.3286 60.6405C32.9706 49.6986 51.2909 69.0502 85.4185 57.5303C107.933 49.9306 111.784 37.5175 134.311 35.157C136.423 34.9366 157.527 32.9676 173.906 43.1832C198.925 58.788 209.006 100.384 194.903 144.315L6.32992 145.117Z" fill="#CCDEFF"/>
</g>
<path d="M123.483 130.564H101.831L105.295 107.969H120.018L123.483 130.564Z" fill="#516FB7"/>
<path d="M181.74 110.692C181.318 111.201 180.789 111.61 180.191 111.891C179.593 112.171 178.941 112.315 178.281 112.314H47.0321C44.2234 112.314 42.0991 109.762 42.5985 106.99L43.2962 103.11L44.8941 94.2311L47.0722 82.122L52.2296 53.4608C52.4171 52.4175 52.964 51.4735 53.7747 50.7937C54.5854 50.1139 55.6083 49.7415 56.6648 49.7415H168.65C169.707 49.7419 170.729 50.1144 171.54 50.7942C172.35 51.474 172.897 52.4177 173.085 53.4608L178.434 83.1876L180.119 92.5547L182.717 106.989C182.835 107.641 182.809 108.31 182.64 108.95C182.472 109.59 182.164 110.185 181.74 110.692Z" fill="#CCDEFF"/>
<path d="M50.9669 104.492L59.4113 57.5639H165.902L174.347 104.492H50.9669Z" fill="white"/>
<path d="M171.222 87.1281L158.518 87.1113L157.841 83.1019L155.949 71.9027H171.984V69.2962H155.51L154.275 61.9973L153.527 57.5642L153.344 56.477L150.781 56.9129L150.891 57.5642L151.873 63.3773L152.873 69.2968H141.069L141.056 69.21L139.284 57.5642L139.105 56.3795L139.057 56.063L136.488 56.4569L136.656 57.5636L136.664 57.614L138.439 69.2954H126.542L125.883 62.7861L125.354 57.5634L125.208 56.128L122.624 56.3914L122.743 57.5634L123.386 63.9167L123.931 69.2951H113.956V56.2605H111.357V69.2962H100.861L102.051 57.5642L102.257 55.5233L99.6727 55.2601L99.4394 57.5642L98.2497 69.2962H86.3063L88.0909 57.5642L88.3916 55.5885L85.8225 55.1949L85.4626 57.5642L83.6779 69.2962H71.86L73.8412 57.5642L74.098 56.044L71.5363 55.6081L71.2068 57.5642L69.2248 69.2962H54.1981V71.9027H68.7844L67.1771 81.4192L66.2161 87.1113H53.3304V89.7187H65.7746L65.1747 93.2727L63.7547 101.679L63.2794 104.492L62.8756 106.881L65.438 107.317L65.9152 104.492L66.3951 101.655L67.8635 92.9548L68.4104 89.719H80.5748L80.3925 90.9163L78.6208 102.57L78.3287 104.493L78.0283 106.468L80.5971 106.862L80.7934 105.569L80.9581 104.493L83.1077 90.3573L83.2043 89.719H96.1814L94.6832 104.493L94.4767 106.533L95.4794 106.635L97.0614 106.797L97.1199 106.222L97.2948 104.493L98.7922 89.719H111.358V107.534H113.957V89.7187H126.001L126.72 96.8162L127.498 104.492L127.819 107.667L130.404 107.404L130.109 104.494L129.233 95.8536L128.612 89.7201H141.544L141.692 90.7009L143.791 104.494L144.27 107.65L144.283 107.732L146.851 107.336L146.761 106.742L146.419 104.491L144.174 89.7179H156.323L158.433 102.212L158.818 104.491L159.442 108.186L162.004 107.75L161.454 104.491L160.898 101.196L158.958 89.7179L171.69 89.73H172.256V87.1279L171.222 87.1281ZM68.8503 87.1113L69.879 81.0227L71.4193 71.9019H83.2831L82.2796 78.501L80.971 87.1105L68.8503 87.1113ZM83.5994 87.1113L85.0139 77.8068L85.9115 71.9027H97.9856L97.7744 73.9877L96.453 87.0215L96.4436 87.1113H83.5994ZM99.0553 87.1113L99.1445 86.2339L100.479 73.0667L100.597 71.9027H111.357V87.1105L99.0553 87.1113ZM113.956 87.1113V71.9036H124.195L124.702 76.9031L125.736 87.1122L113.956 87.1113ZM128.348 87.1113L127.204 75.8124L126.808 71.9027H138.837L141.149 87.1105L128.348 87.1113ZM143.777 87.1113L141.465 71.9036H153.315L155.411 84.3133L155.884 87.1122L143.777 87.1113Z" fill="#CCDEFF"/>
<g opacity="0.04">
<path d="M181.74 110.692C181.318 111.201 180.789 111.61 180.191 111.891C179.593 112.171 178.941 112.315 178.281 112.314H47.0321C44.2234 112.314 42.0991 109.762 42.5985 106.99L43.2962 103.11L44.8941 94.2312C45.2755 94.2347 45.6577 94.2386 46.0437 94.2433C48.3134 94.2683 50.574 94.2425 52.8254 94.1659C56.9804 94.0266 61.0969 93.7289 65.1748 93.2727C66.0732 93.1746 66.9694 93.0685 67.8636 92.9545C72.0973 92.4206 76.2781 91.7326 80.3926 90.9158C81.3003 90.7358 82.205 90.5494 83.1067 90.3568C84.0709 90.1516 85.0319 89.9388 85.9896 89.7184C89.4282 88.9286 92.8124 88.0595 96.1423 87.1111L96.4547 87.0212C97.356 86.7641 98.2529 86.5016 99.1454 86.2336C103.321 84.9822 107.398 83.6235 111.358 82.187C112.23 81.8714 113.096 81.5517 113.957 81.2277C117.65 79.8408 121.232 78.399 124.703 76.9023C125.544 76.5412 126.377 76.1779 127.204 75.8124C130.111 74.5267 132.925 73.2235 135.646 71.9027C137.496 71.0072 139.3 70.1094 141.057 69.2094C144.905 67.2412 148.52 65.2796 151.875 63.3767C152.691 62.9128 153.492 62.453 154.277 61.9973C156.92 60.463 159.384 58.9764 161.654 57.5642C165.645 55.0819 169.035 52.8327 171.737 50.97C172.442 51.6333 172.915 52.5067 173.086 53.4608L176.592 72.951L178.435 83.1887L180.12 92.5558L182.718 106.991C182.836 107.642 182.81 108.311 182.641 108.951C182.472 109.591 182.164 110.185 181.74 110.692Z" fill="black"/>
</g>
<g opacity="0.04">
<path d="M181.74 110.692C181.318 111.201 180.789 111.61 180.191 111.891C179.593 112.171 178.941 112.316 178.281 112.314H63.3939C69.6413 111.674 75.8041 110.759 81.8568 109.617C86.4652 108.748 91.0058 107.754 95.4785 106.635C96.0277 106.5 96.5745 106.362 97.119 106.222C99.2776 105.671 101.418 105.094 103.54 104.492C106.176 103.746 108.782 102.965 111.358 102.151C112.227 101.876 113.093 101.598 113.956 101.316C118.312 99.8939 122.567 98.3939 126.72 96.816C127.562 96.4967 128.4 96.1753 129.233 95.8517C133.513 94.1897 137.666 92.4724 141.693 90.6998C144.391 89.5184 147.025 88.3224 149.597 87.1116C151.574 86.1828 153.512 85.2499 155.411 84.3128C156.228 83.9087 157.038 83.5052 157.841 83.1022C161.898 81.0635 165.758 79.0212 169.403 77.0155C171.903 75.6401 174.299 74.2853 176.591 72.9513L178.434 83.189L180.12 92.5561L181.931 102.621L182.717 106.991C182.835 107.642 182.809 108.311 182.64 108.951C182.472 109.59 182.164 110.185 181.74 110.692Z" fill="black"/>
</g>
<g opacity="0.04">
<path d="M181.74 110.692C181.318 111.201 180.789 111.61 180.191 111.89C179.594 112.171 178.942 112.315 178.282 112.314H130.336C148.497 106.682 165.305 99.7035 180.12 92.5547L182.717 106.989C182.835 107.64 182.809 108.31 182.641 108.95C182.472 109.59 182.164 110.185 181.74 110.692Z" fill="black"/>
</g>
<path d="M138.206 144.468H87.9735C87.9735 139.374 89.4803 134.633 92.0713 130.668C96.5571 123.801 104.296 119.265 113.092 119.265C116.392 119.261 119.66 119.912 122.709 121.18C131.806 124.968 138.206 133.968 138.206 144.468Z" fill="#394D8B"/>
<g opacity="0.34">
<path d="M151.462 49.7427C135.478 58.7877 84.8967 85.3316 47.0713 82.122L52.2289 53.4606C52.4163 52.4173 52.9631 51.4733 53.7737 50.7934C54.5843 50.1136 55.6072 49.7412 56.6636 49.7413L151.462 49.7427Z" fill="white"/>
</g>
<g opacity="0.1">
<path d="M138.206 144.468H87.9735C87.9732 143.127 88.0787 141.788 88.289 140.464C88.8453 136.967 90.1344 133.628 92.0713 130.668C93.9658 130.522 96.0019 130.489 98.171 130.589C113.599 131.301 120.301 124.614 122.708 121.181C126.833 122.901 130.428 125.692 133.124 129.266C136.314 133.492 138.206 138.758 138.206 144.468Z" fill="black"/>
</g>
<g opacity="0.1">
<path d="M138.206 144.468H87.9735C87.9732 143.127 88.0787 141.788 88.289 140.464C91.0253 140.295 93.9342 140.271 97.011 140.414C116.657 141.32 127.519 134.779 133.124 129.266C136.314 133.492 138.206 138.758 138.206 144.468Z" fill="black"/>
</g>
<g opacity="0.29">
<path d="M104.629 112.314H120.685L103.953 116.72L104.629 112.314Z" fill="black"/>
</g>
<g opacity="0.5">
<path d="M128.099 129.24C128.778 128.659 128.627 127.361 127.761 126.339C126.895 125.318 125.642 124.96 124.962 125.54C124.283 126.12 124.434 127.418 125.3 128.44C126.167 129.462 127.42 129.82 128.099 129.24Z" fill="white"/>
</g>
<g opacity="0.28">
<path d="M130.3 131.904C130.688 131.573 130.601 130.831 130.106 130.247C129.611 129.663 128.895 129.459 128.507 129.79C128.119 130.121 128.205 130.864 128.7 131.447C129.195 132.031 129.911 132.236 130.3 131.904Z" fill="white"/>
</g>
<g opacity="0.19">
<path d="M181.74 110.692C181.318 111.201 180.789 111.61 180.191 111.891C179.593 112.171 178.941 112.315 178.281 112.314H138.265C138.721 108.375 139.981 102.411 143.44 102.249C147.848 102.041 174.216 102.485 181.931 102.62L182.716 106.99C182.835 107.641 182.809 108.31 182.64 108.95C182.472 109.59 182.164 110.185 181.74 110.692Z" fill="black"/>
</g>
<g opacity="0.19">
<path d="M82.5644 112.314H47.0321C44.2234 112.314 42.0991 109.762 42.5985 106.99L43.2962 103.11C45.5385 102.718 48.3371 102.416 51.3823 102.191C55.3192 101.901 59.6682 101.738 63.7559 101.679C64.6515 101.665 65.5317 101.657 66.3964 101.654C70.3805 101.636 73.9484 101.718 76.4046 101.869C77.2398 101.92 78.0473 102.189 78.7473 102.649C79.4473 103.109 80.0157 103.745 80.3965 104.492C80.5547 104.801 80.6789 105.126 80.7666 105.462L80.794 105.569L81.8571 109.617L82.5644 112.314Z" fill="black"/>
</g>
<path d="M172.415 138.536H163.179L164.657 128.897H170.937L172.415 138.536Z" fill="#516FB7"/>
<path d="M197.268 130.059C197.088 130.276 196.862 130.451 196.607 130.57C196.352 130.69 196.074 130.752 195.793 130.751H139.801C139.52 130.751 139.242 130.689 138.987 130.57C138.732 130.45 138.507 130.276 138.326 130.059C138.146 129.843 138.015 129.589 137.943 129.316C137.871 129.043 137.86 128.758 137.91 128.48L138.889 123.037L139.818 117.871L142.018 105.644C142.098 105.199 142.332 104.797 142.678 104.507C143.023 104.217 143.46 104.058 143.91 104.058H191.684C192.134 104.058 192.571 104.217 192.916 104.507C193.262 104.797 193.495 105.2 193.575 105.644L197.684 128.48C197.735 128.758 197.724 129.043 197.652 129.316C197.58 129.589 197.449 129.843 197.268 130.059Z" fill="#CCDEFF"/>
<path d="M141.48 127.415L145.083 107.395H190.512L194.114 127.415H141.48Z" fill="white"/>
<path d="M193.105 113.512V112.4H186.078L185.154 106.931L184.061 107.117L184.954 112.4H179.918L179.059 106.755L177.964 106.923L178.796 112.4H173.721L173.151 106.783L172.049 106.895L172.607 112.4H168.351V106.84H167.243V112.4H162.765L163.361 106.524L162.258 106.412L161.651 112.4H156.557L157.446 106.552L156.35 106.384L155.435 112.4H150.393L151.348 106.746L150.255 106.56L149.269 112.401H142.858V113.513H149.081L147.985 120.001H142.488V121.111H147.796L146.56 128.433L147.653 128.619L148.922 121.111H154.111L153.025 128.257L154.121 128.425L155.232 121.111H160.768L160.041 128.285L161.144 128.397L161.881 121.111H167.242V128.711H168.35V121.111H173.489L174.264 128.767L175.367 128.655L174.604 121.111H180.121L181.289 128.795L182.385 128.627L181.242 121.111H186.427L187.757 128.991L188.85 128.804L187.549 121.111L193.223 121.117V120.009L187.362 120.001L186.266 113.513L193.105 113.512ZM149.109 120L150.205 113.512H155.266L154.28 120H149.109ZM155.401 120L156.388 113.512H161.538L160.879 120H155.401ZM161.995 120L162.654 113.512H167.244V120H161.995ZM168.351 120V113.512H172.72L173.377 120H168.351ZM174.491 120L173.833 113.512H178.965L179.952 120H174.491ZM186.237 120H181.073L180.086 113.512H185.141L186.237 120Z" fill="#CCDEFF"/>
<g opacity="0.04">
<path d="M197.268 130.059C197.088 130.276 196.862 130.451 196.607 130.57C196.352 130.69 196.074 130.752 195.793 130.751H139.801C139.52 130.751 139.242 130.689 138.987 130.57C138.732 130.45 138.507 130.276 138.326 130.059C138.146 129.843 138.015 129.589 137.943 129.316C137.871 129.043 137.86 128.758 137.91 128.48L138.889 123.037L139.379 123.042C163.321 123.307 185.076 110.041 193.001 104.582C193.302 104.865 193.503 105.237 193.576 105.644L195.072 113.959L197.684 128.48C197.735 128.758 197.724 129.043 197.652 129.316C197.58 129.589 197.449 129.843 197.268 130.059Z" fill="black"/>
</g>
<g opacity="0.04">
<path d="M197.268 130.059C197.088 130.276 196.862 130.451 196.607 130.57C196.352 130.69 196.074 130.752 195.793 130.751H146.78C166.212 128.76 183.738 120.541 195.071 113.959L196.577 122.323L197.684 128.48C197.734 128.758 197.723 129.043 197.652 129.316C197.58 129.589 197.449 129.843 197.268 130.059Z" fill="black"/>
</g>
<g opacity="0.04">
<path d="M197.268 130.059C197.088 130.276 196.862 130.451 196.607 130.57C196.352 130.69 196.074 130.752 195.793 130.751H175.338C183.086 128.349 190.256 125.372 196.576 122.322L197.684 128.48C197.735 128.758 197.724 129.043 197.652 129.316C197.58 129.589 197.449 129.843 197.268 130.059Z" fill="black"/>
</g>
<path d="M178.696 144.468H157.268C157.265 142.377 157.873 140.33 159.016 138.581C160.93 135.652 164.231 133.717 167.983 133.717C169.391 133.715 170.786 133.993 172.086 134.534C175.966 136.15 178.696 139.989 178.696 144.468Z" fill="#394D8B"/>
<g opacity="0.34">
<path d="M184.351 104.058C177.532 107.915 155.955 119.24 139.818 117.87L142.018 105.644C142.098 105.199 142.331 104.796 142.677 104.506C143.023 104.216 143.459 104.057 143.91 104.058H184.351Z" fill="white"/>
</g>
<g opacity="0.1">
<path d="M178.696 144.468H157.268C157.268 143.896 157.313 143.325 157.403 142.76C157.64 141.268 158.19 139.844 159.016 138.581C159.882 138.516 160.751 138.505 161.619 138.548C168.2 138.851 171.06 135.999 172.086 134.534C174.043 135.349 175.716 136.727 176.893 138.495C178.069 140.264 178.698 142.342 178.698 144.468H178.696Z" fill="black"/>
</g>
<g opacity="0.1">
<path d="M178.696 144.468H157.268C157.268 143.896 157.313 143.325 157.403 142.76C158.642 142.686 159.884 142.679 161.124 142.739C169.505 143.124 174.138 140.335 176.53 137.983C177.939 139.849 178.7 142.127 178.696 144.468Z" fill="black"/>
</g>
<g opacity="0.29">
<path d="M164.372 130.751H171.222L164.084 132.631L164.372 130.751Z" fill="black"/>
</g>
<g opacity="0.5">
<path d="M174.374 137.383C174.664 137.135 174.598 136.581 174.227 136.146C173.856 135.711 173.321 135.56 173.032 135.808C172.743 136.056 172.809 136.61 173.18 137.045C173.55 137.48 174.085 137.631 174.374 137.383Z" fill="white"/>
</g>
<g opacity="0.28">
<path d="M175.323 139.098C175.488 138.957 175.451 138.641 175.24 138.392C175.029 138.142 174.724 138.055 174.558 138.197C174.392 138.338 174.429 138.654 174.641 138.904C174.852 139.153 175.157 139.24 175.323 139.098Z" fill="white"/>
</g>
<path d="M57.8313 138.536H48.5945L50.0724 128.897H56.3533L57.8313 138.536Z" fill="#516FB7"/>
<path d="M82.6837 130.059C82.5037 130.276 82.2782 130.451 82.0232 130.57C81.7683 130.69 81.4902 130.752 81.2088 130.751H25.217C24.9357 130.751 24.6578 130.689 24.4029 130.57C24.1481 130.45 23.9225 130.276 23.7421 130.059C23.5617 129.843 23.4309 129.589 23.3589 129.316C23.287 129.043 23.2756 128.758 23.3256 128.48L24.3047 123.037L25.234 117.871L27.4344 105.644C27.5144 105.199 27.7477 104.797 28.0934 104.507C28.4392 104.217 28.8755 104.058 29.3261 104.058H77.0997C77.5502 104.058 77.9865 104.217 78.3322 104.507C78.6779 104.797 78.9111 105.2 78.9911 105.644L83.1002 128.48C83.1509 128.758 83.1399 129.043 83.0679 129.316C82.9959 129.589 82.8647 129.843 82.6837 130.059Z" fill="#CCDEFF"/>
<path d="M26.896 127.415L30.4985 107.395H75.9276L79.5299 127.415H26.896Z" fill="white"/>
<path d="M78.5213 113.512V112.4H71.4939L70.57 106.931L69.4773 107.117L70.3699 112.4H65.3336L64.4753 106.755L63.3795 106.923L64.2123 112.4H59.1365L58.5673 106.783L57.4655 106.895L58.0234 112.4H53.7677V106.84H52.6593V112.4H48.181L48.7765 106.524L47.6738 106.412L47.0668 112.4H41.9726L42.8616 106.552L41.7658 106.384L40.8513 112.4H35.809L36.7636 106.746L35.6709 106.56L34.6844 112.401H28.2739V113.513H34.4968L33.4008 120.001H27.9044V121.111H33.213L31.9775 128.433L33.0702 128.619L34.3373 121.111H39.5265L38.4404 128.257L39.5361 128.425L40.6481 121.111H46.1841L45.457 128.284L46.5597 128.397L47.298 121.111H52.6588V128.711H53.7672V121.111H58.9056L59.6815 128.767L60.7841 128.655L60.0189 121.111H65.5376L66.7056 128.795L67.8013 128.627L66.6581 121.111H71.8412L73.1718 128.991L74.2648 128.804L72.9653 121.111L78.6385 121.117V120.009L72.7775 120.001L71.6817 113.513L78.5213 113.512ZM34.5254 120L35.6212 113.512H40.6821L39.6959 120H34.5254ZM40.8172 120L41.8035 113.512H46.9542L46.2953 120H40.8172ZM47.4108 120L48.0698 113.512H52.6601V120H47.4108ZM53.7672 120V113.512H58.1354L58.7927 120H53.7672ZM59.9069 120L59.2479 113.512H64.3798L65.3663 120H59.9069ZM71.6532 120H66.4889L65.5024 113.512H70.5574L71.6532 120Z" fill="#CCDEFF"/>
<g opacity="0.04">
<path d="M82.6837 130.059C82.5037 130.276 82.2782 130.451 82.0232 130.57C81.7683 130.69 81.4902 130.752 81.2088 130.751H25.217C24.9357 130.751 24.6578 130.689 24.4029 130.57C24.1481 130.45 23.9225 130.276 23.7421 130.059C23.5617 129.843 23.4309 129.589 23.3589 129.316C23.287 129.043 23.2756 128.758 23.3256 128.48L24.3047 123.037L24.7953 123.042C48.737 123.307 70.4921 110.041 78.417 104.582C78.7172 104.865 78.9185 105.238 78.9911 105.644L80.4875 113.959L83.1002 128.48C83.1509 128.758 83.1399 129.043 83.0679 129.316C82.9959 129.589 82.8647 129.843 82.6837 130.059Z" fill="black"/>
</g>
<g opacity="0.04">
<path d="M82.6837 130.059C82.5037 130.276 82.2782 130.451 82.0233 130.57C81.7683 130.69 81.4902 130.752 81.2088 130.751H32.1972C51.6287 128.76 69.1556 120.541 80.4878 113.959L81.9927 122.323L83.1005 128.481C83.1509 128.759 83.1397 129.044 83.0677 129.317C82.9957 129.59 82.8646 129.843 82.6837 130.059Z" fill="black"/>
</g>
<g opacity="0.04">
<path d="M82.6837 130.059C82.5037 130.276 82.2782 130.451 82.0232 130.57C81.7683 130.69 81.4902 130.752 81.2087 130.751H60.754C68.5015 128.349 75.672 125.372 81.9918 122.322L83.0996 128.48C83.1504 128.758 83.1395 129.043 83.0676 129.316C82.9957 129.589 82.8646 129.843 82.6837 130.059Z" fill="black"/>
</g>
<path d="M64.1124 144.468H42.6829C42.6795 142.377 43.2873 140.33 44.4311 138.581C46.3448 135.652 49.6461 133.717 53.3979 133.717C54.8058 133.715 56.2001 133.993 57.5007 134.534C61.3822 136.15 64.1124 139.989 64.1124 144.468Z" fill="#394D8B"/>
<g opacity="0.34">
<path d="M69.7673 104.058C62.9483 107.915 41.3706 119.24 25.2335 117.87L27.4339 105.644C27.5139 105.199 27.7471 104.796 28.0929 104.506C28.4387 104.216 28.875 104.057 29.3256 104.058H69.7673Z" fill="white"/>
</g>
<g opacity="0.1">
<path d="M64.1124 144.468H42.6829C42.6827 143.896 42.7278 143.325 42.8177 142.76C43.055 141.268 43.6049 139.844 44.4311 138.581C45.297 138.516 46.166 138.505 47.0333 138.548C53.6146 138.851 56.4744 135.999 57.5007 134.534C59.4579 135.349 61.1305 136.727 62.3073 138.495C63.4841 140.264 64.1122 142.342 64.1124 144.468Z" fill="black"/>
</g>
<g opacity="0.1">
<path d="M64.1124 144.468H42.6829C42.6827 143.896 42.7278 143.325 42.8177 142.76C44.0565 142.686 45.2984 142.679 46.538 142.738C54.9193 143.124 59.5522 140.334 61.9439 137.982C63.3543 139.848 64.1161 142.127 64.1124 144.468Z" fill="black"/>
</g>
<g opacity="0.29">
<path d="M49.7883 130.751H56.6375L49.5 132.631L49.7883 130.751Z" fill="black"/>
</g>
<g opacity="0.5">
<path d="M59.8049 137.968C60.0948 137.72 60.0302 137.166 59.6607 136.731C59.2911 136.295 58.7565 136.142 58.4667 136.389C58.1768 136.637 58.2413 137.191 58.6109 137.627C58.9804 138.063 59.515 138.215 59.8049 137.968Z" fill="white"/>
</g>
<g opacity="0.28">
<path d="M60.7436 139.105C60.9092 138.963 60.8723 138.647 60.6612 138.398C60.45 138.149 60.1446 138.061 59.979 138.203C59.8133 138.344 59.8503 138.661 60.0614 138.91C60.2726 139.159 60.578 139.246 60.7436 139.105Z" fill="white"/>
</g>
<g opacity="0.53">
<path d="M110.063 0L114.681 13.0307L127.129 7.09338L121.212 19.5841L134.198 24.2181L121.212 28.8521L127.129 41.3428L114.681 35.4055L110.063 48.4362L105.445 35.4055L92.9968 41.3428L98.9139 28.8521L85.9277 24.2181L98.9139 19.5841L92.9968 7.09338L105.445 13.0307L110.063 0Z" fill="#FFF0A4"/>
</g>
<path d="M124.221 24.2917C124.221 32.0975 117.915 38.425 110.136 38.425C102.87 38.425 96.8887 32.9042 96.1334 25.8155C95.9112 23.7553 96.1415 21.6713 96.8083 19.7101C98.6981 14.1725 103.919 10.1862 110.073 10.1598C110.094 10.1598 110.116 10.1598 110.136 10.1598C112.709 10.1551 115.233 10.8616 117.432 12.2018C121.502 14.678 124.221 19.1654 124.221 24.2917Z" fill="#EFD745"/>
<g opacity="0.04">
<path d="M124.221 24.2917C124.221 32.0975 117.915 38.425 110.136 38.425C106.664 38.4249 103.314 37.1376 100.729 34.8103C98.1446 32.483 96.5081 29.2797 96.1337 25.8155C104.69 25.5091 113.172 17.1233 117.433 12.2004C119.507 13.4573 121.223 15.2313 122.412 17.3499C123.602 19.4686 124.225 21.8599 124.222 24.2917H124.221Z" fill="black"/>
</g>
<g opacity="0.04">
<path d="M124.221 24.2917C124.221 32.0975 117.915 38.425 110.136 38.425C106.545 38.43 103.089 37.0538 100.479 34.5795C109.291 32.7791 117.739 25.5931 123.445 19.6497C123.961 21.1425 124.223 22.7117 124.221 24.2917Z" fill="black"/>
</g>
<g opacity="0.22">
<path d="M110.073 10.1597C107.04 13.7889 102.705 17.7476 97.2251 19.5819C97.0843 19.629 96.9448 19.6731 96.8083 19.7114C98.6982 14.1716 103.92 10.1862 110.073 10.1597Z" fill="white"/>
</g>
<g opacity="0.72">
<path d="M119.667 19.2139C120.581 18.7757 120.897 17.5283 120.373 16.4278C119.849 15.3273 118.683 14.7905 117.769 15.2287C116.855 15.6669 116.539 16.9143 117.063 18.0148C117.587 19.1153 118.753 19.6521 119.667 19.2139Z" fill="white"/>
</g>
<g opacity="0.31">
<path d="M121.721 21.7166C122.172 21.5006 122.327 20.8859 122.069 20.3436C121.811 19.8014 121.236 19.5368 120.786 19.7528C120.336 19.9687 120.18 20.5834 120.438 21.1257C120.696 21.668 121.271 21.9325 121.721 21.7166Z" fill="white"/>
</g>
<path d="M189.378 144.625L186 144.59C186 144.59 186.031 144.064 186.08 143.107C186.407 136.739 187.576 111.324 186.254 95.4121C186.254 95.4121 186.254 95.4143 186.254 95.4148C186.266 95.4644 186.455 96.1996 186.743 97.5328C186.743 97.5328 186.743 97.5341 186.743 97.5347C188.048 103.593 191.372 121.997 189.378 144.625Z" fill="#516FB7"/>
<g opacity="0.1">
<path d="M187.986 145.962H186.361C186.624 139.478 187.679 112.024 186.618 95.823C186.618 95.823 186.618 95.8252 186.618 95.8258C186.762 96.4156 186.893 97.1419 187.01 97.9821C187.01 97.9821 187.01 97.9835 187.01 97.9841C188.681 109.835 187.986 145.962 187.986 145.962Z" fill="white"/>
</g>
<path d="M187.335 101.806C187.307 101.843 187.278 101.88 187.249 101.917C187.249 101.917 173.88 89.0231 183.999 75.0699C184.007 75.0584 184.016 75.0462 184.024 75.0347C184.024 75.0338 199.598 86.2972 187.335 101.806Z" fill="#2DC97E"/>
<g opacity="0.06">
<path d="M187.335 101.806C187.307 101.843 187.278 101.88 187.249 101.917C187.249 101.917 173.88 89.023 183.999 75.0699L187.335 101.806Z" fill="black"/>
</g>
<path d="M187.227 115.118C187.23 115.159 187.233 115.201 187.236 115.241C187.236 115.241 170.872 114.966 169.06 99.8404C169.059 99.8278 169.057 99.8148 169.055 99.8021C169.055 99.8035 185.869 97.6973 187.227 115.118Z" fill="#2DC97E"/>
<g opacity="0.06">
<path d="M187.227 115.118C187.23 115.159 187.233 115.201 187.236 115.241C187.236 115.241 170.872 114.966 169.06 99.8404L187.227 115.118Z" fill="black"/>
</g>
<path d="M187.113 133.181C187.116 133.215 187.119 133.25 187.121 133.284C187.121 133.284 173.359 133.052 171.835 120.333C171.835 120.323 171.832 120.312 171.831 120.301C171.831 120.301 185.971 118.53 187.113 133.181Z" fill="#2DC97E"/>
<g opacity="0.06">
<path d="M187.113 133.181C187.116 133.215 187.119 133.25 187.121 133.284C187.121 133.284 173.359 133.052 171.835 120.333L187.113 133.181Z" fill="black"/>
</g>
<path d="M189.382 123.699C189.379 123.732 189.376 123.765 189.374 123.798C189.374 123.798 202.529 123.576 203.985 111.419C203.985 111.408 203.988 111.398 203.989 111.388C203.989 111.388 190.473 109.695 189.382 123.699Z" fill="#2DC97E"/>
<g opacity="0.06">
<path d="M189.382 123.699C189.379 123.732 189.376 123.765 189.374 123.798C189.374 123.798 202.529 123.576 203.985 111.419L189.382 123.699Z" fill="black"/>
</g>
<path d="M189.566 139.056C189.564 139.078 189.563 139.1 189.561 139.123C189.561 139.123 198.488 138.972 199.477 130.722L199.479 130.701C199.479 130.701 190.307 129.552 189.566 139.056Z" fill="#2DC97E"/>
<g opacity="0.06">
<path d="M189.566 139.056C189.564 139.078 189.563 139.1 189.561 139.123C189.561 139.123 198.488 138.972 199.477 130.722L189.566 139.056Z" fill="black"/>
</g>
<path d="M28.3784 144.625L25.0002 144.576C25.0002 144.576 25.0308 143.835 25.0798 142.487C25.4073 133.52 26.5752 97.7316 25.2536 75.3254C25.2536 75.3254 25.2536 75.3281 25.2536 75.3292C25.2664 75.3985 25.4555 76.433 25.7426 78.3114C25.7428 78.3116 25.743 78.3118 25.7431 78.3121C25.7432 78.3123 25.7433 78.3126 25.7433 78.3129C25.7433 78.3132 25.7432 78.3135 25.7431 78.3137C25.743 78.314 25.7428 78.3142 25.7426 78.3144C27.0482 86.8462 30.3721 112.761 28.3784 144.625Z" fill="#516FB7"/>
<g opacity="0.1">
<path d="M27.0991 144.625H24.8386C25.2041 135.684 26.6694 97.8237 25.1956 75.4829C25.1956 75.4829 25.1956 75.4856 25.1956 75.4867C25.3954 76.3 25.5761 77.3014 25.7408 78.4602C25.7411 78.4604 25.7412 78.4606 25.7414 78.4609C25.7415 78.4611 25.7416 78.4614 25.7416 78.4617C25.7416 78.462 25.7415 78.4623 25.7414 78.4625C25.7412 78.4628 25.7411 78.463 25.7408 78.4632C28.0642 94.8051 27.0991 144.625 27.0991 144.625Z" fill="white"/>
</g>
<path d="M26.193 83.8045C26.1535 83.8552 26.1131 83.9058 26.0727 83.9565C26.0727 83.9565 7.47949 66.0249 21.5529 46.6184L21.5883 46.5697C21.5883 46.5697 43.2479 62.2345 26.193 83.8045Z" fill="#2DC97E"/>
<g opacity="0.06">
<path d="M26.193 83.8045C26.1535 83.8552 26.1131 83.9059 26.0727 83.9566C26.0727 83.9566 7.47949 66.0249 21.5529 46.6184L26.193 83.8045Z" fill="black"/>
</g>
<path d="M26.0425 102.319C26.0473 102.375 26.0516 102.432 26.0557 102.489C26.0557 102.489 3.2965 102.104 0.776304 81.0717C0.774382 81.0544 0.771636 81.0365 0.769714 81.0189C0.768616 81.0189 24.1543 78.0894 26.0425 102.319Z" fill="#2DC97E"/>
<g opacity="0.06">
<path d="M26.0425 102.319C26.0473 102.375 26.0516 102.432 26.0557 102.489C26.0557 102.489 3.2965 102.104 0.776306 81.0717L26.0425 102.319Z" fill="black"/>
</g>
<path d="M25.8844 127.44C25.8882 127.487 25.8918 127.536 25.8954 127.584C25.8954 127.584 6.75489 127.26 4.63556 109.572C4.63391 109.557 4.63171 109.542 4.63007 109.527C4.63007 109.527 24.2963 107.063 25.8844 127.44Z" fill="#2DC97E"/>
<g opacity="0.06">
<path d="M25.8843 127.44C25.8882 127.487 25.8917 127.536 25.8953 127.584C25.8953 127.584 6.75483 127.26 4.6355 109.572L25.8843 127.44Z" fill="black"/>
</g>
<path d="M29.0395 114.253C29.0356 114.298 29.032 114.344 29.0287 114.391C29.0287 114.391 47.3247 114.081 49.3504 97.1733C49.352 97.1592 49.3539 97.1457 49.3556 97.1308C49.3556 97.1306 30.5586 94.7753 29.0395 114.253Z" fill="#2DC97E"/>
<g opacity="0.06">
<path d="M29.0395 114.253C29.0356 114.298 29.032 114.344 29.0287 114.391C29.0287 114.391 47.3247 114.081 49.3504 97.1733L29.0395 114.253Z" fill="black"/>
</g>
<path d="M29.2955 135.611C29.2931 135.641 29.2906 135.673 29.2884 135.704C29.2884 135.704 41.7038 135.494 43.0788 124.02C43.0788 124.011 43.081 124.001 43.0821 123.992C43.0829 123.992 30.3262 122.393 29.2955 135.611Z" fill="#2DC97E"/>
<g opacity="0.06">
<path d="M29.2955 135.611C29.2931 135.641 29.2906 135.673 29.2884 135.704C29.2884 135.704 41.7038 135.494 43.0788 124.02L29.2955 135.611Z" fill="black"/>
</g>
<path d="M81.5253 144.935L80.2585 144.919C80.2585 144.919 80.2697 144.668 80.2881 144.212C80.4111 141.179 80.8491 129.075 80.3535 121.497C80.3582 121.521 80.4293 121.871 80.5369 122.506C81.0264 125.394 82.2729 134.158 81.5253 144.935Z" fill="#516FB7"/>
<g opacity="0.1">
<path d="M80.9868 144.283L80.2881 144.212C80.4111 141.179 80.849 129.075 80.3534 121.497C80.4207 121.773 80.4814 122.113 80.5368 122.506C81.318 128.051 80.9868 144.283 80.9868 144.283Z" fill="white"/>
</g>
<path d="M80.689 124.296L80.6483 124.347C80.6483 124.347 74.3949 118.316 79.1283 111.789L79.1402 111.772C79.1402 111.772 86.4248 117.041 80.689 124.296Z" fill="#2DC97E"/>
<g opacity="0.06">
<path d="M80.689 124.296L80.6483 124.347C80.6483 124.347 74.3949 118.316 79.1283 111.789L80.689 124.296Z" fill="black"/>
</g>
<path d="M80.6386 130.523C80.6402 130.542 80.6416 130.561 80.6429 130.58C80.6429 130.58 72.9882 130.451 72.1406 123.377C72.1406 123.371 72.1393 123.365 72.1384 123.359C72.1382 123.359 80.0032 122.374 80.6386 130.523Z" fill="#2DC97E"/>
<g opacity="0.06">
<path d="M80.6384 130.523C80.6401 130.542 80.6415 130.561 80.6428 130.58C80.6428 130.58 72.9881 130.451 72.1405 123.377L80.6384 130.523Z" fill="black"/>
</g>
<path d="M80.5847 138.972C80.5847 138.988 80.5875 139.004 80.5886 139.02C80.5886 139.02 74.151 138.911 73.4382 132.962C73.4382 132.957 73.4368 132.952 73.4363 132.947C73.4363 132.947 80.0507 132.119 80.5847 138.972Z" fill="#2DC97E"/>
<g opacity="0.06">
<path d="M80.5849 138.972C80.5849 138.988 80.5876 139.004 80.5887 139.02C80.5887 139.02 74.1511 138.911 73.4384 132.962L80.5849 138.972Z" fill="black"/>
</g>
<path d="M81.6461 134.537C81.6461 134.552 81.6436 134.567 81.6425 134.583C81.6425 134.583 87.796 134.479 88.4774 128.792L88.4791 128.778C88.4791 128.778 82.1565 127.986 81.6461 134.537Z" fill="#2DC97E"/>
<g opacity="0.06">
<path d="M81.6461 134.537C81.6461 134.552 81.6436 134.567 81.6425 134.583C81.6425 134.583 87.796 134.479 88.4774 128.792L81.6461 134.537Z" fill="black"/>
</g>
<path d="M81.7325 141.719L81.73 141.75C81.73 141.75 85.9058 141.68 86.3681 137.821C86.3681 137.817 86.3681 137.814 86.3681 137.811C86.3681 137.808 82.0789 137.275 81.7325 141.719Z" fill="#2DC97E"/>
<g opacity="0.06">
<path d="M81.7325 141.719L81.73 141.75C81.73 141.75 85.9058 141.68 86.3681 137.821L81.7325 141.719Z" fill="black"/>
</g>
<path d="M144.845 144.625L144 144.614C144 144.614 144.008 144.453 144.02 144.16C144.102 142.211 144.394 134.431 144.063 129.56C144.067 129.575 144.114 129.8 144.186 130.208C144.512 132.064 145.343 137.698 144.845 144.625Z" fill="#516FB7"/>
<g opacity="0.1">
<path d="M144.488 144.857L144.004 144.808C144.089 142.708 144.392 134.329 144.049 129.082C144.095 129.273 144.138 129.509 144.176 129.781C144.717 133.619 144.488 144.857 144.488 144.857Z" fill="white"/>
</g>
<path d="M144.282 131.02C144.273 131.032 144.263 131.044 144.254 131.055C144.254 131.055 139.925 126.88 143.202 122.361L143.21 122.35C143.21 122.35 148.252 125.997 144.282 131.02Z" fill="#2DC97E"/>
<g opacity="0.06">
<path d="M144.282 131.02C144.273 131.032 144.263 131.044 144.254 131.055C144.254 131.055 139.925 126.88 143.202 122.361L144.282 131.02Z" fill="black"/>
</g>
<path d="M144.246 135.331L144.249 135.371C144.249 135.371 138.95 135.281 138.363 130.384C138.363 130.38 138.363 130.376 138.363 130.372C138.362 130.371 143.807 129.689 144.246 135.331Z" fill="#2DC97E"/>
<g opacity="0.06">
<path d="M144.246 135.331L144.249 135.371C144.249 135.371 138.95 135.281 138.363 130.384L144.246 135.331Z" fill="black"/>
</g>
<path d="M144.209 141.18C144.209 141.191 144.211 141.202 144.212 141.214C144.212 141.214 139.756 141.138 139.262 137.02C139.262 137.016 139.262 137.013 139.262 137.009C139.262 137.006 143.84 136.435 144.209 141.18Z" fill="#2DC97E"/>
<g opacity="0.06">
<path d="M144.209 141.18C144.209 141.191 144.211 141.202 144.212 141.214C144.212 141.214 139.756 141.138 139.262 137.02L144.209 141.18Z" fill="black"/>
</g>
<path d="M144.944 138.11C144.944 138.12 144.942 138.131 144.942 138.142C144.942 138.142 149.202 138.07 149.673 134.133C149.673 134.13 149.673 134.126 149.673 134.123C149.673 134.12 145.297 133.574 144.944 138.11Z" fill="#2DC97E"/>
<g opacity="0.06">
<path d="M144.944 138.11C144.944 138.12 144.942 138.131 144.942 138.142C144.942 138.142 149.202 138.07 149.673 134.133L144.944 138.11Z" fill="black"/>
</g>
<path d="M145.004 143.083L145.002 143.104C145.002 143.104 147.893 143.055 148.213 140.384C148.213 140.382 148.213 140.379 148.213 140.377C148.213 140.377 145.243 140.005 145.004 143.083Z" fill="#2DC97E"/>
<g opacity="0.06">
<path d="M145.004 143.083L145.002 143.104C145.002 143.104 147.893 143.055 148.213 140.384L145.004 143.083Z" fill="black"/>
</g>
<path d="M178.515 66.961H215C215 66.961 212.726 61.2821 209.441 62.3976C209.441 62.3976 209.037 57.5297 204.186 57.3776C199.335 57.2256 199.134 60.0649 199.134 60.0649C199.134 60.0649 199.892 53.017 192.716 53.5239C187.02 53.9264 185.035 58.4425 186.753 61.6369C186.752 61.6369 177.404 60.6735 178.515 66.961Z" fill="#E3EEFF"/>
<path d="M25.9735 44.067H56.372C56.372 44.067 54.4776 39.3349 51.7405 40.265C51.7405 40.265 51.4036 36.2091 47.3618 36.0824C43.3199 35.9556 43.1514 38.3225 43.1514 38.3225C43.1514 38.3225 43.7829 32.4498 37.804 32.8725C33.058 33.2078 31.4043 36.9706 32.8345 39.6322C32.8358 39.6308 25.0466 38.828 25.9735 44.067Z" fill="#E3EEFF"/>
<path d="M143.356 34.6553H173.755C173.755 34.6553 171.861 29.9232 169.124 30.8533C169.124 30.8533 168.787 26.7974 164.745 26.6706C160.703 26.5439 160.536 28.9094 160.536 28.9094C160.536 28.9094 161.167 23.0367 155.189 23.4594C150.443 23.7946 148.789 27.5575 150.219 30.2191C150.219 30.2191 142.43 29.4163 143.356 34.6553Z" fill="#E3EEFF"/>
<path d="M73.4524 43.0829H98.4649C98.4649 43.0829 96.9059 39.1892 94.654 39.954C94.654 39.954 94.377 36.6168 91.0509 36.5124C87.7249 36.408 87.5865 38.355 87.5865 38.355C87.5865 38.355 88.1063 33.5229 83.1867 33.8704C79.2816 34.1459 77.9206 37.2425 79.0988 39.4328C79.101 39.4328 72.6902 38.7721 73.4524 43.0829Z" fill="#E3EEFF"/>
<path d="M95.6492 65.6079C95.277 66.7184 93.9948 67.8288 93.3661 68.2189C92.4314 68.7982 90.8845 67.2977 91.4221 66.3631C91.7291 65.837 91.9692 65.2743 92.1369 64.6883C92.2742 64.1173 92.0707 62.7147 92.165 62.5902C92.2345 62.4973 92.5571 62.5222 92.6944 62.7347C92.8036 62.9006 92.8599 63.2691 92.9078 63.4069C92.9906 63.6409 93.1097 63.4982 93.1626 63.3936C93.4059 62.865 93.5575 62.2986 93.611 61.7188C93.6722 61.1993 94.0659 61.191 94.4216 61.3702C96.1191 62.2218 96.0314 64.4659 95.6492 65.6079Z" fill="#EB987A"/>
<path d="M38.9086 135.933C38.6935 136.573 38.8325 137.628 38.8573 138.471C38.8821 139.271 38.7895 139.799 38.9599 140.437C39.2676 141.582 41.607 142.419 42.2688 141.633C42.7651 141.039 41.2927 138.375 42.0669 136.976C42.2324 136.667 43.685 134.25 44.4427 133.236C45.4006 131.955 42.9835 130.551 42.196 131.784C41.4283 132.986 41.2728 133.718 40.6259 134.3C40.0502 134.821 39.3388 134.647 38.9086 135.933Z" fill="#3B4F66"/>
<path d="M50.8553 108.39C50.6551 110.129 50.2845 114.209 49.0817 116.903C47.9981 119.33 42.2985 130.262 40.4307 133.915C41.3423 134.557 43.584 136.041 44.5238 136.624C45.4602 135.497 52.8042 125.091 54.7813 121.353C56.8791 117.403 59.3839 110.72 60.1251 108.406C60.7637 106.414 63.5018 100.193 63.3744 98.9697C61.8341 97.5439 55.4331 95.6732 53.8879 95.6732C51.0058 99.3332 51.2838 104.643 50.8553 108.39Z" fill="#5F8199"/>
<path d="M50.8867 127.629C52.508 125.184 54.0202 122.802 54.7862 121.358C56.884 117.408 59.3888 110.735 60.13 108.411C60.5784 107.01 62.0641 103.521 62.8632 101.146C62.0591 99.3781 57.9677 103.109 57.4714 105.611C56.8807 108.599 55.807 114.126 54.5728 117.618C53.4527 120.777 49.8146 126.997 50.8867 127.629Z" fill="#3B4F66"/>
<path d="M37.2641 97.0908C37.6595 96.0583 38.9549 95.0873 39.5803 94.7669C40.5167 94.2789 42.0123 95.8193 41.4548 96.6725C41.1365 97.1542 40.8844 97.6768 40.7053 98.2261C40.5564 98.7606 40.7202 100.112 40.6259 100.218C40.5531 100.303 40.2355 100.254 40.1048 100.044C40.0005 99.8777 39.9559 99.5225 39.9112 99.388C39.8351 99.1573 39.7127 99.2868 39.6597 99.388C39.4051 99.8768 39.2403 100.408 39.1733 100.955C39.1005 101.453 38.7117 101.426 38.3643 101.229C36.7248 100.288 36.8555 98.1547 37.2641 97.0908Z" fill="#EB987A"/>
<path d="M65.0588 144.387H70.1445C71.7129 144.387 71.1454 143.659 70.2868 143.287C69.5307 142.955 68.4669 142.767 67.7605 142.103C67.2294 141.605 66.9332 139.954 66.8489 139.115C66.7893 138.528 64.713 138.7 64.7808 139.369C64.8834 140.395 64.3292 142.719 64.4218 143.655C64.4814 144.15 64.5906 144.387 65.0588 144.387Z" fill="#3B4F66"/>
<path d="M54.3329 95.6749C51.8513 102.472 56.1809 105.251 57.3589 106.096H60.1466C60.7836 111.688 62.0079 118.418 62.074 120.948C62.1783 124.86 62.1518 136.973 62.3172 141.365H67.5403C68.1326 137.824 70.0798 127.455 69.8102 119.829C69.5405 112.204 70.0914 103.274 69.8433 99.0112C68.2302 98.7158 58.0339 95.8558 54.3329 95.6749Z" fill="#5F8199"/>
<path d="M62.8881 72.0333C63.0849 74.0733 66.0944 75.3115 67.6975 75.3115C69.3007 75.3115 69.2229 73.2699 68.8308 71.2598C68.3858 68.9725 66.7561 68.0247 65.1613 68.2089C63.1875 68.4347 62.6862 69.9418 62.8881 72.0333Z" fill="#EB987A"/>
<path d="M62.8832 76.324C61.692 77.1357 68.0119 79.2354 67.9722 78.0486C67.9424 76.9813 67.8299 75.9057 67.7042 74.372C67.5735 72.7984 62.9957 70.7452 63.047 72.1179C63.1032 73.64 63.8229 75.6833 62.8832 76.324Z" fill="#EB987A"/>
<path d="M62.5124 71.2897C62.5124 73.1288 62.5124 74.7422 64.2645 74.7422C64.8452 74.7422 65.4127 74.5762 65.8048 74.1729C66.225 73.738 65.8693 72.513 65.8428 72.1677C65.7799 71.3594 66.67 71.449 67.0241 72.3536C67.4278 72.2839 67.3335 71.5486 67.3351 71.2216C67.3351 69.5916 68.1905 69.3609 68.2996 68.7318C68.4767 67.7126 66.7031 67.2528 65.5682 67.3192C63.1957 67.4603 62.5124 69.4488 62.5124 71.2897Z" fill="#2D374D"/>
<path d="M39.4448 92.5361C40.4192 91.092 43.8555 86.3945 45.7449 84.2583C47.53 82.2415 48.392 81.2024 51.6231 79.4911C53.3106 78.5964 56.3399 77.7516 59.2202 77.1457C61.007 76.7689 62.3174 76.3523 63.4738 76.3871C65.2755 76.4403 65.8579 76.6112 67.5321 77.2685C68.9566 77.8279 71.9991 77.7433 73.9232 77.2685C77.3479 76.417 80.5906 75.6867 82.6918 74.0268C84.8425 72.3371 88.5087 68.3451 89.9266 66.9624C90.691 66.2171 91.2799 66.0428 92.2428 66.6968C93.3017 67.4172 94.0114 69.1584 92.9625 70.4581C91.8689 71.8125 88.0439 76.2012 85.9791 78.1632C84.0269 80.019 82.4171 80.8472 79.057 82.2731C77.7599 82.8241 76.5389 83.3686 75.3725 83.7819C74.1036 84.2334 73.3425 85.4152 73.1605 86.7531C72.4988 91.6713 72.5087 100.032 70.2686 101.171C65.4509 103.606 54.1808 101.194 51.7554 98.0552C52.3113 94.2208 53.62 89.3491 54.7913 85.3405C52.7762 85.9082 51.0225 86.534 49.7436 87.7307C47.7484 89.5998 44.054 94.259 42.7586 95.7579C42.0604 96.5679 41.4897 96.792 40.4771 96.2227C39.372 95.5936 38.51 93.9204 39.4448 92.5361Z" fill="#325698"/>
<path d="M52.3228 84.1504C53.5703 83.5329 54.7201 83.1462 55.4944 83.1113C55.2644 83.7935 55.0278 84.5438 54.7962 85.3405C52.7811 85.9065 51.0274 86.5323 49.7485 87.7291C49.0619 88.3714 48.1752 89.3441 47.252 90.4048C47.2553 89.291 49.5649 85.5115 52.3228 84.1504Z" fill="#274781"/>
</svg>
