<svg width="226" height="172" viewBox="0 0 226 172" fill="none" xmlns="http://www.w3.org/2000/svg">
<mask id="mask0_2108_1948" style="mask-type:alpha" maskUnits="userSpaceOnUse" x="0" y="0" width="226" height="172">
<rect width="226" height="172" fill="#D9D9D9"/>
</mask>
<g mask="url(#mask0_2108_1948)">
<path d="M206.359 95.4366C220.018 141.158 175.429 190.47 138.492 201.583C101.556 212.696 60.5427 184.637 46.8774 138.914C33.2122 93.1904 52.0721 47.118 89.0043 36.0073C125.937 24.8965 192.694 49.7132 206.359 95.4366Z" fill="#E3EEFF"/>
<path fill-rule="evenodd" clip-rule="evenodd" d="M219.779 54.6166C213.97 51.9636 201.69 46.7284 199.893 46.2466C198.235 45.7991 194.207 47.118 191.8 47.2615L190.946 47.0324C190.986 46.8242 191.006 46.6127 191.006 46.4007C191.006 45.7444 190.81 45.1031 190.444 44.5595C190.077 44.016 189.556 43.5953 188.949 43.3517C188.573 43.1996 187.028 42.6215 186.654 42.4502C186.1 42.1996 185.498 42.0704 184.889 42.0712C184.834 42.0712 184.783 42.0712 184.727 42.0712L176.404 10.8802C176.338 10.634 176.177 10.4241 175.957 10.2964C175.737 10.1688 175.476 10.1339 175.23 10.1993C174.686 10.3471 174.445 10.9723 174.541 11.9701C175.158 18.3445 176.641 31.635 177.121 33.4379C177.565 35.1016 180.856 37.9344 182.183 39.9578L182.879 42.5658C182.354 42.8438 181.892 43.2276 181.522 43.6933C181.151 44.1589 180.881 44.6962 180.727 45.2716C180.574 45.847 180.541 46.448 180.63 47.037C180.718 47.6259 180.928 48.19 181.244 48.694L158.489 71.5343C158.4 71.6236 158.329 71.7297 158.281 71.8465C158.233 71.9634 158.208 72.0887 158.208 72.2152C158.208 72.3417 158.233 72.467 158.281 72.5838C158.329 72.7006 158.4 72.8068 158.489 72.8961C158.886 73.2943 159.557 73.1916 160.363 72.6091C165.556 68.8856 176.293 61.1387 177.61 59.8197C178.824 58.6014 179.62 54.1391 180.7 51.9743L182.604 50.0644C182.821 50.2024 183.05 50.3206 183.289 50.4177L180.156 176.152H189.333L186.505 50.4177C186.654 50.3577 188.616 49.5954 189.004 49.4327C189.376 49.2761 189.716 49.0518 190.007 48.7711L219.796 56.7792C219.918 56.8119 220.045 56.8202 220.17 56.8037C220.295 56.7871 220.415 56.7461 220.524 56.6828C220.633 56.6196 220.728 56.5354 220.805 56.4351C220.882 56.3348 220.938 56.2204 220.97 56.0983C221.117 55.5544 220.697 55.032 219.779 54.6166Z" fill="#58E5AA"/>
<path d="M183.748 49.7882C183.08 49.7877 182.427 49.5887 181.872 49.2162C181.317 48.8438 180.885 48.3146 180.63 47.6956C180.375 47.0766 180.308 46.3955 180.439 45.7386C180.569 45.0817 180.891 44.4783 181.363 44.0048C181.835 43.5312 182.437 43.2088 183.092 43.0783C183.747 42.9478 184.426 43.015 185.042 43.2714C185.659 43.5279 186.186 43.962 186.557 44.519C186.928 45.0761 187.126 45.7309 187.126 46.4008C187.125 47.2992 186.769 48.1604 186.135 48.7955C185.502 49.4306 184.643 49.7876 183.748 49.7882ZM183.748 43.7285C183.22 43.7285 182.705 43.8854 182.266 44.1794C181.828 44.4733 181.486 44.8912 181.285 45.38C181.083 45.8688 181.03 46.4066 181.133 46.9254C181.236 47.4443 181.491 47.9208 181.864 48.2947C182.237 48.6687 182.712 48.9232 183.229 49.0261C183.746 49.1291 184.282 49.0758 184.769 48.8731C185.256 48.6703 185.672 48.3272 185.965 47.8871C186.258 47.4471 186.414 46.9298 186.413 46.4008C186.412 45.692 186.131 45.0127 185.631 44.5117C185.131 44.0107 184.454 43.7291 183.748 43.7285Z" fill="white"/>
<path d="M65.9943 71.6456C62.2376 71.6456 58.5652 70.5279 55.4416 68.4339C52.318 66.34 49.8835 63.3637 48.4458 59.8815C47.0082 56.3994 46.632 52.5677 47.3649 48.871C48.0978 45.1744 49.9069 41.7788 52.5633 39.1136C55.2197 36.4485 58.6042 34.6335 62.2887 33.8982C65.9732 33.1629 69.7924 33.5403 73.2631 34.9827C76.7339 36.425 79.7004 38.8676 81.7875 42.0014C83.8747 45.1353 84.9887 48.8197 84.9887 52.5888C84.9819 57.6409 82.9785 62.4841 79.4179 66.0565C75.8572 69.6289 71.0299 71.6388 65.9943 71.6456Z" fill="#325698"/>
<path d="M64.8557 51.1518L68.6861 42.3059H63.6387L60 53.3353H65.3366L61.234 63.397L72 51.1518H64.8557Z" fill="#58E5AA"/>
<path d="M91.9983 166.328C97.3778 157.957 85.4708 140.648 65.4032 127.667C45.3356 114.687 24.7066 110.951 19.327 119.323C13.9475 127.695 25.8545 145.004 45.9221 157.984C65.9897 170.964 86.6187 174.7 91.9983 166.328Z" fill="#88BFB1"/>
<path d="M91.9922 166.698C91.9241 166.699 91.8574 166.679 91.8001 166.643L22.8656 122.041C22.7864 121.99 22.7306 121.909 22.7106 121.817C22.6906 121.725 22.708 121.628 22.7589 121.549C22.8098 121.469 22.8902 121.413 22.9822 121.393C23.0743 121.373 23.1705 121.391 23.2498 121.442L92.1843 166.041C92.2487 166.083 92.2978 166.145 92.3244 166.217C92.351 166.289 92.3535 166.368 92.3317 166.442C92.3098 166.516 92.2648 166.581 92.2032 166.627C92.1417 166.673 92.0669 166.698 91.9901 166.698H91.9922Z" fill="#C5E0D6"/>
<path d="M41.0489 153.301C40.9649 153.3 40.884 153.269 40.8204 153.214C40.7568 153.159 40.7147 153.083 40.7014 153C40.6881 152.916 40.7046 152.831 40.7479 152.759C40.7911 152.687 40.8585 152.632 40.938 152.605L60.9247 145.978C60.9698 145.96 61.0179 145.953 61.0661 145.955C61.1143 145.957 61.1616 145.969 61.205 145.99C61.2485 146.011 61.2872 146.041 61.3188 146.077C61.3503 146.114 61.3741 146.156 61.3887 146.203C61.4033 146.249 61.4083 146.297 61.4034 146.346C61.3986 146.394 61.384 146.44 61.3605 146.483C61.337 146.525 61.3052 146.562 61.267 146.591C61.2287 146.621 61.1849 146.642 61.1381 146.654L41.1535 153.292C41.1191 153.299 41.084 153.302 41.0489 153.301Z" fill="#C5E0D6"/>
<path d="M32.3372 142.822C32.2513 142.82 32.1688 142.788 32.1048 142.731C32.0407 142.673 31.9994 142.595 31.9885 142.509C31.9776 142.424 31.9978 142.338 32.0454 142.266C32.093 142.194 32.1648 142.142 32.2475 142.119L48.3543 137.826C48.4005 137.81 48.4494 137.804 48.498 137.808C48.5466 137.813 48.5938 137.827 48.6368 137.85C48.6798 137.873 48.7176 137.904 48.7479 137.943C48.7782 137.981 48.8003 138.025 48.8129 138.073C48.8255 138.12 48.8283 138.169 48.8211 138.218C48.8139 138.266 48.7969 138.312 48.7711 138.354C48.7453 138.395 48.7113 138.431 48.6712 138.459C48.631 138.487 48.5857 138.506 48.5378 138.516L32.4289 142.798C32.3996 142.81 32.3687 142.818 32.3372 142.822Z" fill="#C5E0D6"/>
<path d="M24.9785 132.053C24.8909 132.054 24.8061 132.023 24.7404 131.965C24.6747 131.907 24.6327 131.826 24.6227 131.739C24.6126 131.652 24.6351 131.564 24.6858 131.492C24.7365 131.42 24.8119 131.37 24.8974 131.351L34.7296 128.996C34.7764 128.981 34.8257 128.976 34.8746 128.981C34.9234 128.986 34.9707 129.001 35.0134 129.025C35.0562 129.049 35.0935 129.082 35.123 129.121C35.1526 129.161 35.1737 129.206 35.185 129.254C35.1964 129.302 35.1977 129.351 35.189 129.4C35.1803 129.448 35.1617 129.494 35.1344 129.535C35.107 129.576 35.0716 129.611 35.0302 129.638C34.9888 129.664 34.9424 129.682 34.8939 129.69L25.0617 132.045C25.0344 132.051 25.0064 132.054 24.9785 132.053Z" fill="#C5E0D6"/>
<path d="M47.1229 137.672C47.0391 137.671 46.9582 137.641 46.8942 137.587C46.8303 137.532 46.7873 137.457 46.7729 137.374L44.0283 120.876C44.0127 120.783 44.0347 120.688 44.0893 120.611C44.1439 120.534 44.2268 120.482 44.3196 120.466C44.4124 120.451 44.5076 120.473 44.5843 120.527C44.6609 120.582 44.7127 120.665 44.7283 120.759L47.4772 137.246C47.492 137.339 47.4697 137.435 47.415 137.512C47.3602 137.588 47.2776 137.641 47.1848 137.657L47.1229 137.672Z" fill="#C5E0D6"/>
<path d="M33.4939 128.852C33.4113 128.852 33.3314 128.823 33.2676 128.77C33.2038 128.718 33.1601 128.645 33.1439 128.563L31.2231 118.609C31.2105 118.561 31.2076 118.512 31.2148 118.463C31.222 118.415 31.2391 118.368 31.2649 118.327C31.2908 118.285 31.3249 118.249 31.3652 118.222C31.4054 118.194 31.4509 118.175 31.4989 118.165C31.5469 118.156 31.5962 118.156 31.644 118.167C31.6917 118.177 31.7368 118.198 31.7764 118.226C31.8159 118.255 31.8492 118.292 31.8741 118.334C31.899 118.376 31.915 118.423 31.921 118.472L33.8418 128.426C33.8521 128.473 33.853 128.521 33.8444 128.568C33.8358 128.615 33.818 128.66 33.792 128.699C33.7659 128.739 33.7322 128.774 33.6927 128.8C33.6532 128.827 33.6089 128.845 33.5622 128.854L33.4939 128.852Z" fill="#C5E0D6"/>
<path d="M89.9925 171.114C99.9821 165.865 97.1225 140.617 83.6054 114.72C70.0882 88.8232 51.0323 72.0845 41.0427 77.333C31.0531 82.5815 33.9127 107.83 47.4298 133.727C60.9469 159.623 80.0029 176.362 89.9925 171.114Z" fill="#C5E0D6"/>
<path d="M89.986 171.48C89.9209 171.479 89.8571 171.461 89.8014 171.427C89.7458 171.393 89.7004 171.345 89.6702 171.287L44.8137 85.3322C44.7771 85.2493 44.7733 85.1555 44.8031 85.0699C44.8328 84.9843 44.8938 84.9132 44.9738 84.8711C45.0538 84.8289 45.1468 84.8188 45.234 84.8428C45.3211 84.8668 45.3959 84.9231 45.4432 85.0003L90.2998 170.957C90.3285 171.011 90.3428 171.072 90.3412 171.134C90.3396 171.195 90.3221 171.255 90.2905 171.307C90.2589 171.36 90.2142 171.404 90.1609 171.434C90.1075 171.464 90.0473 171.48 89.986 171.48Z" fill="white"/>
<path d="M55.6597 105.706C55.6391 105.708 55.6183 105.708 55.5978 105.706L42.7926 103.498C42.7025 103.479 42.6233 103.426 42.5716 103.349C42.5199 103.273 42.4996 103.179 42.5151 103.088C42.5305 102.997 42.5805 102.916 42.6545 102.861C42.7285 102.806 42.8208 102.782 42.9121 102.794L55.7173 105.004C55.8038 105.02 55.8812 105.068 55.9344 105.139C55.9876 105.209 56.013 105.297 56.0055 105.385C55.9981 105.473 55.9584 105.555 55.8942 105.616C55.8299 105.676 55.7456 105.71 55.6575 105.712L55.6597 105.706Z" fill="white"/>
<path d="M70.8829 134.876H70.8444L49.2229 132.554C49.1292 132.544 49.0434 132.497 48.9844 132.423C48.9254 132.35 48.8979 132.256 48.9081 132.162C48.9183 132.068 48.9653 131.981 49.0387 131.922C49.1122 131.863 49.2061 131.835 49.2997 131.846L70.9213 134.165C70.9678 134.167 71.0134 134.179 71.0554 134.199C71.0974 134.219 71.135 134.248 71.1662 134.282C71.1973 134.317 71.2212 134.358 71.2367 134.402C71.2522 134.446 71.2589 134.493 71.2563 134.539C71.2538 134.586 71.2422 134.632 71.222 134.674C71.2019 134.716 71.1737 134.754 71.139 134.785C71.1043 134.816 71.0638 134.84 71.0199 134.856C70.9759 134.871 70.9294 134.878 70.8829 134.876Z" fill="white"/>
<path d="M62.9565 119.688H62.9159L44.931 117.39C44.84 117.375 44.7584 117.325 44.7034 117.251C44.6485 117.176 44.6244 117.083 44.6363 116.992C44.6482 116.9 44.6951 116.816 44.7672 116.758C44.8393 116.701 44.9309 116.673 45.0228 116.682L63.0055 118.981C63.0962 118.991 63.1796 119.036 63.2383 119.106C63.297 119.176 63.3266 119.266 63.3208 119.357C63.3151 119.449 63.2744 119.534 63.2073 119.596C63.1402 119.658 63.0519 119.692 62.9607 119.69L62.9565 119.688Z" fill="white"/>
<path d="M54.4005 103.365C54.3487 103.366 54.2975 103.354 54.2511 103.331C54.2087 103.312 54.1705 103.284 54.1389 103.249C54.1072 103.215 54.0827 103.175 54.0666 103.131C54.0505 103.087 54.0433 103.04 54.0453 102.993C54.0473 102.946 54.0585 102.9 54.0782 102.858L59.5567 91.0471C59.603 90.9733 59.6747 90.919 59.7582 90.8945C59.8416 90.87 59.9311 90.877 60.0098 90.9141C60.0885 90.9512 60.151 91.0159 60.1855 91.096C60.2199 91.1761 60.224 91.2661 60.1969 91.349L54.7163 103.158C54.6886 103.219 54.6442 103.271 54.5883 103.307C54.5324 103.344 54.4673 103.364 54.4005 103.365Z" fill="white"/>
<path d="M69.6237 132.535C69.5629 132.534 69.5034 132.517 69.4509 132.486C69.3984 132.456 69.3547 132.412 69.3241 132.359C69.2934 132.306 69.2768 132.247 69.2758 132.186C69.2749 132.125 69.2895 132.064 69.3185 132.011L79.7355 112.86C79.7824 112.779 79.8585 112.721 79.9478 112.696C80.037 112.671 80.1324 112.682 80.2137 112.727C80.295 112.771 80.3558 112.846 80.3833 112.935C80.4107 113.023 80.4027 113.119 80.3608 113.202L69.9374 132.349C69.9067 132.405 69.8613 132.453 69.8061 132.485C69.7509 132.518 69.6879 132.535 69.6237 132.535Z" fill="white"/>
<path d="M61.6973 117.35C61.636 117.35 61.5758 117.334 61.5224 117.304C61.4691 117.274 61.4244 117.23 61.3928 117.178C61.3612 117.125 61.3438 117.065 61.3421 117.004C61.3405 116.942 61.3548 116.882 61.3836 116.827L69.7453 100.689C69.7886 100.605 69.8633 100.542 69.953 100.514C70.0426 100.485 70.1399 100.494 70.2234 100.537C70.3069 100.58 70.3698 100.655 70.3982 100.745C70.4266 100.835 70.4182 100.933 70.3749 101.017L62.0131 117.157C61.9833 117.215 61.938 117.264 61.8823 117.298C61.8265 117.332 61.7625 117.35 61.6973 117.35Z" fill="white"/>
<path d="M103.297 134.032H136.535V151.162C136.535 151.999 136.204 152.801 135.614 153.393C135.024 153.985 134.223 154.318 133.389 154.318H106.441C105.606 154.318 104.806 153.985 104.216 153.393C103.626 152.801 103.295 151.999 103.295 151.162V134.032H103.297Z" fill="#8FA7B8"/>
<path d="M124.167 163.024H115.667C114.774 163.024 113.896 162.801 113.111 162.374C112.326 161.947 111.661 161.33 111.174 160.579L107.119 154.316H132.715L128.66 160.579C128.173 161.329 127.507 161.946 126.723 162.373C125.938 162.8 125.06 163.024 124.167 163.024Z" fill="#3B4F66"/>
<path d="M136.546 150.853H103.297C103.071 150.853 102.853 150.763 102.693 150.602C102.533 150.442 102.443 150.224 102.443 149.997C102.443 149.77 102.533 149.552 102.693 149.391C102.853 149.23 103.071 149.14 103.297 149.14H136.546C136.772 149.14 136.989 149.23 137.149 149.391C137.309 149.552 137.399 149.77 137.399 149.997C137.399 150.224 137.309 150.442 137.149 150.602C136.989 150.763 136.772 150.853 136.546 150.853Z" fill="white"/>
<path d="M136.546 146.089H103.297C103.071 146.089 102.853 145.999 102.693 145.838C102.533 145.678 102.443 145.46 102.443 145.233C102.443 145.005 102.533 144.788 102.693 144.627C102.853 144.466 103.071 144.376 103.297 144.376H136.546C136.772 144.376 136.989 144.466 137.149 144.627C137.309 144.788 137.399 145.005 137.399 145.233C137.399 145.46 137.309 145.678 137.149 145.838C136.989 145.999 136.772 146.089 136.546 146.089Z" fill="white"/>
<path d="M136.546 141.325H103.297C103.071 141.325 102.853 141.235 102.693 141.074C102.533 140.913 102.443 140.696 102.443 140.468C102.443 140.241 102.533 140.023 102.693 139.863C102.853 139.702 103.071 139.612 103.297 139.612H136.546C136.772 139.612 136.989 139.702 137.149 139.863C137.309 140.023 137.399 140.241 137.399 140.468C137.399 140.696 137.309 140.913 137.149 141.074C136.989 141.235 136.772 141.325 136.546 141.325Z" fill="white"/>
<path d="M121.132 65.2884C124.035 70.333 117.195 72.8083 109.352 77.3519C101.509 81.8956 95.6331 86.7861 92.7285 81.7393C89.8238 76.6924 93.326 67.0185 101.169 62.4684C109.012 57.9183 118.228 60.2437 121.132 65.2884Z" fill="white"/>
<path d="M141.907 92.2911C146.448 81.5187 145.274 57.4344 121.711 52.6317C139.122 53.5459 153.011 68.0184 153.297 85.5099C153.425 92.1188 151.589 98.6163 148.023 104.175C142.954 112.088 140.259 121.297 140.261 130.704C140.262 131.141 140.176 131.574 140.01 131.978C139.843 132.381 139.599 132.748 139.291 133.057C138.983 133.366 138.618 133.611 138.216 133.779C137.813 133.946 137.382 134.032 136.947 134.032H102.904C102.02 134.032 101.171 133.679 100.546 133.052C99.92 132.424 99.5686 131.573 99.5686 130.685C99.5738 126.468 99.0452 122.267 97.9957 118.183C100.303 126.73 104.26 131.124 112.474 131.124C119.562 131.124 124.656 127.056 127.684 119.54C131.404 110.312 137.293 103.231 141.907 92.2911Z" fill="#CDE0FE"/>
<path d="M119.915 108.048C122.697 106.166 121.296 99.1987 116.785 92.4862C112.274 85.7737 106.361 81.8579 103.579 83.7401C100.797 85.6223 102.198 92.5896 106.709 99.3021C111.22 106.015 117.133 109.93 119.915 108.048Z" fill="#88BFB1"/>
<path d="M119.916 134.888C119.69 134.888 119.472 134.798 119.312 134.638C119.152 134.477 119.062 134.259 119.062 134.032V108.048C119.062 107.821 119.152 107.603 119.312 107.443C119.472 107.282 119.69 107.192 119.916 107.192C120.142 107.192 120.36 107.282 120.52 107.443C120.68 107.603 120.77 107.821 120.77 108.048V134.032C120.77 134.259 120.68 134.477 120.52 134.638C120.36 134.798 120.142 134.888 119.916 134.888Z" fill="#509993"/>
<path d="M137.038 96.7082C142.887 88.0053 144.704 78.9721 141.097 76.5319C137.49 74.0918 129.824 79.1688 123.975 87.8717C118.127 96.5746 116.31 105.608 119.917 108.048C123.524 110.488 131.189 105.411 137.038 96.7082Z" fill="#509993"/>
<path d="M136.947 134.888H102.904C101.794 134.887 100.729 134.444 99.9432 133.656C99.1578 132.868 98.716 131.8 98.7149 130.685C98.7149 121.29 96.1304 112.363 91.2452 104.873C87.7799 99.5581 85.8511 93.3834 85.6731 87.0349C85.4951 80.6864 87.0748 74.4127 90.2369 68.9108C93.399 63.409 98.0195 58.8943 103.585 55.8686C109.151 52.8428 115.443 51.4244 121.764 51.7709C139.634 52.7087 153.867 67.5195 154.168 85.4907C154.294 92.2689 152.41 98.9319 148.753 104.633C143.761 112.406 141.109 121.458 141.115 130.704C141.114 131.813 140.674 132.877 139.893 133.661C139.112 134.445 138.052 134.887 136.947 134.888ZM119.899 53.4389C114.037 53.442 108.285 55.0337 103.251 58.0456C98.2161 61.0576 94.0859 65.378 91.2966 70.5504C88.5072 75.7228 87.1622 81.5552 87.4038 87.4311C87.6453 93.3071 89.4644 99.0085 92.6687 103.933C97.7417 111.706 100.422 120.956 100.422 130.685C100.423 131.345 100.685 131.978 101.15 132.445C101.616 132.912 102.246 133.174 102.904 133.175H136.947C137.6 133.174 138.225 132.914 138.686 132.45C139.148 131.987 139.407 131.359 139.408 130.704C139.399 121.132 142.141 111.76 147.304 103.71C150.779 98.2937 152.569 91.9629 152.448 85.5228C152.162 68.4509 138.639 54.3768 121.664 53.486C121.075 53.456 120.484 53.4389 119.899 53.4389Z" fill="#5F8199"/>
<path d="M52.8916 151.656H46.5402V176.379H52.8916V151.656Z" fill="#325698"/>
<path d="M74.3445 134.955H44.4573L18.7381 168.36L19.6728 171.122H49.5601L75.2793 137.719L74.3445 134.955Z" fill="#5F8199"/>
<path d="M74.3445 134.955H44.4573L18.7381 168.358H48.6253L74.3445 134.955Z" fill="white"/>
<path d="M73.2796 136.34L73.9326 135.484L74.3445 134.948H44.4658L43.3987 136.334L32.1408 150.958L31.2615 152.099L18.7381 168.36H48.6168L60.9503 152.352L61.4582 151.69L73.2753 136.342L73.2796 136.34ZM44.771 136.34H57.6444L46.3844 150.965H33.511L44.771 136.34ZM45.3173 152.352L34.0573 166.977H21.1839L32.4439 152.352H45.3173ZM48.3052 166.977H35.4381L46.696 152.352H59.5695L48.3052 166.977ZM60.6323 150.967H47.7631L59.021 136.342H71.8945L60.6323 150.967Z" fill="#8FA7B8"/>
<path d="M42.1779 146.143H43.4947C44.8975 146.143 46.2818 145.822 47.5423 145.204C48.8027 144.586 49.9059 143.688 50.7681 142.577L52.1041 140.89C52.2708 140.675 52.3739 140.416 52.4018 140.145C52.4297 139.874 52.3813 139.6 52.262 139.355C52.1427 139.109 51.9573 138.903 51.7268 138.758C51.4963 138.613 51.23 138.536 50.958 138.535H46.9095C46.3228 138.535 45.744 138.671 45.2176 138.931C44.6911 139.19 44.231 139.568 43.8725 140.034L40.9849 143.719C40.8111 143.941 40.7034 144.208 40.6744 144.489C40.6453 144.77 40.6961 145.054 40.8208 145.307C40.9456 145.561 41.1392 145.774 41.3793 145.922C41.6194 146.069 41.8963 146.146 42.1779 146.143Z" fill="#F3F3F3"/>
<path d="M57.2688 143.939H57.7298C58.9416 143.94 60.1385 143.671 61.2347 143.153C62.3308 142.634 63.2993 141.879 64.0705 140.942L64.2562 140.713C64.4157 140.519 64.517 140.283 64.5481 140.033C64.5793 139.784 64.539 139.531 64.432 139.303C64.3251 139.076 64.1558 138.884 63.944 138.749C63.7323 138.615 63.4867 138.543 63.236 138.543H61.0442C60.451 138.544 59.8652 138.675 59.3287 138.929C58.7923 139.183 58.3184 139.553 57.9411 140.012L56.3383 141.965C56.1944 142.142 56.1035 142.357 56.0759 142.583C56.0484 142.81 56.0855 143.04 56.1828 143.247C56.2802 143.453 56.4339 143.628 56.6261 143.75C56.8182 143.873 57.0411 143.939 57.2688 143.939Z" fill="#F3F3F3"/>
<path d="M89.3607 151.656H83.0093V176.379H89.3607V151.656Z" fill="#325698"/>
<path d="M110.814 134.955H80.9264L55.2072 168.36L56.142 171.122H86.0293L111.748 137.719L110.814 134.955Z" fill="#5F8199"/>
<path d="M110.814 134.955H80.9264L55.2072 168.358H85.0945L110.814 134.955Z" fill="white"/>
<path d="M109.749 136.34L110.389 135.497L110.805 134.955H80.9264L79.8593 136.34L68.6014 150.965L67.7093 152.125L55.2093 168.36H85.0881L97.4194 152.352L97.9146 151.71L109.744 136.344L109.749 136.34ZM81.2401 136.34H94.1136L82.8535 150.965H69.9801L81.2401 136.34ZM81.7865 152.352L70.5264 166.977H57.653L68.913 152.352H81.7865ZM84.7743 166.977H71.9073L83.1673 152.352H96.0407L84.7743 166.977ZM97.1014 150.967H84.2344L95.4923 136.342H108.374L97.1014 150.967Z" fill="#8FA7B8"/>
<path d="M193.917 111.47C194.062 113.211 194.828 113.975 194.267 113.975C193.706 113.975 191.766 109.956 190.993 108.243C191.633 107.783 192.688 107.28 193.277 107.569C194.013 107.933 193.761 109.599 193.917 111.47Z" fill="#5F8199"/>
<path d="M122.426 74.5277C122.906 75.9601 124.56 77.3926 125.371 77.8958C126.577 78.6431 128.572 76.7074 127.879 75.5019C127.483 74.8232 127.173 74.0974 126.957 73.3414C126.78 72.6048 127.042 70.7955 126.92 70.6349C126.831 70.515 126.415 70.5471 126.237 70.8212C126.097 71.0353 126.024 71.5107 125.962 71.6884C125.855 71.9903 125.702 71.8062 125.633 71.6713C125.32 70.9893 125.124 70.2587 125.055 69.5108C124.976 68.8406 124.468 68.8299 124.009 69.0611C121.82 70.1596 121.933 73.0545 122.426 74.5277Z" fill="#EB987A"/>
<path d="M195.62 165.246C195.898 166.071 195.718 167.433 195.686 168.52C195.654 169.552 195.774 170.233 195.554 171.056C195.157 172.533 192.139 173.612 191.286 172.599C190.645 171.833 192.545 168.396 191.546 166.591C191.333 166.193 189.459 163.075 188.481 161.767C187.246 160.114 190.364 158.303 191.38 159.893C192.37 161.444 192.57 162.388 193.405 163.14C194.148 163.812 195.065 163.587 195.62 165.246Z" fill="#3B4F66"/>
<path d="M180.209 129.715C180.467 131.959 180.945 137.222 182.497 140.697C183.895 143.828 191.247 157.93 193.657 162.643C192.481 163.471 189.589 165.386 188.377 166.137C187.169 164.683 177.695 151.26 175.145 146.438C172.438 141.342 169.207 132.721 168.251 129.737C167.427 127.167 163.895 119.142 164.06 117.564C166.047 115.725 174.304 113.311 176.297 113.311C180.015 118.033 179.656 124.883 180.209 129.715Z" fill="#5F8199"/>
<path d="M180.169 154.534C178.077 151.38 176.126 148.307 175.138 146.444C172.432 141.348 169.201 132.741 168.245 129.743C167.666 127.936 165.75 123.435 164.719 120.371C165.756 118.091 171.034 122.904 171.674 126.131C172.436 129.985 173.821 137.115 175.414 141.62C176.858 145.695 181.552 153.718 180.169 154.534Z" fill="#3B4F66"/>
<path d="M197.742 115.14C197.232 113.808 195.56 112.556 194.754 112.142C193.546 111.513 191.616 113.5 192.336 114.6C192.746 115.222 193.072 115.896 193.302 116.605C193.495 117.294 193.283 119.037 193.405 119.174C193.499 119.283 193.909 119.221 194.077 118.949C194.212 118.735 194.269 118.277 194.327 118.103C194.425 117.806 194.583 117.973 194.651 118.103C194.98 118.734 195.192 119.419 195.279 120.125C195.373 120.767 195.874 120.733 196.322 120.478C198.437 119.264 198.269 116.513 197.742 115.14Z" fill="#EB987A"/>
<path d="M161.887 176.152H155.327C153.303 176.152 154.035 175.212 155.143 174.732C156.118 174.304 157.491 174.062 158.402 173.205C159.087 172.563 159.469 170.432 159.578 169.351C159.655 168.593 162.333 168.816 162.246 169.679C162.113 171.002 162.828 174 162.709 175.207C162.632 175.845 162.491 176.152 161.887 176.152Z" fill="#3B4F66"/>
<path d="M175.723 113.313C178.924 122.082 173.339 125.666 171.82 126.756H168.223C167.402 133.97 165.822 142.652 165.737 145.916C165.603 150.962 165.637 166.587 165.423 172.252H158.686C157.922 167.685 155.41 154.309 155.758 144.472C156.106 134.636 155.395 123.116 155.715 117.617C157.796 117.236 170.949 113.547 175.723 113.313Z" fill="#5F8199"/>
<path d="M164.687 82.8163C164.433 85.4478 160.551 87.0452 158.483 87.0452C156.415 87.0452 156.515 84.4115 157.021 81.8185C157.595 78.8679 159.697 77.6453 161.755 77.8829C164.301 78.1741 164.948 80.1184 164.687 82.8163Z" fill="#EB987A"/>
<path d="M164.694 88.3513C166.23 89.3983 158.078 92.107 158.129 90.576C158.167 89.1992 158.312 87.8117 158.475 85.8332C158.643 83.8034 164.548 81.1547 164.482 82.9255C164.41 84.889 163.481 87.5248 164.694 88.3513Z" fill="#EB987A"/>
<path d="M165.172 81.857C165.172 84.2294 165.172 86.3107 162.911 86.3107C162.162 86.3107 161.43 86.0966 160.925 85.5763C160.382 85.0153 160.841 83.4351 160.875 82.9897C160.957 81.9469 159.808 82.0625 159.352 83.2295C158.831 83.1396 158.953 82.191 158.95 81.7692C158.95 79.6665 157.847 79.3689 157.706 78.5574C157.478 77.2427 159.766 76.6496 161.23 76.7352C164.29 76.9172 165.172 79.4824 165.172 81.857Z" fill="#2D374D"/>
<path d="M194.929 109.265C193.672 107.402 189.239 101.342 186.802 98.5863C184.499 95.9847 183.387 94.6443 179.219 92.4368C177.042 91.2826 173.134 90.1928 169.419 89.4112C167.114 88.9252 165.423 88.3877 163.932 88.4327C161.607 88.5012 160.856 88.7218 158.696 89.5697C156.859 90.2913 152.934 90.1821 150.452 89.5697C146.034 88.4712 141.851 87.5291 139.141 85.3879C136.366 83.2081 131.637 78.0585 129.808 76.2749C128.822 75.3135 128.062 75.0887 126.82 75.9323C125.454 76.8616 124.539 79.1077 125.892 80.7843C127.302 82.5315 132.237 88.1929 134.9 90.7238C137.418 93.1177 139.495 94.1861 143.83 96.0254C145.503 96.7363 147.078 97.4386 148.582 97.9718C150.219 98.5542 151.201 100.079 151.436 101.805C152.29 108.149 152.277 118.934 155.166 120.403C161.381 123.544 175.919 120.433 179.048 116.384C178.331 111.438 176.643 105.153 175.132 99.9824C177.731 100.715 179.994 101.522 181.643 103.066C184.217 105.477 188.983 111.487 190.654 113.421C191.555 114.466 192.291 114.755 193.597 114.02C195.023 113.209 196.134 111.05 194.929 109.265Z" fill="#325698"/>
<path d="M178.316 98.4471C176.707 97.6506 175.224 97.1517 174.225 97.1068C174.522 97.9868 174.827 98.9546 175.125 99.9824C177.725 100.713 179.987 101.52 181.637 103.064C182.523 103.892 183.667 105.147 184.857 106.515C184.853 105.078 181.874 100.203 178.316 98.4471Z" fill="#274781"/>
</g>
</svg>
