<svg width="148" height="209" viewBox="0 0 148 209" fill="none" xmlns="http://www.w3.org/2000/svg">
<path d="M147.591 93.4182C147.591 93.5887 147.591 93.7526 147.591 93.9231C147.572 99.0837 147.226 103.877 146.586 108.31C144.594 122.132 139.729 132.565 132.741 140.276C132.48 140.565 132.212 140.853 131.945 141.135C129.208 144.008 126.172 146.486 122.867 148.611C121.352 149.588 119.779 150.486 118.153 151.312C117.46 151.666 116.755 152.007 116.043 152.335C115.24 152.702 114.424 153.057 113.594 153.398C111.72 154.165 109.787 154.847 107.809 155.45C107.378 155.581 106.947 155.712 106.509 155.837C106.391 155.87 106.274 155.902 106.156 155.935C102.826 156.873 99.3583 157.594 95.7797 158.138C95.1593 158.23 94.5324 158.322 93.899 158.401C93.1219 158.506 92.3447 158.597 91.5546 158.683C91.0322 158.742 90.5032 158.794 89.9742 158.84C89.7261 158.866 89.4779 158.886 89.2233 158.906C88.9098 158.932 88.5898 158.958 88.2764 158.984C87.7539 159.024 87.225 159.063 86.696 159.102C84.7043 159.233 82.6799 159.319 80.6424 159.358C79.689 159.378 78.729 159.384 77.7625 159.384C74.6933 159.384 71.6698 159.292 68.705 159.089C67.8756 159.03 67.0528 158.971 66.2365 158.899C63.8726 158.689 61.5543 158.414 59.2752 158.053C58.8769 157.994 58.4785 157.929 58.0802 157.856C55.2003 157.371 52.3988 156.755 49.6887 156.007C48.9834 155.811 48.2847 155.607 47.5925 155.397C46.7174 155.129 45.8554 154.847 45.0065 154.545C44.8824 154.506 44.7648 154.46 44.6408 154.414C41.5258 153.299 38.548 151.981 35.7399 150.427C18.8591 141.116 7.94037 123.569 7.94037 93.4051C7.94037 42.3568 39.201 0.980469 77.7625 0.980469C116.324 0.980469 147.591 42.3699 147.591 93.4182Z" fill="#D3E680"/>
<path d="M59.5039 125.26C92.3058 125.26 118.897 98.5593 118.897 65.622C118.897 32.6846 92.3058 5.98364 59.5039 5.98364C26.7019 5.98364 0.110596 32.6846 0.110596 65.622C0.110596 98.5593 26.7019 125.26 59.5039 125.26Z" fill="#86DFB5"/>
<path d="M117.402 65.6219C117.402 73.4709 115.873 81.0839 112.85 88.251C109.931 95.1755 105.758 101.392 100.442 106.729C95.1267 112.067 88.9294 116.264 82.0399 119.188C74.9023 122.218 67.3205 123.759 59.5037 123.759C51.687 123.759 44.1053 122.224 36.9676 119.188C30.0716 116.264 23.8809 112.067 18.5652 106.729C13.2495 101.392 9.07009 95.1755 6.15757 88.251C6.08574 88.074 6.00738 87.8969 5.93555 87.7199C9.74925 94.2837 16.3057 99.2935 24.56 102.428C25.0237 103.975 26.4212 105.418 25.9118 106.946C25.7616 107.405 25.4481 107.798 25.2979 108.257C25.2196 108.506 25.1869 108.769 25.1804 109.031C25.1673 109.28 25.1804 109.529 25.1673 109.779C25.1477 110.519 25.0041 111.26 24.7559 111.956C26.1273 112.998 27.5509 113.982 29.0137 114.893C29.1443 114.808 29.2684 114.703 29.3859 114.592C29.9345 114.093 30.4765 113.595 31.025 113.09C31.4691 112.683 31.9132 112.27 32.3637 111.864C34.2379 110.146 36.1513 108.375 37.2615 106.08C37.3399 105.923 37.4117 105.765 37.477 105.602C47.6186 106.939 59.0793 106.028 70.6575 102.507C73.6615 101.595 76.5609 100.539 79.3429 99.359C79.8 102.152 80.4008 104.92 81.1452 107.647C81.3803 108.513 81.746 109.497 82.595 109.772C82.7452 109.215 83.3394 108.867 83.9141 108.828C84.4888 108.788 85.0504 108.985 85.5924 109.182C86.5066 109.51 87.4274 109.844 88.3416 110.172C91.1432 109.11 93.7618 106.815 94.9112 104.041C95.1528 103.464 95.3422 102.841 95.2507 102.218C95.1071 101.274 94.3561 100.572 93.7553 99.8377C93.1545 99.1033 92.6712 98.0541 93.1414 97.2279C93.3439 96.8673 93.703 96.6181 94.0557 96.4017C95.1528 95.7394 96.4196 95.2411 97.138 94.1788C97.6147 93.4706 97.7845 92.605 97.889 91.7592C98.0392 90.5723 98.1045 89.3789 98.0718 88.1854C110.003 78.461 116.951 66.094 116.311 54.291C117.036 58.0024 117.402 61.7793 117.402 65.6219Z" fill="#0DA58B"/>
<path d="M61.1235 23.485C61.1235 23.485 61.2998 23.3276 61.2998 23.0981C61.2998 22.8686 61.117 23.0063 61.117 23.0063C60.4117 23.2489 59.713 23.485 59.0077 23.7276C58.6812 23.8391 58.2763 24.1473 58.4722 24.4358C58.6812 24.7505 59.282 24.4489 59.4975 24.7571C59.7325 25.085 59.1513 25.5243 59.3081 25.8981C59.4256 26.18 59.8305 26.1472 60.1178 26.0489C61.0125 25.7472 61.8418 25.2686 62.5536 24.6456C62.7561 24.4751 62.9585 24.2522 62.9324 23.9899C62.8997 23.6424 62.4949 23.4653 62.1488 23.4653C61.8026 23.4653 61.4565 23.5702 61.1235 23.485Z" fill="#0DA58B"/>
<path d="M31.012 16.5474C31.5344 16.5343 32.0503 16.3769 32.4944 16.1015C32.9711 15.7998 33.3955 15.354 33.9571 15.2949C34.362 15.2556 34.7604 15.4392 35.1718 15.4523C36.0534 15.4851 36.7586 14.7638 37.5292 14.331C38.6198 13.7212 40.0434 13.5835 40.7879 12.5802C40.8597 12.4819 40.925 12.3704 40.925 12.2458C40.9119 11.8983 40.4287 11.8261 40.0891 11.8852C38.3847 12.1737 37.0199 13.013 35.5506 13.8523C34.1269 14.6654 32.5597 15.0326 31.0707 15.6949C30.7638 15.8326 30.4047 16.1998 30.6463 16.4425C30.7246 16.5343 30.8748 16.5474 31.012 16.5474Z" fill="#0DA58B"/>
<path d="M65.9232 34.37C66.2889 34.2979 66.5893 34.0356 66.7983 33.7274C67.0726 33.3208 67.1836 32.7504 66.9158 32.3373C66.6481 31.9242 65.9232 31.8586 65.7012 32.2914L65.5575 32.4684C65.2963 33.0586 65.133 33.3208 64.9828 33.9503C65.1461 34.2913 65.564 34.4487 65.9232 34.37Z" fill="#0DA58B"/>
<path d="M67.8495 32.0225C67.9866 32.3897 68.0846 32.7897 68.0193 33.1831C67.9017 33.9175 67.2683 34.4552 67.0267 35.1568C66.8765 35.5962 66.8895 36.0945 67.0658 36.5273C67.105 36.6191 67.1573 36.7175 67.2487 36.7634C67.3728 36.8224 67.5099 36.7634 67.634 36.7109C68.4111 36.3437 69.1425 35.8781 69.8086 35.3273C70.3832 34.8486 70.9514 34.0814 70.6118 33.4192C70.3702 32.947 69.7106 32.6192 69.8412 32.1077C69.8869 31.9241 70.0437 31.7733 70.0698 31.5831C70.109 31.3667 69.9718 31.1569 69.8478 30.9799C69.4821 30.4618 68.8878 29.17 68.2152 29.0323C67.8429 28.9537 66.4324 30.0356 66.6022 30.1864C67.1507 30.6848 67.5817 31.3208 67.8495 32.0225Z" fill="#0DA58B"/>
<path d="M37.4706 105.608C37.4053 105.772 37.3334 105.929 37.2551 106.087C36.1514 108.382 34.2315 110.152 32.3573 111.87C31.9133 112.277 31.4692 112.683 31.0186 113.097C30.4766 113.595 29.9281 114.093 29.3795 114.598C29.262 114.703 29.1379 114.815 29.0073 114.9C27.5445 113.982 26.1209 112.998 24.7495 111.962C25.0042 111.267 25.1413 110.526 25.1609 109.785C25.1674 109.536 25.1609 109.287 25.174 109.038C25.187 108.775 25.2132 108.513 25.2915 108.264C25.4417 107.805 25.7552 107.411 25.9054 106.952C26.4147 105.425 25.0107 103.988 24.5536 102.434C28.511 103.929 32.8536 105.005 37.4706 105.608Z" fill="#0C9379"/>
<path d="M46.711 84.815C46.4367 86.1003 46.0253 87.3527 45.4899 88.5461C45.4833 88.5658 45.4703 88.5855 45.4637 88.6051C45.2286 89.1166 44.9805 89.615 44.8368 90.1592C44.5299 91.3264 44.7519 92.5592 44.7519 93.7657C44.7519 94.8673 44.556 95.9624 44.1903 96.9984C43.7005 98.3558 42.7667 99.7066 41.3627 100.034C40.4876 100.244 39.4232 100.08 38.842 100.769C38.5285 101.136 38.4632 101.648 38.3914 102.126C38.2151 103.32 37.9408 104.5 37.4706 105.608C32.8537 104.998 28.511 103.929 24.5536 102.428C24.5471 102.402 24.5406 102.375 24.534 102.349C24.1618 101.005 24.5406 99.582 24.5667 98.1853C24.5732 97.641 24.5275 97.0968 24.3643 96.5788C24.0116 95.4771 23.1757 94.6181 22.3529 93.805C20.8379 92.31 19.2837 90.8346 18.0886 89.0707C16.8936 87.3068 16.0773 85.2019 16.234 83.0774C16.3058 82.0676 16.5932 81.1102 16.9785 80.1791C17.8992 77.9561 19.3882 75.8709 19.9432 73.5103C19.5971 73.4841 19.2576 73.4644 18.9114 73.4382C18.7482 73.1497 18.7547 72.7693 18.931 72.4874C18.9441 72.4677 17.416 72.5595 16.763 72.5857C16.763 72.5857 15.372 73.2611 14.2227 71.189C13.5827 70.271 12.9035 69.3792 12.0154 68.7104C10.9706 67.9301 9.71022 67.5104 8.47599 67.0973C7.00014 66.599 5.49817 66.0678 4.17252 65.2613C3.65662 64.9465 3.16684 64.5924 2.71625 64.1859C2.42892 63.9236 2.16771 63.6482 1.91956 63.3531C2.47463 50.114 7.47032 38.029 15.4438 28.5537C15.4438 28.5537 15.4438 28.5537 15.4504 28.5537C15.47 28.534 15.4896 28.5078 15.5091 28.4881C15.7704 28.1865 16.0381 27.8914 16.2863 27.5832C17.9776 25.662 19.793 23.8587 21.7195 22.1801C21.9611 22.2653 22.2158 22.3833 22.4901 22.5342C22.9341 21.5112 23.6851 20.626 24.6255 20.0227C24.7822 19.9244 24.9455 19.8391 25.1283 19.7998C25.9315 19.6227 26.454 20.2522 26.7544 21.026C26.7674 21.0522 26.7805 21.085 26.787 21.1178C26.9111 21.4653 26.9894 21.8325 27.0352 22.1669C27.7404 20.908 28.733 19.7473 30.0587 19.1834C31.8937 18.4031 33.9965 18.8949 35.9295 19.3932C36.3931 19.5112 36.8829 19.649 37.2225 19.9768C37.5555 20.3047 37.7122 20.7702 38.0061 21.1375C38.5155 21.7735 39.4754 22.1538 39.4624 23.0128C39.4558 23.5833 38.9987 24.0489 38.4306 24.1276C37.3269 24.2784 36.5498 23.5243 35.825 22.8292C35.1132 22.1473 34.3687 21.4653 33.4545 21.1047C32.5402 20.744 31.417 20.7506 30.6595 21.3735C29.9999 21.9112 29.7257 22.7768 29.36 23.544C28.9943 24.3112 28.3739 25.098 27.5249 25.1308C26.7282 25.1636 26.0817 24.5341 25.5397 23.944L21.8893 27.0914L19.0159 29.5701C19.2902 30.4619 20.1718 30.8815 21.086 31.2684C22.0917 31.7012 23.1431 32.1012 23.4696 33.0717C23.6982 33.7405 23.5219 34.5798 24.0182 35.0782C24.7822 34.8749 24.6581 33.7602 24.9585 33.0258C25.3895 31.9766 26.7544 31.7537 27.8841 31.6881C27.8319 30.1865 28.1388 28.6718 28.7657 27.3144C29.1314 26.5144 29.6995 25.6948 30.7052 25.7472C31.1688 25.7669 31.5933 25.9833 31.9329 26.2915C32.6512 26.9603 32.9125 27.9111 33.1606 28.8291C33.7353 28.1209 34.9434 28.6783 35.3744 29.4848C35.8054 30.2914 35.8707 31.2815 36.4258 32.0028C36.9417 32.6651 37.8559 33.0979 37.9604 33.9307C38.0714 34.8028 37.1963 35.4716 36.3801 35.7864C33.7614 36.7765 30.5681 36.2454 28.3412 37.9503C30.1436 37.7863 31.9656 37.9372 33.7222 38.3765C32.9843 39.6486 31.6847 40.5797 30.2481 40.8748C29.4318 41.0387 28.5175 41.0322 27.8906 41.583C27.8384 41.6289 27.7927 41.6748 27.747 41.7207C27.4858 42.0027 27.3029 42.3568 27.0809 42.6781C26.5584 43.4321 25.7813 44.0026 24.9128 44.2715C24.521 44.3961 24.0965 44.4616 23.7504 44.6846C23.2084 45.0387 22.9668 45.701 22.7121 46.2977C21.7978 48.4419 20.2959 50.3304 18.4151 51.7009C18.1082 51.9238 17.7752 52.1599 17.6576 52.5205C17.5597 52.8418 17.6576 53.1828 17.7295 53.5107C17.7295 53.5238 17.736 53.5369 17.736 53.5435C17.9123 54.3697 16.9589 54.9598 16.2928 54.4418C16.0577 54.2582 15.7965 54.1074 15.5222 54.0025C14.3272 53.5303 12.9884 53.6549 11.7085 53.7926L11.7346 54.5336C9.9649 54.5074 7.95357 54.5729 6.77811 55.9041C5.4851 57.3663 5.84428 59.6745 6.68669 61.4384C7.05239 62.2056 7.54216 62.9794 8.29968 63.3597C9.05719 63.74 10.1477 63.563 10.5134 62.7892C10.7877 62.2122 10.7616 61.3007 11.3885 61.2089C11.8718 60.9269 12.4595 61.5236 12.453 62.081C12.453 62.6384 12.1264 63.1367 11.9501 63.6679C11.7738 64.199 11.8391 64.9137 12.3419 65.1433C12.6162 65.2678 12.9362 65.2023 13.2301 65.2613C14.0659 65.4187 14.4382 66.4219 14.4447 67.2744C14.4578 68.1268 14.2749 69.0252 14.6341 69.7989C14.7778 70.1071 14.9998 70.3825 15.1173 70.7038C15.4242 70.9333 15.9206 71.1104 16.7434 71.1038C17.7817 71.012 19.0616 71.1628 19.5514 71.0382C19.9824 69.6809 21.2819 68.6448 22.6925 68.5268C24.1096 68.4088 25.5593 69.2284 26.1993 70.5005C27.3878 69.9891 28.8571 69.5038 29.8889 70.2907C30.3395 70.6382 30.6073 71.1694 30.8619 71.6808C31.2276 72.4349 31.5999 73.1825 31.9721 73.9365C32.6708 74.8087 34.2185 74.3169 35.0348 75.0841C35.5768 75.589 35.5768 76.4349 35.8642 77.1168C36.3017 78.1594 37.3857 78.7561 38.3914 79.2742C40.8207 80.52 43.2434 81.7659 45.6662 83.0118C46.1168 83.2413 46.6131 83.5298 46.7437 84.0151C46.822 84.2708 46.7698 84.5527 46.711 84.815Z" fill="#0DA58B"/>
<path d="M97.8891 91.7657C97.778 92.6116 97.6148 93.4772 97.1381 94.1853C96.4197 95.2476 95.1529 95.746 94.0558 96.4083C93.7031 96.6247 93.344 96.8738 93.1415 97.2345C92.6713 98.0607 93.1546 99.1033 93.7554 99.8443C94.3562 100.579 95.1072 101.287 95.2508 102.225C95.3422 102.841 95.1529 103.47 94.9112 104.047C93.7619 106.821 91.1367 109.116 88.3417 110.179C87.4275 109.851 86.5067 109.516 85.5925 109.188C85.0505 108.992 84.4888 108.795 83.9142 108.834C83.3395 108.874 82.7453 109.221 82.5951 109.779C81.7461 109.503 81.3804 108.52 81.1453 107.654C80.4009 104.926 79.7935 102.159 79.343 99.3656C86.4284 96.3558 92.7497 92.5395 98.0785 88.192C98.098 89.3854 98.0393 90.5854 97.8891 91.7657Z" fill="#0C9379"/>
<path d="M114.574 49.3993C114.574 51.7074 114.254 54.0484 113.941 56.3565C113.901 56.6451 113.862 56.9336 113.823 57.2221C112.55 57.1041 111.642 58.9794 110.395 58.6713C110.042 58.586 109.755 58.3237 109.487 58.0745C108.867 57.5041 108.253 56.927 107.632 56.3565C107.352 56.0943 107.064 55.832 106.705 55.7008C106.111 55.4844 105.458 55.6811 104.831 55.6352C103.734 55.55 102.767 54.5992 102.656 53.5041C102.343 53.714 102.029 53.9238 101.716 54.1336C102.441 55.4516 103.257 56.7172 104.171 57.9172C104.354 58.1598 104.609 58.4221 104.909 58.3631C105.216 58.3041 105.366 57.9303 105.66 57.8254C105.817 57.7663 105.993 57.7991 106.15 57.845C107.704 58.2975 108.305 60.363 107.737 61.8843C107.169 63.4056 105.81 64.4744 104.465 65.3728C103.12 66.2777 101.677 67.1432 100.782 68.5006C99.5674 68.3826 98.516 67.3006 98.4442 66.0744C99.058 65.8908 98.9013 64.9728 98.6074 64.4023C96.8704 61.0122 94.8003 57.7926 92.4428 54.809C91.8486 54.7959 90.9996 55.0713 91.1629 55.6484C91.2086 55.8123 91.3327 55.9369 91.4502 56.0549C92.0902 56.7434 92.5408 57.5893 92.9783 58.4286C93.9905 60.363 95.0027 62.2909 96.0149 64.2253C96.7594 65.6416 97.5169 67.1105 97.6736 68.7039C97.7063 69.0514 97.7454 69.458 98.0393 69.6481C98.183 69.7399 98.3658 69.753 98.5356 69.753C100.031 69.7399 101.899 68.4612 103.074 69.3989C104.06 71.9366 102.78 74.7693 101.291 77.0447C100.136 78.8152 98.7903 80.5922 98.1765 82.5725C98.0001 83.143 97.8826 83.7266 97.8499 84.3364C97.8042 85.1757 97.9218 86.0085 97.9936 86.8478C98.0328 87.3003 98.0589 87.7527 98.072 88.2052C92.7432 92.5526 86.4219 96.369 79.3365 99.3787C78.8467 96.3952 78.5267 93.392 78.3765 90.3691C78.8728 90.2117 79.0426 89.5494 78.8924 89.0511C78.7879 88.697 78.5724 88.3888 78.3635 88.0871C78.2786 87.956 78.1871 87.8314 78.1088 87.6937C77.1684 86.0937 77.5472 84.0872 77.6451 82.2315C77.6582 81.9561 77.6647 81.661 77.5015 81.4381C77.3186 81.1889 76.979 81.1102 76.7309 80.9201C75.9603 80.3365 76.3848 79.1365 76.659 78.2053C76.9856 77.0775 77.2011 75.3201 76.3391 74.5333C75.3791 73.648 73.7792 74.9529 72.5645 74.4808C72.0813 74.2907 71.7025 73.8382 71.1866 73.7923C70.4291 73.7267 69.861 74.5792 69.0969 74.6382C68.457 74.6841 67.8692 74.153 67.2293 74.2316C66.3934 74.3366 66.0342 75.3792 65.2963 75.7857C64.689 76.1201 63.9053 75.9496 63.3372 75.5497C62.7756 75.1497 62.3838 74.553 62.0115 73.9628C60.8165 72.0546 59.7324 70.0743 58.7594 68.0481C58.3154 67.1301 57.8909 66.1728 57.7995 65.1564C57.7081 64.14 58.0019 63.0318 58.7921 62.3827C58.5243 62.0286 58.1848 61.7335 57.7929 61.5302C59.7586 57.6418 61.7699 53.6877 64.7869 50.5468C65.0547 50.2648 65.3355 49.9894 65.6293 49.7337C66.106 49.314 66.6219 48.9337 67.1835 48.6518C68.7835 47.8452 70.6577 47.8452 72.447 47.8583C73.5963 47.8649 74.7718 47.878 75.895 48.1206C76.2999 48.2059 76.6982 48.3239 77.0835 48.4747C78.5398 49.0583 79.8197 50.3435 79.9307 51.9173C80.8384 50.855 81.9943 49.7796 83.3853 49.8321C84.5281 49.8714 85.488 50.6648 86.5329 51.137C87.9043 51.7599 89.5956 51.8058 90.856 50.9927C92.1228 50.1796 92.7824 48.4026 92.1098 47.0518C90.2421 47.7075 88.0218 47.2092 86.6112 45.8059C86.2782 45.478 85.9909 45.0977 85.6774 44.7502C85.3901 44.4354 85.0831 44.1404 84.7109 43.9371C84.6391 44.3895 84.5607 44.842 84.4889 45.2879C84.4301 45.642 84.3714 45.9895 84.3126 46.3436C83.8228 46.737 83.1175 46.501 82.6604 46.0354C82.5363 45.9043 82.4253 45.76 82.3469 45.6026C81.9812 44.8813 81.9878 44.0354 81.7396 43.2682C81.289 41.8388 79.7087 40.7371 78.2851 41.1896C79.983 41.5306 80.414 43.642 79.7805 45.2617C79.5781 45.7862 78.7292 45.36 78.6181 44.8092C78.5071 44.2584 78.6834 43.6289 78.37 43.1699C78.0239 42.665 77.3055 42.6519 76.7243 42.4814C76.1432 42.3109 75.575 41.5699 76.0125 41.1437C73.1588 41.0978 70.3312 42.6191 68.7835 45.019C68.2741 45.8125 67.8105 46.7633 66.9223 47.078C65.5771 47.5567 64.2971 46.2846 63.4221 45.1502C64.1143 44.1994 64.4669 43.0387 65.1722 42.1011C65.8775 41.1634 67.1835 40.4814 68.2153 41.0322C68.8031 39.8126 67.7974 38.1405 66.4456 38.0946C67.5754 37.3995 68.9598 37.2618 70.1287 36.6454C71.2977 36.029 72.238 34.5143 71.5197 33.3996C72.2902 32.9406 73.198 32.7373 74.0861 32.8291C73.5637 32.4356 73.8314 31.4062 74.4844 31.3603C75.1375 31.3078 75.5423 32.3373 75.0134 32.7242C75.9472 32.0947 77.1749 33.4127 78.2524 33.0979C78.6247 32.9865 78.9185 32.6979 79.1863 32.416C80.2115 31.3603 81.2303 30.298 82.2555 29.2423C82.8367 28.6455 83.4571 27.9111 83.3265 27.0915C83.013 27.4456 82.5494 27.662 82.0792 27.6816C81.8441 26.9997 81.609 26.2915 81.6809 25.5767C81.7527 24.862 82.2359 24.1341 82.9412 24.0161C82.9935 23.4719 82.3796 23.0588 81.8376 23.1047C81.2956 23.1506 80.8384 23.4981 80.4074 23.8391C79.3952 24.6391 78.2786 25.662 78.3765 26.9538C78.4222 27.5243 78.7096 28.0423 78.8598 28.5931C79.0034 29.1439 78.9773 29.8259 78.5202 30.1734C77.7888 30.7373 76.7962 29.9832 76.1497 29.3275C75.5032 28.6718 74.3277 28.0882 73.7792 28.8291C73.4396 29.2882 73.3155 30.2062 72.78 30.016C72.5972 29.9504 72.4927 29.7537 72.4143 29.5701C72.0944 28.816 71.8854 28.0095 71.794 27.1898C71.7482 26.7702 71.7417 26.3112 71.9833 25.9636C72.4405 25.2882 73.4657 25.4128 74.2036 25.0718C75.5946 24.4358 75.6599 22.4096 76.7701 21.3539C77.286 20.8621 77.9847 20.626 78.6508 20.3965C79.9307 19.9703 81.2629 19.531 82.6082 19.6752C84.7958 19.9113 86.7223 21.6555 88.9099 21.4194C89.4389 21.3604 90.2225 21.3867 90.216 21.9178C90.216 22.167 90.0005 22.3571 89.7915 22.4883C89.1058 22.9211 88.2634 23.1112 87.4537 22.9997C87.8912 23.8391 88.6356 24.8227 89.5499 24.5669C89.9025 24.4686 90.1768 24.1932 90.4315 23.9309C91.1498 23.1833 91.8682 22.4358 92.593 21.6883C92.6322 21.6489 92.6649 21.6096 92.704 21.5703C92.704 21.5637 92.7106 21.5637 92.7171 21.5571C93.2395 21.0129 93.762 20.3703 94.3889 19.9965C103.917 27.3144 111.08 37.5634 114.574 49.3993Z" fill="#0DA58B"/>
<path d="M59.863 16.5802C59.8564 16.0687 59.7781 15.4917 60.1242 15.1179C60.4572 14.7573 61.0645 14.7507 61.3845 14.3769C61.6066 14.1146 61.6131 13.754 61.4825 13.4327C61.4302 13.3015 61.3454 13.177 61.2539 13.0655C61.1233 12.836 60.947 12.495 60.7511 12.0163C60.7315 11.9704 60.7119 11.918 60.6858 11.8655C60.5225 11.4655 60.3854 10.9213 60.1503 10.3967C59.7258 9.45243 58.9879 8.55408 57.1986 8.58687C54.4102 8.63933 48.8333 8.85572 44.8759 10.5475C41.8132 11.8589 41.0622 12.8032 40.9773 13.5704C40.9512 13.7933 40.9838 14.0032 41.0361 14.2064C41.0426 14.2392 41.0491 14.272 41.0556 14.3048C41.1667 15.0392 40.37 15.2491 41.1797 16.2654C41.245 16.3703 41.3299 16.4621 41.4213 16.5474C41.4344 16.5671 41.4605 16.5802 41.4801 16.5998C41.5846 16.6851 41.7022 16.7638 41.8132 16.8359C42.3487 17.1834 42.8776 17.5375 43.4066 17.8851C44.0335 18.2982 44.6865 18.731 45.0783 19.3736C45.4767 20.0162 45.542 20.9276 45.0326 21.4785C44.5428 22.0096 43.5959 22.167 43.4327 22.8751C43.3347 23.3079 43.5894 23.7276 43.8376 24.0948C44.5624 25.1636 45.2808 26.2325 46.0056 27.3013C46.2538 27.6619 46.5281 28.0488 46.9525 28.1669C47.7166 28.3767 48.3892 27.5636 48.572 26.7898C48.7484 26.0161 48.6831 25.1636 49.0749 24.4751C49.6038 23.544 50.7662 23.2292 51.8046 22.9932C53.62 22.5866 55.4746 22.1538 57.0484 21.1506C58.6222 20.1473 59.8826 18.449 59.863 16.5802Z" fill="#0DA58B"/>
<path d="M134.263 136.093C134.263 136.093 134.08 137.804 132.741 140.27C131.324 142.88 128.608 146.342 123.429 149.516C121.333 150.801 118.78 151.699 116.043 152.322C115.821 152.375 115.599 152.421 115.377 152.466C115.273 152.486 115.175 152.512 115.07 152.532C115.031 152.539 114.985 152.552 114.946 152.558C114.829 152.584 114.711 152.604 114.6 152.624C114.483 152.643 114.372 152.663 114.254 152.689C113.934 152.748 113.608 152.801 113.288 152.853C113.079 152.886 112.87 152.919 112.661 152.945C112.602 152.952 112.55 152.965 112.491 152.971C112.426 152.978 112.36 152.991 112.295 152.998C111.89 153.057 111.492 153.102 111.087 153.148C110.969 153.161 110.852 153.175 110.734 153.188C110.584 153.207 110.44 153.22 110.29 153.234C110.166 153.247 110.042 153.26 109.918 153.273C109.787 153.286 109.657 153.299 109.533 153.312C109.48 153.319 109.422 153.319 109.369 153.325C109.01 153.358 108.651 153.384 108.298 153.411C108.187 153.417 108.076 153.424 107.965 153.43C107.867 153.437 107.769 153.443 107.678 153.45C107.56 153.457 107.443 153.463 107.325 153.47C107.28 153.476 107.234 153.476 107.182 153.476C106.953 153.489 106.718 153.502 106.49 153.509C106.418 153.516 106.346 153.516 106.274 153.516C106.176 153.522 106.078 153.522 105.987 153.529C105.915 153.535 105.85 153.535 105.778 153.535C105.725 153.535 105.667 153.542 105.614 153.542C105.569 153.542 105.523 153.548 105.477 153.548C104.739 153.575 104.021 153.581 103.316 153.588C103.244 153.588 103.172 153.588 103.1 153.588C102.748 153.588 102.402 153.588 102.055 153.581C101.977 153.581 101.905 153.581 101.827 153.581C101.487 153.575 101.154 153.575 100.828 153.561C100.743 153.561 100.664 153.555 100.586 153.555C100.508 153.555 100.423 153.548 100.344 153.548C100.266 153.548 100.188 153.542 100.103 153.542C99.7633 153.529 99.4302 153.522 99.1102 153.509C99.0515 153.509 98.9927 153.502 98.9339 153.502C98.8164 153.496 98.7054 153.489 98.5878 153.489C98.4115 153.483 98.2352 153.47 98.0654 153.463C97.9413 153.457 97.8238 153.45 97.6997 153.443C97.6801 153.443 97.6605 153.443 97.6409 153.437C97.5756 153.43 97.5169 153.43 97.4581 153.424C97.3797 153.417 97.3079 153.417 97.236 153.411C97.1054 153.404 96.9748 153.391 96.8442 153.384C96.7854 153.378 96.7267 153.378 96.6744 153.371C96.4459 153.358 96.2238 153.339 96.0149 153.325C95.93 153.319 95.8386 153.312 95.7537 153.306C95.7471 153.306 95.7471 153.306 95.7406 153.306C95.6231 153.299 95.5055 153.286 95.3945 153.28C95.3357 153.273 95.2769 153.273 95.2247 153.266C95.1463 153.26 95.068 153.253 94.9896 153.247C94.8329 153.234 94.6827 153.22 94.539 153.207C94.5064 153.201 94.4672 153.201 94.4345 153.201C94.3888 153.194 94.3496 153.194 94.3105 153.188C94.2713 153.181 94.2321 153.181 94.1994 153.175C94.0623 153.161 93.9317 153.148 93.8142 153.135C93.7815 153.135 93.7489 153.129 93.7162 153.129C93.6248 153.122 93.5334 153.109 93.455 153.102C93.4223 153.096 93.3897 153.096 93.357 153.089C93.3244 153.089 93.2983 153.083 93.2656 153.083C93.2068 153.076 93.1546 153.07 93.1023 153.063C93.0762 153.057 93.0501 153.057 93.0305 153.057C92.9064 153.043 92.8085 153.03 92.7432 153.024C92.7366 153.024 92.7301 153.024 92.7236 153.024C92.6779 153.017 92.6518 153.017 92.6322 153.011C92.6256 153.011 92.6256 153.011 92.6256 153.011H92.6191C92.6191 153.011 92.6126 153.011 92.6126 153.017C92.606 153.017 92.606 153.024 92.5995 153.024C92.593 153.024 92.593 153.03 92.5865 153.03C92.5799 153.03 92.5799 153.037 92.5734 153.037C92.5669 153.037 92.5669 153.043 92.5603 153.043C92.5538 153.043 92.5538 153.05 92.5473 153.05C92.5407 153.057 92.5277 153.063 92.5212 153.07C92.5016 153.083 92.482 153.096 92.4624 153.116C92.4559 153.122 92.4558 153.122 92.4493 153.129C92.4363 153.142 92.4167 153.155 92.4036 153.168C92.3971 153.175 92.3905 153.181 92.384 153.188C92.3383 153.227 92.2861 153.266 92.2338 153.319C92.2142 153.339 92.1946 153.352 92.175 153.371C92.1424 153.398 92.1163 153.43 92.0836 153.463C91.7702 153.791 91.3326 154.335 90.8363 155.234C90.3531 156.093 89.8176 157.273 89.256 158.893C88.9425 158.919 88.6225 158.945 88.3091 158.971C88.296 159.011 88.2764 159.05 88.2634 159.089C88.2764 159.05 88.2895 159.011 88.3091 158.971C87.7867 159.011 87.2577 159.05 86.7288 159.089C87.114 158.001 87.7148 156.676 88.6487 155.109C89.1189 154.322 89.6805 153.47 90.34 152.558C91.6592 150.729 93.3897 148.657 95.6492 146.342C95.7145 146.27 95.7863 146.204 95.8516 146.132C95.9039 146.08 95.9561 146.027 96.0018 145.981C96.0736 145.909 96.1455 145.837 96.2173 145.771C96.2565 145.732 96.2957 145.693 96.3349 145.653C96.3936 145.594 96.4524 145.542 96.5112 145.483C96.8834 145.135 97.2622 144.794 97.654 144.473C97.7258 144.414 97.7976 144.355 97.8695 144.296C98.2874 143.949 98.7184 143.614 99.1625 143.293C99.2474 143.227 99.3388 143.162 99.4302 143.096C99.489 143.057 99.5478 143.011 99.6065 142.971C99.6131 142.965 99.6196 142.965 99.6261 142.958C99.7829 142.847 99.9396 142.742 100.096 142.631C100.136 142.604 100.168 142.578 100.207 142.552C100.24 142.526 100.279 142.506 100.312 142.48C100.664 142.244 101.024 142.014 101.383 141.791C101.487 141.726 101.592 141.667 101.696 141.601C101.729 141.581 101.768 141.562 101.801 141.542C101.873 141.496 101.944 141.457 102.016 141.411C102.068 141.378 102.121 141.345 102.173 141.319C102.362 141.208 102.558 141.103 102.748 140.991C102.8 140.965 102.846 140.932 102.898 140.906C102.957 140.873 103.015 140.84 103.081 140.808C103.649 140.499 104.23 140.204 104.811 139.929C104.909 139.883 105.001 139.837 105.099 139.791C105.556 139.581 106.013 139.372 106.476 139.181C106.535 139.155 106.587 139.135 106.646 139.109C106.914 138.998 107.182 138.886 107.449 138.781C107.547 138.742 107.639 138.703 107.737 138.67C107.926 138.598 108.122 138.526 108.311 138.454C108.416 138.414 108.52 138.375 108.625 138.342C108.69 138.316 108.756 138.296 108.827 138.27C108.893 138.244 108.958 138.224 109.023 138.198C109.128 138.158 109.239 138.126 109.343 138.086C109.415 138.06 109.493 138.034 109.565 138.008C109.8 137.929 110.029 137.85 110.264 137.778C110.355 137.752 110.44 137.719 110.525 137.693C110.564 137.68 110.604 137.667 110.636 137.66C110.728 137.634 110.826 137.601 110.917 137.575C111.087 137.522 111.257 137.47 111.426 137.424C111.551 137.385 111.681 137.352 111.812 137.313C111.955 137.273 112.093 137.234 112.236 137.195C112.373 137.155 112.504 137.122 112.641 137.083C112.661 137.077 112.68 137.077 112.693 137.07C121.137 134.847 129.679 134.9 134.263 136.093Z" fill="#707A0E"/>
<path d="M132.787 136.434C129.535 136.742 125.839 137.509 121.803 138.716C120.386 139.142 118.93 139.621 117.434 140.145C119.504 137.877 122.449 136.742 122.482 136.729C122.561 136.696 122.6 136.611 122.574 136.532C122.541 136.454 122.456 136.414 122.378 136.44C122.345 136.454 118.969 137.752 116.853 140.355C115.129 140.978 113.359 141.667 111.557 142.421C109.186 143.411 107.077 144.381 105.373 145.194C105.366 145.194 105.36 145.201 105.353 145.201C102.689 146.48 101.037 147.385 101.01 147.398C100.939 147.437 100.906 147.535 100.952 147.607C100.978 147.66 101.03 147.686 101.089 147.686C101.115 147.686 101.141 147.68 101.161 147.666C101.187 147.653 102.806 146.762 105.431 145.503C105.987 145.791 109.768 147.673 116.082 149.168C116.866 150.407 117.826 150.762 117.872 150.775C117.891 150.781 117.904 150.781 117.924 150.781C117.989 150.781 118.048 150.742 118.068 150.676C118.094 150.598 118.055 150.506 117.976 150.48C117.97 150.48 117.153 150.178 116.448 149.148C117.264 149.044 119.909 148.689 121.712 148.126C121.79 148.099 121.836 148.014 121.816 147.935C121.79 147.857 121.705 147.811 121.627 147.83C119.615 148.453 116.52 148.827 116.2 148.866C110.434 147.503 106.79 145.817 105.797 145.326C107.449 144.539 109.454 143.621 111.694 142.683C112.837 142.204 114.091 141.706 115.416 141.201C115.952 141.267 121.659 141.949 124.461 142.152C125.773 143.857 126.72 144.48 126.76 144.506C126.786 144.526 126.812 144.532 126.844 144.532C126.897 144.532 126.942 144.506 126.975 144.46C127.021 144.388 127.001 144.296 126.929 144.244C126.923 144.237 126.061 143.673 124.872 142.178C124.964 142.185 125.049 142.191 125.133 142.191C125.355 142.204 125.578 142.204 125.813 142.204C128.222 142.204 131.05 141.667 131.076 141.66C131.161 141.647 131.213 141.562 131.2 141.476C131.187 141.391 131.102 141.339 131.017 141.352C130.985 141.358 127.635 141.994 125.147 141.876C123.083 141.778 117.859 141.168 116.05 140.952C121.124 139.07 127.243 137.227 132.839 136.703C132.924 136.696 132.983 136.618 132.976 136.532C132.95 136.486 132.872 136.427 132.787 136.434Z" fill="#221906"/>
<path d="M100.403 148.027C98.2415 148.919 96.7591 150.381 95.7469 152.014C94.7282 153.66 94.1862 155.476 93.8989 157.083C93.4613 159.555 93.6311 161.502 93.6311 161.502C93.6311 161.502 93.2197 159.915 91.5545 157.365C91.2737 156.938 90.9602 156.479 90.6076 156.001C90.6076 156.001 90.5749 156.073 90.5162 156.204C90.5096 156.211 90.5096 156.224 90.5031 156.237C90.4443 156.368 90.366 156.552 90.2745 156.775C90.2615 156.807 90.2484 156.84 90.2353 156.879C90.1635 157.063 90.0786 157.266 89.9937 157.489C89.9872 157.502 89.9872 157.516 89.9807 157.522C89.9741 157.535 89.9676 157.548 89.9676 157.561C89.9415 157.634 89.9088 157.712 89.8827 157.791C89.8631 157.837 89.8501 157.876 89.8305 157.922C89.8239 157.929 89.8239 157.942 89.8239 157.948C89.8109 157.975 89.8043 158.001 89.7978 158.027C89.7586 158.138 89.7194 158.25 89.6803 158.368C89.6672 158.394 89.6607 158.427 89.6476 158.46C89.4974 158.906 89.3538 159.384 89.2231 159.889C89.0272 159.771 88.8248 159.647 88.6289 159.515C88.8313 158.814 89.0338 158.171 89.2362 157.588C88.9227 157.614 88.6028 157.64 88.2893 157.666C88.3089 157.614 88.3285 157.561 88.3481 157.516C88.3742 157.45 88.4003 157.384 88.4264 157.312C88.4591 157.234 88.4918 157.148 88.5244 157.063C88.5832 156.919 88.642 156.768 88.7073 156.624C88.7399 156.552 88.7726 156.473 88.8052 156.394C88.8705 156.243 88.9423 156.086 89.0142 155.929C89.0534 155.843 89.0925 155.758 89.1317 155.673C89.1644 155.601 89.197 155.535 89.2297 155.463C89.2689 155.384 89.308 155.306 89.3472 155.227C89.4256 155.07 89.5105 154.906 89.5954 154.748C89.6346 154.67 89.6803 154.598 89.7195 154.519C89.7717 154.42 89.8305 154.322 89.8827 154.23C89.9088 154.178 89.9415 154.132 89.9741 154.08C89.9807 154.066 89.9937 154.047 90.0002 154.034C90.0329 153.981 90.0656 153.929 90.0982 153.87C90.2027 153.693 90.3137 153.516 90.4247 153.345C90.477 153.273 90.5227 153.194 90.5749 153.122C90.6337 153.03 90.6925 152.945 90.7578 152.86C90.797 152.801 90.8361 152.748 90.8753 152.689C90.8819 152.676 90.8949 152.663 90.9014 152.65C90.9145 152.63 90.9276 152.617 90.9406 152.604C90.9602 152.571 90.9863 152.545 91.0059 152.512C91.032 152.473 91.0647 152.434 91.0973 152.394C91.1365 152.342 91.1692 152.296 91.2084 152.25C91.2149 152.237 91.2279 152.224 91.241 152.211C91.2867 152.152 91.3324 152.093 91.3847 152.034C91.3977 152.014 91.4173 151.994 91.4304 151.975C91.45 151.948 91.4761 151.922 91.4957 151.896C91.5022 151.889 91.5088 151.876 91.5218 151.87C91.5414 151.843 91.5675 151.811 91.5937 151.784C93.285 149.765 95.5837 148.185 98.6399 147.988C98.8945 147.968 99.1558 147.962 99.417 147.968C99.7174 147.975 100.057 147.994 100.403 148.027Z" fill="#55590A"/>
<path d="M88.2829 158.984C88.2698 159.023 88.2502 159.063 88.2372 159.102C88.2502 159.063 88.2633 159.023 88.2829 158.984Z" fill="#221906"/>
<path d="M91.5611 151.784C91.5415 151.817 91.5284 151.85 91.5153 151.876C91.4174 152.073 91.3325 152.263 91.2541 152.453C91.0452 152.965 90.908 153.47 90.8101 153.929C90.5619 155.109 90.6142 155.994 90.6142 155.994C90.6142 155.994 90.5815 156.066 90.5227 156.198C90.5162 156.204 90.5162 156.217 90.5097 156.23C90.4509 156.361 90.3725 156.545 90.2811 156.768C90.268 156.801 90.255 156.834 90.2419 156.873C90.1701 157.057 90.0852 157.26 90.0003 157.483C89.9938 157.496 89.9938 157.509 89.9872 157.516C89.9807 157.529 89.9742 157.542 89.9742 157.555C89.9481 157.627 89.9154 157.706 89.8893 157.784C89.8697 157.83 89.8566 157.87 89.837 157.916C89.8305 157.922 89.8305 157.935 89.8305 157.942C89.8175 157.968 89.8109 157.994 89.8044 158.02C89.7652 158.132 89.726 158.243 89.6869 158.361C89.6738 158.388 89.6673 158.42 89.6542 158.453C89.504 158.899 89.3603 159.378 89.2297 159.883C89.0338 159.765 88.8314 159.64 88.6355 159.509C88.8379 158.807 89.0404 158.165 89.2428 157.581C88.9293 157.607 88.6094 157.634 88.2959 157.66C88.3155 157.607 88.3351 157.555 88.3547 157.509C88.3808 157.443 88.4069 157.378 88.433 157.306C88.4657 157.227 88.4983 157.142 88.531 157.057C88.5898 156.912 88.6485 156.761 88.7138 156.617C88.7465 156.545 88.7791 156.466 88.8118 156.388C88.8771 156.237 88.9489 156.079 89.0208 155.922C89.0599 155.837 89.0991 155.752 89.1383 155.666C89.171 155.594 89.2036 155.529 89.2363 155.457C89.2754 155.378 89.3146 155.299 89.3538 155.22C89.4322 155.063 89.5171 154.899 89.602 154.742C89.6411 154.663 89.6869 154.591 89.726 154.512C89.7783 154.414 89.837 154.316 89.8893 154.224C89.9154 154.171 89.9481 154.125 89.9807 154.073C89.9873 154.06 90.0003 154.04 90.0068 154.027C90.0395 153.975 90.0721 153.922 90.1048 153.863C90.2093 153.686 90.3203 153.509 90.4313 153.339C90.4836 153.266 90.5293 153.188 90.5815 153.116C90.6403 153.024 90.6991 152.939 90.7644 152.853C90.8035 152.794 90.8427 152.742 90.8819 152.683C90.8884 152.67 90.9015 152.657 90.908 152.643C90.9211 152.624 90.9341 152.611 90.9407 152.598C90.9603 152.565 90.9864 152.539 91.006 152.506C91.0321 152.466 91.0647 152.427 91.0974 152.388C91.1366 152.335 91.1692 152.289 91.2084 152.243C91.2149 152.23 91.228 152.217 91.2411 152.204C91.2868 152.145 91.3325 152.086 91.3847 152.027C91.3978 152.007 91.4174 151.988 91.4305 151.968C91.45 151.942 91.4762 151.916 91.4958 151.889C91.5023 151.883 91.5088 151.87 91.5219 151.863C91.5153 151.843 91.5415 151.817 91.5611 151.784Z" fill="#221906"/>
<path d="M85.083 152.991C85.083 152.991 87.3882 135.916 96.7135 128.506C106.039 121.103 120.993 122.749 120.993 122.749C120.993 122.749 120.072 130.362 108.599 141.267C97.1249 152.171 85.0895 156.696 85.0895 156.696V152.991H85.083Z" fill="#84960E"/>
<path d="M47.5924 155.404C46.7173 155.135 45.8553 154.853 45.0064 154.552C44.8823 154.512 44.7648 154.466 44.6407 154.42C41.5257 153.306 38.5479 151.988 35.7398 150.434C30.8682 142.198 34.1399 135.024 34.1399 135.024C48.0495 138.322 47.7948 152.519 47.5924 155.404Z" fill="#84960E"/>
<path d="M59.2753 158.053C55.9775 157.535 52.7712 156.866 49.6888 156.014C50.2178 154.611 52.8822 148.427 58.8052 147.863C58.8052 147.863 62.2728 151.843 59.2753 158.053Z" fill="#84960E"/>
<path d="M119.504 123.549C119.478 123.47 119.387 123.424 119.308 123.451C117.31 124.133 115.318 124.985 113.34 125.995C113.64 124.336 114.221 123.713 114.234 123.7C114.293 123.641 114.293 123.542 114.234 123.483C114.176 123.424 114.078 123.424 114.019 123.483C113.993 123.516 113.307 124.224 113 126.172C112.628 126.369 112.249 126.572 111.877 126.775C111.864 126.782 111.851 126.788 111.838 126.795C109.48 128.106 107.149 129.647 104.863 131.411C104.263 131.87 103.668 132.349 103.074 132.841C103.237 131.693 103.897 128.165 106.052 125.018C106.098 124.946 106.085 124.854 106.013 124.801C105.941 124.755 105.849 124.769 105.797 124.841C104.922 126.119 104.289 127.464 103.832 128.683C103.061 127.083 103.179 126.31 103.179 126.296C103.192 126.211 103.139 126.132 103.054 126.119C102.97 126.106 102.891 126.159 102.872 126.244C102.865 126.283 102.702 127.201 103.681 129.09C102.963 131.142 102.754 132.795 102.715 133.136C99.724 135.647 96.8245 138.539 94.0491 141.752C93.9055 141.916 93.7683 142.08 93.6312 142.244C93.6247 138.808 94.3495 135.883 94.9765 134.008C95.6817 131.89 96.4131 130.611 96.4196 130.598C96.4654 130.526 96.4392 130.427 96.3609 130.388C96.289 130.342 96.1911 130.368 96.1519 130.447C96.1454 130.46 95.4009 131.759 94.6891 133.909C94.5389 134.368 94.3757 134.893 94.2255 135.47C93.4157 134.454 93.2655 133.844 93.2655 133.837C93.2459 133.752 93.161 133.7 93.0827 133.719C92.9978 133.739 92.9455 133.818 92.9651 133.903C92.9716 133.936 93.1414 134.65 94.134 135.837C93.6704 137.673 93.2916 140.008 93.3373 142.611C93.1414 142.84 92.952 143.076 92.7627 143.306L92.7561 143.313C87.7409 149.417 84.972 154.493 84.9393 154.552C84.9002 154.624 84.9263 154.722 84.9981 154.761C85.0242 154.775 85.0438 154.781 85.0699 154.781C85.1222 154.781 85.1744 154.755 85.2071 154.702C85.2397 154.65 87.9825 149.627 92.9455 143.575C93.1022 143.588 93.4745 143.608 94.023 143.608C94.8393 143.608 96.0474 143.562 97.5102 143.358C97.9281 143.299 98.3787 143.227 98.8555 143.142C101.03 144.663 102.395 144.788 102.774 144.788C102.839 144.788 102.872 144.781 102.878 144.781C102.963 144.775 103.022 144.696 103.015 144.611C103.009 144.526 102.93 144.467 102.845 144.473C102.832 144.473 101.559 144.585 99.2734 143.057C101.69 142.565 104.778 141.621 107.933 139.791C108.004 139.752 108.031 139.654 107.991 139.581C107.952 139.509 107.854 139.483 107.782 139.522C103.838 141.804 99.9983 142.696 97.471 143.044C95.3683 143.332 93.801 143.299 93.1806 143.273C93.5398 142.84 93.9055 142.401 94.2908 141.962C96.3152 139.614 98.8098 136.985 101.735 134.414C102.297 134.375 106.15 134.073 109.741 133.464C109.911 133.686 110.46 134.349 111.831 135.411C111.857 135.431 111.89 135.444 111.923 135.444C111.968 135.444 112.014 135.424 112.047 135.385C112.099 135.319 112.086 135.221 112.021 135.168C110.884 134.29 110.329 133.686 110.088 133.404C111.185 133.208 112.249 132.985 113.17 132.729C113.255 132.709 113.301 132.624 113.274 132.539C113.255 132.454 113.17 132.408 113.085 132.434C109.519 133.424 103.799 133.942 102.121 134.073C105.02 131.562 108.324 129.123 111.975 127.09H116.977C117.062 127.09 117.134 127.018 117.134 126.932C117.134 126.847 117.062 126.775 116.977 126.775H112.536C114.705 125.601 116.997 124.572 119.393 123.752C119.491 123.719 119.53 123.628 119.504 123.549Z" fill="#221906"/>
<path d="M45.0065 154.552C44.8825 154.512 44.7649 154.466 44.6409 154.42C44.2229 153.135 43.7854 151.916 43.3283 150.768C41.4345 150.847 39.5537 150.584 38.3587 150.362C37.5816 150.217 37.0918 150.086 37.0853 150.086C37.0004 150.066 36.9547 149.981 36.9743 149.896C36.9938 149.811 37.0787 149.765 37.1636 149.785C37.1963 149.791 40.1676 150.571 43.2107 150.46C42.1659 147.876 41.0622 145.653 40.0304 143.817C39.1619 143.745 38.4044 143.64 37.7644 143.516C35.6878 143.129 34.7735 142.598 34.7278 142.565C34.656 142.519 34.6299 142.427 34.6756 142.355C34.7213 142.283 34.8127 142.257 34.8845 142.303C34.8976 142.309 36.3735 143.168 39.8411 143.49C39.2403 142.44 38.6721 141.529 38.1562 140.749C36.0078 137.496 34.3164 135.811 34.3034 135.798C34.2446 135.739 34.2446 135.64 34.3034 135.581C34.3621 135.522 34.4601 135.522 34.5189 135.581C34.5385 135.601 36.2429 137.293 38.4044 140.572C38.966 141.417 39.5864 142.421 40.2394 143.581C40.2459 143.594 40.259 143.608 40.2655 143.621C40.3374 143.745 40.4092 143.876 40.481 144.008C41.0035 141.057 40.8076 139.188 40.8076 139.168C40.801 139.083 40.8598 139.004 40.9447 138.998C41.0296 138.991 41.108 139.05 41.1145 139.135C41.121 139.221 41.3365 141.227 40.7161 144.44C41.6565 146.178 42.636 148.211 43.5634 150.532C43.5699 150.545 43.5764 150.565 43.5829 150.578C43.6221 150.676 43.6613 150.781 43.7005 150.88C44.4384 148.034 44.4776 146.493 44.4776 146.48C44.4776 146.394 44.5494 146.329 44.6343 146.329C44.7192 146.329 44.7845 146.401 44.7845 146.486C44.7845 146.558 44.7388 148.224 43.8833 151.371C44.2817 152.381 44.6539 153.443 45.0065 154.552Z" fill="#221906"/>
<path d="M60.0981 152.827C60.072 152.748 59.9871 152.702 59.9022 152.729C59.8891 152.735 58.3414 153.221 55.5465 153.489C57.0876 150.958 58.5896 148.355 58.6157 148.316C58.6614 148.244 58.6353 148.145 58.5569 148.106C58.4851 148.06 58.3872 148.086 58.348 148.165C58.3284 148.198 57.0288 150.453 55.6052 152.801C55.6052 152.794 55.5987 152.788 55.5987 152.788C54.6453 150.971 54.4755 150.066 54.469 150.053C54.4559 149.968 54.3775 149.916 54.2927 149.929C54.2078 149.942 54.1555 150.021 54.1686 150.106C54.1751 150.145 54.3449 151.057 55.3244 152.925C55.344 152.971 55.3897 152.998 55.4355 153.004C55.4485 153.004 55.4616 153.004 55.4812 153.004C54.6649 154.348 53.8225 155.699 53.1694 156.663C53.1237 156.735 53.1368 156.827 53.2086 156.879C53.2282 156.893 53.2478 156.899 53.2674 156.906C53.3262 156.919 53.3849 156.893 53.4241 156.84C53.9792 156.02 54.6583 154.939 55.3506 153.811C58.3219 153.542 59.9871 153.017 60.0001 153.011C60.085 152.998 60.1242 152.912 60.0981 152.827Z" fill="#221906"/>
<path d="M147.585 93.9165C147.565 99.0771 147.219 103.87 146.579 108.303C141.629 117.28 133.088 120.69 124.37 124.323C110.499 130.106 91.1172 135.935 80.8058 146.853C73.3874 154.709 70.0112 157.909 68.7052 159.083C67.8758 159.024 67.053 158.965 66.2367 158.892C63.8727 158.683 61.5544 158.407 59.2754 158.047C58.877 157.988 58.4787 157.922 58.0803 157.85C58.4983 157.456 58.9097 157.076 59.295 156.709C61.7046 154.46 63.396 152.945 63.396 152.945C70.6904 146.08 89.5107 129.949 111.668 123.365C133.839 116.788 144.274 109.018 147.585 93.9165Z" fill="#221906"/>
<path d="M58.0606 82.8872C53.3588 82.8872 48.8006 81.5233 44.889 78.9463C39.1945 75.2021 35.3286 69.1957 34.2837 62.4745C34.2511 62.2581 34.3948 62.0614 34.6103 62.022C34.8258 61.9892 35.0217 62.1335 35.0609 62.3499C36.0731 68.8481 39.8084 74.6579 45.32 78.284C49.1076 80.7758 53.5155 82.0938 58.0672 82.0938C64.5583 82.0938 70.8013 79.3397 75.2027 74.5464C79.1666 70.2186 81.3478 64.599 81.3478 58.7172C81.3478 53.15 79.3691 47.76 75.7709 43.5371C75.6272 43.3732 75.6468 43.124 75.8166 42.9797C75.9798 42.8355 76.228 42.8551 76.3717 43.0256C80.0874 47.3928 82.1379 52.9664 82.1379 58.7172C82.1379 64.7957 79.8784 70.6055 75.7839 75.0775C73.5506 77.5103 70.8993 79.4315 67.9084 80.7758C64.7934 82.179 61.4891 82.8872 58.0606 82.8872Z" fill="white"/>
<path d="M42.4533 41.242C42.3423 41.242 42.2378 41.1961 42.1594 41.1109C42.0158 40.947 42.0353 40.6978 42.1986 40.5535C46.587 36.6847 52.2226 34.5602 58.0673 34.5602C60.7578 34.5602 63.396 34.9995 65.9167 35.8716C68.3525 36.7175 70.6251 37.9437 72.6821 39.5175C72.8519 39.6486 72.8846 39.8978 72.754 40.0683C72.6234 40.2388 72.3752 40.2716 72.2054 40.1404C68.1174 36.9995 63.2328 35.3405 58.0738 35.3405C52.4186 35.3405 46.9657 37.3995 42.721 41.1437C42.6361 41.2092 42.5447 41.242 42.4533 41.242Z" fill="white"/>
<path d="M34.3883 59.1171C34.1728 59.1171 33.9965 58.9401 33.9965 58.7237C33.9965 52.5139 36.3409 46.6124 40.5921 42.101C40.7423 41.9436 40.9905 41.9371 41.1472 42.0879C41.3039 42.2387 41.3105 42.4879 41.1603 42.6453C37.0462 47.0058 34.7802 52.7172 34.7802 58.7237C34.7802 58.9401 34.6038 59.1171 34.3883 59.1171Z" fill="white"/>
<path d="M111.655 37.8322L119.002 56.927C119.002 56.927 123.397 51.55 122.215 45.6813C121.026 39.806 111.655 37.8322 111.655 37.8322Z" fill="#221906"/>
<path d="M59.7977 55.3664C59.7977 55.3664 59.334 52.3107 62.991 48.8092C66.648 45.3076 73.7464 47.9764 73.7464 47.9764C73.7464 47.9764 73.4395 51.8649 67.8691 54.1402C62.2988 56.4222 59.7977 55.3664 59.7977 55.3664Z" fill="#A4BB30"/>
<path d="M72.3228 48.7108C71.7482 48.5403 71.1278 48.3042 70.6706 48.1141C71.4739 48.0747 71.9767 48.1338 71.9832 48.1338C72.0877 48.1469 72.1857 48.0748 72.2053 47.9633C72.2183 47.8584 72.1465 47.76 72.0355 47.7403C71.9571 47.7338 70.1548 47.5108 67.7516 48.2124C67.0463 48.4223 66.2431 48.7239 65.4007 49.1698C65.577 48.4682 65.9949 48.042 66.0015 48.0354C66.0798 47.9567 66.0798 47.8321 66.008 47.76C65.9296 47.6813 65.8056 47.6813 65.7337 47.7534C65.7076 47.7797 65.0938 48.3895 64.9566 49.4124C63.9118 50.0223 62.8212 50.8485 61.7829 51.9829C61.8025 51.2026 62.1617 50.5665 62.1617 50.56C62.2139 50.4681 62.1812 50.3436 62.0898 50.2911C61.9984 50.2386 61.8743 50.2714 61.8221 50.3632C61.8025 50.4026 61.2801 51.3206 61.4107 52.4025C60.9144 52.9861 60.4376 53.6419 59.9805 54.3828C59.9217 54.4746 59.9544 54.5992 60.0458 54.6517C60.0785 54.6714 60.1111 54.6779 60.1503 54.6779C60.2156 54.6779 60.2809 54.6451 60.3201 54.5861C60.7576 53.8779 61.2148 53.2484 61.6849 52.6911C62.2008 52.8747 64.1795 53.5566 66.2758 53.9304C66.2888 53.9304 66.3019 53.9304 66.3084 53.9304C66.3998 53.9304 66.4847 53.8648 66.4978 53.7665C66.5174 53.6615 66.4455 53.5566 66.3411 53.537C64.4342 53.196 62.6318 52.5993 61.9592 52.3632C63.0041 51.196 64.1077 50.3501 65.1591 49.7403C65.5313 49.8977 66.9353 50.455 70.096 51.1239C70.1091 51.1239 70.1221 51.1304 70.1352 51.1304C70.2266 51.1304 70.305 51.0649 70.3246 50.9731C70.3441 50.8681 70.2788 50.7632 70.1744 50.737C67.6145 50.1927 66.2104 49.7206 65.5966 49.4911C66.3998 49.0649 67.1639 48.7764 67.8365 48.5731C68.5679 48.3567 69.2471 48.2321 69.8348 48.16C70.0895 48.278 71.1865 48.7633 72.2053 49.0649C72.2249 49.0714 72.2445 49.0714 72.2575 49.0714C72.3424 49.0714 72.4208 49.0124 72.4469 48.9272C72.4861 48.8551 72.4273 48.7436 72.3228 48.7108Z" fill="#221906"/>
<path d="M63.7746 63.4581C63.7746 63.4581 65.5574 65.117 67.0398 66.3826C68.5221 67.6547 70.0437 68.1334 70.0437 68.1334C70.0437 68.1334 71.7024 65.7465 70.4616 62.8089C69.2209 59.8712 63.7746 63.4581 63.7746 63.4581Z" fill="#435007"/>
<path d="M59.6932 64.2449C59.6932 64.2449 61.0319 59.6942 65.8643 60.94C65.8643 60.94 70.3049 60.2646 70.7425 63.8515C70.7425 63.8515 70.2658 62.1007 67.1704 63.1105C64.0815 64.1138 60.0523 68.5334 60.0523 68.5334C60.0523 68.5334 59.1838 66.6055 59.6932 64.2449Z" fill="#84960E"/>
<path d="M62.0181 62.5204C62.4621 62.3892 65.1592 61.6876 68.0651 62.54C68.1696 62.5728 68.2806 62.5072 68.3068 62.4089C68.3394 62.304 68.2741 62.1925 68.1762 62.1663C66.1779 61.5827 64.3102 61.6941 63.1282 61.8777C63.7421 61.6155 64.4996 61.4253 65.4204 61.3532C65.5314 61.3466 65.6098 61.2483 65.6032 61.1433C65.5967 61.0319 65.4987 60.9532 65.3943 60.9597C63.729 61.0909 62.5927 61.5958 61.8287 62.1728C61.7895 62.1859 61.7634 62.2122 61.7373 62.2384C61.3977 62.5072 61.1299 62.7827 60.9275 63.0449C60.2092 63.9695 60.0916 64.8351 60.0851 64.8744C60.0786 64.9334 60.0982 64.9924 60.1373 65.0383C60.1765 65.0777 60.2222 65.0974 60.2745 65.0974C60.281 65.0974 60.2875 65.0974 60.3006 65.0974C60.3137 65.0974 61.3977 64.9662 63.2458 64.9662C63.2654 64.9662 63.2784 64.9662 63.298 64.9662C63.409 64.9662 63.4939 64.881 63.4939 64.7695C63.4939 64.658 63.409 64.5728 63.298 64.5728C61.9201 64.5728 60.9732 64.6384 60.5292 64.6777C60.6532 64.2318 61.0124 63.2941 62.0181 62.5204ZM70.0634 67.6219C70.0438 67.5236 69.5998 65.1695 67.4774 63.3138C67.3991 63.2417 67.275 63.2482 67.2031 63.3335C67.1313 63.4121 67.1378 63.5367 67.2227 63.6089C69.2341 65.3728 69.6781 67.6613 69.6781 67.694C69.6977 67.7858 69.7761 67.858 69.8675 67.858C69.8806 67.858 69.8936 67.858 69.9002 67.858C70.0112 67.8317 70.083 67.7268 70.0634 67.6219Z" fill="#221906"/>
<path d="M45.5811 84.3561L43.5371 82.9594C43.5371 82.9594 43.4914 79.4185 47.932 81.0775C52.3727 82.7365 54.4166 84.3561 54.4166 84.3561H45.5811Z" fill="#F69985"/>
<path d="M52.2618 87.7527C43.9226 85.2282 43.5308 85.0511 43.5308 85.0511C43.5308 85.0511 43.6157 80.8545 49.1011 83.7397C54.5866 86.6249 52.2618 87.7527 52.2618 87.7527Z" fill="#F69E8B"/>
<path d="M102.153 185.64C102.153 185.64 97.3992 200.013 90.7252 207.436C90.4901 207.698 90.2485 207.954 90.0068 208.197C90.0068 208.197 88.0477 209.18 82.8888 208.656C82.8888 208.656 82.2423 208.203 81.9027 206.951C81.6872 206.17 81.5958 205.088 81.8439 203.606C81.9158 203.187 81.9811 202.636 82.0464 201.987C82.4186 198.295 82.6994 191.43 82.8366 187.554C82.8953 185.823 82.928 184.689 82.928 184.689L93.2067 179.017C93.2067 179.017 94.0295 179.318 95.3095 180.04C96.4915 180.709 98.0718 181.731 99.737 183.207C100.534 183.915 101.35 184.722 102.153 185.64Z" fill="#58E5AA"/>
<path d="M124.944 163.738C124.944 163.738 124.552 171.214 119.981 180.525C116.99 186.61 114.45 190.118 113.052 191.823C113.033 191.843 113.02 191.862 113 191.882L112.994 191.889C112.811 192.112 112.647 192.302 112.504 192.459C112.099 192.912 111.883 193.115 111.883 193.115C109.075 193.613 107.208 192.879 106.209 192.269C105.673 191.941 105.366 191.351 105.399 190.721C105.405 190.669 105.405 190.61 105.405 190.551C105.497 188.984 105.66 185.895 105.797 182.938C105.895 180.807 105.973 178.741 106 177.371C106.032 175.384 105.719 172.65 105.392 170.374C105.053 167.987 104.694 166.099 104.694 166.099C104.694 166.099 109.722 159.41 110.636 158.558C111.368 157.876 112.308 157.653 114.215 158.361C114.698 158.538 115.24 158.774 115.854 159.083C117.46 159.876 119.877 161.115 121.81 162.112C123.579 163.03 124.944 163.738 124.944 163.738Z" fill="#58E5AA"/>
<path d="M91.9203 186.426C88.0413 189.698 84.5215 189.626 82.8301 187.548C82.8889 185.817 82.9216 184.682 82.9216 184.682L93.2003 179.01C93.2003 179.01 94.0231 179.312 95.3031 180.033C95.512 181.305 95.2443 183.626 91.9203 186.426Z" fill="#221906"/>
<path d="M83.6269 185.161C83.542 190.807 83.6269 192.249 83.6269 192.249C83.6269 192.249 85.6317 191.338 87.8912 191.928V183.987L83.6269 185.161Z" fill="#221906"/>
<path d="M92.8802 175.279C94.2516 180.853 94.2516 180.853 94.2516 180.853C94.2516 180.853 92.9455 185.115 89.2232 186.295C85.501 187.476 83.4766 186.295 83.4766 186.295L80.6685 178.033L92.8802 175.279Z" fill="#F69985"/>
<path d="M105.96 168.289C106.868 173.325 106.96 174.846 106.96 174.846C106.96 174.846 107.436 173.535 110.832 174.276C110.832 174.276 110.878 171.259 110.421 167.935C109.97 164.617 105.96 168.289 105.96 168.289Z" fill="#221906"/>
<path d="M112.145 169.902C109.578 172.256 106.914 172.387 105.399 170.381C105.059 167.994 104.7 166.105 104.7 166.105C104.7 166.105 109.729 159.417 110.643 158.565C111.374 157.883 112.315 157.66 114.221 158.368C114.652 158.755 115.136 159.279 115.625 159.981C117.062 162.033 115.416 166.899 112.145 169.902Z" fill="#221906"/>
<path d="M98.9534 164.355C106.052 169.384 106.744 169.909 106.744 169.909C106.744 169.909 110.316 169.646 112.667 166.715C115.018 163.784 114.149 159.548 114.149 159.548L105.706 152.906L98.9534 164.355Z" fill="#F7A391"/>
<path d="M97.2751 37.5372C97.2751 37.5372 97.4318 41.2093 98.346 45.4059C99.2603 49.6026 99.6064 52.0484 98.346 55.3926C97.0857 58.7369 94.9503 67.2613 101.174 72.7301C107.397 78.1923 110.447 56.9467 110.447 56.9467L110.055 45.7994L101.017 34.4553C101.017 34.4553 98.2938 32.9471 97.2751 37.5372Z" fill="#221906"/>
<path d="M138.573 70.494C138.573 70.494 138.834 67.5236 136.614 64.1138C136.666 64.2187 137.894 66.6187 136.829 71.3202C135.739 76.1267 136.307 78.5791 136.699 79.4054C136.699 79.4054 135.308 78.271 134.74 74.1595C134.74 74.1595 135.086 79.0972 132.212 81.2414C129.339 83.3856 119.367 64.1007 119.367 64.1007C119.367 64.1007 118.492 58.6188 119.367 52.3239C123.697 45.3338 122.743 40.1667 121.868 37.8257C122.032 38.1798 122.201 38.547 122.378 38.9274C124.774 44.2191 126.511 47.6289 130.26 52.3501C134.002 57.0779 139.618 62.4548 138.573 70.494Z" fill="#435007"/>
<path d="M105.177 57.8188C105.177 57.8188 104.478 62.0155 102.956 65.6023C101.435 69.1891 99.4301 73.6284 99.4301 73.6284C99.4301 73.6284 99.1232 73.9104 101.605 77.189C104.086 80.4676 108.612 82.7102 108.612 82.7102L109.833 65.2941L105.177 57.8188Z" fill="#325698"/>
<path d="M101.696 72.8152C99.6915 78.107 99.4237 78.3233 99.4237 78.3233C99.4237 78.3233 93.5138 79.3266 85.5925 79.7659C77.6712 80.2053 73.531 80.0282 73.531 80.0282C73.531 80.0282 71.1344 78.5856 67.2162 78.5856C63.298 78.5856 57.9889 77.8447 57.9889 77.8447C57.9889 77.8447 57.2052 79.9889 59.21 80.5135C61.2148 81.038 62.3446 80.8217 62.3446 80.8217L57.8387 81.084C57.8387 81.084 52.8103 78.1135 51.5043 77.2807C50.1982 76.448 48.8921 78.1529 48.8921 78.1529C48.8921 78.1529 46.4955 78.461 46.1494 80.4676C45.8033 82.4806 57.3815 87.1101 57.3815 87.1101L73.9228 85.3593C73.9228 85.3593 99.1038 86.4609 103.081 86.4544C107.051 86.4478 107.978 85.8511 107.978 85.8511L110.453 76.7299L101.696 72.8152Z" fill="#F69985"/>
<path d="M100.73 70.7104C100.73 70.7104 103.133 71.1038 105.353 72.9858C107.574 74.8677 108.978 77.5299 108.978 77.5299L107.737 82.743C107.737 82.743 107.443 80.9463 106.836 79.3725C106.836 79.3725 106.13 81.7791 104.628 79.3266C103.133 76.8808 101.611 73.1628 101.435 73.9497C101.259 74.7365 100.736 75.7005 99.2148 73.6218L100.73 70.7104Z" fill="#325698"/>
<path d="M47.2725 83.4184C47.2725 83.4184 46.933 81.7201 49.3231 80.6316C49.3231 80.6316 50.714 76.2251 59.1643 75.871C67.608 75.5234 71.2649 83.4184 71.2649 83.4184C71.2649 83.4184 69.1099 88.638 59.2622 88.4609C49.408 88.2904 47.2725 83.4184 47.2725 83.4184Z" fill="#BC561E"/>
<path d="M114.972 53.9238C114.972 53.9238 118.891 52.4878 124.245 54.5008C129.6 56.5139 130.077 63.0253 130.338 66.481C130.599 69.9366 131.122 73.7792 131.644 77.7135C132.167 81.6479 133.949 87.6347 132.996 97.5165C132.043 107.398 130.168 111.549 130.168 111.549C130.168 111.549 126.642 112.552 120.98 111.549C115.318 110.546 96.7724 104.12 94.9439 102.631C93.1154 101.143 91.8942 101.057 96.5111 98.1722C101.128 95.287 106.091 90.6969 106.091 90.6969C106.091 90.6969 107.685 85.2806 107.717 79.4381C107.724 78.7365 107.351 78.0939 106.757 77.7332C105.497 76.9595 103.525 75.0972 104.563 71.3792C106.045 66.0875 106.346 64.6449 106.346 64.6449C106.346 64.6449 105.255 58.6581 105.17 57.8254C105.085 56.9926 111.485 54.8549 111.485 54.8549L114.972 53.9238Z" fill="#325698"/>
<path d="M109.839 55.0647C109.839 55.0647 108.925 57.2089 108.879 60.0941C108.834 62.9793 109.01 64.1137 110.708 64.2449C112.406 64.376 114.972 64.9465 115.671 62.1466C116.37 59.3466 117.715 56.9467 119.367 55.6745C121.026 54.409 122.025 53.3992 117.846 53.2287C113.666 53.0516 109.839 55.0647 109.839 55.0647Z" fill="#223E71"/>
<path d="M109.441 114.074C104.25 118.893 82.7976 134.729 82.7976 134.729L86.3501 148.335L90.5425 164.381L93.7685 176.722C87.1076 185.574 76.8224 179.279 76.8224 179.279C74.8175 173.318 70.3182 160.735 66.2563 149.588C64.7217 145.371 63.2458 141.358 61.9985 137.988C61.7047 137.188 61.4173 136.427 61.1496 135.706C56.7416 123.903 59.9741 121.641 59.9741 121.641C59.9741 121.641 79.3692 108.854 98.1765 98.0345C98.1765 98.0345 108.56 96.3624 115.417 100.979C122.267 105.608 114.633 109.254 109.441 114.074Z" fill="#2C3306"/>
<path d="M90.5425 164.387C78.5659 160.925 70.2267 153.679 66.2562 149.594C64.7216 145.378 63.2458 141.365 61.9985 137.994H75.6272C75.6272 137.994 80.9429 142.775 86.35 148.342L90.5425 164.387Z" fill="#221906"/>
<path d="M125.499 107.779C124.565 111.7 122.247 116.703 117.728 120.611C116.265 121.877 114.567 123.031 112.615 123.988C110.473 125.044 108.017 125.87 105.223 126.368C101.435 127.044 97.7257 127.647 94.3626 128.159C90.0918 128.808 86.3825 129.319 83.7639 129.66C81.2497 129.988 79.7477 130.165 79.7477 130.165C79.7477 130.165 83.0325 132.519 87.2641 135.542C94.1863 140.486 103.629 147.207 105.307 148.263C108.004 149.968 107.051 150.971 107.051 150.971C107.051 150.971 109.141 154.906 107.051 159.581C104.961 164.256 100.429 166.099 100.429 166.099C100.429 166.099 90.0461 159.115 75.7447 151.247C61.4433 143.378 49.003 136.493 49.003 136.493C45.0652 131.483 44.7583 126.755 45.3199 123.45C45.7835 120.716 47.6708 118.434 50.2699 117.477C52.4379 116.677 55.5725 115.608 59.3862 114.565C66.5696 112.598 78.8204 108.402 101.213 101.202C102.33 100.841 103.466 100.48 104.628 100.107C104.628 100.107 127.066 101.189 125.499 107.779Z" fill="#435007"/>
<path d="M119.785 54.1008C119.785 54.1008 115.965 56.5598 115.149 59.7728C114.333 62.9859 113.908 63.1498 111.818 63.0843C109.729 63.0187 109.827 62.3957 109.807 60.5138C109.794 59.4581 109.918 58.1663 110.029 57.2417C110.114 56.5204 110.192 56.0221 110.192 56.0221L108.671 53.9172L110.212 51.8123L115.456 44.6518C115.456 44.6518 115.456 44.6518 116.795 48.5862C118.133 52.5336 119.785 54.1008 119.785 54.1008Z" fill="#F7A391"/>
<path d="M125.499 107.779C124.265 112.972 120.595 120.06 112.615 123.988C116.748 117.68 113.287 109.752 113.287 109.752L110.44 110.801C109.657 109.077 112.615 108.356 112.615 108.356C109.434 101.956 101.206 101.202 101.206 101.202C102.323 100.841 103.459 100.48 104.622 100.107C104.628 100.107 127.066 101.189 125.499 107.779Z" fill="#221906"/>
<path d="M87.2641 135.542C79.9567 132.395 75.6271 130.303 75.6271 130.303L83.5418 129.47C83.5418 129.47 83.6202 129.536 83.7638 129.66C81.2497 129.988 79.7477 130.165 79.7477 130.165C79.7477 130.165 83.039 132.526 87.2641 135.542Z" fill="#221906"/>
<path d="M110.205 51.8189L108.677 53.9041C108.919 54.0746 109.108 54.2713 109.108 54.2713C109.108 54.2713 109.062 54.3303 110.029 55.8123L110.186 56.0287C110.186 56.0287 110.186 56.0352 110.186 56.0483C110.336 56.2778 110.506 56.5401 110.702 56.8287C115.808 53.5697 115.998 50.4156 115.998 50.4156L110.205 51.8189Z" fill="#221906"/>
<path d="M102.284 32.9865C102.284 32.9865 99.2148 34.7569 100.194 41.5765C101.004 47.2223 103.029 51.255 105.144 54.2255C105.908 55.2943 107.286 55.7271 108.514 55.2746C110.427 54.5664 113.281 53.2747 115.279 51.3534C118.545 48.2059 115.606 39.8782 114.953 37.5175C114.3 35.1569 108.227 31.5439 102.284 32.9865Z" fill="#F7A391"/>
<path d="M104.746 37.0126C104.746 37.0126 108.455 39.5174 114.332 40.1732C114.332 40.1732 113.947 40.2191 114.803 42.7436C115.658 45.2682 122.169 44.1075 120.765 40.6977C119.361 37.288 110.12 34.2061 110.12 34.2061L104.746 37.0126Z" fill="#221906"/>
<path d="M114.803 42.7371C114.803 42.7371 116.631 39.4126 118.59 41.5568C120.549 43.701 118.46 47.9829 116.324 47.2419L114.803 42.7371Z" fill="#F7A391"/>
<path d="M101.65 36.311C101.65 36.311 101.644 34.0225 105 31.9111C108.357 29.7996 110.662 29.8849 110.662 29.8849C110.662 29.8849 110.577 28.8488 107.182 29.3668C103.786 29.8849 96.818 33.4258 97.3012 37.8454C97.778 42.2584 97.9086 42.8289 97.9086 42.8289C97.9086 42.8289 96.9094 37.6683 98.0392 36.2716C99.1689 34.8749 100.129 36.2651 101.65 36.311Z" fill="#435007"/>
<path d="M124.468 56.114C124.468 56.114 122.071 56.3762 119.785 59.609C117.5 62.8417 117.846 64.5925 118.46 65.5564C118.46 65.5564 117.154 69.0514 115.802 72.553C114.45 76.048 114.45 76.048 114.45 76.048C114.45 76.048 114.319 77.7529 115.71 79.5037C117.101 81.2545 115.495 81.8184 117.624 85.2282C119.759 88.638 123.762 90.2576 124.2 87.5888C124.2 87.5888 127.772 90.9134 128.51 86.4544C128.51 86.4544 129.378 81.7201 130.077 76.3103C130.776 70.9006 130.946 66.1662 130.338 62.2778C129.731 58.3893 126.688 56.5533 124.468 56.114Z" fill="#325698"/>
<path d="M125.669 78.7037C125.65 78.861 125.617 79.0184 125.584 79.1824C125.323 80.4217 124.97 81.5823 124.559 82.6511C123.233 86.1068 121.313 88.6838 120.033 90.4281C119.322 91.392 118.218 91.9887 117.023 92.0477C97.8696 92.946 76.3587 89.1297 72.1662 88.3428C71.683 88.251 71.1867 88.251 70.7034 88.3363C66.2824 89.11 59.1186 90.0871 59.1186 90.0871C54.2405 88.8215 46.1429 85.2347 46.1429 85.2347C46.5347 82.1331 49.6693 83.3134 52.5426 84.4019C55.4159 85.497 59.3798 85.9757 59.3798 85.9757L65.6032 84.7101L65.5575 84.4019H59.5953C58.2044 82.3495 60.1178 81.6938 62.5144 81.3397C64.4604 81.0577 67.7778 80.3692 68.9598 80.12C69.2471 80.061 69.541 80.0807 69.8088 80.1856L72.7082 81.3003C72.9694 81.3987 73.2372 81.4643 73.5114 81.4971C75.7122 81.7462 86.2195 82.9069 95.2313 83.0249C105.353 83.1561 111.577 82.4348 111.577 82.4348C111.577 82.4348 111.871 82.2511 114.581 77.2217C114.581 77.2217 114.581 77.2217 114.581 77.2152C114.829 76.7562 115.097 76.2578 115.384 75.7201C115.384 75.7201 119.387 74.3562 122.41 74.6972C124.461 74.9332 126.061 75.9496 125.669 78.7037Z" fill="#F7A391"/>
<path d="M125.669 78.7037C125.649 78.8611 125.617 79.0185 125.584 79.1824C125.323 80.4217 124.97 81.5823 124.559 82.6512C124.108 81.5692 123.736 81.4184 123.736 81.4184C123.736 81.4184 123.671 82.1397 122.267 81.4184C120.863 80.6971 118.153 78.7627 116.618 77.5824C115.142 76.4414 114.62 77.1627 114.587 77.2218C114.835 76.7628 115.103 76.2644 115.39 75.7267C115.39 75.7267 119.393 74.3628 122.417 74.7038C123.507 75.6874 124.774 77.0382 125.604 78.566C125.623 78.6119 125.643 78.6578 125.669 78.7037Z" fill="#221906"/>
<path d="M58.5504 77.0119C58.5504 77.0119 60.0327 56.9008 59.7715 53.668C59.5103 50.4353 60.1633 53.5369 60.1633 54.9795C60.1633 56.4221 60.2939 59.5696 60.1633 64.3367C60.0327 69.1038 59.8564 77.0119 59.8564 77.0119C59.8564 77.0119 59.334 77.6217 58.5504 77.0119Z" fill="#435007"/>
<path d="M59.6409 65.4712C59.6409 65.4712 59.4646 63.2876 55.6378 60.1794C51.8045 57.0779 45.4048 59.0844 45.4048 59.0844C45.4048 59.0844 47.3312 58.5598 50.2829 58.7368C53.2281 58.9139 55.5725 60.4876 57.2508 62.6712C58.9552 64.8876 59.0793 65.3334 59.2752 66.3826C59.2686 66.3892 59.876 66.2777 59.6409 65.4712Z" fill="#435007"/>
<path d="M125.643 75.9628C121.379 72.6841 115.534 73.2612 115.534 73.2612L113.98 76.0087C113.98 76.0087 114.809 76.0087 116.154 75.4382C116.154 75.4382 116.239 76.966 119.792 78.7627C121.81 79.7791 122.776 79.7856 123.24 79.5955C123.364 78.9988 122.992 78.6512 122.992 78.6512C123.925 78.8873 124.735 79.7463 124.735 79.7463C124.735 79.7463 124.663 79.7856 124.546 79.8512C125.395 80.5332 126.642 81.7331 127.393 83.3528C128.614 85.9757 128.523 86.4544 128.523 86.4544L129.496 80.5397C129.489 80.5397 129.907 79.2414 125.643 75.9628Z" fill="#325698"/>
<path d="M55.8533 60.6384C55.8533 60.6384 56.428 62.481 52.5489 64.2318C48.6699 65.9826 40.6572 63.1957 40.6572 63.1957C40.6572 63.1957 34.5187 64.14 40.6572 59.4712C46.7957 54.8024 54.4166 57.9433 55.8533 60.6384Z" fill="#84960E"/>
<path d="M60.222 54.1468C60.222 54.1468 60.7706 52.0943 58.5503 48.3764C56.33 44.6584 51.0208 44.8354 51.0208 44.8354C51.0208 44.8354 52.7187 49.8649 55.4157 51.9632C58.1193 54.0615 60.222 54.1468 60.222 54.1468Z" fill="#A4BB30"/>
<path d="M54.7106 59.327C52.1377 58.3762 50.5312 58.2516 50.4659 58.2516C50.4594 58.2516 50.4594 58.2516 50.4529 58.2516C50.0088 58.2451 49.5908 58.2516 49.186 58.2647C49.1729 58.2582 49.1598 58.2516 49.1403 58.2516C45.4963 57.4516 43.3283 58.2319 43.2369 58.2647C43.1324 58.3041 43.0867 58.4155 43.1193 58.5205C43.1454 58.5992 43.2238 58.6516 43.3022 58.6516C43.3218 58.6516 43.3479 58.645 43.3675 58.6385C43.3871 58.6319 44.9805 58.0549 47.7101 58.409C45.7118 58.6844 44.2556 59.2942 43.2434 59.904C40.8598 60.127 39.175 61.163 39.1032 61.2024C39.0117 61.2614 38.9856 61.3794 39.0379 61.4712C39.0966 61.563 39.2142 61.5893 39.3056 61.5368C39.3187 61.5302 40.6117 60.7303 42.4924 60.3958C41.1929 61.3598 40.7031 62.2909 40.6835 62.3302C40.6313 62.4286 40.6704 62.5466 40.7684 62.5925C40.7945 62.6056 40.8272 62.6122 40.8598 62.6122C40.9316 62.6122 40.997 62.5728 41.0361 62.5073C41.0427 62.4942 41.5651 61.504 42.9691 60.5335C43.0671 60.468 43.165 60.4024 43.2695 60.3368C43.5699 60.6647 44.4711 61.7598 45.0262 63.6023C45.0523 63.6876 45.1307 63.74 45.2155 63.74C45.2351 63.74 45.2547 63.74 45.2743 63.7335C45.3788 63.7007 45.4376 63.5892 45.4049 63.4909C44.8564 61.6548 43.9878 60.5467 43.6156 60.127C44.8564 59.4188 46.7436 58.7368 49.4407 58.645C49.4602 58.6647 49.4798 58.6844 49.506 58.6975C49.519 58.7041 50.9165 59.4319 51.883 62.9794C51.9091 63.0646 51.9875 63.1237 52.0724 63.1237C52.092 63.1237 52.105 63.1237 52.1246 63.1171C52.2291 63.0909 52.2879 62.9794 52.2618 62.8745C51.5565 60.2778 50.6031 59.1106 50.0741 58.6385C50.1916 58.6385 50.3092 58.6385 50.4267 58.645C50.5182 58.6516 52.0985 58.7959 54.5604 59.7008C54.6649 59.7401 54.7759 59.6877 54.8151 59.5827C54.8543 59.4778 54.8151 59.3663 54.7106 59.327Z" fill="#221906"/>
<path d="M60.2157 53.3664C59.9349 52.0812 59.3472 50.9533 58.6484 49.9894C58.6354 49.9632 58.6223 49.9435 58.6027 49.9304C57.8191 48.8681 56.8983 48.0091 56.0886 47.3731C54.4168 46.0551 52.9083 45.3928 52.843 45.36C52.745 45.3141 52.6275 45.36 52.5883 45.4649C52.5426 45.5633 52.5883 45.6813 52.6928 45.7206C52.7124 45.7272 53.2936 45.9895 54.1164 46.4878L52.745 46.6583C52.6405 46.6714 52.5622 46.7698 52.5752 46.8747C52.5883 46.9731 52.6732 47.0452 52.7712 47.0452C52.7777 47.0452 52.7842 47.0452 52.7973 47.0452L54.6454 46.8157C55.7229 47.5239 57.055 48.5665 58.126 49.9304C57.6754 49.9829 56.7024 50.0419 55.0568 49.8779C54.9523 49.8648 54.8543 49.9435 54.8413 50.055C54.8282 50.1599 54.9066 50.2583 55.0176 50.2714C55.8535 50.3566 56.5196 50.3828 57.0355 50.3828C57.7603 50.3828 58.1913 50.3304 58.3938 50.2911C59.0533 51.2091 59.5823 52.2648 59.8435 53.4517C59.8631 53.5435 59.9414 53.609 60.0329 53.609C60.0459 53.609 60.059 53.609 60.0721 53.6025C60.17 53.5762 60.2353 53.4713 60.2157 53.3664Z" fill="#221906"/>
<path d="M115.997 44.6388C115.984 44.6388 115.978 44.6388 115.965 44.6388C115.86 44.6191 115.789 44.5207 115.808 44.4093C116.011 43.2289 116.415 42.5011 117.003 42.2585C117.656 41.9896 118.263 42.4224 118.29 42.4421C118.375 42.5077 118.394 42.6257 118.335 42.7175C118.27 42.8027 118.152 42.8224 118.061 42.7634C118.055 42.7568 117.597 42.4355 117.147 42.6257C116.696 42.8093 116.37 43.4519 116.193 44.4748C116.174 44.5732 116.089 44.6388 115.997 44.6388Z" fill="black"/>
<path d="M116.52 46.1928C116.435 46.1928 116.363 46.1403 116.331 46.0551C116.298 45.9501 116.357 45.8387 116.455 45.8059C116.487 45.7928 117.206 45.5436 117.167 44.6649C117.134 43.8125 116.239 43.7535 116.2 43.7469C116.089 43.7403 116.011 43.6485 116.017 43.5371C116.024 43.4256 116.115 43.3469 116.22 43.3535C116.664 43.3797 117.513 43.6748 117.558 44.6452C117.598 45.5895 116.932 46.0616 116.572 46.1796C116.559 46.1862 116.54 46.1928 116.52 46.1928Z" fill="black"/>
<path d="M99.2604 95.9821C99.2604 95.9821 101.873 95.6739 104.615 96.7231C104.615 96.7231 113.281 96.3755 119.289 101.621C119.289 101.621 125.081 102.1 128.039 103.149C130.998 104.198 131.932 103.169 132.095 104.205C132.258 105.241 130.168 111.542 130.168 111.542C130.168 111.542 130.475 110.316 127.21 110.015C123.945 109.713 119.459 109.49 116.546 107.175L116.984 106.303C116.984 106.303 115.109 104.684 109.278 102.716C103.446 100.749 101.618 100.992 101.618 100.992C101.618 100.992 101.226 100.579 101.618 100.008C101.618 100.008 96.4915 99.0115 93.3961 100.664C93.3961 100.664 92.3448 100.179 94.5651 98.9132C96.7854 97.6476 99.2604 95.9821 99.2604 95.9821Z" fill="#325698"/>
<path d="M110.075 193.351C108.285 193.351 107.005 192.833 106.176 192.328C105.621 191.987 105.301 191.377 105.34 190.721C105.34 190.689 105.347 190.656 105.347 190.623L105.353 190.551C105.353 190.525 105.373 190.505 105.392 190.492C105.412 190.485 105.445 190.485 105.458 190.505C106.28 191.213 107.991 192.013 111.446 191.784C111.465 191.784 111.485 191.79 111.498 191.803C111.511 191.816 111.518 191.836 111.518 191.856C111.511 192.072 111.537 192.649 111.785 192.761C111.936 192.826 112.171 192.708 112.465 192.42C112.491 192.394 112.53 192.394 112.556 192.42C112.582 192.446 112.582 192.485 112.563 192.512C112.164 192.964 111.942 193.167 111.936 193.174C111.929 193.18 111.916 193.187 111.903 193.193C111.237 193.298 110.63 193.351 110.075 193.351ZM105.471 190.689C105.471 190.702 105.471 190.715 105.471 190.728C105.438 191.331 105.732 191.902 106.248 192.216C107.306 192.866 109.134 193.534 111.857 193.056C111.883 193.03 111.942 192.971 112.034 192.879C111.923 192.918 111.818 192.918 111.727 192.879C111.407 192.734 111.381 192.144 111.381 191.921C110.995 191.948 110.623 191.954 110.277 191.954C107.671 191.954 106.241 191.305 105.471 190.689Z" fill="#F15A24"/>
<path d="M124.944 163.738C124.944 163.738 124.552 171.214 119.981 180.525C116.99 186.61 114.45 190.118 113.053 191.823C113.033 191.843 113.02 191.862 113 191.882L112.994 191.889C112.811 192.112 112.648 192.302 112.504 192.459C112.099 192.912 111.884 193.115 111.884 193.115C109.076 193.613 107.208 192.879 106.209 192.269C105.673 191.941 105.366 191.351 105.399 190.721C105.406 190.669 105.406 190.61 105.406 190.551C105.497 188.984 105.66 185.895 105.797 182.938C106.261 182.013 107.038 181.148 108.351 180.958C111.4 180.518 113.66 186.905 113.66 186.905C113.66 186.905 117.056 183.226 119.713 175.6C121.62 170.119 121.842 164.715 121.816 162.112C123.579 163.03 124.944 163.738 124.944 163.738Z" fill="#221906"/>
<path d="M108.855 172.906C110.056 172.356 110.844 171.502 110.615 170.998C110.386 170.494 109.227 170.531 108.026 171.081C106.825 171.631 106.037 172.485 106.266 172.989C106.495 173.493 107.655 173.456 108.855 172.906Z" fill="#435007"/>
<path d="M85.7663 189.641C87.0783 189.494 88.0924 188.929 88.0314 188.378C87.9704 187.828 86.8575 187.5 85.5455 187.646C84.2335 187.793 83.2194 188.358 83.2804 188.909C83.3414 189.459 84.4544 189.787 85.7663 189.641Z" fill="#435007"/>
<path d="M108.795 171.568C108.795 171.568 111.087 168.282 114.463 166.46C114.822 166.263 115.273 166.46 115.384 166.86L115.606 167.666C115.736 168.132 115.449 168.61 114.979 168.715C113.594 169.043 110.832 169.948 108.795 172.309C108.795 172.309 106.124 171.915 102.943 172.25C102.643 172.282 102.395 172.02 102.441 171.718C102.48 171.476 102.571 171.181 102.767 170.84C102.924 170.577 103.211 170.42 103.518 170.44C104.374 170.492 106.346 170.696 108.795 171.568Z" fill="#435007"/>
<path d="M108.795 172.571C108.795 172.571 111.276 171.174 115.848 172.918C115.848 172.918 117.154 172.263 116.024 171.476C114.894 170.689 111.302 170.997 108.795 171.987C108.795 171.987 105.739 172.243 104.668 174.322C104.335 174.964 104.387 175.745 104.785 176.354C104.883 176.499 104.988 176.656 105.099 176.807C105.242 177.01 105.562 176.912 105.562 176.656C105.556 175.364 105.934 172.905 108.795 172.571Z" fill="#435007"/>
<path d="M85.7557 208.878C84.9329 208.878 83.9795 208.833 82.8824 208.721C82.8693 208.721 82.8628 208.715 82.8497 208.708C82.8236 208.688 82.1771 208.229 81.8375 206.97C81.831 206.944 81.8375 206.918 81.8571 206.905C81.8767 206.885 81.9028 206.885 81.929 206.898C83.0261 207.423 85.2333 207.777 89.5303 206.498C89.5498 206.492 89.576 206.498 89.5956 206.511C89.6151 206.524 89.6217 206.551 89.6151 206.57C89.5629 206.839 89.4976 207.567 89.7849 207.738C89.9613 207.842 90.2747 207.724 90.6861 207.39C90.7122 207.37 90.7514 207.37 90.7775 207.397C90.8037 207.423 90.8037 207.462 90.7775 207.488C90.5425 207.751 90.3008 208.006 90.0592 208.249C90.0527 208.256 90.0462 208.256 90.0396 208.262C89.9743 208.288 88.7531 208.878 85.7557 208.878ZM82.915 208.597C87.8062 209.088 89.8176 208.216 89.9678 208.144C90.0788 208.033 90.1898 207.915 90.3008 207.803C90.0592 207.928 89.8633 207.941 89.7196 207.849C89.3735 207.646 89.4388 206.924 89.4715 206.649C85.3574 207.856 83.1501 207.567 82.0073 207.069C82.3143 208.092 82.8236 208.524 82.915 208.597Z" fill="#F15A24"/>
<path d="M102.153 185.64C102.153 185.64 97.3992 200.013 90.7252 207.436C90.4901 207.698 90.2485 207.954 90.0068 208.197C90.0068 208.197 88.0477 209.18 82.8888 208.656C82.8888 208.656 82.2423 208.203 81.9027 206.951C81.6872 206.17 81.5958 205.088 81.8439 203.606C81.9158 203.187 81.9811 202.636 82.0464 201.987C83.679 199.974 87.5188 196.459 90.7186 203.082C90.7186 203.082 94.1144 199.541 96.9224 192.853C98.6269 188.794 99.3909 185.318 99.7305 183.213C100.534 183.915 101.35 184.722 102.153 185.64Z" fill="#221906"/>
<path d="M85.6512 188.439C85.6512 188.439 88.0152 184.735 92.815 185.2C93.2068 185.24 93.5072 185.567 93.5072 185.967V187.003C93.5072 187.003 90.2877 185.908 85.6512 189.148C85.6512 189.148 82.0987 186.964 79.4866 188.407L79.9894 186.682C80.1527 186.131 80.662 185.758 81.2367 185.777C82.2946 185.81 84.0252 186.262 85.6512 188.439Z" fill="#435007"/>
<path d="M85.6513 188.879C85.6513 188.879 88.1981 187.613 92.2861 190.059L91.5482 191.921C91.5482 191.921 89.8503 189.358 85.6513 189.358C85.6513 189.358 82.6212 189.672 82.4057 191.921C82.4057 191.921 81.1454 190.544 82.4057 189.403C83.6661 188.262 85.6513 188.879 85.6513 188.879Z" fill="#435007"/>
<path d="M129.724 79.9234C127.53 76.2448 125.656 74.9595 125.062 74.6186C125.14 74.4874 125.212 74.3563 125.29 74.2317C125.343 74.1399 125.31 74.0153 125.218 73.9628C125.127 73.9104 125.003 73.9432 124.951 74.035C124.781 74.33 124.605 74.6251 124.422 74.9202C121.849 73.353 118.747 73.0973 117.774 73.0579C117.839 72.9137 117.905 72.7563 117.97 72.5989C118.009 72.5006 117.963 72.3825 117.865 72.3432C117.767 72.3038 117.65 72.3497 117.611 72.4481C117.526 72.6579 117.441 72.8547 117.356 73.0383C116.37 72.9792 115.789 73.1432 115.482 73.294C117.46 68.8744 119.935 62.5663 119.968 62.4876C120.007 62.3893 119.955 62.2712 119.857 62.2319C119.759 62.1925 119.642 62.245 119.602 62.3434C119.563 62.4417 115.73 72.212 113.797 75.9169C113.745 76.0218 113.581 76.33 113.784 76.5202C113.934 76.6579 114.208 76.7103 115.234 76.1857C115.573 76.0087 115.893 75.8251 116.083 75.7136C116.514 76.3956 118.257 78.8546 121.261 79.6152C122.476 79.9234 123.148 79.884 123.364 79.5037C123.462 79.3267 123.436 79.1168 123.357 78.9004C124.161 79.5103 125.395 80.5988 126.518 82.2381C128.34 84.9003 128.32 86.4347 128.32 86.4479C128.314 86.5593 128.399 86.6446 128.51 86.6511H128.516C128.621 86.6511 128.706 86.5659 128.712 86.461C128.712 86.3954 128.745 84.802 126.838 82.0152C125.238 79.6742 123.436 78.4349 122.861 78.0808C123.148 77.6611 123.906 76.5202 124.657 75.3005C124.722 75.189 124.794 75.0776 124.859 74.9661C125.388 75.2743 127.23 76.5267 129.391 80.1398C129.431 80.1988 129.496 80.2381 129.561 80.2381C129.594 80.2381 129.633 80.2316 129.659 80.2119C129.751 80.1398 129.783 80.0217 129.724 79.9234ZM116.024 75.2874C115.201 75.7989 114.372 76.1989 114.097 76.2185C114.104 76.1923 114.123 76.153 114.15 76.1005C114.47 75.4841 114.848 74.6972 115.247 73.812C115.319 73.8448 115.403 73.8251 115.462 73.7661C115.469 73.7596 115.887 73.3727 117.173 73.4251C116.605 74.5595 116.115 75.1694 116.024 75.2874ZM122.417 78.0218C122.417 78.0283 122.41 78.0283 122.41 78.0349C122.404 78.0415 122.404 78.048 122.397 78.0546C122.397 78.0611 122.391 78.0677 122.391 78.0677C122.391 78.0742 122.384 78.0808 122.384 78.0873C122.384 78.0939 122.384 78.1005 122.378 78.107C122.378 78.1136 122.378 78.1201 122.378 78.1267C122.378 78.1333 122.378 78.1398 122.378 78.1464C122.378 78.1529 122.378 78.1595 122.378 78.166C122.378 78.1726 122.378 78.1792 122.378 78.1792C122.378 78.1857 122.384 78.1923 122.384 78.1988C122.384 78.2054 122.384 78.2054 122.391 78.2119C122.391 78.2185 122.397 78.2251 122.404 78.2316C122.404 78.2382 122.41 78.2382 122.41 78.2447C122.417 78.2513 122.417 78.2578 122.423 78.2644C122.423 78.271 122.43 78.271 122.43 78.2775C122.776 78.6316 123.103 79.1365 123.011 79.307C122.985 79.3595 122.77 79.589 121.346 79.2283C118.447 78.5005 116.736 76.0218 116.376 75.4579C116.572 75.2087 117.056 74.553 117.585 73.4448C118.257 73.4645 121.568 73.6481 124.206 75.2546C123.318 76.7103 122.43 78.0087 122.417 78.0218Z" fill="#221906"/>
<path d="M111.557 59.0647C111.544 59.0647 111.531 59.0647 111.511 59.0581C111.407 59.0319 111.341 58.927 111.361 58.8221L111.505 58.1795L109.376 55.2287C109.311 55.1434 109.33 55.0189 109.422 54.9533C109.506 54.8877 109.631 54.9074 109.696 54.9992L111.877 58.0221C111.91 58.068 111.923 58.127 111.91 58.1795L111.746 58.9073C111.727 58.9991 111.648 59.0647 111.557 59.0647Z" fill="#221906"/>
<path d="M107.815 78.7758C107.436 77.9299 105.784 76.6644 105.667 76.5726C104.093 75.2349 104.067 73.2087 105.549 68.5334C106.947 64.14 107.41 59.7138 107.417 59.6679C107.43 59.563 107.352 59.4647 107.241 59.4516C107.129 59.4384 107.038 59.5171 107.025 59.6286C107.025 59.6548 106.842 61.3532 106.379 63.6744C106.091 62.0482 105.588 59.2155 105.582 59.1827C105.562 59.0778 105.458 59.0057 105.353 59.0253C105.249 59.045 105.177 59.1434 105.197 59.2548C105.203 59.3007 105.98 63.6744 106.156 64.6711C106.156 64.6842 106.163 64.6908 106.163 64.7039C105.902 65.8711 105.582 67.1498 105.177 68.4219C104.766 69.7071 104.452 70.8415 104.263 71.8448C103.858 71.3005 103.446 71.0579 103.179 70.9464C103.205 70.9071 103.237 70.8743 103.264 70.835C103.459 70.5727 103.766 70.1005 103.649 69.8579C103.61 69.7792 103.531 69.7268 103.446 69.7202C103.362 69.7202 103.139 69.7071 102.63 70.6186C102.578 70.7104 102.611 70.835 102.702 70.8874C102.708 70.8874 102.708 70.894 102.715 70.894C102.637 70.9989 102.545 71.1104 102.447 71.2284C101.363 70.6317 100.625 70.7235 100.593 70.7235C100.527 70.73 100.475 70.7694 100.442 70.8284L99.0319 73.5366C99.0058 73.5825 99.0058 73.6415 99.0188 73.6939C99.1886 74.1857 99.7437 75.0447 100.704 75.0447L99.2278 78.2447C99.1821 78.343 99.2278 78.4611 99.3258 78.507C99.3519 78.5201 99.378 78.5266 99.4107 78.5266C99.4825 78.5266 99.5543 78.4873 99.587 78.4152L101.481 74.3038C101.775 74.6316 102.153 75.1824 102.643 76.1004C102.878 76.5463 103.113 77.0119 103.342 77.4578C104.367 79.484 104.968 80.6184 105.562 80.5069C105.908 80.4414 106.104 79.9955 106.209 79.0315C106.222 79.0315 106.228 79.0381 106.241 79.0447C106.379 79.1037 106.731 79.3988 107.084 80.8151C107.103 80.9069 107.188 80.9659 107.273 80.9659C107.286 80.9659 107.306 80.9659 107.319 80.9594C107.423 80.9331 107.489 80.8282 107.463 80.7233C107.175 79.5824 106.829 78.9004 106.424 78.6971L106.868 78.1857C107.123 78.4545 107.345 78.7234 107.443 78.9529C107.73 79.5889 107.6 81.9036 107.528 82.743C107.521 82.8479 107.6 82.9462 107.704 82.9593C107.711 82.9593 107.717 82.9593 107.724 82.9593C107.822 82.9593 107.907 82.8807 107.92 82.7823C107.959 82.4413 108.194 79.6217 107.815 78.7758ZM100.9 74.6382H100.893C99.9788 74.7628 99.5413 73.9038 99.4302 73.6415L100.749 71.1104C100.958 71.1104 101.494 71.1563 102.206 71.5366C101.468 72.4349 100.573 73.471 100.547 73.4972C100.495 73.5562 100.331 73.7857 100.508 74.271C100.547 74.3759 100.658 74.4283 100.756 74.389C100.86 74.3497 100.913 74.2382 100.873 74.1398C100.808 73.9628 100.815 73.8513 100.821 73.7989C100.88 73.8054 100.998 73.8382 101.187 74.0021L100.9 74.6382ZM105.823 78.7955C105.758 78.8676 105.758 78.9725 105.817 79.0512C105.699 80.061 105.503 80.1135 105.497 80.1135C105.477 80.12 105.294 80.1266 104.818 79.366C104.478 78.8283 104.099 78.0742 103.695 77.2742C103.466 76.8217 103.231 76.3562 102.996 75.9103C102.258 74.5136 101.611 73.7005 101.089 73.471C101.507 72.9857 102.349 71.989 102.924 71.2743C103.126 71.3399 103.616 71.5628 104.099 72.3038C104.119 72.33 104.145 72.3562 104.171 72.3694C103.871 74.3824 104.171 75.8316 105.412 76.8873L105.419 76.8939C105.432 76.9004 106.039 77.366 106.594 77.9037L105.823 78.7955Z" fill="#221906"/>
<path d="M129.94 110.651C129.013 109.975 128.327 109.903 125.453 109.608C124.689 109.529 123.743 109.431 122.6 109.306C118.486 108.841 117.186 107.693 116.833 107.261C116.964 107.195 117.114 107.103 117.212 106.972C117.434 106.769 119.23 105.011 119.524 100.631C119.53 100.52 119.452 100.428 119.341 100.421C119.23 100.415 119.139 100.494 119.132 100.605C118.91 103.916 117.787 105.68 117.238 106.362C116.827 105.608 114.881 104.762 111.72 103.451C111.322 103.287 110.924 103.116 110.519 102.952C106.365 101.202 103.237 100.92 101.899 100.802C101.539 100.769 101.422 100.684 101.409 100.638C101.383 100.546 101.553 100.31 101.729 100.166C101.729 100.166 101.729 100.159 101.735 100.159C101.748 100.153 101.755 100.139 101.761 100.133C101.761 100.133 101.768 100.133 101.768 100.126C101.788 100.1 103.734 97.3395 105.131 96.1002C105.21 96.028 105.223 95.9034 105.151 95.8247C105.079 95.7461 104.955 95.7329 104.876 95.8051C103.577 96.9526 101.892 99.2804 101.52 99.805C101.135 99.746 99.835 99.5821 97.3209 99.5427C94.9504 99.5099 93.8076 99.6739 93.3896 100.126C93.246 100.284 93.1806 100.467 93.1937 100.69C93.2002 100.795 93.2851 100.874 93.3896 100.874C93.3962 100.874 93.4027 100.874 93.4027 100.874C93.5137 100.867 93.5921 100.769 93.5855 100.664C93.579 100.553 93.6051 100.474 93.6769 100.402C94.1014 99.9493 95.9626 99.923 97.3209 99.9427C99.391 99.9755 100.638 100.094 101.213 100.166C101.089 100.336 100.984 100.553 101.05 100.762C101.167 101.143 101.703 101.189 101.886 101.202C103.205 101.32 106.28 101.602 110.382 103.326C110.786 103.497 111.185 103.661 111.583 103.831C113.033 104.434 114.404 105.005 115.403 105.516C116.794 106.225 116.938 106.566 116.938 106.677C116.938 106.782 116.768 106.907 116.481 107.011C116.429 107.031 116.389 107.07 116.37 107.116C116.35 107.169 116.35 107.221 116.37 107.274C116.402 107.346 117.199 109.116 122.567 109.72C123.71 109.851 124.663 109.949 125.421 110.021C128.209 110.31 128.869 110.375 129.711 110.992C129.744 111.018 129.783 111.031 129.829 111.031C129.888 111.031 129.946 111.005 129.986 110.952C130.044 110.841 130.025 110.716 129.94 110.651Z" fill="#1E355F"/>
<path d="M117.689 107.995C117.643 107.897 117.532 107.851 117.428 107.897C117.382 107.916 112.909 109.903 100.847 113.916C88.7857 117.936 63.8269 124.014 63.5722 124.073C63.4938 124.093 63.4416 124.152 63.4285 124.231C63.4154 124.309 63.4481 124.388 63.5134 124.428C63.5395 124.441 65.8774 126.027 65.9231 128.178C65.9492 129.477 65.1394 130.729 63.5069 131.909C63.4481 131.949 63.422 132.014 63.4285 132.086C63.435 132.152 63.4742 132.218 63.5395 132.244C63.6114 132.283 71.0102 135.942 78.8205 139.778C85.0569 142.84 99.4824 151.227 105.138 154.538C105.112 154.768 105.079 155.004 105.04 155.24C98.4702 151.601 80.1918 141.49 75.5357 139.044C70.4747 136.388 63.3567 132.978 61.7959 132.237C62.5273 131.713 64.4407 130.224 64.9827 128.526C65.5639 126.723 62.8342 124.447 61.8482 123.7C65.2766 122.795 89.8045 116.29 98.5551 113.444C107.92 110.395 115.508 107.503 115.586 107.477C115.684 107.438 115.736 107.326 115.697 107.221C115.658 107.123 115.547 107.07 115.443 107.11C115.364 107.136 107.782 110.028 98.431 113.077C89.0731 116.119 61.6261 123.359 61.3519 123.437C61.28 123.457 61.2213 123.516 61.2082 123.595C61.1951 123.673 61.2278 123.746 61.2866 123.791C61.3257 123.818 65.2113 126.552 64.6105 128.421C63.9901 130.362 61.3192 132.1 61.2931 132.119C61.2343 132.159 61.2017 132.224 61.2017 132.296C61.2082 132.368 61.2474 132.434 61.3127 132.46C61.3976 132.5 69.6715 136.427 75.3463 139.404C80.0351 141.863 98.5029 152.086 104.961 155.666C104.916 155.896 104.87 156.132 104.818 156.368C103.89 160.42 101.696 162.912 98.3069 163.765C98.2025 163.791 98.1371 163.896 98.1633 164.001C98.1829 164.092 98.2678 164.151 98.3527 164.151C98.3657 164.151 98.3853 164.151 98.3984 164.145C100.351 163.653 101.944 162.624 103.133 161.076C104.08 159.843 104.772 158.289 105.196 156.453C105.242 156.256 105.281 156.06 105.321 155.863C106.476 156.499 107.162 156.886 107.208 156.906C107.24 156.925 107.273 156.932 107.299 156.932C107.371 156.932 107.436 156.893 107.469 156.834C107.521 156.735 107.489 156.617 107.391 156.565C107.345 156.538 106.614 156.132 105.392 155.456C105.432 155.22 105.464 154.991 105.49 154.768C106.698 155.476 107.417 155.902 107.456 155.922C107.489 155.942 107.521 155.948 107.554 155.948C107.619 155.948 107.684 155.916 107.724 155.85C107.776 155.758 107.75 155.634 107.652 155.581C107.613 155.555 106.829 155.096 105.536 154.335C105.771 152.139 105.575 150.434 105.575 150.414C105.562 150.309 105.464 150.23 105.36 150.243C105.255 150.257 105.177 150.355 105.19 150.46C105.19 150.48 105.366 152.053 105.17 154.119C99.4106 150.748 85.1679 142.473 78.9772 139.431C72.0355 136.021 65.4203 132.755 63.9836 132.041C65.5509 130.834 66.328 129.536 66.3018 128.178C66.2627 126.329 64.7607 124.919 64.0619 124.362C67.3532 123.555 89.7261 118.034 100.958 114.29C113.039 110.27 117.532 108.277 117.571 108.257C117.689 108.211 117.735 108.093 117.689 107.995Z" fill="#221906"/>
<path d="M92.7692 174.872C92.6909 174.8 92.5668 174.807 92.4949 174.886C92.4819 174.899 91.1693 176.328 88.7596 177.331C88.5767 177.41 88.3874 177.482 88.1849 177.554L82.497 155.692C82.4709 155.588 82.3599 155.522 82.2554 155.555C82.1509 155.581 82.0856 155.692 82.1183 155.797L87.8127 177.686C87.5384 177.771 87.2511 177.856 86.9507 177.935L80.8579 155.24C80.8318 155.135 80.7208 155.076 80.6163 155.102C80.5118 155.129 80.453 155.24 80.4792 155.345L86.5654 178.027C84.4169 178.486 81.5893 178.525 78.2066 177.292C78.1021 177.253 77.9911 177.305 77.9584 177.41C77.9258 177.515 77.9715 177.627 78.076 177.659C80.009 178.361 81.9158 178.722 83.7508 178.722C83.9402 178.722 84.1231 178.715 84.3125 178.708C85.1157 178.676 85.8993 178.577 86.6699 178.407L87.0813 179.935C87.1074 180.02 87.1858 180.079 87.2707 180.079C87.2903 180.079 87.3033 180.079 87.3229 180.072C87.4274 180.046 87.4862 179.935 87.4601 179.83L87.0552 178.315C87.3425 178.243 87.6299 178.158 87.9172 178.066L88.2959 179.535C88.3221 179.62 88.4004 179.679 88.4853 179.679C88.5049 179.679 88.518 179.679 88.5376 179.672C88.6421 179.646 88.7074 179.535 88.6747 179.43L88.2829 177.935C88.4984 177.856 88.7139 177.777 88.9294 177.686C91.4109 176.65 92.73 175.213 92.7888 175.148C92.8606 175.069 92.8541 174.945 92.7692 174.872Z" fill="#221906"/>
<path d="M119.367 52.3304C123.697 45.3403 122.743 40.1732 121.868 37.8323C121.64 37.3405 121.418 36.8749 121.202 36.4356C119.446 32.8553 118.185 31.0783 117.088 30.2849C115.763 29.3209 111.191 28.6259 106.751 30.8553C102.31 33.0848 102.049 36.2323 102.049 36.2323C105.099 38.5929 112.844 38.0224 116.794 39.9044C120.745 41.7732 120.242 46.0354 119.367 52.3304Z" fill="#435007"/>
<path d="M75.6466 130.696C75.5487 130.696 75.4572 130.618 75.4507 130.519C75.4442 130.408 75.5225 130.316 75.627 130.309C75.7054 130.303 83.8683 129.608 92.4622 128.25C93.3895 128.106 94.356 127.962 95.3682 127.811C103.747 126.565 114.175 125.018 118.028 119.378C118.087 119.287 118.211 119.267 118.303 119.326C118.394 119.385 118.414 119.51 118.355 119.601C114.404 125.385 103.884 126.946 95.4269 128.198C94.4082 128.349 93.4483 128.493 92.521 128.637C83.914 129.995 75.738 130.69 75.6597 130.696C75.6531 130.696 75.6531 130.696 75.6466 130.696Z" fill="#221906"/>
<path d="M117.728 120.611C116.265 121.877 114.568 123.031 112.615 123.988C110.473 125.044 108.018 125.87 105.223 126.368C101.435 127.044 97.7259 127.647 94.3628 128.159C95.0877 126.46 97.1121 124.546 102.088 123.221C113.157 120.27 116.194 116.533 116.194 116.533C116.194 116.533 117.049 118.08 117.728 120.611Z" fill="#221906"/>
</svg>
