<svg width="80" height="122" viewBox="0 0 80 122" fill="none" xmlns="http://www.w3.org/2000/svg">
<path d="M80 54.2449C80 54.3449 80 54.4411 80 54.5412C79.9894 57.5695 79.8016 60.3824 79.4545 62.9836C78.3741 71.0952 75.735 77.2173 71.9447 81.7425C71.803 81.9118 71.6578 82.0811 71.5126 82.2466C70.0283 83.932 68.3811 85.3865 66.5887 86.6333C65.7669 87.2066 64.9132 87.7338 64.0312 88.2187C63.6557 88.4264 63.2731 88.6265 62.887 88.8189C62.4513 89.0344 62.0085 89.2422 61.5586 89.4423C60.542 89.8925 59.4934 90.2927 58.4201 90.6467C58.1863 90.7237 57.9525 90.8006 57.7152 90.8738C57.6514 90.893 57.5876 90.9122 57.5239 90.9315C55.7173 91.4817 53.8363 91.905 51.8951 92.2244C51.5586 92.2783 51.2185 92.3321 50.8749 92.3783C50.4534 92.4399 50.0318 92.4938 49.6032 92.5438C49.3198 92.5784 49.0329 92.6092 48.746 92.6361C48.6114 92.6515 48.4768 92.6631 48.3386 92.6746C48.1686 92.69 47.995 92.7054 47.825 92.7208C47.5416 92.7439 47.2547 92.767 46.9677 92.79C45.8873 92.867 44.7892 92.917 43.684 92.9401C43.1668 92.9517 42.6461 92.9555 42.1218 92.9555C40.4569 92.9555 38.8168 92.9016 37.2086 92.7824C36.7587 92.7477 36.3124 92.7131 35.8696 92.6708C34.5873 92.5476 33.3297 92.386 32.0935 92.1744C31.8774 92.1397 31.6613 92.1013 31.4452 92.0589C29.8831 91.7742 28.3634 91.4125 26.8933 90.9738C26.5108 90.8584 26.1317 90.7391 25.7562 90.6159C25.2816 90.4582 24.814 90.2927 24.3535 90.1157C24.2862 90.0926 24.2224 90.0657 24.1551 90.0387C22.4654 89.3846 20.8501 88.6111 19.3269 87.6992C10.17 82.2351 4.24719 71.9379 4.24719 54.2372C4.24719 24.2807 21.2043 0 42.1218 0C63.0393 0 80 24.2884 80 54.2449Z" fill="#D3E680"/>
<path d="M32.2175 72.9307C50.0108 72.9307 64.435 57.2618 64.435 37.9333C64.435 18.6048 50.0108 2.936 32.2175 2.936C14.4243 2.936 0 18.6048 0 37.9333C0 57.2618 14.4243 72.9307 32.2175 72.9307Z" fill="#86DFB5"/>
<path d="M63.6239 37.9333C63.6239 42.5393 62.795 47.0068 61.1549 51.2126C59.5714 55.2761 57.3079 58.924 54.4244 62.0562C51.541 65.1885 48.1793 67.6512 44.4421 69.3674C40.5704 71.1451 36.4577 72.0494 32.2175 72.0494C27.9774 72.0494 23.8647 71.149 19.993 69.3674C16.2523 67.6512 12.8941 65.1885 10.0107 62.0562C7.1272 58.924 4.86011 55.2761 3.28023 51.2126C3.24126 51.1087 3.19876 51.0048 3.15979 50.9009C5.22851 54.7528 8.78501 57.6926 13.2625 59.5319C13.514 60.4401 14.2721 61.2866 13.9958 62.1832C13.9143 62.4526 13.7443 62.6834 13.6628 62.9528C13.6203 63.099 13.6026 63.2529 13.599 63.4069C13.592 63.5531 13.599 63.6993 13.592 63.8455C13.5813 64.2803 13.5034 64.7152 13.3688 65.123C14.1127 65.7349 14.8849 66.3121 15.6784 66.8469C15.7492 66.7969 15.8165 66.7353 15.8803 66.6699C16.1779 66.3775 16.4719 66.085 16.7694 65.7887C17.0103 65.5502 17.2512 65.3078 17.4956 65.0692C18.5123 64.061 19.5502 63.0221 20.1524 61.6753C20.1949 61.5829 20.2338 61.4906 20.2693 61.3944C25.7705 62.1794 31.9873 61.6445 38.2678 59.5781C39.8973 59.0432 41.4701 58.4237 42.9792 57.7311C43.2271 59.3703 43.553 60.9942 43.9568 62.5949C44.0844 63.1029 44.2827 63.6801 44.7432 63.8417C44.8247 63.5146 45.1471 63.3107 45.4588 63.2876C45.7705 63.2645 46.0751 63.3799 46.3692 63.4954C46.8651 63.6878 47.3646 63.884 47.8605 64.0764C49.3801 63.453 50.8006 62.1062 51.4241 60.4785C51.5551 60.1399 51.6579 59.7744 51.6083 59.4088C51.5303 58.8547 51.123 58.443 50.7971 58.012C50.4712 57.581 50.2091 56.9653 50.4641 56.4805C50.5739 56.2689 50.7687 56.1226 50.96 55.9957C51.5551 55.607 52.2424 55.3146 52.632 54.6912C52.8906 54.2756 52.9827 53.7677 53.0394 53.2713C53.1209 52.5748 53.1563 51.8745 53.1386 51.1741C59.6104 45.4676 63.3794 38.2103 63.0323 31.284C63.4255 33.4619 63.6239 35.6783 63.6239 37.9333Z" fill="#0DA58B"/>
<path d="M33.096 13.2062C33.096 13.2062 33.1917 13.1139 33.1917 12.9792C33.1917 12.8445 33.0925 12.9253 33.0925 12.9253C32.7099 13.0677 32.3309 13.2062 31.9483 13.3486C31.7712 13.414 31.5516 13.5949 31.6579 13.7642C31.7712 13.9489 32.0971 13.7719 32.214 13.9527C32.3415 14.1451 32.0263 14.4029 32.1113 14.6223C32.175 14.7877 32.3947 14.7685 32.5505 14.7108C33.0358 14.5338 33.4857 14.2529 33.8718 13.8873C33.9816 13.7873 34.0914 13.6564 34.0773 13.5025C34.0596 13.2986 33.8399 13.1947 33.6522 13.1947C33.4644 13.1947 33.2767 13.2562 33.096 13.2062Z" fill="#0DA58B"/>
<path d="M16.7622 9.13505C17.0455 9.12736 17.3254 9.03501 17.5663 8.87339C17.8249 8.69639 18.0551 8.43472 18.3597 8.40009C18.5794 8.377 18.7955 8.48475 19.0186 8.49244C19.4968 8.51168 19.8794 8.08841 20.2974 7.83444C20.889 7.47658 21.6612 7.39577 22.065 6.80703C22.104 6.74931 22.1394 6.68389 22.1394 6.61078C22.1323 6.40684 21.8702 6.36451 21.686 6.39914C20.7614 6.56845 20.0211 7.061 19.2241 7.55354C18.4518 8.03068 17.6017 8.24617 16.794 8.63482C16.6275 8.71563 16.4327 8.93111 16.5638 9.07349C16.6063 9.12736 16.6878 9.13505 16.7622 9.13505Z" fill="#0DA58B"/>
<path d="M35.6997 19.5938C35.898 19.5515 36.061 19.3976 36.1743 19.2167C36.3231 18.9781 36.3833 18.6434 36.2381 18.4009C36.0929 18.1585 35.6997 18.12 35.5792 18.374L35.5013 18.4779C35.3596 18.8242 35.271 18.9781 35.1896 19.3476C35.2781 19.5476 35.5048 19.64 35.6997 19.5938Z" fill="#0DA58B"/>
<path d="M36.7444 18.2163C36.8188 18.4318 36.8719 18.6665 36.8365 18.8974C36.7728 19.3283 36.4292 19.6439 36.2981 20.0556C36.2166 20.3134 36.2237 20.6059 36.3193 20.8598C36.3406 20.9137 36.3689 20.9714 36.4185 20.9984C36.4858 21.033 36.5602 20.9984 36.6275 20.9676C37.0491 20.7521 37.4458 20.4789 37.8071 20.1557C38.1188 19.8747 38.427 19.4245 38.2428 19.0359C38.1118 18.7588 37.754 18.5664 37.8248 18.2663C37.8496 18.1586 37.9346 18.0701 37.9488 17.9585C37.9701 17.8315 37.8957 17.7083 37.8284 17.6044C37.63 17.3005 37.3077 16.5424 36.9428 16.4616C36.7409 16.4154 35.9757 17.0503 36.0678 17.1388C36.3654 17.4313 36.5992 17.8045 36.7444 18.2163Z" fill="#0DA58B"/>
<path d="M20.2656 61.3982C20.2302 61.4944 20.1913 61.5868 20.1487 61.6791C19.5501 63.0259 18.5086 64.0649 17.492 65.0731C17.2511 65.3116 17.0102 65.5502 16.7658 65.7926C16.4718 66.0851 16.1743 66.3775 15.8767 66.6738C15.8129 66.7354 15.7456 66.8008 15.6748 66.8508C14.8813 66.3121 14.1091 65.7349 13.3652 65.1269C13.5033 64.7191 13.5777 64.2842 13.5883 63.8494C13.5919 63.7032 13.5883 63.557 13.5954 63.4107C13.6025 63.2568 13.6167 63.1029 13.6592 62.9567C13.7407 62.6873 13.9107 62.4564 13.9922 62.1871C14.2685 61.2905 13.5069 60.4478 13.2589 59.5358C15.4056 60.4132 17.7612 61.0442 20.2656 61.3982Z" fill="#0C9379"/>
<path d="M25.2781 49.1964C25.1293 49.9506 24.9061 50.6855 24.6157 51.3859C24.6121 51.3974 24.605 51.4089 24.6015 51.4205C24.474 51.7206 24.3393 52.0131 24.2614 52.3325C24.0949 53.0174 24.2154 53.7408 24.2154 54.4488C24.2154 55.0953 24.1091 55.7379 23.9107 56.3459C23.645 57.1424 23.1385 57.9351 22.3769 58.1275C21.9022 58.2506 21.3248 58.1544 21.0096 58.5585C20.8395 58.774 20.8041 59.0741 20.7651 59.355C20.6695 60.0553 20.5207 60.748 20.2657 61.3983C17.7612 61.0404 15.4056 60.4132 13.2589 59.532C13.2554 59.5166 13.2518 59.5012 13.2483 59.4858C13.0464 58.697 13.2518 57.862 13.266 57.0424C13.2696 56.723 13.2448 56.4036 13.1562 56.0996C12.9649 55.4532 12.5115 54.9491 12.0652 54.4719C11.2433 53.5946 10.4003 52.7288 9.75201 51.6937C9.10377 50.6586 8.66098 49.4234 8.746 48.1766C8.78496 47.5841 8.94082 47.0222 9.14982 46.4758C9.64929 45.1714 10.4569 43.9477 10.758 42.5624C10.5703 42.5471 10.3861 42.5355 10.1984 42.5201C10.1098 42.3508 10.1133 42.1276 10.209 41.9622C10.2161 41.9506 9.38715 42.0045 9.03292 42.0199C9.03292 42.0199 8.27841 42.4162 7.65495 41.2003C7.30781 40.6615 6.9394 40.1382 6.45764 39.7457C5.89087 39.2878 5.2072 39.0416 4.5377 38.7991C3.73713 38.5067 2.9224 38.195 2.20331 37.7217C1.92346 37.537 1.65779 37.3292 1.41336 37.0906C1.2575 36.9367 1.11581 36.7751 0.981201 36.6019C1.2823 28.8329 3.99218 21.7411 8.31737 16.1807C8.31737 16.1807 8.31737 16.1807 8.32092 16.1807C8.33154 16.1692 8.34217 16.1538 8.35279 16.1423C8.49449 15.9653 8.63973 15.7921 8.77434 15.6112C9.6918 14.4838 10.6766 13.4256 11.7216 12.4405C11.8526 12.4905 11.9908 12.5598 12.1396 12.6483C12.3804 12.048 12.7878 11.5285 13.2979 11.1745C13.3829 11.1168 13.4715 11.0668 13.5707 11.0437C14.0064 10.9398 14.2897 11.3092 14.4527 11.7633C14.4598 11.7787 14.4669 11.7979 14.4704 11.8171C14.5377 12.0211 14.5802 12.2366 14.605 12.4328C14.9876 11.694 15.526 11.0129 16.2451 10.682C17.2405 10.2241 18.3811 10.5127 19.4297 10.8051C19.6812 10.8744 19.9469 10.9552 20.1311 11.1476C20.3117 11.34 20.3967 11.6132 20.5561 11.8287C20.8324 12.2019 21.3532 12.4251 21.3461 12.9292C21.3425 13.264 21.0946 13.5372 20.7864 13.5834C20.1877 13.6719 19.7662 13.2293 19.373 12.8215C18.9869 12.4213 18.5831 12.0211 18.0871 11.8094C17.5912 11.5978 16.9819 11.6016 16.571 11.9672C16.2132 12.2827 16.0645 12.7907 15.8661 13.2409C15.6677 13.6911 15.3312 14.1529 14.8707 14.1721C14.4385 14.1913 14.0878 13.8219 13.7938 13.4756L11.8137 15.3226L10.255 16.7772C10.4038 17.3005 10.882 17.5468 11.378 17.7738C11.9235 18.0278 12.4938 18.2625 12.6709 18.832C12.7949 19.2245 12.6992 19.717 12.9685 20.0095C13.3829 19.8902 13.3156 19.236 13.4785 18.8051C13.7123 18.1894 14.4527 18.0585 15.0655 18.0201C15.0372 17.1389 15.2037 16.25 15.5437 15.4535C15.7421 14.984 16.0503 14.503 16.5958 14.5338C16.8473 14.5454 17.0776 14.6723 17.2618 14.8532C17.6514 15.2457 17.7931 15.8036 17.9277 16.3424C18.2394 15.9268 18.8948 16.2539 19.1286 16.7272C19.3624 17.2005 19.3978 17.7815 19.6989 18.2048C19.9787 18.5934 20.4747 18.8474 20.5313 19.3361C20.5916 19.8479 20.1169 20.2404 19.6741 20.4251C18.2536 21.0061 16.5214 20.6944 15.3135 21.6949C16.2912 21.5987 17.2795 21.6872 18.2324 21.945C17.8321 22.6915 17.1272 23.2379 16.3478 23.4111C15.905 23.5073 15.4091 23.5034 15.0691 23.8267C15.0407 23.8536 15.0159 23.8805 14.9911 23.9075C14.8494 24.0729 14.7502 24.2807 14.6298 24.4693C14.3464 24.9118 13.9249 25.2466 13.4538 25.4043C13.2412 25.4774 13.011 25.5159 12.8232 25.6468C12.5292 25.8545 12.3981 26.2432 12.26 26.5934C11.7641 27.8516 10.9493 28.9599 9.92913 29.7641C9.76264 29.8949 9.58199 30.0334 9.51823 30.2451C9.46509 30.4336 9.51822 30.6337 9.55719 30.8261C9.55719 30.8338 9.56073 30.8415 9.56073 30.8454C9.65638 31.3302 9.13919 31.6765 8.77787 31.3725C8.65035 31.2648 8.50865 31.1763 8.35988 31.1147C7.71163 30.8377 6.98545 30.9108 6.29116 30.9916L6.30532 31.4264C5.34535 31.411 4.25431 31.4495 3.61669 32.2306C2.91531 33.0887 3.11014 34.4432 3.5671 35.4783C3.76548 35.9285 4.03115 36.3826 4.44206 36.6058C4.85297 36.829 5.44454 36.7251 5.64291 36.271C5.79169 35.9324 5.77752 35.3975 6.11759 35.3437C6.37972 35.1782 6.69852 35.5284 6.69498 35.8554C6.69498 36.1825 6.51786 36.475 6.42222 36.7866C6.32658 37.0983 6.362 37.5178 6.63476 37.6524C6.78354 37.7255 6.95712 37.6871 7.11652 37.7217C7.56994 37.814 7.77185 38.4028 7.77539 38.903C7.78248 39.4033 7.6833 39.9304 7.87812 40.3845C7.95605 40.5654 8.07649 40.727 8.14025 40.9155C8.30674 41.0502 8.57596 41.1541 9.0223 41.1502C9.58553 41.0964 10.2798 41.1849 10.5455 41.1118C10.7793 40.3152 11.4842 39.7073 12.2494 39.638C13.018 39.5687 13.8044 40.0497 14.1516 40.7962C14.7963 40.4961 15.5933 40.2113 16.153 40.6731C16.3974 40.877 16.5427 41.1887 16.6808 41.4889C16.8792 41.9314 17.0811 42.3701 17.283 42.8126C17.662 43.3243 18.5016 43.0357 18.9444 43.486C19.2384 43.7823 19.2384 44.2786 19.3942 44.6788C19.6316 45.2907 20.2196 45.6408 20.7651 45.9448C22.0829 46.6759 23.3971 47.407 24.7113 48.1382C24.9557 48.2728 25.2249 48.4422 25.2958 48.7269C25.3383 48.877 25.3099 49.0424 25.2781 49.1964Z" fill="#0DA58B"/>
<path d="M53.0394 53.2752C52.9791 53.7715 52.8906 54.2795 52.632 54.6951C52.2423 55.3184 51.5551 55.6109 50.96 55.9995C50.7687 56.1265 50.5739 56.2727 50.4641 56.4844C50.209 56.9692 50.4712 57.581 50.7971 58.0159C51.1229 58.4468 51.5303 58.8624 51.6083 59.4127C51.6578 59.7744 51.5551 60.1438 51.4241 60.4824C50.8006 62.1101 49.3766 63.4569 47.8605 64.0803C47.3645 63.8879 46.8651 63.6916 46.3691 63.4992C46.0751 63.3838 45.7705 63.2683 45.4588 63.2914C45.147 63.3145 44.8247 63.5185 44.7432 63.8455C44.2827 63.6839 44.0843 63.1067 43.9568 62.5988C43.553 60.998 43.2235 59.3742 42.9791 57.735C46.8226 55.9687 50.2515 53.7292 53.1421 51.178C53.1527 51.8783 53.1208 52.5825 53.0394 53.2752Z" fill="#0C9379"/>
<path d="M62.09 28.4134C62.09 29.7679 61.9164 31.1416 61.7464 32.4961C61.7251 32.6654 61.7038 32.8347 61.6826 33.0041C60.9918 32.9348 60.4994 34.0353 59.8229 33.8545C59.6316 33.8044 59.4757 33.6505 59.3305 33.5043C58.994 33.1695 58.661 32.8309 58.3245 32.4961C58.1721 32.3422 58.0163 32.1883 57.8214 32.1113C57.4991 31.9843 57.1449 32.0998 56.8048 32.0729C56.2097 32.0228 55.6854 31.4649 55.6252 30.8223C55.4552 30.9454 55.2851 31.0685 55.1151 31.1917C55.5083 31.9651 55.9511 32.7078 56.447 33.4119C56.5462 33.5543 56.6844 33.7082 56.8473 33.6736C57.0138 33.639 57.0953 33.4196 57.2547 33.3581C57.3397 33.3234 57.4353 33.3427 57.5203 33.3696C58.3634 33.6351 58.6893 34.8472 58.3811 35.74C58.073 36.6327 57.3361 37.2599 56.6064 37.7871C55.8767 38.3181 55.0938 38.826 54.6085 39.6226C53.9497 39.5533 53.3794 38.9184 53.3404 38.1988C53.6734 38.0911 53.5884 37.5524 53.4289 37.2176C52.4867 35.2282 51.3638 33.3388 50.085 31.588C49.7626 31.5803 49.3021 31.7419 49.3907 32.0805C49.4155 32.1767 49.4828 32.2499 49.5466 32.3191C49.8937 32.7232 50.1381 33.2195 50.3755 33.7121C50.9245 34.8472 51.4736 35.9785 52.0226 37.1137C52.4265 37.9449 52.8374 38.8068 52.9224 39.7419C52.9401 39.9458 52.9614 40.1844 53.1208 40.296C53.1987 40.3498 53.2979 40.3575 53.39 40.3575C54.2012 40.3498 55.2143 39.5995 55.8519 40.1497C56.3868 41.6389 55.6925 43.3012 54.8849 44.6365C54.2579 45.6754 53.5281 46.7182 53.1952 47.8803C53.0995 48.2151 53.0358 48.5576 53.018 48.9154C52.9932 49.408 53.057 49.8967 53.096 50.3892C53.1172 50.6547 53.1314 50.9202 53.1385 51.1857C50.2479 53.7369 46.819 55.9765 42.9755 57.7427C42.7099 55.9919 42.5363 54.2295 42.4548 52.4556C42.724 52.3632 42.8161 51.9746 42.7346 51.6821C42.678 51.4743 42.5611 51.2935 42.4477 51.1165C42.4017 51.0395 42.3521 50.9664 42.3096 50.8856C41.7995 49.9467 42.0049 48.7692 42.0581 47.6802C42.0651 47.5186 42.0687 47.3455 41.9801 47.2146C41.8809 47.0684 41.6967 47.0222 41.5621 46.9106C41.1441 46.5682 41.3744 45.864 41.5232 45.3176C41.7003 44.6557 41.8172 43.6245 41.3496 43.1627C40.8289 42.6432 39.961 43.409 39.3021 43.1319C39.04 43.0203 38.8345 42.7548 38.5547 42.7279C38.1438 42.6894 37.8356 43.1896 37.4211 43.2243C37.074 43.2512 36.7552 42.9395 36.408 42.9857C35.9546 43.0473 35.7598 43.6591 35.3595 43.8977C35.0301 44.0939 34.605 43.9939 34.2968 43.7591C33.9922 43.5244 33.7796 43.1743 33.5777 42.8279C32.9295 41.7082 32.3414 40.5461 31.8136 39.3571C31.5728 38.8183 31.3425 38.2565 31.2929 37.6601C31.2433 37.0637 31.4027 36.4134 31.8313 36.0324C31.6861 35.8246 31.5019 35.6515 31.2894 35.5322C32.3556 33.2503 33.4466 30.93 35.0832 29.0868C35.2284 28.9214 35.3808 28.7597 35.5402 28.6097C35.7988 28.3634 36.0786 28.1402 36.3832 27.9748C37.2511 27.5015 38.2678 27.5015 39.2384 27.5091C39.8618 27.513 40.4994 27.5207 41.1087 27.6631C41.3283 27.7131 41.5444 27.7824 41.7534 27.8709C42.5434 28.2133 43.2377 28.9675 43.2979 29.891C43.7903 29.2677 44.4173 28.6366 45.1718 28.6674C45.7917 28.6905 46.3124 29.1561 46.8792 29.4331C47.6231 29.7987 48.5405 29.8256 49.2242 29.3485C49.9114 28.8713 50.2692 27.8285 49.9043 27.0359C48.8912 27.4206 47.6868 27.1282 46.9217 26.3047C46.741 26.1123 46.5852 25.8892 46.4151 25.6852C46.2593 25.5005 46.0928 25.3274 45.8909 25.2081C45.8519 25.4736 45.8094 25.7391 45.7704 26.0007C45.7385 26.2085 45.7067 26.4125 45.6748 26.6203C45.4091 26.8511 45.0265 26.7126 44.7786 26.4394C44.7113 26.3625 44.651 26.2778 44.6085 26.1855C44.4102 25.7622 44.4137 25.2658 44.2791 24.8156C44.0347 23.9767 43.1774 23.3303 42.4052 23.5958C43.3262 23.7959 43.56 25.0349 43.2164 25.9854C43.1066 26.2932 42.6461 26.0431 42.5859 25.7198C42.5257 25.3966 42.6213 25.0272 42.4513 24.7578C42.2635 24.4616 41.8739 24.4539 41.5586 24.3538C41.2433 24.2538 40.9351 23.8189 41.1725 23.5688C39.6245 23.5419 38.0906 24.4346 37.2511 25.843C36.9748 26.3086 36.7233 26.8665 36.2415 27.0512C35.5118 27.3321 34.8175 26.5856 34.3429 25.9199C34.7183 25.362 34.9096 24.6809 35.2922 24.1306C35.6748 23.5804 36.3832 23.1802 36.9429 23.5034C37.2617 22.7877 36.7162 21.8065 35.983 21.7795C36.5958 21.3716 37.3468 21.2908 37.9808 20.9291C38.6149 20.5674 39.125 19.6785 38.7353 19.0244C39.1533 18.755 39.6457 18.6357 40.1275 18.6896C39.8441 18.4587 39.9893 17.8546 40.3436 17.8276C40.6978 17.7969 40.9174 18.401 40.6305 18.628C41.137 18.2586 41.803 19.0321 42.3875 18.8474C42.5894 18.7819 42.7488 18.6126 42.8941 18.4472C43.4502 17.8276 44.0028 17.2043 44.5589 16.5848C44.8742 16.2346 45.2107 15.8036 45.1399 15.3226C44.9699 15.5304 44.7184 15.6574 44.4633 15.6689C44.3358 15.2687 44.2083 14.8532 44.2472 14.4337C44.2862 14.0143 44.5483 13.5872 44.9309 13.5179C44.9592 13.1985 44.6262 12.9561 44.3322 12.983C44.0382 13.01 43.7903 13.2139 43.5565 13.414C43.0074 13.8835 42.4017 14.4838 42.4548 15.2418C42.4796 15.5766 42.6355 15.8806 42.7169 16.2038C42.7949 16.527 42.7807 16.9272 42.5327 17.1312C42.136 17.4621 41.5976 17.0196 41.2469 16.6348C40.8962 16.25 40.2586 15.9075 39.961 16.3423C39.7768 16.6117 39.7095 17.1504 39.419 17.0388C39.3198 17.0003 39.2632 16.8849 39.2207 16.7772C39.0471 16.3346 38.9337 15.8613 38.8841 15.3803C38.8593 15.1341 38.8558 14.8647 38.9869 14.6608C39.2348 14.2644 39.791 14.3375 40.1912 14.1374C40.9458 13.7642 40.9812 12.5752 41.5834 11.9556C41.8632 11.667 42.2423 11.5285 42.6036 11.3938C43.2979 11.1437 44.0205 10.8859 44.7502 10.9706C45.9369 11.1091 46.9819 12.1326 48.1686 11.9941C48.4555 11.9595 48.8806 11.9749 48.877 12.2866C48.877 12.4328 48.7602 12.5444 48.6468 12.6213C48.2749 12.8753 47.8179 12.9869 47.3786 12.9215C47.616 13.414 48.0198 13.9912 48.5157 13.8411C48.707 13.7834 48.8558 13.6218 48.9939 13.4679C49.3836 13.0292 49.7733 12.5906 50.1665 12.1519C50.1877 12.1288 50.2054 12.1057 50.2267 12.0826C50.2267 12.0788 50.2302 12.0788 50.2338 12.0749C50.5172 11.7555 50.8005 11.3784 51.1406 11.1591C56.3089 15.4534 60.1948 21.4678 62.09 28.4134Z" fill="#0DA58B"/>
<path d="M32.4122 9.15427C32.4087 8.85412 32.3662 8.5155 32.5539 8.29617C32.7346 8.08453 33.064 8.08068 33.2376 7.86135C33.358 7.70743 33.3615 7.49579 33.2907 7.30724C33.2624 7.23028 33.2163 7.15717 33.1667 7.09175C33.0959 6.95707 33.0002 6.75698 32.894 6.47607C32.8833 6.44914 32.8727 6.41836 32.8585 6.38757C32.77 6.15285 32.6956 5.83347 32.5681 5.52563C32.3378 4.97152 31.9375 4.44434 30.9669 4.46358C29.4544 4.49437 26.4292 4.62135 24.2825 5.61413C22.6212 6.38372 22.2138 6.93783 22.1678 7.38805C22.1536 7.51888 22.1713 7.64201 22.1997 7.7613C22.2032 7.78054 22.2067 7.79978 22.2103 7.81902C22.2705 8.24999 21.8383 8.37313 22.2776 8.96956C22.313 9.03113 22.3591 9.085 22.4087 9.13503C22.4157 9.14657 22.4299 9.15427 22.4405 9.16581C22.4972 9.21583 22.561 9.26201 22.6212 9.30434C22.9117 9.50828 23.1986 9.71607 23.4855 9.92001C23.8256 10.1624 24.1798 10.4164 24.3924 10.7935C24.6084 11.1706 24.6439 11.7055 24.3676 12.0287C24.1019 12.3404 23.5883 12.4327 23.4997 12.8483C23.4466 13.1023 23.5847 13.3486 23.7193 13.564C24.1125 14.1913 24.5022 14.8185 24.8954 15.4457C25.03 15.6573 25.1788 15.8844 25.409 15.9536C25.8235 16.0768 26.1883 15.5996 26.2875 15.1456C26.3832 14.6915 26.3477 14.1913 26.5603 13.7872C26.8472 13.2408 27.4777 13.0561 28.041 12.9176C29.0257 12.679 30.0318 12.425 30.8855 11.8363C31.7392 11.2476 32.4228 10.2509 32.4122 9.15427Z" fill="#0DA58B"/>
<path d="M72.7701 79.2875C72.7701 79.2875 72.6709 80.2918 71.9448 81.7387C71.1761 83.2702 69.7025 85.3019 66.8934 87.1643C65.7563 87.9185 64.3713 88.4457 62.887 88.8113C62.7666 88.842 62.6461 88.869 62.5257 88.8959C62.469 88.9074 62.4159 88.9228 62.3592 88.9344C62.3379 88.9382 62.3131 88.9459 62.2919 88.9498C62.2281 88.9652 62.1644 88.9767 62.1042 88.9883C62.0404 88.9998 61.9802 89.0113 61.9164 89.0267C61.7428 89.0614 61.5657 89.0921 61.3921 89.1229C61.2788 89.1422 61.1654 89.1614 61.0521 89.1768C61.0202 89.1807 60.9919 89.1883 60.96 89.1922C60.9246 89.196 60.8891 89.2037 60.8537 89.2076C60.6341 89.2422 60.418 89.2692 60.1984 89.2961C60.1346 89.3038 60.0708 89.3115 60.0071 89.3192C59.9256 89.3307 59.8477 89.3384 59.7662 89.3461C59.6989 89.3538 59.6316 89.3615 59.5643 89.3692C59.4934 89.3769 59.4226 89.3846 59.3553 89.3923C59.327 89.3961 59.2951 89.3961 59.2667 89.4C59.0719 89.4192 58.8771 89.4346 58.6858 89.45C58.6256 89.4539 58.5654 89.4577 58.5051 89.4616C58.452 89.4654 58.3989 89.4693 58.3493 89.4731C58.2855 89.4769 58.2218 89.4808 58.158 89.4846C58.1332 89.4885 58.1084 89.4885 58.0801 89.4885C57.9561 89.4962 57.8286 89.5039 57.7046 89.5077C57.6656 89.5116 57.6266 89.5116 57.5877 89.5116C57.5345 89.5154 57.4814 89.5154 57.4318 89.5193C57.3928 89.5231 57.3574 89.5231 57.3185 89.5231C57.2901 89.5231 57.2582 89.527 57.2299 89.527C57.2051 89.527 57.1803 89.5308 57.1555 89.5308C56.7552 89.5462 56.3656 89.5501 55.983 89.5539C55.944 89.5539 55.9051 89.5539 55.8661 89.5539C55.6748 89.5539 55.4871 89.5539 55.2993 89.5501C55.2568 89.5501 55.2179 89.5501 55.1753 89.5501C54.9911 89.5462 54.8105 89.5462 54.6334 89.5385C54.5873 89.5385 54.5448 89.5347 54.5023 89.5347C54.4598 89.5347 54.4137 89.5308 54.3712 89.5308C54.3287 89.5308 54.2862 89.527 54.2402 89.527C54.056 89.5193 53.8753 89.5154 53.7017 89.5077C53.6699 89.5077 53.638 89.5039 53.6061 89.5039C53.5423 89.5 53.4821 89.4962 53.4183 89.4962C53.3227 89.4923 53.2271 89.4846 53.135 89.4808C53.0677 89.4769 53.0039 89.4731 52.9366 89.4692C52.926 89.4692 52.9153 89.4693 52.9047 89.4654C52.8693 89.4616 52.8374 89.4616 52.8055 89.4577C52.763 89.4539 52.7241 89.4539 52.6851 89.45C52.6142 89.4462 52.5434 89.4385 52.4725 89.4346C52.4407 89.4308 52.4088 89.4308 52.3804 89.4269C52.2565 89.4192 52.136 89.4077 52.0227 89.4C51.9766 89.3961 51.927 89.3923 51.881 89.3884C51.8774 89.3884 51.8774 89.3884 51.8739 89.3884C51.8101 89.3846 51.7464 89.3769 51.6861 89.373C51.6543 89.3692 51.6224 89.3692 51.594 89.3654C51.5515 89.3615 51.509 89.3577 51.4665 89.3538C51.3815 89.3461 51.3 89.3384 51.2221 89.3307C51.2044 89.3269 51.1831 89.3269 51.1654 89.3269C51.1406 89.323 51.1194 89.323 51.0981 89.3192C51.0769 89.3153 51.0556 89.3153 51.0379 89.3115C50.9635 89.3038 50.8927 89.2961 50.8289 89.2884C50.8112 89.2884 50.7935 89.2846 50.7758 89.2846C50.7262 89.2807 50.6766 89.273 50.6341 89.2692C50.6164 89.2653 50.5987 89.2653 50.5809 89.2615C50.5632 89.2615 50.5491 89.2576 50.5313 89.2576C50.4995 89.2538 50.4711 89.2499 50.4428 89.2461C50.4286 89.2422 50.4145 89.2422 50.4038 89.2422C50.3365 89.2345 50.2834 89.2268 50.248 89.223C50.2444 89.223 50.2409 89.223 50.2373 89.223C50.2125 89.2191 50.1984 89.2191 50.1877 89.2153C50.1842 89.2153 50.1842 89.2153 50.1842 89.2153H50.1807C50.1807 89.2153 50.1771 89.2153 50.1771 89.2191C50.1736 89.2191 50.1736 89.223 50.17 89.223C50.1665 89.223 50.1665 89.2268 50.1629 89.2268C50.1594 89.2268 50.1594 89.2307 50.1559 89.2307C50.1523 89.2307 50.1523 89.2345 50.1488 89.2345C50.1452 89.2345 50.1452 89.2384 50.1417 89.2384C50.1381 89.2422 50.1311 89.2461 50.1275 89.2499C50.1169 89.2576 50.1063 89.2653 50.0956 89.2768C50.0921 89.2807 50.0921 89.2807 50.0886 89.2846C50.0815 89.2922 50.0708 89.2999 50.0638 89.3076C50.0602 89.3115 50.0567 89.3153 50.0531 89.3192C50.0283 89.3423 50 89.3654 49.9717 89.3961C49.961 89.4077 49.9504 89.4154 49.9398 89.4269C49.9221 89.4423 49.9079 89.4616 49.8902 89.4808C49.7202 89.6732 49.4828 89.9926 49.2136 90.5197C48.9515 91.0238 48.661 91.7165 48.3564 92.6669C48.1863 92.6823 48.0127 92.6977 47.8427 92.7131C47.8356 92.7362 47.825 92.7593 47.8179 92.7824C47.825 92.7593 47.8321 92.7362 47.8427 92.7131C47.5593 92.7362 47.2724 92.7593 46.9855 92.7824C47.1945 92.1436 47.5204 91.3663 48.0269 90.4466C48.282 89.9849 48.5866 89.4846 48.9444 88.9498C49.6599 87.8762 50.5986 86.6602 51.8243 85.3019C51.8597 85.2596 51.8987 85.2211 51.9341 85.1788C51.9625 85.148 51.9908 85.1172 52.0156 85.0903C52.0546 85.0479 52.0935 85.0056 52.1325 84.9671C52.1537 84.944 52.175 84.921 52.1962 84.8979C52.2281 84.8632 52.26 84.8324 52.2919 84.7978C52.4938 84.5939 52.6993 84.3938 52.9118 84.2052C52.9508 84.1706 52.9897 84.136 53.0287 84.1013C53.2554 83.8974 53.4892 83.7011 53.7301 83.5126C53.7761 83.4741 53.8257 83.4356 53.8753 83.3972C53.9072 83.3741 53.9391 83.3471 53.971 83.324C53.9745 83.3202 53.978 83.3202 53.9816 83.3163C54.0666 83.2509 54.1516 83.1894 54.2366 83.1239C54.2579 83.1086 54.2756 83.0932 54.2968 83.0778C54.3146 83.0624 54.3358 83.0508 54.3535 83.0354C54.5448 82.8969 54.7396 82.7622 54.9345 82.6314C54.9911 82.5929 55.0478 82.5583 55.1045 82.5198C55.1222 82.5083 55.1435 82.4967 55.1612 82.4852C55.2001 82.4582 55.2391 82.4352 55.2781 82.4082C55.3064 82.389 55.3348 82.3697 55.3631 82.3543C55.4658 82.2889 55.5721 82.2274 55.6748 82.1619C55.7032 82.1466 55.7279 82.1273 55.7563 82.1119C55.7882 82.0927 55.8201 82.0734 55.8555 82.0542C56.1637 81.8733 56.4789 81.7002 56.7942 81.5386C56.8473 81.5116 56.8969 81.4847 56.9501 81.4578C57.198 81.3346 57.446 81.2115 57.6975 81.0999C57.7294 81.0845 57.7577 81.073 57.7896 81.0576C57.9348 80.9922 58.0801 80.9268 58.2253 80.8652C58.2784 80.8421 58.328 80.819 58.3812 80.7998C58.4839 80.7574 58.5902 80.7151 58.6929 80.6728C58.7496 80.6497 58.8062 80.6266 58.8629 80.6074C58.8983 80.592 58.9338 80.5804 58.9727 80.565C59.0082 80.5496 59.0436 80.5381 59.079 80.5227C59.1357 80.4996 59.1959 80.4804 59.2526 80.4573C59.2915 80.4419 59.334 80.4265 59.373 80.4111C59.5005 80.3649 59.6245 80.3188 59.752 80.2764C59.8016 80.2611 59.8477 80.2418 59.8937 80.2264C59.915 80.2187 59.9362 80.211 59.954 80.2072C60.0035 80.1918 60.0567 80.1725 60.1063 80.1572C60.1984 80.1264 60.2905 80.0956 60.3826 80.0687C60.4499 80.0456 60.5207 80.0263 60.5916 80.0032C60.6695 79.9801 60.7439 79.9571 60.8218 79.934C60.8962 79.9109 60.9671 79.8916 61.0415 79.8686C61.0521 79.8647 61.0627 79.8647 61.0698 79.8609C65.65 78.5564 70.2834 78.5872 72.7701 79.2875Z" fill="#707A0E"/>
<path d="M71.9695 79.4876C70.2054 79.6685 68.2005 80.1187 66.0113 80.8267C65.2426 81.0768 64.4527 81.3577 63.6415 81.6656C64.7644 80.3342 66.362 79.6685 66.3797 79.6608C66.4222 79.6415 66.4435 79.5915 66.4293 79.5453C66.4116 79.4992 66.3656 79.4761 66.3231 79.4915C66.3053 79.4992 64.474 80.2611 63.3262 81.7887C62.3911 82.1543 61.4311 82.5583 60.4534 83.0008C59.1675 83.5819 58.0234 84.1514 57.0988 84.6285C57.0953 84.6285 57.0917 84.6324 57.0882 84.6324C55.6429 85.3827 54.7467 85.9137 54.7325 85.9214C54.6936 85.9445 54.6759 86.0022 54.7007 86.0446C54.7148 86.0753 54.7432 86.0907 54.775 86.0907C54.7892 86.0907 54.8034 86.0869 54.814 86.0792C54.8282 86.0715 55.7067 85.5482 57.1307 84.8094C57.4318 84.9787 59.4828 86.083 62.9082 86.9604C63.3333 87.6877 63.854 87.8954 63.8788 87.9031C63.8895 87.907 63.8965 87.907 63.9072 87.907C63.9426 87.907 63.9745 87.8839 63.9851 87.8454C63.9993 87.7992 63.978 87.7454 63.9355 87.73C63.932 87.73 63.4892 87.553 63.1066 86.9488C63.5494 86.8873 64.984 86.6795 65.9617 86.3486C66.0042 86.3332 66.029 86.2831 66.0184 86.237C66.0042 86.1908 65.9582 86.1639 65.9157 86.1754C64.8246 86.541 63.1456 86.7603 62.972 86.7834C59.8441 85.983 57.8675 84.9941 57.3291 84.7055C58.2253 84.2437 59.3128 83.705 60.5278 83.1547C61.1477 82.8738 61.8278 82.5814 62.5469 82.2851C62.8374 82.3236 65.9334 82.7238 67.4531 82.8431C68.1651 83.8435 68.6787 84.2091 68.6999 84.2245C68.7141 84.236 68.7283 84.2399 68.746 84.2399C68.7743 84.2399 68.7991 84.2245 68.8169 84.1975C68.8416 84.1552 68.831 84.1013 68.792 84.0706C68.7885 84.0667 68.3209 83.7358 67.6762 82.8585C67.7258 82.8623 67.7719 82.8661 67.8179 82.8661C67.9383 82.8738 68.0588 82.8738 68.1863 82.8738C69.4934 82.8738 71.0273 82.5583 71.0414 82.5545C71.0875 82.5468 71.1158 82.4967 71.1087 82.4467C71.1016 82.3967 71.0556 82.3659 71.0096 82.3736C70.9918 82.3775 69.1746 82.7507 67.825 82.6814C66.7056 82.6237 63.8717 82.2659 62.8905 82.1389C65.6429 81.0345 68.9621 79.9532 71.9979 79.6454C72.0439 79.6415 72.0758 79.5954 72.0723 79.5453C72.0581 79.5184 72.0156 79.4838 71.9695 79.4876Z" fill="#221906"/>
<path d="M54.4031 86.2909C53.2305 86.8142 52.4264 87.6723 51.8774 88.6304C51.3248 89.5963 51.0308 90.6622 50.8749 91.6049C50.6376 93.0556 50.7297 94.1985 50.7297 94.1985C50.7297 94.1985 50.5065 93.2672 49.6032 91.7704C49.4509 91.5203 49.2808 91.2509 49.0896 90.97C49.0896 90.97 49.0719 91.0123 49.04 91.0893C49.0364 91.0931 49.0364 91.1008 49.0329 91.1085C49.001 91.1855 48.9585 91.2932 48.9089 91.4241C48.9018 91.4433 48.8947 91.4625 48.8876 91.4856C48.8487 91.5934 48.8026 91.7127 48.7566 91.8435C48.753 91.8512 48.753 91.8589 48.7495 91.8627C48.746 91.8704 48.7424 91.8781 48.7424 91.8858C48.7282 91.9281 48.7105 91.9743 48.6964 92.0205C48.6857 92.0474 48.6787 92.0705 48.668 92.0975C48.6645 92.1013 48.6645 92.109 48.6645 92.1129C48.6574 92.1282 48.6539 92.1436 48.6503 92.159C48.6291 92.2244 48.6078 92.2899 48.5865 92.3591C48.5795 92.3745 48.5759 92.3938 48.5688 92.413C48.4874 92.6747 48.4094 92.9556 48.3386 93.2519C48.2323 93.1826 48.1225 93.1095 48.0162 93.0325C48.126 92.6208 48.2359 92.2437 48.3457 91.9012C48.1756 91.9166 48.0021 91.932 47.832 91.9474C47.8427 91.9166 47.8533 91.8858 47.8639 91.8589C47.8781 91.8204 47.8923 91.7819 47.9064 91.7396C47.9241 91.6934 47.9418 91.6434 47.9596 91.5934C47.9914 91.5087 48.0233 91.4202 48.0587 91.3356C48.0765 91.2932 48.0942 91.2471 48.1119 91.2009C48.1473 91.1124 48.1863 91.02 48.2252 90.9277C48.2465 90.8777 48.2677 90.8276 48.289 90.7776C48.3067 90.7353 48.3244 90.6968 48.3421 90.6545C48.3634 90.6083 48.3846 90.5621 48.4059 90.5159C48.4484 90.4236 48.4944 90.3274 48.5405 90.235C48.5618 90.1889 48.5866 90.1465 48.6078 90.1004C48.6361 90.0426 48.668 89.9849 48.6964 89.931C48.7105 89.9003 48.7282 89.8733 48.746 89.8426C48.7495 89.8349 48.7566 89.8233 48.7601 89.8156C48.7778 89.7848 48.7955 89.754 48.8133 89.7194C48.8699 89.6155 48.9302 89.5116 48.9904 89.4116C49.0187 89.3692 49.0435 89.3231 49.0718 89.2807C49.1037 89.2269 49.1356 89.1768 49.171 89.1268C49.1923 89.0922 49.2135 89.0614 49.2348 89.0268C49.2383 89.0191 49.2454 89.0114 49.249 89.0037C49.256 88.9921 49.2631 88.9845 49.2702 88.9768C49.2808 88.9575 49.295 88.9421 49.3056 88.9229C49.3198 88.8998 49.3375 88.8767 49.3552 88.8536C49.3765 88.8228 49.3942 88.7959 49.4155 88.769C49.419 88.7613 49.4261 88.7536 49.4332 88.7459C49.458 88.7112 49.4828 88.6766 49.5111 88.642C49.5182 88.6304 49.5288 88.6189 49.5359 88.6073C49.5465 88.592 49.5607 88.5766 49.5713 88.5612C49.5749 88.5573 49.5784 88.5496 49.5855 88.5458C49.5961 88.5304 49.6103 88.5112 49.6245 88.4958C50.5419 87.3106 51.7888 86.3832 53.4466 86.2678C53.5848 86.2562 53.7265 86.2524 53.8682 86.2562C54.0311 86.2601 54.2153 86.2716 54.4031 86.2909Z" fill="#55590A"/>
<path d="M47.8274 92.7208C47.8206 92.744 47.8105 92.7672 47.8037 92.7904C47.8105 92.7672 47.8173 92.744 47.8274 92.7208Z" fill="#221906"/>
<path d="M49.6067 88.4958C49.5961 88.515 49.589 88.5342 49.5819 88.5496C49.5288 88.6651 49.4828 88.7767 49.4403 88.8882C49.3269 89.1884 49.2525 89.4847 49.1994 89.754C49.0648 90.4467 49.0931 90.9662 49.0931 90.9662C49.0931 90.9662 49.0754 91.0085 49.0435 91.0854C49.04 91.0893 49.04 91.097 49.0364 91.1047C49.0045 91.1816 48.962 91.2894 48.9124 91.4202C48.9054 91.4395 48.8983 91.4587 48.8912 91.4818C48.8522 91.5895 48.8062 91.7088 48.7601 91.8396C48.7566 91.8473 48.7566 91.855 48.753 91.8589C48.7495 91.8666 48.7459 91.8743 48.7459 91.882C48.7318 91.9243 48.7141 91.9705 48.6999 92.0167C48.6893 92.0436 48.6822 92.0667 48.6716 92.0936C48.668 92.0975 48.668 92.1052 48.668 92.109C48.6609 92.1244 48.6574 92.1398 48.6538 92.1552C48.6326 92.2206 48.6113 92.286 48.5901 92.3553C48.583 92.3707 48.5795 92.3899 48.5724 92.4091C48.4909 92.6708 48.413 92.9517 48.3421 93.248C48.2359 93.1787 48.126 93.1056 48.0198 93.0287C48.1296 92.6169 48.2394 92.2398 48.3492 91.8974C48.1792 91.9128 48.0056 91.9281 47.8356 91.9435C47.8462 91.9128 47.8568 91.882 47.8674 91.855C47.8816 91.8166 47.8958 91.7781 47.91 91.7357C47.9277 91.6896 47.9454 91.6395 47.9631 91.5895C47.995 91.5049 48.0269 91.4164 48.0623 91.3317C48.08 91.2894 48.0977 91.2432 48.1154 91.197C48.1508 91.1085 48.1898 91.0162 48.2288 90.9238C48.25 90.8738 48.2713 90.8238 48.2925 90.7738C48.3102 90.7314 48.328 90.693 48.3457 90.6506C48.3669 90.6044 48.3882 90.5583 48.4094 90.5121C48.4519 90.4197 48.498 90.3235 48.544 90.2312C48.5653 90.185 48.5901 90.1427 48.6113 90.0965C48.6397 90.0388 48.6716 89.9811 48.6999 89.9272C48.7141 89.8964 48.7318 89.8695 48.7495 89.8387C48.753 89.831 48.7601 89.8195 48.7637 89.8118C48.7814 89.781 48.7991 89.7502 48.8168 89.7156C48.8735 89.6117 48.9337 89.5078 48.9939 89.4077C49.0223 89.3654 49.047 89.3192 49.0754 89.2769C49.1073 89.223 49.1392 89.173 49.1746 89.123C49.1958 89.0883 49.2171 89.0576 49.2383 89.0229C49.2419 89.0152 49.249 89.0075 49.2525 88.9998C49.2596 88.9883 49.2667 88.9806 49.2702 88.9729C49.2808 88.9537 49.295 88.9383 49.3056 88.919C49.3198 88.8959 49.3375 88.8729 49.3552 88.8498C49.3765 88.819 49.3942 88.7921 49.4154 88.7651C49.419 88.7574 49.4261 88.7497 49.4332 88.742C49.458 88.7074 49.4828 88.6728 49.5111 88.6381C49.5182 88.6266 49.5288 88.615 49.5359 88.6035C49.5465 88.5881 49.5607 88.5727 49.5713 88.5573C49.5749 88.5535 49.5784 88.5458 49.5855 88.5419C49.5819 88.5304 49.5961 88.515 49.6067 88.4958Z" fill="#221906"/>
<path d="M46.0928 89.2037C46.0928 89.2037 47.3432 79.1836 52.4017 74.8354C57.4601 70.491 65.5721 71.4569 65.5721 71.4569C65.5721 71.4569 65.0726 75.9244 58.8487 82.3236C52.6248 88.7227 46.0963 91.3778 46.0963 91.3778V89.2037H46.0928Z" fill="#84960E"/>
<path d="M25.7561 90.6198C25.2814 90.462 24.8138 90.2966 24.3533 90.1196C24.286 90.0965 24.2223 90.0696 24.155 90.0426C22.4653 89.3885 20.85 88.615 19.3268 87.703C16.6842 82.87 18.4589 78.6603 18.4589 78.6603C26.0041 80.5958 25.8659 88.9267 25.7561 90.6198Z" fill="#84960E"/>
<path d="M32.0936 92.1743C30.3047 91.8703 28.5654 91.4778 26.8934 90.9776C27.1804 90.1541 28.6256 86.5255 31.8385 86.1946C31.8385 86.1946 33.7195 88.5303 32.0936 92.1743Z" fill="#84960E"/>
<path d="M64.7645 71.9264C64.7503 71.8802 64.7007 71.8533 64.6582 71.8686C63.5742 72.2688 62.4938 72.7691 61.4205 73.3617C61.5834 72.3881 61.8987 72.0226 61.9058 72.0149C61.9377 71.9802 61.9377 71.9225 61.9058 71.8879C61.8739 71.8533 61.8208 71.8533 61.7889 71.8879C61.7747 71.9071 61.4028 72.3227 61.2363 73.4656C61.0344 73.581 60.8289 73.7003 60.627 73.8196C60.6199 73.8234 60.6128 73.8273 60.6058 73.8311C59.327 74.6007 58.0624 75.505 56.8225 76.5401C56.4966 76.8094 56.1743 77.0903 55.8519 77.3789C55.9405 76.7055 56.2983 74.6353 57.4672 72.7883C57.492 72.746 57.485 72.6921 57.446 72.6613C57.407 72.6344 57.3574 72.6421 57.3291 72.6844C56.8544 73.4348 56.5108 74.2236 56.2628 74.9393C55.8449 74.0004 55.9086 73.5464 55.9086 73.5387C55.9157 73.4886 55.8874 73.4425 55.8413 73.4348C55.7953 73.4271 55.7528 73.4579 55.7421 73.5079C55.7386 73.531 55.65 74.0697 56.1814 75.1779C55.7917 76.3823 55.6784 77.352 55.6571 77.5521C54.0347 79.0259 52.4619 80.7228 50.9564 82.6083C50.8785 82.7045 50.8041 82.8007 50.7297 82.8969C50.7262 80.8806 51.1194 79.1644 51.4594 78.0639C51.842 76.821 52.2388 76.0706 52.2423 76.0629C52.2671 76.0206 52.2529 75.9629 52.2104 75.9398C52.1715 75.9129 52.1183 75.9283 52.0971 75.9744C52.0935 75.9821 51.6897 76.744 51.3036 78.0062C51.2221 78.2755 51.1336 78.5834 51.0521 78.922C50.6128 78.3255 50.5314 77.9677 50.5314 77.9638C50.5207 77.9138 50.4747 77.883 50.4322 77.8946C50.3861 77.9061 50.3578 77.9523 50.3684 78.0023C50.372 78.0215 50.464 78.441 51.0025 79.1375C50.751 80.2149 50.5455 81.5848 50.5703 83.1124C50.4641 83.2471 50.3613 83.3856 50.2586 83.5203L50.2551 83.5241C47.5345 87.1066 46.0326 90.0849 46.0149 90.1196C45.9936 90.1619 46.0078 90.2196 46.0468 90.2427C46.0609 90.2504 46.0716 90.2543 46.0857 90.2543C46.1141 90.2543 46.1424 90.2389 46.1601 90.2081C46.1778 90.1773 47.6656 87.2297 50.3578 83.6781C50.4428 83.6858 50.6447 83.6973 50.9423 83.6973C51.3851 83.6973 52.0404 83.6704 52.8339 83.5511C53.0606 83.5165 53.305 83.4741 53.5636 83.4241C54.7432 84.3168 55.4835 84.3899 55.689 84.3899C55.7244 84.3899 55.7421 84.3861 55.7457 84.3861C55.7917 84.3823 55.8236 84.3361 55.8201 84.286C55.8165 84.236 55.774 84.2014 55.728 84.2052C55.7209 84.2052 55.0301 84.2707 53.7903 83.3741C55.101 83.0855 56.7765 82.5314 58.4874 81.4578C58.5264 81.4347 58.5406 81.377 58.5193 81.3347C58.4981 81.2923 58.4449 81.2769 58.406 81.3C56.2664 82.6391 54.1835 83.1624 52.8126 83.3664C51.672 83.5357 50.8218 83.5165 50.4853 83.5011C50.6801 83.2471 50.8785 82.9893 51.0875 82.7315C52.1856 81.3539 53.5388 79.8109 55.1258 78.3025C55.4304 78.2794 57.5204 78.1024 59.4687 77.7445C59.5608 77.8753 59.8583 78.264 60.6022 78.8873C60.6164 78.8989 60.6341 78.9066 60.6518 78.9066C60.6766 78.9066 60.7014 78.895 60.7191 78.872C60.7474 78.8335 60.7404 78.7758 60.7049 78.745C60.0886 78.2293 59.7875 77.8753 59.6564 77.7099C60.2515 77.5944 60.8289 77.4636 61.3284 77.3135C61.3744 77.302 61.3992 77.252 61.3851 77.2019C61.3744 77.1519 61.3284 77.125 61.2823 77.1404C59.3482 77.7214 56.2451 78.0254 55.3348 78.1024C56.9076 76.6286 58.7 75.1971 60.6801 74.0043H63.3936C63.4396 74.0043 63.4786 73.9619 63.4786 73.9119C63.4786 73.8619 63.4396 73.8196 63.3936 73.8196H60.9848C62.1608 73.1308 63.4042 72.5266 64.7042 72.0457C64.7574 72.0264 64.7786 71.9725 64.7645 71.9264Z" fill="#221906"/>
<path d="M24.3535 90.1196C24.2862 90.0965 24.2224 90.0695 24.1551 90.0426C23.9284 89.2884 23.6911 88.5727 23.4431 87.8993C22.4158 87.9455 21.3956 87.7915 20.7474 87.6607C20.3258 87.576 20.0602 87.4991 20.0566 87.4991C20.0106 87.4875 19.9858 87.4375 19.9964 87.3875C20.007 87.3375 20.0531 87.3105 20.0991 87.3221C20.1168 87.3259 21.7286 87.7838 23.3793 87.7184C22.8126 86.2023 22.2139 84.8979 21.6542 83.8204C21.1831 83.7781 20.7722 83.7165 20.425 83.6434C19.2986 83.4164 18.8026 83.1047 18.7778 83.0855C18.7389 83.0585 18.7247 83.0047 18.7495 82.9623C18.7743 82.92 18.8239 82.9046 18.8629 82.9315C18.8699 82.9354 19.6705 83.4395 21.5515 83.628C21.2256 83.0124 20.9174 82.4775 20.6376 82.0196C19.4721 80.111 18.5547 79.1221 18.5476 79.1144C18.5157 79.0797 18.5157 79.022 18.5476 78.9874C18.5795 78.9527 18.6326 78.9527 18.6645 78.9874C18.6751 78.9989 19.5997 79.9917 20.7722 81.9157C21.0768 82.4121 21.4133 83.0008 21.7676 83.6819C21.7711 83.6896 21.7782 83.6973 21.7817 83.705C21.8207 83.7781 21.8597 83.8551 21.8986 83.932C22.182 82.2004 22.0758 81.1038 22.0758 81.0922C22.0722 81.0422 22.1041 80.996 22.1501 80.9922C22.1962 80.9883 22.2387 81.0229 22.2422 81.073C22.2458 81.123 22.3627 82.3005 22.0262 84.186C22.5363 85.2057 23.0676 86.3986 23.5706 87.7608C23.5742 87.7684 23.5777 87.78 23.5813 87.7877C23.6025 87.8454 23.6238 87.907 23.645 87.9647C24.0453 86.2947 24.0665 85.3904 24.0665 85.3827C24.0665 85.3327 24.1055 85.2942 24.1516 85.2942C24.1976 85.2942 24.233 85.3365 24.233 85.3866C24.233 85.4289 24.2082 86.4063 23.7442 88.2533C23.9603 88.8459 24.1622 89.4693 24.3535 90.1196Z" fill="#221906"/>
<path d="M32.5399 89.1075C32.5257 89.0614 32.4796 89.0344 32.4336 89.0498C32.4265 89.0537 31.587 89.3384 30.0708 89.4962C30.9068 88.0109 31.7216 86.4832 31.7357 86.4601C31.7605 86.4178 31.7464 86.3601 31.7039 86.337C31.6649 86.31 31.6118 86.3254 31.5905 86.3716C31.5799 86.3909 30.875 87.7146 30.1027 89.0921C30.1027 89.0883 30.0992 89.0844 30.0992 89.0844C29.582 88.0185 29.4899 87.4875 29.4864 87.4798C29.4793 87.4298 29.4368 87.399 29.3907 87.4067C29.3447 87.4144 29.3163 87.4606 29.3234 87.5106C29.327 87.5337 29.4191 88.0686 29.9504 89.1652C29.961 89.1922 29.9858 89.2076 30.0106 89.2114C30.0177 89.2114 30.0248 89.2114 30.0354 89.2114C29.5926 90.0003 29.1357 90.7929 28.7814 91.3586C28.7566 91.4009 28.7637 91.4548 28.8027 91.4856C28.8133 91.4933 28.8239 91.4971 28.8346 91.501C28.8664 91.5087 28.8983 91.4933 28.9196 91.4625C29.2207 90.9815 29.5891 90.3466 29.9646 89.6847C31.5763 89.527 32.4796 89.2191 32.4867 89.2153C32.5328 89.2076 32.554 89.1576 32.5399 89.1075Z" fill="#221906"/>
<path d="M79.9965 54.5373C79.9859 57.5656 79.7982 60.3785 79.451 62.9797C76.7659 68.2476 72.1326 70.2486 67.4035 72.3803C59.8796 75.7743 49.366 79.1951 43.7726 85.602C39.7485 90.2119 37.9172 92.0897 37.2087 92.7785C36.7588 92.7438 36.3125 92.7092 35.8697 92.6669C34.5874 92.5437 33.3298 92.3821 32.0936 92.1705C31.8775 92.1358 31.6614 92.0974 31.4453 92.055C31.672 91.8242 31.8952 91.601 32.1042 91.3855C33.4113 90.0656 34.3288 89.1768 34.3288 89.1768C38.2856 85.1479 48.4946 75.6819 60.5137 71.8185C72.5399 67.959 78.2006 63.3992 79.9965 54.5373Z" fill="#221906"/>
<path d="M31.4347 48.065C28.8842 48.065 26.4117 47.2647 24.2898 45.7524C21.2009 43.5552 19.1038 40.0305 18.5371 36.0863C18.5193 35.9593 18.5973 35.8439 18.7142 35.8208C18.8311 35.8015 18.9373 35.8862 18.9586 36.0132C19.5077 39.8265 21.5339 43.2358 24.5236 45.3638C26.5781 46.826 28.9692 47.5994 31.4382 47.5994C34.9593 47.5994 38.3458 45.9833 40.7333 43.1704C42.8835 40.6307 44.0666 37.333 44.0666 33.8814C44.0666 30.6145 42.9933 27.4514 41.0415 24.9733C40.9636 24.8771 40.9742 24.7309 41.0663 24.6463C41.1548 24.5616 41.2895 24.5732 41.3674 24.6732C43.383 27.236 44.4953 30.5067 44.4953 33.8814C44.4953 37.4485 43.2696 40.8578 41.0486 43.4821C39.8371 44.9097 38.3989 46.0371 36.7765 46.826C35.0868 47.6495 33.2944 48.065 31.4347 48.065Z" fill="white"/>
<path d="M22.9686 23.6266C22.9084 23.6266 22.8517 23.5996 22.8092 23.5496C22.7313 23.4534 22.7419 23.3072 22.8305 23.2225C25.2109 20.9522 28.2679 19.7055 31.4383 19.7055C32.8978 19.7055 34.3289 19.9633 35.6962 20.4751C37.0175 20.9715 38.2502 21.691 39.3661 22.6145C39.4582 22.6915 39.4759 22.8377 39.405 22.9378C39.3342 23.0378 39.1996 23.0571 39.1075 22.9801C36.89 21.1369 34.2403 20.1634 31.4419 20.1634C28.3742 20.1634 25.4164 21.3716 23.1139 23.5688C23.0678 23.6073 23.0182 23.6266 22.9686 23.6266Z" fill="white"/>
<path d="M18.5936 34.1161C18.4767 34.1161 18.3811 34.0122 18.3811 33.8853C18.3811 30.2412 19.6528 26.778 21.9589 24.1306C22.0403 24.0383 22.1749 24.0344 22.26 24.1229C22.345 24.2114 22.3485 24.3577 22.267 24.45C20.0354 27.0089 18.8062 30.3605 18.8062 33.8853C18.8062 34.0122 18.7105 34.1161 18.5936 34.1161Z" fill="white"/>
<path d="M60.5066 21.6256L64.4917 32.8309C64.4917 32.8309 66.8757 29.6755 66.2346 26.2316C65.5898 22.7838 60.5066 21.6256 60.5066 21.6256Z" fill="#221906"/>
<path d="M32.3769 31.9151C32.3769 31.9151 32.1254 30.1219 34.1091 28.0671C36.0928 26.0123 39.9433 27.5784 39.9433 27.5784C39.9433 27.5784 39.7768 29.8603 36.7552 31.1955C33.7336 32.5346 32.3769 31.9151 32.3769 31.9151Z" fill="#A4BB30"/>
<path d="M39.1711 28.0094C38.8594 27.9093 38.5229 27.7708 38.2749 27.6592C38.7106 27.6361 38.9834 27.6708 38.9869 27.6708C39.0436 27.6785 39.0967 27.6361 39.1073 27.5707C39.1144 27.5091 39.0755 27.4514 39.0153 27.4399C38.9727 27.436 37.9951 27.3052 36.6915 27.7169C36.3089 27.8401 35.8732 28.0171 35.4162 28.2787C35.5119 27.867 35.7386 27.6169 35.7421 27.613C35.7846 27.5669 35.7846 27.4937 35.7457 27.4514C35.7032 27.4052 35.6359 27.4052 35.5969 27.4476C35.5827 27.463 35.2497 27.8208 35.1754 28.4211C34.6086 28.779 34.017 29.2638 33.4538 29.9295C33.4644 29.4716 33.6592 29.0984 33.6592 29.0945C33.6876 29.0406 33.6699 28.9675 33.6203 28.9367C33.5707 28.906 33.5034 28.9252 33.475 28.9791C33.4644 29.0022 33.181 29.5409 33.2519 30.1758C32.9827 30.5183 32.7241 30.9031 32.4761 31.3379C32.4442 31.3917 32.4619 31.4649 32.5115 31.4956C32.5292 31.5072 32.5469 31.511 32.5682 31.511C32.6036 31.511 32.639 31.4918 32.6603 31.4572C32.8976 31.0416 33.1456 30.6722 33.4007 30.3451C33.6805 30.4528 34.7538 30.853 35.8909 31.0724C35.898 31.0724 35.9051 31.0724 35.9086 31.0724C35.9582 31.0724 36.0043 31.0339 36.0114 30.9762C36.022 30.9146 35.983 30.853 35.9263 30.8415C34.892 30.6414 33.9143 30.2912 33.5494 30.1527C34.1162 29.4678 34.7149 28.9714 35.2852 28.6135C35.4871 28.7059 36.2487 29.0329 37.9632 29.4254C37.9703 29.4254 37.9773 29.4293 37.9844 29.4293C38.034 29.4293 38.0765 29.3908 38.0872 29.3369C38.0978 29.2754 38.0624 29.2138 38.0057 29.1984C36.6171 28.879 35.8555 28.602 35.5225 28.4673C35.9582 28.2172 36.3727 28.0479 36.7375 27.9286C37.1343 27.8016 37.5027 27.7285 37.8215 27.6861C37.9596 27.7554 38.5547 28.0402 39.1073 28.2172C39.118 28.221 39.1286 28.221 39.1357 28.221C39.1817 28.221 39.2243 28.1864 39.2384 28.1364C39.2597 28.094 39.2278 28.0286 39.1711 28.0094Z" fill="#221906"/>
<path d="M34.5342 36.6635C34.5342 36.6635 35.5012 37.6371 36.3053 38.3797C37.1095 39.1262 37.9348 39.4071 37.9348 39.4071C37.9348 39.4071 38.8346 38.0065 38.1615 36.2826C37.4885 34.5587 34.5342 36.6635 34.5342 36.6635Z" fill="#435007"/>
<path d="M32.3201 37.1252C32.3201 37.1252 33.0463 34.4547 35.6677 35.1859C35.6677 35.1859 38.0764 34.7895 38.3138 36.8944C38.3138 36.8944 38.0552 35.867 36.3761 36.4595C34.7006 37.0483 32.515 39.6418 32.515 39.6418C32.515 39.6418 32.0438 38.5105 32.3201 37.1252Z" fill="#84960E"/>
<path d="M33.5813 36.1132C33.8222 36.0363 35.2852 35.6246 36.8615 36.1248C36.9182 36.144 36.9784 36.1055 36.9926 36.0478C37.0103 35.9863 36.9749 35.9208 36.9217 35.9055C35.8378 35.563 34.8247 35.6284 34.1835 35.7361C34.5165 35.5822 34.9274 35.4706 35.4269 35.4283C35.4871 35.4245 35.5296 35.3667 35.526 35.3052C35.5225 35.2398 35.4694 35.1936 35.4127 35.1974C34.5094 35.2744 33.893 35.5707 33.4786 35.9093C33.4573 35.917 33.4432 35.9324 33.429 35.9478C33.2448 36.1056 33.0995 36.2672 32.9897 36.4211C32.6001 36.9637 32.5363 37.4716 32.5328 37.4947C32.5292 37.5293 32.5399 37.5639 32.5611 37.5909C32.5824 37.614 32.6072 37.6255 32.6355 37.6255C32.639 37.6255 32.6426 37.6255 32.6497 37.6255C32.6568 37.6255 33.2448 37.5485 34.2473 37.5485C34.2579 37.5485 34.265 37.5485 34.2756 37.5485C34.3358 37.5485 34.3819 37.4985 34.3819 37.4331C34.3819 37.3677 34.3358 37.3177 34.2756 37.3177C33.5282 37.3177 33.0145 37.3561 32.7737 37.3792C32.841 37.1176 33.0358 36.5673 33.5813 36.1132ZM37.9455 39.107C37.9348 39.0492 37.694 37.6678 36.5427 36.5789C36.5002 36.5365 36.4329 36.5404 36.3939 36.5904C36.355 36.6366 36.3585 36.7097 36.4045 36.752C37.4956 37.7871 37.7365 39.1301 37.7365 39.1493C37.7471 39.2032 37.7896 39.2455 37.8392 39.2455C37.8463 39.2455 37.8534 39.2455 37.8569 39.2455C37.9171 39.2301 37.9561 39.1685 37.9455 39.107Z" fill="#221906"/>
<path d="M24.6653 48.927L23.5565 48.1074C23.5565 48.1074 23.5317 46.0295 25.9405 47.003C28.3493 47.9765 29.4581 48.927 29.4581 48.927H24.6653Z" fill="#F69985"/>
<path d="M28.2891 50.9202C23.7655 49.4387 23.553 49.3349 23.553 49.3349C23.553 49.3349 23.599 46.8722 26.5746 48.5653C29.5502 50.2584 28.2891 50.9202 28.2891 50.9202Z" fill="#F69E8B"/>
<path d="M55.3523 108.363C55.3523 108.363 52.7735 116.798 49.1532 121.153C49.0257 121.307 48.8947 121.457 48.7636 121.6C48.7636 121.6 47.7009 122.177 44.9024 121.869C44.9024 121.869 44.5518 121.604 44.3676 120.869C44.2507 120.411 44.2011 119.776 44.3357 118.906C44.3746 118.66 44.4101 118.337 44.4455 117.956C44.6474 115.789 44.7997 111.761 44.8741 109.486C44.906 108.47 44.9237 107.805 44.9237 107.805L50.4993 104.476C50.4993 104.476 50.9457 104.653 51.64 105.077C52.2811 105.469 53.1384 106.069 54.0417 106.935C54.4738 107.351 54.9166 107.824 55.3523 108.363Z" fill="#58E5AA"/>
<path d="M67.7151 95.5105C67.7151 95.5105 67.5026 99.8972 65.023 105.361C63.4006 108.932 62.0226 110.991 61.2645 111.991C61.2539 112.003 61.2468 112.015 61.2362 112.026L61.2327 112.03C61.1335 112.161 61.0449 112.272 60.967 112.365C60.7474 112.63 60.6305 112.749 60.6305 112.749C59.1073 113.042 58.0942 112.611 57.5522 112.253C57.2617 112.061 57.0952 111.714 57.1129 111.345C57.1165 111.314 57.1165 111.28 57.1165 111.245C57.1661 110.325 57.2546 108.513 57.329 106.777C57.3821 105.527 57.4246 104.315 57.4388 103.51C57.4565 102.345 57.2865 100.74 57.1094 99.4047C56.9252 98.004 56.7303 96.8958 56.7303 96.8958C56.7303 96.8958 59.4579 92.9709 59.9539 92.4706C60.3506 92.0705 60.8607 91.9396 61.8951 92.3552C62.1572 92.4591 62.4512 92.5976 62.7842 92.7785C63.6556 93.2441 64.9663 93.9714 66.0148 94.5563C66.9748 95.095 67.7151 95.5105 67.7151 95.5105Z" fill="#58E5AA"/>
<path d="M49.8017 108.824C47.6975 110.745 45.7882 110.702 44.8707 109.483C44.9026 108.467 44.9203 107.801 44.9203 107.801L50.4959 104.472C50.4959 104.472 50.9423 104.649 51.6366 105.073C51.7499 105.819 51.6047 107.181 49.8017 108.824Z" fill="#221906"/>
<path d="M45.3029 108.082C45.2569 111.395 45.3029 112.242 45.3029 112.242C45.3029 112.242 46.3904 111.707 47.6161 112.053V107.393L45.3029 108.082Z" fill="#221906"/>
<path d="M50.3223 102.283C51.0662 105.554 51.0662 105.554 51.0662 105.554C51.0662 105.554 50.3577 108.055 48.3386 108.748C46.3194 109.44 45.2213 108.748 45.2213 108.748L43.6981 103.899L50.3223 102.283Z" fill="#F69985"/>
<path d="M57.4176 98.1811C57.91 101.136 57.9596 102.029 57.9596 102.029C57.9596 102.029 58.2182 101.259 60.0602 101.694C60.0602 101.694 60.085 99.9242 59.837 97.9733C59.5926 96.0262 57.4176 98.1811 57.4176 98.1811Z" fill="#221906"/>
<path d="M60.7723 99.1276C59.3801 100.509 57.9349 100.586 57.113 99.4085C56.9288 98.0079 56.734 96.8997 56.734 96.8997C56.734 96.8997 59.4616 92.9747 59.9575 92.4745C60.3543 92.0743 60.8644 91.9435 61.8987 92.3591C62.1325 92.5861 62.3947 92.8939 62.6603 93.3057C63.4396 94.5101 62.547 97.3653 60.7723 99.1276Z" fill="#221906"/>
<path d="M53.6167 95.8723C57.4672 98.8236 57.8427 99.1315 57.8427 99.1315C57.8427 99.1315 59.7804 98.9776 61.0556 97.2575C62.3308 95.5375 61.8597 93.0517 61.8597 93.0517L57.2795 89.1537L53.6167 95.8723Z" fill="#F7A391"/>
<path d="M52.7063 21.4525C52.7063 21.4525 52.7914 23.6073 53.2873 26.0701C53.7832 28.5328 53.971 29.968 53.2873 31.9305C52.6036 33.893 51.4453 38.8953 54.8211 42.1046C58.197 45.3099 59.8512 32.8425 59.8512 32.8425L59.6387 26.3009L54.7361 19.6439C54.7361 19.6439 53.259 18.7589 52.7063 21.4525Z" fill="#221906"/>
<path d="M75.1081 40.7923C75.1081 40.7923 75.2498 39.0492 74.0454 37.0483C74.0737 37.1098 74.7397 38.5182 74.1623 41.2772C73.5707 44.0978 73.8789 45.5369 74.0914 46.0217C74.0914 46.0217 73.3369 45.356 73.0287 42.9434C73.0287 42.9434 73.2165 45.8409 71.6579 47.0992C70.0992 48.3575 64.6901 37.0406 64.6901 37.0406C64.6901 37.0406 64.2154 33.8237 64.6901 30.1296C67.0387 26.0277 66.5215 22.9955 66.0468 21.6217C66.1354 21.8295 66.2275 22.045 66.3231 22.2682C67.6231 25.3735 68.5654 27.3745 70.5987 30.145C72.6285 32.9194 75.6749 36.0747 75.1081 40.7923Z" fill="#435007"/>
<path d="M56.9925 33.3542C56.9925 33.3542 56.6134 35.817 55.7881 37.9218C54.9627 40.0266 53.8752 42.6317 53.8752 42.6317C53.8752 42.6317 53.7087 42.7972 55.0548 44.7212C56.4009 46.6452 58.8557 47.9612 58.8557 47.9612L59.5181 37.7409L56.9925 33.3542Z" fill="#325698"/>
<path d="M55.1045 42.1545C54.017 45.2598 53.8717 45.3868 53.8717 45.3868C53.8717 45.3868 50.6659 45.9755 46.3691 46.2333C42.0722 46.4911 39.8264 46.3873 39.8264 46.3873C39.8264 46.3873 38.5263 45.5407 36.4009 45.5407C34.2755 45.5407 31.3956 45.1059 31.3956 45.1059C31.3956 45.1059 30.9705 46.3642 32.058 46.672C33.1455 46.9798 33.7584 46.8529 33.7584 46.8529L31.3141 47.0068C31.3141 47.0068 28.5865 45.2636 27.8781 44.7749C27.1696 44.2863 26.4611 45.2867 26.4611 45.2867C26.4611 45.2867 25.1611 45.4676 24.9734 46.6451C24.7856 47.8264 31.0662 50.5431 31.0662 50.5431L40.0389 49.5157C40.0389 49.5157 53.6981 50.1621 55.8554 50.1583C58.0092 50.1544 58.5122 49.8042 58.5122 49.8042L59.8547 44.4517L55.1045 42.1545Z" fill="#F69985"/>
<path d="M54.5804 40.9193C54.5804 40.9193 55.8839 41.1502 57.0883 42.2546C58.2927 43.359 59.0543 44.9212 59.0543 44.9212L58.3813 47.9804C58.3813 47.9804 58.2219 46.926 57.8924 46.0025C57.8924 46.0025 57.5099 47.4147 56.6951 45.9756C55.8839 44.5403 55.0586 42.3585 54.9629 42.8202C54.8673 43.282 54.5839 43.8477 53.7585 42.6278L54.5804 40.9193Z" fill="#325698"/>
<path d="M25.5828 48.3767C25.5828 48.3767 25.3985 47.3801 26.695 46.7413C26.695 46.7413 27.4496 44.1555 32.0333 43.9477C36.6136 43.7438 38.5973 48.3767 38.5973 48.3767C38.5973 48.3767 37.4283 51.4397 32.0865 51.3358C26.7411 51.2358 25.5828 48.3767 25.5828 48.3767Z" fill="#BC561E"/>
<path d="M62.3061 31.0686C62.3061 31.0686 64.4315 30.2259 67.3362 31.4072C70.2409 32.5885 70.4995 36.4095 70.6412 38.4374C70.7829 40.4653 71.0663 42.7202 71.3497 45.029C71.6331 47.3378 72.6001 50.851 72.083 56.6499C71.5658 62.4488 70.5491 64.8846 70.5491 64.8846C70.5491 64.8846 68.6363 65.4733 65.5651 64.8846C62.4939 64.2958 52.4336 60.5248 51.4418 59.6513C50.4499 58.7778 49.7875 58.7278 52.2919 57.0347C54.7964 55.3416 57.4885 52.648 57.4885 52.648C57.4885 52.648 58.3529 49.4696 58.3706 46.041C58.3741 45.6293 58.1722 45.2522 57.8499 45.0406C57.1662 44.5865 56.0964 43.4937 56.6596 41.3119C57.4637 38.2066 57.6267 37.36 57.6267 37.36C57.6267 37.36 57.0351 33.8468 56.9891 33.3581C56.943 32.8694 60.4145 31.615 60.4145 31.615L62.3061 31.0686Z" fill="#325698"/>
<path d="M59.5217 31.738C59.5217 31.738 59.0258 32.9963 59.001 34.6894C58.9762 36.3826 59.0718 37.0483 59.9928 37.1252C60.9138 37.2022 62.306 37.5369 62.685 35.8939C63.064 34.2508 63.7937 32.8424 64.69 32.0959C65.5897 31.3533 66.1317 30.7607 63.8646 30.6606C61.5975 30.5567 59.5217 31.738 59.5217 31.738Z" fill="#223E71"/>
<path d="M59.3058 66.366C56.4896 69.1942 44.853 78.4871 44.853 78.4871L46.7801 86.4716L49.0542 95.8876L50.8042 103.13C47.191 108.324 41.6118 104.63 41.6118 104.63C40.5243 101.132 38.0836 93.7482 35.8803 87.2066C35.0479 84.7324 34.2473 82.3774 33.5707 80.3995C33.4113 79.9301 33.2554 79.4837 33.1102 79.0604C30.7191 72.1341 32.4726 70.8065 32.4726 70.8065C32.4726 70.8065 42.9933 63.303 53.1952 56.9538C53.1952 56.9538 58.8275 55.9726 62.547 58.6816C66.2629 61.3983 62.1219 63.5377 59.3058 66.366Z" fill="#2C3306"/>
<path d="M49.0542 95.8915C42.5576 93.8598 38.034 89.6078 35.8803 87.2105C35.0478 84.7362 34.2473 82.3813 33.5707 80.4034H40.9635C40.9635 80.4034 43.847 83.2086 46.78 86.4755L49.0542 95.8915Z" fill="#221906"/>
<path d="M68.0163 62.6719C67.5097 64.973 66.2522 67.909 63.8009 70.2024C63.0074 70.945 62.0864 71.6223 61.0273 72.1841C59.8654 72.8036 58.5335 73.2885 57.0173 73.5809C54.9628 73.9772 52.9507 74.3313 51.1264 74.6314C48.8098 75.0124 46.7977 75.3125 45.3772 75.5126C44.0134 75.705 43.1987 75.8089 43.1987 75.8089C43.1987 75.8089 44.9805 77.1903 47.2759 78.9642C51.0308 81.8656 56.153 85.8098 57.0634 86.4293C58.5264 87.4298 58.0092 88.0185 58.0092 88.0185C58.0092 88.0185 59.1427 90.3273 58.0092 93.0709C56.8757 95.8145 54.4173 96.8958 54.4173 96.8958C54.4173 96.8958 48.785 92.7977 41.0273 88.1801C33.2695 83.5625 26.5214 79.5222 26.5214 79.5222C24.3854 76.5823 24.2189 73.8079 24.5235 71.8686C24.775 70.2639 25.7988 68.9249 27.2086 68.363C28.3847 67.8936 30.085 67.2664 32.1537 66.6546C36.0503 65.5002 42.6957 63.0375 54.8424 58.8124C55.4481 58.6007 56.0645 58.3891 56.695 58.1698C56.695 58.1698 68.8665 58.8047 68.0163 62.6719Z" fill="#435007"/>
<path d="M64.9169 31.1725C64.9169 31.1725 62.8446 32.6155 62.4018 34.501C61.959 36.3865 61.7288 36.4827 60.5952 36.4442C59.4617 36.4057 59.5148 36.0401 59.5042 34.9358C59.4971 34.3163 59.5644 33.5582 59.6246 33.0156C59.6707 32.5924 59.7132 32.2999 59.7132 32.2999L58.8878 31.0647L59.7238 29.8295L62.5683 25.6275C62.5683 25.6275 62.5683 25.6275 63.2945 27.9363C64.0207 30.2528 64.9169 31.1725 64.9169 31.1725Z" fill="#F7A391"/>
<path d="M68.0162 62.6719C67.3467 65.7195 65.3559 69.8792 61.0272 72.1841C63.2695 68.4823 61.3921 63.8301 61.3921 63.8301L59.8476 64.4458C59.4225 63.4338 61.0272 63.0105 61.0272 63.0105C59.3021 59.2549 54.8387 58.8124 54.8387 58.8124C55.4445 58.6007 56.0609 58.3891 56.6914 58.1698C56.6949 58.1698 68.8664 58.8047 68.0162 62.6719Z" fill="#221906"/>
<path d="M47.2759 78.9643C43.3121 77.1173 40.9635 75.8898 40.9635 75.8898L45.2568 75.4011C45.2568 75.4011 45.2993 75.4395 45.3772 75.5126C44.0134 75.705 43.1987 75.8089 43.1987 75.8089C43.1987 75.8089 44.984 77.1942 47.2759 78.9643Z" fill="#221906"/>
<path d="M59.7201 29.8333L58.8912 31.057C59.0223 31.157 59.125 31.2724 59.125 31.2724C59.125 31.2724 59.1002 31.3071 59.6245 32.1767L59.7095 32.3037C59.7095 32.3037 59.7095 32.3075 59.7095 32.3152C59.791 32.4499 59.8831 32.6038 59.9894 32.7731C62.7595 30.8607 62.8622 29.0098 62.8622 29.0098L59.7201 29.8333Z" fill="#221906"/>
<path d="M55.4234 18.782C55.4234 18.782 53.7585 19.8209 54.2898 23.8228C54.7291 27.1359 55.8272 29.5024 56.9749 31.2456C57.3894 31.8728 58.1368 32.1267 58.8028 31.8612C59.8407 31.4456 61.3887 30.6876 62.4726 29.5601C64.2438 27.7131 62.6497 22.8262 62.2955 21.4409C61.9413 20.0556 58.6469 17.9354 55.4234 18.782Z" fill="#F7A391"/>
<path d="M56.7588 21.1446C56.7588 21.1446 58.7708 22.6145 61.9589 22.9993C61.9589 22.9993 61.7499 23.0263 62.214 24.5077C62.678 25.9892 66.2097 25.3081 65.4481 23.3072C64.6865 21.3062 59.6741 19.4977 59.6741 19.4977L56.7588 21.1446Z" fill="#221906"/>
<path d="M62.214 24.5039C62.214 24.5039 63.2058 22.5529 64.2685 23.8112C65.3312 25.0695 64.1977 27.5823 63.0393 27.1474L62.214 24.5039Z" fill="#F7A391"/>
<path d="M55.0797 20.7329C55.0797 20.7329 55.0761 19.3899 56.8969 18.1509C58.7177 16.9118 59.9681 16.9619 59.9681 16.9619C59.9681 16.9619 59.922 16.3539 58.08 16.6579C56.238 16.9619 52.4583 19.0398 52.7205 21.6333C52.9791 24.223 53.0499 24.5578 53.0499 24.5578C53.0499 24.5578 52.5079 21.5294 53.1208 20.7098C53.7336 19.8902 54.2543 20.7059 55.0797 20.7329Z" fill="#435007"/>
<path d="M67.4567 32.3538C67.4567 32.3538 66.1567 32.5077 64.9169 34.4048C63.677 36.3018 63.8648 37.3292 64.1978 37.8949C64.1978 37.8949 63.4893 39.9458 62.756 42.0007C62.0228 44.0516 62.0228 44.0516 62.0228 44.0516C62.0228 44.0516 61.9519 45.0521 62.7064 46.0795C63.461 47.1069 62.5895 47.4378 63.7443 49.4388C64.9027 51.4397 67.0741 52.3902 67.3115 50.8241C67.3115 50.8241 69.2491 52.775 69.6494 50.1584C69.6494 50.1584 70.1206 47.3801 70.4996 44.2056C70.8786 41.031 70.9707 38.2527 70.6413 35.9709C70.3118 33.689 68.6611 32.6116 67.4567 32.3538Z" fill="#325698"/>
<path d="M68.1085 45.61C68.0979 45.7023 68.0802 45.7947 68.0624 45.8909C67.9208 46.6181 67.7295 47.2992 67.5063 47.9265C66.7872 49.9543 65.7458 51.4666 65.0515 52.4902C64.6653 53.0558 64.0667 53.406 63.4185 53.4406C53.0288 53.9678 41.3603 51.7282 39.0862 51.2665C38.824 51.2126 38.5548 51.2126 38.2927 51.2626C35.8945 51.7167 32.0086 52.2901 32.0086 52.2901C29.3625 51.5474 24.97 49.4426 24.97 49.4426C25.1825 47.6225 26.8828 48.3151 28.4415 48.9539C30.0001 49.5965 32.1503 49.8774 32.1503 49.8774L35.5261 49.1347L35.5013 48.9539H32.2672C31.5127 47.7494 32.5506 47.3647 33.8506 47.1569C34.9062 46.9914 36.7057 46.5874 37.3469 46.4411C37.5027 46.4065 37.6621 46.418 37.8074 46.4796L39.3802 47.1338C39.5219 47.1915 39.6671 47.23 39.8159 47.2492C41.0096 47.3954 46.7093 48.0765 51.5977 48.1458C57.0883 48.2227 60.4641 47.7995 60.4641 47.7995C60.4641 47.7995 60.6235 47.6917 62.0936 44.7403C62.0936 44.7403 62.0936 44.7403 62.0936 44.7365C62.2282 44.4671 62.3735 44.1747 62.5293 43.8591C62.5293 43.8591 64.7008 43.0588 66.3409 43.2589C67.4532 43.3974 68.321 43.9938 68.1085 45.61Z" fill="#F7A391"/>
<path d="M68.1083 45.61C68.0976 45.7024 68.0799 45.7947 68.0622 45.8909C67.9205 46.6182 67.7292 47.2993 67.5061 47.9265C67.2617 47.2916 67.0597 47.2031 67.0597 47.2031C67.0597 47.2031 67.0243 47.6264 66.2627 47.2031C65.5011 46.7798 64.031 45.6447 63.1986 44.952C62.398 44.2825 62.1146 44.7058 62.0969 44.7404C62.2315 44.471 62.3768 44.1786 62.5326 43.863C62.5326 43.863 64.7041 43.0627 66.3442 43.2628C66.9357 43.84 67.623 44.6326 68.0728 45.5292C68.0835 45.5562 68.0941 45.5831 68.1083 45.61Z" fill="#221906"/>
<path d="M31.7003 44.6172C31.7003 44.6172 32.5044 32.8155 32.3627 30.9184C32.221 29.0214 32.5753 30.8415 32.5753 31.688C32.5753 32.5346 32.6461 34.3816 32.5753 37.1791C32.5044 39.9766 32.4088 44.6172 32.4088 44.6172C32.4088 44.6172 32.1254 44.9751 31.7003 44.6172Z" fill="#435007"/>
<path d="M32.2919 37.8448C32.2919 37.8448 32.1962 36.5634 30.1204 34.7395C28.0411 32.9194 24.5696 34.0969 24.5696 34.0969C24.5696 34.0969 25.6146 33.789 27.2157 33.8929C28.8133 33.9968 30.085 34.9204 30.9954 36.2017C31.9199 37.5023 31.9872 37.764 32.0935 38.3797C32.0899 38.3835 32.4194 38.3181 32.2919 37.8448Z" fill="#435007"/>
<path d="M68.0942 44.0016C65.781 42.0776 62.6106 42.4162 62.6106 42.4162L61.7676 44.0285C61.7676 44.0285 62.2174 44.0285 62.9472 43.6938C62.9472 43.6938 62.9932 44.5903 64.9203 45.6447C66.0148 46.2411 66.5391 46.245 66.7906 46.1334C66.8579 45.7832 66.656 45.5793 66.656 45.5793C67.1626 45.7178 67.6018 46.2219 67.6018 46.2219C67.6018 46.2219 67.5628 46.245 67.4991 46.2834C67.9596 46.6836 68.6362 47.3878 69.0435 48.3383C69.7059 49.8775 69.6563 50.1584 69.6563 50.1584L70.1842 46.6875C70.1806 46.6875 70.4073 45.9256 68.0942 44.0016Z" fill="#325698"/>
<path d="M30.2373 35.0089C30.2373 35.0089 30.549 36.0902 28.4449 37.1176C26.3408 38.145 21.9943 36.5096 21.9943 36.5096C21.9943 36.5096 18.6645 37.0637 21.9943 34.3239C25.3241 31.5842 29.458 33.4274 30.2373 35.0089Z" fill="#84960E"/>
<path d="M32.6071 31.1994C32.6071 31.1994 32.9047 29.995 31.7003 27.8132C30.4959 25.6314 27.616 25.7353 27.616 25.7353C27.616 25.7353 28.537 28.6867 30 29.918C31.4665 31.1494 32.6071 31.1994 32.6071 31.1994Z" fill="#A4BB30"/>
<path d="M29.6175 34.2393C28.2218 33.6813 27.3504 33.6082 27.315 33.6082C27.3114 33.6082 27.3114 33.6082 27.3079 33.6082C27.067 33.6043 26.8403 33.6082 26.6207 33.6159C26.6136 33.612 26.6065 33.6082 26.5959 33.6082C24.6192 33.1387 23.4432 33.5966 23.3936 33.6159C23.3369 33.639 23.3121 33.7044 23.3298 33.766C23.344 33.8121 23.3865 33.8429 23.429 33.8429C23.4397 33.8429 23.4538 33.8391 23.4645 33.8352C23.4751 33.8314 24.3394 33.4927 25.8201 33.7005C24.7361 33.8622 23.9462 34.22 23.3971 34.5779C22.1042 34.7087 21.1903 35.3167 21.1513 35.3398C21.1017 35.3744 21.0875 35.4437 21.1159 35.4975C21.1478 35.5514 21.2115 35.5668 21.2611 35.536C21.2682 35.5322 21.9696 35.0627 22.9898 34.8665C22.2849 35.4321 22.0192 35.9785 22.0085 36.0016C21.9802 36.0593 22.0015 36.1286 22.0546 36.1555C22.0688 36.1632 22.0865 36.1671 22.1042 36.1671C22.1432 36.1671 22.1786 36.144 22.1998 36.1055C22.2034 36.0978 22.4868 35.5168 23.2484 34.9473C23.3015 34.9088 23.3546 34.8703 23.4113 34.8318C23.5743 35.0242 24.0631 35.6669 24.3642 36.7481C24.3784 36.7982 24.4209 36.8289 24.4669 36.8289C24.4776 36.8289 24.4882 36.8289 24.4988 36.8251C24.5555 36.8059 24.5874 36.7404 24.5697 36.6827C24.2721 35.6053 23.801 34.955 23.5991 34.7087C24.2721 34.2931 25.2958 33.8929 26.7588 33.8391C26.7694 33.8506 26.7801 33.8622 26.7942 33.8699C26.8013 33.8737 27.5594 34.3008 28.0837 36.3826C28.0978 36.4326 28.1403 36.4672 28.1864 36.4672C28.197 36.4672 28.2041 36.4672 28.2147 36.4634C28.2714 36.448 28.3033 36.3826 28.2891 36.321C27.9065 34.7972 27.3894 34.1123 27.1024 33.8352C27.1662 33.8352 27.2299 33.8352 27.2937 33.8391C27.3433 33.8429 28.2005 33.9276 29.536 34.4586C29.5927 34.4817 29.6529 34.4509 29.6742 34.3893C29.6954 34.3278 29.6742 34.2623 29.6175 34.2393Z" fill="#221906"/>
<path d="M32.6037 30.7414C32.4514 29.9872 32.1326 29.3254 31.7535 28.7597C31.7465 28.7443 31.7394 28.7328 31.7288 28.7251C31.3037 28.1017 30.8042 27.5976 30.365 27.2244C29.4581 26.4509 28.6398 26.0623 28.6044 26.043C28.5513 26.0161 28.4875 26.043 28.4663 26.1046C28.4415 26.1623 28.4663 26.2316 28.5229 26.2547C28.5336 26.2585 28.8488 26.4125 29.2952 26.7049L28.5513 26.8049C28.4946 26.8126 28.4521 26.8704 28.4592 26.9319C28.4663 26.9896 28.5123 27.032 28.5654 27.032C28.569 27.032 28.5725 27.032 28.5796 27.032L29.5821 26.8973C30.1666 27.3129 30.8892 27.9247 31.4702 28.7251C31.2257 28.7559 30.6979 28.7905 29.8053 28.6943C29.7486 28.6866 29.6954 28.7328 29.6884 28.7982C29.6813 28.8598 29.7238 28.9175 29.784 28.9252C30.2374 28.9752 30.5987 28.9906 30.8786 28.9906C31.2718 28.9906 31.5056 28.9598 31.6154 28.9367C31.9732 29.4754 32.2601 30.095 32.4018 30.7914C32.4124 30.8453 32.4549 30.8838 32.5045 30.8838C32.5116 30.8838 32.5187 30.8838 32.5258 30.88C32.5789 30.8646 32.6143 30.803 32.6037 30.7414Z" fill="#221906"/>
<path d="M62.8622 25.6198C62.8551 25.6198 62.8515 25.6198 62.8445 25.6198C62.7878 25.6082 62.7488 25.5505 62.7594 25.4851C62.8693 24.7924 63.0889 24.3653 63.4077 24.2229C63.7619 24.0652 64.0914 24.3191 64.1055 24.3307C64.1516 24.3692 64.1622 24.4384 64.1303 24.4923C64.0949 24.5423 64.0311 24.5539 63.9815 24.5192C63.978 24.5154 63.73 24.3268 63.4856 24.4384C63.2412 24.5462 63.0641 24.9233 62.9684 25.5236C62.9578 25.5813 62.9118 25.6198 62.8622 25.6198Z" fill="black"/>
<path d="M63.1458 26.5317C63.0997 26.5317 63.0608 26.5009 63.0431 26.4509C63.0253 26.3893 63.0572 26.3239 63.1104 26.3047C63.1281 26.297 63.5177 26.1508 63.4965 25.6351C63.4788 25.1349 62.9935 25.1003 62.9722 25.0964C62.912 25.0926 62.8695 25.0387 62.873 24.9733C62.8766 24.9079 62.9261 24.8617 62.9828 24.8655C63.2237 24.8809 63.6842 25.0541 63.709 25.6236C63.7303 26.1777 63.3689 26.4548 63.1741 26.524C63.167 26.5279 63.1564 26.5317 63.1458 26.5317Z" fill="black"/>
<path d="M53.7832 55.7494C53.7832 55.7494 55.2002 55.5686 56.6879 56.1843C56.6879 56.1843 61.3886 55.9803 64.6476 59.0587C64.6476 59.0587 67.7896 59.3396 69.3943 59.9553C70.999 60.571 71.5055 59.9668 71.5941 60.5748C71.6826 61.1828 70.5491 64.8807 70.5491 64.8807C70.5491 64.8807 70.7156 64.1611 68.9444 63.9841C67.1733 63.8071 64.7397 63.6763 63.1598 62.3179L63.3971 61.8062C63.3971 61.8062 62.3805 60.8557 59.2172 59.7013C56.0539 58.5469 55.062 58.6893 55.062 58.6893C55.062 58.6893 54.8495 58.4469 55.062 58.1121C55.062 58.1121 52.2813 57.5272 50.6022 58.4969C50.6022 58.4969 50.0319 58.2121 51.2363 57.4695C52.4407 56.7268 53.7832 55.7494 53.7832 55.7494Z" fill="#325698"/>
<path d="M59.6493 112.888C58.6787 112.888 57.9844 112.584 57.5345 112.288C57.2334 112.088 57.0598 111.73 57.0811 111.345C57.0811 111.326 57.0846 111.306 57.0846 111.287L57.0882 111.245C57.0882 111.23 57.0988 111.218 57.1094 111.21C57.1201 111.206 57.1378 111.206 57.1449 111.218C57.5912 111.634 58.5193 112.103 60.3932 111.968C60.4038 111.968 60.4144 111.972 60.4215 111.98C60.4286 111.988 60.4321 111.999 60.4321 112.011C60.4286 112.138 60.4428 112.476 60.5774 112.542C60.6589 112.58 60.7864 112.511 60.9458 112.342C60.9599 112.326 60.9812 112.326 60.9954 112.342C61.0095 112.357 61.0095 112.38 60.9989 112.395C60.7828 112.661 60.6624 112.78 60.6589 112.784C60.6553 112.788 60.6482 112.792 60.6411 112.796C60.2798 112.857 59.9504 112.888 59.6493 112.888ZM57.1519 111.326C57.1519 111.333 57.1519 111.341 57.1519 111.349C57.1342 111.703 57.2936 112.038 57.5735 112.222C58.1473 112.603 59.1392 112.996 60.6163 112.715C60.6305 112.699 60.6624 112.665 60.712 112.611C60.6518 112.634 60.5951 112.634 60.5455 112.611C60.3719 112.526 60.3578 112.18 60.3578 112.049C60.1488 112.065 59.9468 112.068 59.7591 112.068C58.3457 112.068 57.5699 111.687 57.1519 111.326Z" fill="#F15A24"/>
<path d="M67.7153 95.5105C67.7153 95.5105 67.5028 99.8972 65.0231 105.361C63.4007 108.932 62.0228 110.991 61.2647 111.991C61.2541 112.003 61.247 112.014 61.2364 112.026L61.2328 112.03C61.1337 112.161 61.0451 112.272 60.9672 112.365C60.7475 112.63 60.6306 112.749 60.6306 112.749C59.1074 113.042 58.0943 112.611 57.5524 112.253C57.2619 112.061 57.0954 111.714 57.1131 111.345C57.1166 111.314 57.1166 111.28 57.1166 111.245C57.1662 110.325 57.2548 108.513 57.3292 106.777C57.5807 106.235 58.0022 105.727 58.7142 105.615C60.3685 105.357 61.5942 109.105 61.5942 109.105C61.5942 109.105 63.4362 106.947 64.8779 102.471C65.9123 99.2546 66.0327 96.0839 66.0185 94.5562C66.975 95.0949 67.7153 95.5105 67.7153 95.5105Z" fill="#221906"/>
<path d="M58.9881 100.891C59.6395 100.568 60.0669 100.066 59.9427 99.7706C59.8185 99.4748 59.1898 99.4966 58.5383 99.8193C57.8869 100.142 57.4594 100.643 57.5836 100.939C57.7078 101.235 58.3366 101.213 58.9881 100.891Z" fill="#435007"/>
<path d="M46.4634 110.711C47.1751 110.625 47.7252 110.293 47.6921 109.97C47.659 109.647 47.0553 109.454 46.3436 109.54C45.632 109.626 45.0819 109.958 45.1149 110.281C45.148 110.604 45.7518 110.797 46.4634 110.711Z" fill="#435007"/>
<path d="M58.9549 100.105C58.9549 100.105 60.1983 98.1771 62.0296 97.1074C62.2245 96.992 62.4689 97.1074 62.5291 97.3421L62.6496 97.8154C62.7204 98.0886 62.5645 98.3695 62.3095 98.4311C61.5585 98.6235 60.0601 99.1545 58.9549 100.54C58.9549 100.54 57.5061 100.309 55.781 100.505C55.618 100.524 55.4834 100.37 55.5082 100.193C55.5295 100.051 55.5791 99.878 55.6853 99.6779C55.7703 99.5239 55.9262 99.4316 56.0927 99.4431C56.5567 99.4739 57.6265 99.5932 58.9549 100.105Z" fill="#435007"/>
<path d="M58.9551 100.694C58.9551 100.694 60.3012 99.8741 62.7808 100.898C62.7808 100.898 63.4892 100.513 62.8764 100.051C62.2636 99.5894 60.3153 99.7703 58.9551 100.351C58.9551 100.351 57.2973 100.501 56.7163 101.721C56.5356 102.098 56.564 102.556 56.7801 102.914C56.8332 102.999 56.8899 103.091 56.9501 103.18C57.028 103.299 57.2016 103.241 57.2016 103.091C57.1981 102.333 57.4035 100.89 58.9551 100.694Z" fill="#435007"/>
<path d="M46.4577 122C46.0113 122 45.4941 121.973 44.899 121.908C44.8919 121.908 44.8884 121.904 44.8813 121.9C44.8672 121.888 44.5165 121.619 44.3323 120.88C44.3287 120.865 44.3323 120.849 44.3429 120.842C44.3535 120.83 44.3677 120.83 44.3819 120.838C44.977 121.146 46.1743 121.353 48.5051 120.603C48.5158 120.599 48.5299 120.603 48.5406 120.611C48.5512 120.619 48.5547 120.634 48.5512 120.645C48.5228 120.803 48.4874 121.23 48.6433 121.33C48.7389 121.392 48.909 121.323 49.1321 121.126C49.1463 121.115 49.1676 121.115 49.1817 121.13C49.1959 121.146 49.1959 121.169 49.1817 121.184C49.0542 121.338 48.9231 121.488 48.7921 121.631C48.7885 121.634 48.785 121.634 48.7814 121.638C48.746 121.654 48.0836 122 46.4577 122ZM44.9167 121.834C47.57 122.123 48.661 121.611 48.7425 121.569C48.8027 121.504 48.8629 121.434 48.9231 121.369C48.7921 121.442 48.6858 121.45 48.6079 121.396C48.4201 121.277 48.4555 120.853 48.4733 120.692C46.2416 121.4 45.0443 121.23 44.4244 120.938C44.5909 121.538 44.8672 121.792 44.9167 121.834Z" fill="#F15A24"/>
<path d="M55.3523 108.363C55.3523 108.363 52.7735 116.798 49.1532 121.153C49.0257 121.307 48.8947 121.457 48.7636 121.6C48.7636 121.6 47.7009 122.177 44.9024 121.869C44.9024 121.869 44.5518 121.604 44.3676 120.869C44.2507 120.411 44.2011 119.776 44.3357 118.906C44.3746 118.66 44.4101 118.337 44.4455 117.956C45.3311 116.774 47.414 114.712 49.1497 118.598C49.1497 118.598 50.9917 116.52 52.5149 112.596C53.4395 110.214 53.8539 108.174 54.0381 106.939C54.4738 107.351 54.9166 107.824 55.3523 108.363Z" fill="#221906"/>
<path d="M46.401 110.006C46.401 110.006 47.6833 107.832 50.2869 108.105C50.4995 108.128 50.6624 108.32 50.6624 108.555V109.163C50.6624 109.163 48.916 108.521 46.401 110.421C46.401 110.421 44.4739 109.14 43.057 109.987L43.3298 108.975C43.4183 108.651 43.6946 108.432 44.0064 108.444C44.5802 108.463 45.5189 108.728 46.401 110.006Z" fill="#435007"/>
<path d="M46.4009 110.264C46.4009 110.264 47.7824 109.521 49.9999 110.956L49.5997 112.049C49.5997 112.049 48.6787 110.545 46.4009 110.545C46.4009 110.545 44.7573 110.729 44.6404 112.049C44.6404 112.049 43.9567 111.241 44.6404 110.572C45.3241 109.902 46.4009 110.264 46.4009 110.264Z" fill="#435007"/>
<path d="M70.3083 46.3257C69.1181 44.167 68.1014 43.4128 67.7791 43.2127C67.8216 43.1358 67.8605 43.0588 67.903 42.9857C67.9314 42.9318 67.9137 42.8587 67.8641 42.8279C67.8145 42.7971 67.7472 42.8164 67.7188 42.8703C67.6267 43.0434 67.5311 43.2166 67.4319 43.3897C66.0362 42.4701 64.3536 42.32 63.8258 42.2969C63.8612 42.2122 63.8967 42.1199 63.9321 42.0275C63.9533 41.9698 63.9285 41.9006 63.8754 41.8775C63.8223 41.8544 63.7585 41.8813 63.7373 41.939C63.6912 42.0622 63.6451 42.1776 63.5991 42.2854C63.0642 42.2507 62.7489 42.3469 62.5825 42.4354C63.6558 39.8419 64.9983 36.1401 65.016 36.094C65.0373 36.0363 65.009 35.967 64.9558 35.9439C64.9027 35.9208 64.8389 35.9516 64.8177 36.0093C64.7964 36.067 62.7171 41.8005 61.6685 43.9746C61.6402 44.0362 61.5516 44.217 61.6615 44.3286C61.7429 44.4094 61.8917 44.4402 62.4478 44.1324C62.632 44.0285 62.8056 43.9207 62.9083 43.8553C63.1421 44.2555 64.0879 45.6985 65.7174 46.1449C66.3763 46.3257 66.7411 46.3026 66.858 46.0795C66.9112 45.9756 66.897 45.8524 66.8545 45.7254C67.2902 46.0833 67.9597 46.7221 68.569 47.6841C69.5573 49.2463 69.5467 50.1468 69.5467 50.1545C69.5431 50.2199 69.5892 50.2699 69.6494 50.2738H69.653C69.7096 50.2738 69.7557 50.2237 69.7592 50.1622C69.7592 50.1237 69.7769 49.1886 68.7426 47.5532C67.8747 46.1795 66.897 45.4522 66.5853 45.2444C66.7412 44.9982 67.1521 44.3286 67.5594 43.6129C67.5949 43.5475 67.6338 43.4821 67.6693 43.4167C67.9562 43.5975 68.9551 44.3325 70.1276 46.4527C70.1489 46.4873 70.1843 46.5104 70.2197 46.5104C70.2374 46.5104 70.2587 46.5066 70.2729 46.495C70.3225 46.4527 70.3402 46.3834 70.3083 46.3257ZM62.8765 43.6052C62.4301 43.9054 61.9803 44.1401 61.8315 44.1516C61.835 44.1362 61.8457 44.1131 61.8598 44.0824C62.0334 43.7207 62.2388 43.2589 62.4549 42.7394C62.4939 42.7587 62.5399 42.7471 62.5718 42.7125C62.5754 42.7086 62.8021 42.4816 63.4999 42.5124C63.1917 43.1781 62.9261 43.5359 62.8765 43.6052ZM66.3444 45.2098C66.3444 45.2137 66.3409 45.2137 66.3409 45.2175C66.3373 45.2214 66.3373 45.2252 66.3338 45.2291C66.3338 45.2329 66.3302 45.2368 66.3302 45.2368C66.3302 45.2406 66.3267 45.2444 66.3267 45.2483C66.3267 45.2521 66.3267 45.256 66.3232 45.2598C66.3232 45.2637 66.3232 45.2675 66.3232 45.2714C66.3232 45.2752 66.3232 45.2791 66.3232 45.2829C66.3232 45.2868 66.3232 45.2906 66.3232 45.2945C66.3232 45.2983 66.3232 45.3022 66.3232 45.3022C66.3232 45.306 66.3267 45.3099 66.3267 45.3137C66.3267 45.3176 66.3267 45.3176 66.3302 45.3214C66.3302 45.3253 66.3338 45.3291 66.3373 45.333C66.3373 45.3368 66.3409 45.3368 66.3409 45.3406C66.3444 45.3445 66.3444 45.3483 66.348 45.3522C66.348 45.356 66.3515 45.356 66.3515 45.3599C66.5392 45.5677 66.7164 45.864 66.6668 45.964C66.6526 45.9948 66.5357 46.1295 65.7635 45.9178C64.1907 45.4907 63.2626 44.0362 63.0677 43.7053C63.174 43.559 63.4361 43.1742 63.7231 42.5239C64.0879 42.5355 65.8839 42.6432 67.315 43.586C66.8333 44.4402 66.3515 45.2021 66.3444 45.2098Z" fill="#221906"/>
<path d="M60.4534 34.0853C60.4463 34.0853 60.4392 34.0853 60.4286 34.0815C60.3719 34.0661 60.3365 34.0045 60.3471 33.943L60.425 33.5659L59.2702 31.8343C59.2348 31.7842 59.2455 31.7111 59.295 31.6727C59.3411 31.6342 59.4084 31.6457 59.4438 31.6996L60.627 33.4735C60.6447 33.5004 60.6518 33.5351 60.6447 33.5659L60.5561 33.993C60.5455 34.0469 60.503 34.0853 60.4534 34.0853Z" fill="#221906"/>
<path d="M58.4238 45.6523C58.2183 45.1559 57.3221 44.4133 57.2583 44.3594C56.4046 43.5744 56.3905 42.3854 57.1946 39.6418C57.9526 37.0637 58.2041 34.4663 58.2077 34.4393C58.2148 34.3778 58.1723 34.32 58.112 34.3124C58.0518 34.3047 58.0022 34.3508 57.9951 34.4162C57.9951 34.4316 57.896 35.4283 57.6444 36.7904C57.4886 35.8362 57.2158 34.1738 57.2123 34.1546C57.2017 34.093 57.145 34.0507 57.0883 34.0622C57.0316 34.0738 56.9927 34.1315 57.0033 34.1969C57.0068 34.2238 57.4284 36.7904 57.524 37.3753C57.524 37.383 57.5275 37.3869 57.5275 37.3946C57.3859 38.0795 57.2123 38.8299 56.9927 39.5764C56.7695 40.3306 56.5995 40.9963 56.4967 41.585C56.2771 41.2656 56.0539 41.1233 55.9087 41.0579C55.9229 41.0348 55.9406 41.0155 55.9548 40.9924C56.061 40.8385 56.2275 40.5615 56.1637 40.4191C56.1425 40.3729 56.1 40.3421 56.0539 40.3383C56.0079 40.3383 55.8875 40.3306 55.6111 40.8655C55.5828 40.9193 55.6005 40.9924 55.6501 41.0232C55.6537 41.0232 55.6537 41.0271 55.6572 41.0271C55.6147 41.0886 55.5651 41.154 55.512 41.2233C54.9239 40.8731 54.5237 40.927 54.5059 40.927C54.4705 40.9309 54.4422 40.954 54.4245 40.9886L53.6593 42.5778C53.6452 42.6047 53.6452 42.6394 53.6522 42.6701C53.7443 42.9587 54.0454 43.4628 54.5662 43.4628L53.7656 45.3406C53.7408 45.3984 53.7656 45.4676 53.8187 45.4946C53.8329 45.5023 53.8471 45.5061 53.8648 45.5061C53.9037 45.5061 53.9427 45.483 53.9604 45.4407L54.9877 43.028C55.1471 43.2204 55.3526 43.5436 55.6182 44.0824C55.7458 44.344 55.8733 44.6172 55.9973 44.8789C56.5534 46.0679 56.8793 46.7336 57.2017 46.6682C57.3894 46.6297 57.4957 46.3681 57.5523 45.8024C57.5594 45.8024 57.563 45.8063 57.5701 45.8101C57.6445 45.8447 57.8357 46.0179 58.027 46.8491C58.0376 46.9029 58.0837 46.9376 58.1297 46.9376C58.1368 46.9376 58.1475 46.9376 58.1545 46.9337C58.2112 46.9183 58.2466 46.8567 58.2325 46.7952C58.0766 46.1256 57.8889 45.7254 57.6692 45.6062L57.9101 45.306C58.0483 45.4638 58.1687 45.6215 58.2218 45.7562C58.3777 46.1295 58.3069 47.4878 58.2679 47.9804C58.2644 48.0419 58.3069 48.0996 58.3635 48.1073C58.3671 48.1073 58.3706 48.1073 58.3742 48.1073C58.4273 48.1073 58.4734 48.0612 58.4804 48.0034C58.5017 47.8033 58.6292 46.1487 58.4238 45.6523ZM54.6724 43.2243H54.6689C54.173 43.2974 53.9356 42.7933 53.8754 42.6394L54.591 41.1541C54.7043 41.1541 54.9948 41.181 55.3809 41.4042C54.9806 41.9313 54.4953 42.5393 54.4811 42.5547C54.4528 42.5893 54.3642 42.724 54.4599 43.0088C54.4811 43.0703 54.5414 43.1011 54.5945 43.078C54.6512 43.0549 54.6795 42.9895 54.6583 42.9318C54.6228 42.8279 54.6264 42.7625 54.6299 42.7317C54.6618 42.7356 54.7256 42.7548 54.8283 42.851L54.6724 43.2243ZM57.3433 45.6639C57.3079 45.7062 57.3079 45.7678 57.3398 45.8139C57.276 46.4065 57.1698 46.4373 57.1662 46.4373C57.1556 46.4412 57.0564 46.445 56.7978 45.9986C56.6136 45.6831 56.4082 45.2406 56.1886 44.7711C56.0646 44.5056 55.937 44.2324 55.8095 43.9708C55.4092 43.1511 55.0585 42.674 54.7752 42.5393C55.0019 42.2546 55.4588 41.6697 55.7706 41.2503C55.8804 41.2887 56.146 41.4196 56.4082 41.8544C56.4188 41.8698 56.433 41.8852 56.4471 41.8929C56.2842 43.0742 56.4471 43.9246 57.1202 44.5441L57.1237 44.548C57.1308 44.5518 57.4602 44.825 57.7613 45.1406L57.3433 45.6639Z" fill="#221906"/>
<path d="M70.4252 64.3574C69.9222 63.961 69.5502 63.9187 67.9916 63.7455C67.5771 63.6994 67.0635 63.6416 66.4436 63.5685C64.2119 63.2953 63.507 62.6219 63.3157 62.368C63.3865 62.3295 63.468 62.2756 63.5212 62.1986C63.6416 62.0794 64.6157 61.0481 64.7751 58.4777C64.7787 58.4122 64.7362 58.3584 64.676 58.3545C64.6158 58.3507 64.5662 58.3968 64.5626 58.4623C64.4422 60.4055 63.8329 61.4406 63.5353 61.8408C63.3122 61.3983 62.2566 60.9019 60.5421 60.1323C60.326 60.0361 60.1099 59.936 59.8903 59.8398C57.6374 58.8124 55.9406 58.647 55.2144 58.5777C55.0196 58.5585 54.9558 58.5084 54.9487 58.4815C54.9346 58.4276 55.0266 58.2891 55.1223 58.2044C55.1223 58.2044 55.1223 58.2006 55.1258 58.2006C55.1329 58.1968 55.1365 58.1891 55.14 58.1852C55.14 58.1852 55.1435 58.1852 55.1435 58.1814C55.1542 58.166 56.2098 56.546 56.9678 55.8187C57.0104 55.7764 57.0174 55.7033 56.9785 55.6571C56.9395 55.6109 56.8722 55.6032 56.8297 55.6455C56.1248 56.3189 55.2109 57.685 55.0089 57.9928C54.7999 57.9582 54.095 57.862 52.7312 57.8389C51.4453 57.8197 50.8254 57.9159 50.5987 58.1814C50.5208 58.2737 50.4854 58.3815 50.4925 58.5123C50.496 58.5739 50.5421 58.62 50.5987 58.62C50.6023 58.62 50.6058 58.62 50.6058 58.62C50.666 58.6162 50.7085 58.5585 50.705 58.4969C50.7015 58.4315 50.7156 58.3853 50.7546 58.343C50.9848 58.0775 51.9944 58.0621 52.7312 58.0736C53.8541 58.0929 54.5307 58.1621 54.8425 58.2044C54.7751 58.3045 54.7185 58.4315 54.7539 58.5546C54.8177 58.7778 55.1081 58.8047 55.2073 58.8124C55.9229 58.8817 57.5913 59.0472 59.8159 60.0592C60.0355 60.1592 60.2516 60.2554 60.4677 60.3555C61.2541 60.7095 61.998 61.0443 62.5399 61.3444C63.2945 61.76 63.3724 61.9601 63.3724 62.0255C63.3724 62.0871 63.2803 62.1602 63.1244 62.2217C63.0961 62.2333 63.0748 62.2564 63.0642 62.2833C63.0536 62.3141 63.0536 62.3449 63.0642 62.3757C63.0819 62.418 63.5141 63.4569 66.4259 63.8109C67.0458 63.8879 67.563 63.9456 67.9739 63.988C69.4864 64.1573 69.8442 64.1957 70.3012 64.5575C70.3189 64.5728 70.3401 64.5805 70.3649 64.5805C70.3968 64.5805 70.4287 64.5651 70.45 64.5344C70.4819 64.4689 70.4712 64.3958 70.4252 64.3574Z" fill="#1E355F"/>
<path d="M63.7796 62.799C63.7548 62.7413 63.6946 62.7143 63.6379 62.7413C63.6131 62.7528 61.1866 63.9187 54.6439 66.2737C48.1012 68.6325 34.5624 72.1996 34.4243 72.2342C34.3818 72.2458 34.3535 72.2804 34.3464 72.3266C34.3393 72.3727 34.357 72.4189 34.3924 72.442C34.4066 72.4497 35.6747 73.3809 35.6995 74.643C35.7137 75.4049 35.2745 76.1399 34.3889 76.8325C34.357 76.8556 34.3428 76.8941 34.3464 76.9364C34.3499 76.9749 34.3712 77.0134 34.4066 77.0288C34.4456 77.0519 38.459 79.199 42.6956 81.4501C46.0786 83.2471 53.9036 88.1687 56.9712 90.1119C56.9571 90.2466 56.9394 90.3851 56.9181 90.5236C53.3545 88.388 43.4395 82.4544 40.9138 81.0191C38.1685 79.4607 34.3074 77.4598 33.4608 77.0249C33.8575 76.7171 34.8954 75.8436 35.1894 74.847C35.5047 73.7888 34.024 72.4535 33.4891 72.0149C35.3488 71.4839 48.6538 67.6667 53.4006 65.9966C58.4803 64.2073 62.5965 62.5104 62.639 62.495C62.6921 62.4719 62.7205 62.4065 62.6992 62.3449C62.6779 62.2872 62.6177 62.2564 62.561 62.2795C62.5185 62.2949 58.4059 63.9918 53.3333 65.7812C48.2571 67.5666 33.3687 71.8148 33.2199 71.861C33.1809 71.8725 33.1491 71.9071 33.142 71.9533C33.1349 71.9995 33.1526 72.0418 33.1845 72.0687C33.2057 72.0841 35.3134 73.6887 34.9875 74.7854C34.651 75.9244 33.2022 76.9441 33.188 76.9557C33.1561 76.9788 33.1384 77.0172 33.1384 77.0596C33.142 77.1019 33.1632 77.1404 33.1987 77.1558C33.2447 77.1788 37.7328 79.4838 40.8111 81.2308C43.3545 82.6738 53.3722 88.6728 56.8756 90.7737C56.8508 90.9084 56.826 91.047 56.7977 91.1855C56.2947 93.5635 55.1044 95.0258 53.266 95.526C53.2093 95.5414 53.1739 95.6029 53.188 95.6645C53.1987 95.7184 53.2447 95.753 53.2908 95.753C53.2979 95.753 53.3085 95.753 53.3156 95.7492C54.3747 95.4606 55.239 94.8564 55.8838 93.9483C56.3974 93.2249 56.7729 92.3129 57.0031 91.2355C57.0279 91.1201 57.0492 91.0046 57.0704 90.8892C57.6974 91.2624 58.0694 91.4895 58.0942 91.501C58.1119 91.5126 58.1296 91.5164 58.1438 91.5164C58.1827 91.5164 58.2181 91.4933 58.2359 91.4587C58.2642 91.401 58.2465 91.3317 58.1934 91.3009C58.1686 91.2855 57.7718 91.047 57.1094 90.6506C57.1307 90.5121 57.1484 90.3774 57.1625 90.2466C57.8179 90.6622 58.2075 90.9123 58.2288 90.9238C58.2465 90.9354 58.2642 90.9392 58.2819 90.9392C58.3173 90.9392 58.3528 90.92 58.374 90.8815C58.4024 90.8276 58.3882 90.7545 58.335 90.7237C58.3138 90.7083 57.8887 90.439 57.1873 89.9926C57.3149 88.7035 57.2086 87.7031 57.2086 87.6915C57.2015 87.6299 57.1484 87.5838 57.0917 87.5915C57.035 87.5992 56.9925 87.6569 56.9996 87.7184C56.9996 87.73 57.0952 88.6535 56.989 89.8656C53.8646 87.8878 46.1388 83.0316 42.7807 81.2462C39.0152 79.2452 35.4268 77.3289 34.6475 76.9095C35.4976 76.2015 35.9192 75.4396 35.905 74.643C35.8837 73.5579 35.069 72.7306 34.69 72.4035C36.4753 71.9302 48.6113 68.6902 54.7042 66.493C61.2575 64.1342 63.6946 62.9644 63.7159 62.9529C63.7796 62.926 63.8044 62.8567 63.7796 62.799Z" fill="#221906"/>
<path d="M50.2619 102.044C50.2194 102.002 50.1521 102.006 50.1132 102.052C50.1061 102.06 49.3941 102.899 48.0869 103.487C47.9878 103.534 47.885 103.576 47.7752 103.618L44.6898 90.789C44.6757 90.7275 44.6155 90.689 44.5588 90.7082C44.5021 90.7236 44.4667 90.789 44.4844 90.8506L47.5733 103.695C47.4245 103.745 47.2687 103.795 47.1057 103.841L43.8007 90.5235C43.7865 90.462 43.7263 90.4273 43.6697 90.4427C43.613 90.4581 43.5811 90.5235 43.5953 90.5851L46.8967 103.895C45.7313 104.165 44.1975 104.188 42.3625 103.464C42.3059 103.441 42.2456 103.472 42.2279 103.534C42.2102 103.595 42.235 103.661 42.2917 103.68C43.3402 104.091 44.3746 104.303 45.37 104.303C45.4727 104.303 45.5719 104.299 45.6746 104.295C46.1103 104.276 46.5354 104.218 46.9534 104.118L47.1766 105.015C47.1907 105.065 47.2332 105.1 47.2793 105.1C47.2899 105.1 47.297 105.1 47.3076 105.096C47.3643 105.08 47.3962 105.015 47.382 104.953L47.1624 104.065C47.3183 104.022 47.4741 103.972 47.63 103.918L47.8354 104.78C47.8496 104.83 47.8921 104.865 47.9382 104.865C47.9488 104.865 47.9559 104.865 47.9665 104.861C48.0232 104.846 48.0586 104.78 48.0409 104.719L47.8284 103.841C47.9453 103.795 48.0621 103.749 48.179 103.695C49.5251 103.087 50.2407 102.244 50.2726 102.206C50.3115 102.16 50.308 102.087 50.2619 102.044Z" fill="#221906"/>
<path d="M64.6901 30.1335C67.0386 26.0315 66.5214 22.9993 66.0468 21.6256C65.9228 21.337 65.8023 21.0638 65.6855 20.806C64.7326 18.705 64.0489 17.6622 63.4538 17.1966C62.7347 16.6309 60.255 16.223 57.8463 17.5313C55.4375 18.8397 55.2958 20.6867 55.2958 20.6867C56.95 22.0719 61.1513 21.7372 63.2944 22.8415C65.4375 23.9382 65.1647 26.4394 64.6901 30.1335Z" fill="#435007"/>
<path d="M40.9739 76.1206C40.9208 76.1206 40.8712 76.0745 40.8676 76.0167C40.8641 75.9513 40.9066 75.8975 40.9633 75.8936C41.0058 75.8898 45.4337 75.4819 50.0954 74.6853C50.5984 74.6007 51.1227 74.516 51.6718 74.4275C56.2166 73.6964 61.8737 72.7883 63.9637 69.479C63.9955 69.4252 64.0628 69.4136 64.1124 69.4482C64.162 69.4829 64.1726 69.556 64.1408 69.6099C61.9977 73.0038 56.291 73.9196 51.7036 74.6546C51.151 74.7431 50.6303 74.8277 50.1273 74.9124C45.4585 75.7089 41.0235 76.1168 40.981 76.1206C40.9774 76.1206 40.9775 76.1206 40.9739 76.1206Z" fill="#221906"/>
<path d="M63.8011 70.2024C63.0076 70.9451 62.0866 71.6223 61.0274 72.1841C59.8655 72.8037 58.5336 73.2885 57.0175 73.581C54.9629 73.9773 52.9509 74.3313 51.1266 74.6315C51.5198 73.6348 52.6179 72.5112 55.3172 71.7339C61.3214 70.0023 62.9686 67.809 62.9686 67.809C62.9686 67.809 63.4327 68.7171 63.8011 70.2024Z" fill="#221906"/>
</svg>
