<svg width="56" height="56" viewBox="0 0 56 56" fill="none" xmlns="http://www.w3.org/2000/svg">
<circle cx="28" cy="28" r="26.5" stroke="black" stroke-width="3"/>
<circle cx="28" cy="28" r="18.9286" stroke="#355288" stroke-width="2.14286"/>
<path d="M17.8036 24.76H20.1311C20.3995 23.3367 20.8253 22.0533 21.4086 20.91C21.992 19.755 22.7036 18.775 23.5436 17.97C24.3836 17.165 25.3345 16.5467 26.3961 16.115C27.4578 15.6717 28.6128 15.45 29.8611 15.45C31.4828 15.45 32.8711 15.765 34.0261 16.395C35.1811 17.0133 36.1495 17.8533 36.9311 18.915L35.4086 20.56C35.292 20.6883 35.1695 20.805 35.0411 20.91C34.9128 21.0033 34.732 21.05 34.4986 21.05C34.3353 21.05 34.1836 21.0033 34.0436 20.91C33.9153 20.8167 33.7695 20.7 33.6061 20.56C33.4428 20.42 33.262 20.2683 33.0636 20.105C32.8653 19.9417 32.6261 19.79 32.3461 19.65C32.0778 19.51 31.757 19.3933 31.3836 19.3C31.0103 19.2067 30.567 19.16 30.0536 19.16C28.677 19.16 27.5161 19.6325 26.5711 20.5775C25.6261 21.5225 24.967 22.9167 24.5936 24.76H33.3786V26.09C33.3786 26.3583 33.2678 26.6092 33.0461 26.8425C32.8361 27.0642 32.5445 27.175 32.1711 27.175H24.2961C24.2845 27.3733 24.2786 27.5717 24.2786 27.77C24.2786 27.9567 24.2786 28.1492 24.2786 28.3475C24.2786 28.4875 24.2786 28.6275 24.2786 28.7675C24.2786 28.9075 24.2845 29.0417 24.2961 29.17H31.7161V30.4825C31.7161 30.7508 31.6053 31.0017 31.3836 31.235C31.162 31.4567 30.8703 31.5675 30.5086 31.5675H24.5061C24.8328 33.5742 25.457 35.0733 26.3786 36.065C27.312 37.045 28.467 37.535 29.8436 37.535C30.6836 37.535 31.3545 37.4242 31.8561 37.2025C32.3695 36.9692 32.7836 36.7125 33.0986 36.4325C33.4253 36.1525 33.6936 35.9017 33.9036 35.68C34.1253 35.4467 34.3645 35.33 34.6211 35.33C34.7495 35.33 34.8603 35.3533 34.9536 35.4C35.047 35.435 35.1461 35.5108 35.2511 35.6275L37.1236 37.3425C36.307 38.6025 35.2686 39.5708 34.0086 40.2475C32.7486 40.9125 31.2845 41.245 29.6161 41.245C28.2395 41.245 27.0028 41.0175 25.9061 40.5625C24.8211 40.0958 23.8761 39.4425 23.0711 38.6025C22.2661 37.7625 21.607 36.7475 21.0936 35.5575C20.592 34.3675 20.2361 33.0375 20.0261 31.5675H17.8036V29.17H19.8336C19.822 29.0417 19.8161 28.9075 19.8161 28.7675C19.8161 28.6275 19.8161 28.4875 19.8161 28.3475C19.8161 28.1492 19.8161 27.9567 19.8161 27.77C19.8161 27.5717 19.822 27.3733 19.8336 27.175H17.8036V24.76Z" fill="black"/>
</svg>
