<svg width="399" height="319" viewBox="0 0 399 319" fill="none" xmlns="http://www.w3.org/2000/svg">
<path d="M62.5728 190.638L48.5508 218.276C36.4769 242.071 55.7959 269.719 82.2914 266.566L127.138 261.229" stroke="#4267AB" stroke-width="12.0187" stroke-linejoin="round"/>
<path d="M40.3636 187.547L75.8807 164.402L78.1752 206.733L40.3636 187.547Z" fill="#4267AB"/>
<path d="M268.715 70.3868L228.002 19.0163C213.196 0.332943 184.147 2.72456 172.596 23.5779L146.41 69.675" stroke="#4267AB" stroke-width="12.0187" stroke-linejoin="round"/>
<path d="M279.684 57.5929L285.87 99.5354L246.453 83.9298L279.684 57.5929Z" fill="#4267AB"/>
<path d="M306.86 271.913L363.349 258.66C389.327 252.566 398.03 219.98 378.55 201.747L364.786 188.862" stroke="#4267AB" stroke-width="12.0187" stroke-linejoin="round"/>
<path d="M322.906 286.18L282.321 273.926L313.222 244.9L322.906 286.18Z" fill="#4267AB"/>
<path d="M259.688 124.48L255.041 139.417H252.852L249.346 128.691C249.304 128.574 249.263 128.446 249.221 128.307C249.187 128.169 249.152 128.02 249.117 127.861C249.083 128.02 249.045 128.169 249.003 128.307C248.969 128.446 248.931 128.574 248.889 128.691L245.352 139.417H243.163L238.516 124.48H240.549C240.757 124.48 240.93 124.531 241.068 124.635C241.213 124.732 241.31 124.867 241.358 125.04L244.159 134.614C244.214 134.822 244.266 135.046 244.315 135.288C244.363 135.531 244.411 135.783 244.46 136.046C244.508 135.783 244.56 135.531 244.615 135.288C244.678 135.04 244.743 134.815 244.813 134.614L248.018 125.04C248.066 124.901 248.163 124.774 248.308 124.656C248.454 124.538 248.626 124.48 248.827 124.48H249.532C249.747 124.48 249.92 124.535 250.051 124.646C250.182 124.749 250.283 124.881 250.352 125.04L253.547 134.614C253.616 134.815 253.678 135.033 253.734 135.268C253.796 135.496 253.851 135.738 253.9 135.994C253.948 135.738 253.993 135.496 254.034 135.268C254.083 135.033 254.135 134.815 254.19 134.614L256.98 125.04C257.022 124.888 257.115 124.756 257.26 124.646C257.413 124.535 257.589 124.48 257.789 124.48H259.688ZM263.383 130.091C263.819 129.663 264.296 129.32 264.814 129.065C265.333 128.802 265.938 128.67 266.63 128.67C267.211 128.67 267.719 128.767 268.155 128.961C268.597 129.154 268.967 129.428 269.264 129.78C269.569 130.133 269.797 130.558 269.949 131.056C270.101 131.547 270.177 132.09 270.177 132.685V139.417H267.957V132.685C267.957 131.972 267.791 131.419 267.46 131.025C267.135 130.631 266.637 130.434 265.966 130.434C265.468 130.434 265.005 130.548 264.576 130.776C264.154 131.004 263.756 131.316 263.383 131.71V139.417H261.153V124.065H263.383V130.091ZM279.722 132.934C279.722 132.56 279.666 132.215 279.556 131.896C279.452 131.571 279.296 131.291 279.089 131.056C278.881 130.814 278.622 130.627 278.311 130.496C278.007 130.358 277.654 130.289 277.253 130.289C276.444 130.289 275.807 130.52 275.344 130.984C274.881 131.447 274.587 132.097 274.462 132.934H279.722ZM274.4 134.303C274.428 134.905 274.521 135.427 274.68 135.869C274.839 136.305 275.05 136.668 275.313 136.959C275.583 137.249 275.901 137.467 276.267 137.612C276.641 137.75 277.056 137.82 277.512 137.82C277.948 137.82 278.325 137.771 278.643 137.674C278.961 137.571 279.238 137.46 279.473 137.342C279.708 137.218 279.908 137.107 280.074 137.01C280.24 136.907 280.392 136.855 280.531 136.855C280.711 136.855 280.849 136.924 280.946 137.062L281.578 137.882C281.316 138.193 281.018 138.456 280.686 138.67C280.354 138.885 280.002 139.061 279.628 139.199C279.255 139.331 278.871 139.424 278.477 139.479C278.083 139.541 277.699 139.573 277.325 139.573C276.592 139.573 275.911 139.452 275.282 139.21C274.659 138.961 274.117 138.598 273.653 138.12C273.197 137.643 272.837 137.052 272.574 136.347C272.319 135.641 272.191 134.829 272.191 133.909C272.191 133.176 272.305 132.491 272.533 131.855C272.768 131.219 273.1 130.665 273.529 130.195C273.964 129.725 274.49 129.355 275.106 129.085C275.728 128.809 276.43 128.67 277.211 128.67C277.861 128.67 278.463 128.778 279.016 128.992C279.569 129.199 280.047 129.507 280.448 129.915C280.849 130.323 281.16 130.825 281.381 131.419C281.61 132.007 281.724 132.678 281.724 133.432C281.724 133.777 281.686 134.009 281.61 134.127C281.533 134.244 281.395 134.303 281.195 134.303H274.4ZM285.909 130.797C286.241 130.126 286.642 129.6 287.113 129.22C287.583 128.833 288.146 128.639 288.803 128.639C289.032 128.639 289.246 128.667 289.446 128.722C289.647 128.771 289.827 128.847 289.986 128.95L289.83 130.631C289.803 130.748 289.758 130.831 289.695 130.88C289.64 130.921 289.564 130.942 289.467 130.942C289.363 130.942 289.215 130.925 289.021 130.89C288.828 130.849 288.624 130.828 288.409 130.828C288.098 130.828 287.821 130.873 287.579 130.963C287.344 131.053 287.13 131.184 286.936 131.357C286.749 131.53 286.583 131.741 286.438 131.99C286.293 132.239 286.158 132.522 286.034 132.84V139.417H283.803V128.836H285.1C285.335 128.836 285.498 128.881 285.588 128.971C285.678 129.054 285.74 129.203 285.774 129.417L285.909 130.797ZM298.037 132.934C298.037 132.56 297.981 132.215 297.871 131.896C297.767 131.571 297.611 131.291 297.404 131.056C297.197 130.814 296.937 130.627 296.626 130.496C296.322 130.358 295.969 130.289 295.568 130.289C294.759 130.289 294.123 130.52 293.659 130.984C293.196 131.447 292.902 132.097 292.778 132.934H298.037ZM292.715 134.303C292.743 134.905 292.836 135.427 292.995 135.869C293.154 136.305 293.365 136.668 293.628 136.959C293.898 137.249 294.216 137.467 294.583 137.612C294.956 137.75 295.371 137.82 295.827 137.82C296.263 137.82 296.64 137.771 296.958 137.674C297.276 137.571 297.553 137.46 297.788 137.342C298.023 137.218 298.223 137.107 298.389 137.01C298.555 136.907 298.708 136.855 298.846 136.855C299.026 136.855 299.164 136.924 299.261 137.062L299.894 137.882C299.631 138.193 299.333 138.456 299.001 138.67C298.67 138.885 298.317 139.061 297.943 139.199C297.57 139.331 297.186 139.424 296.792 139.479C296.398 139.541 296.014 139.573 295.641 139.573C294.908 139.573 294.226 139.452 293.597 139.21C292.975 138.961 292.432 138.598 291.968 138.12C291.512 137.643 291.152 137.052 290.89 136.347C290.634 135.641 290.506 134.829 290.506 133.909C290.506 133.176 290.62 132.491 290.848 131.855C291.083 131.219 291.415 130.665 291.844 130.195C292.28 129.725 292.805 129.355 293.421 129.085C294.043 128.809 294.745 128.67 295.526 128.67C296.177 128.67 296.778 128.778 297.331 128.992C297.885 129.199 298.362 129.507 298.763 129.915C299.164 130.323 299.475 130.825 299.696 131.419C299.925 132.007 300.039 132.678 300.039 133.432C300.039 133.777 300.001 134.009 299.925 134.127C299.849 134.244 299.71 134.303 299.51 134.303H292.715ZM309.609 128.836V139.417H307.378V128.836H309.609ZM309.982 125.641C309.982 125.842 309.94 126.032 309.858 126.212C309.781 126.392 309.674 126.551 309.536 126.689C309.398 126.82 309.235 126.928 309.048 127.011C308.869 127.087 308.675 127.125 308.468 127.125C308.267 127.125 308.077 127.087 307.897 127.011C307.724 126.928 307.572 126.82 307.441 126.689C307.309 126.551 307.202 126.392 307.119 126.212C307.043 126.032 307.005 125.842 307.005 125.641C307.005 125.434 307.043 125.24 307.119 125.06C307.202 124.881 307.309 124.725 307.441 124.594C307.572 124.455 307.724 124.348 307.897 124.272C308.077 124.189 308.267 124.148 308.468 124.148C308.675 124.148 308.869 124.189 309.048 124.272C309.235 124.348 309.398 124.455 309.536 124.594C309.674 124.725 309.781 124.881 309.858 125.06C309.94 125.24 309.982 125.434 309.982 125.641ZM318.728 130.755C318.673 130.852 318.61 130.921 318.541 130.963C318.472 131.004 318.386 131.025 318.282 131.025C318.164 131.025 318.037 130.991 317.898 130.921C317.76 130.845 317.597 130.762 317.411 130.672C317.224 130.582 317.003 130.503 316.747 130.434C316.498 130.358 316.204 130.32 315.865 130.32C315.588 130.32 315.336 130.354 315.108 130.423C314.887 130.486 314.696 130.579 314.537 130.704C314.385 130.821 314.268 130.963 314.185 131.129C314.102 131.288 314.06 131.461 314.06 131.647C314.06 131.896 314.136 132.104 314.288 132.27C314.44 132.436 314.641 132.581 314.89 132.706C315.139 132.823 315.422 132.93 315.741 133.027C316.059 133.124 316.384 133.228 316.716 133.338C317.048 133.449 317.373 133.577 317.691 133.722C318.009 133.867 318.292 134.047 318.541 134.262C318.79 134.469 318.991 134.725 319.143 135.029C319.295 135.326 319.371 135.69 319.371 136.118C319.371 136.616 319.281 137.076 319.101 137.498C318.922 137.92 318.659 138.286 318.313 138.598C317.967 138.909 317.535 139.151 317.016 139.324C316.505 139.497 315.917 139.583 315.253 139.583C314.887 139.583 314.53 139.548 314.185 139.479C313.846 139.417 313.521 139.331 313.21 139.22C312.905 139.102 312.618 138.964 312.349 138.805C312.086 138.646 311.851 138.473 311.643 138.286L312.162 137.436C312.224 137.332 312.3 137.252 312.39 137.197C312.487 137.135 312.604 137.104 312.743 137.104C312.888 137.104 313.03 137.152 313.168 137.249C313.313 137.339 313.479 137.439 313.666 137.55C313.86 137.66 314.091 137.764 314.361 137.861C314.631 137.951 314.966 137.996 315.367 137.996C315.699 137.996 315.986 137.958 316.228 137.882C316.47 137.799 316.671 137.688 316.83 137.55C316.989 137.412 317.106 137.256 317.182 137.083C317.259 136.903 317.297 136.713 317.297 136.512C317.297 136.243 317.22 136.022 317.068 135.849C316.916 135.676 316.712 135.527 316.456 135.403C316.207 135.278 315.92 135.167 315.595 135.071C315.277 134.974 314.952 134.87 314.62 134.759C314.288 134.649 313.96 134.521 313.635 134.376C313.317 134.23 313.03 134.047 312.774 133.826C312.525 133.598 312.324 133.324 312.172 133.006C312.02 132.681 311.944 132.287 311.944 131.824C311.944 131.402 312.027 131.001 312.193 130.621C312.366 130.24 312.615 129.905 312.94 129.614C313.272 129.324 313.676 129.096 314.153 128.93C314.638 128.757 315.194 128.67 315.824 128.67C316.536 128.67 317.182 128.784 317.763 129.013C318.344 129.241 318.832 129.552 319.226 129.946L318.728 130.755ZM326.633 139.417V128.836H327.982C328.286 128.836 328.48 128.978 328.563 129.262L328.708 130.185C328.902 129.964 329.102 129.763 329.31 129.583C329.517 129.396 329.738 129.237 329.974 129.106C330.216 128.968 330.471 128.861 330.741 128.784C331.018 128.708 331.315 128.67 331.633 128.67C331.972 128.67 332.283 128.719 332.567 128.816C332.85 128.912 333.099 129.051 333.314 129.231C333.535 129.41 333.725 129.628 333.884 129.884C334.043 130.14 334.175 130.427 334.278 130.745C334.437 130.378 334.638 130.064 334.88 129.801C335.122 129.538 335.392 129.324 335.689 129.158C335.987 128.992 336.301 128.871 336.633 128.795C336.972 128.712 337.314 128.67 337.66 128.67C338.227 128.67 338.732 128.76 339.175 128.94C339.624 129.12 340.001 129.383 340.305 129.728C340.616 130.067 340.852 130.486 341.011 130.984C341.17 131.482 341.249 132.049 341.249 132.685V139.417H339.019V132.685C339.019 131.938 338.856 131.378 338.531 131.004C338.213 130.624 337.74 130.434 337.11 130.434C336.827 130.434 336.561 130.482 336.312 130.579C336.063 130.676 335.845 130.818 335.658 131.004C335.471 131.191 335.323 131.426 335.212 131.71C335.108 131.986 335.056 132.311 335.056 132.685V139.417H332.826V132.685C332.826 131.91 332.671 131.343 332.359 130.984C332.048 130.617 331.592 130.434 330.99 130.434C330.575 130.434 330.191 130.541 329.839 130.755C329.486 130.963 329.161 131.25 328.864 131.616V139.417H326.633ZM352.979 128.836L347.149 142.425C347.073 142.584 346.98 142.709 346.869 142.799C346.765 142.889 346.603 142.934 346.382 142.934H344.732L346.682 138.701L342.367 128.836H344.307C344.494 128.836 344.635 128.881 344.732 128.971C344.836 129.054 344.912 129.154 344.96 129.272L347.481 135.278C347.543 135.451 347.599 135.624 347.647 135.797C347.702 135.963 347.754 136.136 347.803 136.315C347.858 136.136 347.913 135.959 347.969 135.786C348.024 135.613 348.086 135.441 348.155 135.268L350.572 129.272C350.621 129.148 350.7 129.044 350.811 128.961C350.928 128.878 351.056 128.836 351.195 128.836H352.979ZM359.09 139.417V128.836H360.439C360.743 128.836 360.937 128.978 361.02 129.262L361.165 130.185C361.358 129.964 361.559 129.763 361.766 129.583C361.974 129.396 362.195 129.237 362.43 129.106C362.672 128.968 362.928 128.861 363.198 128.784C363.475 128.708 363.772 128.67 364.09 128.67C364.429 128.67 364.74 128.719 365.024 128.816C365.307 128.912 365.556 129.051 365.77 129.231C365.992 129.41 366.182 129.628 366.341 129.884C366.5 130.14 366.631 130.427 366.735 130.745C366.894 130.378 367.095 130.064 367.337 129.801C367.579 129.538 367.849 129.324 368.146 129.158C368.443 128.992 368.758 128.871 369.09 128.795C369.429 128.712 369.771 128.67 370.117 128.67C370.684 128.67 371.189 128.76 371.631 128.94C372.081 129.12 372.458 129.383 372.762 129.728C373.073 130.067 373.308 130.486 373.467 130.984C373.626 131.482 373.706 132.049 373.706 132.685V139.417H371.476V132.685C371.476 131.938 371.313 131.378 370.988 131.004C370.67 130.624 370.196 130.434 369.567 130.434C369.284 130.434 369.017 130.482 368.768 130.579C368.519 130.676 368.302 130.818 368.115 131.004C367.928 131.191 367.779 131.426 367.669 131.71C367.565 131.986 367.513 132.311 367.513 132.685V139.417H365.283V132.685C365.283 131.91 365.127 131.343 364.816 130.984C364.505 130.617 364.049 130.434 363.447 130.434C363.032 130.434 362.648 130.541 362.295 130.755C361.943 130.963 361.618 131.25 361.32 131.616V139.417H359.09ZM380.886 128.67C381.667 128.67 382.373 128.798 383.002 129.054C383.638 129.31 384.178 129.673 384.62 130.143C385.07 130.614 385.415 131.184 385.657 131.855C385.9 132.526 386.021 133.28 386.021 134.116C386.021 134.953 385.9 135.707 385.657 136.378C385.415 137.048 385.07 137.622 384.62 138.1C384.178 138.57 383.638 138.933 383.002 139.189C382.373 139.445 381.667 139.573 380.886 139.573C380.097 139.573 379.385 139.445 378.749 139.189C378.12 138.933 377.58 138.57 377.131 138.1C376.681 137.622 376.335 137.048 376.093 136.378C375.851 135.707 375.73 134.953 375.73 134.116C375.73 133.28 375.851 132.526 376.093 131.855C376.335 131.184 376.681 130.614 377.131 130.143C377.58 129.673 378.12 129.31 378.749 129.054C379.385 128.798 380.097 128.67 380.886 128.67ZM380.886 137.83C381.84 137.83 382.549 137.512 383.012 136.876C383.483 136.232 383.718 135.316 383.718 134.127C383.718 132.937 383.483 132.021 383.012 131.378C382.549 130.728 381.84 130.403 380.886 130.403C379.918 130.403 379.198 130.728 378.728 131.378C378.258 132.021 378.023 132.937 378.023 134.127C378.023 135.316 378.258 136.232 378.728 136.876C379.198 137.512 379.918 137.83 380.886 137.83ZM390.248 130.237C390.477 130.002 390.712 129.791 390.954 129.604C391.203 129.41 391.466 129.244 391.742 129.106C392.019 128.968 392.313 128.861 392.624 128.784C392.935 128.708 393.274 128.67 393.64 128.67C394.221 128.67 394.73 128.767 395.165 128.961C395.608 129.154 395.978 129.428 396.275 129.78C396.58 130.133 396.808 130.558 396.96 131.056C397.112 131.547 397.188 132.09 397.188 132.685V139.417H394.968V132.685C394.968 131.972 394.802 131.419 394.47 131.025C394.145 130.631 393.647 130.434 392.977 130.434C392.479 130.434 392.015 130.548 391.587 130.776C391.165 131.004 390.767 131.316 390.394 131.71V139.417H388.163V128.836H389.512C389.816 128.836 390.01 128.978 390.093 129.262L390.248 130.237ZM406.732 132.934C406.732 132.56 406.677 132.215 406.566 131.896C406.463 131.571 406.307 131.291 406.1 131.056C405.892 130.814 405.633 130.627 405.322 130.496C405.017 130.358 404.665 130.289 404.264 130.289C403.454 130.289 402.818 130.52 402.355 130.984C401.892 131.447 401.598 132.097 401.473 132.934H406.732ZM401.411 134.303C401.439 134.905 401.532 135.427 401.691 135.869C401.85 136.305 402.061 136.668 402.324 136.959C402.594 137.249 402.912 137.467 403.278 137.612C403.652 137.75 404.066 137.82 404.523 137.82C404.959 137.82 405.335 137.771 405.654 137.674C405.972 137.571 406.248 137.46 406.483 137.342C406.719 137.218 406.919 137.107 407.085 137.01C407.251 136.907 407.403 136.855 407.542 136.855C407.721 136.855 407.86 136.924 407.956 137.062L408.589 137.882C408.326 138.193 408.029 138.456 407.697 138.67C407.365 138.885 407.012 139.061 406.639 139.199C406.266 139.331 405.882 139.424 405.488 139.479C405.093 139.541 404.71 139.573 404.336 139.573C403.603 139.573 402.922 139.452 402.293 139.21C401.67 138.961 401.127 138.598 400.664 138.12C400.208 137.643 399.848 137.052 399.585 136.347C399.329 135.641 399.201 134.829 399.201 133.909C399.201 133.176 399.316 132.491 399.544 131.855C399.779 131.219 400.111 130.665 400.54 130.195C400.975 129.725 401.501 129.355 402.116 129.085C402.739 128.809 403.441 128.67 404.222 128.67C404.872 128.67 405.474 128.778 406.027 128.992C406.58 129.199 407.057 129.507 407.459 129.915C407.86 130.323 408.171 130.825 408.392 131.419C408.62 132.007 408.734 132.678 408.734 133.432C408.734 133.777 408.696 134.009 408.62 134.127C408.544 134.244 408.406 134.303 408.205 134.303H401.411ZM419.918 128.836L414.089 142.425C414.013 142.584 413.919 142.709 413.809 142.799C413.705 142.889 413.542 142.934 413.321 142.934H411.672L413.622 138.701L409.307 128.836H411.246C411.433 128.836 411.575 128.881 411.672 128.971C411.775 129.054 411.851 129.154 411.9 129.272L414.421 135.278C414.483 135.451 414.538 135.624 414.587 135.797C414.642 135.963 414.694 136.136 414.742 136.315C414.797 136.136 414.853 135.959 414.908 135.786C414.963 135.613 415.026 135.441 415.095 135.268L417.512 129.272C417.56 129.148 417.64 129.044 417.75 128.961C417.868 128.878 417.996 128.836 418.134 128.836H419.918ZM275.404 160.797C275.736 160.126 276.137 159.6 276.608 159.22C277.078 158.833 277.641 158.639 278.298 158.639C278.527 158.639 278.741 158.667 278.942 158.722C279.142 158.771 279.322 158.847 279.481 158.95L279.325 160.631C279.298 160.748 279.253 160.831 279.191 160.88C279.135 160.921 279.059 160.942 278.962 160.942C278.859 160.942 278.71 160.925 278.516 160.89C278.323 160.849 278.119 160.828 277.904 160.828C277.593 160.828 277.316 160.873 277.074 160.963C276.839 161.053 276.625 161.184 276.431 161.357C276.245 161.53 276.079 161.741 275.933 161.99C275.788 162.239 275.653 162.522 275.529 162.84V169.417H273.299V158.836H274.595C274.83 158.836 274.993 158.881 275.083 158.971C275.173 159.054 275.235 159.203 275.269 159.417L275.404 160.797ZM287.532 162.934C287.532 162.56 287.477 162.215 287.366 161.896C287.262 161.571 287.107 161.291 286.899 161.056C286.692 160.814 286.432 160.627 286.121 160.496C285.817 160.358 285.464 160.289 285.063 160.289C284.254 160.289 283.618 160.52 283.154 160.984C282.691 161.447 282.397 162.097 282.273 162.934H287.532ZM282.21 164.303C282.238 164.905 282.331 165.427 282.491 165.869C282.65 166.305 282.86 166.668 283.123 166.959C283.393 167.249 283.711 167.467 284.078 167.612C284.451 167.75 284.866 167.82 285.322 167.82C285.758 167.82 286.135 167.771 286.453 167.674C286.771 167.571 287.048 167.46 287.283 167.342C287.518 167.218 287.719 167.107 287.885 167.01C288.051 166.907 288.203 166.855 288.341 166.855C288.521 166.855 288.659 166.924 288.756 167.062L289.389 167.882C289.126 168.193 288.829 168.456 288.497 168.67C288.165 168.885 287.812 169.061 287.439 169.199C287.065 169.331 286.681 169.424 286.287 169.479C285.893 169.541 285.509 169.573 285.136 169.573C284.403 169.573 283.721 169.452 283.092 169.21C282.47 168.961 281.927 168.598 281.464 168.12C281.007 167.643 280.648 167.052 280.385 166.347C280.129 165.641 280.001 164.829 280.001 163.909C280.001 163.176 280.115 162.491 280.343 161.855C280.578 161.219 280.91 160.665 281.339 160.195C281.775 159.725 282.3 159.355 282.916 159.085C283.538 158.809 284.24 158.67 285.022 158.67C285.672 158.67 286.273 158.778 286.827 158.992C287.38 159.199 287.857 159.507 288.258 159.915C288.659 160.323 288.97 160.825 289.192 161.419C289.42 162.007 289.534 162.678 289.534 163.432C289.534 163.777 289.496 164.009 289.42 164.127C289.344 164.244 289.205 164.303 289.005 164.303H282.21ZM297.267 164.791C296.472 164.818 295.801 164.884 295.255 164.988C294.708 165.084 294.266 165.212 293.927 165.371C293.588 165.524 293.343 165.707 293.19 165.921C293.045 166.136 292.973 166.371 292.973 166.627C292.973 166.876 293.011 167.09 293.087 167.27C293.17 167.443 293.28 167.588 293.419 167.705C293.564 167.816 293.73 167.899 293.917 167.954C294.11 168.003 294.321 168.027 294.549 168.027C295.13 168.027 295.628 167.92 296.043 167.705C296.465 167.484 296.873 167.166 297.267 166.751V164.791ZM291.354 160.309C292.551 159.196 293.975 158.639 295.628 158.639C296.237 158.639 296.776 158.74 297.246 158.94C297.724 159.134 298.121 159.41 298.439 159.77C298.764 160.13 299.01 160.558 299.176 161.056C299.349 161.547 299.435 162.094 299.435 162.695V169.417H298.439C298.225 169.417 298.062 169.386 297.952 169.324C297.841 169.254 297.748 169.12 297.672 168.919L297.454 168.058C297.184 168.3 296.918 168.518 296.655 168.712C296.392 168.898 296.119 169.057 295.836 169.189C295.559 169.32 295.258 169.417 294.933 169.479C294.615 169.548 294.262 169.583 293.875 169.583C293.446 169.583 293.045 169.524 292.672 169.407C292.305 169.289 291.987 169.113 291.717 168.878C291.448 168.636 291.233 168.338 291.074 167.985C290.922 167.633 290.846 167.218 290.846 166.741C290.846 166.333 290.953 165.935 291.168 165.548C291.389 165.161 291.749 164.815 292.247 164.51C292.751 164.199 293.412 163.943 294.228 163.743C295.051 163.542 296.064 163.428 297.267 163.401V162.695C297.267 161.934 297.105 161.367 296.78 160.994C296.455 160.621 295.977 160.434 295.348 160.434C294.919 160.434 294.56 160.489 294.269 160.6C293.979 160.704 293.726 160.818 293.512 160.942C293.298 161.067 293.107 161.184 292.942 161.295C292.776 161.399 292.599 161.45 292.412 161.45C292.26 161.45 292.129 161.412 292.018 161.336C291.915 161.253 291.828 161.153 291.759 161.035L291.354 160.309ZM304.319 154.065V169.417H302.089V154.065H304.319ZM309.344 154.065V169.417H307.114V154.065H309.344ZM321.484 158.836L315.655 172.425C315.579 172.584 315.485 172.709 315.375 172.799C315.271 172.889 315.108 172.934 314.887 172.934H313.238L315.188 168.701L310.873 158.836H312.812C312.999 158.836 313.141 158.881 313.238 158.971C313.342 159.054 313.418 159.154 313.466 159.272L315.987 165.278C316.049 165.451 316.104 165.624 316.153 165.797C316.208 165.963 316.26 166.136 316.308 166.315C316.364 166.136 316.419 165.959 316.474 165.786C316.53 165.613 316.592 165.441 316.661 165.268L319.078 159.272C319.126 159.148 319.206 159.044 319.316 158.961C319.434 158.878 319.562 158.836 319.7 158.836H321.484ZM331.372 164.033C332.063 164.033 332.582 163.857 332.928 163.504C333.273 163.152 333.446 162.692 333.446 162.125C333.446 161.544 333.273 161.084 332.928 160.745C332.582 160.406 332.063 160.237 331.372 160.237C330.687 160.237 330.168 160.406 329.816 160.745C329.47 161.084 329.297 161.544 329.297 162.125C329.297 162.401 329.342 162.657 329.432 162.892C329.522 163.127 329.653 163.331 329.826 163.504C329.999 163.67 330.213 163.802 330.469 163.898C330.732 163.988 331.033 164.033 331.372 164.033ZM334.473 169.936C334.473 169.701 334.404 169.514 334.266 169.375C334.134 169.23 333.955 169.12 333.726 169.044C333.498 168.961 333.232 168.902 332.928 168.867C332.623 168.826 332.298 168.798 331.952 168.784C331.614 168.763 331.264 168.746 330.905 168.732C330.552 168.712 330.21 168.677 329.878 168.629C329.546 168.802 329.273 169.009 329.058 169.251C328.851 169.493 328.747 169.773 328.747 170.091C328.747 170.299 328.799 170.492 328.903 170.672C329.013 170.852 329.179 171.008 329.401 171.139C329.629 171.27 329.916 171.374 330.262 171.45C330.614 171.526 331.036 171.564 331.527 171.564C332.509 171.564 333.246 171.412 333.737 171.108C334.228 170.804 334.473 170.413 334.473 169.936ZM336.714 159.22V160.05C336.714 160.327 336.548 160.496 336.216 160.558L335.158 160.735C335.338 161.136 335.428 161.582 335.428 162.073C335.428 162.591 335.324 163.062 335.116 163.484C334.916 163.905 334.636 164.265 334.276 164.562C333.916 164.86 333.488 165.088 332.99 165.247C332.492 165.406 331.952 165.486 331.372 165.486C331.15 165.486 330.932 165.475 330.718 165.454C330.511 165.427 330.307 165.392 330.106 165.351C329.906 165.468 329.757 165.593 329.66 165.724C329.563 165.856 329.515 165.99 329.515 166.129C329.515 166.357 329.615 166.526 329.816 166.637C330.016 166.748 330.279 166.827 330.604 166.876C330.936 166.924 331.313 166.955 331.735 166.969C332.156 166.983 332.585 167.007 333.021 167.042C333.457 167.076 333.885 167.135 334.307 167.218C334.729 167.294 335.102 167.425 335.428 167.612C335.759 167.792 336.026 168.037 336.226 168.349C336.427 168.66 336.527 169.064 336.527 169.562C336.527 170.019 336.413 170.465 336.185 170.9C335.957 171.336 335.625 171.723 335.189 172.062C334.76 172.401 334.235 172.671 333.612 172.871C332.99 173.079 332.281 173.182 331.486 173.182C330.697 173.182 330.009 173.106 329.421 172.954C328.841 172.802 328.353 172.595 327.959 172.332C327.572 172.076 327.281 171.779 327.087 171.44C326.901 171.101 326.807 170.748 326.807 170.382C326.807 169.884 326.963 169.458 327.274 169.106C327.592 168.753 328.021 168.476 328.56 168.276C328.27 168.138 328.035 167.947 327.855 167.705C327.682 167.463 327.596 167.145 327.596 166.751C327.596 166.44 327.71 166.115 327.938 165.776C328.166 165.437 328.509 165.15 328.965 164.915C328.439 164.625 328.025 164.241 327.72 163.764C327.416 163.28 327.264 162.716 327.264 162.073C327.264 161.547 327.364 161.073 327.565 160.652C327.772 160.23 328.059 159.87 328.426 159.573C328.792 159.275 329.224 159.047 329.722 158.888C330.227 158.729 330.777 158.65 331.372 158.65C332.284 158.65 333.08 158.84 333.757 159.22H336.714ZM342.868 158.67C343.649 158.67 344.354 158.798 344.984 159.054C345.62 159.31 346.159 159.673 346.602 160.143C347.052 160.614 347.397 161.184 347.639 161.855C347.881 162.526 348.002 163.28 348.002 164.116C348.002 164.953 347.881 165.707 347.639 166.378C347.397 167.048 347.052 167.622 346.602 168.1C346.159 168.57 345.62 168.933 344.984 169.189C344.354 169.445 343.649 169.573 342.868 169.573C342.079 169.573 341.367 169.445 340.731 169.189C340.101 168.933 339.562 168.57 339.113 168.1C338.663 167.622 338.317 167.048 338.075 166.378C337.833 165.707 337.712 164.953 337.712 164.116C337.712 163.28 337.833 162.526 338.075 161.855C338.317 161.184 338.663 160.614 339.113 160.143C339.562 159.673 340.101 159.31 340.731 159.054C341.367 158.798 342.079 158.67 342.868 158.67ZM342.868 167.83C343.822 167.83 344.531 167.512 344.994 166.876C345.464 166.232 345.7 165.316 345.7 164.127C345.7 162.937 345.464 162.021 344.994 161.378C344.531 160.728 343.822 160.403 342.868 160.403C341.9 160.403 341.18 160.728 340.71 161.378C340.24 162.021 340.005 162.937 340.005 164.127C340.005 165.316 340.24 166.232 340.71 166.876C341.18 167.512 341.9 167.83 342.868 167.83ZM352.469 158.836V169.417H350.239V158.836H352.469ZM352.842 155.641C352.842 155.842 352.801 156.032 352.718 156.212C352.642 156.392 352.535 156.551 352.396 156.689C352.258 156.82 352.095 156.928 351.909 157.011C351.729 157.087 351.535 157.125 351.328 157.125C351.127 157.125 350.937 157.087 350.757 157.011C350.584 156.928 350.432 156.82 350.301 156.689C350.169 156.551 350.062 156.392 349.979 156.212C349.903 156.032 349.865 155.842 349.865 155.641C349.865 155.434 349.903 155.24 349.979 155.06C350.062 154.881 350.169 154.725 350.301 154.594C350.432 154.455 350.584 154.348 350.757 154.272C350.937 154.189 351.127 154.148 351.328 154.148C351.535 154.148 351.729 154.189 351.909 154.272C352.095 154.348 352.258 154.455 352.396 154.594C352.535 154.725 352.642 154.881 352.718 155.06C352.801 155.24 352.842 155.434 352.842 155.641ZM357.356 160.237C357.584 160.002 357.819 159.791 358.061 159.604C358.31 159.41 358.573 159.244 358.85 159.106C359.126 158.968 359.42 158.861 359.732 158.784C360.043 158.708 360.382 158.67 360.748 158.67C361.329 158.67 361.837 158.767 362.273 158.961C362.716 159.154 363.086 159.428 363.383 159.78C363.687 160.133 363.915 160.558 364.068 161.056C364.22 161.547 364.296 162.09 364.296 162.685V169.417H362.076V162.685C362.076 161.972 361.91 161.419 361.578 161.025C361.253 160.631 360.755 160.434 360.084 160.434C359.586 160.434 359.123 160.548 358.694 160.776C358.272 161.004 357.875 161.316 357.501 161.71V169.417H355.271V158.836H356.62C356.924 158.836 357.118 158.978 357.201 159.262L357.356 160.237ZM370.676 164.033C371.368 164.033 371.886 163.857 372.232 163.504C372.578 163.152 372.751 162.692 372.751 162.125C372.751 161.544 372.578 161.084 372.232 160.745C371.886 160.406 371.368 160.237 370.676 160.237C369.992 160.237 369.473 160.406 369.12 160.745C368.774 161.084 368.602 161.544 368.602 162.125C368.602 162.401 368.647 162.657 368.736 162.892C368.826 163.127 368.958 163.331 369.131 163.504C369.304 163.67 369.518 163.802 369.774 163.898C370.037 163.988 370.337 164.033 370.676 164.033ZM373.778 169.936C373.778 169.701 373.709 169.514 373.57 169.375C373.439 169.23 373.259 169.12 373.031 169.044C372.803 168.961 372.537 168.902 372.232 168.867C371.928 168.826 371.603 168.798 371.257 168.784C370.918 168.763 370.569 168.746 370.209 168.732C369.857 168.712 369.514 168.677 369.183 168.629C368.851 168.802 368.577 169.009 368.363 169.251C368.156 169.493 368.052 169.773 368.052 170.091C368.052 170.299 368.104 170.492 368.207 170.672C368.318 170.852 368.484 171.008 368.705 171.139C368.934 171.27 369.221 171.374 369.566 171.45C369.919 171.526 370.341 171.564 370.832 171.564C371.814 171.564 372.55 171.412 373.041 171.108C373.532 170.804 373.778 170.413 373.778 169.936ZM376.018 159.22V160.05C376.018 160.327 375.852 160.496 375.521 160.558L374.462 160.735C374.642 161.136 374.732 161.582 374.732 162.073C374.732 162.591 374.628 163.062 374.421 163.484C374.22 163.905 373.94 164.265 373.581 164.562C373.221 164.86 372.792 165.088 372.294 165.247C371.797 165.406 371.257 165.486 370.676 165.486C370.455 165.486 370.237 165.475 370.023 165.454C369.815 165.427 369.611 165.392 369.411 165.351C369.21 165.468 369.061 165.593 368.965 165.724C368.868 165.856 368.819 165.99 368.819 166.129C368.819 166.357 368.92 166.526 369.12 166.637C369.321 166.748 369.584 166.827 369.909 166.876C370.241 166.924 370.617 166.955 371.039 166.969C371.461 166.983 371.89 167.007 372.326 167.042C372.761 167.076 373.19 167.135 373.612 167.218C374.034 167.294 374.407 167.425 374.732 167.612C375.064 167.792 375.33 168.037 375.531 168.349C375.731 168.66 375.832 169.064 375.832 169.562C375.832 170.019 375.718 170.465 375.489 170.9C375.261 171.336 374.929 171.723 374.494 172.062C374.065 172.401 373.539 172.671 372.917 172.871C372.294 173.079 371.586 173.182 370.79 173.182C370.002 173.182 369.314 173.106 368.726 172.954C368.145 172.802 367.658 172.595 367.263 172.332C366.876 172.076 366.586 171.779 366.392 171.44C366.205 171.101 366.112 170.748 366.112 170.382C366.112 169.884 366.268 169.458 366.579 169.106C366.897 168.753 367.326 168.476 367.865 168.276C367.575 168.138 367.34 167.947 367.16 167.705C366.987 167.463 366.9 167.145 366.9 166.751C366.9 166.44 367.015 166.115 367.243 165.776C367.471 165.437 367.813 165.15 368.27 164.915C367.744 164.625 367.329 164.241 367.025 163.764C366.721 163.28 366.568 162.716 366.568 162.073C366.568 161.547 366.669 161.073 366.869 160.652C367.077 160.23 367.364 159.87 367.73 159.573C368.097 159.275 368.529 159.047 369.027 158.888C369.532 158.729 370.082 158.65 370.676 158.65C371.589 158.65 372.384 158.84 373.062 159.22H376.018ZM377.21 155.818C377.438 155.61 377.687 155.417 377.956 155.237C378.226 155.057 378.517 154.898 378.828 154.76C379.146 154.621 379.488 154.514 379.855 154.438C380.228 154.355 380.629 154.314 381.058 154.314C381.632 154.314 382.158 154.397 382.635 154.563C383.119 154.722 383.534 154.953 383.88 155.258C384.232 155.555 384.505 155.918 384.699 156.347C384.893 156.769 384.989 157.242 384.989 157.768C384.989 158.293 384.913 158.75 384.761 159.137C384.609 159.518 384.415 159.849 384.18 160.133C383.945 160.417 383.689 160.665 383.413 160.88C383.136 161.087 382.873 161.284 382.624 161.471C382.382 161.651 382.171 161.834 381.992 162.021C381.819 162.201 381.715 162.401 381.68 162.623L381.463 164.179H379.948L379.792 162.467C379.758 162.142 379.81 161.862 379.948 161.627C380.086 161.392 380.27 161.17 380.498 160.963C380.733 160.755 380.989 160.558 381.265 160.372C381.549 160.178 381.812 159.964 382.054 159.728C382.296 159.493 382.5 159.231 382.666 158.94C382.832 158.65 382.915 158.3 382.915 157.892C382.915 157.623 382.863 157.381 382.759 157.166C382.655 156.945 382.51 156.758 382.324 156.606C382.137 156.454 381.919 156.336 381.67 156.253C381.421 156.17 381.151 156.129 380.861 156.129C380.453 156.129 380.107 156.177 379.824 156.274C379.54 156.371 379.298 156.478 379.097 156.596C378.897 156.706 378.731 156.81 378.6 156.907C378.468 156.997 378.358 157.042 378.268 157.042C378.053 157.042 377.894 156.948 377.79 156.762L377.21 155.818ZM379.201 168.131C379.201 167.93 379.236 167.743 379.305 167.571C379.381 167.391 379.481 167.235 379.606 167.104C379.737 166.972 379.889 166.869 380.062 166.793C380.242 166.717 380.432 166.678 380.633 166.678C380.833 166.678 381.02 166.717 381.193 166.793C381.373 166.869 381.528 166.972 381.66 167.104C381.791 167.235 381.895 167.391 381.971 167.571C382.047 167.743 382.085 167.93 382.085 168.131C382.085 168.338 382.047 168.528 381.971 168.701C381.895 168.874 381.791 169.026 381.66 169.158C381.528 169.289 381.373 169.389 381.193 169.458C381.02 169.535 380.833 169.573 380.633 169.573C380.432 169.573 380.242 169.535 380.062 169.458C379.889 169.389 379.737 169.289 379.606 169.158C379.481 169.026 379.381 168.874 379.305 168.701C379.236 168.528 379.201 168.338 379.201 168.131Z" fill="#4267AB"/>
<path d="M31.6714 97.6313L27.0242 112.569H24.8355L21.3294 101.843C21.2879 101.725 21.2464 101.597 21.2049 101.459C21.1703 101.321 21.1357 101.172 21.1011 101.013C21.0666 101.172 21.0285 101.321 20.987 101.459C20.9525 101.597 20.9144 101.725 20.8729 101.843L17.3357 112.569H15.1469L10.4997 97.6313H12.5329C12.7404 97.6313 12.9132 97.6832 13.0515 97.7869C13.1968 97.8837 13.2936 98.0186 13.342 98.1915L16.1428 107.766C16.1981 107.973 16.2499 108.198 16.2984 108.44C16.3468 108.682 16.3952 108.935 16.4436 109.197C16.492 108.935 16.5439 108.682 16.5992 108.44C16.6614 108.191 16.7271 107.966 16.7963 107.766L20.0016 98.1915C20.05 98.0532 20.1468 97.9252 20.292 97.8077C20.4373 97.6901 20.6101 97.6313 20.8107 97.6313H21.5161C21.7305 97.6313 21.9033 97.6867 22.0347 97.7973C22.1661 97.901 22.2664 98.0324 22.3356 98.1915L25.5305 107.766C25.5997 107.966 25.6619 108.184 25.7172 108.419C25.7795 108.648 25.8348 108.89 25.8832 109.146C25.9316 108.89 25.9765 108.648 26.018 108.419C26.0664 108.184 26.1183 107.966 26.1736 107.766L28.964 98.1915C29.0055 98.0393 29.0989 97.908 29.2441 97.7973C29.3962 97.6867 29.5726 97.6313 29.7731 97.6313H31.6714ZM35.3665 103.243C35.8022 102.814 36.2794 102.472 36.798 102.216C37.3167 101.953 37.9218 101.822 38.6134 101.822C39.1943 101.822 39.7025 101.919 40.1382 102.113C40.5808 102.306 40.9508 102.579 41.2481 102.932C41.5524 103.285 41.7806 103.71 41.9328 104.208C42.0849 104.699 42.161 105.242 42.161 105.837V112.569H39.9411V105.837C39.9411 105.124 39.7752 104.571 39.4432 104.177C39.1182 103.783 38.6203 103.586 37.9495 103.586C37.4516 103.586 36.9882 103.7 36.5595 103.928C36.1376 104.156 35.74 104.467 35.3665 104.861V112.569H33.1363V97.2164H35.3665V103.243ZM47.0892 101.988V112.569H44.859V101.988H47.0892ZM47.4627 98.7931C47.4627 98.9937 47.4212 99.1839 47.3382 99.3637C47.2621 99.5435 47.1549 99.7025 47.0166 99.8408C46.8783 99.9722 46.7158 100.079 46.5291 100.162C46.3493 100.238 46.1556 100.276 45.9482 100.276C45.7476 100.276 45.5575 100.238 45.3776 100.162C45.2048 100.079 45.0526 99.9722 44.9212 99.8408C44.7898 99.7025 44.6826 99.5435 44.5997 99.3637C44.5236 99.1839 44.4856 98.9937 44.4856 98.7931C44.4856 98.5857 44.5236 98.392 44.5997 98.2122C44.6826 98.0324 44.7898 97.8768 44.9212 97.7454C45.0526 97.6071 45.2048 97.4999 45.3776 97.4239C45.5575 97.3409 45.7476 97.2994 45.9482 97.2994C46.1556 97.2994 46.3493 97.3409 46.5291 97.4239C46.7158 97.4999 46.8783 97.6071 47.0166 97.7454C47.1549 97.8768 47.2621 98.0324 47.3382 98.2122C47.4212 98.392 47.4627 98.5857 47.4627 98.7931ZM57.3705 104.063C57.3014 104.153 57.2357 104.222 57.1734 104.27C57.1112 104.319 57.0213 104.343 56.9037 104.343C56.7862 104.343 56.6617 104.301 56.5303 104.218C56.4058 104.135 56.2537 104.045 56.0739 103.949C55.901 103.845 55.6901 103.752 55.4411 103.669C55.1921 103.586 54.881 103.544 54.5075 103.544C54.0234 103.544 53.5981 103.63 53.2316 103.803C52.872 103.976 52.5677 104.225 52.3188 104.55C52.0767 104.868 51.8935 105.259 51.769 105.722C51.6514 106.179 51.5926 106.694 51.5926 107.268C51.5926 107.863 51.6583 108.392 51.7897 108.855C51.9211 109.318 52.1079 109.709 52.3499 110.027C52.5988 110.345 52.8962 110.587 53.242 110.753C53.5947 110.919 53.9889 111.002 54.4245 111.002C54.8533 111.002 55.2025 110.951 55.4722 110.847C55.7419 110.743 55.9667 110.629 56.1465 110.504C56.3263 110.38 56.4784 110.266 56.6029 110.162C56.7343 110.058 56.8726 110.007 57.0178 110.007C57.1976 110.007 57.3359 110.076 57.4328 110.214L58.0655 111.033C57.8096 111.345 57.5261 111.607 57.2149 111.822C56.9037 112.036 56.5752 112.213 56.2295 112.351C55.8837 112.482 55.5241 112.576 55.1507 112.631C54.7772 112.693 54.4003 112.724 54.02 112.724C53.363 112.724 52.7475 112.603 52.1735 112.361C51.6065 112.112 51.1086 111.756 50.6798 111.293C50.258 110.823 49.9226 110.252 49.6736 109.581C49.4316 108.904 49.3105 108.132 49.3105 107.268C49.3105 106.487 49.4212 105.764 49.6425 105.1C49.8638 104.429 50.1854 103.852 50.6072 103.368C51.036 102.884 51.565 102.507 52.1943 102.237C52.8236 101.96 53.5497 101.822 54.3727 101.822C55.1403 101.822 55.8145 101.947 56.3954 102.196C56.9833 102.444 57.5054 102.797 57.9618 103.254L57.3705 104.063ZM62.0897 103.243C62.5253 102.814 63.0025 102.472 63.5212 102.216C64.0398 101.953 64.6449 101.822 65.3365 101.822C65.9174 101.822 66.4257 101.919 66.8613 102.113C67.3039 102.306 67.6739 102.579 67.9713 102.932C68.2755 103.285 68.5038 103.71 68.6559 104.208C68.808 104.699 68.8841 105.242 68.8841 105.837V112.569H66.6642V105.837C66.6642 105.124 66.4983 104.571 66.1663 104.177C65.8413 103.783 65.3434 103.586 64.6726 103.586C64.1747 103.586 63.7113 103.7 63.2826 103.928C62.8607 104.156 62.4631 104.467 62.0897 104.861V112.569H59.8594V97.2164H62.0897V103.243ZM77.3708 112.569V103.762L76.3335 103.617C76.1606 103.582 76.0189 103.52 75.9082 103.43C75.8045 103.34 75.7526 103.212 75.7526 103.046V102.133H77.3708V101.241C77.3708 100.64 77.4573 100.1 77.6302 99.623C77.81 99.1458 78.0624 98.7413 78.3874 98.4093C78.7193 98.0774 79.1204 97.825 79.5907 97.6521C80.0609 97.4723 80.59 97.3824 81.1778 97.3824C81.4198 97.3824 81.648 97.3997 81.8624 97.4342C82.0837 97.4688 82.2981 97.5207 82.5056 97.5898L82.4641 98.7101C82.4502 98.8969 82.3569 99.0075 82.184 99.0421C82.018 99.0767 81.8071 99.094 81.5512 99.094C81.24 99.094 80.96 99.132 80.711 99.2081C80.462 99.2772 80.2477 99.3982 80.0679 99.5711C79.895 99.744 79.7601 99.9722 79.6633 100.256C79.5734 100.539 79.5285 100.892 79.5285 101.314V102.133H82.4226V103.741H79.6011V112.569H77.3708ZM92.9305 101.988V112.569H91.5819C91.2846 112.569 91.0944 112.427 91.0114 112.143L90.8454 111.158C90.6242 111.393 90.389 111.607 90.1401 111.801C89.898 111.995 89.6387 112.161 89.3621 112.299C89.0855 112.437 88.7881 112.545 88.47 112.621C88.1588 112.697 87.8234 112.735 87.4638 112.735C86.8829 112.735 86.3711 112.638 85.9286 112.444C85.486 112.251 85.1125 111.977 84.8083 111.625C84.5109 111.272 84.2861 110.85 84.134 110.359C83.9819 109.861 83.9058 109.315 83.9058 108.72V101.988H86.136V108.72C86.136 109.433 86.2985 109.986 86.6236 110.38C86.9555 110.774 87.4569 110.971 88.1277 110.971C88.6187 110.971 89.0751 110.861 89.4969 110.639C89.9257 110.411 90.3268 110.1 90.7002 109.706V101.988H92.9305ZM97.7238 103.388C97.952 103.153 98.1872 102.942 98.4292 102.756C98.6782 102.562 98.941 102.396 99.2176 102.258C99.4942 102.119 99.7881 102.012 100.099 101.936C100.41 101.86 100.749 101.822 101.116 101.822C101.697 101.822 102.205 101.919 102.641 102.113C103.083 102.306 103.453 102.579 103.751 102.932C104.055 103.285 104.283 103.71 104.435 104.208C104.587 104.699 104.664 105.242 104.664 105.837V112.569H102.444V105.837C102.444 105.124 102.278 104.571 101.946 104.177C101.621 103.783 101.123 103.586 100.452 103.586C99.9541 103.586 99.4907 103.7 99.062 103.928C98.6401 104.156 98.2425 104.467 97.8691 104.861V112.569H95.6388V101.988H96.9873C97.2916 101.988 97.4853 102.13 97.5682 102.413L97.7238 103.388ZM114.021 104.592C113.71 104.191 113.368 103.911 112.994 103.752C112.621 103.592 112.216 103.513 111.78 103.513C110.909 103.513 110.228 103.835 109.737 104.478C109.246 105.114 109 106.058 109 107.31C109 107.96 109.056 108.516 109.166 108.98C109.277 109.436 109.436 109.809 109.644 110.1C109.851 110.39 110.103 110.601 110.401 110.733C110.698 110.864 111.034 110.93 111.407 110.93C111.974 110.93 112.462 110.809 112.87 110.567C113.285 110.318 113.668 109.969 114.021 109.519V104.592ZM116.251 97.2164V112.569H114.903C114.605 112.569 114.415 112.427 114.332 112.143L114.135 110.992C113.693 111.511 113.188 111.929 112.621 112.247C112.061 112.565 111.407 112.724 110.66 112.724C110.065 112.724 109.526 112.607 109.042 112.372C108.558 112.13 108.143 111.78 107.797 111.324C107.451 110.868 107.182 110.304 106.988 109.633C106.801 108.955 106.708 108.181 106.708 107.31C106.708 106.521 106.812 105.792 107.019 105.121C107.234 104.45 107.538 103.869 107.932 103.378C108.326 102.88 108.803 102.493 109.364 102.216C109.931 101.933 110.563 101.791 111.262 101.791C111.884 101.791 112.413 101.891 112.849 102.092C113.285 102.285 113.675 102.559 114.021 102.911V97.2164H116.251ZM125.296 103.907C125.24 104.004 125.178 104.073 125.109 104.115C125.04 104.156 124.953 104.177 124.85 104.177C124.732 104.177 124.604 104.142 124.466 104.073C124.328 103.997 124.165 103.914 123.978 103.824C123.792 103.734 123.57 103.655 123.314 103.586C123.066 103.509 122.772 103.471 122.433 103.471C122.156 103.471 121.904 103.506 121.676 103.575C121.454 103.637 121.264 103.731 121.105 103.855C120.953 103.973 120.835 104.115 120.752 104.281C120.669 104.44 120.628 104.612 120.628 104.799C120.628 105.048 120.704 105.256 120.856 105.422C121.008 105.588 121.209 105.733 121.458 105.857C121.707 105.975 121.99 106.082 122.308 106.179C122.626 106.276 122.951 106.379 123.283 106.49C123.615 106.601 123.94 106.729 124.258 106.874C124.577 107.019 124.86 107.199 125.109 107.413C125.358 107.621 125.559 107.877 125.711 108.181C125.863 108.478 125.939 108.841 125.939 109.27C125.939 109.768 125.849 110.228 125.669 110.65C125.489 111.072 125.227 111.438 124.881 111.749C124.535 112.06 124.103 112.302 123.584 112.475C123.072 112.648 122.485 112.735 121.821 112.735C121.454 112.735 121.098 112.7 120.752 112.631C120.413 112.569 120.088 112.482 119.777 112.372C119.473 112.254 119.186 112.116 118.916 111.957C118.653 111.798 118.418 111.625 118.211 111.438L118.73 110.587C118.792 110.484 118.868 110.404 118.958 110.349C119.055 110.287 119.172 110.256 119.31 110.256C119.456 110.256 119.597 110.304 119.736 110.401C119.881 110.491 120.047 110.591 120.234 110.702C120.427 110.812 120.659 110.916 120.929 111.013C121.198 111.103 121.534 111.148 121.935 111.148C122.267 111.148 122.554 111.11 122.796 111.033C123.038 110.951 123.238 110.84 123.397 110.702C123.557 110.563 123.674 110.408 123.75 110.235C123.826 110.055 123.864 109.865 123.864 109.664C123.864 109.395 123.788 109.173 123.636 109C123.484 108.827 123.28 108.679 123.024 108.554C122.775 108.43 122.488 108.319 122.163 108.222C121.845 108.126 121.52 108.022 121.188 107.911C120.856 107.801 120.528 107.673 120.203 107.527C119.884 107.382 119.597 107.199 119.342 106.978C119.093 106.749 118.892 106.476 118.74 106.158C118.588 105.833 118.512 105.439 118.512 104.976C118.512 104.554 118.595 104.153 118.761 103.772C118.934 103.392 119.183 103.057 119.508 102.766C119.839 102.476 120.244 102.247 120.721 102.081C121.205 101.909 121.762 101.822 122.391 101.822C123.104 101.822 123.75 101.936 124.331 102.164C124.912 102.393 125.4 102.704 125.794 103.098L125.296 103.907ZM138.855 107.942C138.059 107.97 137.388 108.036 136.842 108.139C136.296 108.236 135.853 108.364 135.514 108.523C135.175 108.675 134.93 108.859 134.778 109.073C134.633 109.287 134.56 109.522 134.56 109.778C134.56 110.027 134.598 110.242 134.674 110.421C134.757 110.594 134.868 110.74 135.006 110.857C135.151 110.968 135.317 111.051 135.504 111.106C135.698 111.155 135.909 111.179 136.137 111.179C136.718 111.179 137.216 111.072 137.63 110.857C138.052 110.636 138.46 110.318 138.855 109.903V107.942ZM132.942 103.461C134.138 102.348 135.563 101.791 137.216 101.791C137.824 101.791 138.364 101.891 138.834 102.092C139.311 102.285 139.709 102.562 140.027 102.922C140.352 103.281 140.597 103.71 140.763 104.208C140.936 104.699 141.022 105.245 141.022 105.847V112.569H140.027C139.812 112.569 139.65 112.538 139.539 112.475C139.428 112.406 139.335 112.271 139.259 112.071L139.041 111.21C138.772 111.452 138.505 111.67 138.242 111.863C137.98 112.05 137.707 112.209 137.423 112.341C137.146 112.472 136.846 112.569 136.521 112.631C136.202 112.7 135.85 112.735 135.462 112.735C135.034 112.735 134.633 112.676 134.259 112.558C133.893 112.441 133.575 112.264 133.305 112.029C133.035 111.787 132.821 111.49 132.662 111.137C132.51 110.785 132.433 110.37 132.433 109.892C132.433 109.484 132.541 109.087 132.755 108.7C132.976 108.312 133.336 107.966 133.834 107.662C134.339 107.351 134.999 107.095 135.815 106.895C136.638 106.694 137.651 106.58 138.855 106.552V105.847C138.855 105.086 138.692 104.519 138.367 104.146C138.042 103.772 137.565 103.586 136.935 103.586C136.507 103.586 136.147 103.641 135.857 103.752C135.566 103.855 135.314 103.969 135.099 104.094C134.885 104.218 134.695 104.336 134.529 104.447C134.363 104.55 134.187 104.602 134 104.602C133.848 104.602 133.716 104.564 133.606 104.488C133.502 104.405 133.415 104.305 133.346 104.187L132.942 103.461ZM145.741 103.949C146.073 103.278 146.474 102.752 146.944 102.372C147.414 101.985 147.978 101.791 148.635 101.791C148.863 101.791 149.078 101.819 149.278 101.874C149.479 101.922 149.658 101.998 149.818 102.102L149.662 103.783C149.634 103.9 149.589 103.983 149.527 104.032C149.472 104.073 149.396 104.094 149.299 104.094C149.195 104.094 149.046 104.077 148.853 104.042C148.659 104 148.455 103.98 148.241 103.98C147.93 103.98 147.653 104.025 147.411 104.115C147.176 104.204 146.961 104.336 146.768 104.509C146.581 104.682 146.415 104.893 146.27 105.142C146.125 105.39 145.99 105.674 145.865 105.992V112.569H143.635V101.988H144.932C145.167 101.988 145.329 102.033 145.419 102.123C145.509 102.206 145.571 102.355 145.606 102.569L145.741 103.949ZM157.868 106.085C157.868 105.712 157.813 105.366 157.702 105.048C157.599 104.723 157.443 104.443 157.236 104.208C157.028 103.966 156.769 103.779 156.458 103.648C156.153 103.509 155.801 103.44 155.4 103.44C154.59 103.44 153.954 103.672 153.491 104.135C153.028 104.599 152.734 105.249 152.609 106.085H157.868ZM152.547 107.455C152.575 108.056 152.668 108.579 152.827 109.021C152.986 109.457 153.197 109.82 153.46 110.11C153.73 110.401 154.048 110.619 154.414 110.764C154.788 110.902 155.202 110.971 155.659 110.971C156.095 110.971 156.471 110.923 156.79 110.826C157.108 110.722 157.384 110.612 157.619 110.494C157.855 110.37 158.055 110.259 158.221 110.162C158.387 110.058 158.539 110.007 158.678 110.007C158.857 110.007 158.996 110.076 159.092 110.214L159.725 111.033C159.462 111.345 159.165 111.607 158.833 111.822C158.501 112.036 158.148 112.213 157.775 112.351C157.402 112.482 157.018 112.576 156.624 112.631C156.229 112.693 155.846 112.724 155.472 112.724C154.739 112.724 154.058 112.603 153.429 112.361C152.806 112.112 152.263 111.749 151.8 111.272C151.344 110.795 150.984 110.204 150.721 109.498C150.465 108.793 150.337 107.98 150.337 107.061C150.337 106.328 150.452 105.643 150.68 105.007C150.915 104.37 151.247 103.817 151.676 103.347C152.111 102.877 152.637 102.507 153.252 102.237C153.875 101.96 154.577 101.822 155.358 101.822C156.008 101.822 156.61 101.929 157.163 102.144C157.716 102.351 158.193 102.659 158.595 103.067C158.996 103.475 159.307 103.976 159.528 104.571C159.756 105.159 159.87 105.83 159.87 106.583C159.87 106.929 159.832 107.161 159.756 107.278C159.68 107.396 159.542 107.455 159.341 107.455H152.547ZM14.4245 142.735C13.5463 142.735 12.8686 142.489 12.3914 141.998C11.9211 141.5 11.686 140.802 11.686 139.903V133.741H10.5242C10.3997 133.741 10.2926 133.703 10.2027 133.627C10.1128 133.544 10.0678 133.423 10.0678 133.264V132.362L11.7794 132.113L12.2669 129.052C12.3015 128.935 12.3603 128.842 12.4433 128.772C12.5262 128.696 12.6369 128.658 12.7752 128.658H13.9163V132.133H16.8519V133.741H13.9163V139.747C13.9163 140.128 14.0096 140.418 14.1963 140.619C14.3831 140.819 14.632 140.919 14.9432 140.919C15.1161 140.919 15.2648 140.899 15.3892 140.857C15.5137 140.809 15.6209 140.76 15.7108 140.712C15.8007 140.657 15.8768 140.608 15.939 140.567C16.0082 140.518 16.0739 140.494 16.1361 140.494C16.2606 140.494 16.3609 140.563 16.4369 140.702L17.1008 141.791C16.7551 142.095 16.347 142.33 15.8768 142.496C15.4065 142.655 14.9225 142.735 14.4245 142.735ZM20.84 133.243C21.2757 132.814 21.7529 132.472 22.2715 132.216C22.7902 131.953 23.3953 131.822 24.0868 131.822C24.6677 131.822 25.176 131.919 25.6117 132.113C26.0543 132.306 26.4243 132.579 26.7216 132.932C27.0259 133.285 27.2541 133.71 27.4063 134.208C27.5584 134.699 27.6345 135.242 27.6345 135.837V142.569H25.4146V135.837C25.4146 135.124 25.2486 134.571 24.9167 134.177C24.5917 133.783 24.0938 133.586 23.423 133.586C22.925 133.586 22.4617 133.7 22.033 133.928C21.6111 134.156 21.2135 134.467 20.84 134.861V142.569H18.6098V127.216H20.84V133.243ZM37.1788 136.085C37.1788 135.712 37.1235 135.366 37.0128 135.048C36.9091 134.723 36.7535 134.443 36.546 134.208C36.3386 133.966 36.0792 133.779 35.768 133.648C35.4637 133.509 35.1111 133.44 34.71 133.44C33.9009 133.44 33.2646 133.672 32.8013 134.135C32.338 134.599 32.0441 135.249 31.9196 136.085H37.1788ZM31.8573 137.455C31.885 138.056 31.9784 138.579 32.1374 139.021C32.2965 139.457 32.5074 139.82 32.7702 140.11C33.0399 140.401 33.358 140.619 33.7245 140.764C34.0979 140.902 34.5129 140.971 34.9693 140.971C35.405 140.971 35.7819 140.923 36.1 140.826C36.4181 140.722 36.6947 140.612 36.9298 140.494C37.165 140.37 37.3655 140.259 37.5315 140.162C37.6974 140.058 37.8496 140.007 37.9879 140.007C38.1677 140.007 38.306 140.076 38.4028 140.214L39.0356 141.033C38.7728 141.345 38.4754 141.607 38.1435 141.822C37.8115 142.036 37.4589 142.213 37.0854 142.351C36.712 142.482 36.3282 142.576 35.934 142.631C35.5398 142.693 35.156 142.724 34.7826 142.724C34.0495 142.724 33.3684 142.603 32.7391 142.361C32.1167 142.112 31.5738 141.749 31.1105 141.272C30.654 140.795 30.2944 140.204 30.0317 139.498C29.7758 138.793 29.6478 137.98 29.6478 137.061C29.6478 136.328 29.762 135.643 29.9902 135.007C30.2253 134.37 30.5572 133.817 30.986 133.347C31.4217 132.877 31.9472 132.507 32.5627 132.237C33.1851 131.96 33.887 131.822 34.6685 131.822C35.3185 131.822 35.9202 131.929 36.4734 132.144C37.0266 132.351 37.5038 132.659 37.9049 133.067C38.306 133.475 38.6172 133.976 38.8385 134.571C39.0667 135.159 39.1808 135.83 39.1808 136.583C39.1808 136.929 39.1428 137.161 39.0667 137.278C38.9906 137.396 38.8523 137.455 38.6518 137.455H31.8573ZM48.6572 139.913C48.9684 140.314 49.3073 140.598 49.6738 140.764C50.0472 140.923 50.4518 141.002 50.8874 141.002C51.7657 141.002 52.4503 140.684 52.9413 140.048C53.4323 139.412 53.6778 138.426 53.6778 137.092C53.6778 135.875 53.4634 134.986 53.0347 134.426C52.6128 133.866 52.0077 133.586 51.2194 133.586C50.6731 133.586 50.1959 133.71 49.7879 133.959C49.3868 134.201 49.0099 134.55 48.6572 135.007V139.913ZM48.6572 133.388C49.0929 132.911 49.5804 132.531 50.1198 132.247C50.6592 131.964 51.2747 131.822 51.9662 131.822C52.5817 131.822 53.135 131.943 53.626 132.185C54.1239 132.42 54.5457 132.763 54.8915 133.212C55.2373 133.662 55.5035 134.208 55.6902 134.851C55.8769 135.487 55.9703 136.207 55.9703 137.009C55.9703 137.866 55.8631 138.648 55.6487 139.353C55.4413 140.051 55.1404 140.653 54.7463 141.158C54.3521 141.656 53.8749 142.043 53.3148 142.32C52.7546 142.589 52.1288 142.724 51.4372 142.724C51.0984 142.724 50.7906 142.69 50.514 142.621C50.2374 142.558 49.9815 142.465 49.7464 142.341C49.5113 142.216 49.2934 142.067 49.0929 141.894C48.8992 141.722 48.7125 141.524 48.5327 141.303L48.4394 142.123C48.4048 142.282 48.3425 142.396 48.2526 142.465C48.1627 142.534 48.0383 142.569 47.8792 142.569H46.427V127.216H48.6572V133.388ZM65.077 136.085C65.077 135.712 65.0217 135.366 64.911 135.048C64.8073 134.723 64.6517 134.443 64.4442 134.208C64.2368 133.966 63.9774 133.779 63.6662 133.648C63.362 133.509 63.0093 133.44 62.6082 133.44C61.7991 133.44 61.1628 133.672 60.6995 134.135C60.2362 134.599 59.9423 135.249 59.8178 136.085H65.077ZM59.7555 137.455C59.7832 138.056 59.8766 138.579 60.0356 139.021C60.1947 139.457 60.4056 139.82 60.6684 140.11C60.9381 140.401 61.2562 140.619 61.6227 140.764C61.9961 140.902 62.4111 140.971 62.8675 140.971C63.3032 140.971 63.6801 140.923 63.9982 140.826C64.3163 140.722 64.5929 140.612 64.828 140.494C65.0632 140.37 65.2637 140.259 65.4297 140.162C65.5956 140.058 65.7478 140.007 65.8861 140.007C66.0659 140.007 66.2042 140.076 66.301 140.214L66.9338 141.033C66.671 141.345 66.3736 141.607 66.0417 141.822C65.7098 142.036 65.3571 142.213 64.9836 142.351C64.6102 142.482 64.2264 142.576 63.8322 142.631C63.438 142.693 63.0542 142.724 62.6808 142.724C61.9477 142.724 61.2666 142.603 60.6373 142.361C60.0149 142.112 59.472 141.749 59.0087 141.272C58.5523 140.795 58.1926 140.204 57.9299 139.498C57.674 138.793 57.5461 137.98 57.5461 137.061C57.5461 136.328 57.6602 135.643 57.8884 135.007C58.1235 134.37 58.4554 133.817 58.8842 133.347C59.3199 132.877 59.8454 132.507 60.4609 132.237C61.0833 131.96 61.7852 131.822 62.5667 131.822C63.2167 131.822 63.8184 131.929 64.3716 132.144C64.9248 132.351 65.402 132.659 65.8031 133.067C66.2042 133.475 66.5154 133.976 66.7367 134.571C66.9649 135.159 67.079 135.83 67.079 136.583C67.079 136.929 67.041 137.161 66.9649 137.278C66.8888 137.396 66.7505 137.455 66.55 137.455H59.7555ZM75.4761 133.907C75.4208 134.004 75.3585 134.073 75.2894 134.115C75.2202 134.156 75.1338 134.177 75.0301 134.177C74.9125 134.177 74.7846 134.142 74.6463 134.073C74.5079 133.997 74.3454 133.914 74.1587 133.824C73.972 133.734 73.7507 133.655 73.4948 133.586C73.2459 133.509 72.952 133.471 72.6131 133.471C72.3365 133.471 72.0841 133.506 71.8559 133.575C71.6346 133.637 71.4444 133.731 71.2853 133.855C71.1332 133.973 71.0156 134.115 70.9327 134.281C70.8497 134.44 70.8082 134.612 70.8082 134.799C70.8082 135.048 70.8842 135.256 71.0364 135.422C71.1885 135.588 71.3891 135.733 71.638 135.857C71.887 135.975 72.1705 136.082 72.4886 136.179C72.8067 136.276 73.1318 136.379 73.4637 136.49C73.7957 136.601 74.1207 136.729 74.4388 136.874C74.7569 137.019 75.0404 137.199 75.2894 137.413C75.5383 137.621 75.7389 137.877 75.891 138.181C76.0432 138.478 76.1192 138.841 76.1192 139.27C76.1192 139.768 76.0293 140.228 75.8495 140.65C75.6697 141.072 75.407 141.438 75.0612 141.749C74.7154 142.06 74.2832 142.302 73.7645 142.475C73.2528 142.648 72.665 142.735 72.0011 142.735C71.6346 142.735 71.2784 142.7 70.9327 142.631C70.5938 142.569 70.2688 142.482 69.9576 142.372C69.6533 142.254 69.3663 142.116 69.0966 141.957C68.8338 141.798 68.5987 141.625 68.3912 141.438L68.9099 140.587C68.9721 140.484 69.0482 140.404 69.1381 140.349C69.2349 140.287 69.3525 140.256 69.4908 140.256C69.636 140.256 69.7778 140.304 69.9161 140.401C70.0613 140.491 70.2273 140.591 70.414 140.702C70.6076 140.812 70.8393 140.916 71.109 141.013C71.3787 141.103 71.7141 141.148 72.1152 141.148C72.4471 141.148 72.7341 141.11 72.9762 141.033C73.2182 140.951 73.4188 140.84 73.5778 140.702C73.7369 140.563 73.8544 140.408 73.9305 140.235C74.0066 140.055 74.0446 139.865 74.0446 139.664C74.0446 139.395 73.9685 139.173 73.8164 139C73.6643 138.827 73.4603 138.679 73.2044 138.554C72.9554 138.43 72.6684 138.319 72.3434 138.222C72.0253 138.126 71.7003 138.022 71.3683 137.911C71.0364 137.801 70.7079 137.673 70.3829 137.527C70.0648 137.382 69.7778 137.199 69.5219 136.978C69.2729 136.749 69.0724 136.476 68.9203 136.158C68.7681 135.833 68.692 135.439 68.692 134.976C68.692 134.554 68.775 134.153 68.941 133.772C69.1139 133.392 69.3628 133.057 69.6879 132.766C70.0198 132.476 70.4244 132.247 70.9015 132.081C71.3856 131.909 71.9423 131.822 72.5716 131.822C73.2839 131.822 73.9305 131.936 74.5114 132.164C75.0923 132.393 75.5798 132.704 75.974 133.098L75.4761 133.907ZM81.6071 142.735C80.7289 142.735 80.0512 142.489 79.574 141.998C79.1037 141.5 78.8686 140.802 78.8686 139.903V133.741H77.7068C77.5823 133.741 77.4752 133.703 77.3853 133.627C77.2954 133.544 77.2504 133.423 77.2504 133.264V132.362L78.962 132.113L79.4495 129.052C79.4841 128.935 79.5429 128.842 79.6259 128.772C79.7089 128.696 79.8195 128.658 79.9578 128.658H81.0989V132.133H84.0345V133.741H81.0989V139.747C81.0989 140.128 81.1922 140.418 81.3789 140.619C81.5657 140.819 81.8146 140.919 82.1258 140.919C82.2987 140.919 82.4474 140.899 82.5719 140.857C82.6963 140.809 82.8035 140.76 82.8934 140.712C82.9833 140.657 83.0594 140.608 83.1216 140.567C83.1908 140.518 83.2565 140.494 83.3187 140.494C83.4432 140.494 83.5435 140.563 83.6195 140.702L84.2834 141.791C83.9377 142.095 83.5296 142.33 83.0594 142.496C82.5891 142.655 82.1051 142.735 81.6071 142.735ZM94.3508 142.735C93.4725 142.735 92.7948 142.489 92.3176 141.998C91.8474 141.5 91.6123 140.802 91.6123 139.903V133.741H90.4505C90.326 133.741 90.2188 133.703 90.1289 133.627C90.039 133.544 89.994 133.423 89.994 133.264V132.362L91.7056 132.113L92.1932 129.052C92.2277 128.935 92.2865 128.842 92.3695 128.772C92.4525 128.696 92.5631 128.658 92.7014 128.658H93.8425V132.133H96.7781V133.741H93.8425V139.747C93.8425 140.128 93.9358 140.418 94.1226 140.619C94.3093 140.819 94.5582 140.919 94.8694 140.919C95.0423 140.919 95.191 140.899 95.3155 140.857C95.44 140.809 95.5471 140.76 95.637 140.712C95.727 140.657 95.803 140.608 95.8653 140.567C95.9344 140.518 96.0001 140.494 96.0624 140.494C96.1868 140.494 96.2871 140.563 96.3632 140.702L97.0271 141.791C96.6813 142.095 96.2733 142.33 95.803 142.496C95.3328 142.655 94.8487 142.735 94.3508 142.735ZM103.03 131.822C103.811 131.822 104.516 131.95 105.146 132.206C105.782 132.462 106.321 132.825 106.764 133.295C107.213 133.765 107.559 134.336 107.801 135.007C108.043 135.677 108.164 136.431 108.164 137.268C108.164 138.105 108.043 138.859 107.801 139.529C107.559 140.2 107.213 140.774 106.764 141.251C106.321 141.722 105.782 142.085 105.146 142.341C104.516 142.596 103.811 142.724 103.03 142.724C102.241 142.724 101.529 142.596 100.893 142.341C100.263 142.085 99.724 141.722 99.2745 141.251C98.825 140.774 98.4792 140.2 98.2372 139.529C97.9951 138.859 97.8741 138.105 97.8741 137.268C97.8741 136.431 97.9951 135.677 98.2372 135.007C98.4792 134.336 98.825 133.765 99.2745 133.295C99.724 132.825 100.263 132.462 100.893 132.206C101.529 131.95 102.241 131.822 103.03 131.822ZM103.03 140.982C103.984 140.982 104.693 140.664 105.156 140.027C105.626 139.384 105.861 138.468 105.861 137.278C105.861 136.089 105.626 135.173 105.156 134.53C104.693 133.879 103.984 133.554 103.03 133.554C102.061 133.554 101.342 133.879 100.872 134.53C100.402 135.173 100.167 136.089 100.167 137.278C100.167 138.468 100.402 139.384 100.872 140.027C101.342 140.664 102.061 140.982 103.03 140.982ZM117.704 139.913C118.015 140.314 118.354 140.598 118.72 140.764C119.094 140.923 119.505 141.002 119.955 141.002C120.826 141.002 121.504 140.684 121.988 140.048C122.479 139.412 122.724 138.464 122.724 137.206C122.724 136.556 122.669 136.002 122.558 135.546C122.448 135.083 122.289 134.706 122.081 134.415C121.874 134.125 121.621 133.914 121.324 133.783C121.027 133.651 120.691 133.586 120.318 133.586C119.751 133.586 119.26 133.71 118.845 133.959C118.437 134.201 118.056 134.55 117.704 135.007V139.913ZM117.59 133.523C118.032 133.005 118.534 132.586 119.094 132.268C119.661 131.95 120.318 131.791 121.065 131.791C121.659 131.791 122.199 131.912 122.683 132.154C123.167 132.389 123.582 132.735 123.928 133.191C124.273 133.648 124.54 134.215 124.726 134.893C124.92 135.563 125.017 136.334 125.017 137.206C125.017 137.987 124.91 138.717 124.695 139.395C124.488 140.065 124.187 140.65 123.793 141.148C123.399 141.639 122.921 142.026 122.361 142.309C121.801 142.586 121.168 142.724 120.463 142.724C119.841 142.724 119.312 142.624 118.876 142.424C118.447 142.223 118.056 141.946 117.704 141.594V146.085H115.474V131.988H116.822C117.126 131.988 117.32 132.13 117.403 132.413L117.59 133.523ZM129.507 131.988V142.569H127.277V131.988H129.507ZM129.881 128.793C129.881 128.994 129.839 129.184 129.756 129.364C129.68 129.543 129.573 129.703 129.435 129.841C129.297 129.972 129.134 130.079 128.947 130.162C128.768 130.238 128.574 130.276 128.366 130.276C128.166 130.276 127.976 130.238 127.796 130.162C127.623 130.079 127.471 129.972 127.339 129.841C127.208 129.703 127.101 129.543 127.018 129.364C126.942 129.184 126.904 128.994 126.904 128.793C126.904 128.586 126.942 128.392 127.018 128.212C127.101 128.032 127.208 127.877 127.339 127.745C127.471 127.607 127.623 127.5 127.796 127.424C127.976 127.341 128.166 127.299 128.366 127.299C128.574 127.299 128.768 127.341 128.947 127.424C129.134 127.5 129.297 127.607 129.435 127.745C129.573 127.877 129.68 128.032 129.756 128.212C129.839 128.392 129.881 128.586 129.881 128.793ZM139.789 134.063C139.72 134.153 139.654 134.222 139.592 134.27C139.529 134.319 139.44 134.343 139.322 134.343C139.204 134.343 139.08 134.301 138.949 134.218C138.824 134.135 138.672 134.045 138.492 133.949C138.319 133.845 138.108 133.752 137.859 133.669C137.61 133.586 137.299 133.544 136.926 133.544C136.442 133.544 136.016 133.63 135.65 133.803C135.29 133.976 134.986 134.225 134.737 134.55C134.495 134.868 134.312 135.259 134.187 135.722C134.07 136.179 134.011 136.694 134.011 137.268C134.011 137.863 134.077 138.392 134.208 138.855C134.339 139.318 134.526 139.709 134.768 140.027C135.017 140.345 135.314 140.587 135.66 140.753C136.013 140.919 136.407 141.002 136.843 141.002C137.272 141.002 137.621 140.951 137.89 140.847C138.16 140.743 138.385 140.629 138.565 140.504C138.744 140.38 138.897 140.266 139.021 140.162C139.153 140.058 139.291 140.007 139.436 140.007C139.616 140.007 139.754 140.076 139.851 140.214L140.484 141.033C140.228 141.345 139.944 141.607 139.633 141.822C139.322 142.036 138.993 142.213 138.648 142.351C138.302 142.482 137.942 142.576 137.569 142.631C137.195 142.693 136.819 142.724 136.438 142.724C135.781 142.724 135.166 142.603 134.592 142.361C134.025 142.112 133.527 141.756 133.098 141.293C132.676 140.823 132.341 140.252 132.092 139.581C131.85 138.904 131.729 138.132 131.729 137.268C131.729 136.487 131.839 135.764 132.061 135.1C132.282 134.429 132.604 133.852 133.025 133.368C133.454 132.884 133.983 132.507 134.613 132.237C135.242 131.96 135.968 131.822 136.791 131.822C137.558 131.822 138.233 131.947 138.814 132.196C139.401 132.444 139.924 132.797 140.38 133.254L139.789 134.063ZM144.508 127.216V136.117H144.985C145.137 136.117 145.262 136.096 145.358 136.054C145.455 136.013 145.556 135.926 145.659 135.795L148.626 132.403C148.73 132.265 148.844 132.161 148.968 132.092C149.093 132.023 149.252 131.988 149.446 131.988H151.468L147.9 136.013C147.692 136.283 147.464 136.497 147.215 136.656C147.354 136.753 147.475 136.863 147.578 136.988C147.682 137.106 147.782 137.24 147.879 137.393L151.686 142.569H149.694C149.515 142.569 149.359 142.541 149.228 142.486C149.103 142.424 148.993 142.313 148.896 142.154L145.836 138.005C145.732 137.845 145.628 137.745 145.524 137.704C145.421 137.655 145.265 137.631 145.058 137.631H144.508V142.569H142.278V127.216H144.508ZM152.546 128.969C152.775 128.762 153.023 128.568 153.293 128.389C153.563 128.209 153.853 128.05 154.165 127.911C154.483 127.773 154.825 127.666 155.191 127.59C155.565 127.507 155.966 127.465 156.395 127.465C156.969 127.465 157.494 127.548 157.971 127.714C158.456 127.873 158.87 128.105 159.216 128.409C159.569 128.707 159.842 129.07 160.036 129.499C160.229 129.92 160.326 130.394 160.326 130.92C160.326 131.445 160.25 131.902 160.098 132.289C159.946 132.669 159.752 133.001 159.517 133.285C159.282 133.568 159.026 133.817 158.749 134.032C158.473 134.239 158.21 134.436 157.961 134.623C157.719 134.803 157.508 134.986 157.328 135.173C157.155 135.352 157.052 135.553 157.017 135.774L156.799 137.33H155.285L155.129 135.619C155.095 135.294 155.147 135.014 155.285 134.778C155.423 134.543 155.606 134.322 155.835 134.115C156.07 133.907 156.326 133.71 156.602 133.523C156.886 133.33 157.149 133.115 157.391 132.88C157.633 132.645 157.837 132.382 158.003 132.092C158.169 131.801 158.252 131.452 158.252 131.044C158.252 130.774 158.2 130.532 158.096 130.318C157.992 130.097 157.847 129.91 157.66 129.758C157.474 129.606 157.256 129.488 157.007 129.405C156.758 129.322 156.488 129.281 156.198 129.281C155.79 129.281 155.444 129.329 155.16 129.426C154.877 129.523 154.635 129.63 154.434 129.747C154.234 129.858 154.068 129.962 153.936 130.059C153.805 130.149 153.694 130.194 153.604 130.194C153.39 130.194 153.231 130.1 153.127 129.913L152.546 128.969ZM154.538 141.282C154.538 141.082 154.573 140.895 154.642 140.722C154.718 140.542 154.818 140.387 154.943 140.256C155.074 140.124 155.226 140.02 155.399 139.944C155.579 139.868 155.769 139.83 155.969 139.83C156.17 139.83 156.357 139.868 156.53 139.944C156.709 140.02 156.865 140.124 156.996 140.256C157.128 140.387 157.232 140.542 157.308 140.722C157.384 140.895 157.422 141.082 157.422 141.282C157.422 141.49 157.384 141.68 157.308 141.853C157.232 142.026 157.128 142.178 156.996 142.309C156.865 142.441 156.709 142.541 156.53 142.61C156.357 142.686 156.17 142.724 155.969 142.724C155.769 142.724 155.579 142.686 155.399 142.61C155.226 142.541 155.074 142.441 154.943 142.309C154.818 142.178 154.718 142.026 154.642 141.853C154.573 141.68 154.538 141.49 154.538 141.282Z" fill="#4267AB"/>
<path d="M142.077 275.379L140.023 269.923C139.857 269.501 139.688 268.965 139.515 268.315C139.439 268.64 139.356 268.941 139.266 269.217C139.176 269.487 139.093 269.726 139.017 269.933L136.963 275.379H142.077ZM146.673 280.98H144.795C144.581 280.98 144.408 280.929 144.276 280.825C144.145 280.714 144.045 280.579 143.976 280.42L142.731 277.122H136.299L135.055 280.42C134.999 280.559 134.902 280.687 134.764 280.804C134.626 280.922 134.453 280.98 134.246 280.98H132.368L138.291 266.043H140.75L146.673 280.98ZM147.96 280.98V270.4H149.309C149.613 270.4 149.807 270.542 149.89 270.825L150.035 271.748C150.229 271.527 150.429 271.326 150.637 271.147C150.844 270.96 151.065 270.801 151.3 270.67C151.543 270.531 151.798 270.424 152.068 270.348C152.345 270.272 152.642 270.234 152.96 270.234C153.299 270.234 153.61 270.282 153.894 270.379C154.177 270.476 154.426 270.614 154.641 270.794C154.862 270.974 155.052 271.192 155.211 271.448C155.37 271.703 155.502 271.99 155.605 272.308C155.764 271.942 155.965 271.627 156.207 271.365C156.449 271.102 156.719 270.887 157.016 270.721C157.313 270.555 157.628 270.434 157.96 270.358C158.299 270.275 158.641 270.234 158.987 270.234C159.554 270.234 160.059 270.324 160.502 270.504C160.951 270.683 161.328 270.946 161.632 271.292C161.943 271.631 162.179 272.049 162.338 272.547C162.497 273.045 162.576 273.612 162.576 274.248V280.98H160.346V274.248C160.346 273.501 160.183 272.941 159.858 272.568C159.54 272.187 159.067 271.997 158.437 271.997C158.154 271.997 157.887 272.046 157.639 272.143C157.39 272.239 157.172 272.381 156.985 272.568C156.798 272.755 156.65 272.99 156.539 273.273C156.435 273.55 156.383 273.875 156.383 274.248V280.98H154.153V274.248C154.153 273.474 153.998 272.907 153.686 272.547C153.375 272.181 152.919 271.997 152.317 271.997C151.902 271.997 151.518 272.104 151.166 272.319C150.813 272.526 150.488 272.813 150.191 273.18V280.98H147.96ZM173.2 280.98H170.763V266.043H173.2V280.98ZM181.491 280.98V270.4H182.839C183.144 270.4 183.337 270.542 183.42 270.825L183.565 271.748C183.759 271.527 183.96 271.326 184.167 271.147C184.375 270.96 184.596 270.801 184.831 270.67C185.073 270.531 185.329 270.424 185.599 270.348C185.875 270.272 186.173 270.234 186.491 270.234C186.83 270.234 187.141 270.282 187.424 270.379C187.708 270.476 187.957 270.614 188.171 270.794C188.392 270.974 188.583 271.192 188.742 271.448C188.901 271.703 189.032 271.99 189.136 272.308C189.295 271.942 189.495 271.627 189.738 271.365C189.98 271.102 190.249 270.887 190.547 270.721C190.844 270.555 191.159 270.434 191.491 270.358C191.829 270.275 192.172 270.234 192.518 270.234C193.085 270.234 193.589 270.324 194.032 270.504C194.482 270.683 194.858 270.946 195.163 271.292C195.474 271.631 195.709 272.049 195.868 272.547C196.027 273.045 196.107 273.612 196.107 274.248V280.98H193.876V274.248C193.876 273.501 193.714 272.941 193.389 272.568C193.071 272.187 192.597 271.997 191.968 271.997C191.684 271.997 191.418 272.046 191.169 272.143C190.92 272.239 190.702 272.381 190.516 272.568C190.329 272.755 190.18 272.99 190.069 273.273C189.966 273.55 189.914 273.875 189.914 274.248V280.98H187.684V274.248C187.684 273.474 187.528 272.907 187.217 272.547C186.906 272.181 186.449 271.997 185.848 271.997C185.433 271.997 185.049 272.104 184.696 272.319C184.343 272.526 184.018 272.813 183.721 273.18V280.98H181.491ZM204.365 276.354C203.57 276.382 202.899 276.447 202.353 276.551C201.807 276.648 201.364 276.776 201.025 276.935C200.686 277.087 200.441 277.27 200.289 277.485C200.143 277.699 200.071 277.934 200.071 278.19C200.071 278.439 200.109 278.653 200.185 278.833C200.268 279.006 200.379 279.151 200.517 279.269C200.662 279.38 200.828 279.463 201.015 279.518C201.208 279.566 201.419 279.59 201.648 279.59C202.228 279.59 202.726 279.483 203.141 279.269C203.563 279.048 203.971 278.729 204.365 278.315V276.354ZM198.453 271.873C199.649 270.759 201.074 270.203 202.726 270.203C203.335 270.203 203.874 270.303 204.345 270.504C204.822 270.697 205.219 270.974 205.538 271.333C205.863 271.693 206.108 272.122 206.274 272.62C206.447 273.111 206.533 273.657 206.533 274.259V280.98H205.538C205.323 280.98 205.161 280.949 205.05 280.887C204.939 280.818 204.846 280.683 204.77 280.483L204.552 279.622C204.282 279.864 204.016 280.081 203.753 280.275C203.491 280.462 203.217 280.621 202.934 280.752C202.657 280.884 202.356 280.98 202.031 281.043C201.713 281.112 201.361 281.146 200.973 281.146C200.545 281.146 200.143 281.088 199.77 280.97C199.404 280.853 199.085 280.676 198.816 280.441C198.546 280.199 198.332 279.902 198.173 279.549C198.02 279.196 197.944 278.781 197.944 278.304C197.944 277.896 198.052 277.499 198.266 277.111C198.487 276.724 198.847 276.378 199.345 276.074C199.85 275.763 200.51 275.507 201.326 275.306C202.149 275.106 203.162 274.992 204.365 274.964V274.259C204.365 273.498 204.203 272.931 203.878 272.557C203.553 272.184 203.076 271.997 202.446 271.997C202.018 271.997 201.658 272.053 201.368 272.163C201.077 272.267 200.825 272.381 200.61 272.506C200.396 272.63 200.206 272.748 200.04 272.858C199.874 272.962 199.697 273.014 199.511 273.014C199.359 273.014 199.227 272.976 199.117 272.9C199.013 272.817 198.926 272.716 198.857 272.599L198.453 271.873ZM211.376 265.628V274.528H211.853C212.005 274.528 212.13 274.508 212.227 274.466C212.324 274.425 212.424 274.338 212.528 274.207L215.494 270.815C215.598 270.676 215.712 270.573 215.837 270.504C215.961 270.434 216.12 270.4 216.314 270.4H218.337L214.768 274.425C214.561 274.694 214.333 274.909 214.084 275.068C214.222 275.165 214.343 275.275 214.447 275.4C214.55 275.517 214.651 275.652 214.747 275.804L218.554 280.98H216.563C216.383 280.98 216.227 280.953 216.096 280.897C215.971 280.835 215.861 280.725 215.764 280.566L212.704 276.416C212.6 276.257 212.496 276.157 212.393 276.115C212.289 276.067 212.133 276.043 211.926 276.043H211.376V280.98H209.146V265.628H211.376ZM222.309 270.4V280.98H220.078V270.4H222.309ZM222.682 267.205C222.682 267.405 222.641 267.596 222.558 267.775C222.482 267.955 222.374 268.114 222.236 268.253C222.098 268.384 221.935 268.491 221.749 268.574C221.569 268.65 221.375 268.688 221.168 268.688C220.967 268.688 220.777 268.65 220.597 268.574C220.424 268.491 220.272 268.384 220.141 268.253C220.009 268.114 219.902 267.955 219.819 267.775C219.743 267.596 219.705 267.405 219.705 267.205C219.705 266.997 219.743 266.804 219.819 266.624C219.902 266.444 220.009 266.289 220.141 266.157C220.272 266.019 220.424 265.912 220.597 265.836C220.777 265.753 220.967 265.711 221.168 265.711C221.375 265.711 221.569 265.753 221.749 265.836C221.935 265.912 222.098 266.019 222.236 266.157C222.374 266.289 222.482 266.444 222.558 266.624C222.641 266.804 222.682 266.997 222.682 267.205ZM227.196 271.8C227.424 271.565 227.659 271.354 227.901 271.167C228.15 270.974 228.413 270.808 228.69 270.67C228.966 270.531 229.26 270.424 229.571 270.348C229.883 270.272 230.221 270.234 230.588 270.234C231.169 270.234 231.677 270.331 232.113 270.524C232.555 270.718 232.925 270.991 233.223 271.344C233.527 271.696 233.755 272.122 233.907 272.62C234.06 273.111 234.136 273.654 234.136 274.248V280.98H231.916V274.248C231.916 273.536 231.75 272.983 231.418 272.589C231.093 272.194 230.595 271.997 229.924 271.997C229.426 271.997 228.963 272.111 228.534 272.34C228.112 272.568 227.715 272.879 227.341 273.273V280.98H225.111V270.4H226.459C226.764 270.4 226.957 270.542 227.04 270.825L227.196 271.8ZM240.516 275.597C241.208 275.597 241.726 275.42 242.072 275.068C242.418 274.715 242.591 274.255 242.591 273.688C242.591 273.107 242.418 272.647 242.072 272.308C241.726 271.97 241.208 271.8 240.516 271.8C239.831 271.8 239.313 271.97 238.96 272.308C238.614 272.647 238.441 273.107 238.441 273.688C238.441 273.965 238.486 274.221 238.576 274.456C238.666 274.691 238.798 274.895 238.97 275.068C239.143 275.234 239.358 275.365 239.614 275.462C239.876 275.552 240.177 275.597 240.516 275.597ZM243.618 281.499C243.618 281.264 243.549 281.077 243.41 280.939C243.279 280.794 243.099 280.683 242.871 280.607C242.643 280.524 242.376 280.465 242.072 280.431C241.768 280.389 241.443 280.362 241.097 280.348C240.758 280.327 240.409 280.31 240.049 280.296C239.697 280.275 239.354 280.241 239.022 280.192C238.69 280.365 238.417 280.572 238.203 280.814C237.995 281.057 237.892 281.337 237.892 281.655C237.892 281.862 237.944 282.056 238.047 282.236C238.158 282.415 238.324 282.571 238.545 282.702C238.773 282.834 239.06 282.938 239.406 283.014C239.759 283.09 240.181 283.128 240.672 283.128C241.654 283.128 242.39 282.976 242.881 282.671C243.372 282.367 243.618 281.976 243.618 281.499ZM245.858 270.784V271.613C245.858 271.89 245.692 272.06 245.36 272.122L244.302 272.298C244.482 272.699 244.572 273.145 244.572 273.636C244.572 274.155 244.468 274.625 244.261 275.047C244.06 275.469 243.78 275.828 243.421 276.126C243.061 276.423 242.632 276.651 242.134 276.81C241.636 276.97 241.097 277.049 240.516 277.049C240.295 277.049 240.077 277.039 239.863 277.018C239.655 276.99 239.451 276.956 239.251 276.914C239.05 277.032 238.901 277.156 238.805 277.288C238.708 277.419 238.659 277.554 238.659 277.692C238.659 277.92 238.76 278.09 238.96 278.2C239.161 278.311 239.423 278.391 239.748 278.439C240.08 278.487 240.457 278.519 240.879 278.532C241.301 278.546 241.73 278.57 242.165 278.605C242.601 278.64 243.03 278.698 243.452 278.781C243.874 278.857 244.247 278.989 244.572 279.176C244.904 279.355 245.17 279.601 245.371 279.912C245.571 280.223 245.672 280.628 245.672 281.126C245.672 281.582 245.557 282.028 245.329 282.464C245.101 282.9 244.769 283.287 244.333 283.626C243.905 283.964 243.379 284.234 242.757 284.435C242.134 284.642 241.425 284.746 240.63 284.746C239.842 284.746 239.154 284.67 238.566 284.518C237.985 284.366 237.497 284.158 237.103 283.895C236.716 283.639 236.426 283.342 236.232 283.003C236.045 282.664 235.952 282.312 235.952 281.945C235.952 281.447 236.107 281.022 236.419 280.669C236.737 280.317 237.166 280.04 237.705 279.839C237.415 279.701 237.179 279.511 237 279.269C236.827 279.027 236.74 278.709 236.74 278.315C236.74 278.003 236.854 277.678 237.083 277.339C237.311 277.001 237.653 276.714 238.11 276.479C237.584 276.188 237.169 275.804 236.865 275.327C236.56 274.843 236.408 274.279 236.408 273.636C236.408 273.111 236.509 272.637 236.709 272.215C236.917 271.793 237.204 271.434 237.57 271.136C237.937 270.839 238.369 270.611 238.867 270.452C239.372 270.293 239.921 270.213 240.516 270.213C241.429 270.213 242.224 270.403 242.902 270.784H245.858ZM258.44 276.354C257.644 276.382 256.974 276.447 256.427 276.551C255.881 276.648 255.438 276.776 255.099 276.935C254.761 277.087 254.515 277.27 254.363 277.485C254.218 277.699 254.145 277.934 254.145 278.19C254.145 278.439 254.183 278.653 254.259 278.833C254.342 279.006 254.453 279.151 254.591 279.269C254.736 279.38 254.902 279.463 255.089 279.518C255.283 279.566 255.494 279.59 255.722 279.59C256.303 279.59 256.801 279.483 257.216 279.269C257.637 279.048 258.045 278.729 258.44 278.315V276.354ZM252.527 271.873C253.723 270.759 255.148 270.203 256.801 270.203C257.409 270.203 257.949 270.303 258.419 270.504C258.896 270.697 259.294 270.974 259.612 271.333C259.937 271.693 260.182 272.122 260.348 272.62C260.521 273.111 260.608 273.657 260.608 274.259V280.98H259.612C259.397 280.98 259.235 280.949 259.124 280.887C259.014 280.818 258.92 280.683 258.844 280.483L258.626 279.622C258.357 279.864 258.09 280.081 257.828 280.275C257.565 280.462 257.292 280.621 257.008 280.752C256.732 280.884 256.431 280.98 256.106 281.043C255.788 281.112 255.435 281.146 255.048 281.146C254.619 281.146 254.218 281.088 253.844 280.97C253.478 280.853 253.16 280.676 252.89 280.441C252.62 280.199 252.406 279.902 252.247 279.549C252.095 279.196 252.019 278.781 252.019 278.304C252.019 277.896 252.126 277.499 252.34 277.111C252.562 276.724 252.921 276.378 253.419 276.074C253.924 275.763 254.584 275.507 255.4 275.306C256.223 275.106 257.236 274.992 258.44 274.964V274.259C258.44 273.498 258.277 272.931 257.952 272.557C257.627 272.184 257.15 271.997 256.521 271.997C256.092 271.997 255.732 272.053 255.442 272.163C255.151 272.267 254.899 272.381 254.685 272.506C254.47 272.63 254.28 272.748 254.114 272.858C253.948 272.962 253.772 273.014 253.585 273.014C253.433 273.014 253.301 272.976 253.191 272.9C253.087 272.817 253.001 272.716 252.931 272.599L252.527 271.873ZM265.305 271.8C265.533 271.565 265.769 271.354 266.011 271.167C266.26 270.974 266.522 270.808 266.799 270.67C267.076 270.531 267.37 270.424 267.681 270.348C267.992 270.272 268.331 270.234 268.697 270.234C269.278 270.234 269.786 270.331 270.222 270.524C270.665 270.718 271.035 270.991 271.332 271.344C271.636 271.696 271.865 272.122 272.017 272.62C272.169 273.111 272.245 273.654 272.245 274.248V280.98H270.025V274.248C270.025 273.536 269.859 272.983 269.527 272.589C269.202 272.194 268.704 271.997 268.033 271.997C267.535 271.997 267.072 272.111 266.643 272.34C266.222 272.568 265.824 272.879 265.45 273.273V280.98H263.22V270.4H264.569C264.873 270.4 265.067 270.542 265.15 270.825L265.305 271.8ZM146.556 300.4V310.98H144.326V300.4H146.556ZM146.929 297.205C146.929 297.405 146.888 297.596 146.805 297.775C146.729 297.955 146.622 298.114 146.483 298.253C146.345 298.384 146.183 298.491 145.996 298.574C145.816 298.65 145.622 298.688 145.415 298.688C145.214 298.688 145.024 298.65 144.844 298.574C144.672 298.491 144.519 298.384 144.388 298.253C144.257 298.114 144.149 297.955 144.066 297.775C143.99 297.596 143.952 297.405 143.952 297.205C143.952 296.997 143.99 296.804 144.066 296.624C144.149 296.444 144.257 296.289 144.388 296.157C144.519 296.019 144.672 295.912 144.844 295.836C145.024 295.753 145.214 295.711 145.415 295.711C145.622 295.711 145.816 295.753 145.996 295.836C146.183 295.912 146.345 296.019 146.483 296.157C146.622 296.289 146.729 296.444 146.805 296.624C146.888 296.804 146.929 296.997 146.929 297.205ZM149.358 310.98V300.4H150.707C151.011 300.4 151.205 300.542 151.288 300.825L151.433 301.748C151.627 301.527 151.827 301.326 152.035 301.147C152.242 300.96 152.463 300.801 152.698 300.67C152.94 300.531 153.196 300.424 153.466 300.348C153.743 300.272 154.04 300.234 154.358 300.234C154.697 300.234 155.008 300.282 155.292 300.379C155.575 300.476 155.824 300.614 156.039 300.794C156.26 300.974 156.45 301.192 156.609 301.448C156.768 301.703 156.9 301.99 157.003 302.308C157.162 301.942 157.363 301.627 157.605 301.365C157.847 301.102 158.117 300.887 158.414 300.721C158.711 300.555 159.026 300.434 159.358 300.358C159.697 300.275 160.039 300.234 160.385 300.234C160.952 300.234 161.457 300.324 161.899 300.504C162.349 300.683 162.726 300.946 163.03 301.292C163.341 301.631 163.576 302.049 163.736 302.547C163.895 303.045 163.974 303.612 163.974 304.248V310.98H161.744V304.248C161.744 303.501 161.581 302.941 161.256 302.568C160.938 302.187 160.465 301.997 159.835 301.997C159.552 301.997 159.285 302.046 159.036 302.143C158.788 302.239 158.57 302.381 158.383 302.568C158.196 302.755 158.048 302.99 157.937 303.273C157.833 303.55 157.781 303.875 157.781 304.248V310.98H155.551V304.248C155.551 303.474 155.395 302.907 155.084 302.547C154.773 302.181 154.317 301.997 153.715 301.997C153.3 301.997 152.916 302.104 152.564 302.319C152.211 302.526 151.886 302.813 151.589 303.18V310.98H149.358ZM168.81 308.325C169.121 308.726 169.46 309.01 169.826 309.176C170.2 309.335 170.611 309.414 171.061 309.414C171.932 309.414 172.61 309.096 173.094 308.46C173.585 307.824 173.83 306.876 173.83 305.618C173.83 304.967 173.775 304.414 173.664 303.958C173.554 303.494 173.395 303.118 173.187 302.827C172.98 302.537 172.727 302.326 172.43 302.194C172.133 302.063 171.797 301.997 171.424 301.997C170.857 301.997 170.366 302.122 169.951 302.371C169.543 302.613 169.162 302.962 168.81 303.418V308.325ZM168.696 301.935C169.138 301.416 169.639 300.998 170.2 300.68C170.767 300.362 171.424 300.203 172.171 300.203C172.765 300.203 173.305 300.324 173.789 300.566C174.273 300.801 174.688 301.147 175.034 301.603C175.379 302.06 175.646 302.627 175.832 303.304C176.026 303.975 176.123 304.746 176.123 305.618C176.123 306.399 176.016 307.129 175.801 307.806C175.594 308.477 175.293 309.061 174.899 309.559C174.505 310.05 174.027 310.438 173.467 310.721C172.907 310.998 172.274 311.136 171.569 311.136C170.947 311.136 170.417 311.036 169.982 310.835C169.553 310.635 169.162 310.358 168.81 310.005V314.497H166.579V300.4H167.928C168.232 300.4 168.426 300.542 168.509 300.825L168.696 301.935ZM183.943 306.354C183.148 306.382 182.477 306.447 181.931 306.551C181.384 306.648 180.942 306.776 180.603 306.935C180.264 307.087 180.019 307.27 179.866 307.485C179.721 307.699 179.649 307.934 179.649 308.19C179.649 308.439 179.687 308.653 179.763 308.833C179.846 309.006 179.956 309.151 180.095 309.269C180.24 309.38 180.406 309.463 180.593 309.518C180.786 309.566 180.997 309.59 181.225 309.59C181.806 309.59 182.304 309.483 182.719 309.269C183.141 309.048 183.549 308.729 183.943 308.315V306.354ZM178.03 301.873C179.227 300.759 180.651 300.203 182.304 300.203C182.913 300.203 183.452 300.303 183.922 300.504C184.4 300.697 184.797 300.974 185.115 301.333C185.44 301.693 185.686 302.122 185.852 302.62C186.025 303.111 186.111 303.657 186.111 304.259V310.98H185.115C184.901 310.98 184.738 310.949 184.628 310.887C184.517 310.818 184.424 310.683 184.348 310.483L184.13 309.622C183.86 309.864 183.594 310.081 183.331 310.275C183.068 310.462 182.795 310.621 182.512 310.752C182.235 310.884 181.934 310.98 181.609 311.043C181.291 311.112 180.938 311.146 180.551 311.146C180.122 311.146 179.721 311.088 179.348 310.97C178.981 310.853 178.663 310.676 178.393 310.441C178.124 310.199 177.909 309.902 177.75 309.549C177.598 309.196 177.522 308.781 177.522 308.304C177.522 307.896 177.629 307.499 177.844 307.111C178.065 306.724 178.425 306.378 178.923 306.074C179.427 305.763 180.088 305.507 180.904 305.306C181.727 305.106 182.74 304.992 183.943 304.964V304.259C183.943 303.498 183.781 302.931 183.456 302.557C183.131 302.184 182.653 301.997 182.024 301.997C181.595 301.997 181.236 302.053 180.945 302.163C180.655 302.267 180.402 302.381 180.188 302.506C179.974 302.63 179.783 302.748 179.618 302.858C179.452 302.962 179.275 303.014 179.088 303.014C178.936 303.014 178.805 302.976 178.694 302.9C178.591 302.817 178.504 302.716 178.435 302.599L178.03 301.873ZM196.203 302.474C196.134 302.564 196.068 302.634 196.006 302.682C195.943 302.73 195.854 302.755 195.736 302.755C195.618 302.755 195.494 302.713 195.363 302.63C195.238 302.547 195.086 302.457 194.906 302.36C194.733 302.257 194.522 302.163 194.273 302.08C194.024 301.997 193.713 301.956 193.34 301.956C192.856 301.956 192.43 302.042 192.064 302.215C191.704 302.388 191.4 302.637 191.151 302.962C190.909 303.28 190.726 303.671 190.601 304.134C190.484 304.591 190.425 305.106 190.425 305.68C190.425 306.274 190.491 306.804 190.622 307.267C190.753 307.73 190.94 308.121 191.182 308.439C191.431 308.757 191.728 308.999 192.074 309.165C192.427 309.331 192.821 309.414 193.257 309.414C193.686 309.414 194.035 309.362 194.305 309.259C194.574 309.155 194.799 309.041 194.979 308.916C195.159 308.792 195.311 308.678 195.435 308.574C195.567 308.47 195.705 308.418 195.85 308.418C196.03 308.418 196.168 308.487 196.265 308.626L196.898 309.445C196.642 309.756 196.358 310.019 196.047 310.234C195.736 310.448 195.408 310.624 195.062 310.763C194.716 310.894 194.356 310.987 193.983 311.043C193.609 311.105 193.233 311.136 192.852 311.136C192.195 311.136 191.58 311.015 191.006 310.773C190.439 310.524 189.941 310.168 189.512 309.705C189.09 309.234 188.755 308.664 188.506 307.993C188.264 307.315 188.143 306.544 188.143 305.68C188.143 304.898 188.253 304.176 188.475 303.512C188.696 302.841 189.018 302.264 189.439 301.779C189.868 301.295 190.397 300.918 191.027 300.649C191.656 300.372 192.382 300.234 193.205 300.234C193.973 300.234 194.647 300.358 195.228 300.607C195.816 300.856 196.338 301.209 196.794 301.665L196.203 302.474ZM202.084 311.146C201.205 311.146 200.528 310.901 200.051 310.41C199.58 309.912 199.345 309.214 199.345 308.315V302.153H198.183C198.059 302.153 197.952 302.115 197.862 302.039C197.772 301.956 197.727 301.835 197.727 301.676V300.773L199.439 300.524L199.926 297.464C199.961 297.347 200.019 297.253 200.102 297.184C200.185 297.108 200.296 297.07 200.434 297.07H201.575V300.545H204.511V302.153H201.575V308.159C201.575 308.539 201.669 308.83 201.856 309.03C202.042 309.231 202.291 309.331 202.602 309.331C202.775 309.331 202.924 309.31 203.048 309.269C203.173 309.22 203.28 309.172 203.37 309.124C203.46 309.068 203.536 309.02 203.598 308.978C203.667 308.93 203.733 308.906 203.795 308.906C203.92 308.906 204.02 308.975 204.096 309.113L204.76 310.202C204.414 310.507 204.006 310.742 203.536 310.908C203.066 311.067 202.582 311.146 202.084 311.146ZM217.089 306.354C216.293 306.382 215.623 306.447 215.076 306.551C214.53 306.648 214.087 306.776 213.749 306.935C213.41 307.087 213.164 307.27 213.012 307.485C212.867 307.699 212.794 307.934 212.794 308.19C212.794 308.439 212.832 308.653 212.908 308.833C212.991 309.006 213.102 309.151 213.24 309.269C213.385 309.38 213.551 309.463 213.738 309.518C213.932 309.566 214.143 309.59 214.371 309.59C214.952 309.59 215.45 309.483 215.865 309.269C216.287 309.048 216.695 308.729 217.089 308.315V306.354ZM211.176 301.873C212.372 300.759 213.797 300.203 215.45 300.203C216.058 300.203 216.598 300.303 217.068 300.504C217.545 300.697 217.943 300.974 218.261 301.333C218.586 301.693 218.831 302.122 218.997 302.62C219.17 303.111 219.257 303.657 219.257 304.259V310.98H218.261C218.047 310.98 217.884 310.949 217.773 310.887C217.663 310.818 217.569 310.683 217.493 310.483L217.275 309.622C217.006 309.864 216.739 310.081 216.477 310.275C216.214 310.462 215.941 310.621 215.657 310.752C215.381 310.884 215.08 310.98 214.755 311.043C214.437 311.112 214.084 311.146 213.697 311.146C213.268 311.146 212.867 311.088 212.493 310.97C212.127 310.853 211.809 310.676 211.539 310.441C211.269 310.199 211.055 309.902 210.896 309.549C210.744 309.196 210.668 308.781 210.668 308.304C210.668 307.896 210.775 307.499 210.989 307.111C211.211 306.724 211.57 306.378 212.068 306.074C212.573 305.763 213.233 305.507 214.049 305.306C214.872 305.106 215.885 304.992 217.089 304.964V304.259C217.089 303.498 216.926 302.931 216.601 302.557C216.276 302.184 215.799 301.997 215.17 301.997C214.741 301.997 214.381 302.053 214.091 302.163C213.8 302.267 213.548 302.381 213.334 302.506C213.119 302.63 212.929 302.748 212.763 302.858C212.597 302.962 212.421 303.014 212.234 303.014C212.082 303.014 211.951 302.976 211.84 302.9C211.736 302.817 211.65 302.716 211.581 302.599L211.176 301.873ZM225.12 311.146C224.241 311.146 223.564 310.901 223.086 310.41C222.616 309.912 222.381 309.214 222.381 308.315V302.153H221.219C221.095 302.153 220.988 302.115 220.898 302.039C220.808 301.956 220.763 301.835 220.763 301.676V300.773L222.474 300.524L222.962 297.464C222.996 297.347 223.055 297.253 223.138 297.184C223.221 297.108 223.332 297.07 223.47 297.07H224.611V300.545H227.547V302.153H224.611V308.159C224.611 308.539 224.705 308.83 224.891 309.03C225.078 309.231 225.327 309.331 225.638 309.331C225.811 309.331 225.96 309.31 226.084 309.269C226.209 309.22 226.316 309.172 226.406 309.124C226.496 309.068 226.572 309.02 226.634 308.978C226.703 308.93 226.769 308.906 226.831 308.906C226.956 308.906 227.056 308.975 227.132 309.113L227.796 310.202C227.45 310.507 227.042 310.742 226.572 310.908C226.102 311.067 225.617 311.146 225.12 311.146ZM240.124 306.354C239.329 306.382 238.658 306.447 238.112 306.551C237.566 306.648 237.123 306.776 236.784 306.935C236.445 307.087 236.2 307.27 236.048 307.485C235.903 307.699 235.83 307.934 235.83 308.19C235.83 308.439 235.868 308.653 235.944 308.833C236.027 309.006 236.138 309.151 236.276 309.269C236.421 309.38 236.587 309.463 236.774 309.518C236.968 309.566 237.179 309.59 237.407 309.59C237.988 309.59 238.486 309.483 238.9 309.269C239.322 309.048 239.73 308.729 240.124 308.315V306.354ZM234.212 301.873C235.408 300.759 236.833 300.203 238.486 300.203C239.094 300.203 239.633 300.303 240.104 300.504C240.581 300.697 240.979 300.974 241.297 301.333C241.622 301.693 241.867 302.122 242.033 302.62C242.206 303.111 242.292 303.657 242.292 304.259V310.98H241.297C241.082 310.98 240.92 310.949 240.809 310.887C240.698 310.818 240.605 310.683 240.529 310.483L240.311 309.622C240.042 309.864 239.775 310.081 239.512 310.275C239.25 310.462 238.977 310.621 238.693 310.752C238.416 310.884 238.116 310.98 237.791 311.043C237.472 311.112 237.12 311.146 236.732 311.146C236.304 311.146 235.903 311.088 235.529 310.97C235.163 310.853 234.845 310.676 234.575 310.441C234.305 310.199 234.091 309.902 233.932 309.549C233.78 309.196 233.703 308.781 233.703 308.304C233.703 307.896 233.811 307.499 234.025 307.111C234.246 306.724 234.606 306.378 235.104 306.074C235.609 305.763 236.269 305.507 237.085 305.306C237.908 305.106 238.921 304.992 240.124 304.964V304.259C240.124 303.498 239.962 302.931 239.637 302.557C239.312 302.184 238.835 301.997 238.205 301.997C237.777 301.997 237.417 302.053 237.127 302.163C236.836 302.267 236.584 302.381 236.369 302.506C236.155 302.63 235.965 302.748 235.799 302.858C235.633 302.962 235.457 303.014 235.27 303.014C235.118 303.014 234.986 302.976 234.876 302.9C234.772 302.817 234.685 302.716 234.616 302.599L234.212 301.873ZM247.177 295.628V310.98H244.947V295.628H247.177ZM252.201 295.628V310.98H249.971V295.628H252.201ZM254.384 297.381C254.612 297.174 254.861 296.98 255.13 296.8C255.4 296.621 255.691 296.461 256.002 296.323C256.32 296.185 256.662 296.078 257.029 296.002C257.402 295.919 257.803 295.877 258.232 295.877C258.806 295.877 259.332 295.96 259.809 296.126C260.293 296.285 260.708 296.517 261.054 296.821C261.406 297.118 261.679 297.481 261.873 297.91C262.067 298.332 262.163 298.806 262.163 299.331C262.163 299.857 262.087 300.313 261.935 300.701C261.783 301.081 261.589 301.413 261.354 301.696C261.119 301.98 260.863 302.229 260.587 302.443C260.31 302.651 260.047 302.848 259.798 303.035C259.556 303.214 259.345 303.398 259.166 303.584C258.993 303.764 258.889 303.965 258.854 304.186L258.637 305.742H257.122L256.967 304.03C256.932 303.705 256.984 303.425 257.122 303.19C257.26 302.955 257.444 302.734 257.672 302.526C257.907 302.319 258.163 302.122 258.439 301.935C258.723 301.741 258.986 301.527 259.228 301.292C259.47 301.057 259.674 300.794 259.84 300.504C260.006 300.213 260.089 299.864 260.089 299.456C260.089 299.186 260.037 298.944 259.933 298.73C259.83 298.508 259.684 298.322 259.498 298.17C259.311 298.017 259.093 297.9 258.844 297.817C258.595 297.734 258.325 297.692 258.035 297.692C257.627 297.692 257.281 297.741 256.998 297.838C256.714 297.934 256.472 298.042 256.271 298.159C256.071 298.27 255.905 298.374 255.774 298.47C255.642 298.56 255.532 298.605 255.442 298.605C255.227 298.605 255.068 298.512 254.964 298.325L254.384 297.381ZM256.375 309.694C256.375 309.494 256.41 309.307 256.479 309.134C256.555 308.954 256.655 308.799 256.78 308.667C256.911 308.536 257.063 308.432 257.236 308.356C257.416 308.28 257.606 308.242 257.807 308.242C258.007 308.242 258.194 308.28 258.367 308.356C258.547 308.432 258.702 308.536 258.834 308.667C258.965 308.799 259.069 308.954 259.145 309.134C259.221 309.307 259.259 309.494 259.259 309.694C259.259 309.902 259.221 310.092 259.145 310.265C259.069 310.438 258.965 310.59 258.834 310.721C258.702 310.853 258.547 310.953 258.367 311.022C258.194 311.098 258.007 311.136 257.807 311.136C257.606 311.136 257.416 311.098 257.236 311.022C257.063 310.953 256.911 310.853 256.78 310.721C256.655 310.59 256.555 310.438 256.479 310.265C256.41 310.092 256.375 309.902 256.375 309.694Z" fill="#4267AB"/>
</svg>
