<svg width="190" height="330" viewBox="0 0 190 330" fill="none" xmlns="http://www.w3.org/2000/svg">
<path d="M225.929 289.735C185.47 224.292 108.159 191.45 57.2052 133.801C43.6951 118.516 32.1622 101.612 20.6679 84.759C11.2586 70.9623 1.48255 56.0349 1.49509 39.3347C5.62168 45.6121 11.7968 50.2084 17.8448 54.6651C78.1971 99.1459 140.831 145.557 175.971 211.785C185.126 229.038 192.322 247.504 204.088 263.094" fill="#308784"/>
<path d="M208.473 219.592C148.503 187.676 101.161 132.742 78.4463 68.7181C74.2075 56.7695 71.0564 42.6034 78.207 32.1338C84.407 23.0551 96.8954 19.9262 107.667 22.1266C118.438 24.3266 127.781 30.8929 136.193 37.9725C187.937 81.5228 214.722 147.09 239.621 209.972" fill="#266A75"/>
<path d="M84.8268 33.5888C119.452 98.3849 175.98 150.948 215.458 213.103C216.968 215.481 221.061 212.945 219.676 210.465C184.088 146.756 131.825 89.6894 87.2051 32.1014C86.2397 30.8551 84.0617 32.1567 84.8268 33.5888Z" fill="#308784"/>
<path d="M84.1311 78.5647C89.8856 84.1955 98.009 87.3769 105.082 91.0831C115.713 96.6532 126.418 102.091 136.968 107.813C138.909 108.864 140.587 106.668 140.492 104.958C139.336 84.1491 137.205 63.2298 133.53 42.7076C132.909 39.2371 127.691 40.0886 128.131 43.5786C130.743 64.3134 133.343 84.9827 135.331 105.791C136.505 104.839 137.68 103.887 138.854 102.936C121.143 94.4952 103.065 86.1325 85.8459 76.7374C84.7228 76.1246 83.0013 77.4589 84.1311 78.5647Z" fill="#308784"/>
<path d="M125.09 149.053C135.153 156.562 146.699 160.169 158.484 164.138C165.123 166.374 171.423 168.843 177.651 172.055C181.076 173.821 182.956 175.71 186.722 174.578C187.874 174.232 188.718 173.542 188.896 172.292C190.139 163.52 187.401 153.325 186.381 144.55C185.066 133.239 183.684 121.936 182.26 110.638C181.829 107.217 176.534 108.073 176.973 111.491C178.328 122.032 179.646 132.577 180.906 143.129C181.553 148.541 183.73 155.842 183.018 161.224C182.262 166.937 183.436 167.462 178.141 166.455C169.979 164.903 161.011 159.78 152.834 157.357C143.613 154.623 134.532 151.817 125.786 147.771C125.011 147.413 124.436 148.566 125.09 149.053Z" fill="#308784"/>
</svg>
