<svg width="399" height="632" viewBox="0 0 399 632" fill="none" xmlns="http://www.w3.org/2000/svg">
<path d="M346.007 79.4671C322.534 45.5384 277.366 22.8666 206.481 48.0991C159.978 64.6523 150.902 89.5826 125.201 97.9436C99.5003 106.305 72.1929 109.842 53.5596 123.348C34.9264 136.855 1.24319 172.341 27.8586 227.218C65.4464 304.718 222.705 265.003 272.982 247.477C312.095 233.843 349.624 212.437 362.008 167.774" stroke="#4267AC" stroke-width="3" stroke-linecap="round" stroke-linejoin="round"/>
<path d="M397.342 102.066H386.157V140.381H397.342V102.066Z" fill="#FF923A"/>
<path fill-rule="evenodd" clip-rule="evenodd" d="M388.703 89.9306C388.551 89.8291 388.355 89.7952 388.18 89.8121L382.073 90.5736C381.724 90.6243 381.463 90.8781 381.528 91.1488C381.594 91.4196 381.921 91.6057 382.27 91.5719L386.261 91.0812L374.353 101.809L369.489 98.1877C369.358 98.0862 369.184 98.0354 369.009 98.0523C368.835 98.0523 368.66 98.12 368.551 98.2216L352.586 112.604L347.963 109.914C347.701 109.761 347.352 109.778 347.112 109.947L332.783 120.607C332.521 120.793 332.521 121.115 332.761 121.318C332.892 121.419 333.067 121.47 333.241 121.47C333.394 121.47 333.568 121.419 333.699 121.335L347.636 110.963L352.325 113.687C352.608 113.839 352.979 113.822 353.219 113.619L369.118 99.2876L373.982 102.909C374.113 103.01 374.287 103.061 374.462 103.044C374.636 103.044 374.811 102.976 374.92 102.875L387.635 91.4196L387.548 95.4297C387.548 95.7173 387.831 95.9373 388.202 95.9373C388.551 95.9373 388.856 95.7173 388.856 95.4297L388.965 90.3028C388.943 90.1844 388.856 90.0321 388.703 89.9306Z" fill="#4267AC"/>
<path fill-rule="evenodd" clip-rule="evenodd" d="M379.239 108.844H367.855C367.414 108.844 367.057 109.135 367.057 109.496V139.776C367.057 140.136 367.414 140.428 367.855 140.428H379.239C379.679 140.428 380.037 140.136 380.037 139.776V109.496C380.037 109.135 379.679 108.844 379.239 108.844Z" fill="#4267AC"/>
<path fill-rule="evenodd" clip-rule="evenodd" d="M342.509 124.636H331.149C330.709 124.636 330.353 124.927 330.353 125.287V139.778C330.353 140.138 330.709 140.429 331.149 140.429H342.509C342.949 140.429 343.305 140.138 343.305 139.778V125.287C343.305 124.927 342.949 124.636 342.509 124.636Z" fill="#4267AC"/>
<path fill-rule="evenodd" clip-rule="evenodd" d="M359.593 118.678H348.295C347.857 118.678 347.503 118.968 347.503 119.326V139.827C347.503 140.185 347.857 140.475 348.295 140.475H359.593C360.03 140.475 360.385 140.185 360.385 139.827V119.326C360.385 118.968 360.03 118.678 359.593 118.678Z" fill="#4267AC"/>
<path d="M347.197 318.098C329.16 343.79 299.606 358.755 270.46 367.861" stroke="#4267AC" stroke-width="2" stroke-linecap="round"/>
<path d="M57.3048 331.059C75.3423 356.751 104.896 371.716 134.042 380.822" stroke="#4267AC" stroke-width="2" stroke-linecap="round"/>
<path d="M223.665 284.573C203.123 309.542 171.852 314.912 149.041 318.802C134.604 321.25 122.17 323.384 117.439 329.071L112.047 335.625L105.489 330.104C49.1046 282.721 41.2581 201.565 87.6116 145.131C89.4267 142.925 91.2899 140.789 93.1998 138.724L95.0232 136.508L97.9279 136.062C129.237 131.225 148.254 144.927 154.383 176.671C156.577 189.887 157.785 203.236 157.993 216.618C158.891 234.802 159.427 251.755 164.751 261.347C166.474 265.601 170.434 268.666 175.15 269.396C180.885 270.264 188.994 268.118 199.178 262.936C206.72 258.704 214.853 255.506 223.327 253.438L224.02 252.595L232.227 252.642L238.66 260.694L235.604 264.408C233.224 270.995 229.669 277.14 225.101 282.572L223.665 284.573Z" fill="#58E5AA"/>
<path d="M310.507 312.084C263.379 369.375 177.183 380.743 115.548 337.796L108.404 332.793L114.069 326.292C120.197 319.229 132.605 317.127 148.286 314.451C171.59 310.476 200.548 305.542 219.985 281.915L221.526 280.042C226.096 274.693 229.533 268.55 231.654 261.95C231.976 260.274 231.853 259.072 231.295 258.401C230.737 257.731 230.454 257.367 227.767 257.421C225.079 257.475 217.424 258.75 201.449 266.858C194.288 270.98 186.119 273.244 177.76 273.42C170.66 273.26 164.243 269.347 161.114 263.263C155.288 252.738 154.579 236.059 153.8 216.703C153.578 203.594 152.397 190.516 150.263 177.568C145.119 151.307 133.676 139.901 112.894 139.46C109.706 139.497 106.519 139.534 103.331 139.571C99.8042 139.612 95.6579 140.194 92.2199 139.645C103.623 126.917 118.3 116.092 133.861 108.4C147.902 101.458 163.178 96.8384 178.827 94.7C194.516 92.5567 210.575 92.9081 226.133 95.8047C230.915 96.6955 235.648 97.8253 240.306 99.192C247.197 101.215 253.939 103.631 260.44 106.613L266.225 109.285L264.963 115.252C260.13 138.475 264.67 142.786 272.854 150.637C281.712 159.146 294.227 171.05 295.648 217.128C295.485 229.429 297.659 241.655 302.058 253.219C306.248 262.936 313.891 270.937 323.645 275.812L330.686 279.526L327.335 286.298C322.751 295.468 317.11 304.117 310.507 312.084Z" fill="#4267AC"/>
<path d="M320.264 279.337C310.156 273.923 302.261 265.406 297.857 255.171C293.243 243.007 291.002 230.145 291.241 217.209C289.863 172.879 278.647 162.352 269.768 153.676C261.689 145.955 256.273 138.916 259.869 118.097L261.877 106.532L272.311 112.74C277.277 115.616 282.054 118.779 286.619 122.206C316.25 144.319 335.376 176.83 339.737 212.49C342.379 233.606 339.793 255.015 332.184 275.001L328.774 283.9L320.264 279.337Z" fill="#58E5AA"/>
<path d="M69 232C89.5501 273.893 130.08 286.922 172.956 285.184C209.669 283.695 242.902 275.723 277.034 261.69C288.423 257.008 300.168 252.83 310.62 246.006C313.899 243.865 316.711 240.239 320.339 238.971" stroke="#466DB6" stroke-linecap="round"/>
<path d="M307.534 155.776C310.423 169.785 311.125 184.482 309.291 199.486C300.205 273.848 231.095 328.202 154.09 321.623C128.952 319.475 105.913 311.181 86.4002 298.411C85.0509 297.528 83.4011 299.034 84.2173 300.399C110.674 344.621 163.111 373.152 223.331 364.759C275.059 357.551 317.608 321.324 332.297 272.743C345.488 229.115 335.23 186.345 310.272 154.597C309.283 153.34 307.214 154.227 307.534 155.776Z" fill="#331527" fill-opacity="0.21"/>
<path d="M175.873 536.574L254.059 551.365L253.224 631.665L169.225 630.773L175.873 536.574Z" fill="#FF923A"/>
<path d="M169.225 630.773L253.224 631.665L253.544 600.816L171.848 593.607L169.225 630.773Z" fill="#FF923A"/>
<path d="M253.659 590.311L253.733 582.693L239.259 586.773L253.659 590.311Z" fill="#BC796B"/>
<path d="M172.82 580.561L174.117 561.47L201.027 580.347L172.82 580.561Z" fill="#BC796B"/>
<path d="M273.874 482.459L253.677 486.586" stroke="#FF923A" stroke-width="32" stroke-miterlimit="10" stroke-linecap="round"/>
<path d="M255.011 461.943L233.236 471.587" stroke="#FF923A" stroke-width="36" stroke-miterlimit="10" stroke-linecap="round"/>
<path d="M231.168 450.274L203.842 466.418" stroke="#FF923A" stroke-width="40" stroke-miterlimit="10" stroke-linecap="round"/>
<path d="M184.567 499.463L184.567 499.463C176.301 499.885 169.311 493.35 169.085 484.989L166.082 373.903C165.902 367.218 171.035 361.61 177.645 361.271C184.254 360.933 189.922 365.989 190.41 372.658L198.524 483.483C199.135 491.824 192.833 499.04 184.567 499.463Z" fill="#FF923A"/>
<path d="M245.906 481.059L184.352 462.247C177.281 460.086 170.098 465.271 169.827 472.732L168.283 515.22C166.806 555.861 200.279 589.382 240.43 586.64C246.997 586.192 252.404 584.86 255.708 582.243C265.153 574.763 271.081 549.443 274.561 527.384C277.798 506.864 265.587 487.074 245.906 481.059Z" fill="#FF923A"/>
<path d="M229.818 479.405L192.304 474.543" stroke="#BC796B" stroke-width="3" stroke-miterlimit="10"/>
<path d="M196.37 454.056C196.967 462.213 197.493 469.399 197.876 474.627" stroke="#BC796B" stroke-width="3" stroke-miterlimit="10"/>
<path d="M178.224 512.491C175.868 508.037 173.084 503.373 169.814 498.733C166.51 494.045 163.338 490.021 160.313 486.575" stroke="#BC796B" stroke-width="6" stroke-miterlimit="10"/>
<path d="M210.397 524.551C225.495 542.961 227.801 566.204 215.55 576.465C203.298 586.727 181.128 580.121 166.03 561.712C150.933 543.302 148.627 520.058 160.878 509.797C173.13 499.536 195.3 506.142 210.397 524.551Z" fill="#FF923A"/>
<path d="M160.878 509.797C173.13 499.536 195.3 506.142 210.397 524.552" stroke="#BC796B" stroke-width="3" stroke-miterlimit="10"/>
<path d="M179.567 559.426C190.062 555.843 190.666 545.273 189.281 540.207C187.896 535.14 182.516 516.757 169.815 498.733C155.055 477.788 142.925 470.11 134.801 467.876C128.533 466.153 122.232 467.539 119.124 471.461C116.704 474.516 116.495 479.28 119.762 484.118C122.645 488.386 136.999 500.892 144.998 515.042C152.997 529.191 158.512 546.58 160.398 551.473C162.284 556.366 169.378 562.904 179.567 559.426Z" fill="#FF923A"/>
<path d="M135.175 479.553C138.795 484.14 137.372 487.559 134.265 490.063C131.159 492.567 127.545 493.208 123.925 488.622C120.305 484.035 117.14 480.502 122.996 475.783C128.852 471.063 131.556 474.967 135.175 479.553Z" fill="#EDB581" fill-opacity="0.95"/>
<path d="M268.432 536.908C263.058 536.201 259.23 531.28 259.822 525.836L264.747 480.536C265.41 474.433 270.904 470.07 276.928 470.861C282.953 471.653 287.159 477.29 286.257 483.361L279.557 528.429C278.752 533.845 273.806 537.614 268.432 536.908Z" fill="#FF923A"/>
<path d="M267.331 521.061C268.099 516.308 270.942 515.299 274.161 515.831C277.381 516.363 279.758 518.231 278.99 522.985C278.222 527.738 277.838 531.631 271.77 530.629C265.701 529.628 266.563 525.814 267.331 521.061Z" fill="#EDB581" fill-opacity="0.95"/>
<path d="M273.03 536.419C271.601 536.93 270.035 537.118 268.431 536.908C263.057 536.201 259.23 531.28 259.822 525.836L264.746 480.536C264.809 479.957 264.915 479.394 265.062 478.849" stroke="#BC796B" stroke-width="3" stroke-miterlimit="10"/>
<path d="M248.097 528.967C241.932 528.281 237.443 522.737 237.998 516.495L242.963 460.697C243.59 453.655 249.817 448.505 256.772 449.278C263.727 450.052 268.698 456.446 267.794 463.458L260.637 519.012C259.836 525.227 254.262 529.652 248.097 528.967Z" fill="#FF923A"/>
<path d="M245.003 511.948C245.707 506.383 248.976 505.094 252.746 505.582C256.515 506.07 259.357 508.149 258.652 513.714C257.947 519.279 257.656 523.826 250.552 522.907C243.447 521.988 244.298 517.513 245.003 511.948Z" fill="#EDB581" fill-opacity="0.95"/>
<path d="M266.543 473.169C264.492 489.094 260.637 519.012 260.637 519.012C259.836 525.227 254.262 529.652 248.097 528.967C241.932 528.281 237.443 522.737 237.998 516.495C237.998 516.495 240.87 484.225 242.245 468.767" stroke="#BC796B" stroke-width="3" stroke-miterlimit="10"/>
<path d="M226.37 521.512C220.225 521.089 215.516 515.823 215.72 509.602L217.695 449.48C217.949 441.763 224.482 435.797 232.104 436.321C239.726 436.845 245.4 443.651 244.617 451.33L238.517 511.169C237.886 517.361 232.514 521.934 226.37 521.512Z" fill="#FF923A"/>
<path d="M221.865 504.646C222.311 498.797 225.658 497.276 229.62 497.585C233.582 497.894 236.659 499.915 236.213 505.764C235.766 511.614 235.699 516.379 228.231 515.797C220.762 515.215 221.418 510.496 221.865 504.646Z" fill="#EDB581" fill-opacity="0.95"/>
<path d="M244.47 452.77C243.541 461.882 238.517 511.169 238.517 511.169C237.886 517.361 232.514 521.934 226.37 521.512C220.225 521.089 215.516 515.823 215.72 509.602C215.72 509.602 216.522 485.198 217.104 467.486" stroke="#BC796B" stroke-width="3" stroke-miterlimit="10"/>
<path d="M45 301C55.7384 308.855 76.9173 311.298 99.3216 310.972C118.506 310.693 135.872 309.198 153.708 306.567C159.659 305.689 165.796 304.906 171.258 303.626C172.971 303.225 174.441 302.545 176.336 302.307" stroke="#466DB6" stroke-linecap="round"/>
<path d="M139.26 70.7261C137.812 70.6592 136.094 71.4259 134.398 72.2562C129.039 74.881 124.929 80.6262 118.053 80.5761C114.925 80.5533 109.914 78.8604 104.803 77.3871L104.265 81.5395C106.757 81.9904 109.227 82.5252 111.657 83.1998C115.889 84.3751 120.149 85.2468 124.451 85.9373C127.892 84.2661 132.842 80.6649 140.558 74.0247C141.703 73.0396 140.969 70.8045 139.26 70.7261Z" fill="#FF923A"/>
<path d="M116.542 81.8867C120.775 83.0618 125.035 83.9334 129.337 84.6242C132.778 82.9532 137.728 79.3518 145.444 72.7119C146.589 71.7264 145.854 69.4917 144.146 69.4125C142.698 69.3461 140.979 70.1131 139.284 70.9431C133.923 73.5673 129.815 79.3126 122.939 79.2629C116.064 79.2131 100.099 71.0941 93.9655 74.9762C93.9655 74.9762 93.9429 74.9546 93.9075 74.9222L93.4658 78.3274C101.293 78.9694 109.09 79.8175 116.542 81.8867Z" fill="#FF923A"/>
<path d="M120.618 51.088C119.129 48.6769 116.142 47.1275 113.027 46.5608C109.913 45.993 106.666 46.3028 103.55 46.8695C105.044 47.2712 106.117 48.4305 106.706 49.6718C107.295 50.9151 107.487 52.2626 107.803 53.5762C108.122 54.8883 108.599 56.2241 109.634 57.229C111.102 58.6526 113.486 59.1728 115.695 59.0274C117.907 58.8831 120.004 58.1637 122.059 57.4511C121.944 55.2742 121.804 53.0153 120.618 51.088Z" fill="#8ECB29"/>
<path d="M114.407 52.5433C113.045 51.0959 111.92 49.2737 109.868 48.6674C111.825 50.1676 113.038 52.2393 114.639 54.024C116.242 55.8091 118.561 57.4141 121.187 57.2824C118.736 55.9069 116.245 54.4987 114.407 52.5433Z" fill="#B3DB6F"/>
<path d="M116.663 50.4055C116.54 51.3867 116.421 52.3768 116.548 53.3574C116.673 54.3369 117.069 55.3207 117.857 56.0396C117.817 55.3625 117.662 54.6948 117.508 54.0309C117.226 52.8224 116.944 51.6145 116.663 50.4055Z" fill="#B3DB6F"/>
<path d="M113.581 52.7921C113.723 53.0485 114.232 52.9068 114.329 52.6361C114.427 52.366 113.711 48.894 113.142 48.5815C113.287 49.9845 113.434 51.3896 113.581 52.7921Z" fill="#B3DB6F"/>
<path d="M113.973 53.2906C114.145 53.2716 114.337 53.2335 114.421 53.104C114.516 52.9586 114.412 52.7657 114.25 52.6748C114.085 52.5838 113.881 52.5299 113.689 52.5574C112.085 52.789 111.277 52.5083 109.713 52.3105C110.913 53.0934 112.476 53.4534 113.973 53.2906Z" fill="#B3DB6F"/>
<path d="M111.277 54.902C113.073 55.7943 115.285 56.0507 117.292 55.5992C117.23 55.4359 117.167 55.2731 117.107 55.1097C115.162 55.0415 113.222 54.9712 111.277 54.902Z" fill="#B3DB6F"/>
<path d="M123.432 72.1821C124.497 71.8702 124.699 70.6798 124.721 69.7166C124.77 67.3388 124.82 64.9484 124.459 62.5907C124.094 60.2325 123.3 57.8869 121.778 55.8977C121.143 56.3909 120.901 57.1675 120.918 57.9007C120.935 58.6344 121.179 59.3481 121.377 60.0622C122.394 63.7262 122.187 67.6322 120.794 71.2036C121.519 71.8084 122.474 72.4618 123.432 72.1821Z" fill="#8ECB29"/>
<path d="M137.626 53.7196C137.126 54.8699 136.278 55.9446 135.061 56.5906C133.031 57.6669 130.442 57.383 128.076 57.1229C125.71 56.8633 123.056 56.7301 121.196 58.0083C121.653 55.4223 122.183 52.6882 124.171 50.7011C126.106 48.7616 129.113 47.8703 132.043 47.4035C134.974 46.9367 137.993 46.8078 140.821 46C139.616 46.9267 139.035 48.3091 138.691 49.6639C138.347 51.0204 138.19 52.4202 137.626 53.7196Z" fill="#8ECB29"/>
<path d="M128.337 54.3384C126.1 55.1657 123.96 56.1828 121.958 57.369C125.308 53.463 132.402 53.1775 135.933 49.3899C135.454 50.7395 134.21 51.8052 132.81 52.5527C131.415 53.3002 129.848 53.7775 128.337 54.3384Z" fill="#B3DB6F"/>
<path d="M127.428 51.4259C126.106 53.0181 124.782 54.6114 123.46 56.2047C125.41 55.1242 126.597 53.2819 127.428 51.4259Z" fill="#B3DB6F"/>
<path d="M131.186 49.7939C130.487 51.2773 129.465 52.6485 128.185 53.8147C128.689 53.5033 128.801 53.8538 129.255 53.4912C129.517 53.2813 131.186 51.8049 131.186 49.7939Z" fill="#B3DB6F"/>
<path d="M129.255 53.4908C129.16 53.5019 129.053 53.5209 129.011 53.5912C128.918 53.7377 129.175 53.8571 129.37 53.8772C130.39 53.9882 131.425 54.0982 132.445 53.9814C133.464 53.8624 134.485 53.4876 135.113 52.7893C133.16 53.023 131.207 53.2571 129.255 53.4908Z" fill="#B3DB6F"/>
<path d="M133.223 55.1982C130.735 55.3901 128.211 55.2896 125.752 54.8953C125.73 55.3245 126.276 55.6015 126.757 55.722C128.864 56.2501 131.117 55.7231 133.223 55.1982Z" fill="#B3DB6F"/>
<path d="M108.827 77.7683C110.241 76.4034 112.418 74.3465 114.102 73.2274C115.782 72.1072 118.572 70.9976 120.689 70.7989C122.998 70.5832 124.966 71.1462 127.036 72.047C130.08 73.3722 132.463 75.8177 135.002 77.7736C131.376 79.904 127.039 81.0733 122.653 81.3017C115.135 81.6923 108.827 77.7683 108.827 77.7683Z" fill="#7F6555"/>
<path d="M122.498 80.9112C126.731 82.086 130.99 82.9579 135.292 83.6489C138.734 81.978 143.971 78.6334 151.686 71.9935C152.832 71.0083 152.015 69.4081 150.306 69.3292C148.858 69.2626 147.099 69.3835 145.24 69.9678C140.544 71.4434 135.771 78.3374 128.896 78.2877C122.02 78.2376 106.056 70.1186 99.9213 74.0007C99.9213 74.0007 99.8984 73.9791 99.8633 73.9465L99.4224 77.3519C107.249 77.9939 115.045 78.842 122.498 80.9112Z" fill="#FF923A"/>
<path d="M63 85.2046C63 85.2046 64.0848 94.2015 76.6955 95.3755C76.6955 95.3755 87.8399 86.1003 90.3267 85.3033C97.1164 83.1274 107.816 85.9167 110.727 86.0973C115.468 86.3909 126.068 86.5518 131.54 87.2724C132.214 87.3612 132.899 87.2335 133.435 86.9048C135.181 85.8339 139.409 83.3105 143.43 81.4458C146.287 80.121 148.7 77.3076 152.207 74.2895C153.351 73.3043 152.535 71.7038 150.827 71.6252C149.379 71.5586 147.619 71.6794 145.76 72.2633C141.064 73.7391 136.291 80.6336 129.415 80.584C122.54 80.5333 106.576 72.4143 100.442 76.297C100.442 76.297 93.0988 69.2358 86.7048 72.226C80.3108 75.2165 72.8011 81.0261 63 85.2046Z" fill="#FF923A"/>
<path d="M110.776 75.9957L102.196 71.9842C86.8535 67.8836 88.2312 73.0957 86.0405 74.1543L96.3774 78.6934C96.3774 78.6934 104.011 76.0494 123.702 79.573C123.702 79.573 111.322 76.0338 110.776 75.9957Z" fill="#FF923A"/>
<path d="M129.986 74.7792C130.119 74.3681 129.883 73.9432 129.338 73.9054C125.091 73.6085 109.076 72.3605 99.6522 69.8421C84.3092 65.7417 85.4256 72.9756 83.2339 74.0345L96.3775 78.6932C96.3775 78.6932 98.4383 73.714 120.326 78.6123C120.326 78.6123 128.556 79.1646 129.986 74.7792Z" fill="#FF923A"/>
<path d="M123.655 73.6454C123.655 73.6454 121.028 74.5228 122.433 75.7332C123.158 76.3576 124.404 76.7515 126.697 76.3936C128.45 76.1203 129.321 75.2179 129.459 74.6182C129.522 74.3411 129.267 74.0818 128.902 74.0533L123.655 73.6454Z" fill="#F9F0DB"/>
<path d="M151.334 72.7443C149.79 72.573 147.095 73.3481 147.163 76.2125C147.179 76.8783 148.418 77.1604 149.278 76.636C150.023 76.1813 151.014 75.3343 152.063 74.5065C152.583 74.0953 152.913 72.9194 151.334 72.7443Z" fill="#F9F0DB"/>
<path d="M305.396 22.4175C306.278 20.8005 306.719 18.963 306.719 17.1255C306.719 11.8335 303.044 7.4235 298.12 6.2475C296.208 2.4255 292.313 0 288.05 0C283.64 0 279.818 2.499 277.98 6.2475C272.983 7.4235 269.381 11.9805 269.381 17.1255C269.381 19.0365 269.896 20.8005 270.704 22.4175C267.764 24.549 266 27.8565 266 31.5315C266 37.7055 271.072 42.777 277.246 42.777C278.642 42.777 280.039 42.483 281.361 41.9685C282.17 42.5565 283.052 43.071 284.007 43.4385C284.019 43.4385 284.063 43.4518 284.138 43.4743C284.563 43.6019 285.978 44.0265 287.976 44.0265C289.153 44.0265 290.549 43.8795 291.945 43.4385C292.901 43.1445 293.857 42.63 294.738 42.042C295.988 42.5565 297.385 42.777 298.781 42.777C304.955 42.777 310.027 37.7055 310.027 31.5315C310.1 27.783 308.263 24.402 305.396 22.4175Z" fill="#50B98E"/>
<path d="M305.396 22.4175C306.278 20.8005 306.719 18.963 306.719 17.1255C306.719 11.8335 303.044 7.4235 298.12 6.2475C296.208 2.4255 292.313 0 288.05 0C283.64 0 279.818 2.499 277.98 6.2475C272.983 7.4235 269.381 11.9805 269.381 17.1255C269.381 19.0365 269.896 20.8005 270.704 22.4175C267.764 24.549 266 27.8565 266 31.5315C266 37.7055 271.072 42.777 277.246 42.777C278.642 42.777 280.039 42.483 281.361 41.9685C282.17 42.5565 283.052 43.071 284.007 43.4385C284.019 43.4385 284.063 43.4518 284.138 43.4743C284.563 43.6019 285.978 44.0265 287.976 44.0265C289.153 44.0265 290.549 43.8795 291.945 43.4385C292.901 43.1445 293.857 42.63 294.738 42.042C295.988 42.5565 297.385 42.777 298.781 42.777C304.955 42.777 310.027 37.7055 310.027 31.5315C310.1 27.783 308.263 24.402 305.396 22.4175Z" stroke="black"/>
<path d="M288.05 59.976V20.8005V59.976Z" stroke="#408435" stroke-width="1.47" stroke-linecap="round" stroke-linejoin="round"/>
<path d="M294.738 22.4175L288.05 29.106L294.738 22.4175Z" stroke="#408435" stroke-width="1.47" stroke-linecap="round" stroke-linejoin="round"/>
<path d="M294.738 33.4425L288.05 40.131L294.738 33.4425Z" stroke="#408435" stroke-width="1.47" stroke-linecap="round" stroke-linejoin="round"/>
<path d="M281.361 27.8564L288.05 34.5449L281.361 27.8564Z" stroke="#408435" stroke-width="1.47" stroke-linecap="round" stroke-linejoin="round"/>
<path d="M260.949 27.8207C261.53 26.8238 261.82 25.6909 261.82 24.5581C261.82 21.2955 259.399 18.5767 256.156 17.8517C254.897 15.4954 252.331 14 249.524 14C246.619 14 244.101 15.5407 242.891 17.8517C239.599 18.5767 237.227 21.3861 237.227 24.5581C237.227 25.7363 237.566 26.8238 238.098 27.8207C236.162 29.1348 235 31.1739 235 33.4396C235 37.2459 238.34 40.3726 242.407 40.3726C243.327 40.3726 244.247 40.1913 245.118 39.8741C245.651 40.2366 246.232 40.5538 246.861 40.7804C246.868 40.7804 246.897 40.7886 246.947 40.8025C247.227 40.8811 248.159 41.1429 249.475 41.1429C250.25 41.1429 251.17 41.0523 252.089 40.7804C252.719 40.5992 253.348 40.282 253.929 39.9195C254.752 40.2366 255.672 40.3726 256.592 40.3726C260.658 40.3726 263.999 37.2459 263.999 33.4396C264.047 31.1286 262.837 29.0442 260.949 27.8207Z" fill="#50B98E"/>
<path d="M260.949 27.8207C261.53 26.8238 261.82 25.6909 261.82 24.5581C261.82 21.2955 259.399 18.5767 256.156 17.8517C254.897 15.4954 252.331 14 249.524 14C246.619 14 244.101 15.5407 242.891 17.8517C239.599 18.5767 237.227 21.3861 237.227 24.5581C237.227 25.7363 237.566 26.8238 238.098 27.8207C236.162 29.1348 235 31.1739 235 33.4396C235 37.2459 238.34 40.3726 242.407 40.3726C243.327 40.3726 244.247 40.1913 245.118 39.8741C245.651 40.2366 246.232 40.5538 246.861 40.7804C246.868 40.7804 246.897 40.7886 246.947 40.8025C247.227 40.8811 248.159 41.1429 249.475 41.1429C250.25 41.1429 251.17 41.0523 252.089 40.7804C252.719 40.5992 253.348 40.282 253.929 39.9195C254.752 40.2366 255.672 40.3726 256.592 40.3726C260.658 40.3726 263.999 37.2459 263.999 33.4396C264.047 31.1286 262.837 29.0442 260.949 27.8207Z" stroke="black"/>
<path d="M249.523 50.9761V26.8239V50.9761Z" stroke="#408435" stroke-width="1.47" stroke-linecap="round" stroke-linejoin="round"/>
<path d="M253.929 27.8208L249.523 31.9443L253.929 27.8208Z" stroke="#408435" stroke-width="1.47" stroke-linecap="round" stroke-linejoin="round"/>
<path d="M253.929 34.6177L249.523 38.7412L253.929 34.6177Z" stroke="#408435" stroke-width="1.47" stroke-linecap="round" stroke-linejoin="round"/>
<path d="M245.118 31.174L249.523 35.2975L245.118 31.174Z" stroke="#408435" stroke-width="1.47" stroke-linecap="round" stroke-linejoin="round"/>
<path d="M53.1543 154.404C53.1543 154.404 29.5369 151.639 25.8885 165.104C25.8885 165.104 23.3689 174.108 33.4921 176.778C33.4921 176.778 47.6491 179.421 49.1145 164.875C49.1145 164.875 50.6619 155.13 53.1543 154.404Z" fill="#50B98E"/>
<path d="M31.0033 204.877L28.4978 204.86C28.4978 204.86 23.5625 158.944 48.5247 155.683C48.5247 155.683 32.0195 156.18 30.7656 189.379C30.5945 193.908 30.929 199.121 31.0033 204.877Z" fill="#308784"/>
<path d="M53.5002 216.998C53.5002 229.93 41.9072 240.496 27.5001 240.496C13.0928 240.496 1.5 229.93 1.5 216.998C1.5 204.066 13.0928 193.5 27.5001 193.5C41.9072 193.5 53.5002 204.066 53.5002 216.998Z" fill="#58E5AA" stroke="#4267AC"/>
<path d="M27.9385 227.008C28.5049 227.008 29.0566 226.964 29.5938 226.876C30.1309 226.788 30.6436 226.666 31.1318 226.51L31.4248 228.854C30.8779 228.99 30.3066 229.098 29.7109 229.176C29.1152 229.254 28.5146 229.293 27.9092 229.293C26.7471 229.293 25.6826 229.117 24.7158 228.766C23.749 228.404 22.9141 227.872 22.2109 227.169C21.5078 226.456 20.9609 225.572 20.5703 224.518C20.1895 223.453 19.999 222.213 19.999 220.797V215.919C19.999 214.493 20.1895 213.248 20.5703 212.184C20.9512 211.119 21.4932 210.23 22.1963 209.518C22.8994 208.805 23.7295 208.272 24.6865 207.921C25.6533 207.56 26.7227 207.379 27.8945 207.379C28.5098 207.379 29.1006 207.423 29.667 207.511C30.2432 207.589 30.8291 207.696 31.4248 207.833L31.1318 210.191C30.6533 210.035 30.1406 209.913 29.5938 209.825C29.0469 209.728 28.4902 209.679 27.9238 209.679C27.1426 209.679 26.4346 209.806 25.7998 210.06C25.1748 210.313 24.6377 210.694 24.1885 211.202C23.749 211.71 23.4121 212.354 23.1777 213.136C22.9434 213.917 22.8262 214.835 22.8262 215.89V220.797C22.8262 221.852 22.9434 222.77 23.1777 223.551C23.4219 224.332 23.7686 224.977 24.2178 225.484C24.667 225.992 25.2041 226.373 25.8291 226.627C26.4639 226.881 27.167 227.008 27.9385 227.008ZM28.4512 215.421V217.252H17.3916V215.421H28.4512ZM28.4512 219.244V221.061H17.3916V219.244H28.4512Z" fill="#4267AC"/>
</svg>
